<svg width="220" height="220" viewBox="0 0 220 220" fill="none" xmlns="http://www.w3.org/2000/svg">
<path d="M164.701 62.3788L66.766 61.6C64.091 61.5789 61.517 62.6211 59.6102 64.4974C57.7033 66.3737 56.6197 68.9305 56.5976 71.6056L56.0784 136.673C56.068 137.997 56.3185 139.311 56.8157 140.538C57.3129 141.766 58.047 142.883 58.9761 143.827C59.9052 144.771 61.0111 145.522 62.2307 146.039C63.4503 146.555 64.7597 146.826 66.084 146.837L164.019 147.624C166.694 147.645 169.268 146.603 171.175 144.727C173.082 142.851 174.166 140.294 174.188 137.619L174.707 72.5516C174.718 71.2266 174.468 69.9125 173.971 68.6842C173.474 67.4559 172.74 66.3375 171.811 65.3929C170.882 64.4482 169.776 63.6958 168.556 63.1787C167.336 62.6615 166.026 62.3897 164.701 62.3788Z" fill="url(#paint0_linear_473_1259)"/>
<path d="M164.701 62.3788L66.766 61.6C64.091 61.5789 61.517 62.6211 59.6102 64.4974C57.7033 66.3737 56.6197 68.9305 56.5976 71.6056L56.0784 136.673C56.068 137.997 56.3185 139.311 56.8157 140.538C57.3129 141.766 58.047 142.883 58.9761 143.827C59.9052 144.771 61.0111 145.522 62.2307 146.039C63.4503 146.555 64.7597 146.826 66.084 146.837L164.019 147.624C166.694 147.645 169.268 146.603 171.175 144.727C173.082 142.851 174.166 140.294 174.188 137.619L174.707 72.5516C174.718 71.2266 174.468 69.9125 173.971 68.6842C173.474 67.4559 172.74 66.3375 171.811 65.3929C170.882 64.4482 169.776 63.6958 168.556 63.1787C167.336 62.6615 166.026 62.3897 164.701 62.3788V62.3788Z" stroke="#D8A960" stroke-width="4.75126" stroke-miterlimit="10"/>
<path d="M77.3036 125.611L56.1836 125.444L56.5268 82.8256L77.6468 82.9928C81.4893 83.03 85.1605 84.5889 87.8557 87.3279C90.551 90.0669 92.0506 93.7626 92.026 97.6052L91.9204 111.245C91.8797 115.086 90.3187 118.755 87.5792 121.447C84.8396 124.14 81.1447 125.637 77.3036 125.611V125.611Z" stroke="#D8A960" stroke-width="4.75126" stroke-miterlimit="10"/>
<path d="M91.9596 104.421C91.1588 104.729 56.4736 104.135 56.4736 104.135" stroke="#D8A960" stroke-width="4.75126" stroke-miterlimit="10"/>
<path d="M153.144 126.223L174.264 126.39L174.607 83.7716L153.487 83.6044C149.644 83.5797 145.948 85.0794 143.209 87.7746C140.47 90.4699 138.912 94.141 138.874 97.9836L138.769 111.624C138.748 115.463 140.248 119.155 142.942 121.891C145.636 124.627 149.304 126.184 153.144 126.223V126.223Z" stroke="#D8A960" stroke-width="4.75126" stroke-miterlimit="10"/>
<path d="M138.961 104.795C139.762 105.12 174.447 105.081 174.447 105.081" stroke="#D8A960" stroke-width="4.75126" stroke-miterlimit="10"/>
<path d="M89.0469 87.428L97.0725 79.53L135.691 79.8424L142.806 87.0716" stroke="#D8A960" stroke-width="4.75126" stroke-miterlimit="10"/>
<path d="M115.973 79.684L116.118 61.9916" stroke="#D8A960" stroke-width="4.75126" stroke-miterlimit="10"/>
<path d="M88.6113 121.198L96.6721 129.386L135.291 129.699L142.745 122.364" stroke="#D8A960" stroke-width="4.75126" stroke-miterlimit="10"/>
<path d="M115.575 129.54L115.43 147.228" stroke="#D8A960" stroke-width="4.75126" stroke-miterlimit="10"/>
<defs>
<linearGradient id="paint0_linear_473_1259" x1="64.1607" y1="66.0167" x2="164.27" y2="141.42" gradientUnits="userSpaceOnUse">
<stop stop-color="#FFFFC7"/>
<stop offset="0.58" stop-color="#FFCB68"/>
<stop offset="1" stop-color="#F5E08F"/>
</linearGradient>
</defs>
</svg>
