<!-- <svg width="1439" height="312" viewBox="0 0 1439 312" fill="none" xmlns="http://www.w3.org/2000/svg">
<g clip-path="url(#clip0_712_7899)">
<rect width="1440" height="312" transform="translate(-1)" fill="#572B92"/>
<path d="M552.631 136.684V113.644H556.487V123.34H567.399V113.644H571.239V136.684H567.399V126.956H556.487V136.684H552.631ZM583.356 137.164C581.628 137.164 580.119 136.775 578.828 135.996C577.538 135.218 576.535 134.146 575.82 132.78C575.116 131.404 574.764 129.826 574.764 128.044C574.764 126.231 575.127 124.642 575.852 123.276C576.578 121.911 577.586 120.844 578.876 120.076C580.167 119.308 581.66 118.924 583.356 118.924C585.095 118.924 586.61 119.314 587.9 120.092C589.191 120.871 590.194 121.948 590.908 123.324C591.623 124.69 591.98 126.263 591.98 128.044C591.98 129.836 591.618 131.42 590.892 132.796C590.178 134.162 589.175 135.234 587.884 136.012C586.594 136.78 585.084 137.164 583.356 137.164ZM583.356 133.548C584.892 133.548 586.034 133.036 586.78 132.012C587.527 130.988 587.9 129.666 587.9 128.044C587.9 126.37 587.522 125.036 586.764 124.044C586.007 123.042 584.871 122.54 583.356 122.54C582.322 122.54 581.468 122.775 580.796 123.244C580.135 123.703 579.644 124.348 579.324 125.18C579.004 126.002 578.844 126.956 578.844 128.044C578.844 129.719 579.223 131.058 579.98 132.06C580.748 133.052 581.874 133.548 583.356 133.548ZM598.561 136.684L593.281 119.372L597.057 119.404L600.433 130.492L603.857 119.404H607.105L610.513 130.492L613.905 119.404H617.681L612.401 136.684H609.393L605.473 124.796L601.569 136.684H598.561ZM634.478 137.164C632.697 137.164 631.177 136.77 629.918 135.98C628.66 135.18 627.694 134.092 627.022 132.716C626.361 131.34 626.025 129.783 626.014 128.044C626.025 126.274 626.372 124.706 627.054 123.34C627.748 121.964 628.729 120.887 629.998 120.108C631.268 119.319 632.777 118.924 634.526 118.924C636.489 118.924 638.148 119.42 639.502 120.412C640.868 121.394 641.758 122.738 642.174 124.444L638.334 125.484C638.036 124.556 637.54 123.836 636.846 123.324C636.153 122.802 635.364 122.54 634.478 122.54C633.476 122.54 632.649 122.78 631.998 123.26C631.348 123.73 630.868 124.38 630.558 125.212C630.249 126.044 630.094 126.988 630.094 128.044C630.094 129.687 630.462 131.015 631.198 132.028C631.934 133.042 633.028 133.548 634.478 133.548C635.502 133.548 636.308 133.314 636.894 132.844C637.492 132.375 637.94 131.698 638.238 130.812L642.174 131.692C641.641 133.452 640.708 134.807 639.374 135.756C638.041 136.695 636.409 137.164 634.478 137.164ZM649.931 137.164C648.683 137.164 647.627 136.93 646.763 136.46C645.899 135.98 645.243 135.346 644.795 134.556C644.358 133.767 644.139 132.898 644.139 131.948C644.139 131.116 644.278 130.37 644.555 129.708C644.833 129.036 645.259 128.46 645.835 127.98C646.411 127.49 647.158 127.09 648.075 126.78C648.769 126.556 649.579 126.354 650.507 126.172C651.446 125.991 652.459 125.826 653.547 125.676C654.646 125.516 655.793 125.346 656.987 125.164L655.611 125.948C655.622 124.754 655.355 123.874 654.811 123.308C654.267 122.743 653.35 122.46 652.059 122.46C651.281 122.46 650.529 122.642 649.803 123.004C649.078 123.367 648.571 123.991 648.283 124.876L644.763 123.772C645.19 122.311 646.001 121.138 647.195 120.252C648.401 119.367 650.022 118.924 652.059 118.924C653.595 118.924 654.945 119.175 656.107 119.676C657.281 120.178 658.15 120.999 658.715 122.14C659.025 122.748 659.211 123.372 659.275 124.012C659.339 124.642 659.371 125.33 659.371 126.076V136.684H655.995V132.94L656.555 133.548C655.777 134.796 654.865 135.714 653.819 136.3C652.785 136.876 651.489 137.164 649.931 137.164ZM650.699 134.092C651.574 134.092 652.321 133.938 652.939 133.628C653.558 133.319 654.049 132.94 654.411 132.492C654.785 132.044 655.035 131.623 655.163 131.228C655.366 130.738 655.478 130.178 655.499 129.548C655.531 128.908 655.547 128.391 655.547 127.996L656.731 128.348C655.569 128.53 654.571 128.69 653.739 128.828C652.907 128.967 652.193 129.1 651.595 129.228C650.998 129.346 650.47 129.479 650.011 129.628C649.563 129.788 649.185 129.975 648.875 130.188C648.566 130.402 648.326 130.647 648.155 130.924C647.995 131.202 647.915 131.527 647.915 131.9C647.915 132.327 648.022 132.706 648.235 133.036C648.449 133.356 648.758 133.612 649.163 133.804C649.579 133.996 650.091 134.092 650.699 134.092ZM675.489 136.684V128.364C675.489 127.82 675.452 127.218 675.377 126.556C675.302 125.895 675.126 125.26 674.849 124.652C674.582 124.034 674.177 123.527 673.633 123.132C673.1 122.738 672.374 122.54 671.457 122.54C670.966 122.54 670.481 122.62 670.001 122.78C669.521 122.94 669.084 123.218 668.689 123.612C668.305 123.996 667.996 124.53 667.761 125.212C667.526 125.884 667.409 126.748 667.409 127.804L665.121 126.828C665.121 125.356 665.404 124.023 665.969 122.828C666.545 121.634 667.388 120.684 668.497 119.98C669.606 119.266 670.972 118.908 672.593 118.908C673.873 118.908 674.929 119.122 675.761 119.548C676.593 119.975 677.254 120.519 677.745 121.18C678.236 121.842 678.598 122.546 678.833 123.292C679.068 124.039 679.217 124.748 679.281 125.42C679.356 126.082 679.393 126.62 679.393 127.036V136.684H675.489ZM663.505 136.684V119.404H666.945V124.764H667.409V136.684H663.505ZM693.654 136.684L688.374 119.372L692.15 119.404L695.526 130.492L698.95 119.404H702.198L705.606 130.492L708.998 119.404H712.774L707.494 136.684H704.486L700.566 124.796L696.662 136.684H693.654ZM722.893 137.164C721.144 137.164 719.608 136.786 718.285 136.028C716.962 135.271 715.928 134.22 715.181 132.876C714.445 131.532 714.077 129.986 714.077 128.236C714.077 126.348 714.44 124.711 715.165 123.324C715.89 121.927 716.898 120.844 718.189 120.076C719.48 119.308 720.973 118.924 722.669 118.924C724.461 118.924 725.981 119.346 727.229 120.188C728.488 121.02 729.421 122.199 730.029 123.724C730.637 125.25 730.866 127.047 730.717 129.116H726.893V127.708C726.882 125.831 726.552 124.46 725.901 123.596C725.25 122.732 724.226 122.3 722.829 122.3C721.25 122.3 720.077 122.791 719.309 123.772C718.541 124.743 718.157 126.167 718.157 128.044C718.157 129.794 718.541 131.148 719.309 132.108C720.077 133.068 721.197 133.548 722.669 133.548C723.618 133.548 724.434 133.34 725.117 132.924C725.81 132.498 726.344 131.884 726.717 131.084L730.525 132.236C729.864 133.794 728.84 135.004 727.453 135.868C726.077 136.732 724.557 137.164 722.893 137.164ZM716.941 129.116V126.204H728.829V129.116H716.941ZM752.645 136.684V128.364C752.645 127.82 752.608 127.218 752.533 126.556C752.458 125.895 752.282 125.26 752.005 124.652C751.738 124.034 751.333 123.527 750.789 123.132C750.256 122.738 749.53 122.54 748.613 122.54C748.122 122.54 747.637 122.62 747.157 122.78C746.677 122.94 746.24 123.218 745.845 123.612C745.461 123.996 745.152 124.53 744.917 125.212C744.682 125.884 744.565 126.748 744.565 127.804L742.277 126.828C742.277 125.356 742.56 124.023 743.125 122.828C743.701 121.634 744.544 120.684 745.653 119.98C746.762 119.266 748.128 118.908 749.749 118.908C751.029 118.908 752.085 119.122 752.917 119.548C753.749 119.975 754.41 120.519 754.901 121.18C755.392 121.842 755.754 122.546 755.989 123.292C756.224 124.039 756.373 124.748 756.437 125.42C756.512 126.082 756.549 126.62 756.549 127.036V136.684H752.645ZM740.661 136.684V113.644H744.101V125.772H744.565V136.684H740.661ZM768.58 137.164C766.831 137.164 765.295 136.786 763.972 136.028C762.65 135.271 761.615 134.22 760.868 132.876C760.132 131.532 759.764 129.986 759.764 128.236C759.764 126.348 760.127 124.711 760.852 123.324C761.578 121.927 762.586 120.844 763.876 120.076C765.167 119.308 766.66 118.924 768.356 118.924C770.148 118.924 771.668 119.346 772.916 120.188C774.175 121.02 775.108 122.199 775.716 123.724C776.324 125.25 776.554 127.047 776.404 129.116H772.58V127.708C772.57 125.831 772.239 124.46 771.588 123.596C770.938 122.732 769.914 122.3 768.516 122.3C766.938 122.3 765.764 122.791 764.996 123.772C764.228 124.743 763.844 126.167 763.844 128.044C763.844 129.794 764.228 131.148 764.996 132.108C765.764 133.068 766.884 133.548 768.356 133.548C769.306 133.548 770.122 133.34 770.804 132.924C771.498 132.498 772.031 131.884 772.404 131.084L776.212 132.236C775.551 133.794 774.527 135.004 773.14 135.868C771.764 136.732 770.244 137.164 768.58 137.164ZM762.628 129.116V126.204H774.516V129.116H762.628ZM780.294 136.684V113.164H784.15V136.684H780.294ZM797.247 137.164C795.562 137.164 794.148 136.764 793.007 135.964C791.866 135.164 791.007 134.076 790.431 132.7C789.855 131.314 789.567 129.762 789.567 128.044C789.567 126.306 789.855 124.748 790.431 123.372C791.007 121.996 791.85 120.914 792.959 120.124C794.079 119.324 795.46 118.924 797.103 118.924C798.735 118.924 800.148 119.324 801.343 120.124C802.548 120.914 803.482 121.996 804.143 123.372C804.804 124.738 805.135 126.295 805.135 128.044C805.135 129.772 804.81 131.324 804.159 132.7C803.508 134.076 802.591 135.164 801.407 135.964C800.223 136.764 798.836 137.164 797.247 137.164ZM788.911 144.364V119.404H792.319V131.532H792.799V144.364H788.911ZM796.655 133.708C797.658 133.708 798.484 133.458 799.135 132.956C799.786 132.455 800.266 131.778 800.575 130.924C800.895 130.06 801.055 129.1 801.055 128.044C801.055 126.999 800.895 126.05 800.575 125.196C800.255 124.332 799.759 123.65 799.087 123.148C798.415 122.636 797.562 122.38 796.527 122.38C795.546 122.38 794.746 122.62 794.127 123.1C793.508 123.57 793.05 124.231 792.751 125.084C792.463 125.927 792.319 126.914 792.319 128.044C792.319 129.164 792.463 130.151 792.751 131.004C793.05 131.858 793.514 132.524 794.143 133.004C794.783 133.474 795.62 133.708 796.655 133.708ZM817.34 144.364L820.668 135.228L820.732 137.916L813.196 119.404H817.212L822.556 133.1H821.532L826.732 119.404H830.588L820.956 144.364H817.34ZM839.981 137.164C838.253 137.164 836.744 136.775 835.453 135.996C834.163 135.218 833.16 134.146 832.445 132.78C831.741 131.404 831.389 129.826 831.389 128.044C831.389 126.231 831.752 124.642 832.477 123.276C833.203 121.911 834.211 120.844 835.501 120.076C836.792 119.308 838.285 118.924 839.981 118.924C841.72 118.924 843.235 119.314 844.525 120.092C845.816 120.871 846.819 121.948 847.533 123.324C848.248 124.69 848.605 126.263 848.605 128.044C848.605 129.836 848.243 131.42 847.517 132.796C846.803 134.162 845.8 135.234 844.509 136.012C843.219 136.78 841.709 137.164 839.981 137.164ZM839.981 133.548C841.517 133.548 842.659 133.036 843.405 132.012C844.152 130.988 844.525 129.666 844.525 128.044C844.525 126.37 844.147 125.036 843.389 124.044C842.632 123.042 841.496 122.54 839.981 122.54C838.947 122.54 838.093 122.775 837.421 123.244C836.76 123.703 836.269 124.348 835.949 125.18C835.629 126.002 835.469 126.956 835.469 128.044C835.469 129.719 835.848 131.058 836.605 132.06C837.373 133.052 838.499 133.548 839.981 133.548ZM858.611 137.18C857.331 137.18 856.275 136.967 855.443 136.54C854.611 136.114 853.949 135.57 853.459 134.908C852.968 134.247 852.605 133.543 852.371 132.796C852.136 132.05 851.981 131.346 851.907 130.684C851.843 130.012 851.811 129.468 851.811 129.052V119.404H855.715V127.724C855.715 128.258 855.752 128.86 855.827 129.532C855.901 130.194 856.072 130.834 856.339 131.452C856.616 132.06 857.021 132.562 857.555 132.956C858.099 133.351 858.829 133.548 859.747 133.548C860.237 133.548 860.723 133.468 861.203 133.308C861.683 133.148 862.115 132.876 862.499 132.492C862.893 132.098 863.208 131.559 863.443 130.876C863.677 130.194 863.795 129.33 863.795 128.284L866.083 129.26C866.083 130.732 865.795 132.066 865.219 133.26C864.653 134.455 863.816 135.41 862.707 136.124C861.597 136.828 860.232 137.18 858.611 137.18ZM864.259 136.684V131.324H863.795V119.404H867.667V136.684H864.259ZM876.338 130.428C876.338 129.692 876.407 128.983 876.546 128.3C876.695 127.607 876.935 126.967 877.266 126.38C877.554 125.815 877.874 125.367 878.226 125.036C878.578 124.695 878.973 124.359 879.41 124.028C879.847 123.687 880.333 123.234 880.866 122.668C881.303 122.188 881.591 121.714 881.73 121.244C881.869 120.764 881.938 120.252 881.938 119.708C881.938 119.356 881.901 119.026 881.826 118.716C881.751 118.407 881.618 118.14 881.426 117.916C881.127 117.522 880.743 117.244 880.274 117.084C879.805 116.914 879.303 116.828 878.77 116.828C878.333 116.828 877.911 116.887 877.506 117.004C877.111 117.111 876.775 117.282 876.498 117.516C876.178 117.772 875.943 118.087 875.794 118.46C875.645 118.834 875.575 119.244 875.586 119.692H871.522C871.629 118.626 871.917 117.639 872.386 116.732C872.866 115.815 873.495 115.084 874.274 114.54C874.882 114.092 875.565 113.756 876.322 113.532C877.09 113.308 877.858 113.196 878.626 113.196C879.799 113.196 880.903 113.378 881.938 113.74C882.983 114.103 883.853 114.7 884.546 115.532C885.026 116.076 885.389 116.706 885.634 117.42C885.89 118.135 886.018 118.86 886.018 119.596C886.018 120.695 885.778 121.698 885.298 122.604C884.829 123.511 884.231 124.348 883.506 125.116C883.165 125.479 882.839 125.799 882.53 126.076C882.221 126.354 881.933 126.626 881.666 126.892C881.41 127.148 881.197 127.42 881.026 127.708C880.727 128.21 880.551 128.636 880.498 128.988C880.445 129.33 880.418 129.81 880.418 130.428H876.338ZM876.37 136.684V132.444H880.418V136.684H876.37Z" fill="white"/>
<path d="M595.087 187.473C593.659 187.473 592.371 187.23 591.223 186.745C590.084 186.259 589.141 185.569 588.395 184.673C587.657 183.767 587.177 182.699 586.953 181.467L589.529 181.061C589.855 182.33 590.532 183.324 591.559 184.043C592.595 184.752 593.813 185.107 595.213 185.107C596.118 185.107 596.935 184.967 597.663 184.687C598.4 184.397 598.983 183.987 599.413 183.455C599.842 182.923 600.057 182.293 600.057 181.565C600.057 181.117 599.977 180.734 599.819 180.417C599.669 180.09 599.459 179.815 599.189 179.591C598.927 179.357 598.629 179.161 598.293 179.003C597.957 178.844 597.607 178.713 597.243 178.611L592.105 177.085C591.545 176.917 591.003 176.707 590.481 176.455C589.958 176.193 589.491 175.871 589.081 175.489C588.67 175.097 588.343 174.63 588.101 174.089C587.858 173.538 587.737 172.889 587.737 172.143C587.737 170.948 588.045 169.931 588.661 169.091C589.286 168.241 590.131 167.593 591.195 167.145C592.259 166.697 593.458 166.477 594.793 166.487C596.146 166.496 597.355 166.739 598.419 167.215C599.492 167.681 600.379 168.353 601.079 169.231C601.788 170.108 602.264 171.158 602.507 172.381L599.861 172.843C599.721 172.021 599.408 171.317 598.923 170.729C598.447 170.131 597.849 169.674 597.131 169.357C596.412 169.03 595.623 168.862 594.765 168.853C593.943 168.843 593.201 168.974 592.539 169.245C591.876 169.515 591.349 169.893 590.957 170.379C590.565 170.855 590.369 171.405 590.369 172.031C590.369 172.647 590.546 173.146 590.901 173.529C591.255 173.902 591.689 174.201 592.203 174.425C592.725 174.639 593.234 174.817 593.729 174.957L597.565 176.063C598.003 176.184 598.507 176.352 599.077 176.567C599.655 176.781 600.215 177.085 600.757 177.477C601.298 177.859 601.746 178.373 602.101 179.017C602.455 179.651 602.633 180.454 602.633 181.425C602.633 182.395 602.437 183.259 602.045 184.015C601.662 184.771 601.125 185.405 600.435 185.919C599.744 186.423 598.941 186.805 598.027 187.067C597.112 187.337 596.132 187.473 595.087 187.473ZM612.121 187.473C610.637 187.473 609.34 187.146 608.229 186.493C607.128 185.83 606.269 184.911 605.653 183.735C605.037 182.549 604.729 181.168 604.729 179.591C604.729 177.939 605.033 176.511 605.639 175.307C606.246 174.093 607.091 173.16 608.173 172.507C609.265 171.844 610.544 171.513 612.009 171.513C613.531 171.513 614.823 171.863 615.887 172.563C616.961 173.263 617.763 174.261 618.295 175.559C618.837 176.856 619.07 178.401 618.995 180.193H616.475V179.297C616.447 177.439 616.069 176.053 615.341 175.139C614.613 174.215 613.531 173.753 612.093 173.753C610.553 173.753 609.382 174.247 608.579 175.237C607.777 176.226 607.375 177.645 607.375 179.493C607.375 181.275 607.777 182.657 608.579 183.637C609.382 184.617 610.525 185.107 612.009 185.107C613.008 185.107 613.876 184.878 614.613 184.421C615.351 183.963 615.929 183.305 616.349 182.447L618.743 183.273C618.155 184.607 617.269 185.643 616.083 186.381C614.907 187.109 613.587 187.473 612.121 187.473ZM606.535 180.193V178.191H617.707V180.193H606.535ZM632.468 187.053V179.479C632.468 178.76 632.403 178.069 632.272 177.407C632.151 176.744 631.932 176.151 631.614 175.629C631.306 175.097 630.886 174.677 630.354 174.369C629.832 174.061 629.169 173.907 628.366 173.907C627.741 173.907 627.172 174.014 626.658 174.229C626.154 174.434 625.72 174.751 625.356 175.181C624.992 175.61 624.708 176.151 624.502 176.805C624.306 177.449 624.208 178.209 624.208 179.087L622.57 178.583C622.57 177.117 622.832 175.862 623.354 174.817C623.886 173.762 624.628 172.955 625.58 172.395C626.542 171.825 627.671 171.541 628.968 171.541C629.948 171.541 630.784 171.695 631.474 172.003C632.165 172.311 632.739 172.721 633.196 173.235C633.654 173.739 634.013 174.308 634.274 174.943C634.536 175.568 634.718 176.207 634.82 176.861C634.932 177.505 634.988 178.116 634.988 178.695V187.053H632.468ZM621.688 187.053V171.933H623.928V175.979H624.208V187.053H621.688ZM644.427 187.473C643.018 187.473 641.809 187.123 640.801 186.423C639.793 185.713 639.014 184.757 638.463 183.553C637.922 182.349 637.651 180.991 637.651 179.479C637.651 177.967 637.922 176.609 638.463 175.405C639.014 174.201 639.793 173.253 640.801 172.563C641.809 171.863 643.013 171.513 644.413 171.513C645.841 171.513 647.041 171.858 648.011 172.549C648.982 173.239 649.715 174.187 650.209 175.391C650.713 176.595 650.965 177.957 650.965 179.479C650.965 180.981 650.713 182.339 650.209 183.553C649.715 184.757 648.982 185.713 648.011 186.423C647.041 187.123 645.846 187.473 644.427 187.473ZM644.735 185.191C645.753 185.191 646.588 184.948 647.241 184.463C647.895 183.968 648.375 183.291 648.683 182.433C649.001 181.565 649.159 180.58 649.159 179.479C649.159 178.359 649.001 177.374 648.683 176.525C648.375 175.666 647.899 174.999 647.255 174.523C646.611 174.037 645.795 173.795 644.805 173.795C643.779 173.795 642.929 174.047 642.257 174.551C641.595 175.055 641.1 175.736 640.773 176.595C640.456 177.453 640.297 178.415 640.297 179.479C640.297 180.552 640.461 181.523 640.787 182.391C641.114 183.249 641.604 183.931 642.257 184.435C642.92 184.939 643.746 185.191 644.735 185.191ZM649.159 187.053V175.923H648.879V166.893H651.385V187.053H649.159ZM666.653 187.445C665.682 187.445 664.847 187.291 664.147 186.983C663.456 186.675 662.882 186.264 662.425 185.751C661.968 185.237 661.608 184.668 661.347 184.043C661.086 183.417 660.899 182.778 660.787 182.125C660.684 181.471 660.633 180.86 660.633 180.291V171.933H663.153V179.507C663.153 180.216 663.218 180.902 663.349 181.565C663.48 182.227 663.699 182.825 664.007 183.357C664.324 183.889 664.744 184.309 665.267 184.617C665.799 184.925 666.462 185.079 667.255 185.079C667.88 185.079 668.45 184.971 668.963 184.757C669.476 184.542 669.915 184.225 670.279 183.805C670.643 183.375 670.923 182.834 671.119 182.181C671.315 181.527 671.413 180.767 671.413 179.899L673.051 180.403C673.051 181.859 672.785 183.114 672.253 184.169C671.73 185.223 670.988 186.035 670.027 186.605C669.075 187.165 667.95 187.445 666.653 187.445ZM671.693 187.053V183.007H671.413V171.933H673.919V187.053H671.693ZM683.551 187.459C681.75 187.459 680.27 187.067 679.113 186.283C677.965 185.489 677.26 184.383 676.999 182.965L679.547 182.559C679.752 183.38 680.224 184.033 680.961 184.519C681.698 184.995 682.613 185.233 683.705 185.233C684.741 185.233 685.553 185.018 686.141 184.589C686.729 184.159 687.023 183.576 687.023 182.839C687.023 182.409 686.925 182.064 686.729 181.803C686.533 181.532 686.127 181.28 685.511 181.047C684.904 180.813 683.985 180.533 682.753 180.207C681.418 179.852 680.368 179.483 679.603 179.101C678.838 178.718 678.292 178.275 677.965 177.771C677.638 177.267 677.475 176.655 677.475 175.937C677.475 175.05 677.718 174.275 678.203 173.613C678.688 172.941 679.365 172.423 680.233 172.059C681.11 171.695 682.128 171.513 683.285 171.513C684.433 171.513 685.46 171.695 686.365 172.059C687.27 172.423 687.998 172.941 688.549 173.613C689.109 174.275 689.44 175.05 689.543 175.937L686.995 176.399C686.874 175.587 686.482 174.947 685.819 174.481C685.166 174.014 684.321 173.767 683.285 173.739C682.305 173.701 681.507 173.874 680.891 174.257C680.284 174.639 679.981 175.157 679.981 175.811C679.981 176.175 680.093 176.487 680.317 176.749C680.55 177.01 680.975 177.257 681.591 177.491C682.216 177.724 683.122 177.99 684.307 178.289C685.642 178.625 686.692 178.993 687.457 179.395C688.232 179.787 688.782 180.253 689.109 180.795C689.436 181.327 689.599 181.985 689.599 182.769C689.599 184.225 689.062 185.373 687.989 186.213C686.916 187.043 685.436 187.459 683.551 187.459ZM702.59 187.473C701.461 187.473 700.513 187.267 699.748 186.857C698.992 186.437 698.418 185.886 698.026 185.205C697.643 184.523 697.452 183.777 697.452 182.965C697.452 182.171 697.601 181.485 697.9 180.907C698.208 180.319 698.637 179.833 699.188 179.451C699.739 179.059 700.397 178.751 701.162 178.527C701.881 178.331 702.683 178.163 703.57 178.023C704.466 177.873 705.371 177.738 706.286 177.617C707.201 177.495 708.055 177.379 708.848 177.267L707.952 177.785C707.98 176.441 707.709 175.447 707.14 174.803C706.58 174.159 705.609 173.837 704.228 173.837C703.313 173.837 702.511 174.047 701.82 174.467C701.139 174.877 700.658 175.549 700.378 176.483L698.012 175.769C698.376 174.443 699.081 173.403 700.126 172.647C701.171 171.891 702.548 171.513 704.256 171.513C705.628 171.513 706.804 171.76 707.784 172.255C708.773 172.74 709.483 173.477 709.912 174.467C710.127 174.933 710.262 175.442 710.318 175.993C710.374 176.534 710.402 177.103 710.402 177.701V187.053H708.19V183.427L708.708 183.763C708.139 184.985 707.341 185.909 706.314 186.535C705.297 187.16 704.055 187.473 702.59 187.473ZM702.968 185.387C703.864 185.387 704.639 185.228 705.292 184.911C705.955 184.584 706.487 184.159 706.888 183.637C707.289 183.105 707.551 182.526 707.672 181.901C707.812 181.434 707.887 180.916 707.896 180.347C707.915 179.768 707.924 179.325 707.924 179.017L708.792 179.395C707.98 179.507 707.182 179.614 706.398 179.717C705.614 179.819 704.872 179.931 704.172 180.053C703.472 180.165 702.842 180.3 702.282 180.459C701.871 180.589 701.484 180.757 701.12 180.963C700.765 181.168 700.476 181.434 700.252 181.761C700.037 182.078 699.93 182.475 699.93 182.951C699.93 183.361 700.033 183.753 700.238 184.127C700.453 184.5 700.779 184.803 701.218 185.037C701.666 185.27 702.249 185.387 702.968 185.387ZM737.722 187.053L737.736 177.379C737.736 176.249 737.432 175.367 736.826 174.733C736.228 174.089 735.449 173.767 734.488 173.767C733.928 173.767 733.396 173.897 732.892 174.159C732.388 174.411 731.977 174.812 731.66 175.363C731.342 175.904 731.184 176.599 731.184 177.449L729.868 176.917C729.849 175.843 730.068 174.905 730.526 174.103C730.992 173.291 731.627 172.661 732.43 172.213C733.232 171.765 734.138 171.541 735.146 171.541C736.723 171.541 737.964 172.021 738.87 172.983C739.775 173.935 740.228 175.218 740.228 176.833L740.214 187.053H737.722ZM719.634 187.053V171.933H721.86V175.979H722.14V187.053H719.634ZM728.692 187.053L728.706 177.477C728.706 176.319 728.407 175.414 727.81 174.761C727.212 174.098 726.419 173.767 725.43 173.767C724.45 173.767 723.656 174.103 723.05 174.775C722.443 175.447 722.14 176.338 722.14 177.449L720.824 176.665C720.824 175.685 721.057 174.807 721.524 174.033C721.99 173.258 722.625 172.651 723.428 172.213C724.23 171.765 725.14 171.541 726.158 171.541C727.175 171.541 728.062 171.755 728.818 172.185C729.574 172.614 730.157 173.23 730.568 174.033C730.978 174.826 731.184 175.773 731.184 176.875L731.17 187.053H728.692ZM750.289 187.473C748.805 187.473 747.508 187.146 746.397 186.493C745.296 185.83 744.437 184.911 743.821 183.735C743.205 182.549 742.897 181.168 742.897 179.591C742.897 177.939 743.201 176.511 743.807 175.307C744.414 174.093 745.259 173.16 746.341 172.507C747.433 171.844 748.712 171.513 750.177 171.513C751.699 171.513 752.991 171.863 754.055 172.563C755.129 173.263 755.931 174.261 756.463 175.559C757.005 176.856 757.238 178.401 757.163 180.193H754.643V179.297C754.615 177.439 754.237 176.053 753.509 175.139C752.781 174.215 751.699 173.753 750.261 173.753C748.721 173.753 747.55 174.247 746.747 175.237C745.945 176.226 745.543 177.645 745.543 179.493C745.543 181.275 745.945 182.657 746.747 183.637C747.55 184.617 748.693 185.107 750.177 185.107C751.176 185.107 752.044 184.878 752.781 184.421C753.519 183.963 754.097 183.305 754.517 182.447L756.911 183.273C756.323 184.607 755.437 185.643 754.251 186.381C753.075 187.109 751.755 187.473 750.289 187.473ZM744.703 180.193V178.191H755.875V180.193H744.703ZM765.992 187.459C764.191 187.459 762.712 187.067 761.554 186.283C760.406 185.489 759.702 184.383 759.44 182.965L761.988 182.559C762.194 183.38 762.665 184.033 763.402 184.519C764.14 184.995 765.054 185.233 766.146 185.233C767.182 185.233 767.994 185.018 768.582 184.589C769.17 184.159 769.464 183.576 769.464 182.839C769.464 182.409 769.366 182.064 769.17 181.803C768.974 181.532 768.568 181.28 767.952 181.047C767.346 180.813 766.426 180.533 765.194 180.207C763.86 179.852 762.81 179.483 762.044 179.101C761.279 178.718 760.733 178.275 760.406 177.771C760.08 177.267 759.916 176.655 759.916 175.937C759.916 175.05 760.159 174.275 760.644 173.613C761.13 172.941 761.806 172.423 762.674 172.059C763.552 171.695 764.569 171.513 765.726 171.513C766.874 171.513 767.901 171.695 768.806 172.059C769.712 172.423 770.44 172.941 770.99 173.613C771.55 174.275 771.882 175.05 771.984 175.937L769.436 176.399C769.315 175.587 768.923 174.947 768.26 174.481C767.607 174.014 766.762 173.767 765.726 173.739C764.746 173.701 763.948 173.874 763.332 174.257C762.726 174.639 762.422 175.157 762.422 175.811C762.422 176.175 762.534 176.487 762.758 176.749C762.992 177.01 763.416 177.257 764.032 177.491C764.658 177.724 765.563 177.99 766.748 178.289C768.083 178.625 769.133 178.993 769.898 179.395C770.673 179.787 771.224 180.253 771.55 180.795C771.877 181.327 772.04 181.985 772.04 182.769C772.04 184.225 771.504 185.373 770.43 186.213C769.357 187.043 767.878 187.459 765.992 187.459ZM780.84 187.459C779.039 187.459 777.559 187.067 776.402 186.283C775.254 185.489 774.549 184.383 774.288 182.965L776.836 182.559C777.041 183.38 777.513 184.033 778.25 184.519C778.987 184.995 779.902 185.233 780.994 185.233C782.03 185.233 782.842 185.018 783.43 184.589C784.018 184.159 784.312 183.576 784.312 182.839C784.312 182.409 784.214 182.064 784.018 181.803C783.822 181.532 783.416 181.28 782.8 181.047C782.193 180.813 781.274 180.533 780.042 180.207C778.707 179.852 777.657 179.483 776.892 179.101C776.127 178.718 775.581 178.275 775.254 177.771C774.927 177.267 774.764 176.655 774.764 175.937C774.764 175.05 775.007 174.275 775.492 173.613C775.977 172.941 776.654 172.423 777.522 172.059C778.399 171.695 779.417 171.513 780.574 171.513C781.722 171.513 782.749 171.695 783.654 172.059C784.559 172.423 785.287 172.941 785.838 173.613C786.398 174.275 786.729 175.05 786.832 175.937L784.284 176.399C784.163 175.587 783.771 174.947 783.108 174.481C782.455 174.014 781.61 173.767 780.574 173.739C779.594 173.701 778.796 173.874 778.18 174.257C777.573 174.639 777.27 175.157 777.27 175.811C777.27 176.175 777.382 176.487 777.606 176.749C777.839 177.01 778.264 177.257 778.88 177.491C779.505 177.724 780.411 177.99 781.596 178.289C782.931 178.625 783.981 178.993 784.746 179.395C785.521 179.787 786.071 180.253 786.398 180.795C786.725 181.327 786.888 181.985 786.888 182.769C786.888 184.225 786.351 185.373 785.278 186.213C784.205 187.043 782.725 187.459 780.84 187.459ZM794.274 187.473C793.144 187.473 792.197 187.267 791.432 186.857C790.676 186.437 790.102 185.886 789.71 185.205C789.327 184.523 789.136 183.777 789.136 182.965C789.136 182.171 789.285 181.485 789.584 180.907C789.892 180.319 790.321 179.833 790.872 179.451C791.422 179.059 792.08 178.751 792.846 178.527C793.564 178.331 794.367 178.163 795.254 178.023C796.15 177.873 797.055 177.738 797.97 177.617C798.884 177.495 799.738 177.379 800.532 177.267L799.636 177.785C799.664 176.441 799.393 175.447 798.824 174.803C798.264 174.159 797.293 173.837 795.912 173.837C794.997 173.837 794.194 174.047 793.504 174.467C792.822 174.877 792.342 175.549 792.062 176.483L789.696 175.769C790.06 174.443 790.764 173.403 791.81 172.647C792.855 171.891 794.232 171.513 795.94 171.513C797.312 171.513 798.488 171.76 799.468 172.255C800.457 172.74 801.166 173.477 801.596 174.467C801.81 174.933 801.946 175.442 802.002 175.993C802.058 176.534 802.086 177.103 802.086 177.701V187.053H799.874V183.427L800.392 183.763C799.822 184.985 799.024 185.909 797.998 186.535C796.98 187.16 795.739 187.473 794.274 187.473ZM794.652 185.387C795.548 185.387 796.322 185.228 796.976 184.911C797.638 184.584 798.17 184.159 798.572 183.637C798.973 183.105 799.234 182.526 799.356 181.901C799.496 181.434 799.57 180.916 799.58 180.347C799.598 179.768 799.608 179.325 799.608 179.017L800.476 179.395C799.664 179.507 798.866 179.614 798.082 179.717C797.298 179.819 796.556 179.931 795.856 180.053C795.156 180.165 794.526 180.3 793.966 180.459C793.555 180.589 793.168 180.757 792.804 180.963C792.449 181.168 792.16 181.434 791.936 181.761C791.721 182.078 791.614 182.475 791.614 182.951C791.614 183.361 791.716 183.753 791.922 184.127C792.136 184.5 792.463 184.803 792.902 185.037C793.35 185.27 793.933 185.387 794.652 185.387ZM811.844 194.193C811.05 194.193 810.276 194.071 809.52 193.829C808.764 193.586 808.068 193.217 807.434 192.723C806.808 192.237 806.286 191.621 805.866 190.875L808.148 189.671C808.521 190.408 809.048 190.945 809.73 191.281C810.42 191.617 811.13 191.785 811.858 191.785C812.819 191.785 813.617 191.607 814.252 191.253C814.886 190.907 815.353 190.389 815.652 189.699C815.96 189.008 816.109 188.149 816.1 187.123V182.993H816.394V171.933H818.606V187.151C818.606 187.561 818.592 187.958 818.564 188.341C818.545 188.723 818.498 189.101 818.424 189.475C818.228 190.548 817.84 191.43 817.262 192.121C816.683 192.821 815.936 193.339 815.022 193.675C814.107 194.02 813.048 194.193 811.844 194.193ZM811.662 187.473C810.252 187.473 809.044 187.123 808.036 186.423C807.028 185.713 806.248 184.757 805.698 183.553C805.156 182.349 804.886 180.991 804.886 179.479C804.886 177.967 805.156 176.609 805.698 175.405C806.248 174.201 807.028 173.253 808.036 172.563C809.044 171.863 810.248 171.513 811.648 171.513C813.076 171.513 814.275 171.858 815.246 172.549C816.216 173.239 816.949 174.187 817.444 175.391C817.948 176.595 818.2 177.957 818.2 179.479C818.2 180.981 817.948 182.339 817.444 183.553C816.949 184.757 816.216 185.713 815.246 186.423C814.275 187.123 813.08 187.473 811.662 187.473ZM811.97 185.191C812.987 185.191 813.822 184.948 814.476 184.463C815.129 183.968 815.61 183.291 815.918 182.433C816.235 181.565 816.394 180.58 816.394 179.479C816.394 178.359 816.235 177.374 815.918 176.525C815.61 175.666 815.134 174.999 814.49 174.523C813.846 174.037 813.029 173.795 812.04 173.795C811.013 173.795 810.164 174.047 809.492 174.551C808.829 175.055 808.334 175.736 808.008 176.595C807.69 177.453 807.532 178.415 807.532 179.479C807.532 180.552 807.695 181.523 808.022 182.391C808.348 183.249 808.838 183.931 809.492 184.435C810.154 184.939 810.98 185.191 811.97 185.191ZM829.067 187.473C827.583 187.473 826.285 187.146 825.175 186.493C824.073 185.83 823.215 184.911 822.599 183.735C821.983 182.549 821.675 181.168 821.675 179.591C821.675 177.939 821.978 176.511 822.585 175.307C823.191 174.093 824.036 173.16 825.119 172.507C826.211 171.844 827.489 171.513 828.955 171.513C830.476 171.513 831.769 171.863 832.833 172.563C833.906 173.263 834.709 174.261 835.241 175.559C835.782 176.856 836.015 178.401 835.941 180.193H833.421V179.297C833.393 177.439 833.015 176.053 832.287 175.139C831.559 174.215 830.476 173.753 829.039 173.753C827.499 173.753 826.327 174.247 825.525 175.237C824.722 176.226 824.321 177.645 824.321 179.493C824.321 181.275 824.722 182.657 825.525 183.637C826.327 184.617 827.471 185.107 828.955 185.107C829.953 185.107 830.821 184.878 831.559 184.421C832.296 183.963 832.875 183.305 833.295 182.447L835.689 183.273C835.101 184.607 834.214 185.643 833.029 186.381C831.853 187.109 830.532 187.473 829.067 187.473ZM823.481 180.193V178.191H834.653V180.193H823.481ZM842.908 181.565C842.908 180.865 842.95 180.23 843.034 179.661C843.127 179.082 843.323 178.522 843.622 177.981C843.892 177.458 844.214 177.033 844.588 176.707C844.961 176.371 845.362 176.049 845.792 175.741C846.221 175.433 846.646 175.055 847.066 174.607C847.439 174.187 847.686 173.767 847.808 173.347C847.929 172.917 847.99 172.465 847.99 171.989C847.99 171.569 847.938 171.191 847.836 170.855C847.742 170.509 847.584 170.215 847.36 169.973C847.024 169.553 846.604 169.263 846.1 169.105C845.605 168.946 845.087 168.867 844.546 168.867C844.032 168.867 843.547 168.937 843.09 169.077C842.642 169.217 842.268 169.436 841.97 169.735C841.671 170.005 841.452 170.337 841.312 170.729C841.172 171.111 841.102 171.527 841.102 171.975H838.498C838.554 171.163 838.745 170.393 839.072 169.665C839.408 168.927 839.87 168.321 840.458 167.845C841.008 167.378 841.638 167.037 842.348 166.823C843.057 166.599 843.771 166.487 844.49 166.487C845.442 166.487 846.342 166.631 847.192 166.921C848.05 167.21 848.764 167.691 849.334 168.363C849.772 168.839 850.099 169.385 850.314 170.001C850.528 170.617 850.636 171.265 850.636 171.947C850.636 172.777 850.468 173.552 850.132 174.271C849.805 174.989 849.362 175.638 848.802 176.217C848.494 176.553 848.158 176.861 847.794 177.141C847.439 177.421 847.098 177.701 846.772 177.981C846.454 178.261 846.202 178.569 846.016 178.905C845.773 179.343 845.633 179.749 845.596 180.123C845.568 180.487 845.554 180.967 845.554 181.565H842.908ZM842.922 187.053V183.987H845.554V187.053H842.922Z" fill="white"/>
<ellipse rx="60.4485" ry="57.3" transform="matrix(0.999999 -0.00152766 0.00170016 0.999999 1.64982 145.036)" fill="#D9D9D9" fill-opacity="0.2"/>
<ellipse rx="60.4485" ry="57.3" transform="matrix(0.999999 -0.00152766 0.00170016 0.999999 177.5 144.767)" fill="#D9D9D9" fill-opacity="0.2"/>
<ellipse rx="60.4485" ry="57.3" transform="matrix(0.999999 -0.00152766 0.00170016 0.999999 353.35 144.499)" fill="#D9D9D9" fill-opacity="0.2"/>
<ellipse rx="60.4485" ry="57.3" transform="matrix(0.999999 -0.00152766 0.00170016 0.999999 529.2 144.23)" fill="#D9D9D9" fill-opacity="0.2"/>
<ellipse rx="60.4485" ry="57.3" transform="matrix(0.999999 -0.00152766 0.00170016 0.999999 705.05 143.961)" fill="#D9D9D9" fill-opacity="0.2"/>
<ellipse rx="60.4485" ry="57.3" transform="matrix(0.999999 -0.00152766 0.00170016 0.999999 880.899 143.693)" fill="#D9D9D9" fill-opacity="0.2"/>
<ellipse rx="60.4485" ry="57.3" transform="matrix(0.999999 -0.00152766 0.00170016 0.999999 1056.75 143.424)" fill="#D9D9D9" fill-opacity="0.2"/>
<ellipse rx="60.4485" ry="57.3" transform="matrix(0.999999 -0.00152766 0.00170016 0.999999 1232.6 143.156)" fill="#D9D9D9" fill-opacity="0.2"/>
<ellipse rx="60.4485" ry="57.3" transform="matrix(0.999999 -0.00152766 0.00170016 0.999999 1408.45 142.887)" fill="#D9D9D9" fill-opacity="0.2"/>
<ellipse rx="60.4485" ry="57.3" transform="matrix(0.999999 -0.00152766 0.00170016 0.999999 1.95499 324.749)" fill="#D9D9D9" fill-opacity="0.2"/>
<ellipse rx="60.4485" ry="57.3" transform="matrix(0.999999 -0.00152766 0.00170016 0.999999 177.806 324.481)" fill="#D9D9D9" fill-opacity="0.2"/>
<ellipse rx="60.4485" ry="57.3" transform="matrix(0.999999 -0.00152766 0.00170016 0.999999 353.656 324.212)" fill="#D9D9D9" fill-opacity="0.2"/>
<ellipse rx="60.4485" ry="57.3" transform="matrix(0.999999 -0.00152766 0.00170016 0.999999 529.505 323.943)" fill="#D9D9D9" fill-opacity="0.2"/>
<ellipse rx="60.4485" ry="57.3" transform="matrix(0.999999 -0.00152766 0.00170016 0.999999 705.355 323.675)" fill="#D9D9D9" fill-opacity="0.2"/>
<ellipse rx="60.4485" ry="57.3" transform="matrix(0.999999 -0.00152766 0.00170016 0.999999 881.205 323.406)" fill="#D9D9D9" fill-opacity="0.2"/>
<ellipse rx="60.4485" ry="57.3" transform="matrix(0.999999 -0.00152766 0.00170016 0.999999 1057.05 323.137)" fill="#D9D9D9" fill-opacity="0.2"/>
<ellipse rx="60.4485" ry="57.3" transform="matrix(0.999999 -0.00152766 0.00170016 0.999999 1232.9 322.869)" fill="#D9D9D9" fill-opacity="0.2"/>
<ellipse rx="60.4485" ry="57.3" transform="matrix(0.999999 -0.00152766 0.00170016 0.999999 1408.75 322.6)" fill="#D9D9D9" fill-opacity="0.2"/>
<ellipse rx="60.4485" ry="57.3" transform="matrix(0.999999 -0.00152766 0.00170016 0.999999 1.39542 -4.72495)" fill="#D9D9D9" fill-opacity="0.2"/>
<ellipse rx="60.4485" ry="57.3" transform="matrix(0.999999 -0.00152766 0.00170016 0.999999 177.245 -4.99374)" fill="#D9D9D9" fill-opacity="0.2"/>
<ellipse rx="60.4485" ry="57.3" transform="matrix(0.999999 -0.00152766 0.00170016 0.999999 353.096 -5.26242)" fill="#D9D9D9" fill-opacity="0.2"/>
<ellipse rx="60.4485" ry="57.3" transform="matrix(0.999999 -0.00152766 0.00170016 0.999999 528.945 -5.5311)" fill="#D9D9D9" fill-opacity="0.2"/>
<ellipse rx="60.4485" ry="57.3" transform="matrix(0.999999 -0.00152766 0.00170016 0.999999 704.794 -5.79965)" fill="#D9D9D9" fill-opacity="0.2"/>
<ellipse rx="60.4485" ry="57.3" transform="matrix(0.999999 -0.00152766 0.00170016 0.999999 880.644 -6.06809)" fill="#D9D9D9" fill-opacity="0.2"/>
<ellipse rx="60.4485" ry="57.3" transform="matrix(0.999999 -0.00152766 0.00170016 0.999999 1056.49 -6.33688)" fill="#D9D9D9" fill-opacity="0.2"/>
<ellipse rx="60.4485" ry="57.3" transform="matrix(0.999999 -0.00152766 0.00170016 0.999999 1232.35 -6.60556)" fill="#D9D9D9" fill-opacity="0.2"/>
<ellipse rx="60.4485" ry="57.3" transform="matrix(0.999999 -0.00152766 0.00170016 0.999999 1408.19 -6.87424)" fill="#D9D9D9" fill-opacity="0.2"/>
</g>
<defs>
<clipPath id="clip0_712_7899">
<rect width="1440" height="312" fill="white" transform="translate(-1)"/>
</clipPath>
</defs>
</svg> -->



<svg width="1440" height="314" viewBox="0 0 1440 314" fill="none" xmlns="http://www.w3.org/2000/svg">
<ellipse rx="60.4485" ry="57.3" transform="matrix(0.999999 -0.00152766 0.00170016 0.999999 2.64982 145.036)" fill="#D9D9D9" fill-opacity="0.2"/>
<ellipse rx="60.4485" ry="57.3" transform="matrix(0.999999 -0.00152766 0.00170016 0.999999 178.5 144.767)" fill="#D9D9D9" fill-opacity="0.2"/>
<ellipse rx="60.4485" ry="57.3" transform="matrix(0.999999 -0.00152766 0.00170016 0.999999 354.35 144.499)" fill="#D9D9D9" fill-opacity="0.2"/>
<ellipse rx="60.4485" ry="57.3" transform="matrix(0.999999 -0.00152766 0.00170016 0.999999 530.2 144.23)" fill="#D9D9D9" fill-opacity="0.2"/>
<ellipse rx="60.4485" ry="57.3" transform="matrix(0.999999 -0.00152766 0.00170016 0.999999 706.05 143.961)" fill="#D9D9D9" fill-opacity="0.2"/>
<ellipse rx="60.4485" ry="57.3" transform="matrix(0.999999 -0.00152766 0.00170016 0.999999 881.899 143.693)" fill="#D9D9D9" fill-opacity="0.2"/>
<ellipse rx="60.4485" ry="57.3" transform="matrix(0.999999 -0.00152766 0.00170016 0.999999 1057.75 143.424)" fill="#D9D9D9" fill-opacity="0.2"/>
<ellipse rx="60.4485" ry="57.3" transform="matrix(0.999999 -0.00152766 0.00170016 0.999999 1233.6 143.156)" fill="#D9D9D9" fill-opacity="0.2"/>
<ellipse rx="60.4485" ry="57.3" transform="matrix(0.999999 -0.00152766 0.00170016 0.999999 1409.45 142.887)" fill="#D9D9D9" fill-opacity="0.2"/>
<ellipse rx="60.4485" ry="57.3" transform="matrix(0.999999 -0.00152766 0.00170016 0.999999 2.95499 324.749)" fill="#D9D9D9" fill-opacity="0.2"/>
<ellipse rx="60.4485" ry="57.3" transform="matrix(0.999999 -0.00152766 0.00170016 0.999999 178.806 324.481)" fill="#D9D9D9" fill-opacity="0.2"/>
<ellipse rx="60.4485" ry="57.3" transform="matrix(0.999999 -0.00152766 0.00170016 0.999999 354.656 324.212)" fill="#D9D9D9" fill-opacity="0.2"/>
<ellipse rx="60.4485" ry="57.3" transform="matrix(0.999999 -0.00152766 0.00170016 0.999999 530.505 323.943)" fill="#D9D9D9" fill-opacity="0.2"/>
<ellipse rx="60.4485" ry="57.3" transform="matrix(0.999999 -0.00152766 0.00170016 0.999999 706.355 323.675)" fill="#D9D9D9" fill-opacity="0.2"/>
<ellipse rx="60.4485" ry="57.3" transform="matrix(0.999999 -0.00152766 0.00170016 0.999999 882.205 323.406)" fill="#D9D9D9" fill-opacity="0.2"/>
<ellipse rx="60.4485" ry="57.3" transform="matrix(0.999999 -0.00152766 0.00170016 0.999999 1058.05 323.137)" fill="#D9D9D9" fill-opacity="0.2"/>
<ellipse rx="60.4485" ry="57.3" transform="matrix(0.999999 -0.00152766 0.00170016 0.999999 1233.9 322.869)" fill="#D9D9D9" fill-opacity="0.2"/>
<ellipse rx="60.4485" ry="57.3" transform="matrix(0.999999 -0.00152766 0.00170016 0.999999 1409.75 322.6)" fill="#D9D9D9" fill-opacity="0.2"/>
<ellipse rx="60.4485" ry="57.3" transform="matrix(0.999999 -0.00152766 0.00170016 0.999999 2.39542 -4.72495)" fill="#D9D9D9" fill-opacity="0.2"/>
<ellipse rx="60.4485" ry="57.3" transform="matrix(0.999999 -0.00152766 0.00170016 0.999999 178.245 -4.99374)" fill="#D9D9D9" fill-opacity="0.2"/>
<ellipse rx="60.4485" ry="57.3" transform="matrix(0.999999 -0.00152766 0.00170016 0.999999 354.096 -5.26242)" fill="#D9D9D9" fill-opacity="0.2"/>
<ellipse rx="60.4485" ry="57.3" transform="matrix(0.999999 -0.00152766 0.00170016 0.999999 529.945 -5.5311)" fill="#D9D9D9" fill-opacity="0.2"/>
<ellipse rx="60.4485" ry="57.3" transform="matrix(0.999999 -0.00152766 0.00170016 0.999999 705.794 -5.79965)" fill="#D9D9D9" fill-opacity="0.2"/>
<ellipse rx="60.4485" ry="57.3" transform="matrix(0.999999 -0.00152766 0.00170016 0.999999 881.644 -6.06809)" fill="#D9D9D9" fill-opacity="0.2"/>
<ellipse rx="60.4485" ry="57.3" transform="matrix(0.999999 -0.00152766 0.00170016 0.999999 1057.49 -6.33688)" fill="#D9D9D9" fill-opacity="0.2"/>
<ellipse rx="60.4485" ry="57.3" transform="matrix(0.999999 -0.00152766 0.00170016 0.999999 1233.35 -6.60556)" fill="#D9D9D9" fill-opacity="0.2"/>
<ellipse rx="60.4485" ry="57.3" transform="matrix(0.999999 -0.00152766 0.00170016 0.999999 1409.19 -6.87424)" fill="#D9D9D9" fill-opacity="0.2"/>
</svg>
