<svg width="23" height="21" viewBox="0 0 23 21" fill="none" xmlns="http://www.w3.org/2000/svg">
<path opacity="0.3" d="M1.56777 20.1474C1.15197 20.1474 0.753208 19.9822 0.459197 19.6882C0.165185 19.3942 1.15546e-05 18.9954 1.15546e-05 18.5796V13.0679C-0.00142441 12.6946 0.131024 12.3332 0.373321 12.0491C0.615617 11.7651 0.951704 11.5774 1.32059 11.52L10.388 10.0735L1.32059 8.62752C0.951706 8.56992 0.615673 8.38206 0.373403 8.09799C0.131134 7.81392 -0.0013346 7.45244 1.15546e-05 7.0791V1.56791C-1.3176e-05 1.30917 0.0640009 1.05444 0.186344 0.826455C0.308687 0.598467 0.485556 0.404304 0.701175 0.261282C0.916793 0.118261 1.16446 0.0308291 1.42208 0.00678454C1.6797 -0.01726 1.93926 0.0228305 2.17763 0.12348L21.9214 8.45663C22.2392 8.59095 22.5104 8.81596 22.7011 9.10353C22.8917 9.3911 22.9934 9.72848 22.9934 10.0735C22.9934 10.4185 22.8917 10.7559 22.7011 11.0435C22.5104 11.3311 22.2392 11.5561 21.9214 11.6904L2.17763 20.0235C1.98466 20.1052 1.77729 20.1473 1.56777 20.1474ZM1.56777 1.04428C1.46543 1.04477 1.36549 1.07529 1.28035 1.13207C1.20773 1.17916 1.14813 1.24375 1.10704 1.31992C1.06594 1.39608 1.04467 1.48136 1.04518 1.56791V7.0791C1.04511 7.20343 1.08938 7.32372 1.17003 7.41835C1.25068 7.51299 1.36242 7.57577 1.4852 7.59541L13.0249 9.43596C13.1769 9.45985 13.3153 9.53721 13.4152 9.6541C13.5151 9.77099 13.57 9.91972 13.57 10.0735C13.57 10.2273 13.5151 10.376 13.4152 10.4929C13.3153 10.6098 13.1769 10.6872 13.0249 10.7111L1.4852 12.5521C1.36224 12.5712 1.25019 12.6337 1.16944 12.7283C1.08869 12.823 1.0446 12.9435 1.04518 13.0679V18.5791C1.04494 18.6655 1.06611 18.7506 1.1068 18.8267C1.14748 18.9029 1.20641 18.9678 1.27832 19.0157C1.35023 19.0635 1.43287 19.0928 1.51886 19.1009C1.60484 19.1089 1.69149 19.0956 1.77105 19.062L21.5149 10.7273C21.6431 10.6728 21.7524 10.5819 21.8293 10.4657C21.9062 10.3495 21.9472 10.2133 21.9472 10.074C21.9472 9.93474 21.9062 9.79852 21.8293 9.68237C21.7524 9.56621 21.6431 9.47524 21.5149 9.4208L1.77105 1.08504C1.70659 1.05834 1.63754 1.04449 1.56777 1.04428Z" fill="#572B92"/>
</svg>
