<svg width="20" height="21" viewBox="0 0 20 21" fill="none" xmlns="http://www.w3.org/2000/svg">
<path d="M8.57112 17.6429C8.69255 17.6429 8.81398 17.64 8.93399 17.6357C8.53011 16.4898 8.45976 15.2529 8.73112 14.0686C8.00109 14.0925 7.27471 13.9558 6.60328 13.6682C5.93184 13.3806 5.33173 12.9492 4.84531 12.4043C4.73092 12.2617 4.67554 12.0808 4.69055 11.8986C4.70556 11.7164 4.78984 11.547 4.92602 11.4251C5.0622 11.3032 5.23994 11.2381 5.42264 11.2433C5.60535 11.2484 5.77912 11.3235 5.90819 11.4529C6.32229 11.9176 6.85096 12.2657 7.44152 12.4625C8.03208 12.6592 8.6639 12.6978 9.274 12.5743C9.98199 11.1877 11.1691 10.1051 12.615 9.52765C14.0609 8.95016 15.6672 8.91699 17.1356 9.43429C17.2081 7.72512 16.7674 6.03338 15.8703 4.57674C14.9732 3.1201 13.6608 1.96521 12.1018 1.26067C10.5429 0.556134 8.80881 0.334177 7.12267 0.623361C5.43654 0.912546 3.87552 1.69964 2.64046 2.88337C1.4054 4.0671 0.552808 5.59331 0.19239 7.26562C-0.168028 8.93793 -0.0197834 10.6798 0.618049 12.2672C1.25588 13.8545 2.35412 15.2147 3.77145 16.1727C5.18879 17.1308 6.86037 17.6427 8.57112 17.6429ZM6.07105 8.71429C5.78689 8.71429 5.51436 8.60141 5.31342 8.40047C5.11248 8.19954 4.9996 7.92702 4.9996 7.64286C4.9996 7.3587 5.11248 7.08618 5.31342 6.88525C5.51436 6.68431 5.78689 6.57143 6.07105 6.57143C6.35522 6.57143 6.62775 6.68431 6.82869 6.88525C7.02963 7.08618 7.14251 7.3587 7.14251 7.64286C7.14251 7.92702 7.02963 8.19954 6.82869 8.40047C6.62775 8.60141 6.35522 8.71429 6.07105 8.71429ZM11.0712 8.71429C10.787 8.71429 10.5145 8.60141 10.3136 8.40047C10.1126 8.19954 9.99973 7.92702 9.99973 7.64286C9.99973 7.3587 10.1126 7.08618 10.3136 6.88525C10.5145 6.68431 10.787 6.57143 11.0712 6.57143C11.3554 6.57143 11.6279 6.68431 11.8288 6.88525C12.0298 7.08618 12.1426 7.3587 12.1426 7.64286C12.1426 7.92702 12.0298 8.19954 11.8288 8.40047C11.6279 8.60141 11.3554 8.71429 11.0712 8.71429ZM20 15.5C20 16.8261 19.4732 18.0979 18.5355 19.0355C17.5978 19.9732 16.326 20.5 14.9999 20.5C13.6737 20.5 12.4019 19.9732 11.4642 19.0355C10.5265 18.0979 9.99973 16.8261 9.99973 15.5C9.99973 14.1739 10.5265 12.9022 11.4642 11.9645C12.4019 11.0268 13.6737 10.5 14.9999 10.5C16.326 10.5 17.5978 11.0268 18.5355 11.9645C19.4732 12.9022 20 14.1739 20 15.5ZM15.7142 12.6429C15.7142 12.4534 15.6389 12.2717 15.505 12.1378C15.371 12.0038 15.1893 11.9286 14.9999 11.9286C14.8104 11.9286 14.6287 12.0038 14.4948 12.1378C14.3608 12.2717 14.2856 12.4534 14.2856 12.6429V14.7857H12.1426C11.9532 14.7857 11.7715 14.861 11.6376 14.9949C11.5036 15.1289 11.4283 15.3106 11.4283 15.5C11.4283 15.6894 11.5036 15.8711 11.6376 16.0051C11.7715 16.139 11.9532 16.2143 12.1426 16.2143H14.2856V18.3571C14.2856 18.5466 14.3608 18.7283 14.4948 18.8622C14.6287 18.9962 14.8104 19.0714 14.9999 19.0714C15.1893 19.0714 15.371 18.9962 15.505 18.8622C15.6389 18.7283 15.7142 18.5466 15.7142 18.3571V16.2143H17.8571C18.0465 16.2143 18.2282 16.139 18.3622 16.0051C18.4961 15.8711 18.5714 15.6894 18.5714 15.5C18.5714 15.3106 18.4961 15.1289 18.3622 14.9949C18.2282 14.861 18.0465 14.7857 17.8571 14.7857H15.7142V12.6429Z" fill="#572B92"/>
</svg>
