<svg width="222" height="222" viewBox="0 0 222 222" fill="none" xmlns="http://www.w3.org/2000/svg">
<path d="M111 212.44C165.422 212.44 209.54 186.968 209.54 155.546C209.54 124.124 165.422 98.6515 111 98.6515C56.5786 98.6515 12.4609 124.124 12.4609 155.546C12.4609 186.968 56.5786 212.44 111 212.44Z" fill="#F5F5F5"/>
<path d="M39.7408 169.712C47.6817 169.712 54.1191 165.995 54.1191 161.411C54.1191 156.827 47.6817 153.11 39.7408 153.11C31.7999 153.11 25.3625 156.827 25.3625 161.411C25.3625 165.995 31.7999 169.712 39.7408 169.712Z" fill="#E0E0E0"/>
<path d="M99.1017 143.236L59.4941 166.105L30.6978 149.354L70.3054 126.489L99.1017 143.236Z" fill="#E0E0E0"/>
<path d="M163.647 190.199L66.2784 133.981C66.0754 133.865 65.9067 133.697 65.7893 133.495C65.6719 133.293 65.6101 133.063 65.6101 132.829C65.6101 132.596 65.6719 132.366 65.7893 132.164C65.9067 131.962 66.0754 131.794 66.2784 131.678L81.996 122.604C82.6365 122.232 83.3638 122.037 84.1043 122.037C84.8447 122.037 85.5721 122.232 86.2126 122.604L183.581 178.817C183.785 178.933 183.955 179.101 184.073 179.303C184.191 179.506 184.253 179.736 184.253 179.971C184.253 180.205 184.191 180.436 184.073 180.638C183.955 180.841 183.785 181.009 183.581 181.125L167.868 190.199C167.226 190.568 166.498 190.762 165.757 190.762C165.016 190.762 164.289 190.568 163.647 190.199Z" fill="#E0E0E0"/>
<path d="M178.838 161.15L184.31 164.328C184.31 164.328 181.548 155.514 183.081 146.648C183.66 143.298 184.876 141.636 185.291 140.743C185.707 139.85 189.022 134.316 186.118 131.77C183.214 129.224 176.394 134.29 176.703 147.947C176.854 152.421 177.571 156.857 178.838 161.15Z" fill="#572B92"/>
<path opacity="0.3" d="M178.838 161.15L184.31 164.328C184.31 164.328 181.548 155.514 183.081 146.648C183.66 143.298 184.876 141.636 185.291 140.743C185.707 139.85 189.022 134.316 186.118 131.77C183.214 129.224 176.394 134.29 176.703 147.947C176.854 152.421 177.571 156.857 178.838 161.15Z" fill="black"/>
<path d="M181.38 162.826C181.339 162.826 181.3 162.813 181.267 162.79C181.234 162.768 181.208 162.735 181.194 162.698C181.172 162.64 179.108 156.903 179.214 147.696C179.32 138.489 184.182 133.512 184.231 133.464C184.268 133.426 184.319 133.405 184.372 133.405C184.425 133.405 184.476 133.426 184.514 133.464C184.551 133.501 184.572 133.552 184.572 133.605C184.572 133.658 184.551 133.709 184.514 133.747C184.465 133.795 179.718 138.609 179.612 147.7C179.506 156.792 181.548 162.503 181.565 162.56C181.575 162.585 181.579 162.61 181.578 162.636C181.577 162.662 181.571 162.687 181.561 162.71C181.55 162.734 181.535 162.755 181.516 162.773C181.497 162.79 181.475 162.804 181.45 162.812C181.428 162.821 181.404 162.826 181.38 162.826Z" fill="white"/>
<path d="M180.394 161.973L189.437 167.277C189.437 167.277 193.575 166.667 193.261 162.773C192.947 158.879 191.267 157.955 193.362 156.244C195.458 154.534 196.014 154.419 195.895 152.739C195.776 151.06 194.666 150.33 194.127 149.645C193.588 148.96 192.116 147.585 193.155 145.561C194.193 143.537 195.612 141.583 193.513 140.655C192.262 140.102 190.158 140.796 188.761 142.277C187.364 143.758 186.22 144.823 184.898 145.168C183.577 145.512 180.818 145.539 180.92 147.82C181.022 150.1 181.605 150.883 181.053 151.895C179.992 153.84 175.532 154.847 180.394 161.973Z" fill="#572B92"/>
<path d="M184.058 164.337C184.009 164.336 183.961 164.317 183.925 164.284C183.888 164.25 183.865 164.205 183.859 164.156C183.859 164.019 182.869 150.564 192.218 141.729C192.236 141.71 192.257 141.695 192.281 141.685C192.305 141.675 192.331 141.67 192.357 141.67C192.383 141.67 192.408 141.675 192.432 141.685C192.456 141.695 192.478 141.71 192.496 141.729C192.533 141.766 192.553 141.817 192.553 141.87C192.553 141.923 192.533 141.973 192.496 142.011C183.289 150.714 184.253 163.983 184.266 164.111C184.27 164.164 184.253 164.216 184.219 164.256C184.185 164.297 184.137 164.322 184.085 164.328L184.058 164.337Z" fill="white"/>
<path d="M185.698 152.783C185.648 152.783 185.6 152.765 185.563 152.731C185.526 152.698 185.503 152.651 185.499 152.602C185.422 151.562 185.136 150.548 184.658 149.621C184.179 148.694 183.518 147.874 182.714 147.209C182.693 147.194 182.675 147.175 182.661 147.152C182.648 147.13 182.638 147.105 182.634 147.079C182.63 147.054 182.631 147.027 182.637 147.002C182.644 146.976 182.655 146.952 182.67 146.931C182.685 146.91 182.704 146.892 182.726 146.878C182.748 146.865 182.772 146.855 182.798 146.851C182.823 146.847 182.849 146.848 182.875 146.854C182.9 146.86 182.923 146.871 182.944 146.887C183.802 147.582 184.506 148.447 185.011 149.429C185.517 150.411 185.812 151.487 185.879 152.589C185.881 152.641 185.864 152.692 185.829 152.732C185.794 152.772 185.746 152.796 185.693 152.801L185.698 152.783Z" fill="white"/>
<path d="M185.013 155.086C184.988 155.086 184.964 155.082 184.941 155.072C184.918 155.063 184.898 155.05 184.88 155.033C184.862 155.015 184.847 154.993 184.837 154.969C184.827 154.945 184.822 154.919 184.822 154.893C184.822 154.868 184.827 154.842 184.837 154.818C184.847 154.794 184.862 154.772 184.88 154.754C184.977 154.648 187.324 152.102 192.743 152.862C192.795 152.869 192.843 152.896 192.875 152.937C192.907 152.979 192.922 153.031 192.916 153.083C192.908 153.136 192.88 153.183 192.838 153.215C192.796 153.248 192.743 153.262 192.69 153.256C187.492 152.54 185.198 154.993 185.176 155.024C185.156 155.046 185.13 155.063 185.102 155.074C185.074 155.085 185.043 155.089 185.013 155.086Z" fill="white"/>
<path d="M170.255 121.37L157.635 113.98L165.149 124.314L170.255 121.37Z" fill="#F4CD49"/>
<path opacity="0.6" d="M170.255 121.37L157.635 113.98L165.149 124.314L170.255 121.37Z" fill="black"/>
<path d="M162.754 148.721L88.8998 106.076C88.5829 105.894 88.3196 105.631 88.1364 105.315C87.9533 104.998 87.8568 104.639 87.8567 104.273V53.8453C87.857 53.4797 87.9533 53.1205 88.1361 52.8038C88.3189 52.4872 88.5817 52.2241 88.8983 52.041C89.2148 51.8579 89.5738 51.7612 89.9395 51.7606C90.3051 51.76 90.6645 51.8555 90.9816 52.0375L164.844 94.6817C165.161 94.8652 165.424 95.1288 165.608 95.4461C165.791 95.7634 165.887 96.1232 165.887 96.4895V146.917C165.887 147.284 165.79 147.644 165.607 147.961C165.423 148.278 165.159 148.542 164.842 148.725C164.524 148.908 164.164 149.003 163.797 149.003C163.431 149.002 163.071 148.905 162.754 148.721Z" fill="#E0E0E0"/>
<path d="M165.15 124.313L170.255 121.37V181.04C170.255 181.578 170.114 182.106 169.844 182.572C169.575 183.038 169.188 183.424 168.721 183.692L163.678 186.613L165.15 124.313Z" fill="#F4CD49"/>
<path opacity="0.3" d="M165.15 124.313L170.255 121.37V181.04C170.255 181.578 170.114 182.106 169.844 182.572C169.575 183.038 169.188 183.424 168.721 183.692L163.678 186.613L165.15 124.313Z" fill="black"/>
<path d="M159.403 150.608L85.5406 107.964C85.2248 107.78 84.9627 107.516 84.7805 107.199C84.5982 106.882 84.5022 106.522 84.502 106.156V55.7154C84.5017 55.3496 84.5977 54.9901 84.7805 54.6733C84.9633 54.3564 85.2264 54.0933 85.5432 53.9105C85.86 53.7277 86.2195 53.6315 86.5853 53.6318C86.9511 53.6321 87.3103 53.7287 87.6269 53.912L161.49 96.5562C161.806 96.7386 162.07 97.0014 162.253 97.318C162.436 97.6345 162.532 97.9938 162.533 98.3595V148.801C162.533 149.167 162.437 149.527 162.254 149.844C162.07 150.161 161.807 150.425 161.49 150.608C161.173 150.791 160.813 150.888 160.447 150.888C160.08 150.888 159.721 150.791 159.403 150.608Z" fill="#EBEBEB"/>
<path d="M156.049 152.58L82.1906 109.94C81.8736 109.756 81.6104 109.493 81.4273 109.176C81.2442 108.858 81.1477 108.498 81.1475 108.132V57.7044C81.1472 57.3386 81.2432 56.9792 81.426 56.6623C81.6088 56.3455 81.8719 56.0824 82.1887 55.8996C82.5056 55.7167 82.865 55.6206 83.2308 55.6209C83.5966 55.6211 83.9558 55.7178 84.2724 55.901L158.135 98.5452C158.453 98.7284 158.717 98.9926 158.901 99.3108C159.084 99.6291 159.18 99.9902 159.178 100.357V150.776C159.178 151.142 159.081 151.502 158.897 151.818C158.714 152.135 158.451 152.398 158.134 152.581C157.817 152.763 157.457 152.859 157.091 152.859C156.725 152.859 156.366 152.763 156.049 152.58Z" fill="#FAFAFA"/>
<path d="M70.7515 57.041V131.164C70.7514 132.216 71.0282 133.25 71.5543 134.161C72.0804 135.072 72.8371 135.828 73.7483 136.353L160.822 186.618C161.262 186.871 161.761 187.005 162.269 187.004C162.777 187.004 163.276 186.87 163.715 186.616C164.155 186.363 164.52 185.997 164.774 185.558C165.028 185.118 165.162 184.619 165.163 184.112V124.313L119.239 97.7934L111.305 79.4946C109.824 76.0771 107.283 73.2271 104.056 71.3662L74.9947 54.5702C74.5632 54.321 74.0734 54.1903 73.5751 54.1912C73.0767 54.1921 72.5875 54.3247 72.1568 54.5754C71.7262 54.8262 71.3694 55.1863 71.1226 55.6192C70.8759 56.0522 70.7478 56.5427 70.7515 57.041Z" fill="#F4CD49"/>
<path d="M139.757 137.927C139.513 137.786 139.27 137.662 139.032 137.552C138.846 131.85 134.868 125.109 130.006 122.298C128.366 121.348 126.828 120.972 125.502 121.087C123.646 115.067 119.38 109.153 114.412 106.271C108.074 102.612 102.876 105.25 102.372 112.128C102.067 111.916 101.758 111.717 101.448 111.536C96.635 108.76 92.7366 111.01 92.7366 116.566C92.7366 122.121 96.635 128.88 101.448 131.655L139.77 153.782C143.567 155.992 146.643 154.197 146.643 149.804C146.643 145.41 143.553 140.098 139.757 137.927Z" fill="#F4CD49"/>
<path opacity="0.4" d="M139.757 137.927C139.513 137.786 139.27 137.662 139.032 137.552C138.846 131.85 134.868 125.109 130.006 122.298C128.366 121.348 126.828 120.972 125.502 121.087C123.646 115.067 119.38 109.153 114.412 106.271C108.074 102.612 102.876 105.25 102.372 112.128C102.067 111.916 101.758 111.717 101.448 111.536C96.635 108.76 92.7366 111.01 92.7366 116.566C92.7366 122.121 96.635 128.88 101.448 131.655L139.77 153.782C143.567 155.992 146.643 154.197 146.643 149.804C146.643 145.41 143.553 140.098 139.757 137.927Z" fill="white"/>
<path d="M107.106 137.41L116.136 153.875L125.785 148.027L121.97 145.874V129.578L111.689 123.655V140.084L107.106 137.41Z" fill="white"/>
<path d="M81.1298 33.3589C71.506 33.3587 62.1319 36.4222 54.3656 42.1057C46.5992 47.7892 40.8439 55.7976 37.9331 64.9707L34.2778 62.8668C34.1707 62.804 34.0493 62.7697 33.9252 62.767C33.8011 62.7642 33.6784 62.7932 33.5686 62.8512C33.4588 62.9092 33.3657 62.9942 33.2979 63.0983C33.2302 63.2023 33.1902 63.322 33.1816 63.4458C32.5175 70.5307 33.5399 77.6721 36.1651 84.2861C37.4561 87.5688 39.203 90.6533 41.3542 93.4488C41.4231 93.5357 41.5136 93.603 41.6167 93.6439C41.7198 93.6848 41.8319 93.6978 41.9416 93.6817C42.0513 93.6656 42.1549 93.6208 42.2419 93.552C42.3288 93.4832 42.3962 93.3927 42.4371 93.2896C44.0301 89.2944 46.2274 85.5676 48.9522 82.2396C50.7146 80.0526 52.6962 78.0517 54.8662 76.2682C54.988 76.1689 55.0838 76.0413 55.1453 75.8966C55.2068 75.7519 55.2321 75.5944 55.219 75.4377C55.206 75.281 55.1549 75.1299 55.0704 74.9973C54.9858 74.8648 54.8702 74.7549 54.7336 74.677L50.3489 72.1444C52.6861 63.6991 57.7942 56.2846 64.8527 51.092C71.9112 45.8994 80.5102 43.2302 89.2684 43.5133C98.0265 43.7963 106.435 47.0151 113.144 52.6526C119.852 58.2901 124.471 66.0189 126.258 74.5975C125.24 63.3315 120.045 52.8537 111.694 45.223C103.344 37.5923 92.4417 33.3604 81.1298 33.3589Z" fill="#572B92"/>
<path opacity="0.4" d="M81.1298 33.3589C71.506 33.3587 62.1319 36.4222 54.3656 42.1057C46.5992 47.7892 40.8439 55.7976 37.9331 64.9707L34.2778 62.8668C34.1707 62.804 34.0493 62.7697 33.9252 62.767C33.8011 62.7642 33.6784 62.7932 33.5686 62.8512C33.4588 62.9092 33.3657 62.9942 33.2979 63.0983C33.2302 63.2023 33.1902 63.322 33.1816 63.4458C32.5175 70.5307 33.5399 77.6721 36.1651 84.2861C37.4561 87.5688 39.203 90.6533 41.3542 93.4488C41.4231 93.5357 41.5136 93.603 41.6167 93.6439C41.7198 93.6848 41.8319 93.6978 41.9416 93.6817C42.0513 93.6656 42.1549 93.6208 42.2419 93.552C42.3288 93.4832 42.3962 93.3927 42.4371 93.2896C44.0301 89.2944 46.2274 85.5676 48.9522 82.2396C50.7146 80.0526 52.6962 78.0517 54.8662 76.2682C54.988 76.1689 55.0838 76.0413 55.1453 75.8966C55.2068 75.7519 55.2321 75.5944 55.219 75.4377C55.206 75.281 55.1549 75.1299 55.0704 74.9973C54.9858 74.8648 54.8702 74.7549 54.7336 74.677L50.3489 72.1444C52.6861 63.6991 57.7942 56.2846 64.8527 51.092C71.9112 45.8994 80.5102 43.2302 89.2684 43.5133C98.0265 43.7963 106.435 47.0151 113.144 52.6526C119.852 58.2901 124.471 66.0189 126.258 74.5975C125.24 63.3315 120.045 52.8537 111.694 45.223C103.344 37.5923 92.4417 33.3604 81.1298 33.3589Z" fill="white"/>
<path d="M168.269 42.7457C173.254 39.8676 173.254 30.5354 168.27 21.9016C163.285 13.2678 155.203 8.60189 150.218 11.4799C145.233 14.358 145.233 23.6902 150.218 32.324C155.202 40.9578 163.284 45.6237 168.269 42.7457Z" fill="#572B92"/>
<path opacity="0.2" d="M168.269 42.7457C173.254 39.8676 173.254 30.5354 168.27 21.9016C163.285 13.2678 155.203 8.60189 150.218 11.4799C145.233 14.358 145.233 23.6902 150.218 32.324C155.202 40.9578 163.284 45.6237 168.269 42.7457Z" fill="black"/>
<path d="M167.519 43.1791C172.504 40.301 172.504 30.9688 167.519 22.335C162.535 13.7012 154.453 9.03528 149.468 11.9133C144.483 14.7914 144.483 24.1236 149.467 32.7574C154.452 41.3912 162.534 46.0571 167.519 43.1791Z" fill="#572B92"/>
<path d="M153.432 31.8474L163.258 37.5492C163.377 37.6194 163.514 37.6566 163.652 37.6572C163.791 37.6578 163.927 37.6217 164.048 37.5526C164.168 37.4835 164.268 37.3838 164.337 37.2637C164.406 37.1436 164.443 37.0073 164.442 36.8686V24.7136C164.44 24.4093 164.357 24.111 164.202 23.8493C164.046 23.5876 163.824 23.3719 163.558 23.224L153.733 17.5399C153.613 17.4698 153.477 17.4325 153.338 17.4319C153.2 17.4313 153.063 17.4674 152.943 17.5365C152.823 17.6056 152.723 17.7053 152.653 17.8254C152.584 17.9456 152.548 18.0819 152.548 18.2206V30.3756C152.554 30.6769 152.638 30.9714 152.793 31.2297C152.948 31.4881 153.169 31.7011 153.432 31.8474Z" fill="#572B92"/>
<path opacity="0.6" d="M153.432 31.8474L163.258 37.5492C163.377 37.6194 163.514 37.6566 163.652 37.6572C163.791 37.6578 163.927 37.6217 164.048 37.5526C164.168 37.4835 164.268 37.3838 164.337 37.2637C164.406 37.1436 164.443 37.0073 164.442 36.8686V24.7136C164.44 24.4093 164.357 24.111 164.202 23.8493C164.046 23.5876 163.824 23.3719 163.558 23.224L153.733 17.5399C153.613 17.4698 153.477 17.4325 153.338 17.4319C153.2 17.4313 153.063 17.4674 152.943 17.5365C152.823 17.6056 152.723 17.7053 152.653 17.8254C152.584 17.9456 152.548 18.0819 152.548 18.2206V30.3756C152.554 30.6769 152.638 30.9714 152.793 31.2297C152.948 31.4881 153.169 31.7011 153.432 31.8474Z" fill="white"/>
<path d="M154.418 30.0798L162.316 34.6192C162.413 34.6762 162.523 34.7062 162.636 34.706C162.748 34.7059 162.858 34.6755 162.955 34.6182C163.052 34.5608 163.131 34.4785 163.185 34.38C163.239 34.2814 163.266 34.1702 163.262 34.0578V24.9526C163.262 24.7107 163.198 24.4731 163.077 24.2636C162.956 24.0542 162.782 23.8802 162.573 23.7592L154.674 19.2022C154.578 19.1473 154.469 19.1185 154.358 19.1188C154.248 19.1191 154.139 19.1485 154.043 19.204C153.948 19.2595 153.868 19.3391 153.813 19.435C153.757 19.5309 153.728 19.6396 153.728 19.7503V28.8688C153.725 29.1137 153.787 29.355 153.909 29.5678C154.03 29.7807 154.206 29.9574 154.418 30.0798Z" fill="#572B92"/>
<path opacity="0.4" d="M163.262 24.9524V34.0576C163.263 34.1688 163.235 34.2784 163.18 34.375C163.125 34.4717 163.045 34.552 162.949 34.6078C162.853 34.6636 162.744 34.6928 162.632 34.6924C162.521 34.692 162.412 34.6621 162.316 34.6057L154.418 30.0796C154.208 29.9601 154.033 29.787 153.912 29.5782C153.791 29.3693 153.728 29.1321 153.728 28.8906V19.7501C153.727 19.6389 153.755 19.5293 153.81 19.4326C153.865 19.336 153.945 19.2556 154.041 19.1999C154.137 19.1441 154.247 19.1149 154.358 19.1153C154.469 19.1157 154.578 19.1456 154.674 19.202L162.572 23.7634C162.782 23.883 162.957 24.056 163.078 24.2649C163.199 24.4737 163.262 24.711 163.262 24.9524Z" fill="white"/>
<path d="M163.262 33.7349V34.0575C163.263 34.1687 163.235 34.2783 163.18 34.375C163.125 34.4716 163.045 34.552 162.949 34.6077C162.853 34.6635 162.743 34.6927 162.632 34.6923C162.521 34.6919 162.412 34.662 162.316 34.6056L154.418 30.0795C154.208 29.96 154.033 29.787 153.912 29.5781C153.791 29.3692 153.728 29.132 153.728 28.8906V28.0066L155.797 26.2386L158.236 29.7127L160.619 26.8795L163.262 33.7349Z" fill="#FAFAFA"/>
<path d="M156.451 23.503C156.471 23.8718 156.578 24.2307 156.762 24.5508C156.946 24.8709 157.203 25.1433 157.512 25.3461C158.1 25.6865 158.577 25.4124 158.577 24.7318C158.556 24.3626 158.449 24.0034 158.264 23.6833C158.079 23.3631 157.821 23.0909 157.512 22.8886C156.928 22.566 156.451 22.8267 156.451 23.503Z" fill="#FAFAFA"/>
<path d="M190.391 88.1257C195.376 85.2476 195.376 75.9154 190.392 67.2816C185.407 58.6479 177.325 53.9819 172.34 56.86C167.355 59.738 167.355 69.0702 172.34 77.704C177.324 86.3378 185.406 91.0037 190.391 88.1257Z" fill="#572B92"/>
<path opacity="0.2" d="M190.391 88.1257C195.376 85.2476 195.376 75.9154 190.392 67.2816C185.407 58.6479 177.325 53.9819 172.34 56.86C167.355 59.738 167.355 69.0702 172.34 77.704C177.324 86.3378 185.406 91.0037 190.391 88.1257Z" fill="black"/>
<path d="M189.643 88.5626C194.628 85.6845 194.628 76.3523 189.644 67.7185C184.659 59.0847 176.577 54.4188 171.592 57.2968C166.607 60.1749 166.607 69.5071 171.592 78.1409C176.576 86.7747 184.658 91.4406 189.643 88.5626Z" fill="#572B92"/>
<path d="M175.855 62.9202C175.735 62.8513 175.598 62.8152 175.46 62.8154C175.321 62.8157 175.185 62.8524 175.065 62.9217C174.945 62.9911 174.846 63.0907 174.776 63.2107C174.707 63.3306 174.67 63.4667 174.67 63.6053V75.7603C174.67 76.0618 174.75 76.358 174.901 76.6188C175.053 76.8796 175.27 77.0958 175.532 77.2454L185.38 82.9339C185.501 83.0095 185.641 83.0506 185.784 83.0528C185.927 83.0551 186.067 83.0183 186.191 82.9465C186.315 82.8747 186.416 82.7706 186.485 82.6453C186.554 82.5201 186.588 82.3784 186.582 82.2356V73.2143L183.93 67.5612L175.855 62.9202Z" fill="#572B92"/>
<path opacity="0.6" d="M175.855 62.9202C175.735 62.8513 175.598 62.8152 175.46 62.8154C175.321 62.8157 175.185 62.8524 175.065 62.9217C174.945 62.9911 174.846 63.0907 174.776 63.2107C174.707 63.3306 174.67 63.4667 174.67 63.6053V75.7603C174.67 76.0618 174.75 76.358 174.901 76.6188C175.053 76.8796 175.27 77.0958 175.532 77.2454L185.38 82.9339C185.501 83.0095 185.641 83.0506 185.784 83.0528C185.927 83.0551 186.067 83.0183 186.191 82.9465C186.315 82.8747 186.416 82.7706 186.485 82.6453C186.554 82.5201 186.588 82.3784 186.582 82.2356V73.2143L183.93 67.5612L175.855 62.9202Z" fill="white"/>
<path d="M183.545 69.6297L183.89 67.5611L186.542 73.2187L184.133 71.2342C183.903 71.0417 183.728 70.7922 183.625 70.5106C183.521 70.229 183.494 69.9252 183.545 69.6297Z" fill="#572B92"/>
<path opacity="0.4" d="M183.545 69.6297L183.89 67.5611L186.542 73.2187L184.133 71.2342C183.903 71.0417 183.728 70.7922 183.625 70.5106C183.521 70.229 183.494 69.9252 183.545 69.6297Z" fill="white"/>
<path d="M184.505 74.377C184.456 74.3763 184.409 74.3625 184.368 74.3372L176.593 69.8597C176.531 69.8229 176.487 69.7634 176.468 69.694C176.45 69.6245 176.46 69.5508 176.496 69.4885C176.532 69.4272 176.59 69.3826 176.659 69.3644C176.728 69.3462 176.801 69.3558 176.863 69.3912L184.642 73.8775C184.703 73.9144 184.748 73.9739 184.766 74.0433C184.784 74.1127 184.775 74.1865 184.739 74.2488C184.715 74.289 184.68 74.322 184.639 74.3445C184.598 74.367 184.552 74.3782 184.505 74.377Z" fill="#FAFAFA"/>
<path d="M184.505 77.0107C184.457 77.0095 184.41 76.9974 184.368 76.9753L176.593 72.4846C176.531 72.4478 176.487 72.3882 176.468 72.3188C176.45 72.2494 176.46 72.1756 176.496 72.1133C176.532 72.052 176.59 72.0074 176.659 71.9892C176.728 71.971 176.801 71.9807 176.863 72.0161L184.642 76.4891C184.703 76.5259 184.748 76.5855 184.766 76.6549C184.784 76.7243 184.775 76.7981 184.739 76.8604C184.718 76.9047 184.684 76.9422 184.643 76.9687C184.602 76.9953 184.554 77.0098 184.505 77.0107Z" fill="#FAFAFA"/>
<path d="M184.505 79.6454C184.457 79.6442 184.41 79.6321 184.368 79.6101L176.593 75.1193C176.531 75.0825 176.487 75.023 176.468 74.9536C176.45 74.8841 176.46 74.8104 176.496 74.7481C176.532 74.6868 176.59 74.6422 176.659 74.624C176.728 74.6057 176.801 74.6154 176.863 74.6508L184.642 79.1415C184.694 79.1711 184.734 79.2172 184.757 79.2724C184.78 79.3276 184.784 79.3889 184.768 79.4466C184.753 79.5043 184.718 79.5551 184.671 79.5911C184.623 79.6271 184.564 79.6462 184.505 79.6454Z" fill="#FAFAFA"/>
<path d="M144.209 61.8755C149.217 58.9975 149.236 49.6332 144.251 40.9597C139.266 32.2863 131.166 27.5882 126.158 30.4663C121.15 33.3444 121.131 42.7087 126.116 51.3821C131.101 60.0555 139.201 64.7536 144.209 61.8755Z" fill="#572B92"/>
<path opacity="0.2" d="M144.209 61.8755C149.217 58.9975 149.236 49.6332 144.251 40.9597C139.266 32.2863 131.166 27.5882 126.158 30.4663C121.15 33.3444 121.131 42.7087 126.116 51.3821C131.101 60.0555 139.201 64.7536 144.209 61.8755Z" fill="black"/>
<path d="M142.93 62.0534C147.915 59.1754 147.915 49.8432 142.93 41.2094C137.946 32.5756 129.864 27.9096 124.879 30.7877C119.894 33.6657 119.893 42.998 124.878 51.6317C129.863 60.2655 137.945 64.9315 142.93 62.0534Z" fill="#572B92"/>
<path d="M128.817 50.7427L138.665 56.4269C138.784 56.497 138.921 56.5342 139.059 56.5348C139.198 56.5354 139.334 56.4993 139.455 56.4302C139.575 56.3611 139.675 56.2615 139.744 56.1413C139.813 56.0212 139.85 55.8849 139.849 55.7462V43.5912C139.849 43.2891 139.77 42.9923 139.618 42.7308C139.467 42.4693 139.249 42.2523 138.987 42.1016L129.122 36.4175C129.002 36.3485 128.867 36.3121 128.729 36.3121C128.591 36.3121 128.455 36.3484 128.336 36.4173C128.216 36.4863 128.117 36.5855 128.048 36.7051C127.978 36.8246 127.942 36.9601 127.942 37.0982V49.2532C127.944 49.5565 128.026 49.854 128.179 50.1155C128.333 50.3771 128.553 50.5934 128.817 50.7427Z" fill="#572B92"/>
<path opacity="0.6" d="M128.817 50.7427L138.665 56.4269C138.784 56.497 138.921 56.5342 139.059 56.5348C139.198 56.5354 139.334 56.4993 139.455 56.4302C139.575 56.3611 139.675 56.2615 139.744 56.1413C139.813 56.0212 139.85 55.8849 139.849 55.7462V43.5912C139.849 43.2891 139.77 42.9923 139.618 42.7308C139.467 42.4693 139.249 42.2523 138.987 42.1016L129.122 36.4175C129.002 36.3485 128.867 36.3121 128.729 36.3121C128.591 36.3121 128.455 36.3484 128.336 36.4173C128.216 36.4863 128.117 36.5855 128.048 36.7051C127.978 36.8246 127.942 36.9601 127.942 37.0982V49.2532C127.944 49.5565 128.026 49.854 128.179 50.1155C128.333 50.3771 128.553 50.5934 128.817 50.7427Z" fill="white"/>
<path d="M131.5 44.3603V48.4841C131.5 48.6471 131.565 48.8033 131.68 48.9186C131.795 49.0338 131.951 49.0985 132.114 49.0985H135.69C135.808 49.0984 135.923 49.0645 136.022 49.0009C136.121 48.9372 136.2 48.8464 136.249 48.7393C136.298 48.6322 136.315 48.5133 136.298 48.3967C136.281 48.2802 136.231 48.1709 136.154 48.0819L132.578 43.958C132.496 43.8635 132.387 43.7962 132.266 43.7653C132.145 43.7344 132.017 43.7412 131.9 43.785C131.782 43.8287 131.681 43.9073 131.61 44.0101C131.538 44.1129 131.5 44.2351 131.5 44.3603Z" fill="#FAFAFA"/>
<path d="M159.244 44.8955C159.161 44.8955 159.081 44.8624 159.023 44.8035C158.964 44.7447 158.931 44.6649 158.931 44.5816V43.7463C158.931 43.663 158.964 43.5832 159.023 43.5243C159.081 43.4655 159.161 43.4324 159.244 43.4324C159.285 43.4324 159.326 43.4406 159.364 43.4564C159.402 43.4722 159.436 43.4954 159.465 43.5246C159.494 43.5538 159.516 43.5884 159.532 43.6265C159.547 43.6645 159.554 43.7053 159.554 43.7463V44.5816C159.554 44.6226 159.547 44.6633 159.532 44.7014C159.516 44.7394 159.494 44.7741 159.465 44.8033C159.436 44.8325 159.402 44.8557 159.364 44.8715C159.326 44.8873 159.285 44.8955 159.244 44.8955Z" fill="#572B92"/>
<path d="M159.244 91.6505C159.161 91.6505 159.081 91.6174 159.023 91.5586C158.964 91.4997 158.931 91.4199 158.931 91.3367V89.6659C158.931 89.5827 158.964 89.5029 159.023 89.444C159.081 89.3852 159.161 89.3521 159.244 89.3521C159.285 89.3521 159.326 89.3602 159.364 89.3761C159.402 89.3919 159.436 89.4151 159.465 89.4443C159.494 89.4735 159.516 89.5081 159.532 89.5462C159.547 89.5842 159.554 89.6249 159.554 89.6659V91.3367C159.554 91.3777 159.547 91.4184 159.532 91.4564C159.516 91.4945 159.494 91.5291 159.465 91.5583C159.436 91.5875 159.402 91.6107 159.364 91.6265C159.326 91.6424 159.285 91.6505 159.244 91.6505ZM159.244 88.309C159.161 88.309 159.081 88.2759 159.023 88.2171C158.964 88.1582 158.931 88.0784 158.931 87.9952V86.3288C158.931 86.2456 158.964 86.1658 159.023 86.1069C159.081 86.0481 159.161 86.015 159.244 86.015C159.285 86.015 159.326 86.0231 159.364 86.039C159.402 86.0548 159.436 86.078 159.465 86.1072C159.494 86.1364 159.516 86.171 159.532 86.2091C159.547 86.2471 159.554 86.2878 159.554 86.3288V87.9819C159.556 88.024 159.55 88.0661 159.536 88.1057C159.521 88.1453 159.499 88.1816 159.47 88.2122C159.441 88.2428 159.406 88.2672 159.367 88.2839C159.328 88.3005 159.287 88.309 159.244 88.309ZM159.244 84.9719C159.161 84.9719 159.081 84.9388 159.023 84.88C158.964 84.8211 158.931 84.7413 158.931 84.6581V82.9873C158.931 82.9041 158.964 82.8242 159.023 82.7654C159.081 82.7065 159.161 82.6735 159.244 82.6735C159.285 82.6735 159.326 82.6816 159.364 82.6974C159.402 82.7133 159.436 82.7365 159.465 82.7657C159.494 82.7949 159.516 82.8295 159.532 82.8675C159.547 82.9056 159.554 82.9463 159.554 82.9873V84.6581C159.554 84.6991 159.547 84.7398 159.532 84.7778C159.516 84.8159 159.494 84.8505 159.465 84.8797C159.436 84.9089 159.402 84.9321 159.364 84.9479C159.326 84.9637 159.285 84.9719 159.244 84.9719ZM159.244 81.6304C159.161 81.6304 159.081 81.5973 159.023 81.5384C158.964 81.4796 158.931 81.3998 158.931 81.3165V79.6458C158.931 79.6048 158.939 79.5642 158.955 79.5263C158.97 79.4885 158.994 79.4542 159.023 79.4254C159.052 79.3966 159.087 79.3739 159.125 79.3586C159.163 79.3434 159.203 79.3358 159.244 79.3364C159.327 79.3364 159.405 79.369 159.463 79.427C159.521 79.485 159.554 79.5637 159.554 79.6458V81.3165C159.554 81.3575 159.547 81.3982 159.532 81.4363C159.516 81.4743 159.494 81.509 159.465 81.5382C159.436 81.5674 159.402 81.5906 159.364 81.6064C159.326 81.6222 159.285 81.6304 159.244 81.6304ZM159.244 78.2933C159.161 78.2933 159.081 78.2602 159.023 78.2013C158.964 78.1425 158.931 78.0627 158.931 77.9794V76.3087C158.931 76.2254 158.964 76.1456 159.023 76.0868C159.081 76.0279 159.161 75.9949 159.244 75.9949C159.285 75.9949 159.326 76.003 159.364 76.0188C159.402 76.0346 159.436 76.0578 159.465 76.087C159.494 76.1162 159.516 76.1509 159.532 76.1889C159.547 76.227 159.554 76.2677 159.554 76.3087V77.9794C159.554 78.0204 159.547 78.0611 159.532 78.0992C159.516 78.1372 159.494 78.1719 159.465 78.2011C159.436 78.2303 159.402 78.2535 159.364 78.2693C159.326 78.2851 159.285 78.2933 159.244 78.2933ZM159.244 74.9517C159.161 74.9517 159.081 74.9187 159.023 74.8598C158.964 74.801 158.931 74.7211 158.931 74.6379V72.9539C158.931 72.8707 158.964 72.7908 159.023 72.732C159.081 72.6731 159.161 72.6401 159.244 72.6401C159.285 72.6401 159.326 72.6482 159.364 72.664C159.402 72.6799 159.436 72.7031 159.465 72.7323C159.494 72.7615 159.516 72.7961 159.532 72.8341C159.547 72.8722 159.554 72.9129 159.554 72.9539V74.6247C159.556 74.6667 159.55 74.7089 159.536 74.7485C159.521 74.7881 159.499 74.8243 159.47 74.855C159.441 74.8856 159.406 74.91 159.367 74.9266C159.328 74.9433 159.287 74.9518 159.244 74.9517ZM159.244 71.6102C159.203 71.6108 159.163 71.6032 159.125 71.5879C159.087 71.5727 159.052 71.55 159.023 71.5212C158.994 71.4924 158.97 71.4581 158.955 71.4203C158.939 71.3824 158.931 71.3418 158.931 71.3008V69.6301C158.931 69.5468 158.964 69.467 159.023 69.4082C159.081 69.3493 159.161 69.3162 159.244 69.3162C159.285 69.3162 159.326 69.3244 159.364 69.3402C159.402 69.356 159.436 69.3792 159.465 69.4084C159.494 69.4376 159.516 69.4722 159.532 69.5103C159.547 69.5483 159.554 69.5891 159.554 69.6301V71.3008C159.556 71.3429 159.55 71.3851 159.536 71.4247C159.521 71.4643 159.499 71.5005 159.47 71.5311C159.441 71.5617 159.406 71.5861 159.367 71.6028C159.328 71.6194 159.287 71.628 159.244 71.6279V71.6102ZM159.244 68.2731C159.161 68.2731 159.081 68.2401 159.023 68.1812C158.964 68.1223 158.931 68.0425 158.931 67.9593V66.2885C158.931 66.2053 158.964 66.1255 159.023 66.0666C159.081 66.0078 159.161 65.9747 159.244 65.9747C159.285 65.9747 159.326 65.9829 159.364 65.9987C159.402 66.0145 159.436 66.0377 159.465 66.0669C159.494 66.0961 159.516 66.1307 159.532 66.1688C159.547 66.2068 159.554 66.2475 159.554 66.2885V67.9593C159.554 68.0003 159.547 68.041 159.532 68.0791C159.516 68.1171 159.494 68.1517 159.465 68.1809C159.436 68.2101 159.402 68.2333 159.364 68.2491C159.326 68.265 159.285 68.2731 159.244 68.2731ZM159.244 64.9316C159.203 64.9316 159.162 64.9235 159.124 64.9077C159.086 64.8919 159.052 64.8688 159.023 64.8397C158.993 64.8105 158.97 64.7759 158.955 64.7379C158.939 64.6998 158.931 64.659 158.931 64.6178V62.9514C158.931 62.8682 158.964 62.7884 159.023 62.7295C159.081 62.6707 159.161 62.6376 159.244 62.6376C159.285 62.6376 159.326 62.6458 159.364 62.6616C159.402 62.6774 159.436 62.7006 159.465 62.7298C159.494 62.759 159.516 62.7936 159.532 62.8317C159.547 62.8697 159.554 62.9104 159.554 62.9514V64.6178C159.554 64.6588 159.547 64.6995 159.532 64.7375C159.516 64.7756 159.494 64.8102 159.465 64.8394C159.436 64.8686 159.402 64.8918 159.364 64.9076C159.326 64.9235 159.285 64.9316 159.244 64.9316ZM159.244 61.5945C159.161 61.5945 159.081 61.5614 159.023 61.5026C158.964 61.4437 158.931 61.3639 158.931 61.2807V59.6099C158.931 59.5267 158.964 59.4469 159.023 59.388C159.081 59.3292 159.161 59.2961 159.244 59.2961C159.285 59.2961 159.326 59.3042 159.364 59.3201C159.402 59.3359 159.436 59.3591 159.465 59.3883C159.494 59.4175 159.516 59.4521 159.532 59.4902C159.547 59.5282 159.554 59.5689 159.554 59.6099V61.2807C159.554 61.3217 159.547 61.3624 159.532 61.4004C159.516 61.4385 159.494 61.4731 159.465 61.5023C159.436 61.5315 159.402 61.5547 159.364 61.5705C159.326 61.5864 159.285 61.5945 159.244 61.5945ZM159.244 58.253C159.161 58.253 159.081 58.2199 159.023 58.1611C158.964 58.1022 158.931 58.0224 158.931 57.9392V56.2684C158.931 56.2274 158.939 56.1868 158.955 56.149C158.97 56.1111 158.994 56.0768 159.023 56.048C159.052 56.0193 159.087 55.9966 159.125 55.9813C159.163 55.966 159.203 55.9584 159.244 55.959C159.327 55.959 159.405 55.9916 159.463 56.0496C159.521 56.1076 159.554 56.1863 159.554 56.2684V57.9259C159.556 57.968 159.55 58.0101 159.536 58.0497C159.521 58.0893 159.499 58.1256 159.47 58.1562C159.441 58.1868 159.406 58.2112 159.367 58.2279C159.328 58.2445 159.287 58.253 159.244 58.253ZM159.244 54.9159C159.161 54.9159 159.081 54.8828 159.023 54.824C158.964 54.7651 158.931 54.6853 158.931 54.6021V52.9313C158.931 52.8481 158.964 52.7682 159.023 52.7094C159.081 52.6505 159.161 52.6175 159.244 52.6175C159.285 52.6175 159.326 52.6256 159.364 52.6414C159.402 52.6573 159.436 52.6805 159.465 52.7097C159.494 52.7389 159.516 52.7735 159.532 52.8115C159.547 52.8496 159.554 52.8903 159.554 52.9313V54.6021C159.554 54.6431 159.547 54.6838 159.532 54.7218C159.516 54.7599 159.494 54.7945 159.465 54.8237C159.436 54.8529 159.402 54.8761 159.364 54.8919C159.326 54.9077 159.285 54.9159 159.244 54.9159ZM159.244 51.5744C159.161 51.5744 159.081 51.5413 159.023 51.4824C158.964 51.4236 158.931 51.3438 158.931 51.2605V49.5898C158.931 49.5065 158.964 49.4267 159.023 49.3679C159.081 49.309 159.161 49.276 159.244 49.276C159.285 49.276 159.326 49.2841 159.364 49.2999C159.402 49.3157 159.436 49.3389 159.465 49.3681C159.494 49.3973 159.516 49.432 159.532 49.47C159.547 49.5081 159.554 49.5488 159.554 49.5898V51.2605C159.554 51.3015 159.547 51.3422 159.532 51.3803C159.516 51.4183 159.494 51.453 159.465 51.4822C159.436 51.5114 159.402 51.5346 159.364 51.5504C159.326 51.5662 159.285 51.5744 159.244 51.5744ZM159.244 48.2328C159.203 48.2334 159.163 48.2259 159.125 48.2106C159.087 48.1953 159.052 48.1726 159.023 48.1438C158.994 48.115 158.97 48.0807 158.955 48.0429C158.939 48.005 158.931 47.9644 158.931 47.9234V46.2527C158.931 46.1694 158.964 46.0896 159.023 46.0308C159.081 45.9719 159.161 45.9389 159.244 45.9389C159.285 45.9389 159.326 45.947 159.364 45.9628C159.402 45.9787 159.436 46.0018 159.465 46.031C159.494 46.0602 159.516 46.0949 159.532 46.1329C159.547 46.171 159.554 46.2117 159.554 46.2527V47.9234C159.554 47.9641 159.546 48.0043 159.53 48.0418C159.515 48.0794 159.492 48.1135 159.463 48.1422C159.435 48.1709 159.4 48.1937 159.363 48.2093C159.325 48.2248 159.285 48.2328 159.244 48.2328Z" fill="#572B92"/>
<path d="M159.244 94.1698C159.203 94.1704 159.163 94.1628 159.125 94.1475C159.087 94.1323 159.052 94.1096 159.023 94.0808C158.994 94.052 158.97 94.0177 158.955 93.9798C158.939 93.942 158.931 93.9014 158.931 93.8604V93.025C158.931 92.9418 158.964 92.862 159.023 92.8031C159.081 92.7443 159.161 92.7112 159.244 92.7112C159.285 92.7112 159.326 92.7194 159.364 92.7352C159.402 92.751 159.436 92.7742 159.465 92.8034C159.494 92.8326 159.516 92.8672 159.532 92.9053C159.547 92.9433 159.554 92.984 159.554 93.025V93.8604C159.554 93.9425 159.521 94.0212 159.463 94.0792C159.405 94.1372 159.327 94.1698 159.244 94.1698Z" fill="#572B92"/>
<path d="M167.134 73.6124C167.076 73.6132 167.019 73.5973 166.97 73.5668C166.92 73.5362 166.881 73.4923 166.856 73.44C166.837 73.4033 166.825 73.3631 166.822 73.322C166.819 73.2808 166.825 73.2394 166.838 73.2003C166.851 73.1611 166.872 73.125 166.899 73.0941C166.926 73.0632 166.96 73.038 166.997 73.0201L167.744 72.6489C167.781 72.6306 167.82 72.6197 167.861 72.6168C167.902 72.6139 167.943 72.619 167.982 72.632C168.02 72.6449 168.056 72.6653 168.087 72.6921C168.118 72.7189 168.143 72.7515 168.162 72.7881C168.18 72.8247 168.191 72.8645 168.194 72.9053C168.197 72.946 168.191 72.987 168.179 73.0258C168.166 73.0646 168.145 73.1004 168.118 73.1313C168.092 73.1622 168.059 73.1875 168.022 73.2058L167.275 73.5815C167.231 73.6027 167.183 73.6133 167.134 73.6124Z" fill="#572B92"/>
<path d="M163.456 75.4425C163.398 75.4432 163.341 75.4273 163.292 75.3968C163.243 75.3663 163.203 75.3223 163.178 75.2701C163.156 75.2324 163.141 75.1903 163.136 75.1467C163.131 75.1031 163.136 75.059 163.149 75.0172C163.162 74.9753 163.184 74.9369 163.214 74.9043C163.243 74.8717 163.279 74.8457 163.319 74.8281L165.158 73.9131C165.196 73.8913 165.238 73.8777 165.281 73.873C165.325 73.8684 165.369 73.8729 165.41 73.8862C165.452 73.8995 165.49 73.9214 165.523 73.9504C165.556 73.9793 165.582 74.0148 165.6 74.0546C165.622 74.0924 165.636 74.1344 165.64 74.1779C165.645 74.2213 165.64 74.2652 165.627 74.3068C165.614 74.3484 165.592 74.3868 165.563 74.4195C165.534 74.4521 165.498 74.4784 165.459 74.4966L163.598 75.4115C163.554 75.4327 163.505 75.4433 163.456 75.4425Z" fill="#572B92"/>
<path d="M160.871 76.728C160.813 76.7287 160.756 76.7129 160.706 76.6824C160.657 76.6518 160.618 76.6079 160.592 76.5556C160.57 76.5179 160.556 76.4759 160.551 76.4323C160.546 76.3887 160.55 76.3445 160.563 76.3027C160.577 76.2609 160.599 76.2224 160.628 76.1898C160.658 76.1572 160.694 76.1313 160.734 76.1136L161.481 75.7424C161.519 75.7206 161.561 75.7069 161.604 75.7023C161.647 75.6976 161.691 75.7021 161.733 75.7154C161.775 75.7287 161.813 75.7506 161.846 75.7796C161.878 75.8086 161.905 75.8441 161.923 75.8838C161.96 75.9583 161.965 76.0443 161.939 76.123C161.912 76.2017 161.856 76.2667 161.781 76.3037L161.034 76.675C160.986 76.7075 160.929 76.7259 160.871 76.728Z" fill="#572B92"/>
<path d="M149.299 54.0807C149.246 54.0811 149.193 54.0674 149.147 54.0411C149.1 54.0147 149.061 53.9765 149.034 53.9304L148.592 53.2144C148.568 53.1792 148.552 53.1394 148.544 53.0975C148.536 53.0557 148.537 53.0127 148.547 52.9712C148.556 52.9297 148.574 52.8906 148.6 52.8564C148.625 52.8222 148.657 52.7936 148.694 52.7724C148.73 52.7499 148.77 52.7348 148.812 52.728C148.853 52.7211 148.896 52.7227 148.937 52.7326C148.978 52.7424 149.017 52.7604 149.051 52.7855C149.085 52.8105 149.114 52.8421 149.136 52.8785L149.578 53.5945C149.607 53.6418 149.624 53.6963 149.625 53.7521C149.626 53.8078 149.612 53.8629 149.584 53.9113C149.556 53.9598 149.516 53.9999 149.468 54.0274C149.419 54.0549 149.364 54.0687 149.308 54.0674L149.299 54.0807Z" fill="#572B92"/>
<path d="M156.159 65.4002C156.105 65.4005 156.052 65.3868 156.005 65.3605C155.958 65.3342 155.918 65.2961 155.89 65.2499L155.032 63.8355C155.008 63.8004 154.992 63.7608 154.984 63.7191C154.976 63.6773 154.976 63.6344 154.985 63.5929C154.994 63.5514 155.011 63.5121 155.036 63.4774C155.06 63.4428 155.092 63.4135 155.128 63.3913C155.164 63.3692 155.205 63.3546 155.247 63.3485C155.289 63.3424 155.332 63.3449 155.373 63.3558C155.414 63.3668 155.452 63.3859 155.485 63.4122C155.519 63.4384 155.547 63.4712 155.567 63.5084L156.425 64.9228C156.447 64.9587 156.462 64.9987 156.469 65.0405C156.476 65.0822 156.474 65.125 156.464 65.1661C156.454 65.2073 156.436 65.246 156.411 65.2802C156.386 65.3143 156.355 65.3431 156.318 65.3648C156.27 65.391 156.215 65.4033 156.159 65.4002ZM154.444 62.5714C154.39 62.5717 154.337 62.558 154.29 62.5317C154.243 62.5054 154.203 62.4673 154.175 62.4211L153.317 61.0067C153.295 60.9708 153.28 60.9309 153.273 60.8891C153.266 60.8473 153.268 60.8046 153.277 60.7634C153.287 60.7223 153.305 60.6835 153.33 60.6494C153.355 60.6152 153.387 60.5865 153.423 60.5647C153.459 60.5416 153.499 60.526 153.541 60.5188C153.583 60.5117 153.626 60.5131 153.667 60.523C153.708 60.5329 153.747 60.5511 153.781 60.5766C153.815 60.602 153.844 60.634 153.865 60.6708L154.723 62.0852C154.75 62.1328 154.765 62.1867 154.766 62.2418C154.766 62.2968 154.752 62.3509 154.726 62.399C154.699 62.4471 154.66 62.4874 154.613 62.5161C154.566 62.5448 154.513 62.5608 154.458 62.5626L154.444 62.5714ZM152.729 59.7426C152.675 59.7416 152.622 59.7269 152.575 59.6998C152.528 59.6728 152.488 59.6343 152.46 59.5879L151.602 58.1735C151.569 58.1032 151.563 58.0229 151.585 57.9483C151.607 57.8737 151.657 57.8101 151.724 57.7698C151.79 57.7296 151.87 57.7156 151.946 57.7305C152.022 57.7455 152.091 57.7884 152.137 57.8508L152.99 59.252C153.014 59.2872 153.03 59.327 153.038 59.3688C153.046 59.4106 153.045 59.4536 153.036 59.4951C153.026 59.5366 153.008 59.5757 152.983 59.6099C152.958 59.6441 152.925 59.6727 152.889 59.694C152.84 59.7234 152.786 59.7402 152.729 59.7426ZM151.014 56.9094C150.96 56.9093 150.907 56.8954 150.86 56.8691C150.813 56.8428 150.773 56.805 150.745 56.7591L149.887 55.3447C149.866 55.3093 149.852 55.27 149.846 55.2292C149.84 55.1884 149.842 55.1468 149.852 55.1068C149.862 55.0668 149.88 55.0291 149.905 54.996C149.929 54.9629 149.96 54.9349 149.996 54.9137C150.031 54.8926 150.07 54.8785 150.111 54.8725C150.152 54.8665 150.194 54.8686 150.234 54.8786C150.274 54.8887 150.311 54.9065 150.344 54.9311C150.377 54.9557 150.405 54.9866 150.427 55.022L151.284 56.4364C151.314 56.4838 151.33 56.5382 151.331 56.594C151.332 56.6498 151.318 56.7048 151.29 56.7533C151.263 56.8017 151.222 56.8418 151.174 56.8693C151.125 56.8968 151.07 56.9106 151.014 56.9094Z" fill="#572B92"/>
<path d="M157.445 67.5305C157.392 67.53 157.339 67.5155 157.292 67.4883C157.246 67.4612 157.207 67.4224 157.18 67.3758L156.738 66.6642C156.7 66.5934 156.69 66.5105 156.71 66.4327C156.731 66.3548 156.781 66.2879 156.85 66.2458C156.919 66.2038 157.001 66.1898 157.08 66.2068C157.158 66.2238 157.228 66.2704 157.273 66.3371L157.715 67.0531C157.739 67.0886 157.755 67.1286 157.762 67.1707C157.77 67.2127 157.769 67.2558 157.759 67.2973C157.749 67.3388 157.73 67.3778 157.705 67.4119C157.679 67.4459 157.646 67.4743 157.609 67.4951C157.559 67.5217 157.502 67.5339 157.445 67.5305Z" fill="#572B92"/>
<path d="M66.6319 114.718L46.8038 126.445V137.402L36.4521 143.201V149.093L55.6615 160.236L85.8368 143.303V125.861L66.6319 114.718Z" fill="#263238"/>
<path d="M36.4521 143.2L55.6615 154.343V160.235L36.4521 149.092V143.2Z" fill="#455A64"/>
<path d="M66.0088 137.592V148.549L55.6616 154.344V160.236L85.837 143.303V125.861L66.0088 137.592Z" fill="#263238"/>
<path d="M55.6615 154.344L66.0087 148.549L46.8038 137.402L36.4521 143.201L55.6615 154.344Z" fill="#37474F"/>
<path d="M66.0089 148.549V137.592L46.804 126.445V137.402L66.0089 148.549Z" fill="#455A64"/>
<path d="M66.0089 137.592L46.804 126.445L66.6321 114.718L85.837 125.861L66.0089 137.592Z" fill="#37474F"/>
<path d="M71.4497 85.9349C71.4497 85.9349 66.7203 92.5649 69.5315 94.8589C72.3426 97.1529 78.5085 95.3009 78.756 94.2091C79.0035 93.1174 71.4497 85.9349 71.4497 85.9349Z" fill="#263238"/>
<path d="M50.322 143.961L43.3738 153.207L45.3053 154.732C45.3053 154.732 48.0899 154.149 49.0756 150.471C49.6534 148.336 50.0701 146.159 50.322 143.961Z" fill="#FFA8A7"/>
<path d="M50.9499 143.333C50.9499 143.333 52.8814 145.101 52.0284 146.652C51.1753 148.203 49.6946 149.481 49.6504 151.545C49.6062 153.609 48.5719 157.291 46.2824 157.874C43.9928 158.458 41.7519 157.662 41.7961 156.849C41.8403 156.036 43.374 153.207 43.374 153.207C43.374 153.207 45.4779 154.511 47.0293 153.251C48.5808 151.991 48.9388 146.701 48.9388 146.701L50.9499 143.333Z" fill="#572B92"/>
<path opacity="0.2" d="M50.9499 143.333C50.9499 143.333 52.8814 145.101 52.0284 146.652C51.1753 148.203 49.6946 149.481 49.6504 151.545C49.6062 153.609 48.5719 157.291 46.2824 157.874C43.9928 158.458 41.7519 157.662 41.7961 156.849C41.8403 156.036 43.374 153.207 43.374 153.207C43.374 153.207 45.4779 154.511 47.0293 153.251C48.5808 151.991 48.9388 146.701 48.9388 146.701L50.9499 143.333Z" fill="black"/>
<path d="M62.822 114.709C62.822 114.709 47.3255 121.264 46.0702 121.909C44.815 122.554 42.6138 123.677 42.8348 128.729C43.0558 133.781 44.3243 146.294 44.3243 146.294L52.8196 129.94L74.756 119.514L62.822 114.709Z" fill="#572B92"/>
<path opacity="0.5" d="M62.822 114.709C62.822 114.709 47.3255 121.264 46.0702 121.909C44.815 122.554 42.6138 123.677 42.8348 128.729C43.0558 133.781 44.3243 146.294 44.3243 146.294L52.8196 129.94L74.756 119.514L62.822 114.709Z" fill="black"/>
<path d="M43.6921 139.819C44.0192 143.39 44.3154 146.294 44.3154 146.294L52.8106 129.94L68.453 122.493L64.917 119.713C59.918 122.223 52.6559 125.865 50.4857 126.979C47.7276 128.393 46.8745 132.393 44.4966 137.949C44.227 138.559 43.9618 139.178 43.6921 139.819Z" fill="#572B92"/>
<path opacity="0.7" d="M43.6921 139.819C44.0192 143.39 44.3154 146.294 44.3154 146.294L52.8106 129.94L68.453 122.493L64.917 119.713C59.918 122.223 52.6559 125.865 50.4857 126.979C47.7276 128.393 46.8745 132.393 44.4966 137.949C44.227 138.559 43.9618 139.178 43.6921 139.819Z" fill="black"/>
<path d="M64.0996 118.05L65.6996 120.468L64.4488 120.658L64.0996 118.05Z" fill="#572B92"/>
<path opacity="0.7" d="M64.0996 118.05L65.6996 120.468L64.4488 120.658L64.0996 118.05Z" fill="black"/>
<path d="M43.4579 156.849C43.4579 156.849 43.6789 157.221 43.6789 159.09C43.6789 160.96 42.9319 161.353 42.0082 161.667C41.0844 161.981 38.3396 163.992 37.5882 164.867C36.8368 165.742 33.8046 166.635 30.8079 166.114C27.8111 165.592 27.1791 163.612 28.62 162.343C30.0609 161.075 34.1671 158.763 34.1671 158.763L43.4579 156.849Z" fill="#572B92"/>
<path d="M79.3395 118.581L72.6741 117.039C72.6741 117.039 54.1588 126.321 51.4007 127.735C48.6426 129.149 47.794 133.154 45.4072 138.71C43.6392 142.891 41.2833 148.628 39.7407 152.076C39.7407 152.076 40.8369 154.984 44.311 154.255C45.4867 151.687 47.5641 149.393 50.5874 145.309C52.5273 142.786 53.9048 139.878 54.6273 136.778C54.7423 136.227 55.0107 135.719 55.4017 135.313C55.7927 134.907 56.2903 134.62 56.8373 134.484C59.8915 133.742 66.1193 132.129 72.6962 129.866C81.965 126.674 79.3395 118.581 79.3395 118.581Z" fill="#572B92"/>
<path opacity="0.5" d="M79.3395 118.581L72.6741 117.039C72.6741 117.039 54.1588 126.321 51.4007 127.735C48.6426 129.149 47.794 133.154 45.4072 138.71C43.6392 142.891 41.2833 148.628 39.7407 152.076C39.7407 152.076 40.8369 154.984 44.311 154.255C45.4867 151.687 47.5641 149.393 50.5874 145.309C52.5273 142.786 53.9048 139.878 54.6273 136.778C54.7423 136.227 55.0107 135.719 55.4017 135.313C55.7927 134.907 56.2903 134.62 56.8373 134.484C59.8915 133.742 66.1193 132.129 72.6962 129.866C81.965 126.674 79.3395 118.581 79.3395 118.581Z" fill="black"/>
<path d="M39.7405 152.071C39.2322 153.207 38.8123 154.095 38.525 154.595C37.3626 156.615 33.9724 158.803 32.779 159.837C31.5856 160.871 31.3337 161.26 32.474 162.135C35.3603 164.345 37.862 161.932 39.4798 160.367C40.5599 159.376 41.7457 158.506 43.0158 157.773C43.107 157.722 43.1863 157.653 43.2481 157.569C43.31 157.485 43.3528 157.389 43.3738 157.287C43.5529 156.239 43.8695 155.219 44.3152 154.254C40.8367 154.984 39.7405 152.071 39.7405 152.071Z" fill="#FFA8A7"/>
<path d="M72.2721 124.91L60.6166 131.637L41.2349 120.433L52.8904 113.564L72.2721 124.91Z" fill="#37474F"/>
<path d="M61.8672 122.992L57.4958 120.468L60.2362 118.886L64.6121 121.41L61.8672 122.992Z" fill="#263238"/>
<path d="M60.1168 129.958L66.0087 126.488L54.499 119.522L60.1168 129.958Z" fill="#263238"/>
<path d="M60.4619 109.162L55.7988 111.372C54.4059 111.724 53.0324 112.149 51.6838 112.645C51.6838 112.645 48.4395 113.971 48.2892 114.855C48.1389 115.739 50.7246 117.821 52.9921 116.8C53.5899 116.486 54.2279 116.255 54.8883 116.114C56.2669 115.983 57.5699 115.424 58.6143 114.514L62.3846 113.48C62.3846 113.48 64.3294 109.705 60.4619 109.162Z" fill="#FFA8A7"/>
<path d="M57.4428 115.669C56.9036 116.248 55.3654 117.706 55.0295 118.126C54.6936 118.546 53.898 117.463 55.2903 115.85C56.4935 115.408 57.6253 114.791 58.6495 114.02C58.2904 114.6 57.887 115.151 57.4428 115.669Z" fill="#FFA8A7"/>
<path d="M70.0046 92.9497C68.9333 92.7787 67.836 92.9936 66.9083 93.5562C65.9806 94.1188 65.2829 94.9925 64.9393 96.0216C64.4449 97.5072 64.126 99.0455 63.989 100.605C63.5868 105.405 63.4763 107.805 63.4763 107.805L58.6497 110.015C58.6497 110.015 61.2575 110.139 61.0807 113.817L67.0874 112.292L70.0046 92.9497Z" fill="#572B92"/>
<path opacity="0.3" d="M70.0046 92.9497C68.9333 92.7787 67.836 92.9936 66.9083 93.5562C65.9806 94.1188 65.2829 94.9925 64.9393 96.0216C64.4449 97.5072 64.126 99.0455 63.989 100.605C63.5868 105.405 63.4763 107.805 63.4763 107.805L58.6497 110.015C58.6497 110.015 61.2354 110.139 61.0807 113.817L67.0874 112.292L70.0046 92.9497Z" fill="white"/>
<path d="M63.4761 107.805C64.0179 107.974 64.5078 108.278 64.8993 108.689C64.8993 108.689 64.3159 107.584 63.5026 107.244L63.4761 107.805Z" fill="#572B92"/>
<path opacity="0.1" d="M63.4761 107.805C64.0179 107.974 64.5078 108.278 64.8993 108.689C64.8993 108.689 64.3159 107.584 63.5026 107.244L63.4761 107.805Z" fill="white"/>
<path d="M67.8917 82.0499C67.8917 82.0499 64.9127 81.1659 65.9867 77.8023C67.0608 74.4386 74.6588 72.9977 80.3782 77.8023C80.3782 77.8023 84.3916 77.1835 84.3916 82.788C84.3916 88.3926 82.1462 90.9518 85.6027 92.4104C85.6027 92.4104 83.4943 94.4082 81.7882 92.4104C81.7882 92.4104 81.4302 96.7862 74.9637 95.2613L67.8917 82.0499Z" fill="#263238"/>
<path d="M77.6158 94.8591L81.0015 96.3V106.227C79.9416 108.768 79.3674 111.484 79.3087 114.236V119.151C79.3087 119.151 72.387 121.618 67.0211 118.948C64.4221 117.657 62.8132 114.709 62.8132 114.709C62.8132 114.709 65.673 113.025 65.673 110.97C65.6174 109.364 65.4267 107.766 65.1028 106.192C64.4769 105.57 64.0026 104.812 63.7167 103.978C63.4308 103.143 63.3409 102.254 63.4541 101.379C63.8343 98.0989 70.0046 92.9496 70.0046 92.9496L72.303 93.2634L77.6158 94.8591Z" fill="#572B92"/>
<path d="M77.6156 94.8587L72.3027 93.2631V86.832H77.6156V94.8587Z" fill="#FFA8A7"/>
<path d="M72.3027 93.2853C73.385 92.8809 74.3738 92.261 75.2096 91.4633C76.0453 90.6656 76.7104 89.7066 77.1647 88.6443V86.8763H72.3027V93.2853Z" fill="#F28F8F"/>
<path d="M71.065 78.12C71.065 78.12 66.203 78.4029 66.8042 86.7169C67.0826 90.5579 67.9799 92.5469 70.9413 92.4011C74.2916 92.2375 79.052 89.9347 78.7426 83.3577C78.4332 76.7808 71.065 78.12 71.065 78.12Z" fill="#FFA8A7"/>
<path d="M77.616 86.8321C77.616 86.8321 76.29 87.1857 76.29 85.2762C76.29 85.2762 70.3672 84.874 69.0588 78.9954C69.0588 78.9954 69.6423 77.2274 73.3418 77.2274C77.0414 77.2274 80.1442 80.4938 79.1806 84.9889L77.616 86.8321Z" fill="#263238"/>
<path d="M70.3668 85.0465V87.9063L68.6917 87.3935L70.3668 85.0465Z" fill="#F28F8F"/>
<path d="M72.882 85.3512C72.882 85.4668 72.8476 85.5797 72.7833 85.6758C72.719 85.7718 72.6276 85.8466 72.5208 85.8906C72.4139 85.9346 72.2964 85.9459 72.1831 85.9231C72.0698 85.9002 71.9658 85.8442 71.8844 85.7621C71.803 85.6801 71.7478 85.5757 71.7258 85.4623C71.7038 85.3488 71.7159 85.2313 71.7608 85.1248C71.8056 85.0183 71.8811 84.9275 71.9776 84.8639C72.0741 84.8003 72.1874 84.7669 72.3029 84.7677C72.3794 84.7677 72.455 84.7829 72.5256 84.8122C72.5961 84.8416 72.6601 84.8846 72.714 84.9389C72.7678 84.9931 72.8103 85.0575 72.8392 85.1282C72.868 85.199 72.8826 85.2748 72.882 85.3512Z" fill="#263238"/>
<path d="M69.0541 84.9448C69.0549 85.0606 69.0214 85.174 68.9576 85.2706C68.8938 85.3673 68.8027 85.4427 68.696 85.4874C68.5892 85.5321 68.4715 85.5441 68.3579 85.5217C68.2443 85.4993 68.1399 85.4437 68.0581 85.3618C67.9762 85.2799 67.9206 85.1756 67.8982 85.062C67.8758 84.9484 67.8878 84.8307 67.9325 84.7239C67.9772 84.6172 68.0526 84.5261 68.1493 84.4623C68.2459 84.3985 68.3593 84.365 68.475 84.3658C68.6283 84.367 68.7749 84.4284 68.8832 84.5367C68.9915 84.645 69.0529 84.7916 69.0541 84.9448Z" fill="#263238"/>
<path d="M67.7637 83.7336L68.9041 83.0574C68.9041 83.0574 68.4621 82.6154 68.0201 82.8762C67.8963 82.9769 67.8056 83.1125 67.7599 83.2654C67.7142 83.4184 67.7155 83.5815 67.7637 83.7336Z" fill="#263238"/>
<path d="M70.5129 88.8653C71.1765 88.9129 71.8368 88.7354 72.387 88.3614C72.387 88.3614 72.5152 89.3515 71.6887 89.5371C71.4452 89.5788 71.1948 89.5346 70.9803 89.4121C70.7658 89.2895 70.6006 89.0962 70.5129 88.8653Z" fill="#F28F8F"/>
<path d="M77.1471 87.0489C77.1268 86.5653 77.2159 86.0833 77.4079 85.6389C77.5007 85.3618 77.6729 85.118 77.9032 84.9381C78.1335 84.7581 78.4116 84.6498 78.703 84.6268C80.1925 84.587 80.3958 86.0235 80.3737 86.5362C80.3207 87.8622 79.2334 89.3296 77.209 89.3871L77.1471 87.0489Z" fill="#FFA8A7"/>
<path d="M72.3029 93.2856L70.7338 95.3232C70.5576 95.5526 70.4336 95.8176 70.3705 96.0999C70.3074 96.3821 70.3068 96.6748 70.3687 96.9573C70.4306 97.2398 70.5535 97.5054 70.7288 97.7354C70.9041 97.9655 71.1276 98.1544 71.3835 98.2891C72.0792 98.653 72.8798 98.7638 73.6482 98.6025C74.4166 98.4413 75.1051 98.018 75.5958 97.4051L77.6157 94.8812L72.3029 93.2856Z" fill="#FFA8A7"/>
<path d="M72.2719 117.772L67.8519 120.19C67.1722 120.14 66.4896 120.14 65.8099 120.19C65.0231 120.287 62.9369 120.668 62.3976 120.69C61.8584 120.712 62.3755 121.72 63.7899 121.631C63.7899 121.631 60.6031 123.09 60.4882 123.965C60.3733 124.84 63.043 126.829 65.2706 125.733C65.8525 125.394 66.4788 125.138 67.1315 124.973C68.5054 124.778 69.7846 124.16 70.7912 123.205L74.5173 122.011C74.5173 122.011 76.1527 118.153 72.2719 117.772Z" fill="#FFA8A7"/>
<path d="M81.0015 96.2995C81.0015 96.2995 78.292 98.1471 78.7561 103.893C79.026 107.369 79.026 110.861 78.7561 114.338L72.2676 117.772C72.9636 118.235 73.5312 118.866 73.9176 119.607C74.304 120.348 74.4966 121.175 74.4776 122.011C74.4776 122.011 83.7949 120.092 84.3519 117.922C84.9088 115.752 85.1121 105.369 85.1121 103.566C85.1121 101.763 84.3872 97.7404 81.0015 96.2995Z" fill="#572B92"/>
<path opacity="0.3" d="M81.0015 96.2995C81.0015 96.2995 78.292 98.1471 78.7561 103.893C79.026 107.369 79.026 110.861 78.7561 114.338L72.2676 117.772C72.9636 118.235 73.5312 118.866 73.9176 119.607C74.304 120.348 74.4966 121.175 74.4776 122.011C74.4776 122.011 83.7949 120.092 84.3519 117.922C84.9088 115.752 85.1121 105.369 85.1121 103.566C85.1121 101.763 84.3872 97.7404 81.0015 96.2995Z" fill="white"/>
<path d="M78.7605 114.338C79.4744 114.323 80.184 114.452 80.8467 114.718C80.2505 114.255 79.5463 113.951 78.8003 113.834L78.7605 114.338Z" fill="#572B92"/>
<path opacity="0.1" d="M78.7605 114.338C79.4744 114.323 80.184 114.452 80.8467 114.718C80.2505 114.255 79.5463 113.951 78.8003 113.834L78.7605 114.338Z" fill="white"/>
<path d="M38.5342 107.588L40.5586 120.848C40.5565 120.856 40.5565 120.863 40.5586 120.871L60.6917 132.548C60.6966 132.551 60.7021 132.552 60.7076 132.551C60.7131 132.551 60.7184 132.549 60.7229 132.546C60.7274 132.543 60.7309 132.538 60.7332 132.533C60.7355 132.528 60.7364 132.523 60.7359 132.517L58.769 119.651C58.727 119.379 58.6261 119.119 58.4734 118.89C58.3208 118.661 58.1199 118.468 57.885 118.325L39.4271 106.987C39.3306 106.926 39.2185 106.895 39.1044 106.896C38.9903 106.898 38.8791 106.933 38.7845 106.997C38.6898 107.06 38.6157 107.15 38.5713 107.255C38.5269 107.36 38.514 107.476 38.5342 107.588Z" fill="#455A64"/>
<path d="M60.7049 132.552L71.4543 126.325C71.7024 126.181 71.9084 125.975 72.0519 125.727C72.1953 125.478 72.2712 125.197 72.272 124.91L60.6121 131.638L60.7049 132.552Z" fill="#263238"/>
<path d="M50.1807 120.371C50.1807 121.321 49.5177 121.697 48.6956 121.228C48.2633 120.946 47.9036 120.567 47.6455 120.12C47.3875 119.673 47.2385 119.171 47.2104 118.656C47.2104 117.71 47.8779 117.33 48.6956 117.798C49.1281 118.08 49.488 118.46 49.7461 118.907C50.0041 119.354 50.153 119.855 50.1807 120.371Z" fill="#37474F"/>
<path opacity="0.2" d="M70.0044 106.903C70.0044 106.903 74.0664 108.008 76.2233 104.959C76.2233 104.959 74.8266 108.897 70.0044 106.903Z" fill="black"/>
</svg>
