<svg width="595" height="443" viewBox="0 0 595 443" fill="none" xmlns="http://www.w3.org/2000/svg">
<path d="M297.5 442.692C424.928 442.692 528.229 436.661 528.229 429.221C528.229 421.781 424.928 415.75 297.5 415.75C170.071 415.75 66.7705 421.781 66.7705 429.221C66.7705 436.661 170.071 442.692 297.5 442.692Z" fill="#F5F5F5"/>
<path d="M293.93 47.2194L456.603 15.0894C457.63 14.8758 458.69 14.8784 459.716 15.0968C460.742 15.3153 461.711 15.7449 462.561 16.3583C463.412 16.9717 464.126 17.7554 464.657 18.6597C465.188 19.5639 465.525 20.5689 465.647 21.6106L494.636 303.058C494.73 304.092 494.607 305.135 494.277 306.119C493.946 307.104 493.414 308.009 492.714 308.777C492.015 309.545 491.163 310.159 490.213 310.579C489.264 311 488.237 311.219 487.198 311.221L293.93 313.875V47.2194Z" fill="#F4CD49"/>
<path d="M293.347 47.9928C293.347 47.9928 403.493 23.1694 451.415 26.0492L474.643 297.94C474.643 297.94 438.182 288.42 403.243 295.084C367.317 301.927 293.335 313.874 293.335 313.874L293.347 47.9928Z" fill="#F4CD49"/>
<path opacity="0.7" d="M293.347 47.9928C293.347 47.9928 403.493 23.1694 451.415 26.0492L474.643 297.94C474.643 297.94 438.182 288.42 403.243 295.084C367.317 301.927 293.335 313.874 293.335 313.874L293.347 47.9928Z" fill="white"/>
<path d="M307.878 42.0665C307.878 42.0665 367.77 17.255 405.696 15.1011L443.871 12.9353L465.588 288.539C465.588 288.539 430.019 274.093 393.546 283.042C357.072 291.99 310.174 307.544 294.145 313.315V47.124L307.878 42.0665Z" fill="#F4CD49"/>
<path opacity="0.8" d="M308.08 42.0665C308.08 42.0665 367.985 17.255 405.91 15.1011L444.097 12.9353L465.814 288.539C465.814 288.539 430.233 274.093 393.772 283.042C357.31 291.99 310.4 307.544 294.371 313.315V47.124L308.08 42.0665Z" fill="white"/>
<path d="M294.157 47.2192L135.09 15.0892C134.074 14.8847 133.028 14.8947 132.017 15.1186C131.006 15.3426 130.053 15.7755 129.219 16.3897C128.385 17.0038 127.689 17.7855 127.175 18.6846C126.662 19.5837 126.342 20.5803 126.236 21.6104L97.9021 303.081C97.7999 304.104 97.9109 305.136 98.2283 306.113C98.5456 307.091 99.0624 307.991 99.7458 308.759C100.429 309.526 101.264 310.143 102.199 310.571C103.133 310.999 104.146 311.228 105.173 311.244L294.169 313.874L294.157 47.2192Z" fill="#F4CD49"/>
<path d="M294.157 47.2193C294.157 47.2193 191.591 9.68668 143.991 6.86638L119.857 296.679C119.857 296.679 156.962 286.814 191.495 294.156C226.029 301.498 294.169 313.874 294.169 313.874L294.157 47.2193Z" fill="#F4CD49"/>
<path opacity="0.6" d="M294.157 47.2193C294.157 47.2193 191.591 9.68668 143.991 6.86638L119.857 296.679C119.857 296.679 156.962 286.814 191.495 294.156C226.029 301.498 294.169 313.874 294.169 313.874L294.157 47.2193Z" fill="white"/>
<path d="M282.566 40.9599C282.566 40.9599 225.708 11.0195 189.889 5.66446L153.963 0.297562L133.625 272.189C133.625 272.189 167.005 261.288 201.36 273.76C235.716 286.231 280.376 306.485 295.644 313.874V47.2193L282.566 40.9599Z" fill="#F4CD49"/>
<path opacity="0.7" d="M282.566 40.9599C282.566 40.9599 225.708 11.0195 189.889 5.66446L153.963 0.297562L133.625 272.189C133.625 272.189 167.005 261.288 201.36 273.76C235.716 286.231 280.376 306.485 295.644 313.874V47.2193L282.566 40.9599Z" fill="white"/>
<path d="M321.681 127.33V126.497C321.681 118.429 321.479 110.23 321.265 102.304C321.074 95.2477 320.872 87.953 320.848 80.7773V80.3608L321.241 80.218C336.492 74.5577 352.06 69.7897 367.865 65.938L368.567 65.7714V66.4973C368.996 75.1724 369.281 83.9903 369.543 92.5226C369.745 98.8653 369.948 105.434 370.221 111.884V112.36L369.757 112.479C352.395 116.858 336.092 122.32 322.443 127.092L321.681 127.33ZM322.038 81.1938C322.038 88.2267 322.264 95.3548 322.455 102.269C322.657 109.932 322.871 117.846 322.871 125.652C336.271 120.987 352.133 115.692 369.031 111.372C368.769 105.077 368.579 98.6749 368.377 92.4869C368.115 84.1569 367.853 75.6365 367.437 67.1994C352.048 70.9995 336.89 75.6799 322.038 81.2176V81.1938Z" fill="#F4CD49"/>
<path d="M348.671 90.6661C347.952 90.9016 347.322 91.3518 346.867 91.956C346.411 92.5603 346.152 93.2896 346.124 94.0457C346.124 95.3785 346.195 96.0568 346.231 97.4015C347.087 96.9705 347.836 96.3523 348.421 95.5927C348.631 95.2311 348.741 94.8207 348.742 94.4027C348.756 94.2134 348.835 94.0347 348.965 93.8962C349.095 93.7577 349.268 93.6677 349.456 93.6411L352.205 93.2722C352.343 93.2317 352.488 93.2237 352.629 93.2488C352.77 93.2738 352.904 93.3313 353.019 93.4166C353.134 93.5019 353.228 93.6128 353.293 93.7405C353.359 93.8683 353.393 94.0094 353.395 94.1528C353.395 94.9382 353.395 95.3428 353.395 96.1163C353.359 96.5226 353.194 96.9068 352.924 97.2129C352.654 97.5189 352.294 97.7309 351.896 97.818C349.42 98.3535 348.326 98.5915 346.124 99.0794C346.085 99.8155 346.338 100.537 346.828 101.088C347.319 101.638 348.006 101.973 348.742 102.019C351.765 102.245 353.502 102.328 356.953 102.542C361.963 101.959 364.688 101.638 369.246 101.483C369.139 98.1512 369.091 96.5209 368.996 93.3079C366.378 88.6193 364.974 86.5011 362.141 82.1933C361.766 81.5467 361.238 81.0023 360.603 80.608C359.968 80.2137 359.246 79.9817 358.5 79.9323C357.232 78.745 355.561 78.0818 353.823 78.0759H353.657C352.02 77.522 350.261 77.4314 348.575 77.8141C348.398 77.8632 348.236 77.9568 348.105 78.0859C347.974 78.215 347.878 78.3754 347.826 78.5519C347.73 78.7449 347.676 78.9557 347.667 79.1707C347.658 79.3858 347.693 79.6004 347.772 79.8009C347.85 80.0014 347.97 80.1834 348.122 80.3351C348.275 80.4868 348.458 80.6049 348.659 80.682C349.777 81.0866 351.907 83.5023 353.324 85.1326C354.197 86.1249 354.893 87.2601 355.382 88.4884C352.574 89.3928 351.182 89.845 348.671 90.6661Z" fill="#263238"/>
<path d="M341.412 91.392C341.31 91.4372 341.195 91.4414 341.091 91.4037C340.987 91.366 340.901 91.2892 340.852 91.1897C340.426 89.9917 339.816 88.8676 339.043 87.8577C338.978 87.7261 338.962 87.5752 338.999 87.4329C339.036 87.2906 339.124 87.1667 339.246 87.0841C339.348 86.9817 339.487 86.9241 339.633 86.9241C339.778 86.9241 339.917 86.9817 340.019 87.0841C340.828 88.171 341.466 89.3748 341.911 90.6541C341.943 90.7991 341.924 90.9507 341.857 91.083C341.789 91.2153 341.678 91.3203 341.542 91.38L341.412 91.392Z" fill="#263238"/>
<path d="M341.531 98.6511C341.36 99.7296 340.775 100.699 339.901 101.352C338.365 102.542 336.331 102.661 335.521 101.531C335.426 101.393 335.346 101.246 335.283 101.091C335.116 100.371 335.176 99.6168 335.455 98.9326C335.734 98.2484 336.219 97.6678 336.842 97.2707C337.631 96.615 338.638 96.2795 339.663 96.3306C339.956 96.3445 340.242 96.4232 340.502 96.561C340.761 96.6989 340.986 96.8925 341.162 97.1279C341.22 97.2026 341.272 97.2822 341.317 97.3659C341.506 97.766 341.58 98.2111 341.531 98.6511Z" fill="white"/>
<path d="M341.53 98.6511C341.36 99.7296 340.775 100.699 339.9 101.352C338.365 102.542 336.33 102.661 335.521 101.531C335.425 101.393 335.346 101.246 335.283 101.091C335.37 100.545 335.564 100.023 335.854 99.5529C336.144 99.0831 336.524 98.6755 336.973 98.3536C338.543 97.1636 340.471 97.0803 341.292 98.2108C341.39 98.3468 341.47 98.4948 341.53 98.6511Z" fill="#263238"/>
<path d="M347.826 97.9966C347.676 99.025 347.145 99.9594 346.339 100.615C344.994 101.721 343.197 101.709 342.4 100.555C342.308 100.417 342.232 100.27 342.174 100.115C342.031 99.5979 342.021 99.0536 342.144 98.5317C342.266 98.0098 342.518 97.5271 342.876 97.1278C343.356 96.5113 343.993 96.0347 344.72 95.7475C345.194 95.5027 345.74 95.4389 346.257 95.5682C346.774 95.6974 347.226 96.0108 347.529 96.4496C347.801 96.9165 347.905 97.4621 347.826 97.9966Z" fill="white"/>
<path d="M347.825 97.9965C347.676 99.0249 347.145 99.9594 346.338 100.615C344.993 101.721 343.196 101.709 342.399 100.555C342.307 100.417 342.231 100.27 342.173 100.115C342.333 99.0539 342.901 98.0975 343.756 97.4491C345.207 96.2591 346.897 96.3543 347.623 97.5443C347.707 97.6869 347.775 97.8386 347.825 97.9965Z" fill="#263238"/>
<path d="M345.41 92.8201C345.324 93.379 345.124 93.9141 344.82 94.3914C344.517 94.8687 344.118 95.2778 343.649 95.5928C342.125 96.6519 340.257 96.5566 339.543 95.3428C339.492 95.2552 339.449 95.1637 339.412 95.0692C339.238 94.3178 339.312 93.5302 339.624 92.8245C339.935 92.1187 340.466 91.5327 341.138 91.1541C342.732 90.0593 344.529 90.214 345.184 91.4635C345.391 91.8836 345.47 92.3555 345.41 92.8201Z" fill="white"/>
<path d="M343.649 95.569C342.125 96.6281 340.257 96.5329 339.543 95.3191C339.492 95.2315 339.449 95.1399 339.412 95.0454C339.507 94.4701 339.722 93.9211 340.041 93.4334C340.361 92.9457 340.779 92.5301 341.269 92.2132C342.851 91.1303 344.636 91.285 345.291 92.5226C345.335 92.6116 345.375 92.703 345.41 92.7963C345.324 93.3553 345.124 93.8904 344.82 94.3677C344.517 94.845 344.118 95.2541 343.649 95.569Z" fill="#263238"/>
<path d="M340.174 90.8683C340.18 90.9118 340.18 90.9558 340.174 90.9992C339.972 92.7961 336.7 95.0333 332.689 96.1519C330.732 96.6978 328.644 96.516 326.811 95.6402C326.349 95.4307 325.913 95.1671 325.514 94.8548C325.514 94.8548 328.846 90.4994 332.927 89.4165C333.48 89.2671 334.04 89.1479 334.605 89.0595C335.153 88.9796 335.706 88.9319 336.259 88.9167C338.627 88.8572 340.21 89.5831 340.174 90.8683Z" fill="#F4CD49"/>
<g opacity="0.2">
<path d="M332.676 96.1522C330.72 96.6981 328.631 96.5163 326.798 95.6405C328.615 93.4631 330.988 91.8183 333.664 90.8805C336.532 90.107 338.995 90.2141 340.162 90.9638C339.959 92.8202 336.687 95.0336 332.676 96.1522Z" fill="black"/>
</g>
<path d="M352.729 78.0641C352.673 78.6656 352.574 79.2622 352.431 79.8491C351.929 82.1721 350.839 84.3273 349.266 86.1085C346.434 89.143 343.471 90.7257 342.031 90.095C341.926 90.0586 341.828 90.002 341.745 89.9284C340.864 89.2144 341.293 87.3223 342.685 85.1684C343.048 84.5705 343.445 83.9944 343.875 83.4429C344.22 83.0264 344.577 82.598 344.97 82.1696C347.088 80.0566 349.79 78.6266 352.729 78.0641Z" fill="#F4CD49"/>
<g opacity="0.2">
<path d="M352.431 79.8491C351.929 82.1721 350.839 84.3273 349.265 86.1085C346.433 89.143 343.47 90.7257 342.03 90.095C342.102 88.548 343.482 86.0728 345.695 83.6809C347.544 81.8072 349.875 80.4811 352.431 79.8491Z" fill="black"/>
</g>
<path d="M339.15 87.5126C338.686 88.7026 336.354 89.5951 333.938 89.4285C333.183 89.3182 332.468 89.018 331.86 88.5559C331.252 88.0939 330.772 87.4851 330.463 86.7867C330.463 86.7867 333.248 84.6209 335.652 84.847C338.056 85.0731 339.638 86.275 339.15 87.5126Z" fill="#F4CD49"/>
<path d="M339.757 87.1558C340.852 87.4533 342.768 85.7992 344.077 83.3597C344.842 81.7395 345.002 79.8993 344.529 78.1712C342.729 79.0641 341.213 80.4403 340.15 82.1458C338.829 84.6567 338.651 86.8702 339.757 87.1558Z" fill="#F4CD49"/>
<path d="M355.454 104.423C354.934 105.069 354.382 105.689 353.799 106.279C352.098 108.028 349.17 110.563 346.659 111.253C342.721 112.324 338.401 111.872 338.115 109.623C338.109 109.548 338.109 109.472 338.115 109.397C338.115 106.945 342.423 103.59 346.695 102.388C350.967 101.186 355.454 104.423 355.454 104.423Z" fill="#F4CD49"/>
<g opacity="0.2">
<path d="M353.8 106.279C352.098 108.028 349.171 110.563 346.66 111.253C342.721 112.324 338.401 111.872 338.116 109.623C340.177 107.214 342.906 105.471 345.958 104.613C349.183 103.673 352.384 105.363 353.8 106.279Z" fill="black"/>
</g>
<path d="M336.343 109.575C336.282 109.674 336.21 109.766 336.128 109.849C334.284 112.027 329.75 112.36 326.109 110.515C323.729 109.325 322.908 106.66 322.539 104.887C322.413 104.279 322.337 103.662 322.313 103.042C322.312 103.042 328.203 100.424 332.178 102.138C336.152 103.851 338.044 107.16 336.343 109.575Z" fill="#F4CD49"/>
<g opacity="0.2">
<path d="M336.128 109.849C334.283 112.027 329.749 112.36 326.108 110.515C323.728 109.325 322.907 106.66 322.538 104.887C324.323 104.256 328.393 103.114 331.332 104.399C334.271 105.684 336.056 107.802 336.128 109.849Z" fill="black"/>
</g>
<path d="M322.312 121.832C322.026 121.916 321.8 121.713 321.8 121.38C321.797 121.221 321.843 121.064 321.933 120.932C322.022 120.8 322.15 120.699 322.3 120.642C331.963 117.679 341.494 105.565 341.661 96.2949C341.681 96.1448 341.745 96.0039 341.844 95.8897C341.944 95.7754 342.074 95.6929 342.22 95.6523C342.518 95.569 342.756 95.7356 342.744 96.0093C342.22 107.35 332.938 117.739 322.312 121.832Z" fill="#263238"/>
<path d="M322.217 179.095V178.286C322.133 166.255 321.979 154.022 321.824 142.193L321.705 132.923L322.11 132.78C340.662 126.331 355.43 121.856 369.888 118.262L370.578 118.084V118.81C371.447 134.756 372.042 150.94 372.506 164.72V165.22L372.03 165.327C355.43 169.135 339.365 173.562 322.931 178.857L322.217 179.095ZM322.907 133.756L323.014 142.181C323.157 153.748 323.312 165.696 323.395 177.477C339.436 172.324 355.144 167.957 371.34 164.28C370.888 150.833 370.317 135.113 369.472 119.595C355.358 123.118 340.935 127.509 322.907 133.756Z" fill="#F4CD49"/>
<path d="M327.75 177.143C331.403 173.014 333.402 170.801 337.603 166.148C344.469 164.137 347.682 163.506 354.097 161.959C356.56 158.794 357.869 156.973 360.368 153.879C360.643 153.544 361.012 153.3 361.427 153.177C362.617 152.82 363.438 153.915 362.784 155.105C360.618 159.02 359.487 161.495 357.298 165.267C352.109 167.171 349.943 167.802 344.6 169.873L341.197 172.55C335.58 174.359 332.712 175.43 327.75 177.143Z" fill="#263238"/>
<path d="M356.346 138.421C356.977 146.668 357.191 150.856 357.477 161.031C349.718 163.197 346.207 163.863 338.103 166.422C337.889 156.675 338.21 151.904 338.044 143.693C345.862 140.991 348.671 140.42 356.346 138.421Z" fill="#F4CD49"/>
<path d="M341.043 152.475C341.044 153.056 341.148 153.632 341.352 154.176L338.163 155.188C338.163 153.689 338.163 152.963 338.163 151.523C339.436 151.106 340.079 150.892 341.352 150.499C341.144 151.137 341.04 151.804 341.043 152.475Z" fill="#263238"/>
<path d="M356.894 146.299C356.977 147.715 357.024 148.441 357.096 149.869L354.109 150.666C354.266 150.06 354.33 149.434 354.299 148.81C354.266 148.202 354.125 147.606 353.883 147.048L356.894 146.299Z" fill="#263238"/>
<path opacity="0.2" d="M354.299 148.857C354.33 149.482 354.266 150.108 354.109 150.714C353.765 152.185 353.031 153.536 351.984 154.625C350.937 155.714 349.615 156.5 348.159 156.902C345.029 157.711 342.209 156.521 341.34 154.176C341.13 153.634 341.025 153.056 341.031 152.475C341.023 151.805 341.123 151.137 341.328 150.499C341.829 149.063 342.662 147.765 343.76 146.712C344.859 145.659 346.191 144.882 347.647 144.442C348.829 144.035 350.12 144.081 351.27 144.571C352.42 145.062 353.346 145.961 353.871 147.096C354.123 147.651 354.269 148.248 354.299 148.857Z" fill="black"/>
<path d="M344.66 148.75C344.768 148.619 344.887 148.5 345.006 148.381C345.032 148.425 345.069 148.462 345.113 148.488C346.073 149.04 346.845 149.87 347.326 150.868L347.481 151.166C348.016 152.238 348.77 153.187 349.694 153.95C349.035 154.159 348.338 154.219 347.653 154.126C346.968 154.034 346.312 153.791 345.731 153.415C343.911 152.32 343.447 150.238 344.66 148.75Z" fill="white"/>
<path d="M351.05 153.046C350.955 153.179 350.843 153.299 350.717 153.403C350.71 153.357 350.694 153.314 350.669 153.275C350.645 153.236 350.612 153.203 350.574 153.177C349.712 152.48 349.023 151.592 348.563 150.583L348.42 150.285C347.919 149.245 347.13 148.369 346.147 147.762C346.77 147.522 347.442 147.443 348.103 147.53C348.764 147.617 349.393 147.869 349.932 148.262C350.324 148.498 350.665 148.811 350.935 149.181C351.204 149.551 351.397 149.972 351.501 150.418C351.605 150.864 351.619 151.326 351.542 151.778C351.464 152.229 351.297 152.66 351.05 153.046Z" fill="white"/>
<path d="M356.215 138.457C355.025 136.077 354.49 134.887 353.383 132.507C347.838 133.97 345.934 134.375 340.353 136.279C339.46 139.254 338.996 140.706 338.044 143.669C338.015 143.734 337.991 143.802 337.973 143.871C345.803 141.229 348.623 140.67 356.287 138.659C356.263 138.564 356.239 138.528 356.215 138.457Z" fill="#F4CD49"/>
<path d="M355.227 131.983C348.087 133.887 345.707 134.363 338.496 136.874C338.496 136.124 338.496 135.684 338.496 134.97C345.636 132.471 347.944 131.971 355.156 130.055C355.144 130.829 355.179 131.209 355.227 131.983Z" fill="#263238"/>
<path d="M377.481 111.063V110.349C377.29 106.576 377.112 102.792 376.922 99.0199C376.386 87.8458 375.827 76.3028 375.148 64.9502V64.4504L375.636 64.3314C390.59 60.7083 405.881 58.6544 421.261 58.2029H421.844V58.7741C422.582 71.3881 423.617 84.1568 424.605 96.4971L425.319 105.422H424.7C409.055 105.649 393.475 107.488 378.207 110.908L377.481 111.063ZM376.291 65.3786C376.957 76.5765 377.481 87.9886 378.04 98.9604C378.219 102.53 378.385 106.1 378.564 109.587C393.482 106.282 408.696 104.492 423.974 104.244L423.367 96.5804C422.38 84.4186 421.368 71.8403 420.63 59.4167C405.698 59.8882 390.853 61.8859 376.327 65.3786H376.291Z" fill="#F4CD49"/>
<path d="M394.164 95.6405C393.723 96.5028 393.098 97.2578 392.333 97.852C391.568 98.4463 390.682 98.8653 389.737 99.0796C389.269 99.1417 388.792 99.0631 388.369 98.8535C386.679 98.0205 386.548 95.1883 388.036 92.6179C388.667 91.4905 389.582 90.5472 390.689 89.8809C391.138 89.5758 391.655 89.3859 392.195 89.3278C392.734 89.2697 393.28 89.3452 393.783 89.5477C395.509 90.4402 395.675 93.0701 394.164 95.6405Z" fill="#F4CD49"/>
<g opacity="0.2">
<path d="M394.165 95.6405C393.723 96.5028 393.098 97.2578 392.333 97.8521C391.568 98.4463 390.682 98.8653 389.738 99.0796C389.274 99.1431 388.803 99.0686 388.381 98.8654C388.199 98.7754 388.03 98.6591 387.881 98.5203L387.81 98.4489C387.74 98.3791 387.677 98.3034 387.62 98.2228C387.492 98.0637 387.388 97.8874 387.31 97.6992L387.203 97.4374C387.168 97.3454 387.144 97.2495 387.132 97.1518C387.099 97.072 387.079 96.9877 387.072 96.9019C387.072 96.7829 387.072 96.652 387.072 96.5211C387.038 95.8836 387.106 95.2448 387.274 94.629C387.416 94.1173 387.603 93.6194 387.834 93.1415C387.912 92.9702 387.999 92.8033 388.096 92.6417C388.727 91.5143 389.642 90.571 390.749 89.9047C391.199 89.6025 391.716 89.4143 392.255 89.3563C392.794 89.2982 393.339 89.3721 393.843 89.5715C394.023 89.6558 394.187 89.7683 394.331 89.9047C394.624 90.1521 394.852 90.4664 394.998 90.821C395.224 91.6359 395.267 92.491 395.123 93.3244C394.979 94.1579 394.652 94.949 394.165 95.6405Z" fill="black"/>
</g>
<path d="M393.438 92.701C393.422 93.9594 393.073 95.191 392.427 96.271C391.777 97.4286 390.854 98.4093 389.737 99.127C389.274 99.1864 388.803 99.112 388.381 98.9128C388.198 98.8228 388.03 98.7066 387.881 98.5677L387.81 98.4963C387.74 98.4265 387.676 98.3509 387.619 98.2702C387.492 98.1111 387.388 97.9349 387.31 97.7466L387.203 97.4848C387.168 97.3928 387.144 97.2969 387.131 97.1992C387.099 97.1194 387.079 97.0352 387.072 96.9493C387.072 96.8303 387.072 96.6994 387.072 96.5685C387.037 95.9311 387.105 95.2922 387.274 94.6764C387.406 94.1619 387.594 93.6632 387.833 93.1889C387.911 93.0176 387.999 92.8507 388.095 92.6891C388.727 91.5617 389.641 90.6184 390.749 89.9521C391.217 89.8988 391.691 89.9771 392.117 90.1782C392.658 90.4341 393.083 90.8845 393.307 91.4396C393.426 91.8489 393.47 92.2761 393.438 92.701Z" fill="#F4CD49"/>
<path d="M394.938 90.7971C394.499 91.4775 393.997 92.115 393.439 92.7011C392.896 93.2919 392.303 93.8335 391.665 94.3195C391.548 94.4213 391.425 94.5166 391.297 94.6051C390.039 95.602 388.988 96.8349 388.203 98.2346C388.126 98.3596 388.014 98.459 387.881 98.5202L387.81 98.4488C387.74 98.379 387.676 98.3034 387.619 98.2227C387.492 98.0636 387.388 97.8874 387.31 97.6991C388.161 96.1764 389.311 94.8408 390.69 93.7721L391.059 93.4746C391.847 92.8609 392.565 92.1626 393.201 91.3921C393.551 90.9685 393.87 90.519 394.153 90.0474C394.186 89.9916 394.231 89.943 394.283 89.9046C394.572 90.1433 394.797 90.45 394.938 90.7971Z" fill="#263238"/>
<path d="M399.246 82.598C398.997 82.6276 398.745 82.6276 398.496 82.598H398.27C397.889 82.5147 397.496 82.3838 397.08 82.2648C395.955 81.8354 394.96 81.1219 394.193 80.1939C393.425 79.2659 392.911 78.155 392.701 76.9693C391.975 73.8396 393.046 70.6861 395.212 69.4723C395.555 69.2871 395.924 69.1547 396.306 69.0796C396.696 68.971 397.107 68.971 397.496 69.0796C397.829 69.1589 398.146 69.2915 398.437 69.4723C400.521 70.9595 401.953 73.1926 402.435 75.7079C403.292 79.5159 401.923 82.479 399.246 82.598Z" fill="#F4CD49"/>
<g opacity="0.2">
<path d="M399.246 82.598C398.997 82.6276 398.745 82.6276 398.496 82.598H398.27C397.889 82.5147 397.496 82.3838 397.08 82.2648C395.955 81.8354 394.96 81.1219 394.193 80.1939C393.425 79.2659 392.911 78.155 392.701 76.9693C391.975 73.8396 393.046 70.6861 395.212 69.4723C395.555 69.2871 395.924 69.1547 396.306 69.0796C396.696 68.971 397.107 68.971 397.496 69.0796C397.829 69.1589 398.146 69.2915 398.437 69.4723C400.521 70.9595 401.953 73.1926 402.435 75.7079C403.292 79.5159 401.923 82.479 399.246 82.598Z" fill="black"/>
</g>
<path d="M398.496 82.5503H398.27C397.889 82.467 397.497 82.3361 397.08 82.2171C395.955 81.7877 394.96 81.0742 394.193 80.1462C393.426 79.2182 392.911 78.1073 392.701 76.9216C391.975 73.7919 392.998 70.6265 395.212 69.4246C396.029 69.4212 396.823 69.6984 397.461 70.21C397.902 70.5822 398.301 71.0012 398.651 71.4595C399.64 72.7846 400.334 74.3063 400.686 75.922C401.459 79.1588 400.531 81.8125 398.496 82.5503Z" fill="#F4CD49"/>
<path d="M398.65 71.4C398.65 71.4 398.65 71.4952 398.65 71.6737C398.65 71.8522 398.65 71.8998 398.65 72.0545C398.65 72.2092 398.65 72.0545 398.65 72.0545C398.686 73.0452 398.631 74.0372 398.484 75.0176C398.484 75.1485 398.484 75.2913 398.401 75.4341C398.317 75.5769 398.401 75.5174 398.401 75.5531C398.386 75.6612 398.367 75.7685 398.341 75.8744C398.341 76.1005 398.27 76.2076 398.21 76.4218C397.764 78.3117 397.764 80.2796 398.21 82.1695C398.234 82.2591 398.234 82.3536 398.21 82.4432C397.829 82.3599 397.437 82.229 397.02 82.11C396.579 80.1122 396.604 78.0398 397.092 76.0529C397.151 75.8268 397.175 75.7197 397.222 75.5055C397.27 75.2913 397.294 75.1961 397.33 75.0414C397.33 74.9343 397.33 74.8034 397.401 74.6844C397.472 74.5654 397.484 74.1132 397.508 73.8514C397.567 73.2225 397.587 72.5906 397.568 71.9593C397.568 71.8403 397.568 71.7808 397.568 71.6618C397.558 71.1763 397.522 70.6917 397.46 70.21C397.46 69.9958 397.46 69.7697 397.365 69.5555C397.335 69.4654 397.328 69.3692 397.345 69.2757C397.362 69.1822 397.401 69.0943 397.46 69.02C397.793 69.0993 398.11 69.2319 398.401 69.4127C398.526 70.0692 398.609 70.733 398.65 71.4Z" fill="#263238"/>
<path d="M413.347 96.4734C412.942 96.9904 412.426 97.4097 411.837 97.7001C411.247 97.9906 410.6 98.1448 409.944 98.1513C408.095 98.2301 406.266 97.749 404.696 96.7709C401.221 94.7241 399.531 91.1898 400.971 89.1906C401.409 88.6138 402.023 88.1959 402.72 88.0006C405.143 87.5314 407.653 88.0359 409.706 89.4048C413.121 91.4278 414.739 94.4266 413.347 96.4734Z" fill="#F4CD49"/>
<g opacity="0.2">
<path d="M413.348 96.4734C413.171 96.7175 412.967 96.941 412.741 97.1398C412.454 97.3674 412.138 97.5555 411.801 97.6991C411.214 97.9606 410.585 98.1138 409.944 98.1512C408.096 98.2241 406.269 97.7435 404.696 96.7709C401.233 94.736 399.52 91.166 400.972 89.1906C401.187 88.8879 401.463 88.6327 401.781 88.4409C402.06 88.2614 402.365 88.125 402.685 88.0363C405.108 87.567 407.617 88.0716 409.67 89.4405C413.11 91.4278 414.752 94.4266 413.348 96.4734Z" fill="black"/>
</g>
<path d="M411.634 96.8065C411.218 97.4143 410.629 97.8828 409.944 98.1512C408.095 98.23 406.266 97.7489 404.696 96.7708C401.221 94.724 399.531 91.1897 400.971 89.1905C401.409 88.6137 402.023 88.1958 402.72 88.0005C404.588 88.0849 406.403 88.6462 407.992 89.6308C411.396 91.63 413.014 94.7002 411.634 96.8065Z" fill="#F4CD49"/>
<path d="M404.898 89.6428L404.542 89.3453L404.815 89.5595C404.849 89.5809 404.877 89.6093 404.898 89.6428Z" fill="white"/>
<path d="M412.741 97.1396C412.454 97.3673 412.138 97.5554 411.801 97.6989C411.599 97.5799 411.384 97.4609 411.194 97.33C409.6 96.2846 408.203 94.9676 407.065 93.4387L406.708 92.9627L406.446 92.6533C405.744 91.7935 404.967 90.9971 404.125 90.2733L403.471 89.7735C403.031 89.4284 402.555 89.119 402.067 88.8096C401.998 88.771 401.937 88.7182 401.89 88.6546C401.843 88.591 401.81 88.5181 401.793 88.4407L402.697 88.0361C403.138 88.2979 403.554 88.5835 403.959 88.881L404.173 89.0357C404.192 89.0408 404.213 89.0408 404.232 89.0357L404.554 89.2975L404.911 89.595L405.565 90.1543C406.653 91.1537 407.63 92.2668 408.481 93.4744C409.436 94.5983 410.551 95.5765 411.789 96.378L412.515 96.8183C412.572 96.8538 412.622 96.9006 412.661 96.9558C412.7 97.0111 412.727 97.0736 412.741 97.1396Z" fill="#263238"/>
<path d="M378.861 163.863V163.137C378.433 153.284 378.243 143.288 378.052 133.613C377.957 128.139 377.842 122.669 377.707 117.203V116.727L378.171 116.608C393.552 112.685 409.388 110.836 425.259 111.11H425.807V111.646C427.104 127.556 428.02 143.681 428.853 158.829V159.52L428.163 159.448C409.54 157.473 395.747 159.603 379.54 163.673L378.861 163.863ZM378.861 117.643C378.996 122.959 379.107 128.274 379.195 133.589C379.385 143.014 379.575 152.76 379.968 162.352C395.379 158.52 409.48 156.402 427.568 158.211C426.759 143.443 425.854 127.782 424.605 112.3C409.194 112.092 393.821 113.888 378.873 117.643H378.861Z" fill="#F4CD49"/>
<path d="M412.086 145.62C406.595 145.712 401.122 146.265 395.724 147.275C394.26 140.016 393.546 137.255 392.154 131.805C400.972 129.508 405.244 129.425 413.574 129.555C413.026 135.291 412.705 138.183 412.086 145.62Z" fill="#F4CD49"/>
<g opacity="0.2">
<path d="M413.61 129.996C411.396 129.996 410.302 129.996 408.029 129.996C408.029 135.541 408.029 138.421 407.969 145.751C409.647 145.656 410.456 145.632 412.087 145.573C412.694 138.409 413.003 135.565 413.61 129.996Z" fill="black"/>
</g>
<path d="M418.298 124.581C418.351 125.273 418.251 125.969 418.006 126.618C417.762 127.268 417.378 127.856 416.882 128.342C416.882 128.342 416.882 128.342 416.811 128.342C416.739 128.342 416.811 128.342 416.811 128.342C416.084 129.021 415.188 129.494 414.216 129.71C414.018 129.768 413.815 129.808 413.61 129.829H413.3H412.681C405.22 129.829 401.317 129.758 393.558 131.733C393.134 131.849 392.7 131.921 392.261 131.947C389.417 132.114 387.084 130.555 386.989 127.937C387.008 126.336 387.608 124.796 388.679 123.605C389.782 122.302 391.269 121.381 392.927 120.976C400.436 119.214 404.554 119.214 411.967 119.036C413.53 118.98 415.056 119.523 416.232 120.553C417.409 121.584 418.148 123.025 418.298 124.581Z" fill="#F4CD49"/>
<g opacity="0.2">
<path d="M418.298 124.581C418.351 125.273 418.251 125.968 418.007 126.618C417.762 127.268 417.378 127.856 416.882 128.342C416.882 128.342 416.882 128.342 416.811 128.342C416.021 128.944 415.142 129.418 414.205 129.746C414.009 129.821 413.806 129.873 413.598 129.9C413.563 129.911 413.526 129.911 413.491 129.9C411.111 129.9 409.921 129.9 407.469 129.9C408.224 129.904 408.972 129.758 409.671 129.472C410.435 129.152 411.075 128.593 411.493 127.878C411.912 127.164 412.087 126.332 411.991 125.509C411.991 124.653 411.908 124.224 411.849 123.367C411.721 122.24 411.184 121.198 410.339 120.439C409.495 119.68 408.402 119.257 407.267 119.25C409.171 119.167 410.099 119.143 411.944 119.095C413.502 119.032 415.025 119.564 416.205 120.583C417.385 121.601 418.134 123.031 418.298 124.581Z" fill="black"/>
</g>
<path d="M406.16 133.816C406.243 135.113 406.279 135.767 406.362 137.148C404.311 137.1 402.26 137.235 400.234 137.552C400.139 136.16 400.103 135.493 400.02 134.184C402.049 133.857 404.106 133.733 406.16 133.816Z" fill="#F4CD49"/>
<path d="M406.16 133.816C406.243 135.113 406.279 135.767 406.362 137.148C404.311 137.1 402.26 137.235 400.234 137.552C400.139 136.16 400.103 135.493 400.02 134.184C402.049 133.857 404.106 133.733 406.16 133.816Z" fill="#F4CD49"/>
<g opacity="0.5">
<path d="M406.159 133.815C406.243 135.113 406.278 135.767 406.362 137.147C404.311 137.099 402.26 137.235 400.233 137.552C400.138 136.16 400.102 135.493 400.019 134.184C402.048 133.857 404.105 133.733 406.159 133.815Z" fill="white"/>
</g>
<path d="M403.589 133.899C403.672 135.196 403.708 135.862 403.792 137.255C402.595 137.254 401.401 137.354 400.222 137.552C400.126 136.16 400.091 135.494 400.007 134.185C401.19 133.979 402.389 133.883 403.589 133.899Z" fill="white"/>
<path d="M419.596 147.846C419.639 148.447 419.461 149.044 419.096 149.524C418.93 149.731 418.72 149.898 418.481 150.014C418.242 150.129 417.981 150.189 417.715 150.19C407.005 150.107 402.15 150.499 389.953 152.891C389.676 152.968 389.385 152.98 389.103 152.926C388.821 152.873 388.554 152.755 388.325 152.583C388.095 152.411 387.908 152.188 387.777 151.932C387.647 151.676 387.577 151.394 387.573 151.106C387.555 150.469 387.771 149.847 388.18 149.357C388.573 148.858 389.129 148.513 389.75 148.381C401.912 146.061 406.72 145.609 417.466 145.513C418.053 145.553 418.602 145.818 418.999 146.252C419.395 146.687 419.609 147.258 419.596 147.846Z" fill="#F4CD49"/>
<path d="M405.72 124.676C405.708 125.061 405.619 125.439 405.457 125.789C405.295 126.138 405.065 126.451 404.779 126.709C404.494 126.966 404.159 127.164 403.795 127.289C403.431 127.414 403.046 127.465 402.662 127.437C402.347 127.45 402.031 127.426 401.722 127.366C401.118 127.319 400.549 127.063 400.115 126.641C399.68 126.22 399.407 125.659 399.342 125.057C399.313 124.431 399.506 123.814 399.887 123.315C400.267 122.817 400.812 122.469 401.424 122.332C401.728 122.25 402.039 122.198 402.352 122.177C403.128 122.08 403.91 122.286 404.537 122.752C405.165 123.217 405.588 123.907 405.72 124.676Z" fill="#F4CD49"/>
<path d="M405.72 124.676C405.708 125.061 405.619 125.439 405.457 125.789C405.295 126.138 405.065 126.451 404.779 126.709C404.494 126.966 404.159 127.164 403.795 127.289C403.431 127.414 403.046 127.465 402.662 127.437C402.347 127.45 402.031 127.426 401.722 127.366C401.118 127.319 400.549 127.063 400.115 126.641C399.68 126.22 399.407 125.659 399.342 125.057C399.313 124.431 399.506 123.814 399.887 123.315C400.267 122.817 400.812 122.469 401.424 122.332C401.728 122.25 402.039 122.198 402.352 122.177C403.128 122.08 403.91 122.286 404.537 122.752C405.165 123.217 405.588 123.907 405.72 124.676Z" fill="white"/>
<path d="M403.935 124.736C403.927 125.362 403.702 125.967 403.298 126.446C402.895 126.925 402.338 127.25 401.722 127.366C401.118 127.319 400.549 127.063 400.115 126.641C399.68 126.22 399.407 125.659 399.342 125.057C399.313 124.43 399.506 123.814 399.887 123.315C400.267 122.817 400.812 122.469 401.424 122.332C402.051 122.395 402.639 122.665 403.094 123.101C403.549 123.537 403.845 124.112 403.935 124.736Z" fill="white"/>
<path d="M407.862 130.043C407.957 131.471 408.005 132.209 408.088 133.708C404.755 133.591 401.419 133.871 398.152 134.541C398.056 133.018 398.009 132.292 397.914 130.864C401.185 130.191 404.525 129.915 407.862 130.043Z" fill="#F4CD49"/>
<g opacity="0.5">
<path d="M407.861 130.043C407.956 131.471 408.004 132.209 408.087 133.709C404.754 133.591 401.418 133.871 398.151 134.542C398.055 133.018 398.008 132.293 397.913 130.865C401.184 130.191 404.524 129.915 407.861 130.043Z" fill="white"/>
</g>
<path d="M404.78 130.127C404.875 131.543 404.923 132.28 405.018 133.792C402.708 133.772 400.403 134.024 398.152 134.542C398.056 133.018 398.009 132.292 397.914 130.864C400.166 130.351 402.47 130.103 404.78 130.127Z" fill="white"/>
<path d="M410.551 124.558C410.551 124.873 410.426 125.176 410.203 125.399C409.98 125.622 409.677 125.748 409.361 125.748C409.04 125.769 408.723 125.668 408.474 125.464C408.224 125.261 408.061 124.971 408.017 124.653C408.017 124.337 408.142 124.034 408.365 123.811C408.588 123.588 408.891 123.463 409.207 123.463C409.528 123.439 409.847 123.539 410.097 123.742C410.347 123.946 410.51 124.238 410.551 124.558Z" fill="#F4CD49"/>
<path d="M414.847 124.546C414.861 124.706 414.841 124.867 414.786 125.018C414.731 125.169 414.644 125.306 414.531 125.419C414.417 125.533 414.28 125.62 414.129 125.675C413.978 125.729 413.817 125.75 413.657 125.736C413.326 125.74 413.005 125.62 412.759 125.4C412.512 125.18 412.357 124.875 412.324 124.546C412.318 124.39 412.346 124.236 412.404 124.092C412.463 123.948 412.551 123.819 412.664 123.712C412.777 123.605 412.911 123.523 413.057 123.472C413.204 123.421 413.359 123.401 413.514 123.415C413.838 123.401 414.155 123.509 414.402 123.719C414.649 123.929 414.808 124.224 414.847 124.546Z" fill="#F4CD49"/>
<path d="M393.213 126.462C393.198 126.801 393.074 127.126 392.86 127.39C392.645 127.654 392.352 127.841 392.023 127.925C391.309 128.104 390.69 127.759 390.654 127.128C390.678 126.782 390.813 126.454 391.038 126.19C391.263 125.927 391.566 125.742 391.904 125.664C392.57 125.486 393.177 125.843 393.213 126.462Z" fill="#F4CD49"/>
<path d="M411.289 136.362C409.361 136.362 408.386 136.362 406.374 136.457C406.374 135.839 406.315 135.541 406.279 134.934C408.29 134.934 409.266 134.863 411.194 134.851C411.23 135.446 411.253 135.755 411.289 136.362Z" fill="#263238"/>
<path d="M407.898 130.448C404.569 130.316 401.236 130.588 397.973 131.257C397.916 131.285 397.852 131.297 397.789 131.292C397.725 131.287 397.664 131.265 397.612 131.229C397.56 131.193 397.519 131.143 397.492 131.085C397.465 131.027 397.455 130.963 397.461 130.9C397.461 130.782 397.501 130.666 397.574 130.573C397.648 130.481 397.751 130.415 397.866 130.388C401.133 129.719 404.47 129.448 407.802 129.579C407.921 129.575 408.037 129.616 408.127 129.693C408.217 129.77 408.276 129.878 408.29 129.996C408.295 130.051 408.289 130.107 408.272 130.161C408.254 130.214 408.227 130.263 408.19 130.305C408.153 130.347 408.108 130.382 408.058 130.406C408.008 130.431 407.953 130.445 407.898 130.448Z" fill="#263238"/>
<path d="M409.361 126.14C408.926 126.163 408.497 126.024 408.159 125.749C407.82 125.474 407.595 125.083 407.528 124.653C407.53 124.443 407.573 124.235 407.657 124.043C407.74 123.85 407.862 123.677 408.014 123.532C408.166 123.388 408.346 123.275 408.543 123.202C408.74 123.129 408.949 123.096 409.159 123.106C409.595 123.075 410.026 123.211 410.364 123.488C410.703 123.764 410.923 124.16 410.979 124.593C410.981 124.803 410.94 125.011 410.859 125.204C410.777 125.398 410.657 125.572 410.505 125.717C410.353 125.862 410.174 125.974 409.977 126.047C409.78 126.12 409.57 126.152 409.361 126.14ZM409.218 123.891C409.118 123.886 409.018 123.902 408.925 123.937C408.831 123.972 408.746 124.025 408.673 124.094C408.601 124.163 408.543 124.246 408.504 124.338C408.465 124.43 408.445 124.529 408.445 124.629C408.474 124.834 408.58 125.02 408.741 125.15C408.902 125.281 409.107 125.345 409.313 125.331C409.412 125.338 409.511 125.324 409.604 125.29C409.697 125.256 409.782 125.204 409.854 125.135C409.925 125.067 409.982 124.985 410.02 124.893C410.058 124.802 410.077 124.704 410.075 124.605C410.057 124.398 409.961 124.205 409.806 124.066C409.652 123.927 409.45 123.852 409.242 123.855L409.218 123.891Z" fill="white"/>
<path d="M413.705 126.14C413.267 126.15 412.842 126 412.508 125.717C412.175 125.434 411.957 125.038 411.896 124.605C411.892 124.397 411.931 124.191 412.011 123.999C412.091 123.808 412.209 123.634 412.359 123.49C412.508 123.346 412.686 123.234 412.881 123.162C413.075 123.09 413.283 123.058 413.49 123.07C413.929 123.054 414.357 123.203 414.692 123.487C415.027 123.771 415.243 124.17 415.299 124.605C415.306 124.814 415.27 125.022 415.191 125.215C415.113 125.409 414.995 125.583 414.844 125.728C414.694 125.873 414.515 125.984 414.318 126.055C414.122 126.126 413.913 126.155 413.705 126.14ZM413.55 123.867C413.451 123.862 413.352 123.878 413.26 123.913C413.167 123.948 413.083 124.002 413.013 124.071C412.942 124.141 412.887 124.224 412.85 124.316C412.814 124.408 412.797 124.506 412.8 124.605C412.827 124.809 412.927 124.996 413.083 125.13C413.239 125.264 413.439 125.336 413.645 125.331C413.744 125.338 413.843 125.324 413.936 125.29C414.029 125.256 414.114 125.204 414.185 125.135C414.257 125.067 414.314 124.985 414.352 124.893C414.39 124.802 414.408 124.704 414.407 124.605C414.403 124.38 414.312 124.165 414.151 124.007C413.991 123.849 413.775 123.76 413.55 123.76V123.867Z" fill="white"/>
<path d="M391.998 128.33C391.023 128.58 390.178 128.104 390.142 127.247C390.173 126.778 390.354 126.332 390.659 125.974C390.963 125.616 391.374 125.366 391.832 125.26C392.808 125.022 393.617 125.509 393.664 126.354C393.64 126.82 393.464 127.265 393.163 127.622C392.862 127.978 392.453 128.227 391.998 128.33ZM391.879 126.069C391.662 126.116 391.465 126.233 391.321 126.403C391.177 126.573 391.093 126.786 391.082 127.009C391.093 127.106 391.127 127.199 391.18 127.281C391.233 127.363 391.305 127.432 391.389 127.482C391.473 127.531 391.568 127.561 391.665 127.567C391.763 127.574 391.861 127.558 391.951 127.521C392.168 127.472 392.363 127.354 392.507 127.184C392.651 127.014 392.736 126.802 392.748 126.58C392.701 126.14 392.344 125.95 391.879 126.069Z" fill="white"/>
<path d="M402.388 123.938C402.271 123.956 402.153 123.927 402.057 123.858C401.962 123.789 401.897 123.686 401.876 123.57C401.876 123.046 401.876 122.796 401.793 122.272C401.793 122.058 401.983 121.88 402.257 121.868C402.375 121.85 402.495 121.879 402.593 121.948C402.69 122.016 402.757 122.12 402.781 122.237C402.781 122.748 402.781 123.01 402.864 123.534C402.876 123.76 402.674 123.927 402.388 123.938Z" fill="#263238"/>
<path d="M407.314 139.23H406.707C406.707 139.123 406.707 139.063 406.707 138.944C404.548 138.921 402.391 139.076 400.257 139.409C400.353 140.825 400.388 141.562 400.483 143.086C400.472 143.501 400.545 143.914 400.699 144.3C400.853 144.685 401.084 145.036 401.379 145.329C401.673 145.622 402.024 145.852 402.41 146.004C402.797 146.157 403.21 146.228 403.625 146.215H404.077C404.682 146.143 405.252 145.896 405.719 145.505C406.186 145.114 406.529 144.596 406.707 144.014C406.85 143.958 406.973 143.863 407.064 143.74L408.147 142.407C408.306 142.205 408.382 141.95 408.361 141.693C408.361 141.075 408.361 140.765 408.278 140.158C408.272 139.908 408.167 139.67 407.987 139.496C407.806 139.322 407.564 139.227 407.314 139.23ZM407.635 141.705C407.654 141.751 407.654 141.802 407.635 141.848L406.945 142.693V142.586C406.886 141.539 406.862 141.027 406.802 140.015H407.409C407.457 140.018 407.502 140.037 407.537 140.07C407.572 140.103 407.594 140.147 407.6 140.194C407.588 140.789 407.6 141.098 407.635 141.717V141.705Z" fill="#263238"/>
<path d="M399.353 147.358C402.343 146.907 405.353 146.61 408.373 146.465C408.582 146.425 408.779 146.343 408.955 146.224C409.131 146.106 409.281 145.953 409.397 145.775C405.684 145.904 401.984 146.27 398.318 146.87C398.444 147.022 398.603 147.144 398.782 147.228C398.96 147.313 399.155 147.357 399.353 147.358Z" fill="#263238"/>
<path d="M351.265 219.472C351.343 220.146 351.536 220.802 351.836 221.411C352.211 222.323 352.72 223.174 353.347 223.934C354.279 224.965 355.392 225.816 356.632 226.445C356.632 226.445 357.453 226.826 357.5 226.874C358.291 227.285 359.115 227.627 359.964 227.897C361.636 228.524 363.402 228.866 365.188 228.908C365.342 228.905 365.494 228.941 365.632 229.011C365.769 229.082 365.886 229.186 365.973 229.313C366.189 229.654 366.424 229.984 366.675 230.301C366.876 230.575 367.058 230.861 367.223 231.158C367.323 231.379 367.466 231.578 367.643 231.743C367.821 231.909 368.03 232.037 368.258 232.121C369.178 232.433 370.142 232.594 371.114 232.597C373.467 232.667 375.82 232.488 378.135 232.062C379.206 231.86 380.741 231.574 382.086 231.205C383.595 230.81 385.081 230.329 386.536 229.765C387.744 229.343 388.901 228.788 389.987 228.111C390.443 227.857 390.825 227.487 391.094 227.04C391.213 226.79 391.272 226.576 391.403 226.338C391.76 225.684 392.105 225.017 392.439 224.363C392.95 223.363 393.379 222.34 393.795 221.34C394.228 220.366 394.605 219.369 394.926 218.353C395.211 217.33 395.521 216.294 395.747 215.235C396.128 213.462 396.449 211.606 396.711 209.678C396.83 208.786 396.842 207.715 396.913 206.751C396.962 205.952 396.893 205.15 396.711 204.371C396.574 203.835 396.308 203.341 395.937 202.931C394.914 201.867 393.66 201.052 392.272 200.551C390.966 200.069 389.593 199.792 388.202 199.73C387.607 199.73 387.012 199.575 386.441 199.563C380.316 199.296 374.221 200.564 368.71 203.252C367.456 203.834 366.24 204.494 365.069 205.227C363.985 205.919 362.973 206.716 362.046 207.607C361.328 208.251 360.724 209.011 360.261 209.857C360.104 210.158 359.984 210.478 359.904 210.809C359.785 211.201 359.785 211.213 359.392 211.237C358.22 211.283 357.069 211.565 356.008 212.066C354.946 212.567 353.997 213.277 353.216 214.152C352.615 214.835 352.143 215.621 351.824 216.473C351.398 217.413 351.206 218.442 351.265 219.472ZM368.365 211.677C367.108 211.696 365.852 211.588 364.616 211.356C364.315 211.333 364.023 211.243 363.76 211.094C364.173 210.284 364.743 209.563 365.438 208.976C365.892 208.592 366.369 208.234 366.866 207.905C367.701 207.346 368.576 206.849 369.484 206.417C370.762 205.807 372.073 205.266 373.411 204.799C375.671 203.991 378.035 203.506 380.432 203.359C382.061 203.205 383.699 203.157 385.334 203.216C386.946 203.252 388.546 203.496 390.094 203.942C391.389 204.271 392.563 204.965 393.474 205.941C393.445 205.976 393.413 206.008 393.379 206.037C393.26 206.132 393.141 206.239 393.022 206.322C392.699 206.566 392.362 206.789 392.01 206.989C390.68 207.727 389.276 208.325 387.821 208.774L386.834 209.083C386.651 209.147 386.464 209.199 386.274 209.238C385.203 209.571 384.121 209.809 383.038 210.047C381.955 210.285 380.908 210.463 379.848 210.606C379.027 210.701 378.063 210.856 377.468 210.963C377.422 210.974 377.373 210.974 377.326 210.963C377.326 210.963 377.326 210.963 377.266 210.963L376.909 211.035L374.208 211.356C373.375 211.439 372.494 211.57 371.59 211.63C370.685 211.689 369.46 211.689 368.365 211.677ZM357.131 217.33C357.296 216.827 357.577 216.37 357.951 215.995C358.325 215.621 358.782 215.34 359.285 215.176C359.541 215.079 359.803 215.004 360.071 214.95C360.356 216.366 360.773 217.663 361.13 218.96C361.616 220.633 362.205 222.274 362.891 223.875C363.188 224.676 363.631 225.415 364.2 226.052C364.021 225.957 363.224 225.6 363.01 225.505C361.856 224.922 360.797 224.168 359.868 223.268C358.893 222.451 358.085 221.453 357.488 220.329C357.232 219.878 357.068 219.38 357.007 218.865C356.946 218.35 356.988 217.828 357.131 217.33Z" fill="#F4CD49"/>
<path opacity="0.7" d="M362.546 212.153C365.188 213.581 369.413 213.236 378.243 212.082C387.072 210.928 392.344 209.035 394.605 206.632C396.104 205.049 395.402 202.883 394.296 201.598C393.654 201.174 392.968 200.823 392.249 200.551C390.943 200.068 389.57 199.791 388.179 199.73C387.596 199.73 386.989 199.575 386.43 199.551C380.295 199.242 374.183 200.52 368.687 203.264C367.437 203.842 366.225 204.498 365.057 205.227C364.412 205.646 363.792 206.103 363.201 206.596C361.273 208.452 360.571 211.106 362.546 212.153ZM363.736 211.094C364.141 210.285 364.708 209.568 365.402 208.988C365.867 208.607 366.331 208.238 366.83 207.905C367.67 207.349 368.544 206.848 369.448 206.406C370.725 205.797 372.036 205.265 373.375 204.811C374.501 204.42 375.65 204.098 376.815 203.847C377.995 203.621 379.186 203.462 380.385 203.371C382.014 203.213 383.651 203.162 385.287 203.216C386.899 203.255 388.499 203.503 390.047 203.954C391.344 204.28 392.521 204.97 393.439 205.941L393.344 206.037C393.231 206.143 393.111 206.242 392.987 206.334C392.671 206.578 392.337 206.797 391.987 206.989C390.657 207.731 389.253 208.333 387.798 208.786L386.799 209.095L386.251 209.25C385.18 209.547 384.097 209.821 383.014 210.047C381.932 210.273 380.884 210.475 379.813 210.606C378.992 210.713 378.028 210.856 377.433 210.963H377.302H377.231H376.934H376.862C376.005 211.082 375.113 211.177 374.161 211.296C373.209 211.415 372.447 211.499 371.555 211.558C370.662 211.618 369.448 211.558 368.354 211.558C367.097 211.571 365.842 211.463 364.605 211.237C364.312 211.259 364.018 211.21 363.748 211.094H363.736Z" fill="white"/>
<path d="M363.76 211.094C364.023 211.243 364.315 211.333 364.617 211.356C365.852 211.588 367.108 211.695 368.365 211.677C369.46 211.677 370.519 211.737 371.554 211.677C372.59 211.618 373.339 211.487 374.172 211.403L376.874 211.082L377.231 211.011C377.231 211.011 377.231 211.011 377.29 211.011C377.337 211.022 377.386 211.022 377.433 211.011C378.064 210.904 379.027 210.749 379.813 210.654C380.872 210.511 381.955 210.309 383.002 210.094C384.049 209.88 385.168 209.618 386.239 209.285C386.429 209.246 386.615 209.195 386.798 209.131L387.786 208.821C389.24 208.373 390.644 207.775 391.975 207.036C392.326 206.836 392.664 206.614 392.986 206.37C393.105 206.286 393.224 206.179 393.343 206.084C393.378 206.055 393.41 206.024 393.438 205.989C392.527 205.012 391.354 204.318 390.059 203.99C388.51 203.543 386.91 203.299 385.299 203.264C383.663 203.205 382.025 203.253 380.396 203.407C377.999 203.553 375.636 204.038 373.375 204.847C372.037 205.314 370.726 205.854 369.448 206.465C368.543 206.901 367.668 207.398 366.83 207.952C366.334 208.282 365.857 208.639 365.402 209.023C364.723 209.598 364.164 210.302 363.76 211.094Z" fill="#263238"/>
<path opacity="0.3" d="M363.689 208.441C364.002 208.039 364.344 207.661 364.712 207.31C367.799 204.758 371.374 202.862 375.22 201.741C377.254 201.127 379.356 200.768 381.479 200.67C387.334 200.337 390.999 201.455 392.427 202.348C392.795 202.582 393.138 202.853 393.45 203.157C393.795 203.519 393.995 203.994 394.015 204.493C394.034 204.993 393.872 205.482 393.558 205.87C393.438 206.001 393.307 206.121 393.165 206.227C389.892 203.109 381.015 203.764 378.004 204.097C374.994 204.656 367.461 207.06 364.224 211.237C364.069 211.19 363.917 211.13 363.772 211.059C363.583 210.899 363.43 210.702 363.322 210.48C363.214 210.257 363.155 210.015 363.147 209.768C363.139 209.521 363.183 209.275 363.276 209.047C363.37 208.818 363.51 208.611 363.689 208.441Z" fill="black"/>
<path d="M405.231 169.777C401.745 167.052 397.199 167.945 392.605 169.087C390.869 169.417 389.209 170.071 387.715 171.015C386.298 172.05 385.442 173.788 386.298 174.799C387.155 175.811 389.392 176.108 389 177.512C385.251 179.797 380.67 180.249 376.719 181.618C373.818 182.671 371.245 184.468 369.258 186.83C368.572 187.444 368.083 188.247 367.853 189.139C367.651 190.579 369.043 191.352 370.352 191.804C370.59 191.888 370.567 192.28 370.352 192.423C369.394 192.953 368.519 193.623 367.758 194.41C367.27 194.934 367.627 195.707 368.246 195.529L368.472 195.469C370.15 195.065 371.459 195.767 371.507 197.076C371.437 197.824 371.117 198.527 370.599 199.071C370.081 199.615 369.394 199.968 368.651 200.075C368.246 200.17 368.544 200.67 369.127 200.705C370.284 200.679 371.423 200.411 372.471 199.92C373.164 199.742 373.811 199.419 374.369 198.972C374.927 198.525 375.383 197.963 375.707 197.326C376.374 195.803 376.005 193.482 374.815 193.458C377.6 192.714 380.338 191.804 383.014 190.733C384.323 190.332 385.454 189.491 386.215 188.353C386.822 187.163 386.013 185.509 384.74 185.878C388.452 184.105 392.356 182.903 396.009 181.356C399.636 179.929 402.944 177.797 405.743 175.085C406.335 174.547 406.75 173.841 406.933 173.062C406.961 172.413 406.819 171.769 406.52 171.193C406.222 170.616 405.777 170.128 405.231 169.777Z" fill="white"/>
<path d="M323.193 257.397V256.588C322.995 244.267 322.769 231.951 322.515 219.638C322.293 208.143 322.078 196.64 321.872 185.128V184.688L325.085 183.665C358.584 173.05 393.224 162.066 428.794 165.124H429.293V165.624C431.495 192.245 432.863 215.545 433.601 236.846V237.488H432.959C393.689 235.87 355.799 246.497 323.919 257.1L323.193 257.397ZM323.05 185.64C323.241 196.985 323.455 208.329 323.693 219.674C323.915 231.725 324.137 243.772 324.359 255.814C356.001 245.33 393.498 234.906 432.411 236.382C431.721 215.402 430.329 192.483 428.175 166.35C392.998 163.458 358.655 174.347 325.418 184.89L323.05 185.64Z" fill="#F4CD49"/>
<path d="M180.143 95.6403L182.225 95.914C182.321 101.293 182.047 101.686 181.857 106.017L179.477 105.779C179.882 102.414 180.104 99.0295 180.143 95.6403Z" fill="#F4CD49"/>
<path d="M193.483 97.9133C193.768 103.042 193.673 103.625 193.732 107.826L191.781 107.469C189.71 104.542 188.687 103.161 186.723 100.531C186.723 102.828 186.723 104.101 186.652 106.636L184.272 106.315C184.367 102.007 184.581 101.555 184.415 96.2473L186.235 96.5567C188.294 100.127 189.341 100.127 191.305 103.78C191.369 101.669 191.317 99.5551 191.15 97.4492L193.483 97.9133Z" fill="#F4CD49"/>
<path d="M195.339 107.171C195.648 106.576 195.803 106.303 196.1 105.791C197.099 106.561 198.245 107.116 199.468 107.421C200.849 107.731 201.396 107.421 201.396 106.945C201.396 105.374 195.577 104.672 195.446 101.317C195.446 99.7815 196.636 98.3654 199.611 99.0556C200.936 99.3883 202.162 100.038 203.181 100.948C202.988 101.487 202.765 102.015 202.515 102.53C201.677 101.862 200.708 101.38 199.67 101.114C198.266 100.781 197.743 101.114 197.766 101.733C197.826 103.411 203.621 104.303 203.645 107.35C203.645 108.742 202.312 109.825 199.444 109.194C197.939 108.844 196.534 108.152 195.339 107.171Z" fill="#F4CD49"/>
<path d="M207.215 103.173C205.954 102.828 205.311 102.661 204.014 102.34C204.014 101.614 204.014 101.233 203.955 100.305C207.525 101.198 209.274 101.674 212.618 102.685C212.618 103.578 212.618 103.958 212.618 104.708C211.428 104.351 210.785 104.185 209.536 103.839C209.536 107.017 209.429 108.231 209.333 111.515L207.144 110.92C207.168 107.564 207.239 106.327 207.215 103.173Z" fill="#F4CD49"/>
<path d="M219.83 114.668C219.253 113.571 218.609 112.509 217.902 111.491H217.771L215.617 110.825C215.558 111.777 215.534 112.193 215.474 113.312C214.51 113.014 214.213 112.919 213.38 112.681C213.594 108.671 213.725 107.743 213.808 103.006C215.439 103.482 215.938 103.625 218.14 104.315C221.531 105.375 223.114 107.552 222.9 109.694C222.886 110.009 222.81 110.318 222.676 110.603C222.542 110.888 222.353 111.144 222.119 111.355C221.886 111.567 221.613 111.73 221.316 111.835C221.018 111.94 220.704 111.985 220.389 111.967C221.134 113.116 221.809 114.308 222.412 115.537L219.83 114.668ZM217.902 106.255L215.903 105.624C215.843 107.017 215.807 107.588 215.724 109.016L217.723 109.647C219.401 110.182 220.234 109.813 220.329 108.766C220.425 107.719 219.663 106.802 217.902 106.255Z" fill="#F4CD49"/>
<path d="M224.399 112.158C224.66 109.992 224.791 109.075 225.017 106.541L227.052 107.243C226.838 109.742 226.719 110.706 226.481 112.812C226.267 114.633 226.933 115.525 227.992 115.93C229.051 116.334 229.837 115.93 229.932 114.038C230.051 111.896 230.111 110.789 230.218 108.254L232.526 109.004C232.395 111.563 232.336 112.657 232.205 114.871C232.027 117.786 230.063 118.584 227.814 117.727C226.671 117.363 225.697 116.6 225.07 115.577C224.443 114.555 224.205 113.341 224.399 112.158Z" fill="#F4CD49"/>
<path d="M233.883 114.847C233.86 114.189 234.011 113.536 234.319 112.954C234.628 112.371 235.083 111.88 235.64 111.529C236.198 111.177 236.837 110.978 237.495 110.95C238.154 110.923 238.808 111.068 239.392 111.372C241.007 112.016 242.319 113.244 243.069 114.811C242.643 115.177 242.176 115.492 241.677 115.751C241.166 114.805 240.371 114.043 239.404 113.574C239.059 113.384 238.668 113.291 238.274 113.305C237.88 113.319 237.498 113.439 237.166 113.652C236.835 113.865 236.567 114.164 236.391 114.517C236.215 114.869 236.138 115.263 236.167 115.656C236.127 116.613 236.38 117.559 236.892 118.367C237.405 119.175 238.153 119.807 239.035 120.178C239.417 120.372 239.848 120.446 240.273 120.391C240.698 120.335 241.096 120.154 241.415 119.869L242.724 121.951C241.796 122.868 240.404 122.927 238.738 122.201C237.292 121.592 236.06 120.569 235.196 119.26C234.332 117.951 233.875 116.415 233.883 114.847Z" fill="#F4CD49"/>
<path d="M246.152 116.394L243.367 115.263C243.367 114.383 243.367 114.014 243.427 113.205C246.497 114.478 247.949 115.037 251.435 116.513C251.435 117.286 251.435 117.62 251.352 118.524C250.103 117.988 249.472 117.727 248.163 117.203C248.163 121.071 248.068 122.249 247.937 126.092L245.89 125.164C246.033 121.38 246.128 120.19 246.152 116.394Z" fill="#F4CD49"/>
<path d="M252.674 117.048C253.578 117.441 254.03 117.632 254.923 118.036C254.613 121.939 254.506 124.105 254.126 128.925L251.972 127.925C252.281 123.141 252.4 121.047 252.674 117.048Z" fill="#F4CD49"/>
<path d="M256.231 123.629C256.505 120.488 258.814 119.595 261.658 120.928C263.074 121.481 264.288 122.453 265.138 123.714C265.989 124.974 266.435 126.464 266.418 127.985C266.263 131.186 263.966 133.697 261.003 132.316C258.04 130.936 255.969 126.759 256.231 123.629ZM264.216 127.056C264.281 126.169 264.06 125.284 263.584 124.532C263.109 123.78 262.404 123.201 261.574 122.879C259.944 122.154 258.611 122.558 258.445 124.569C258.362 125.599 258.566 126.631 259.034 127.551C259.503 128.471 260.217 129.243 261.098 129.781C262.776 130.543 264.097 129.079 264.18 127.056H264.216Z" fill="#F4CD49"/>
<path d="M275.652 127.687C275.652 131.019 275.807 133.935 275.759 139.456C275.592 139.361 275.128 139.04 274.7 138.814C273.415 134.803 272.32 131.674 270.309 128.746C270.463 130.793 270.523 133.506 270.642 136.755C269.654 136.243 269.119 135.97 268.06 135.458C268.06 130.234 268.06 127.616 267.988 124.081L269.63 124.867C271.463 127.842 272.855 129.008 274.462 133.03C274.26 129.663 274.343 129.294 274.093 127.14C274.89 127.497 274.89 127.33 275.652 127.687Z" fill="#F4CD49"/>
<path d="M208.346 129.889C208.465 127.271 208.512 126.164 208.608 123.558C207.418 125.414 206.739 126.223 205.383 128.02L204.288 127.759C203.217 125.462 202.693 124.391 201.67 122.047C201.456 124.581 201.337 125.7 201.099 128.163L198.719 127.651C199.183 123.498 199.385 121.547 199.814 117.263L201.729 117.691C202.991 120.702 203.657 122.13 205.014 125.069C206.68 122.832 207.465 121.82 208.965 119.476L210.738 119.952C210.619 124.331 210.595 126.033 210.464 130.448C209.667 130.222 209.226 130.103 208.346 129.889Z" fill="#F4CD49"/>
<path d="M219.746 130.793C217.688 130.127 216.355 129.722 214.665 129.246C214.344 130.055 214.177 130.436 213.82 131.34C212.939 131.091 212.487 130.96 211.559 130.722C213.415 126.747 213.999 125.283 215.903 121.452C216.843 121.737 217.402 121.916 218.378 122.237C220.282 127.271 221.4 129.044 223.257 134.375C222.305 134.03 221.805 133.839 220.746 133.482C220.353 132.352 220.151 131.828 219.746 130.793ZM218.913 128.699C218.175 126.878 217.807 125.628 217.116 124.093C216.43 125.228 215.848 126.423 215.379 127.663C216.581 127.973 217.497 128.246 218.961 128.699H218.913Z" fill="#F4CD49"/>
<path d="M232.05 127.33C231.979 131.876 232.05 133.018 231.979 137.766L230.254 137.052C228.445 133.423 227.874 132.221 226.029 128.901C226.124 131.579 226.172 132.578 226.231 135.47L224.22 134.696C224.113 129.936 223.97 128.603 223.863 124.105L225.589 124.76C227.398 128.151 228.028 129.413 229.897 132.661C229.897 130.186 229.897 129.175 229.897 126.438C230.777 126.83 231.217 127.009 232.05 127.33Z" fill="#F4CD49"/>
<path d="M234.18 134.089C234.18 131.864 234.18 130.876 234.287 128.294L236.501 129.246C236.418 131.816 236.382 132.816 236.346 134.982C236.245 135.71 236.383 136.452 236.74 137.096C237.096 137.739 237.651 138.25 238.322 138.552C239.631 139.135 240.416 138.706 240.475 136.91C240.559 134.815 240.606 133.72 240.737 131.102L242.867 132.054C242.725 134.744 242.665 135.886 242.582 138.004C242.451 140.729 240.832 141.979 238.238 140.813C236.979 140.211 235.923 139.254 235.202 138.059C234.481 136.864 234.126 135.484 234.18 134.089Z" fill="#F4CD49"/>
<path d="M250.709 143.633L246.164 141.669C245.79 142.313 245.46 142.981 245.176 143.669L243.046 142.74C244.795 138.802 245.819 138.385 247.663 134.196L249.71 135.124C251.197 140.848 252.007 142.062 253.946 147.441L251.566 146.418C251.197 145.275 251.09 144.716 250.709 143.633ZM250.019 141.788C249.4 140.265 249.127 139.016 248.591 137.231C248.104 138.321 247.559 139.386 246.961 140.42L250.019 141.788Z" fill="#F4CD49"/>
<path d="M254.827 137.421L257.029 138.409C257.029 142.622 257.171 143.169 257.148 146.739L261.8 148.75C261.8 149.571 261.8 150 261.8 150.845L254.898 147.905C254.744 143.252 254.827 142.562 254.827 137.421Z" fill="#F4CD49"/>
<path d="M267.607 90.9636L276.949 85.6919L286.243 108.361L267.607 90.9636Z" fill="#F4CD49"/>
<path d="M318.432 100.127L310.007 93.4865L297.357 114.466L318.432 100.127Z" fill="#F4CD49"/>
<path d="M287.73 79.4683L300.285 80.6583L294.026 108.802L287.73 79.4683Z" fill="#F4CD49"/>
<path d="M380.8 12.9711C380.662 12.9683 380.529 12.9184 380.423 12.8297C380.317 12.741 380.244 12.6187 380.217 12.4832C380.202 12.4065 380.202 12.3274 380.217 12.2508C380.233 12.1742 380.264 12.1015 380.309 12.0371C380.353 11.9727 380.41 11.9179 380.476 11.876C380.542 11.834 380.616 11.8058 380.693 11.793C384.596 11.0314 388.535 10.3769 392.391 9.82945C392.549 9.80736 392.709 9.84886 392.836 9.94482C392.963 10.0408 393.047 10.1833 393.069 10.3412C393.091 10.499 393.05 10.6591 392.954 10.7863C392.858 10.9135 392.715 10.9974 392.557 11.0195C388.726 11.5669 384.81 12.2095 380.919 12.9711H380.8Z" fill="#F4CD49"/>
<path d="M330.713 27.8698C330.555 27.8998 330.392 27.8658 330.259 27.7754C330.126 27.6851 330.035 27.5456 330.005 27.3878C329.975 27.23 330.009 27.0668 330.099 26.934C330.189 26.8012 330.329 26.7098 330.487 26.6798C345.051 20.8149 360.082 16.1814 375.421 12.8282C375.577 12.7963 375.74 12.8272 375.873 12.914C376.007 13.0008 376.101 13.1367 376.135 13.2923C376.153 13.3681 376.155 13.4467 376.141 13.5234C376.128 13.6 376.099 13.6733 376.057 13.7387C376.015 13.8041 375.96 13.8605 375.896 13.9044C375.832 13.9483 375.759 13.9789 375.683 13.9944C360.41 17.3313 345.443 21.9407 330.939 27.7746C330.872 27.823 330.794 27.8556 330.713 27.8698Z" fill="#F4CD49"/>
<path d="M222.9 320.55H209.702C209.545 320.55 209.393 320.488 209.282 320.376C209.17 320.265 209.107 320.113 209.107 319.955C209.107 319.798 209.17 319.646 209.282 319.535C209.393 319.423 209.545 319.36 209.702 319.36H222.9C223.057 319.36 223.209 319.423 223.32 319.535C223.432 319.646 223.495 319.798 223.495 319.955C223.495 320.113 223.432 320.265 223.32 320.376C223.209 320.488 223.057 320.55 222.9 320.55Z" fill="#F4CD49"/>
<path d="M202.633 320.55H155.26C155.102 320.55 154.95 320.488 154.839 320.376C154.727 320.265 154.665 320.113 154.665 319.955C154.665 319.798 154.727 319.646 154.839 319.535C154.95 319.423 155.102 319.36 155.26 319.36H202.633C202.79 319.363 202.94 319.427 203.051 319.538C203.162 319.649 203.225 319.799 203.228 319.955C203.228 320.113 203.166 320.265 203.054 320.376C202.943 320.488 202.791 320.55 202.633 320.55Z" fill="#F4CD49"/>
<path d="M262.729 165.517C263.078 164.818 263.562 164.194 264.152 163.681C264.742 163.169 265.428 162.778 266.169 162.53C266.911 162.283 267.693 162.184 268.473 162.239C269.253 162.294 270.014 162.502 270.714 162.851C271.413 163.201 272.037 163.684 272.549 164.274C273.061 164.865 273.453 165.55 273.7 166.292C273.948 167.033 274.047 167.816 273.992 168.596C273.937 169.376 273.728 170.137 273.379 170.836V170.931C271.249 175.334 269.143 179.964 267.144 184.509C265.144 189.055 263.228 193.649 261.681 198.218C261.277 199.408 260.932 200.491 260.599 201.633L260.408 202.252C260.362 202.35 260.334 202.454 260.325 202.562C260.266 202.891 260.242 203.226 260.253 203.561C260.414 205.6 260.871 207.604 261.61 209.511C263.364 214.052 265.432 218.466 267.798 222.72L267.869 222.851C268.227 223.485 268.341 224.227 268.188 224.938C268.035 225.65 267.627 226.28 267.041 226.711C266.455 227.142 265.731 227.343 265.007 227.277C264.282 227.21 263.607 226.88 263.109 226.35C259.206 222.507 255.854 218.142 253.149 213.379C251.593 210.691 250.495 207.764 249.9 204.716C249.751 203.771 249.692 202.815 249.722 201.86C249.748 200.901 249.875 199.947 250.103 199.015C250.4 197.671 250.698 196.314 251.055 195.017C252.437 189.86 254.133 184.793 256.136 179.845C258.135 174.954 260.253 170.217 262.741 165.446L262.729 165.517Z" fill="#CB7A63"/>
<path d="M264.454 222.685L263.621 223.303C263.214 223.589 262.906 223.995 262.742 224.465C262.578 224.935 262.565 225.444 262.705 225.921C263.32 227.785 264.402 229.46 265.846 230.788L271.677 223.827L266.667 222.304C266.295 222.187 265.9 222.161 265.515 222.227C265.13 222.293 264.766 222.45 264.454 222.685Z" fill="#CB7A63"/>
<path d="M271.701 223.827L265.87 230.789L272.391 233.097L278.651 228.004L271.701 223.827Z" fill="#CB7A63"/>
<path d="M299.666 128.674C300.071 128.591 300.511 129.02 300.642 129.638C300.773 130.257 300.559 130.828 300.154 130.912C299.75 130.995 299.309 130.567 299.179 129.948C299.048 129.329 299.262 128.746 299.666 128.674Z" fill="#263238"/>
<path d="M300.939 136.85C301.472 136.877 302.004 136.784 302.497 136.578C302.989 136.372 303.429 136.058 303.784 135.66C302.213 134.299 300.836 132.729 299.69 130.995L300.939 136.85Z" fill="#B74D3C"/>
<path d="M296.43 126.925C296.729 126.561 297.111 126.273 297.543 126.085C297.975 125.897 298.446 125.814 298.917 125.842H299.036C299.137 125.842 299.233 125.802 299.305 125.731C299.376 125.659 299.416 125.563 299.416 125.462C299.416 125.361 299.376 125.264 299.305 125.192C299.233 125.121 299.137 125.081 299.036 125.081C298.451 125.027 297.862 125.113 297.318 125.333C296.774 125.552 296.29 125.898 295.906 126.342C295.845 126.411 295.811 126.5 295.811 126.592C295.809 126.641 295.818 126.691 295.835 126.737C295.853 126.783 295.88 126.825 295.914 126.861C295.949 126.896 295.99 126.924 296.036 126.944C296.081 126.963 296.13 126.973 296.18 126.973C296.266 126.989 296.355 126.972 296.43 126.925Z" fill="#263238"/>
<path d="M292.324 164.72C281.614 164.827 280.02 159.019 280.02 159.019C283.197 155.925 283.352 150.225 282.673 145.144C283.526 146.352 284.605 147.382 285.851 148.179C286.982 148.948 288.263 149.47 289.61 149.712C290.957 149.954 292.34 149.91 293.669 149.583C293.712 149.596 293.757 149.596 293.8 149.583C293.788 149.686 293.788 149.789 293.8 149.892C293.157 153.962 293.728 158.317 298 159.591C297.941 159.543 304.081 164.589 292.324 164.72Z" fill="#CB7A63"/>
<path d="M294.097 148.036C293.966 148.529 293.867 149.029 293.8 149.535C293.757 149.548 293.711 149.548 293.669 149.535C292.34 149.862 290.957 149.907 289.61 149.665C288.263 149.423 286.982 148.9 285.85 148.131C284.605 147.335 283.526 146.304 282.673 145.096C282.518 143.811 282.28 142.55 282.042 141.407L293.657 147.75L294.097 148.036Z" fill="#CB7A63"/>
<path d="M276.771 160.007C276.771 160.007 278.46 154.795 281.007 153.153C283.554 151.511 294.728 153.212 296.477 153.903C298.226 154.593 300.047 158.663 300.047 158.663L276.771 160.007Z" fill="#F4CD49"/>
<path d="M275.367 176.346C274.099 181.833 270.902 186.681 266.358 190.007L253.958 180.88C253.958 180.88 261.277 160.757 268.607 158.984C276.081 157.211 277.758 166.469 275.367 176.346Z" fill="#263238"/>
<path opacity="0.2" d="M275.7 174.585C275.605 175.168 275.474 175.775 275.331 176.346C274.07 181.829 270.881 186.677 266.346 190.007L265.692 189.507C265.864 183.365 268.248 177.492 272.403 172.966L275.7 174.585Z" fill="black"/>
<path d="M252.364 176.417L250.793 182.701L266.299 192.72L268.917 187.77L252.364 176.417Z" fill="#F4CD49"/>
<path d="M303.451 157.782C301.725 157.496 299.798 157.234 297.822 157.08C291.873 156.799 285.913 156.862 279.972 157.27C276.141 157.552 272.337 158.133 268.596 159.008C271.642 200.955 269.786 221.518 269.119 227.516L311.126 227.064C315.47 192.482 314.268 175.049 312.578 166.588C312.13 164.367 311.017 162.336 309.387 160.763C307.756 159.19 305.686 158.15 303.451 157.782Z" fill="#263238"/>
<path opacity="0.2" d="M310.804 227.064H311.173C313.862 205.406 314.41 190.483 314.017 180.273L295.548 169.563C298.381 198.385 305.901 211.546 310.804 227.064Z" fill="black"/>
<path d="M301.737 139.325C301.704 141.161 301.204 142.958 300.283 144.546C299.363 146.135 298.053 147.463 296.477 148.405C295.668 148.909 294.785 149.282 293.859 149.511C293.817 149.524 293.771 149.524 293.728 149.511C292.4 149.839 291.017 149.883 289.67 149.641C288.323 149.399 287.042 148.876 285.91 148.107C284.665 147.311 283.586 146.28 282.733 145.073C280.638 142.205 279.77 138.385 278.27 132.994C277.782 131.26 277.742 129.431 278.153 127.678C278.565 125.924 279.414 124.304 280.622 122.967C281.829 121.631 283.356 120.623 285.059 120.038C286.763 119.452 288.587 119.308 290.361 119.619C298.441 121.047 301.892 132.09 301.737 139.325Z" fill="#CB7A63"/>
<path opacity="0.2" d="M296.418 148.428C295.609 148.933 294.725 149.306 293.8 149.535C293.8 149.535 294.085 144.775 294.085 144.775C294.085 144.775 295.859 148.428 296.418 148.428Z" fill="black"/>
<path d="M297.072 135.22C296.916 136.883 296.412 138.495 295.591 139.951C294.771 141.407 293.654 142.673 292.312 143.668C291.953 143.925 291.549 144.11 291.122 144.216C289.765 144.525 288.492 143.359 287.873 142.11C287.166 140.439 286.813 138.64 286.838 136.826C286.683 132.578 287.207 127.913 290.205 124.926C290.867 124.16 291.793 123.671 292.8 123.558C296.643 123.367 297.334 132.78 297.072 135.22Z" fill="#263238"/>
<path d="M297.239 120.035C296.048 118.876 294.569 118.054 292.955 117.655C290.679 116.889 288.309 116.437 285.91 116.31C283.485 116.202 281.103 116.971 279.199 118.476C277.176 120.214 276.212 122.844 275.319 125.354L273.701 129.853C273.264 130.65 273.076 131.561 273.161 132.466C273.246 133.372 273.6 134.231 274.177 134.934C275.652 137.314 277.132 139.694 278.616 142.074C279.306 143.074 279.821 144.185 280.139 145.358C280.286 145.947 280.278 146.563 280.115 147.147C279.953 147.731 279.641 148.263 279.211 148.69C279.959 148.595 280.679 148.346 281.326 147.959C281.973 147.572 282.533 147.055 282.971 146.441C283.03 147.143 282.907 147.849 282.613 148.489C282.319 149.129 281.864 149.682 281.293 150.095C283.023 149.461 284.557 148.386 285.744 146.977C285.498 147.749 285.035 148.435 284.411 148.952C286.791 149.309 288.742 147.167 290.099 145.18C291.777 142.728 293.348 139.634 292.158 136.921C291.765 136.029 291.099 135.267 290.706 134.363C290.362 133.36 290.283 132.285 290.477 131.242C290.671 130.2 291.131 129.225 291.813 128.413C293.187 126.798 294.835 125.436 296.68 124.391C296.68 124.391 299.048 122.022 297.239 120.035Z" fill="#263238"/>
<path d="M295.121 129.567C297.358 130.233 298.536 133.542 298.691 135.636C298.798 138.016 297.251 139.42 295.228 137.873C293.701 136.668 292.61 134.996 292.122 133.113C291.551 130.9 292.883 128.913 295.121 129.567Z" fill="#CB7A63"/>
<path d="M291.169 426.674C291.13 426.669 291.093 426.652 291.065 426.624C291.037 426.596 291.02 426.559 291.015 426.52C291.002 426.482 291.003 426.44 291.018 426.403C291.034 426.366 291.062 426.335 291.098 426.317C291.253 426.246 294.132 424.532 295.525 424.878C295.658 424.901 295.785 424.954 295.896 425.032C296.007 425.11 296.1 425.212 296.167 425.33C296.256 425.455 296.304 425.605 296.304 425.758C296.304 425.912 296.256 426.061 296.167 426.187C295.834 426.674 294.846 426.841 293.787 426.865C292.911 426.88 292.034 426.817 291.169 426.674ZM295.037 425.199C293.892 425.364 292.789 425.748 291.788 426.329C293.347 426.52 295.453 426.46 295.834 425.925C295.917 425.841 295.965 425.734 295.834 425.484C295.789 425.413 295.73 425.352 295.661 425.305C295.591 425.258 295.512 425.226 295.43 425.211C295.303 425.193 295.175 425.193 295.049 425.211L295.037 425.199Z" fill="#F4CD49"/>
<path d="M291.087 426.639C291.061 426.616 291.041 426.589 291.027 426.558C291.012 426.527 291.004 426.494 291.003 426.46C291.018 425.277 291.438 424.135 292.193 423.223C292.341 423.088 292.517 422.985 292.708 422.924C292.899 422.862 293.101 422.843 293.3 422.866C293.848 422.866 294.038 423.188 294.05 423.402C294.228 424.366 292.289 426.175 291.277 426.651H291.206C291.166 426.659 291.124 426.655 291.087 426.639ZM293.193 423.247C292.933 423.252 292.685 423.358 292.503 423.545C291.902 424.285 291.537 425.189 291.456 426.139C292.479 425.496 293.836 424.056 293.681 423.485C293.681 423.485 293.681 423.271 293.288 423.271H293.181L293.193 423.247Z" fill="#F4CD49"/>
<path d="M282.375 407.42L290.693 407.265L290.384 426.472L282.03 426.639L282.375 407.42Z" fill="#CB7A63"/>
<path d="M292.336 426.127C298.096 429.495 299.845 429.614 306.45 430.887C307.889 431.172 307.045 434.659 303.605 434.731C297.917 434.838 297.322 434.588 292.467 434.671C288.314 434.754 283.554 435.04 280.246 435.159C280.147 435.171 280.047 435.171 279.948 435.159C279.79 435.129 279.64 435.068 279.506 434.979C279.373 434.89 279.258 434.774 279.171 434.64C279.083 434.505 279.023 434.354 278.995 434.196C278.967 434.038 278.972 433.876 279.008 433.719L280.472 426.258C280.508 426.097 280.597 425.952 280.724 425.847C280.851 425.742 281.009 425.681 281.174 425.675L290.313 425.508C291.032 425.52 291.733 425.735 292.336 426.127Z" fill="#263238"/>
<path opacity="0.2" d="M282.363 407.432L282.197 417.309L290.539 417.142L290.693 407.277L282.363 407.432Z" fill="black"/>
<path d="M221.447 427.924C221.441 427.964 221.423 428.001 221.395 428.031C221.368 428.061 221.332 428.081 221.293 428.09C221.252 428.099 221.209 428.093 221.172 428.074C221.135 428.054 221.106 428.022 221.09 427.983C221.007 427.841 219.353 424.949 219.734 423.557C219.801 423.298 219.962 423.073 220.186 422.926C220.313 422.836 220.464 422.787 220.62 422.787C220.776 422.787 220.928 422.836 221.055 422.926C221.542 423.271 221.673 424.259 221.685 425.377C221.682 426.232 221.603 427.084 221.447 427.924ZM220.055 424.056C220.191 425.197 220.547 426.3 221.102 427.305C221.316 425.758 221.304 423.652 220.769 423.271C220.698 423.188 220.579 423.14 220.329 423.271C220.256 423.311 220.194 423.368 220.147 423.436C220.099 423.504 220.068 423.582 220.055 423.664C220.043 423.79 220.043 423.918 220.055 424.044V424.056Z" fill="#F4CD49"/>
<path d="M221.436 428.007C221.415 428.035 221.388 428.058 221.357 428.072C221.326 428.087 221.291 428.093 221.257 428.091C221.174 428.091 218.877 427.936 218.044 426.829C217.912 426.679 217.814 426.503 217.754 426.312C217.695 426.122 217.676 425.921 217.699 425.723C217.758 425.187 218.032 424.997 218.258 424.997C219.21 424.83 221.007 426.794 221.459 427.793V427.876C221.469 427.922 221.46 427.968 221.436 428.007ZM218.056 425.889C218.07 426.141 218.171 426.381 218.342 426.567C219.073 427.179 219.974 427.553 220.924 427.638C220.293 426.615 218.889 425.258 218.318 425.377C218.318 425.377 218.092 425.377 218.092 425.758V425.889H218.056Z" fill="#F4CD49"/>
<path d="M225.756 408.479L233.872 408.896L229.493 428.352L221.329 427.924L225.756 408.479Z" fill="#CB7A63"/>
<path d="M219.353 426.901C217.163 429.542 216.009 430.899 209.619 433.029C208.215 433.493 209.488 436.849 212.915 436.48C218.579 435.873 215.45 435.945 220.281 435.421C224.41 434.969 229.17 434.659 232.467 434.362C232.576 434.354 232.683 434.334 232.788 434.302C232.943 434.255 233.087 434.177 233.211 434.073C233.334 433.969 233.436 433.84 233.508 433.695C233.58 433.551 233.623 433.393 233.632 433.231C233.641 433.069 233.617 432.907 233.562 432.755L231.182 425.544C231.128 425.386 231.022 425.252 230.881 425.163C230.741 425.074 230.573 425.036 230.408 425.056L221.34 426.02C220.967 426.027 220.599 426.109 220.258 426.26C219.917 426.411 219.609 426.629 219.353 426.901Z" fill="#263238"/>
<path opacity="0.2" d="M225.743 408.491L223.482 418.487L231.61 418.904L233.871 408.896L225.743 408.491Z" fill="black"/>
<path d="M269.131 227.516C266.39 232.73 264.028 238.135 262.062 243.688C258.98 252.253 256.794 261.114 255.541 270.13C253.161 284.529 251.971 295.263 249.424 306.211C241.547 340.459 221.757 412.811 221.757 412.811L236.477 415.726C236.477 415.726 265.037 331.546 272.26 307.02C278.758 284.945 295.382 226.957 295.382 226.957L269.131 227.516Z" fill="#F4CD49"/>
<path opacity="0.5" d="M269.131 227.516C266.39 232.73 264.028 238.135 262.062 243.688C258.98 252.253 256.794 261.114 255.541 270.13C253.161 284.529 251.971 295.263 249.424 306.211C241.547 340.459 221.757 412.811 221.757 412.811L236.477 415.726C236.477 415.726 265.037 331.546 272.26 307.02C278.758 284.945 295.382 226.957 295.382 226.957L269.131 227.516Z" fill="black"/>
<path d="M219.984 410.098V415.31L237.667 416.845C237.667 416.845 239.119 411.121 239.048 411.121L219.984 410.098Z" fill="#F4CD49"/>
<path opacity="0.3" d="M287.695 253.636C282.459 271.843 275.795 294.87 272.225 306.96C272.058 307.543 271.868 308.15 271.689 308.793C272.76 288.706 275.997 255.005 286.053 253.553C286.6 253.46 287.16 253.489 287.695 253.636Z" fill="black"/>
<path d="M282.637 227.159C282.637 227.159 279.508 282.518 279.567 308.65C279.567 333.021 279.96 415.429 279.96 415.429L294.085 415.155C294.085 415.155 302.237 331.082 304.224 306.306C306.116 282.839 311.138 227.064 311.138 227.064L282.637 227.159Z" fill="#F4CD49"/>
<path opacity="0.5" d="M282.637 227.159C282.637 227.159 279.508 282.518 279.567 308.65C279.567 333.021 279.96 415.429 279.96 415.429L294.085 415.155C294.085 415.155 302.237 331.082 304.224 306.306C306.116 282.839 311.138 227.064 311.138 227.064L282.637 227.159Z" fill="black"/>
<path d="M277.771 410.55L278.354 415.715L295.525 415.381C295.525 415.381 296.216 409.562 296.144 409.562L277.771 410.55Z" fill="#F4CD49"/>
<path d="M323.502 197.73C327.536 198.182 331.178 192.816 331.975 188.841C333.343 182.046 329.595 175.37 325.93 169.468L312.744 148.048C312.114 147.024 316.136 153.569 313.934 149.654C312.744 147.465 308.425 147.441 306.699 151.07C311.316 159.531 312.149 166.54 314.875 175.787C315.676 177.886 315.91 180.16 315.553 182.379C314.565 186.413 306.402 183.081 308.413 186.996C309.865 189.876 314.91 196.743 323.502 197.73Z" fill="#CB7A63"/>
<path d="M310.769 162.042C317.909 168.706 321.479 182.106 321.479 182.106L308.793 188.948C308.793 188.948 293.669 176.524 295.703 165.886C297.215 157.734 302.034 153.772 310.769 162.042Z" fill="#263238"/>
<path d="M302.034 185.842L306.009 190.709L323.478 181.142L321.276 175.668L302.034 185.842Z" fill="#F4CD49"/>
<path d="M314.613 151.13C313.423 148.75 310.781 143.776 309.615 141.336C309.453 140.922 309.187 140.557 308.841 140.277C308.544 140.107 308.217 139.994 307.877 139.944C305.247 139.456 302.51 138.956 299.94 139.682C299.744 139.723 299.566 139.823 299.428 139.968C299.34 140.112 299.287 140.275 299.274 140.444C299.083 141.907 298.881 143.371 298.679 144.823C298.601 145.144 298.601 145.478 298.679 145.799C298.818 146.094 299.026 146.351 299.285 146.548C300.547 147.643 301.796 148.75 303.046 149.857C303.639 150.471 304.381 150.922 305.2 151.166C306.473 151.439 307.699 150.69 308.901 150.178C310.103 149.666 314.613 151.13 314.613 151.13Z" fill="#CB7A63"/>
</svg>
