<svg width="127" height="24" viewBox="0 0 127 24" fill="none" xmlns="http://www.w3.org/2000/svg">
<path d="M3.331 6.18894L0 9.52214V16.3588L3.44373 19.8047L8.10536 15.1431H18.7327L23.2883 19.6632L26.5596 16.3632V9.16849L23.2883 5.90601L18.4653 10.7179L7.8799 10.7202L3.331 6.18894Z" fill="#572B92"/>
<path d="M7.63898 1.85889L19.2544 1.8611L20.1562 2.76292L16.6329 6.28623H9.71672L6.45203 3.03701L7.63898 1.85889Z" fill="#572B92"/>
<path d="M18.9693 23.9999L7.35164 23.9977L6.45203 23.0959L9.97533 19.5748H16.8893L20.1562 22.824L18.9693 23.9999Z" fill="#572B92"/>
<path d="M43.9419 9.32555C43.3907 9.09544 42.7996 8.97601 42.2024 8.97409C41.5263 8.96456 40.8623 9.15362 40.2926 9.51784C39.7299 9.87319 39.2721 10.3722 38.9664 10.9634C38.6542 11.5721 38.4913 12.2465 38.4913 12.9306C38.4913 13.6148 38.6542 14.2891 38.9664 14.8978C39.2721 15.4891 39.7299 15.9881 40.2926 16.3434C40.8623 16.7076 41.5263 16.8967 42.2024 16.8872C42.7996 16.8852 43.3907 16.7658 43.9419 16.5357C44.4896 16.3204 45.001 16.0222 45.4582 15.6516V18.7262C44.4397 19.329 43.2729 19.6353 42.0896 19.6103C40.8835 19.63 39.6936 19.3295 38.6415 18.7394C37.6407 18.176 36.8153 17.3468 36.2565 16.3434C35.6922 15.2984 35.3967 14.1294 35.3967 12.9417C35.3967 11.754 35.6922 10.585 36.2565 9.53994C36.8145 8.5343 37.64 7.70272 38.6415 7.13729C39.6944 6.54935 40.8838 6.2497 42.0896 6.26862C43.2729 6.24366 44.4397 6.54989 45.4582 7.15277V10.2274C45.0022 9.8505 44.4907 9.54632 43.9419 9.32555Z" fill="#572B92"/>
<path d="M51.5166 8.04789C51.8822 7.52945 52.3777 7.11629 52.9534 6.84988C53.5529 6.55953 54.2103 6.4084 54.8764 6.40781C55.3527 6.40071 55.8267 6.47547 56.2777 6.62885L55.8931 9.20611C55.5159 9.11144 55.1282 9.06539 54.7393 9.06907C54.31 9.05097 53.8815 9.11997 53.4796 9.27192C53.0777 9.42387 52.7107 9.65562 52.4008 9.95321C51.804 10.5426 51.5093 11.485 51.5166 12.7803V19.1903H48.442L48.4177 6.62221H51.5122L51.5166 8.04789Z" fill="#572B92"/>
<path d="M65.8817 16.6263C66.4519 16.3616 66.9637 15.9859 67.387 15.5211L69.352 17.3756C68.0405 18.8492 66.2324 19.5859 63.9278 19.5859C62.6929 19.6114 61.4731 19.311 60.3912 18.7151C59.3852 18.1548 58.5554 17.3251 57.9952 16.319C57.4249 15.2819 57.1346 14.114 57.153 12.9306C57.1392 11.7523 57.4236 10.5897 57.9797 9.55094C58.5072 8.553 59.2975 7.71833 60.2652 7.13723C61.2619 6.54402 62.4033 6.23803 63.5631 6.25309C64.7179 6.23852 65.8536 6.54864 66.8408 7.14812C67.8279 7.74761 68.6268 8.61234 69.1464 9.64378C69.7379 10.8065 70.0332 12.0972 70.0063 13.4014C70.0093 13.605 70.002 13.8086 69.9841 14.0114H60.3337C60.4987 14.8468 60.9449 15.6003 61.5981 16.1466C62.2439 16.7063 63.0733 17.0084 63.9278 16.9954C64.598 17.0134 65.2643 16.8876 65.8817 16.6263ZM61.461 9.61946C60.8658 10.1831 60.4695 10.9245 60.3315 11.7326H66.7725C66.6611 10.9211 66.2703 10.1738 65.6673 9.61946C65.0979 9.07864 64.3395 8.78196 63.5542 8.79279C62.7758 8.78374 62.025 9.08058 61.4632 9.61946H61.461Z" fill="#572B92"/>
<path d="M82.2162 19.2146V18.0166C81.7066 18.5226 81.0988 18.919 80.4302 19.1814C79.7271 19.4614 78.9767 19.6032 78.2199 19.5992C77.0966 19.6147 75.9919 19.3128 75.0326 18.7283C74.0824 18.1479 73.3083 17.3196 72.7935 16.3323C72.2584 15.2782 71.9795 14.1127 71.9795 12.9306C71.9795 11.7484 72.2584 10.5829 72.7935 9.52883C73.3079 8.54387 74.0803 7.71721 75.0281 7.13723C75.9866 6.54943 77.0911 6.24305 78.2155 6.25309C78.9722 6.24906 79.7227 6.3909 80.4258 6.67085C81.0943 6.93326 81.7021 7.32966 82.2118 7.83569V0H85.2908V19.2146H82.2162ZM80.669 16.3898C81.2361 16.0436 81.6954 15.546 81.9952 14.953C82.3076 14.3246 82.4703 13.6324 82.4703 12.9306C82.4703 12.2288 82.3076 11.5365 81.9952 10.9081C81.6947 10.3109 81.2319 9.81059 80.6598 9.46457C80.0878 9.11856 79.4298 8.94088 78.7614 8.95193C78.0785 8.94077 77.4072 9.12895 76.8296 9.49346C76.2693 9.84968 75.8193 10.3548 75.5299 10.9523C75.2316 11.5691 75.0767 12.2454 75.0767 12.9306C75.0767 13.6157 75.2316 14.292 75.5299 14.9088C75.8193 15.5063 76.2693 16.0114 76.8296 16.3677C77.4072 16.7322 78.0785 16.9204 78.7614 16.9092C79.4328 16.9188 80.0932 16.7387 80.6667 16.3898H80.669Z" fill="#572B92"/>
<path d="M98.1772 19.2146V18.0165C97.6676 18.5226 97.0598 18.919 96.3913 19.1814C95.6881 19.4613 94.9377 19.6032 94.1809 19.5992C93.0577 19.6146 91.9529 19.3128 90.9936 18.7283C90.0452 18.1476 89.2734 17.3192 88.7611 16.3322C88.226 15.2781 87.9471 14.1127 87.9471 12.9305C87.9471 11.7484 88.226 10.5829 88.7611 9.52879C89.2731 8.54422 90.0433 7.71749 90.9892 7.13719C91.9477 6.54938 93.0521 6.24301 94.1765 6.25305C94.9333 6.24902 95.6837 6.39086 96.3868 6.67081C97.0554 6.93322 97.6632 7.32962 98.1728 7.83565V6.63765H101.247V19.2057L98.1772 19.2146ZM96.63 16.3897C97.1971 16.0436 97.6564 15.546 97.9562 14.953C98.2687 14.3246 98.4313 13.6323 98.4313 12.9305C98.4313 12.2287 98.2687 11.5364 97.9562 10.908C97.6562 10.3119 97.1944 9.81225 96.6237 9.4663C96.053 9.12035 95.3964 8.94209 94.7291 8.95189C94.0462 8.94073 93.3748 9.12891 92.7972 9.49342C92.237 9.84963 91.787 10.3548 91.4975 10.9523C91.1993 11.5691 91.0444 12.2454 91.0444 12.9305C91.0444 13.6157 91.1993 14.292 91.4975 14.9088C91.787 15.5063 92.237 16.0114 92.7972 16.3676C93.3748 16.7321 94.0462 16.9203 94.7291 16.9092C95.3982 16.9175 96.0561 16.7375 96.6278 16.3897H96.63Z" fill="#572B92"/>
<path d="M107.739 8.04791C108.109 7.52868 108.608 7.11557 109.187 6.8499C109.786 6.55987 110.442 6.40876 111.108 6.40783C111.585 6.40056 112.06 6.47533 112.511 6.62887L112.127 9.20613C111.75 9.11146 111.362 9.06541 110.973 9.06909C110.543 9.0512 110.115 9.12029 109.712 9.27222C109.31 9.42416 108.943 9.65579 108.632 9.95323C108.043 10.5427 107.748 11.485 107.748 12.7803V19.1903H104.676L104.654 6.62223H107.748L107.739 8.04791Z" fill="#572B92"/>
<path d="M123.61 19.2146V18.0166C123.1 18.5226 122.492 18.919 121.824 19.1814C121.121 19.4618 120.37 19.6036 119.613 19.5992C118.49 19.6138 117.386 19.312 116.426 18.7283C115.473 18.1489 114.697 17.3204 114.18 16.3323C113.645 15.2782 113.366 14.1127 113.366 12.9306C113.366 11.7484 113.645 10.5829 114.18 9.52883C114.696 8.54302 115.471 7.71627 116.421 7.13723C117.38 6.54976 118.485 6.2434 119.609 6.25309C120.366 6.24867 121.116 6.39053 121.819 6.67085C122.488 6.93326 123.095 7.32966 123.605 7.83569V0H126.68V19.2146H123.61ZM122.062 16.3898C122.63 16.0439 123.089 15.5462 123.389 14.953C123.701 14.3246 123.864 13.6324 123.864 12.9306C123.864 12.2288 123.701 11.5365 123.389 10.9081C123.089 10.3085 122.626 9.80635 122.052 9.46003C121.478 9.11371 120.818 8.9375 120.148 8.95193C119.465 8.94085 118.793 9.12901 118.214 9.49346C117.654 9.84968 117.204 10.3548 116.914 10.9523C116.616 11.5691 116.461 12.2454 116.461 12.9306C116.461 13.6157 116.616 14.292 116.914 14.9088C117.204 15.5063 117.654 16.0114 118.214 16.3677C118.793 16.7321 119.465 16.9203 120.148 16.9092C120.822 16.9199 121.486 16.7398 122.062 16.3898Z" fill="#572B92"/>
</svg>
