<svg width="14" height="16" viewBox="0 0 14 16" fill="none" xmlns="http://www.w3.org/2000/svg">
<path d="M7.05647 0.157593C6.44926 0.157593 6.2184 0.643611 6.2654 1.58517C6.2966 2.20585 6.50565 3.93627 5.62962 4.81313C4.81261 5.63056 4.57498 5.55795 3.64403 6.61349C2.71347 7.66865 1.93783 7.45161 0.851989 7.35831C-0.512085 7.24133 -0.0473716 14.8145 0.914018 14.6832C1.59644 14.5899 3.14775 14.4037 3.39589 14.4037C3.64403 14.4037 5.34575 15.7226 6.83952 15.7384C9.259 15.7636 10.5933 15.3347 10.5933 15.3347L11.3025 13.7254L11.5397 8.81863L10.4069 6.45814C10.4069 6.45814 8.88678 6.7064 8.4525 6.02364C8.01825 5.34091 8.79389 4.50279 8.79389 2.54742C8.79389 0.592074 7.36666 0.157593 7.05647 0.157593Z" fill="url(#paint0_linear_724_7226)"/>
<path d="M10.6779 15.3203L10.5858 14.9844C10.3132 14.9554 9.9624 15.0796 9.4834 15.0758C7.19552 15.0581 5.0084 14.401 4.06995 13.6576C3.45523 13.1709 3.18564 12.5231 2.75139 12.7093C2.2156 12.9391 0.695509 13.2965 0.136414 12.5886C0.292822 13.7998 0.571793 14.7297 0.913946 14.6831C1.59636 14.5898 3.14768 14.4036 3.39582 14.4036C3.64396 14.4036 5.29831 15.6878 6.83945 15.7382C8.8333 15.8033 10.6042 15.4599 10.6042 15.4599L10.6779 15.3203Z" fill="url(#paint1_linear_724_7226)"/>
<path d="M1.82096 7.83646C2.72069 8.08472 3.29219 7.67394 3.75203 7.11495C4.20885 6.55973 4.60512 6.06729 5.75301 5.32248C6.90088 4.57764 6.75349 2.52901 6.66026 1.84625C6.56701 1.16349 6.62904 0.157593 7.05655 0.157593C6.44932 0.157593 6.21849 0.643611 6.26547 1.58517C6.29669 2.20588 6.50572 3.93627 5.62969 4.81313C4.81267 5.63056 4.57505 5.55795 3.64412 6.61349C2.71356 7.66868 1.93789 7.45161 0.852051 7.35833C0.852443 7.59383 0.921236 7.58817 1.82096 7.83646Z" fill="url(#paint2_linear_724_7226)"/>
<path d="M8.45251 6.02367C8.01826 5.34091 8.7939 4.50279 8.7939 2.54742C8.7939 0.592074 7.36704 0.157593 7.05648 0.157593C6.97489 0.157593 6.90232 0.166621 6.83728 0.183924C8.10286 0.263297 8.86498 1.86015 8.42884 3.50667C8.07502 4.84284 7.89869 5.91419 8.47658 6.5424C8.8503 6.94906 9.59362 6.87982 10.4072 6.45814C10.4069 6.45814 8.88679 6.7064 8.45251 6.02367Z" fill="url(#paint3_linear_724_7226)"/>
<path d="M8.53782 6.72034C7.79338 6.96862 5.91307 7.55282 4.48885 8.84499C0.8794 12.1196 7.04177 12.53 8.31449 15.3306C8.55775 15.8659 9.97971 12.5232 9.97971 12.5232L10.4396 11.749L9.11082 8.20886L8.53782 6.72034Z" fill="url(#paint4_linear_724_7226)"/>
<path d="M8.64711 7.00397C7.90266 7.25226 4.86133 9.2016 4.86133 10.1642C4.86133 12.9423 6.9676 11.5711 8.10608 14.8491C8.26362 15.3031 8.82046 15.685 8.82046 15.685C9.28179 15.3084 9.97999 12.5232 9.97999 12.5232L10.4398 11.7491L9.11109 8.20887L8.64711 7.00397Z" fill="url(#paint5_linear_724_7226)"/>
<path d="M10.3655 15.5186L11.7905 13.8886L12.1044 7.07948L8.53744 6.71985C7.71854 7.16072 7.62379 7.76373 7.92796 8.73201C8.05581 9.1394 7.53581 9.25601 7.50236 10.4428C7.47905 11.2655 8.01746 11.2693 8.01746 11.5138C8.01746 11.7583 7.74937 11.7365 7.66026 12.4449C7.53319 13.4583 8.3814 13.4778 8.3814 13.6945C8.3814 13.9112 7.91029 14.0398 7.93926 14.8659C7.97609 15.9136 6.0315 15.7018 4.71668 14.7485C4.17678 14.357 3.70567 14.3167 3.33795 14.4055C3.36089 14.4043 3.38045 14.4036 3.3951 14.4036C3.64324 14.4036 5.30999 15.7383 6.83874 15.7383C8.62655 15.7383 9.86279 15.6337 10.3655 15.5186Z" fill="url(#paint6_linear_724_7226)"/>
<path d="M10.6933 7.16907C9.59202 7.16907 8.98708 8.24567 9.40591 9.07288C9.82475 9.90009 8.63027 10.9951 8.75433 11.5342C8.87841 12.0733 9.09572 13.4376 9.26605 13.6633C9.43674 13.889 8.98668 14.401 8.98668 14.401L10.3827 14.5718L11.6855 13.997L11.6389 10.0558L11.7784 7.58813L10.6933 7.16907Z" fill="url(#paint7_linear_724_7226)"/>
<path d="M3.64406 6.61348C3.03948 7.29886 2.50031 7.44745 1.89911 7.44182C2.07245 7.7217 2.19313 8.02753 2.18073 8.3266C2.14801 9.11055 2.32059 10.0769 2.45257 9.0718C2.55295 8.30628 3.0718 7.36018 3.69594 6.55518C3.67903 6.57437 3.6621 6.59316 3.64406 6.61348Z" fill="url(#paint8_linear_724_7226)"/>
<path d="M11.5276 6.42729C10.2256 6.37764 7.88471 6.3039 7.83243 7.66868C7.79484 8.65838 8.49642 8.98303 9.58153 9.0244C10.6666 9.0658 11.2092 9.08648 11.6585 9.10342C12.1078 9.12033 13.5215 9.11207 13.5354 7.91695C13.5527 6.42391 11.5276 6.42729 11.5276 6.42729Z" fill="url(#paint9_linear_724_7226)"/>
<path d="M9.38601 11.3608C9.03709 11.3506 8.00049 11.6121 7.90349 12.2708C7.82717 12.7888 8.09149 13.458 8.99347 13.616C10.1361 13.8161 12.0401 13.9211 12.7514 13.6547C13.0691 13.5359 13.3462 13.2029 13.3609 12.6985C13.3756 12.194 13.0011 11.5143 12.1871 11.4906C11.3731 11.4673 10.949 11.4797 10.485 11.4248C9.92704 11.3593 9.66498 11.3691 9.38601 11.3608Z" fill="url(#paint10_linear_724_7226)"/>
<path d="M9.0224 13.6629C8.62684 13.6629 8.13806 14.012 8.13806 14.594C8.13806 15.1759 8.28922 15.6066 9.13856 15.7695C9.98791 15.9324 11.349 15.7928 11.8607 15.6299C12.2596 15.5028 12.4074 15.1296 12.4074 14.5127C12.4074 13.8958 12.0239 13.7878 11.605 13.7878C11.1862 13.7878 10.6778 13.8642 10.3876 13.8491C9.57696 13.8062 9.41793 13.6629 9.0224 13.6629Z" fill="url(#paint11_linear_724_7226)"/>
<path d="M11.4168 6.70267C10.2798 6.65939 8.23558 6.59356 8.19457 7.67244C8.16487 8.45488 8.7785 8.71368 9.72597 8.7498C10.6734 8.7859 13.1662 8.83142 13.1745 7.88686C13.1846 6.70642 11.4168 6.70267 11.4168 6.70267Z" fill="url(#paint12_linear_724_7226)"/>
<path d="M9.49108 11.6391C9.18728 11.6304 8.33682 11.7026 8.25523 12.332C8.19994 12.7578 8.42066 13.3048 9.20608 13.4353C10.2013 13.6008 11.8587 13.6896 12.4779 13.4726C12.7542 13.3755 12.9952 13.1035 13.0069 12.6901C13.0189 12.2767 12.6381 11.77 11.9297 11.7493C11.2214 11.7286 10.8443 11.7944 10.4401 11.7485C9.9543 11.694 9.73395 11.6458 9.49108 11.6391Z" fill="url(#paint13_linear_724_7226)"/>
<path d="M9.19168 13.8752C8.84953 13.8752 8.42694 14.1562 8.42694 14.6249C8.42694 15.0936 8.55779 15.4404 9.29246 15.5713C10.0271 15.7023 11.2043 15.5902 11.6472 15.4589C11.992 15.3566 12.1202 15.056 12.1202 14.5591C12.1202 14.0621 11.7882 13.9756 11.4258 13.9756C11.0633 13.9756 10.6238 14.0373 10.3727 14.0249C9.67108 13.9907 9.53347 13.8752 9.19168 13.8752Z" fill="url(#paint14_linear_724_7226)"/>
<path d="M8.98307 7.67299C9.01128 6.92967 9.60383 6.57343 10.3524 6.40942C9.15752 6.43726 7.87091 6.6607 7.83219 7.66848C7.79459 8.65821 8.49618 8.98283 9.58126 9.0242C9.70083 9.02874 9.81325 9.03325 9.92003 9.037C9.31094 8.8587 8.95337 8.45656 8.98307 7.67299Z" fill="url(#paint15_linear_724_7226)"/>
<path d="M9.08521 6.54395C8.39 6.69592 7.85686 7.02469 7.83243 7.66834C7.80123 8.49104 8.28136 8.85404 9.06752 8.97705C7.47263 8.34019 8.04486 6.77152 9.08521 6.54395Z" fill="url(#paint16_linear_724_7226)"/>
<path d="M7.23393 14.3638C7.05007 14.7862 6.17515 14.813 5.27956 14.4229C4.38397 14.0331 3.80721 13.3745 3.99106 12.9517C4.17492 12.5292 5.04982 12.5025 5.94543 12.8926C6.84065 13.2827 7.41779 13.9414 7.23393 14.3638Z" fill="url(#paint17_radial_724_7226)"/>
<path d="M12.5029 7.87257C12.4939 8.44362 11.7307 8.71446 10.8956 8.76524C10.2128 8.80661 9.45481 8.32324 9.47437 7.76537C9.49393 7.2075 9.59318 6.71321 11.0121 6.76249C11.8483 6.79146 12.5116 7.3147 12.5029 7.87257Z" fill="url(#paint18_radial_724_7226)"/>
<path d="M12.6546 12.8922C12.6497 13.6829 11.7808 13.5313 10.9457 13.5863C9.88697 13.6562 9.185 13.3263 9.18463 12.7681C9.18387 12.2098 9.58656 11.8032 11.0067 11.8009C11.8432 11.7998 12.6606 11.8765 12.6546 12.8922Z" fill="url(#paint19_radial_724_7226)"/>
<path d="M11.889 14.8859C11.8848 15.56 11.0953 15.6518 10.3471 15.6522C9.59886 15.6529 8.78674 15.2561 8.78638 14.7802C8.78599 14.3044 9.14581 13.9575 10.4155 13.9556C11.1633 13.9545 11.8943 14.02 11.889 14.8859Z" fill="url(#paint20_radial_724_7226)"/>
<path d="M8.87443 12.4311C8.99325 11.5309 9.68356 11.5836 10.475 11.4903C9.56398 11.4222 9.18161 11.4124 9.18161 11.4124C9.09665 11.4041 9.00151 11.4038 8.90264 11.4139C8.60673 11.479 8.27135 11.6137 8.07207 11.8665C8.00441 11.9628 7.94951 12.0764 7.91341 12.211C7.90966 12.2306 7.90589 12.2505 7.90363 12.2709C7.83935 12.7907 8.09163 13.4581 8.99361 13.6161C9.1237 13.639 9.26396 13.6604 9.41096 13.6804C9.48127 13.6894 9.55798 13.6988 9.6403 13.7094C9.6625 13.712 9.68468 13.7146 9.70723 13.7173C9.20943 13.4821 8.78682 13.0928 8.87443 12.4311Z" fill="url(#paint21_linear_724_7226)"/>
<path d="M9.09461 11.4066C9.03331 11.4048 8.96827 11.407 8.90173 11.4138C8.6032 11.4796 8.26482 11.6162 8.06668 11.8731C8.00124 11.9679 7.9486 12.08 7.91326 12.2113C7.90951 12.2308 7.90686 12.2504 7.90348 12.2707C7.81212 12.7827 8.06555 13.3861 8.8536 13.5858C7.50908 12.844 8.08283 11.4074 9.09461 11.4066Z" fill="url(#paint22_linear_724_7226)"/>
<path d="M9.87747 13.8003C9.48005 13.742 9.31688 13.6627 9.02286 13.6627C8.62733 13.6627 8.13855 14.0117 8.13855 14.5937C8.13855 14.8051 8.15887 14.9962 8.22465 15.1621C8.29158 15.299 8.38897 15.4273 8.52244 15.5356C8.66907 15.638 8.86834 15.7173 9.13866 15.7692C9.32026 15.8042 9.52557 15.8249 9.74062 15.8351C9.32553 15.5939 8.62245 15.4641 8.76982 14.6569C8.93262 13.7653 9.46464 13.8857 9.87747 13.8003Z" fill="url(#paint23_linear_724_7226)"/>
<path d="M9.00519 13.6634C8.61304 13.6735 8.13855 14.0208 8.13855 14.594C8.13855 15.1271 8.26601 15.5334 8.94054 15.7229C7.88703 15.0458 8.22504 13.9034 9.00519 13.6634Z" fill="url(#paint24_linear_724_7226)"/>
<path d="M13.5354 7.91699C13.5369 7.78308 13.5218 7.66157 13.4936 7.5506C13.5985 8.01705 13.1831 8.48052 12.0818 8.70545C11.352 8.85443 9.41383 9.04064 8.07269 8.50797C8.3622 8.85782 8.89498 8.99776 9.58151 9.02408C10.6666 9.06547 11.2091 9.08616 11.6585 9.10309C12.1078 9.12076 13.5211 9.11211 13.5354 7.91699Z" fill="url(#paint25_linear_724_7226)"/>
<path d="M13.361 12.6669C13.3595 12.1658 12.9839 11.5139 12.1868 11.4909C11.3728 11.4676 10.9487 11.48 10.4848 11.4251C9.92716 11.3593 9.6651 11.3691 9.38613 11.3612C9.17519 11.3551 8.65484 11.4187 8.30103 11.6388C8.69884 11.7768 9.34702 11.9845 10.2592 11.9262C12.4448 11.7855 13.0666 12.0499 13.361 12.6669Z" fill="url(#paint26_linear_724_7226)"/>
<path d="M8.91723 9.10299C8.45214 9.09358 7.71333 9.36743 7.69417 10.3338C7.67498 11.2998 8.51981 11.5301 8.89203 11.5376C9.26428 11.5451 10.5655 11.6339 12.1706 11.6659C13.7757 11.6978 13.9908 10.836 13.9998 10.3846C14.0088 9.93282 13.7227 9.11615 12.7572 9.0966C9.96547 9.04055 8.91723 9.10299 8.91723 9.10299Z" fill="url(#paint27_linear_724_7226)"/>
<path d="M9.16683 9.38324C8.76228 9.37535 8.12086 9.58526 8.10618 10.3304C8.09116 11.076 8.8262 11.2551 9.14955 11.2615C9.47327 11.2679 10.6046 11.339 11.9999 11.3668C13.3952 11.3946 13.5805 10.7303 13.5873 10.3816C13.5944 10.0333 13.5463 9.4028 12.7067 9.38586C10.2805 9.33773 9.16683 9.38324 9.16683 9.38324Z" fill="url(#paint28_linear_724_7226)"/>
<path d="M8.69239 10.2405C8.73901 9.24858 9.4312 9.24556 10.2125 9.0744C9.29886 9.08004 8.91723 9.10261 8.91723 9.10261C8.45214 9.0932 7.71333 9.36707 7.69417 10.3335C7.67498 11.2995 8.51981 11.5297 8.89203 11.5372C9.02626 11.5399 9.28156 11.553 9.62746 11.5703C9.11162 11.3578 8.65818 10.9703 8.69239 10.2405Z" fill="url(#paint29_linear_724_7226)"/>
<path d="M13.1825 10.3433C13.2149 11.1333 12.3377 11.2819 11.5019 11.3218C10.6661 11.3616 9.73702 10.9392 9.71033 10.3817C9.68362 9.82423 10.0667 9.39916 11.485 9.33032C12.3208 9.29005 13.1412 9.32843 13.1825 10.3433Z" fill="url(#paint30_radial_724_7226)"/>
<path d="M8.8304 9.10461C8.36569 9.12944 7.71224 9.42589 7.69417 10.3336C7.67577 11.2522 8.43825 11.5054 8.83342 11.5343C7.30428 10.917 7.80549 9.19566 8.8304 9.10461Z" fill="url(#paint31_linear_724_7226)"/>
<path d="M13.997 10.2869C13.7955 11.7163 10.018 11.4545 7.97675 11.1475C8.25236 11.4428 8.66218 11.5323 8.89189 11.5373C9.26411 11.5448 10.5654 11.6335 12.1705 11.6655C13.7755 11.6975 13.9906 10.8357 13.9996 10.3843C14 10.3534 13.9993 10.3207 13.997 10.2869Z" fill="url(#paint32_linear_724_7226)"/>
<path d="M12.1049 13.47C11.3732 13.5024 9.43727 13.7432 8.02582 12.9867C8.18335 13.2793 8.48828 13.528 8.99324 13.6164C10.1358 13.8165 12.0398 13.9215 12.7512 13.6551C13.0689 13.5363 13.346 13.2034 13.3607 12.6989C13.3137 13.1375 12.8959 13.4351 12.1049 13.47Z" fill="url(#paint33_linear_724_7226)"/>
<path d="M12.3516 15.0585C11.8723 15.4233 11.0436 15.6389 9.84794 15.4369C9.10952 15.312 8.60343 15.2695 8.27069 15.2605C8.40379 15.5012 8.66058 15.678 9.13883 15.7698C9.98819 15.9327 11.3493 15.7931 11.861 15.6302C12.1238 15.546 12.2772 15.3549 12.3516 15.0585Z" fill="url(#paint34_linear_724_7226)"/>
<path d="M8.29529 14.0703C9.1811 13.7476 9.61537 14.2264 10.5632 14.2264C11.5476 14.2264 12.0168 13.8288 12.3664 14.2069C12.2567 13.8582 11.9423 13.7878 11.6051 13.7878C11.1862 13.7878 10.6779 13.8642 10.3873 13.8491C9.57665 13.8066 9.41799 13.6629 9.02243 13.6629C8.7664 13.6629 8.47162 13.8092 8.29529 14.0703Z" fill="url(#paint35_linear_724_7226)"/>
<path d="M0.914499 14.6832C1.59689 14.5899 3.14821 14.4037 3.39635 14.4037C1.14646 12.7948 2.14697 9.3727 2.97675 7.64194C3.09331 7.39892 3.16512 7.19955 3.20386 7.03027C2.45528 7.6013 1.76271 7.43654 0.852077 7.35829C-0.511997 7.24131 -0.0469155 14.8144 0.914499 14.6832Z" fill="url(#paint36_linear_724_7226)"/>
<path d="M2.33307 13.1284C2.10034 12.818 2.30187 13.4853 2.48835 13.9665C2.64664 14.3758 1.4326 14.1339 0.50354 14.2343C0.624976 14.5341 0.763714 14.7038 0.914486 14.6831C1.5969 14.5898 3.14822 14.4036 3.39636 14.4036C3.04632 14.1061 2.56543 13.4387 2.33307 13.1284Z" fill="url(#paint37_linear_724_7226)"/>
<path d="M3.39582 14.4042C3.20295 14.2398 2.97022 13.9629 2.76078 13.6955C2.76078 13.6955 1.63134 14.2737 0.420288 14.0017C0.559786 14.4441 0.727468 14.7089 0.913947 14.6833C1.59673 14.5904 3.14768 14.4042 3.39582 14.4042Z" fill="url(#paint38_linear_724_7226)"/>
<path d="M7.67428 3.07158C7.23211 3.16713 6.87381 2.55623 6.67152 1.84337C6.50609 1.26031 6.73093 0.517735 7.16518 0.434222C7.59946 0.350337 8.00026 0.346573 8.23975 1.58232C8.38037 2.3102 8.10664 2.97828 7.67428 3.07158Z" fill="url(#paint39_radial_724_7226)"/>
<path d="M9.00513 13.6633C8.76187 13.6889 8.54155 13.8194 8.39001 13.9989C8.23623 14.1798 8.16442 14.416 8.18023 14.6534C8.18172 14.8923 8.21782 15.1364 8.35318 15.3298C8.48741 15.525 8.71298 15.6412 8.94046 15.7229C8.70584 15.6698 8.46033 15.5728 8.30316 15.367C8.14374 15.1635 8.1069 14.8983 8.09901 14.6549C8.08847 14.4059 8.1678 14.1411 8.3434 13.9575C8.5137 13.772 8.75962 13.6584 9.00513 13.6633Z" fill="#804B24"/>
<path d="M8.61492 11.4982C8.45474 11.5678 8.30698 11.6629 8.18479 11.7814C8.06034 11.8984 7.99417 12.0587 7.94868 12.2212L7.94905 12.2185C7.8904 12.515 7.94003 12.8306 8.11411 13.077C8.28404 13.3268 8.56003 13.49 8.85329 13.5856C8.55137 13.5273 8.24721 13.3802 8.0562 13.118C7.96184 12.989 7.89641 12.8381 7.86481 12.6805C7.83286 12.5229 7.84754 12.3581 7.87685 12.2043L7.87761 12.2016C7.92535 12.0308 8.01034 11.8597 8.15058 11.7442C8.2848 11.6249 8.44947 11.5516 8.61492 11.4982Z" fill="#804B24"/>
<path d="M8.83031 9.10413C8.54269 9.13684 8.26446 9.25647 8.06633 9.45772C7.86743 9.65898 7.75989 9.93621 7.74261 10.2187C7.71364 10.5001 7.75915 10.7939 7.92007 11.0275C8.07873 11.2618 8.33815 11.4191 8.61563 11.5003C8.33139 11.4484 8.04864 11.3081 7.86892 11.064C7.68546 10.8217 7.63696 10.5046 7.66139 10.2119C7.68546 9.91778 7.80087 9.61759 8.02271 9.41334C8.24228 9.20681 8.54044 9.10714 8.83031 9.10413Z" fill="#804B24"/>
<path d="M9.08521 6.54395C8.77766 6.6282 8.47198 6.74444 8.22947 6.94421C7.98508 7.14282 7.85274 7.44941 7.87306 7.7635C7.86892 8.07536 7.97079 8.39359 8.20766 8.60012C8.44115 8.80927 8.75622 8.91085 9.06717 8.97705C8.75171 8.93982 8.42348 8.86081 8.16668 8.64715C7.90386 8.43648 7.79221 8.08739 7.79184 7.76426C7.7749 7.43585 7.92269 7.09204 8.19038 6.89568C8.45281 6.69442 8.77127 6.59963 9.08521 6.54395Z" fill="#804B24"/>
<path d="M8.026 12.9863C8.23767 13.3531 8.64448 13.5431 9.04641 13.5972C9.45549 13.6604 9.86756 13.7037 10.2808 13.73C10.6932 13.765 11.1072 13.7868 11.5211 13.7853C11.7279 13.7827 11.9351 13.7774 12.1408 13.7571C12.3464 13.7406 12.554 13.7195 12.7517 13.6544C12.3603 13.8015 11.9358 13.8248 11.5223 13.8395C11.1064 13.85 10.6902 13.8384 10.2751 13.8113C9.8608 13.7755 9.4476 13.7233 9.03775 13.6507C8.83172 13.6168 8.62644 13.5528 8.44597 13.443C8.26625 13.332 8.11886 13.1722 8.026 12.9863Z" fill="#804B24"/>
<path d="M7.97675 11.1475C8.13541 11.3055 8.33958 11.4097 8.55275 11.4628C8.76482 11.5263 8.98779 11.5124 9.21186 11.5226L10.55 11.5613L11.8874 11.6271C12.331 11.6542 12.7826 11.6602 13.2078 11.5147C12.7935 11.6915 12.328 11.7058 11.8862 11.6813L10.5481 11.6426L9.21073 11.5764C8.99078 11.5613 8.75955 11.5718 8.54187 11.5008C8.32679 11.4334 8.12565 11.3149 7.97675 11.1475Z" fill="#804B24"/>
<path d="M12.7571 9.09639C12.4371 9.09715 12.1168 9.10617 11.7968 9.10318L10.8369 9.10504L9.87741 9.11823C9.55783 9.12009 9.23749 9.12198 8.91904 9.13477H8.91642C8.60171 9.1295 8.27573 9.23709 8.04901 9.46242C7.81778 9.68549 7.70875 10.0101 7.69409 10.3336C7.69671 10.1715 7.71402 10.0079 7.76365 9.85101C7.81403 9.69453 7.90013 9.54819 8.01706 9.43043C8.25017 9.19082 8.5863 9.07196 8.91791 9.0712H8.91529C9.55634 9.03245 10.1966 9.03208 10.8369 9.04223C11.4776 9.04939 12.1175 9.06142 12.7571 9.09639Z" fill="#804B24"/>
<defs>
<linearGradient id="paint0_linear_724_7226" x1="10.4573" y1="7.81891" x2="5.7904" y2="8.00617" gradientUnits="userSpaceOnUse">
<stop offset="0.00132565" stop-color="#FFCB4B"/>
<stop offset="1" stop-color="#FFD748"/>
</linearGradient>
<linearGradient id="paint1_linear_724_7226" x1="5.41991" y1="14.2901" x2="5.32607" y2="11.836" gradientUnits="userSpaceOnUse">
<stop offset="0.00132565" stop-color="#FFCB4B"/>
<stop offset="1" stop-color="#FFD748"/>
</linearGradient>
<linearGradient id="paint2_linear_724_7226" x1="4.82179" y1="5.05162" x2="8.33745" y2="10.0781" gradientUnits="userSpaceOnUse">
<stop offset="0.00132565" stop-color="#FFCB4B"/>
<stop offset="1" stop-color="#FFD748"/>
</linearGradient>
<linearGradient id="paint3_linear_724_7226" x1="2.27757" y1="3.04897" x2="11.2818" y2="3.72335" gradientUnits="userSpaceOnUse">
<stop offset="0.3118" stop-color="#FFBC47" stop-opacity="0"/>
<stop offset="1" stop-color="#FF8900"/>
</linearGradient>
<linearGradient id="paint4_linear_724_7226" x1="2.10606" y1="11.0546" x2="13.9302" y2="11.0546" gradientUnits="userSpaceOnUse">
<stop stop-color="#FFBC47" stop-opacity="0"/>
<stop offset="1" stop-color="#FFA754"/>
</linearGradient>
<linearGradient id="paint5_linear_724_7226" x1="0.199393" y1="11.0724" x2="23.5592" y2="11.8166" gradientUnits="userSpaceOnUse">
<stop stop-color="#FFBC47" stop-opacity="0"/>
<stop offset="1" stop-color="#C86F34"/>
</linearGradient>
<linearGradient id="paint6_linear_724_7226" x1="3.91116" y1="14.1249" x2="7.77432" y2="12.0315" gradientUnits="userSpaceOnUse">
<stop stop-color="#FFBC47" stop-opacity="0"/>
<stop offset="1" stop-color="#C86F34"/>
</linearGradient>
<linearGradient id="paint7_linear_724_7226" x1="8.33652" y1="11.1528" x2="11.5579" y2="10.7297" gradientUnits="userSpaceOnUse">
<stop stop-color="#643800" stop-opacity="0"/>
<stop offset="1" stop-color="#643800"/>
</linearGradient>
<linearGradient id="paint8_linear_724_7226" x1="2.61942" y1="4.04098" x2="3.31813" y2="15.6104" gradientUnits="userSpaceOnUse">
<stop stop-color="#FFBC47" stop-opacity="0"/>
<stop offset="1" stop-color="#FFA754"/>
</linearGradient>
<linearGradient id="paint9_linear_724_7226" x1="13.3147" y1="7.75642" x2="8.74346" y2="7.75642" gradientUnits="userSpaceOnUse">
<stop offset="0.00132565" stop-color="#FFBC47"/>
<stop offset="1" stop-color="#FFD748"/>
</linearGradient>
<linearGradient id="paint10_linear_724_7226" x1="13.3146" y1="12.5875" x2="8.74089" y2="12.5875" gradientUnits="userSpaceOnUse">
<stop offset="0.00132565" stop-color="#FFBC47"/>
<stop offset="1" stop-color="#FFD748"/>
</linearGradient>
<linearGradient id="paint11_linear_724_7226" x1="13.3146" y1="14.7524" x2="8.7434" y2="14.7524" gradientUnits="userSpaceOnUse">
<stop offset="0.00132565" stop-color="#FFBC47"/>
<stop offset="1" stop-color="#FFD748"/>
</linearGradient>
<linearGradient id="paint12_linear_724_7226" x1="8.12723" y1="7.77908" x2="10.5082" y2="7.72482" gradientUnits="userSpaceOnUse">
<stop offset="0.00132565" stop-color="#FFCB4B"/>
<stop offset="1" stop-color="#FFD748"/>
</linearGradient>
<linearGradient id="paint13_linear_724_7226" x1="12.2911" y1="12.6198" x2="9.86406" y2="12.6198" gradientUnits="userSpaceOnUse">
<stop offset="0.00132565" stop-color="#FFCB4B"/>
<stop offset="1" stop-color="#FFD748"/>
</linearGradient>
<linearGradient id="paint14_linear_724_7226" x1="12.291" y1="14.7526" x2="9.86395" y2="14.7526" gradientUnits="userSpaceOnUse">
<stop offset="0.00132565" stop-color="#FFCB4B"/>
<stop offset="1" stop-color="#FFD748"/>
</linearGradient>
<linearGradient id="paint15_linear_724_7226" x1="9.32841" y1="7.72314" x2="8.03345" y2="7.72314" gradientUnits="userSpaceOnUse">
<stop offset="0.00132565" stop-color="#FBA23B" stop-opacity="0"/>
<stop offset="1" stop-color="#FBA23B"/>
</linearGradient>
<linearGradient id="paint16_linear_724_7226" x1="9.0956" y1="7.76058" x2="7.60637" y2="7.76058" gradientUnits="userSpaceOnUse">
<stop offset="0.00132565" stop-color="#FFBC47"/>
<stop offset="1" stop-color="#E89043"/>
</linearGradient>
<radialGradient id="paint17_radial_724_7226" cx="0" cy="0" r="1" gradientUnits="userSpaceOnUse" gradientTransform="translate(5.49052 13.3323) rotate(23.5251) scale(1.818 0.844076)">
<stop stop-color="#FBE07A"/>
<stop offset="1" stop-color="#FFD748" stop-opacity="0"/>
</radialGradient>
<radialGradient id="paint18_radial_724_7226" cx="0" cy="0" r="1" gradientUnits="userSpaceOnUse" gradientTransform="translate(10.9908 7.76782) rotate(2.02718) scale(1.55552 1.02094)">
<stop stop-color="#FBE07A"/>
<stop offset="1" stop-color="#FFD748"/>
</radialGradient>
<radialGradient id="paint19_radial_724_7226" cx="0" cy="0" r="1" gradientUnits="userSpaceOnUse" gradientTransform="translate(10.9157 12.7803) rotate(-0.0544055) scale(1.67053 0.900541)">
<stop stop-color="#FBE07A"/>
<stop offset="1" stop-color="#FFD748" stop-opacity="0"/>
</radialGradient>
<radialGradient id="paint20_radial_724_7226" cx="0" cy="0" r="1" gradientUnits="userSpaceOnUse" gradientTransform="translate(10.3376 14.805) rotate(-0.0539601) scale(1.52951 0.957277)">
<stop stop-color="#FBE07A"/>
<stop offset="1" stop-color="#FFD748" stop-opacity="0"/>
</radialGradient>
<linearGradient id="paint21_linear_724_7226" x1="9.48355" y1="12.5617" x2="7.6067" y2="12.5617" gradientUnits="userSpaceOnUse">
<stop offset="0.00132565" stop-color="#FBA23B" stop-opacity="0"/>
<stop offset="1" stop-color="#FBA23B"/>
</linearGradient>
<linearGradient id="paint22_linear_724_7226" x1="9.08448" y1="12.4959" x2="8.07349" y2="12.4959" gradientUnits="userSpaceOnUse">
<stop offset="0.00132565" stop-color="#FFBC47"/>
<stop offset="1" stop-color="#FBA23B"/>
</linearGradient>
<linearGradient id="paint23_linear_724_7226" x1="9.41602" y1="14.7649" x2="7.2211" y2="14.3618" gradientUnits="userSpaceOnUse">
<stop offset="0.00132565" stop-color="#FBA23B" stop-opacity="0"/>
<stop offset="1" stop-color="#FBA23B"/>
</linearGradient>
<linearGradient id="paint24_linear_724_7226" x1="9.18907" y1="14.6931" x2="8.26131" y2="14.6931" gradientUnits="userSpaceOnUse">
<stop offset="0.00132565" stop-color="#FFBC47"/>
<stop offset="1" stop-color="#FBA23B"/>
</linearGradient>
<linearGradient id="paint25_linear_724_7226" x1="10.6679" y1="7.46867" x2="11.2579" y2="10.324" gradientUnits="userSpaceOnUse">
<stop stop-color="#FFBC47" stop-opacity="0"/>
<stop offset="1" stop-color="#C86F34"/>
</linearGradient>
<linearGradient id="paint26_linear_724_7226" x1="11.1162" y1="13.1101" x2="10.4725" y2="10.7876" gradientUnits="userSpaceOnUse">
<stop stop-color="#FFBC47" stop-opacity="0"/>
<stop offset="1" stop-color="#C86F34"/>
</linearGradient>
<linearGradient id="paint27_linear_724_7226" x1="13.3147" y1="10.3697" x2="8.74352" y2="10.3697" gradientUnits="userSpaceOnUse">
<stop offset="0.00132565" stop-color="#FFBC47"/>
<stop offset="1" stop-color="#FFD748"/>
</linearGradient>
<linearGradient id="paint28_linear_724_7226" x1="8.55906" y1="10.2422" x2="12.0607" y2="10.3701" gradientUnits="userSpaceOnUse">
<stop offset="0.00132565" stop-color="#FFCB4B"/>
<stop offset="0.7382" stop-color="#FFD748"/>
<stop offset="1" stop-color="#FFCB4B"/>
</linearGradient>
<linearGradient id="paint29_linear_724_7226" x1="9.92555" y1="10.3225" x2="7.30942" y2="10.3225" gradientUnits="userSpaceOnUse">
<stop offset="0.00132565" stop-color="#FBA23B" stop-opacity="0"/>
<stop offset="1" stop-color="#FBA23B"/>
</linearGradient>
<radialGradient id="paint30_radial_724_7226" cx="0" cy="0" r="1" gradientUnits="userSpaceOnUse" gradientTransform="translate(11.4447 10.3278) rotate(-2.73606) scale(1.71052 1.12272)">
<stop stop-color="#FBE07A"/>
<stop offset="1" stop-color="#FFD748" stop-opacity="0"/>
</radialGradient>
<linearGradient id="paint31_linear_724_7226" x1="8.70955" y1="10.3194" x2="7.88355" y2="10.3194" gradientUnits="userSpaceOnUse">
<stop offset="0.00132565" stop-color="#FFBC47"/>
<stop offset="1" stop-color="#FBA23B"/>
</linearGradient>
<linearGradient id="paint32_linear_724_7226" x1="10.8848" y1="10.0675" x2="11.3816" y2="13.2255" gradientUnits="userSpaceOnUse">
<stop stop-color="#FFBC47" stop-opacity="0"/>
<stop offset="1" stop-color="#C86F34"/>
</linearGradient>
<linearGradient id="paint33_linear_724_7226" x1="10.5406" y1="12.5107" x2="11.8136" y2="15.2726" gradientUnits="userSpaceOnUse">
<stop stop-color="#FFBC47" stop-opacity="0"/>
<stop offset="1" stop-color="#C86F34"/>
</linearGradient>
<linearGradient id="paint34_linear_724_7226" x1="10.2872" y1="14.9335" x2="10.4735" y2="16.6793" gradientUnits="userSpaceOnUse">
<stop stop-color="#FFBC47" stop-opacity="0"/>
<stop offset="1" stop-color="#C86F34"/>
</linearGradient>
<linearGradient id="paint35_linear_724_7226" x1="10.3309" y1="14.6686" x2="10.3309" y2="13.4057" gradientUnits="userSpaceOnUse">
<stop stop-color="#FFBC47" stop-opacity="0"/>
<stop offset="1" stop-color="#C86F34"/>
</linearGradient>
<linearGradient id="paint36_linear_724_7226" x1="1.80484" y1="11.1822" x2="-2.15329" y2="17.1629" gradientUnits="userSpaceOnUse">
<stop stop-color="#C86F34" stop-opacity="0"/>
<stop offset="1" stop-color="#C86F34"/>
</linearGradient>
<linearGradient id="paint37_linear_724_7226" x1="1.54353" y1="12.5049" x2="2.19563" y2="15.4146" gradientUnits="userSpaceOnUse">
<stop stop-color="#FFBC47" stop-opacity="0"/>
<stop offset="1" stop-color="#C86F34"/>
</linearGradient>
<linearGradient id="paint38_linear_724_7226" x1="1.93825" y1="13.051" x2="1.84507" y2="16.6126" gradientUnits="userSpaceOnUse">
<stop stop-color="#FFBC47" stop-opacity="0"/>
<stop offset="1" stop-color="#C86F34"/>
</linearGradient>
<radialGradient id="paint39_radial_724_7226" cx="0" cy="0" r="1" gradientUnits="userSpaceOnUse" gradientTransform="translate(7.46143 1.74505) rotate(79.0714) scale(1.64013 0.962145)">
<stop stop-color="#FBE07A"/>
<stop offset="1" stop-color="#FFD748" stop-opacity="0"/>
</radialGradient>
</defs>
</svg>
