<svg width="557" height="416" viewBox="0 0 557 416" fill="none" xmlns="http://www.w3.org/2000/svg">
<path d="M278.495 415.024C397.783 415.024 494.484 409.378 494.484 402.414C494.484 395.449 397.783 389.803 278.495 389.803C159.208 389.803 62.5059 395.449 62.5059 402.414C62.5059 409.378 159.208 415.024 278.495 415.024Z" fill="#F5F5F5"/>
<path d="M496.266 95.4123H377.126C375.717 95.4123 374.575 96.5544 374.575 97.9633V195.058C374.575 196.467 375.717 197.609 377.126 197.609H496.266C497.675 197.609 498.817 196.467 498.817 195.058V97.9633C498.817 96.5544 497.675 95.4123 496.266 95.4123Z" fill="#FFC727"/>
<path opacity="0.6" d="M498.817 97.9633V195.058C498.817 195.734 498.548 196.383 498.07 196.862C497.591 197.34 496.942 197.609 496.266 197.609H377.126C376.449 197.609 375.8 197.34 375.322 196.862C374.843 196.383 374.575 195.734 374.575 195.058V97.9633C374.578 97.2876 374.847 96.6405 375.325 96.1627C375.803 95.6849 376.45 95.4152 377.126 95.4123H496.321C496.987 95.4297 497.62 95.7057 498.086 96.182C498.552 96.6582 498.814 97.2971 498.817 97.9633Z" fill="white"/>
<path d="M496.165 105.806H377.215V194.746H496.165V105.806Z" fill="#263238"/>
<path opacity="0.5" d="M386.896 116.89C387.042 116.994 387.217 117.049 387.397 117.046C387.527 117.047 387.655 117.018 387.772 116.96C387.888 116.902 387.989 116.817 388.065 116.712C388.132 116.624 388.18 116.523 388.207 116.416C388.235 116.309 388.24 116.198 388.223 116.089C388.207 115.98 388.168 115.875 388.111 115.781C388.053 115.687 387.977 115.606 387.887 115.542L385.436 113.726L387.898 111.91C387.987 111.845 388.061 111.763 388.118 111.669C388.175 111.575 388.213 111.471 388.229 111.362C388.246 111.254 388.241 111.143 388.215 111.036C388.188 110.93 388.141 110.829 388.076 110.741C388.011 110.652 387.929 110.577 387.835 110.52C387.741 110.464 387.637 110.426 387.528 110.409C387.42 110.393 387.309 110.398 387.202 110.424C387.096 110.45 386.995 110.497 386.907 110.562L383.565 113.058C383.461 113.137 383.377 113.239 383.319 113.355C383.261 113.472 383.23 113.601 383.23 113.732C383.23 113.862 383.261 113.991 383.319 114.108C383.377 114.225 383.461 114.327 383.565 114.406L386.896 116.89Z" fill="white"/>
<path opacity="0.5" d="M398.214 113.715L395.752 115.542C395.584 115.668 395.471 115.855 395.438 116.063C395.405 116.271 395.453 116.483 395.573 116.656C395.65 116.762 395.75 116.848 395.867 116.908C395.983 116.968 396.111 117 396.242 117.001C396.422 117 396.598 116.942 396.743 116.834L400.085 114.339C400.191 114.262 400.277 114.162 400.336 114.046C400.396 113.93 400.427 113.801 400.427 113.67C400.427 113.54 400.396 113.411 400.336 113.295C400.277 113.179 400.191 113.078 400.085 113.002L396.743 110.518C396.656 110.441 396.555 110.382 396.444 110.347C396.334 110.311 396.217 110.299 396.102 110.311C395.987 110.323 395.875 110.358 395.774 110.416C395.673 110.473 395.586 110.551 395.516 110.644C395.447 110.737 395.398 110.844 395.373 110.957C395.347 111.07 395.345 111.187 395.367 111.301C395.39 111.415 395.435 111.523 395.501 111.618C395.567 111.714 395.653 111.794 395.752 111.855L398.214 113.715Z" fill="white"/>
<path opacity="0.5" d="M390.661 116.968C390.753 116.985 390.847 116.985 390.939 116.968C391.111 116.969 391.28 116.916 391.42 116.816C391.56 116.716 391.665 116.574 391.719 116.411L393.49 111.431C393.564 111.222 393.551 110.991 393.455 110.79C393.359 110.59 393.187 110.436 392.978 110.362C392.768 110.288 392.537 110.3 392.337 110.397C392.136 110.493 391.982 110.665 391.908 110.874L390.148 115.854C390.104 115.96 390.082 116.074 390.085 116.19C390.087 116.305 390.113 116.418 390.161 116.523C390.209 116.627 390.278 116.721 390.364 116.797C390.45 116.874 390.551 116.932 390.661 116.968Z" fill="white"/>
<path opacity="0.5" d="M404.596 117.324H408.997C409.292 117.324 409.575 117.207 409.784 116.998C409.993 116.789 410.111 116.506 410.111 116.21C410.111 115.915 409.993 115.632 409.784 115.423C409.575 115.214 409.292 115.096 408.997 115.096H404.596C404.301 115.096 404.018 115.214 403.809 115.423C403.6 115.632 403.482 115.915 403.482 116.21C403.482 116.506 403.6 116.789 403.809 116.998C404.018 117.207 404.301 117.324 404.596 117.324Z" fill="white"/>
<path opacity="0.5" d="M475.947 180.342H407.025C406.73 180.342 406.446 180.459 406.237 180.668C406.028 180.877 405.911 181.16 405.911 181.456C405.911 181.751 406.028 182.035 406.237 182.244C406.446 182.453 406.73 182.57 407.025 182.57H475.947C476.242 182.57 476.526 182.453 476.735 182.244C476.944 182.035 477.061 181.751 477.061 181.456C477.061 181.16 476.944 180.877 476.735 180.668C476.526 180.459 476.242 180.342 475.947 180.342Z" fill="white"/>
<path d="M491.086 180.342H482.564C482.268 180.342 481.985 180.459 481.776 180.668C481.567 180.877 481.45 181.16 481.45 181.456C481.45 181.751 481.567 182.035 481.776 182.244C481.985 182.453 482.268 182.57 482.564 182.57H491.086C491.381 182.57 491.664 182.453 491.873 182.244C492.082 182.035 492.2 181.751 492.2 181.456C492.2 181.16 492.082 180.877 491.873 180.668C491.664 180.459 491.381 180.342 491.086 180.342Z" fill="white"/>
<path d="M427.767 175.518H455.517C455.812 175.518 456.095 175.401 456.304 175.192C456.513 174.983 456.63 174.7 456.63 174.404C456.63 174.109 456.513 173.826 456.304 173.617C456.095 173.408 455.812 173.29 455.517 173.29H427.767C427.472 173.29 427.189 173.408 426.98 173.617C426.771 173.826 426.653 174.109 426.653 174.404C426.653 174.7 426.771 174.983 426.98 175.192C427.189 175.401 427.472 175.518 427.767 175.518Z" fill="white"/>
<path opacity="0.5" d="M475.947 175.518C476.242 175.518 476.526 175.401 476.734 175.192C476.943 174.983 477.061 174.7 477.061 174.404C477.061 174.109 476.943 173.826 476.734 173.617C476.526 173.408 476.242 173.29 475.947 173.29H460.206C459.911 173.29 459.627 173.408 459.419 173.617C459.21 173.826 459.092 174.109 459.092 174.404C459.092 174.7 459.21 174.983 459.419 175.192C459.627 175.401 459.911 175.518 460.206 175.518H475.947Z" fill="white"/>
<path opacity="0.5" d="M491.085 173.29H482.719C482.424 173.29 482.141 173.408 481.932 173.617C481.723 173.826 481.605 174.109 481.605 174.404C481.605 174.7 481.723 174.983 481.932 175.192C482.141 175.401 482.424 175.518 482.719 175.518H491.085C491.381 175.518 491.664 175.401 491.873 175.192C492.082 174.983 492.199 174.7 492.199 174.404C492.199 174.109 492.082 173.826 491.873 173.617C491.664 173.408 491.381 173.29 491.085 173.29Z" fill="white"/>
<path d="M476.058 166.239H438.907C438.612 166.239 438.328 166.356 438.119 166.565C437.91 166.774 437.793 167.057 437.793 167.353C437.793 167.648 437.91 167.932 438.119 168.141C438.328 168.35 438.612 168.467 438.907 168.467H476.025C476.32 168.467 476.603 168.35 476.812 168.141C477.021 167.932 477.139 167.648 477.139 167.353C477.139 167.057 477.021 166.774 476.812 166.565C476.603 166.356 476.32 166.239 476.025 166.239H476.058Z" fill="white"/>
<path d="M491.086 166.239H482.619C482.324 166.239 482.041 166.356 481.832 166.565C481.623 166.774 481.505 167.057 481.505 167.353C481.505 167.648 481.623 167.932 481.832 168.141C482.041 168.35 482.324 168.467 482.619 168.467H491.086C491.381 168.467 491.664 168.35 491.873 168.141C492.082 167.932 492.2 167.648 492.2 167.353C492.2 167.057 492.082 166.774 491.873 166.565C491.664 166.356 491.381 166.239 491.086 166.239Z" fill="white"/>
<path opacity="0.5" d="M455.617 160.301C455.617 160.006 455.5 159.723 455.291 159.514C455.082 159.305 454.798 159.188 454.503 159.188H416.628C416.332 159.188 416.049 159.305 415.84 159.514C415.631 159.723 415.514 160.006 415.514 160.301C415.514 160.597 415.631 160.88 415.84 161.089C416.049 161.298 416.332 161.415 416.628 161.415H454.503C454.798 161.415 455.082 161.298 455.291 161.089C455.5 160.88 455.617 160.597 455.617 160.301Z" fill="white"/>
<path opacity="0.5" d="M461.365 159.188C461.07 159.188 460.786 159.305 460.577 159.514C460.368 159.723 460.251 160.006 460.251 160.301C460.251 160.597 460.368 160.88 460.577 161.089C460.786 161.298 461.07 161.415 461.365 161.415H476.047C476.343 161.415 476.626 161.298 476.835 161.089C477.044 160.88 477.161 160.597 477.161 160.301C477.161 160.006 477.044 159.723 476.835 159.514C476.626 159.305 476.343 159.188 476.047 159.188H461.365Z" fill="white"/>
<path d="M491.085 159.188H482.719C482.424 159.188 482.141 159.305 481.932 159.514C481.723 159.723 481.605 160.006 481.605 160.301C481.605 160.597 481.723 160.88 481.932 161.089C482.141 161.298 482.424 161.415 482.719 161.415H491.085C491.381 161.415 491.664 161.298 491.873 161.089C492.082 160.88 492.199 160.597 492.199 160.301C492.199 160.006 492.082 159.723 491.873 159.514C491.664 159.305 491.381 159.188 491.085 159.188Z" fill="white"/>
<path d="M463.414 154.364H470.7C470.995 154.364 471.278 154.247 471.487 154.038C471.696 153.829 471.814 153.545 471.814 153.25C471.814 152.955 471.696 152.671 471.487 152.462C471.278 152.253 470.995 152.136 470.7 152.136H463.414C463.119 152.136 462.835 152.253 462.627 152.462C462.418 152.671 462.3 152.955 462.3 153.25C462.3 153.545 462.418 153.829 462.627 154.038C462.835 154.247 463.119 154.364 463.414 154.364Z" fill="white"/>
<path opacity="0.5" d="M475.913 154.364H491.086C491.381 154.364 491.664 154.247 491.873 154.038C492.082 153.829 492.2 153.545 492.2 153.25C492.2 152.955 492.082 152.671 491.873 152.462C491.664 152.253 491.381 152.136 491.086 152.136H475.913C475.618 152.136 475.334 152.253 475.126 152.462C474.917 152.671 474.799 152.955 474.799 153.25C474.799 153.545 474.917 153.829 475.126 154.038C475.334 154.247 475.618 154.364 475.913 154.364Z" fill="white"/>
<path d="M422.587 146.199C422.587 145.903 422.47 145.62 422.261 145.411C422.052 145.202 421.769 145.085 421.473 145.085H383.208C382.913 145.085 382.629 145.202 382.421 145.411C382.212 145.62 382.094 145.903 382.094 146.199C382.094 146.494 382.212 146.777 382.421 146.986C382.629 147.195 382.913 147.313 383.208 147.313H421.44C421.589 147.317 421.738 147.292 421.877 147.238C422.016 147.184 422.142 147.102 422.249 146.998C422.356 146.894 422.441 146.77 422.499 146.633C422.558 146.495 422.587 146.348 422.587 146.199Z" fill="white"/>
<path opacity="0.5" d="M427.489 147.313H438.729C439.024 147.313 439.308 147.195 439.517 146.986C439.726 146.777 439.843 146.494 439.843 146.199C439.843 145.903 439.726 145.62 439.517 145.411C439.308 145.202 439.024 145.085 438.729 145.085H427.489C427.194 145.085 426.91 145.202 426.701 145.411C426.492 145.62 426.375 145.903 426.375 146.199C426.375 146.494 426.492 146.777 426.701 146.986C426.91 147.195 427.194 147.313 427.489 147.313Z" fill="white"/>
<path opacity="0.5" d="M383.208 140.261H397.69C397.985 140.261 398.269 140.144 398.478 139.935C398.687 139.726 398.804 139.442 398.804 139.147C398.804 138.852 398.687 138.568 398.478 138.359C398.269 138.15 397.985 138.033 397.69 138.033H383.208C382.913 138.033 382.629 138.15 382.421 138.359C382.212 138.568 382.094 138.852 382.094 139.147C382.094 139.442 382.212 139.726 382.421 139.935C382.629 140.144 382.913 140.261 383.208 140.261Z" fill="white"/>
<path d="M450.983 139.147C450.983 138.852 450.865 138.568 450.656 138.359C450.447 138.15 450.164 138.033 449.869 138.033H404.908C404.613 138.033 404.33 138.15 404.121 138.359C403.912 138.568 403.794 138.852 403.794 139.147C403.794 139.442 403.912 139.726 404.121 139.935C404.33 140.144 404.613 140.261 404.908 140.261H449.869C450.164 140.261 450.447 140.144 450.656 139.935C450.865 139.726 450.983 139.442 450.983 139.147Z" fill="white"/>
<path d="M383.208 133.21H409.442C409.738 133.21 410.021 133.092 410.23 132.883C410.439 132.674 410.556 132.391 410.556 132.096C410.556 131.8 410.439 131.517 410.23 131.308C410.021 131.099 409.738 130.982 409.442 130.982H383.208C382.913 130.982 382.629 131.099 382.421 131.308C382.212 131.517 382.094 131.8 382.094 132.096C382.094 132.391 382.212 132.674 382.421 132.883C382.629 133.092 382.913 133.21 383.208 133.21Z" fill="white"/>
<path opacity="0.5" d="M414.399 132.096C414.399 132.391 414.516 132.674 414.725 132.883C414.934 133.092 415.217 133.21 415.513 133.21H422.007C422.303 133.21 422.586 133.092 422.795 132.883C423.004 132.674 423.121 132.391 423.121 132.096C423.121 131.8 423.004 131.517 422.795 131.308C422.586 131.099 422.303 130.982 422.007 130.982H415.513C415.217 130.982 414.934 131.099 414.725 131.308C414.516 131.517 414.399 131.8 414.399 132.096Z" fill="white"/>
<path opacity="0.5" d="M383.208 126.158H414.188C414.483 126.158 414.767 126.041 414.976 125.832C415.185 125.623 415.302 125.339 415.302 125.044C415.302 124.749 415.185 124.465 414.976 124.256C414.767 124.047 414.483 123.93 414.188 123.93H383.208C382.913 123.93 382.629 124.047 382.421 124.256C382.212 124.465 382.094 124.749 382.094 125.044C382.094 125.339 382.212 125.623 382.421 125.832C382.629 126.041 382.913 126.158 383.208 126.158Z" fill="white"/>
<path d="M437.247 126.158H461.008C461.304 126.158 461.587 126.041 461.796 125.832C462.005 125.623 462.122 125.339 462.122 125.044C462.122 124.749 462.005 124.465 461.796 124.256C461.587 124.047 461.304 123.93 461.008 123.93H437.247C436.952 123.93 436.668 124.047 436.46 124.256C436.251 124.465 436.133 124.749 436.133 125.044C436.133 125.339 436.251 125.623 436.46 125.832C436.668 126.041 436.952 126.158 437.247 126.158Z" fill="white"/>
<path opacity="0.2" d="M445.747 95.4123V123.106C445.747 124.583 445.16 126 444.115 127.044C443.071 128.089 441.654 128.676 440.177 128.676H374.575V97.9633C374.578 97.2876 374.847 96.6405 375.325 96.1627C375.803 95.6849 376.45 95.4152 377.126 95.4123H445.747Z" fill="black"/>
<path d="M437.314 17.6788H302.578C301.169 17.6788 300.027 18.821 300.027 20.2298V117.324C300.027 118.733 301.169 119.875 302.578 119.875H437.314C438.723 119.875 439.865 118.733 439.865 117.324V20.2298C439.865 18.821 438.723 17.6788 437.314 17.6788Z" fill="#FFC727"/>
<path opacity="0.6" d="M439.865 20.2298V117.324C439.865 117.659 439.799 117.991 439.671 118.3C439.543 118.61 439.355 118.891 439.118 119.128C438.881 119.365 438.6 119.553 438.29 119.681C437.981 119.809 437.649 119.875 437.314 119.875H302.578C302.243 119.877 301.911 119.812 301.6 119.684C301.29 119.556 301.008 119.369 300.771 119.131C300.534 118.894 300.346 118.612 300.219 118.302C300.091 117.992 300.026 117.66 300.027 117.324V20.2298C300.027 19.5533 300.296 18.9044 300.775 18.426C301.253 17.9476 301.902 17.6788 302.578 17.6788H437.37C438.036 17.6962 438.669 17.9723 439.135 18.4485C439.6 18.9247 439.862 19.5637 439.865 20.2298Z" fill="white"/>
<path d="M437.214 28.0722H302.667V117.012H437.214V28.0722Z" fill="#263238"/>
<path d="M312.348 39.1563C312.494 39.2608 312.67 39.3155 312.849 39.3122C313.024 39.3099 313.193 39.2531 313.334 39.1497C313.474 39.0463 313.579 38.9016 313.633 38.7357C313.687 38.5699 313.687 38.3913 313.635 38.225C313.582 38.0587 313.479 37.913 313.339 37.8084L310.878 35.9926L313.339 34.1768C313.518 34.0453 313.637 33.8482 313.671 33.6289C313.704 33.4095 313.649 33.1859 313.518 33.0071C313.386 32.8284 313.189 32.7092 312.97 32.6757C312.75 32.6423 312.527 32.6974 312.348 32.8289L309.006 35.3242C308.902 35.4032 308.818 35.5051 308.76 35.622C308.702 35.7389 308.672 35.8677 308.672 35.9982C308.672 36.1287 308.702 36.2574 308.76 36.3743C308.818 36.4912 308.902 36.5931 309.006 36.6721L312.348 39.1563Z" fill="white"/>
<path d="M323.655 35.9815L321.204 37.8084C321.036 37.935 320.924 38.1217 320.891 38.3295C320.857 38.5372 320.906 38.7497 321.026 38.9224C321.103 39.0282 321.203 39.1146 321.319 39.1745C321.435 39.2345 321.564 39.2664 321.694 39.2677C321.875 39.2669 322.051 39.2084 322.196 39.1006L325.538 36.6053C325.646 36.5306 325.733 36.4306 325.794 36.3141C325.854 36.1976 325.885 36.0681 325.883 35.9369C325.882 35.8063 325.85 35.6777 325.79 35.5617C325.73 35.4456 325.644 35.3452 325.538 35.2685L322.196 32.7844C322.109 32.7072 322.007 32.649 321.897 32.6133C321.787 32.5777 321.67 32.5654 321.555 32.5773C321.439 32.5891 321.328 32.6249 321.227 32.6823C321.126 32.7397 321.038 32.8175 320.969 32.9107C320.9 33.0038 320.851 33.1104 320.825 33.2235C320.8 33.3366 320.798 33.4538 320.82 33.5677C320.842 33.6816 320.888 33.7896 320.954 33.8849C321.02 33.9802 321.105 34.0606 321.204 34.1211L323.655 35.9815Z" fill="white"/>
<path d="M316.113 39.2677C316.205 39.2847 316.3 39.2847 316.392 39.2677C316.564 39.2677 316.731 39.214 316.871 39.1142C317.011 39.0143 317.116 38.8732 317.172 38.7107L318.932 33.7312C318.97 33.629 318.988 33.52 318.984 33.4108C318.979 33.3016 318.953 33.1943 318.906 33.0956C318.859 32.9968 318.793 32.9084 318.711 32.8358C318.63 32.7632 318.534 32.7078 318.43 32.673C318.325 32.6287 318.211 32.6066 318.097 32.608C317.982 32.6095 317.869 32.6345 317.765 32.6816C317.66 32.7286 317.566 32.7966 317.489 32.8813C317.412 32.9661 317.353 33.0658 317.316 33.1742L315.556 38.1537C315.513 38.263 315.493 38.3802 315.498 38.4976C315.503 38.6151 315.533 38.7301 315.586 38.8353C315.638 38.9404 315.713 39.0333 315.803 39.1078C315.894 39.1823 316 39.2368 316.113 39.2677Z" fill="white"/>
<path opacity="0.5" d="M330.038 39.5908H334.494C334.789 39.5908 335.073 39.4734 335.281 39.2645C335.49 39.0556 335.608 38.7723 335.608 38.4768C335.608 38.1814 335.49 37.898 335.281 37.6891C335.073 37.4802 334.789 37.3629 334.494 37.3629H330.038C329.742 37.3629 329.459 37.4802 329.25 37.6891C329.041 37.898 328.924 38.1814 328.924 38.4768C328.924 38.7723 329.041 39.0556 329.25 39.2645C329.459 39.4734 329.742 39.5908 330.038 39.5908Z" fill="white"/>
<path opacity="0.5" d="M387.196 48.4247H393.145C393.44 48.4247 393.723 48.3073 393.932 48.0984C394.141 47.8895 394.259 47.6061 394.259 47.3107C394.259 47.0152 394.141 46.7319 393.932 46.523C393.723 46.3141 393.44 46.1967 393.145 46.1967H387.196C386.901 46.1967 386.617 46.3141 386.408 46.523C386.199 46.7319 386.082 47.0152 386.082 47.3107C386.082 47.6061 386.199 47.8895 386.408 48.0984C386.617 48.3073 386.901 48.4247 387.196 48.4247Z" fill="white"/>
<path d="M322.719 47.3107C322.719 47.6061 322.837 47.8895 323.045 48.0984C323.254 48.3073 323.538 48.4247 323.833 48.4247H379.532C379.828 48.4247 380.111 48.3073 380.32 48.0984C380.529 47.8895 380.646 47.6061 380.646 47.3107C380.646 47.0152 380.529 46.7319 380.32 46.523C380.111 46.3141 379.828 46.1967 379.532 46.1967H323.833C323.538 46.1967 323.254 46.3141 323.045 46.523C322.837 46.7319 322.719 47.0152 322.719 47.3107Z" fill="white"/>
<path opacity="0.5" d="M308.694 48.4247H317.216C317.511 48.4247 317.795 48.3073 318.004 48.0984C318.213 47.8895 318.33 47.6061 318.33 47.3107C318.33 47.0152 318.213 46.7319 318.004 46.523C317.795 46.3141 317.511 46.1967 317.216 46.1967H308.694C308.399 46.1967 308.115 46.3141 307.906 46.523C307.697 46.7319 307.58 47.0152 307.58 47.3107C307.58 47.6061 307.697 47.8895 307.906 48.0984C308.115 48.3073 308.399 48.4247 308.694 48.4247Z" fill="white"/>
<path d="M366.409 55.4761C366.705 55.4761 366.988 55.3588 367.197 55.1499C367.406 54.9409 367.523 54.6576 367.523 54.3621C367.523 54.0667 367.406 53.7834 367.197 53.5744C366.988 53.3655 366.705 53.2482 366.409 53.2482H344.219C343.924 53.2482 343.64 53.3655 343.431 53.5744C343.222 53.7834 343.105 54.0667 343.105 54.3621C343.105 54.6576 343.222 54.9409 343.431 55.1499C343.64 55.3588 343.924 55.4761 344.219 55.4761H366.409Z" fill="white"/>
<path d="M323.833 55.4761H339.574C339.869 55.4761 340.153 55.3588 340.361 55.1499C340.57 54.9409 340.688 54.6576 340.688 54.3621C340.688 54.0667 340.57 53.7834 340.361 53.5744C340.153 53.3655 339.869 53.2482 339.574 53.2482H323.833C323.538 53.2482 323.254 53.3655 323.045 53.5744C322.837 53.7834 322.719 54.0667 322.719 54.3621C322.719 54.6576 322.837 54.9409 323.045 55.1499C323.254 55.3588 323.538 55.4761 323.833 55.4761Z" fill="white"/>
<path opacity="0.5" d="M308.694 55.4761H317.071C317.367 55.4761 317.65 55.3588 317.859 55.1499C318.068 54.9409 318.185 54.6576 318.185 54.3621C318.185 54.0667 318.068 53.7834 317.859 53.5744C317.65 53.3655 317.367 53.2482 317.071 53.2482H308.694C308.399 53.2482 308.115 53.3655 307.906 53.5744C307.697 53.7834 307.58 54.0667 307.58 54.3621C307.58 54.6576 307.697 54.9409 307.906 55.1499C308.115 55.3588 308.399 55.4761 308.694 55.4761Z" fill="white"/>
<path d="M356.384 61.4136C356.384 61.1182 356.266 60.8348 356.057 60.6259C355.849 60.417 355.565 60.2996 355.27 60.2996H323.722C323.426 60.2996 323.143 60.417 322.934 60.6259C322.725 60.8348 322.608 61.1182 322.608 61.4136C322.608 61.709 322.725 61.9924 322.934 62.2013C323.143 62.4102 323.426 62.5276 323.722 62.5276H355.27C355.565 62.5276 355.849 62.4102 356.057 62.2013C356.266 61.9924 356.384 61.709 356.384 61.4136Z" fill="white"/>
<path opacity="0.5" d="M308.694 62.5276H317.16C317.456 62.5276 317.739 62.4102 317.948 62.2013C318.157 61.9924 318.274 61.709 318.274 61.4136C318.274 61.1182 318.157 60.8348 317.948 60.6259C317.739 60.417 317.456 60.2996 317.16 60.2996H308.694C308.399 60.2996 308.115 60.417 307.906 60.6259C307.697 60.8348 307.58 61.1182 307.58 61.4136C307.58 61.709 307.697 61.9924 307.906 62.2013C308.115 62.4102 308.399 62.5276 308.694 62.5276Z" fill="white"/>
<path d="M345.333 69.5791H377.638C377.934 69.5791 378.217 69.4617 378.426 69.2528C378.635 69.0439 378.752 68.7606 378.752 68.4651C378.752 68.1697 378.635 67.8863 378.426 67.6774C378.217 67.4685 377.934 67.3511 377.638 67.3511H345.333C345.037 67.3511 344.754 67.4685 344.545 67.6774C344.336 67.8863 344.219 68.1697 344.219 68.4651C344.219 68.7606 344.336 69.0439 344.545 69.2528C344.754 69.4617 345.037 69.5791 345.333 69.5791Z" fill="white"/>
<path d="M323.744 67.3511C323.448 67.3511 323.165 67.4685 322.956 67.6774C322.747 67.8863 322.63 68.1697 322.63 68.4651C322.63 68.7606 322.747 69.0439 322.956 69.2528C323.165 69.4617 323.448 69.5791 323.744 69.5791H338.415C338.71 69.5791 338.994 69.4617 339.203 69.2528C339.412 69.0439 339.529 68.7606 339.529 68.4651C339.529 68.1697 339.412 67.8863 339.203 67.6774C338.994 67.4685 338.71 67.3511 338.415 67.3511H323.744Z" fill="white"/>
<path opacity="0.5" d="M308.694 69.5791H317.06C317.355 69.5791 317.639 69.4617 317.848 69.2528C318.057 69.0439 318.174 68.7606 318.174 68.4651C318.174 68.1697 318.057 67.8863 317.848 67.6774C317.639 67.4685 317.355 67.3511 317.06 67.3511H308.694C308.399 67.3511 308.115 67.4685 307.906 67.6774C307.697 67.8863 307.58 68.1697 307.58 68.4651C307.58 68.7606 307.697 69.0439 307.906 69.2528C308.115 69.4617 308.399 69.5791 308.694 69.5791Z" fill="white"/>
<path d="M336.332 74.4026H329.057C328.762 74.4026 328.479 74.52 328.27 74.7289C328.061 74.9378 327.943 75.2211 327.943 75.5166C327.943 75.812 328.061 76.0954 328.27 76.3043C328.479 76.5132 328.762 76.6305 329.057 76.6305H336.332C336.627 76.6305 336.91 76.5132 337.119 76.3043C337.328 76.0954 337.446 75.812 337.446 75.5166C337.446 75.2211 337.328 74.9378 337.119 74.7289C336.91 74.52 336.627 74.4026 336.332 74.4026Z" fill="white"/>
<path d="M323.866 74.4026H308.694C308.399 74.4026 308.115 74.52 307.906 74.7289C307.697 74.9378 307.58 75.2211 307.58 75.5166C307.58 75.812 307.697 76.0954 307.906 76.3043C308.115 76.5132 308.399 76.6305 308.694 76.6305H323.866C324.162 76.6305 324.445 76.5132 324.654 76.3043C324.863 76.0954 324.98 75.812 324.98 75.5166C324.98 75.2211 324.863 74.9378 324.654 74.7289C324.445 74.52 324.162 74.4026 323.866 74.4026Z" fill="white"/>
<path d="M371.623 82.568C371.623 82.8635 371.74 83.1468 371.949 83.3557C372.158 83.5646 372.441 83.682 372.737 83.682H432.134C432.429 83.682 432.713 83.5646 432.922 83.3557C433.13 83.1468 433.248 82.8635 433.248 82.568C433.248 82.2726 433.13 81.9892 432.922 81.7803C432.713 81.5714 432.429 81.454 432.134 81.454H372.737C372.441 81.454 372.158 81.5714 371.949 81.7803C371.74 81.9892 371.623 82.2726 371.623 82.568Z" fill="white"/>
<path opacity="0.5" d="M355.481 81.454C355.185 81.454 354.902 81.5714 354.693 81.7803C354.484 81.9892 354.367 82.2726 354.367 82.568C354.367 82.8635 354.484 83.1468 354.693 83.3557C354.902 83.5646 355.185 83.682 355.481 83.682H366.721C367.016 83.682 367.3 83.5646 367.508 83.3557C367.717 83.1468 367.835 82.8635 367.835 82.568C367.835 82.2726 367.717 81.9892 367.508 81.7803C367.3 81.5714 367.016 81.454 366.721 81.454H355.481Z" fill="white"/>
<path opacity="0.5" d="M432.134 88.5056H417.653C417.357 88.5056 417.074 88.623 416.865 88.8319C416.656 89.0408 416.539 89.3241 416.539 89.6196C416.539 89.915 416.656 90.1984 416.865 90.4073C417.074 90.6162 417.357 90.7336 417.653 90.7336H432.134C432.43 90.7336 432.713 90.6162 432.922 90.4073C433.131 90.1984 433.248 89.915 433.248 89.6196C433.248 89.3241 433.131 89.0408 432.922 88.8319C432.713 88.623 432.43 88.5056 432.134 88.5056Z" fill="white"/>
<path d="M411.592 89.6196C411.592 89.3241 411.474 89.0408 411.266 88.8319C411.057 88.623 410.773 88.5056 410.478 88.5056H349.911C349.615 88.5056 349.332 88.623 349.123 88.8319C348.914 89.0408 348.797 89.3241 348.797 89.6196C348.797 89.915 348.914 90.1984 349.123 90.4073C349.332 90.6162 349.615 90.7336 349.911 90.7336H410.478C410.773 90.7336 411.057 90.6162 411.266 90.4073C411.474 90.1984 411.592 89.915 411.592 89.6196Z" fill="white"/>
<path d="M432.134 95.5571H405.9C405.605 95.5571 405.321 95.6744 405.112 95.8833C404.904 96.0923 404.786 96.3756 404.786 96.671C404.786 96.9665 404.904 97.2498 405.112 97.4587C405.321 97.6677 405.605 97.785 405.9 97.785H432.134C432.43 97.785 432.713 97.6677 432.922 97.4587C433.131 97.2498 433.248 96.9665 433.248 96.671C433.248 96.3756 433.131 96.0923 432.922 95.8833C432.713 95.6744 432.43 95.5571 432.134 95.5571Z" fill="white"/>
<path opacity="0.5" d="M393.356 95.5571C393.061 95.5571 392.777 95.6744 392.568 95.8833C392.36 96.0923 392.242 96.3756 392.242 96.671C392.242 96.9665 392.36 97.2498 392.568 97.4587C392.777 97.6677 393.061 97.785 393.356 97.785H399.918C400.213 97.785 400.496 97.6677 400.705 97.4587C400.914 97.2498 401.031 96.9665 401.031 96.671C401.031 96.3756 400.914 96.0923 400.705 95.8833C400.496 95.6744 400.213 95.5571 399.918 95.5571H393.356Z" fill="white"/>
<path d="M432.134 102.609H379.989C379.694 102.609 379.41 102.726 379.201 102.935C378.992 103.144 378.875 103.427 378.875 103.723C378.875 104.018 378.992 104.301 379.201 104.51C379.41 104.719 379.694 104.837 379.989 104.837H432.134C432.43 104.837 432.713 104.719 432.922 104.51C433.131 104.301 433.248 104.018 433.248 103.723C433.248 103.427 433.131 103.144 432.922 102.935C432.713 102.726 432.43 102.609 432.134 102.609Z" fill="white"/>
<path d="M356.974 102.609H338.772C338.476 102.609 338.193 102.726 337.984 102.935C337.775 103.144 337.658 103.427 337.658 103.723C337.658 104.018 337.775 104.301 337.984 104.51C338.193 104.719 338.476 104.837 338.772 104.837H356.974C357.27 104.837 357.553 104.719 357.762 104.51C357.971 104.301 358.088 104.018 358.088 103.723C358.088 103.427 357.971 103.144 357.762 102.935C357.553 102.726 357.27 102.609 356.974 102.609Z" fill="white"/>
<path opacity="0.2" d="M374.575 61.6587V119.875H302.578C302.243 119.877 301.911 119.812 301.6 119.684C301.29 119.556 301.008 119.369 300.771 119.131C300.534 118.894 300.346 118.612 300.219 118.302C300.091 117.992 300.026 117.66 300.027 117.324V56.7015H369.618C370.932 56.7015 372.193 57.2238 373.123 58.1535C374.053 59.0831 374.575 60.344 374.575 61.6587Z" fill="black"/>
<path d="M362.833 61.0126H206.932C205.523 61.0126 204.381 62.1547 204.381 63.5636V160.658C204.381 162.067 205.523 163.209 206.932 163.209H362.833C364.242 163.209 365.384 162.067 365.384 160.658V63.5636C365.384 62.1547 364.242 61.0126 362.833 61.0126Z" fill="#FFC727"/>
<path opacity="0.6" d="M362.833 61.0126H206.932C205.523 61.0126 204.381 62.1547 204.381 63.5636V160.658C204.381 162.067 205.523 163.209 206.932 163.209H362.833C364.242 163.209 365.384 162.067 365.384 160.658V63.5636C365.384 62.1547 364.242 61.0126 362.833 61.0126Z" fill="white"/>
<path d="M362.744 71.3949H207.032V160.335H362.744V71.3949Z" fill="#263238"/>
<path d="M237.968 90.0651H213.048C212.753 90.0651 212.469 90.1825 212.26 90.3914C212.051 90.6003 211.934 90.8837 211.934 91.1791C211.934 91.4745 212.051 91.7579 212.26 91.9668C212.469 92.1757 212.753 92.2931 213.048 92.2931H237.968C238.263 92.2931 238.547 92.1757 238.755 91.9668C238.964 91.7579 239.082 91.4745 239.082 91.1791C239.082 90.8837 238.964 90.6003 238.755 90.3914C238.547 90.1825 238.263 90.0651 237.968 90.0651Z" fill="white"/>
<path d="M237.967 97.0164H216.389C216.094 97.0164 215.811 97.1338 215.602 97.3427C215.393 97.5516 215.275 97.835 215.275 98.1304C215.275 98.4258 215.393 98.7092 215.602 98.9181C215.811 99.127 216.094 99.2444 216.389 99.2444H237.967C238.263 99.2444 238.546 99.127 238.755 98.9181C238.964 98.7092 239.081 98.4258 239.081 98.1304C239.081 97.835 238.964 97.5516 238.755 97.3427C238.546 97.1338 238.263 97.0164 237.967 97.0164Z" fill="white"/>
<path opacity="0.5" d="M237.968 103.968H213.048C212.753 103.968 212.469 104.085 212.26 104.294C212.051 104.503 211.934 104.786 211.934 105.082C211.934 105.377 212.051 105.66 212.26 105.869C212.469 106.078 212.753 106.196 213.048 106.196H237.968C238.263 106.196 238.547 106.078 238.755 105.869C238.964 105.66 239.082 105.377 239.082 105.082C239.082 104.786 238.964 104.503 238.755 104.294C238.547 104.085 238.263 103.968 237.968 103.968Z" fill="white"/>
<path d="M237.967 110.919H223.073C222.778 110.919 222.495 111.036 222.286 111.245C222.077 111.454 221.959 111.737 221.959 112.033C221.959 112.328 222.077 112.612 222.286 112.82C222.495 113.029 222.778 113.147 223.073 113.147H237.967C238.263 113.147 238.546 113.029 238.755 112.82C238.964 112.612 239.081 112.328 239.081 112.033C239.081 111.737 238.964 111.454 238.755 111.245C238.546 111.036 238.263 110.919 237.967 110.919Z" fill="white"/>
<path d="M237.968 117.87H213.048C212.753 117.87 212.469 117.987 212.26 118.196C212.051 118.405 211.934 118.689 211.934 118.984C211.934 119.279 212.051 119.563 212.26 119.772C212.469 119.981 212.753 120.098 213.048 120.098H237.968C238.263 120.098 238.547 119.981 238.755 119.772C238.964 119.563 239.082 119.279 239.082 118.984C239.082 118.689 238.964 118.405 238.755 118.196C238.547 117.987 238.263 117.87 237.968 117.87Z" fill="white"/>
<path d="M237.967 124.821H217.503C217.208 124.821 216.924 124.939 216.715 125.148C216.507 125.356 216.389 125.64 216.389 125.935C216.389 126.231 216.507 126.514 216.715 126.723C216.924 126.932 217.208 127.049 217.503 127.049H237.967C238.262 127.049 238.546 126.932 238.755 126.723C238.964 126.514 239.081 126.231 239.081 125.935C239.081 125.64 238.964 125.356 238.755 125.148C238.546 124.939 238.262 124.821 237.967 124.821Z" fill="white"/>
<path d="M237.967 131.773H217.503C217.208 131.773 216.924 131.89 216.715 132.099C216.507 132.308 216.389 132.591 216.389 132.887C216.389 133.182 216.507 133.465 216.715 133.674C216.924 133.883 217.208 134 217.503 134H237.967C238.262 134 238.546 133.883 238.755 133.674C238.964 133.465 239.081 133.182 239.081 132.887C239.081 132.591 238.964 132.308 238.755 132.099C238.546 131.89 238.262 131.773 237.967 131.773Z" fill="white"/>
<path d="M237.968 138.724H215.276C214.981 138.724 214.697 138.841 214.488 139.05C214.279 139.259 214.162 139.542 214.162 139.838C214.162 140.133 214.279 140.417 214.488 140.625C214.697 140.834 214.981 140.952 215.276 140.952H237.968C238.263 140.952 238.547 140.834 238.756 140.625C238.964 140.417 239.082 140.133 239.082 139.838C239.082 139.542 238.964 139.259 238.756 139.05C238.547 138.841 238.263 138.724 237.968 138.724Z" fill="white"/>
<path opacity="0.5" d="M237.967 145.675H223.073C222.778 145.675 222.495 145.792 222.286 146.001C222.077 146.21 221.959 146.493 221.959 146.789C221.959 147.084 222.077 147.368 222.286 147.577C222.495 147.786 222.778 147.903 223.073 147.903H237.967C238.263 147.903 238.546 147.786 238.755 147.577C238.964 147.368 239.081 147.084 239.081 146.789C239.081 146.493 238.964 146.21 238.755 146.001C238.546 145.792 238.263 145.675 237.967 145.675Z" fill="white"/>
<path opacity="0.5" d="M237.967 83.1139H219.732C219.436 83.1139 219.153 83.2313 218.944 83.4402C218.735 83.6491 218.618 83.9324 218.618 84.2279C218.618 84.5233 218.735 84.8067 218.944 85.0156C219.153 85.2245 219.436 85.3418 219.732 85.3418H237.967C238.263 85.3418 238.546 85.2245 238.755 85.0156C238.964 84.8067 239.081 84.5233 239.081 84.2279C239.081 83.9324 238.964 83.6491 238.755 83.4402C238.546 83.2313 238.263 83.1139 237.967 83.1139Z" fill="white"/>
<path d="M237.968 76.1627H213.048C212.753 76.1627 212.469 76.28 212.26 76.4889C212.051 76.6978 211.934 76.9812 211.934 77.2766C211.934 77.5721 212.051 77.8554 212.26 78.0643C212.469 78.2733 212.753 78.3906 213.048 78.3906H237.968C238.263 78.3906 238.547 78.2733 238.755 78.0643C238.964 77.8554 239.082 77.5721 239.082 77.2766C239.082 76.9812 238.964 76.6978 238.755 76.4889C238.547 76.28 238.263 76.1627 237.968 76.1627Z" fill="white"/>
<path d="M237.968 152.615H213.048C212.753 152.615 212.469 152.732 212.26 152.941C212.051 153.15 211.934 153.434 211.934 153.729C211.934 154.025 212.051 154.308 212.26 154.517C212.469 154.726 212.753 154.843 213.048 154.843H237.968C238.263 154.843 238.547 154.726 238.755 154.517C238.964 154.308 239.082 154.025 239.082 153.729C239.082 153.434 238.964 153.15 238.755 152.941C238.547 152.732 238.263 152.615 237.968 152.615Z" fill="white"/>
<path opacity="0.5" d="M251.335 89.7867H246.467V92.5717H251.335V89.7867Z" fill="white"/>
<path opacity="0.5" d="M251.335 96.7379H246.467V99.5228H251.335V96.7379Z" fill="white"/>
<path opacity="0.5" d="M251.335 103.689H246.467V106.474H251.335V103.689Z" fill="white"/>
<path opacity="0.5" d="M251.335 110.64H246.467V113.425H251.335V110.64Z" fill="white"/>
<path opacity="0.5" d="M251.335 117.592H246.467V120.376H251.335V117.592Z" fill="white"/>
<path opacity="0.5" d="M251.335 124.543H246.467V127.328H251.335V124.543Z" fill="white"/>
<path opacity="0.5" d="M251.335 131.494H246.467V134.279H251.335V131.494Z" fill="white"/>
<path opacity="0.5" d="M251.335 138.445H246.467V141.23H251.335V138.445Z" fill="white"/>
<path opacity="0.5" d="M251.335 145.396H246.467V148.181H251.335V145.396Z" fill="white"/>
<path opacity="0.5" d="M251.335 82.8354H246.467V85.6203H251.335V82.8354Z" fill="white"/>
<path opacity="0.5" d="M251.335 75.8842H246.467V78.6692H251.335V75.8842Z" fill="white"/>
<path opacity="0.5" d="M251.335 152.348H246.467V155.133H251.335V152.348Z" fill="white"/>
<path d="M276.545 91.1791C276.545 91.4745 276.662 91.7579 276.871 91.9668C277.08 92.1757 277.363 92.2931 277.659 92.2931H358.278C358.573 92.2931 358.856 92.1757 359.065 91.9668C359.274 91.7579 359.391 91.4745 359.391 91.1791C359.391 90.8837 359.274 90.6003 359.065 90.3914C358.856 90.1825 358.573 90.0651 358.278 90.0651H277.659C277.363 90.0651 277.08 90.1825 276.871 90.3914C276.662 90.6003 276.545 90.8837 276.545 91.1791Z" fill="white"/>
<path d="M358.277 97.0164H314.141C313.846 97.0164 313.563 97.1338 313.354 97.3427C313.145 97.5516 313.027 97.835 313.027 98.1304C313.027 98.4258 313.145 98.7092 313.354 98.9181C313.563 99.127 313.846 99.2444 314.141 99.2444H358.288C358.584 99.2444 358.867 99.127 359.076 98.9181C359.285 98.7092 359.402 98.4258 359.402 98.1304C359.402 97.835 359.285 97.5516 359.076 97.3427C358.867 97.1338 358.584 97.0164 358.288 97.0164H358.277Z" fill="white"/>
<path opacity="0.5" d="M303.647 97.0164H289.912C289.616 97.0164 289.333 97.1338 289.124 97.3427C288.915 97.5516 288.798 97.835 288.798 98.1304C288.798 98.4258 288.915 98.7092 289.124 98.9181C289.333 99.127 289.616 99.2444 289.912 99.2444H303.647C303.943 99.2444 304.226 99.127 304.435 98.9181C304.644 98.7092 304.761 98.4258 304.761 98.1304C304.761 97.835 304.644 97.5516 304.435 97.3427C304.226 97.1338 303.943 97.0164 303.647 97.0164Z" fill="white"/>
<path d="M331.541 103.968H270.273C269.977 103.968 269.694 104.085 269.485 104.294C269.276 104.503 269.159 104.786 269.159 105.082C269.159 105.377 269.276 105.66 269.485 105.869C269.694 106.078 269.977 106.196 270.273 106.196H331.541C331.837 106.196 332.12 106.078 332.329 105.869C332.538 105.66 332.655 105.377 332.655 105.082C332.655 104.786 332.538 104.503 332.329 104.294C332.12 104.085 331.837 103.968 331.541 103.968Z" fill="white"/>
<path opacity="0.5" d="M257.607 106.196H261.952C262.247 106.196 262.53 106.078 262.739 105.869C262.948 105.66 263.066 105.377 263.066 105.082C263.066 104.786 262.948 104.503 262.739 104.294C262.53 104.085 262.247 103.968 261.952 103.968H257.607C257.312 103.968 257.028 104.085 256.819 104.294C256.611 104.503 256.493 104.786 256.493 105.082C256.493 105.377 256.611 105.66 256.819 105.869C257.028 106.078 257.312 106.196 257.607 106.196Z" fill="white"/>
<path d="M339.34 112.033C339.34 111.737 339.222 111.454 339.013 111.245C338.805 111.036 338.521 110.919 338.226 110.919H281.413C281.117 110.919 280.834 111.036 280.625 111.245C280.416 111.454 280.299 111.737 280.299 112.033C280.299 112.328 280.416 112.612 280.625 112.82C280.834 113.029 281.117 113.147 281.413 113.147H338.226C338.521 113.147 338.805 113.029 339.013 112.82C339.222 112.612 339.34 112.328 339.34 112.033Z" fill="white"/>
<path d="M257.607 113.147H273.637C273.933 113.147 274.216 113.029 274.425 112.82C274.634 112.612 274.751 112.328 274.751 112.033C274.751 111.737 274.634 111.454 274.425 111.245C274.216 111.036 273.933 110.919 273.637 110.919H257.607C257.312 110.919 257.028 111.036 256.819 111.245C256.611 111.454 256.493 111.737 256.493 112.033C256.493 112.328 256.611 112.612 256.819 112.82C257.028 113.029 257.312 113.147 257.607 113.147Z" fill="white"/>
<path d="M257.607 120.098H318.174C318.47 120.098 318.753 119.981 318.962 119.772C319.171 119.563 319.288 119.279 319.288 118.984C319.288 118.689 319.171 118.405 318.962 118.196C318.753 117.987 318.47 117.87 318.174 117.87H257.607C257.312 117.87 257.028 117.987 256.819 118.196C256.611 118.405 256.493 118.689 256.493 118.984C256.493 119.279 256.611 119.563 256.819 119.772C257.028 119.981 257.312 120.098 257.607 120.098Z" fill="white"/>
<path d="M296.786 124.821C296.49 124.821 296.207 124.939 295.998 125.148C295.789 125.356 295.672 125.64 295.672 125.935C295.672 126.231 295.789 126.514 295.998 126.723C296.207 126.932 296.49 127.049 296.786 127.049H328.2C328.495 127.049 328.779 126.932 328.988 126.723C329.197 126.514 329.314 126.231 329.314 125.935C329.314 125.64 329.197 125.356 328.988 125.148C328.779 124.939 328.495 124.821 328.2 124.821H296.786Z" fill="white"/>
<path d="M257.607 127.049H284.799C285.095 127.049 285.378 126.932 285.587 126.723C285.796 126.514 285.913 126.231 285.913 125.935C285.913 125.64 285.796 125.356 285.587 125.148C285.378 124.939 285.095 124.821 284.799 124.821H257.607C257.312 124.821 257.028 124.939 256.819 125.148C256.611 125.356 256.493 125.64 256.493 125.935C256.493 126.231 256.611 126.514 256.819 126.723C257.028 126.932 257.312 127.049 257.607 127.049Z" fill="white"/>
<path d="M358.277 131.773H284.342C284.047 131.773 283.764 131.89 283.555 132.099C283.346 132.308 283.229 132.591 283.229 132.887C283.229 133.182 283.346 133.465 283.555 133.674C283.764 133.883 284.047 134 284.342 134H358.277C358.573 134 358.856 133.883 359.065 133.674C359.274 133.465 359.391 133.182 359.391 132.887C359.391 132.591 359.274 132.308 359.065 132.099C358.856 131.89 358.573 131.773 358.277 131.773Z" fill="white"/>
<path d="M358.277 138.724H294.368C294.073 138.724 293.79 138.841 293.581 139.05C293.372 139.259 293.254 139.542 293.254 139.838C293.254 140.133 293.372 140.417 293.581 140.625C293.79 140.834 294.073 140.952 294.368 140.952H358.277C358.573 140.952 358.856 140.834 359.065 140.625C359.274 140.417 359.391 140.133 359.391 139.838C359.391 139.542 359.274 139.259 359.065 139.05C358.856 138.841 358.573 138.724 358.277 138.724Z" fill="white"/>
<path opacity="0.5" d="M358.277 145.675H345.132C344.837 145.675 344.553 145.792 344.344 146.001C344.135 146.21 344.018 146.493 344.018 146.789C344.018 147.084 344.135 147.368 344.344 147.577C344.553 147.786 344.837 147.903 345.132 147.903H358.277C358.572 147.903 358.856 147.786 359.065 147.577C359.274 147.368 359.391 147.084 359.391 146.789C359.391 146.493 359.274 146.21 359.065 146.001C358.856 145.792 358.572 145.675 358.277 145.675Z" fill="white"/>
<path d="M335.942 145.675H287.684C287.389 145.675 287.106 145.792 286.897 146.001C286.688 146.21 286.57 146.493 286.57 146.789C286.57 147.084 286.688 147.368 286.897 147.577C287.106 147.786 287.389 147.903 287.684 147.903H335.942C336.237 147.903 336.521 147.786 336.73 147.577C336.938 147.368 337.056 147.084 337.056 146.789C337.056 146.493 336.938 146.21 336.73 146.001C336.521 145.792 336.237 145.675 335.942 145.675Z" fill="white"/>
<path d="M257.607 85.3418H309.262C309.558 85.3418 309.841 85.2245 310.05 85.0156C310.259 84.8067 310.376 84.5233 310.376 84.2279C310.376 83.9324 310.259 83.6491 310.05 83.4402C309.841 83.2313 309.558 83.1139 309.262 83.1139H257.607C257.312 83.1139 257.028 83.2313 256.819 83.4402C256.611 83.6491 256.493 83.9324 256.493 84.2279C256.493 84.5233 256.611 84.8067 256.819 85.0156C257.028 85.2245 257.312 85.3418 257.607 85.3418Z" fill="white"/>
<path d="M257.607 78.3906H338.226C338.521 78.3906 338.805 78.2733 339.013 78.0643C339.222 77.8554 339.34 77.5721 339.34 77.2766C339.34 76.9812 339.222 76.6978 339.013 76.4889C338.805 76.28 338.521 76.1627 338.226 76.1627H257.607C257.312 76.1627 257.028 76.28 256.819 76.4889C256.611 76.6978 256.493 76.9812 256.493 77.2766C256.493 77.5721 256.611 77.8554 256.819 78.0643C257.028 78.2733 257.312 78.3906 257.607 78.3906Z" fill="white"/>
<path d="M332.655 152.615H298.434C298.138 152.615 297.855 152.732 297.646 152.941C297.437 153.15 297.32 153.434 297.32 153.729C297.32 154.025 297.437 154.308 297.646 154.517C297.855 154.726 298.138 154.843 298.434 154.843H332.655C332.951 154.843 333.234 154.726 333.443 154.517C333.652 154.308 333.769 154.025 333.769 153.729C333.769 153.434 333.652 153.15 333.443 152.941C333.234 152.732 332.951 152.615 332.655 152.615Z" fill="white"/>
<path opacity="0.5" d="M288.732 152.615H257.607C257.312 152.615 257.028 152.732 256.819 152.941C256.611 153.15 256.493 153.434 256.493 153.729C256.493 154.025 256.611 154.308 256.819 154.517C257.028 154.726 257.312 154.843 257.607 154.843H288.732C289.027 154.843 289.31 154.726 289.519 154.517C289.728 154.308 289.846 154.025 289.846 153.729C289.846 153.434 289.728 153.15 289.519 152.941C289.31 152.732 289.027 152.615 288.732 152.615Z" fill="white"/>
<path opacity="0.5" d="M320.725 85.3418C321.021 85.3418 321.304 85.2245 321.513 85.0156C321.722 84.8067 321.839 84.5233 321.839 84.2279C321.839 83.9324 321.722 83.6491 321.513 83.4402C321.304 83.2313 321.021 83.1139 320.725 83.1139H316.715C316.42 83.1139 316.136 83.2313 315.927 83.4402C315.718 83.6491 315.601 83.9324 315.601 84.2279C315.601 84.5233 315.718 84.8067 315.927 85.0156C316.136 85.2245 316.42 85.3418 316.715 85.3418H320.725Z" fill="white"/>
<path opacity="0.5" d="M271.899 91.1791C271.899 90.8837 271.782 90.6003 271.573 90.3914C271.364 90.1825 271.08 90.0651 270.785 90.0651H265.405C265.109 90.0651 264.826 90.1825 264.617 90.3914C264.408 90.6003 264.291 90.8837 264.291 91.1791C264.291 91.4745 264.408 91.7579 264.617 91.9668C264.826 92.1757 265.109 92.2931 265.405 92.2931H270.785C271.08 92.2931 271.364 92.1757 271.573 91.9668C271.782 91.7579 271.899 91.4745 271.899 91.1791Z" fill="white"/>
<path opacity="0.5" d="M333.324 118.984C333.324 118.689 333.206 118.405 332.997 118.196C332.788 117.987 332.505 117.87 332.21 117.87H326.328C326.032 117.87 325.749 117.987 325.54 118.196C325.331 118.405 325.214 118.689 325.214 118.984C325.214 119.279 325.331 119.563 325.54 119.772C325.749 119.981 326.032 120.098 326.328 120.098H332.21C332.505 120.098 332.788 119.981 332.997 119.772C333.206 119.563 333.324 119.279 333.324 118.984Z" fill="white"/>
<path opacity="0.5" d="M352.607 113.147C352.902 113.147 353.186 113.029 353.395 112.82C353.603 112.612 353.721 112.328 353.721 112.033C353.721 111.737 353.603 111.454 353.395 111.245C353.186 111.036 352.902 110.919 352.607 110.919H347.828C347.532 110.919 347.249 111.036 347.04 111.245C346.831 111.454 346.714 111.737 346.714 112.033C346.714 112.328 346.831 112.612 347.04 112.82C347.249 113.029 347.532 113.147 347.828 113.147H352.607Z" fill="white"/>
<path opacity="0.5" d="M275.386 131.773C275.091 131.773 274.807 131.89 274.598 132.099C274.389 132.308 274.272 132.591 274.272 132.887C274.272 133.182 274.389 133.465 274.598 133.674C274.807 133.883 275.091 134 275.386 134H280.187C280.483 134 280.766 133.883 280.975 133.674C281.184 133.465 281.301 133.182 281.301 132.887C281.301 132.591 281.184 132.308 280.975 132.099C280.766 131.89 280.483 131.773 280.187 131.773H275.386Z" fill="white"/>
<path d="M84.9181 378.597L115.553 375.589V332.534H127.695V375.578L158.452 378.597C159.927 378.74 161.296 379.428 162.293 380.525C163.289 381.623 163.842 383.052 163.843 384.534V389.135H79.5376V384.534C79.5386 383.054 80.0898 381.626 81.084 380.529C82.0783 379.432 83.4447 378.743 84.9181 378.597Z" fill="#263238"/>
<path opacity="0.2" d="M84.9181 378.597L115.553 375.589V332.534H127.695V375.578L158.452 378.597C159.927 378.74 161.296 379.428 162.293 380.525C163.289 381.623 163.842 383.052 163.843 384.534V389.135H79.5376V384.534C79.5386 383.054 80.0898 381.626 81.084 380.529C82.0783 379.432 83.4447 378.743 84.9181 378.597Z" fill="white"/>
<path d="M160.602 402.792C164.989 402.792 168.545 399.236 168.545 394.85C168.545 390.463 164.989 386.907 160.602 386.907C156.216 386.907 152.66 390.463 152.66 394.85C152.66 399.236 156.216 402.792 160.602 402.792Z" fill="#263238"/>
<path d="M82.7796 402.792C87.1662 402.792 90.7223 399.236 90.7223 394.85C90.7223 390.463 87.1662 386.907 82.7796 386.907C78.393 386.907 74.8369 390.463 74.8369 394.85C74.8369 399.236 78.393 402.792 82.7796 402.792Z" fill="#263238"/>
<path d="M125.167 341.791H118.048C116.828 341.791 115.658 341.306 114.795 340.443C113.932 339.581 113.447 338.41 113.447 337.19V303.448H129.79V337.19C129.79 337.796 129.67 338.396 129.437 338.956C129.205 339.516 128.864 340.024 128.434 340.451C128.005 340.879 127.495 341.217 126.934 341.447C126.373 341.677 125.773 341.794 125.167 341.791Z" fill="#263238"/>
<path opacity="0.3" d="M125.167 341.791H118.048C116.828 341.791 115.658 341.306 114.795 340.443C113.932 339.581 113.447 338.41 113.447 337.19V303.448H129.79V337.19C129.79 337.796 129.67 338.396 129.437 338.956C129.205 339.516 128.864 340.024 128.434 340.451C128.005 340.879 127.495 341.217 126.934 341.447C126.373 341.677 125.773 341.794 125.167 341.791Z" fill="white"/>
<path d="M92.5935 236.163C92.5935 236.163 90.2319 293.556 106.262 303.437H88.0039C88.0039 303.437 73.8787 283.875 77.8667 236.163H92.5935Z" fill="#263238"/>
<path opacity="0.3" d="M92.5935 236.163C92.5935 236.163 90.2319 293.556 106.262 303.437H88.0039C88.0039 303.437 73.8787 283.875 77.8667 236.163H92.5935Z" fill="white"/>
<path d="M87.3692 295.405H158.018C159.495 295.405 160.912 295.992 161.956 297.036C163.001 298.081 163.588 299.497 163.588 300.975V307.837H81.7993V300.975C81.7993 299.497 82.3861 298.081 83.4307 297.036C84.4753 295.992 85.892 295.405 87.3692 295.405Z" fill="#263238"/>
<path d="M164.769 301.621H80.6297C79.3931 301.621 78.3906 302.623 78.3906 303.86V305.598C78.3906 306.834 79.3931 307.837 80.6297 307.837H164.769C166.005 307.837 167.008 306.834 167.008 305.598V303.86C167.008 302.623 166.005 301.621 164.769 301.621Z" fill="#263238"/>
<path opacity="0.6" d="M164.769 301.621H80.6297C79.3931 301.621 78.3906 302.623 78.3906 303.86V305.598C78.3906 306.834 79.3931 307.837 80.6297 307.837H164.769C166.005 307.837 167.008 306.834 167.008 305.598V303.86C167.008 302.623 166.005 301.621 164.769 301.621Z" fill="white"/>
<path d="M74.1239 247.805H101.895C110.866 247.805 118.137 240.533 118.137 231.563V221.593C118.137 212.622 110.866 205.351 101.895 205.351H74.1239C65.1538 205.351 57.8821 212.622 57.8821 221.593V231.563C57.8821 240.533 65.1538 247.805 74.1239 247.805Z" fill="#263238"/>
<path d="M153.874 394.738L162.752 393.524L163.977 372.425L155.121 373.662L153.874 394.738Z" fill="#EBB376"/>
<path opacity="0.2" d="M155.121 373.662L163.977 372.436L163.276 384.501L154.431 385.269L155.121 373.662Z" fill="black"/>
<path d="M154.23 270.697L152.069 257.14L102.319 254.165C102.319 254.165 97.0274 282.382 101.093 289.902C108.345 303.325 147.457 296.586 158.898 297.878C152.058 325.85 152.726 380.513 152.726 380.513L169.068 381.76C169.068 381.76 181.645 322.853 184.185 294.87C185.901 276.01 170.249 276.489 154.23 270.697Z" fill="#FFC727"/>
<path d="M150.81 381.315L170.45 382.607L172.132 374.196L150.554 373.194L150.81 381.315Z" fill="#FFC727"/>
<path d="M174.349 386.862L183.283 387.52L188.875 367.145L179.952 366.499L174.349 386.862Z" fill="#EBB376"/>
<path d="M184.519 387.921C184.519 387.921 184.519 387.921 184.519 387.987H184.586C185.293 388.379 186.04 388.692 186.814 388.923C187.374 389.135 187.992 389.135 188.552 388.923C188.736 388.818 188.886 388.663 188.984 388.475C189.083 388.288 189.126 388.076 189.109 387.865C189.12 387.732 189.098 387.599 189.046 387.477C188.993 387.354 188.912 387.247 188.808 387.163C188.007 386.842 187.118 386.818 186.302 387.096C186.943 386.668 187.41 386.024 187.616 385.28C187.632 385.106 187.587 384.931 187.49 384.785C187.393 384.639 187.249 384.531 187.081 384.478C186.941 384.41 186.787 384.374 186.63 384.374C186.474 384.374 186.319 384.41 186.179 384.478C185.065 385.08 184.675 387.575 184.642 387.709H184.486C184.476 387.745 184.475 387.782 184.48 387.818C184.486 387.855 184.499 387.89 184.519 387.921ZM185.188 387.419L184.987 387.486C185.199 386.662 185.644 385.314 186.302 384.969C186.372 384.925 186.452 384.896 186.534 384.885C186.616 384.873 186.7 384.879 186.781 384.902H186.87C187.148 385.013 187.193 385.18 187.17 385.303C187.148 385.938 186.034 386.94 185.188 387.419ZM185.188 387.887C186.368 387.531 188.006 387.208 188.529 387.586C188.58 387.625 188.619 387.677 188.645 387.735C188.67 387.793 188.68 387.857 188.674 387.921C188.683 388.054 188.656 388.188 188.595 388.308C188.534 388.427 188.442 388.528 188.329 388.6C187.828 388.879 186.68 388.611 185.221 387.887H185.188Z" fill="#FFC727"/>
<path opacity="0.2" d="M179.952 366.499L188.875 367.156L185.678 378.797L176.855 377.717L179.952 366.499Z" fill="black"/>
<path d="M191.905 377.36L176.176 372.737C176.176 372.737 185.566 319.734 195.113 301.353C194.4 301.119 193.453 300.819 192.284 300.473C190.178 299.838 187.382 299.047 184.096 298.134C161.237 291.795 114.907 279.909 114.907 279.909L136.072 260.158C136.072 260.158 220.378 273.014 222.127 295.226C222.94 305.91 191.905 377.36 191.905 377.36Z" fill="#FFC727"/>
<path d="M174.148 373.094L193.086 378.441L196.483 370.565L175.585 365.095L174.148 373.094Z" fill="#FFC727"/>
<path opacity="0.2" d="M192.261 300.473C190.156 299.838 187.36 299.047 184.074 298.134C184.731 292.742 184.742 286.56 182.146 283.407C176.989 277.124 163.721 273.381 156.168 272.1C149.852 270.986 128.631 268.758 128.631 268.758C128.631 268.758 156.168 266.118 184.33 274.328C198.288 278.405 195.525 292.007 192.261 300.473Z" fill="black"/>
<path opacity="0.2" d="M150.81 381.315L170.45 382.607L172.132 374.196L150.554 373.194L150.81 381.315Z" fill="white"/>
<path opacity="0.2" d="M174.148 373.094L193.086 378.441L196.483 370.565L175.585 365.095L174.148 373.094Z" fill="white"/>
<path d="M184.163 386.617L174.482 383.91C174.321 383.861 174.147 383.876 173.998 383.953C173.848 384.03 173.734 384.163 173.68 384.322L171.074 391.853C171.018 392.053 171.003 392.263 171.029 392.469C171.055 392.676 171.122 392.875 171.225 393.055C171.329 393.235 171.468 393.393 171.633 393.52C171.798 393.646 171.986 393.738 172.188 393.791C175.53 394.682 177.234 394.905 181.5 396.086C185.247 397.295 189.074 398.241 192.952 398.916C196.684 399.339 196.996 395.641 195.459 395.128C191.805 393.903 187.438 390.104 185.533 387.508C185.188 387.068 184.706 386.754 184.163 386.617Z" fill="#263238"/>
<path d="M163.632 393.546H163.821C163.821 393.546 164.022 393.613 164.044 393.635C164.066 393.658 164.044 393.635 164.044 393.691H164.122C164.879 393.927 165.66 394.08 166.45 394.148C167.04 394.257 167.649 394.137 168.155 393.814C168.305 393.675 168.415 393.499 168.472 393.302C168.529 393.105 168.531 392.897 168.478 392.7C168.46 392.567 168.411 392.441 168.333 392.332C168.255 392.223 168.152 392.135 168.032 392.076C167.176 391.933 166.297 392.094 165.548 392.533C166.076 391.981 166.388 391.257 166.428 390.494C166.394 390.313 166.301 390.148 166.165 390.026C166.028 389.903 165.854 389.828 165.67 389.814C165.498 389.784 165.321 389.789 165.151 389.83C164.98 389.87 164.82 389.944 164.679 390.048C163.743 390.85 163.565 393.39 163.565 393.535L163.632 393.546ZM164.601 393.034L164.412 393.134C164.358 392.162 164.624 391.2 165.169 390.394C165.23 390.336 165.302 390.293 165.38 390.266C165.459 390.239 165.543 390.229 165.626 390.238H165.726C166.016 390.293 166.094 390.438 166.105 390.561C165.904 391.534 165.373 392.408 164.601 393.034ZM164.723 393.468C165.837 392.878 167.33 392.221 167.909 392.488C167.969 392.514 168.02 392.556 168.057 392.609C168.094 392.662 168.116 392.724 168.121 392.789C168.156 392.917 168.157 393.053 168.124 393.181C168.09 393.31 168.024 393.428 167.932 393.524C167.475 393.914 166.305 393.892 164.723 393.468Z" fill="#FFC727"/>
<path d="M163.42 392.455L153.395 391.831C153.228 391.812 153.06 391.86 152.929 391.964C152.797 392.069 152.712 392.221 152.693 392.388L151.712 400.297C151.685 400.713 151.823 401.123 152.096 401.438C152.369 401.753 152.756 401.948 153.172 401.979C156.67 402.135 158.352 402.035 162.763 402.28C166.678 402.685 170.616 402.811 174.549 402.659C178.281 402.291 177.824 398.615 176.22 398.437C172.388 398.002 167.308 395.184 164.924 393.056C164.503 392.695 163.974 392.483 163.42 392.455Z" fill="#263238"/>
<path d="M174.516 220.089C174.516 220.089 177.323 235.306 182.38 238.235C187.438 241.165 222.417 220.267 222.417 220.267L219.487 214.363C219.487 214.363 190.2 222.272 189.922 222.317C189.643 222.361 188.808 215.633 188.808 215.633L174.516 220.089Z" fill="#263238"/>
<path d="M185.432 196.16C187.738 199.012 191.002 220.089 191.002 220.089L173.825 224.088L170.104 213.416L185.432 196.16Z" fill="#FFC727"/>
<path opacity="0.4" d="M185.432 196.16C187.738 199.012 191.002 220.089 191.002 220.089L173.825 224.088L170.104 213.416L185.432 196.16Z" fill="white"/>
<path d="M97.395 271.733L155.043 262.141C155.043 262.141 158.653 227.898 185.433 196.16C185.433 196.16 176.131 175.841 143.046 178.66C109.961 181.478 97.395 271.733 97.395 271.733Z" fill="#FFC727"/>
<path opacity="0.6" d="M97.395 271.733L155.043 262.141C155.043 262.141 158.653 227.898 185.433 196.16C185.433 196.16 176.131 175.841 143.046 178.66C109.961 181.478 97.395 271.733 97.395 271.733Z" fill="white"/>
<path d="M142.266 207.802C142.266 207.802 141.687 223.642 143.447 224.511C145.207 225.38 178.504 213.305 183.784 212.425C189.064 211.544 201.173 216.168 201.173 216.168L202.287 223.397C202.287 223.397 191.504 223.186 185.444 220.234C185.444 220.234 146.544 243.493 138.167 242.168C129.79 240.842 126.916 209.428 126.916 209.428L142.266 207.802Z" fill="#EBB376"/>
<path d="M142.266 213.416C142.266 213.416 142.389 222.729 144.327 223.442C146.266 224.155 175.073 214.006 175.073 214.006L179.629 224.556C179.629 224.556 143.224 248.049 136.184 242.268C129.144 236.486 127.373 215.778 127.373 215.778L142.266 213.416Z" fill="#263238"/>
<path d="M137.019 182.213C147.379 181.099 143.636 217.783 143.636 217.783L126.225 220.267C126.225 220.267 118.772 184.129 137.019 182.213Z" fill="#FFC727"/>
<path opacity="0.4" d="M137.019 182.213C147.379 181.099 143.636 217.783 143.636 217.783L126.225 220.267C126.225 220.267 118.772 184.129 137.019 182.213Z" fill="white"/>
<path d="M153.451 179.562C153.451 179.562 153.105 195.67 162.975 197.308C172.845 198.945 173.881 185.834 173.881 185.834C173.881 185.834 167.242 178.682 153.451 179.562Z" fill="#263238"/>
<path d="M178.237 188.474C176.525 187.87 174.657 187.87 172.945 188.474C172.552 190.15 171.609 191.647 170.267 192.725C168.924 193.803 167.259 194.401 165.537 194.423C164.689 194.466 163.839 194.428 162.998 194.311C154.375 193.13 155.322 180.309 155.322 180.309C158.466 180.525 161.6 179.77 164.301 178.147C166.593 176.805 168.593 175.017 170.183 172.889L178.237 188.474Z" fill="#EBB376"/>
<path opacity="0.2" d="M178.236 188.474C176.524 187.87 174.657 187.87 172.945 188.474C172.552 190.15 171.609 191.647 170.266 192.725C168.924 193.803 167.259 194.401 165.537 194.423C163.309 188.931 163.61 182.637 164.3 178.147C166.592 176.805 168.592 175.017 170.182 172.889L178.236 188.474Z" fill="black"/>
<path d="M184.92 163.577C181.077 166.183 182.826 170.595 191.515 177.512C195.046 172.934 195.625 164.044 192.829 161.816C190.033 159.589 188.262 161.315 184.92 163.577Z" fill="#263238"/>
<path d="M168.422 170.728C168.834 180.119 168.611 185.633 173.257 190.524C180.253 197.887 191.905 193.788 194.3 184.464C196.45 176.087 195.414 162.184 186.301 158.252C184.296 157.384 182.103 157.043 179.929 157.262C177.755 157.481 175.673 158.252 173.882 159.503C172.09 160.753 170.648 162.441 169.692 164.406C168.736 166.37 168.299 168.547 168.422 170.728Z" fill="#EBB376"/>
<path d="M182.38 173.547C182.38 174.304 182.77 174.928 183.26 174.939C183.751 174.95 184.174 174.338 184.185 173.58C184.196 172.823 183.806 172.188 183.316 172.176C182.826 172.165 182.447 172.789 182.38 173.547Z" fill="#263238"/>
<path d="M191.059 173.703C191.059 174.46 191.437 175.095 191.939 175.095C192.44 175.095 192.852 174.505 192.874 173.725C192.897 172.945 192.484 172.344 191.983 172.332C191.482 172.321 191.07 172.934 191.059 173.703Z" fill="#263238"/>
<path d="M188.262 174.014C189.13 176.364 190.322 178.58 191.805 180.598C191.275 180.96 190.673 181.203 190.04 181.31C189.408 181.418 188.759 181.388 188.14 181.222L188.262 174.014Z" fill="#D58745"/>
<path d="M194.946 168.667C194.904 168.74 194.844 168.799 194.772 168.84C194.699 168.882 194.617 168.903 194.534 168.901C193.972 168.851 193.406 168.934 192.883 169.145C192.36 169.356 191.895 169.689 191.526 170.116C191.491 170.162 191.447 170.202 191.397 170.232C191.346 170.262 191.291 170.281 191.233 170.289C191.175 170.298 191.116 170.294 191.059 170.28C191.002 170.265 190.949 170.24 190.902 170.205C190.855 170.171 190.815 170.129 190.784 170.08C190.753 170.031 190.733 169.977 190.723 169.919C190.714 169.862 190.716 169.804 190.73 169.748C190.743 169.692 190.768 169.639 190.802 169.592C191.259 169.046 191.841 168.617 192.498 168.342C193.155 168.066 193.868 167.953 194.579 168.01C194.637 168.012 194.694 168.025 194.747 168.049C194.8 168.072 194.847 168.107 194.887 168.149C194.926 168.192 194.957 168.242 194.976 168.296C194.996 168.351 195.005 168.409 195.002 168.467C195.001 168.537 194.982 168.606 194.946 168.667Z" fill="#263238"/>
<path d="M186.034 170.349C185.954 170.376 185.867 170.38 185.784 170.36C185.702 170.341 185.626 170.298 185.566 170.238C185.183 169.823 184.706 169.506 184.175 169.312C183.644 169.118 183.075 169.054 182.514 169.124C182.396 169.144 182.275 169.118 182.176 169.052C182.076 168.986 182.006 168.884 181.979 168.768C181.956 168.652 181.98 168.533 182.044 168.435C182.109 168.337 182.21 168.268 182.325 168.244C183.03 168.139 183.75 168.204 184.424 168.435C185.099 168.666 185.708 169.055 186.201 169.57C186.281 169.656 186.326 169.769 186.326 169.887C186.326 170.005 186.281 170.118 186.201 170.205L186.034 170.349Z" fill="#263238"/>
<path d="M172.299 162.485C176.655 164.067 176.042 168.779 169.302 177.601C164.769 174.026 162.017 165.548 164.2 162.708C166.384 159.867 168.489 161.115 172.299 162.485Z" fill="#263238"/>
<path d="M163.833 178.159C164.136 179.29 164.659 180.35 165.372 181.279C166.084 182.208 166.974 182.987 167.988 183.572C170.706 185.11 172.811 182.848 172.689 179.896C172.566 177.223 171.007 173.212 167.977 172.878C164.947 172.544 163.086 175.351 163.833 178.159Z" fill="#EBB376"/>
<path d="M181.055 182.782C181.055 182.782 182.682 185.856 187.227 185.711" stroke="#263238" stroke-width="0.139035" stroke-linecap="round" stroke-linejoin="round"/>
<path d="M173.301 165.749C173.301 165.749 177 165.938 178.704 168.278C179.161 167.671 179.481 166.972 179.641 166.23C179.801 165.487 179.796 164.718 179.629 163.978C179.629 163.978 184.085 164.523 186.079 167.62C186.634 166.491 186.866 165.23 186.747 163.978C187.593 165.006 188.068 166.289 188.095 167.62C188.095 167.62 191.504 165.459 191.058 163.432C191.904 164.465 192.522 165.664 192.874 166.952C192.874 166.952 195.102 166.183 194.623 162.217C195.37 163.038 195.916 164.023 196.216 165.092C196.216 165.092 199.134 156.815 188.095 152.192C177.055 147.569 164.378 153.049 164.601 162.217C164.824 171.386 173.301 165.749 173.301 165.749Z" fill="#263238"/>
<path d="M187.226 175.095C187.226 177.524 185.578 179.495 183.561 179.495C181.545 179.495 179.885 177.524 179.885 175.095C179.885 172.667 181.534 170.639 183.561 170.639C185.589 170.639 187.226 172.667 187.226 175.095Z" stroke="#263238" stroke-width="0.139035" stroke-linecap="round" stroke-linejoin="round"/>
<path d="M197.263 174.895C197.263 177.323 195.625 179.35 193.598 179.35C191.571 179.35 189.922 177.379 189.922 174.895C189.922 172.41 191.571 170.494 193.598 170.494C195.625 170.494 197.263 172.511 197.263 174.895Z" stroke="#263238" stroke-width="0.139035" stroke-linecap="round" stroke-linejoin="round"/>
<path d="M187.226 175.095C187.584 174.753 188.051 174.55 188.545 174.521C189.039 174.493 189.527 174.641 189.922 174.939" stroke="#263238" stroke-width="0.139035" stroke-linecap="round" stroke-linejoin="round"/>
<path d="M179.885 175.095L170.951 174.326" stroke="#263238" stroke-width="0.139035" stroke-linecap="round" stroke-linejoin="round"/>
<path d="M262.776 220.089V223.041C262.776 223.921 261.261 224.545 260.381 224.545H191.604C190.724 224.545 189.31 223.921 189.31 223.041V220.089H262.776Z" fill="#263238"/>
<path opacity="0.6" d="M262.776 220.089V223.041C262.776 223.921 261.261 224.545 260.381 224.545H191.604C190.724 224.545 189.31 223.921 189.31 223.041V220.089H262.776Z" fill="white"/>
<path opacity="0.2" d="M262.777 220.089V223.041C262.777 223.921 261.262 224.545 260.382 224.545H214.998C214.118 224.545 212.659 223.921 212.659 223.041V220.089H262.777Z" fill="black"/>
<path d="M273.816 183.907L265.628 221.191C265.483 221.8 265.145 222.345 264.666 222.746C264.186 223.148 263.59 223.384 262.966 223.419H218.195C217.909 223.392 217.632 223.301 217.385 223.154C217.137 223.007 216.926 222.807 216.765 222.569C216.604 222.33 216.498 222.059 216.455 221.775C216.411 221.49 216.431 221.2 216.513 220.924L224.7 184.029C224.867 183.465 225.223 182.976 225.708 182.644C226.192 182.311 226.777 182.155 227.363 182.202H272.123C273.326 182.213 274.039 182.692 273.816 183.907Z" fill="#263238"/>
<path opacity="0.6" d="M273.816 183.907L265.628 221.191C265.483 221.8 265.145 222.345 264.666 222.746C264.186 223.148 263.59 223.384 262.966 223.419H218.195C217.909 223.392 217.632 223.301 217.385 223.154C217.137 223.007 216.926 222.807 216.765 222.569C216.604 222.33 216.498 222.059 216.455 221.775C216.411 221.49 216.431 221.2 216.513 220.924L224.7 184.029C224.867 183.465 225.223 182.976 225.708 182.644C226.192 182.311 226.777 182.155 227.363 182.202H272.123C273.326 182.213 274.039 182.692 273.816 183.907Z" fill="white"/>
<path opacity="0.4" d="M273.816 183.907L265.628 221.191C265.483 221.8 265.145 222.345 264.666 222.746C264.186 223.148 263.59 223.384 262.965 223.419H219.721C219.434 223.393 219.156 223.304 218.907 223.158C218.659 223.011 218.446 222.811 218.284 222.573C218.122 222.334 218.015 222.062 217.97 221.777C217.926 221.492 217.946 221.201 218.028 220.924L226.226 184.029C226.393 183.465 226.749 182.976 227.234 182.644C227.718 182.311 228.303 182.155 228.889 182.202H272.122C273.325 182.213 274.038 182.692 273.816 183.907Z" fill="white"/>
<path opacity="0.2" d="M247.481 207.801C249.564 207.801 251.703 205.574 252.249 202.811C252.795 200.048 251.536 197.809 249.442 197.809C249.06 197.817 248.683 197.893 248.328 198.032C248.135 199.017 247.712 199.943 247.095 200.734C246.478 201.526 245.683 202.161 244.774 202.588C244.75 202.661 244.732 202.735 244.719 202.811C244.128 205.562 245.387 207.801 247.481 207.801Z" fill="black"/>
<path d="M302.267 193.91L312.694 204.337L316.225 224.545H294.781L295.661 222.317L307.414 220.089L308.439 207.802L300.652 205.952L302.267 193.91Z" fill="#263238"/>
<path opacity="0.6" d="M316.225 224.545H294.781L295.661 222.317L307.414 220.089L308.439 207.802L307.425 207.556L300.652 205.952L302.267 193.91L312.694 204.337L316.225 224.545Z" fill="white"/>
<path opacity="0.2" d="M311.246 202.889L307.425 207.556L300.652 205.952L302.267 193.91L311.246 202.889Z" fill="black"/>
<path d="M301.053 211.411H289.078C288.962 211.414 288.847 211.392 288.741 211.345C288.636 211.299 288.541 211.229 288.466 211.142C288.39 211.054 288.335 210.951 288.304 210.84C288.273 210.728 288.267 210.611 288.287 210.497L295.205 159.132C295.245 158.866 295.38 158.624 295.585 158.45C295.789 158.276 296.05 158.182 296.319 158.185H308.294C308.411 158.18 308.527 158.201 308.634 158.247C308.741 158.293 308.837 158.362 308.914 158.449C308.991 158.537 309.047 158.641 309.079 158.753C309.11 158.865 309.116 158.983 309.096 159.098L302.1 210.542C302.046 210.782 301.914 210.998 301.725 211.155C301.535 211.312 301.299 211.402 301.053 211.411Z" fill="#263238"/>
<path opacity="0.6" d="M301.053 211.411H289.078C288.962 211.414 288.847 211.392 288.741 211.345C288.636 211.299 288.541 211.229 288.466 211.142C288.39 211.054 288.335 210.951 288.304 210.84C288.273 210.728 288.267 210.611 288.287 210.497L295.205 159.132C295.245 158.866 295.38 158.624 295.585 158.45C295.789 158.276 296.05 158.182 296.319 158.185H308.294C308.411 158.18 308.527 158.201 308.634 158.247C308.741 158.293 308.837 158.362 308.914 158.449C308.991 158.537 309.047 158.641 309.079 158.753C309.11 158.865 309.116 158.983 309.096 159.098L302.1 210.542C302.046 210.782 301.914 210.998 301.725 211.155C301.535 211.312 301.299 211.402 301.053 211.411Z" fill="white"/>
<path opacity="0.4" d="M297.711 211.411H289.078C288.962 211.414 288.847 211.392 288.741 211.345C288.636 211.299 288.541 211.229 288.466 211.142C288.39 211.054 288.335 210.951 288.304 210.84C288.273 210.728 288.267 210.611 288.287 210.497L295.205 159.132C295.245 158.866 295.38 158.624 295.585 158.45C295.789 158.276 296.05 158.182 296.319 158.185H304.952C305.069 158.18 305.185 158.201 305.292 158.247C305.399 158.293 305.495 158.362 305.572 158.449C305.649 158.537 305.705 158.641 305.737 158.753C305.768 158.865 305.774 158.983 305.754 159.098L298.758 210.542C298.704 210.782 298.572 210.998 298.383 211.155C298.193 211.312 297.957 211.402 297.711 211.411Z" fill="white"/>
<path d="M298.223 209.796H289.033L295.795 159.834H304.985L298.223 209.796Z" fill="#FFC727"/>
<path d="M218.896 402.781H212.068L199.803 232.075H208.859L218.896 402.781Z" fill="#263238"/>
<path opacity="0.4" d="M218.896 402.781H212.068L200.404 240.552L199.803 232.342H208.859L209.35 240.552L218.896 402.781Z" fill="white"/>
<path opacity="0.2" d="M209.35 240.14H200.404L199.803 232.342H208.859L209.35 240.14Z" fill="black"/>
<path d="M268.981 402.781H262.153L261.039 232.075H270.095L268.981 402.781Z" fill="#263238"/>
<path opacity="0.5" d="M270.095 232.342L269.917 259.891L268.981 402.781H262.153L261.217 259.891L261.039 232.342H270.095Z" fill="white"/>
<path opacity="0.2" d="M270.095 232.342L269.917 260.192H261.217L261.039 232.342H270.095Z" fill="black"/>
<path d="M341.434 402.781H334.606L322.341 232.075H331.397L341.434 402.781Z" fill="#263238"/>
<path opacity="0.5" d="M341.434 402.781H334.606L322.942 240.552L322.341 232.342H331.397L331.888 240.552L341.434 402.781Z" fill="white"/>
<path opacity="0.2" d="M331.888 240.14H322.942L322.341 232.342H331.397L331.888 240.14Z" fill="black"/>
<path d="M140.829 402.781H134L144.026 232.075H153.083L140.829 402.781Z" fill="#263238"/>
<path opacity="0.5" d="M153.083 232.342L152.481 240.552L140.818 402.781H134L143.536 240.552L144.026 232.342H153.083Z" fill="white"/>
<path opacity="0.2" d="M144.026 232.342H153.083L152.481 240.14H143.536L144.026 232.342Z" fill="black"/>
<path d="M136.852 227.797H338.572V233.936C338.572 234.574 338.318 235.186 337.867 235.637C337.416 236.088 336.804 236.342 336.165 236.342H139.248C138.609 236.342 137.997 236.088 137.546 235.637C137.095 235.186 136.841 234.574 136.841 233.936V227.797H136.852Z" fill="#FFC727"/>
<path opacity="0.2" d="M338.571 227.797H136.852V232.075H338.571V227.797Z" fill="black"/>
<path d="M342.805 228.911H132.63C131.991 228.911 131.378 228.658 130.925 228.207C130.472 227.756 130.216 227.144 130.213 226.505C130.213 225.864 130.468 225.249 130.921 224.796C131.374 224.343 131.989 224.088 132.63 224.088H342.805C343.444 224.091 344.056 224.347 344.507 224.8C344.958 225.253 345.211 225.866 345.211 226.505C345.211 226.821 345.149 227.134 345.028 227.426C344.907 227.718 344.729 227.983 344.506 228.207C344.283 228.43 344.017 228.607 343.725 228.728C343.433 228.849 343.121 228.911 342.805 228.911Z" fill="#FFC727"/>
</svg>
