<svg width="127" height="24" viewBox="0 0 127 24" fill="none" xmlns="http://www.w3.org/2000/svg">
<path d="M3.331 6.18894L0 9.52214V16.3588L3.44373 19.8047L8.10536 15.1431H18.7327L23.2883 19.6632L26.5596 16.3632V9.16849L23.2883 5.90601L18.4653 10.7179L7.8799 10.7202L3.331 6.18894Z" fill="white"/>
<path d="M7.63911 1.85889L19.2545 1.8611L20.1563 2.76292L16.633 6.28623H9.71684L6.45215 3.03701L7.63911 1.85889Z" fill="white"/>
<path d="M18.9694 24.0001L7.35176 23.9979L6.45215 23.096L9.97545 19.575H16.8894L20.1563 22.8242L18.9694 24.0001Z" fill="white"/>
<path d="M43.9417 9.32542C43.3905 9.09531 42.7994 8.97589 42.2021 8.97397C41.526 8.96444 40.862 9.1535 40.2924 9.51772C39.7296 9.87307 39.2718 10.3721 38.9662 10.9633C38.6539 11.572 38.491 12.2464 38.491 12.9305C38.491 13.6147 38.6539 14.289 38.9662 14.8977C39.2718 15.4889 39.7296 15.9879 40.2924 16.3433C40.862 16.7075 41.526 16.8966 42.2021 16.887C42.7994 16.8851 43.3905 16.7657 43.9417 16.5356C44.4894 16.3203 45.0008 16.0221 45.458 15.6515V18.726C44.4394 19.3289 43.2727 19.6351 42.0894 19.6102C40.8832 19.6299 39.6934 19.3294 38.6412 18.7393C37.6405 18.1759 36.8151 17.3466 36.2563 16.3433C35.6919 15.2982 35.3965 14.1292 35.3965 12.9416C35.3965 11.7539 35.6919 10.5849 36.2563 9.53982C36.8143 8.53418 37.6397 7.7026 38.6412 7.13717C39.6942 6.54923 40.8836 6.24958 42.0894 6.2685C43.2727 6.24354 44.4394 6.54977 45.458 7.15264V10.2272C45.002 9.85038 44.4905 9.5462 43.9417 9.32542Z" fill="white"/>
<path d="M51.5169 8.04777C51.8824 7.52933 52.3779 7.11617 52.9536 6.84976C53.5531 6.5594 54.2105 6.40828 54.8766 6.40769C55.3529 6.40058 55.827 6.47535 56.278 6.62872L55.8934 9.20599C55.5162 9.11132 55.1284 9.06527 54.7396 9.06895C54.3103 9.05084 53.8818 9.11985 53.4799 9.2718C53.0779 9.42375 52.711 9.6555 52.401 9.95309C51.8042 10.5425 51.5095 11.4849 51.5169 12.7801V19.1902H48.4423L48.418 6.62209H51.5125L51.5169 8.04777Z" fill="white"/>
<path d="M65.8818 16.6262C66.4521 16.3614 66.9638 15.9857 67.3871 15.521L69.3521 17.3755C68.0406 18.849 66.2326 19.5858 63.9279 19.5858C62.693 19.6113 61.4732 19.3109 60.3913 18.7149C59.3853 18.1547 58.5555 17.3249 57.9953 16.3189C57.425 15.2818 57.1347 14.1139 57.1532 12.9305C57.1393 11.7522 57.4237 10.5896 57.9798 9.55081C58.5073 8.55288 59.2977 7.71821 60.2653 7.13711C61.2621 6.5439 62.4034 6.23791 63.5632 6.25297C64.718 6.23839 65.8537 6.54852 66.8409 7.148C67.828 7.74748 68.6269 8.61222 69.1465 9.64366C69.738 10.8064 70.0333 12.0971 70.0064 13.4013C70.0095 13.6049 70.0021 13.8085 69.9843 14.0113H60.3339C60.4988 14.8466 60.9451 15.6002 61.5982 16.1465C62.2441 16.7061 63.0734 17.0083 63.9279 16.9953C64.5981 17.0133 65.2644 16.8874 65.8818 16.6262ZM61.4611 9.61933C60.866 10.183 60.4696 10.9244 60.3317 11.7324H66.7726C66.6612 10.921 66.2704 10.1737 65.6674 9.61933C65.098 9.07852 64.3396 8.78184 63.5544 8.79266C62.776 8.78362 62.0251 9.08046 61.4634 9.61933H61.4611Z" fill="white"/>
<path d="M82.2162 19.2146V18.0166C81.7066 18.5226 81.0988 18.919 80.4302 19.1814C79.7271 19.4614 78.9767 19.6032 78.2199 19.5992C77.0966 19.6147 75.9919 19.3128 75.0326 18.7283C74.0824 18.1479 73.3083 17.3196 72.7935 16.3323C72.2584 15.2782 71.9795 14.1127 71.9795 12.9306C71.9795 11.7484 72.2584 10.5829 72.7935 9.52883C73.3079 8.54387 74.0803 7.71721 75.0281 7.13723C75.9866 6.54943 77.0911 6.24305 78.2155 6.25309C78.9722 6.24906 79.7227 6.3909 80.4258 6.67085C81.0943 6.93326 81.7021 7.32966 82.2118 7.83569V0H85.2908V19.2146H82.2162ZM80.669 16.3898C81.2361 16.0436 81.6954 15.546 81.9952 14.953C82.3076 14.3246 82.4703 13.6324 82.4703 12.9306C82.4703 12.2288 82.3076 11.5365 81.9952 10.9081C81.6947 10.3109 81.2319 9.81059 80.6598 9.46457C80.0878 9.11856 79.4298 8.94088 78.7614 8.95193C78.0785 8.94077 77.4072 9.12895 76.8296 9.49346C76.2693 9.84968 75.8193 10.3548 75.5299 10.9523C75.2316 11.5691 75.0767 12.2454 75.0767 12.9306C75.0767 13.6157 75.2316 14.292 75.5299 14.9088C75.8193 15.5063 76.2693 16.0114 76.8296 16.3677C77.4072 16.7322 78.0785 16.9204 78.7614 16.9092C79.4328 16.9188 80.0932 16.7387 80.6667 16.3898H80.669Z" fill="white"/>
<path d="M98.1773 19.2147V18.0167C97.6677 18.5227 97.0599 18.9191 96.3914 19.1815C95.6883 19.4615 94.9378 19.6033 94.181 19.5993C93.0578 19.6147 91.953 19.3129 90.9937 18.7284C90.0454 18.1478 89.2735 17.3193 88.7612 16.3324C88.2261 15.2783 87.9473 14.1128 87.9473 12.9306C87.9473 11.7485 88.2261 10.583 88.7612 9.52891C89.2732 8.54434 90.0434 7.71762 90.9893 7.13731C91.9478 6.54951 93.0523 6.24313 94.1766 6.25317C94.9334 6.24914 95.6838 6.39098 96.387 6.67093C97.0555 6.93334 97.6633 7.32974 98.1729 7.83578V6.63777H101.248V19.2058L98.1773 19.2147ZM96.6301 16.3898C97.1973 16.0437 97.6566 15.5461 97.9563 14.9531C98.2688 14.3247 98.4314 13.6325 98.4314 12.9306C98.4314 12.2288 98.2688 11.5366 97.9563 10.9082C97.6563 10.312 97.1945 9.81237 96.6238 9.46642C96.0531 9.12047 95.3965 8.94221 94.7292 8.95201C94.0463 8.94085 93.3749 9.12903 92.7973 9.49354C92.2371 9.84976 91.7871 10.3549 91.4977 10.9524C91.1994 11.5692 91.0445 12.2455 91.0445 12.9306C91.0445 13.6158 91.1994 14.2921 91.4977 14.9089C91.7871 15.5064 92.2371 16.0115 92.7973 16.3677C93.3749 16.7323 94.0463 16.9204 94.7292 16.9093C95.3983 16.9176 96.0562 16.7376 96.6279 16.3898H96.6301Z" fill="white"/>
<path d="M107.739 8.04779C108.108 7.52856 108.608 7.11545 109.187 6.84978C109.786 6.55975 110.442 6.40864 111.108 6.40771C111.585 6.40044 112.059 6.4752 112.511 6.62875L112.127 9.20601C111.749 9.11134 111.362 9.06529 110.973 9.06897C110.543 9.05107 110.114 9.12017 109.712 9.2721C109.31 9.42403 108.942 9.65567 108.632 9.95311C108.043 10.5425 107.748 11.4849 107.748 12.7802V19.1902H104.675L104.653 6.62211H107.748L107.739 8.04779Z" fill="white"/>
<path d="M123.61 19.2146V18.0166C123.1 18.5226 122.492 18.919 121.824 19.1814C121.121 19.4618 120.37 19.6036 119.613 19.5992C118.49 19.6138 117.386 19.312 116.426 18.7283C115.473 18.1489 114.697 17.3204 114.18 16.3323C113.645 15.2782 113.366 14.1127 113.366 12.9306C113.366 11.7484 113.645 10.5829 114.18 9.52883C114.696 8.54302 115.471 7.71627 116.421 7.13723C117.38 6.54976 118.485 6.2434 119.609 6.25309C120.366 6.24867 121.116 6.39053 121.819 6.67085C122.488 6.93326 123.095 7.32966 123.605 7.83569V0H126.68V19.2146H123.61ZM122.062 16.3898C122.63 16.0439 123.089 15.5462 123.389 14.953C123.701 14.3246 123.864 13.6324 123.864 12.9306C123.864 12.2288 123.701 11.5365 123.389 10.9081C123.089 10.3085 122.626 9.80635 122.052 9.46003C121.478 9.11371 120.818 8.9375 120.148 8.95193C119.465 8.94085 118.793 9.12901 118.214 9.49346C117.654 9.84968 117.204 10.3548 116.914 10.9523C116.616 11.5691 116.461 12.2454 116.461 12.9306C116.461 13.6157 116.616 14.292 116.914 14.9088C117.204 15.5063 117.654 16.0114 118.214 16.3677C118.793 16.7321 119.465 16.9203 120.148 16.9092C120.822 16.9199 121.486 16.7398 122.062 16.3898Z" fill="white"/>
</svg>
