<svg width="301" height="225" viewBox="0 0 301 225" fill="none" xmlns="http://www.w3.org/2000/svg">
<g clip-path="url(#clip0_1174_54058)">
<path d="M300.811 197.491H0.188721V197.642H300.811V197.491Z" fill="#E0E0E0"/>
<path d="M258.556 205.344H241.487V205.494H258.556V205.344Z" fill="#E0E0E0"/>
<path d="M237.08 205.416H221.826V205.566H237.08V205.416Z" fill="#E0E0E0"/>
<path d="M166.505 201.935H145.973V202.085H166.505V201.935Z" fill="#E0E0E0"/>
<path d="M205.226 206.594H176.69V206.745H205.226V206.594Z" fill="#E0E0E0"/>
<path d="M86.0706 201.76H58.4434V201.91H86.0706V201.76Z" fill="#E0E0E0"/>
<path d="M98.793 201.76H89.4076V201.91H98.793V201.76Z" fill="#E0E0E0"/>
<path d="M61.9185 204.466H37.7424V204.616H61.9185V204.466Z" fill="#E0E0E0"/>
<path d="M142.684 170.676H26.5893C25.6799 170.674 24.8082 170.312 24.1656 169.668C23.5231 169.025 23.1622 168.152 23.1622 167.243V4.04673C23.1701 3.14247 23.5345 2.27785 24.1762 1.64067C24.8179 1.0035 25.685 0.645226 26.5893 0.643677L142.684 0.643677C143.594 0.643677 144.468 1.00538 145.111 1.64921C145.755 2.29305 146.117 3.16627 146.117 4.07679V167.243C146.117 168.153 145.755 169.027 145.111 169.67C144.468 170.314 143.594 170.676 142.684 170.676ZM26.5893 0.763926C25.7197 0.765519 24.8863 1.11209 24.2719 1.72756C23.6576 2.34303 23.3125 3.17711 23.3125 4.04673V167.243C23.3125 168.112 23.6576 168.946 24.2719 169.562C24.8863 170.177 25.7197 170.524 26.5893 170.526H142.684C143.553 170.522 144.387 170.176 145.002 169.561C145.617 168.946 145.963 168.112 145.967 167.243V4.04673C145.963 3.17705 145.617 2.34389 145.002 1.72894C144.387 1.11398 143.553 0.767094 142.684 0.763926H26.5893Z" fill="#E0E0E0"/>
<path d="M272.739 170.676H156.639C155.729 170.673 154.858 170.31 154.215 169.667C153.572 169.024 153.209 168.152 153.206 167.243V4.04673C153.215 3.14192 153.581 2.27731 154.224 1.6403C154.866 1.00329 155.734 0.645209 156.639 0.643677L272.739 0.643677C273.643 0.646806 274.508 1.00578 275.149 1.64278C275.789 2.27979 276.152 3.14351 276.16 4.04673V167.243C276.161 167.693 276.073 168.139 275.902 168.555C275.73 168.971 275.479 169.349 275.161 169.668C274.843 169.987 274.466 170.24 274.05 170.413C273.635 170.586 273.189 170.675 272.739 170.676ZM156.639 0.763926C155.769 0.767094 154.936 1.11398 154.321 1.72894C153.706 2.34389 153.359 3.17705 153.356 4.04673V167.243C153.359 168.112 153.706 168.946 154.321 169.561C154.936 170.176 155.769 170.522 156.639 170.526H272.739C273.609 170.522 274.442 170.176 275.057 169.561C275.672 168.946 276.019 168.112 276.022 167.243V4.04673C276.019 3.17705 275.672 2.34389 275.057 1.72894C274.442 1.11398 273.609 0.767094 272.739 0.763926H156.639Z" fill="#E0E0E0"/>
<path d="M197.614 15.2359H43.0936V93.1333H197.614V15.2359Z" fill="#E0E0E0"/>
<path d="M199.628 15.2359H45.1078V93.1333H199.628V15.2359Z" fill="#EFEFEF"/>
<path d="M196.014 18.8856H48.7273V89.4718H196.014V18.8856Z" fill="#F4F4F4"/>
<path d="M59.6338 89.4778L99.5805 18.8916H118.297L78.3566 89.4778H59.6338Z" fill="white"/>
<path d="M84.6396 89.4778L124.586 18.8916H143.303L103.362 89.4778H84.6396Z" fill="white"/>
<path d="M136.671 89.4778L176.612 18.8916H184.32L144.379 89.4778H136.671Z" fill="white"/>
<path d="M148.065 18.8856H142.618V89.4718H148.065V18.8856Z" fill="#E0E0E0"/>
<path d="M98.1016 18.8856H92.6543V89.4718H98.1016V18.8856Z" fill="#E0E0E0"/>
<path d="M149.977 16.174H144.53V91.7986H149.977V16.174Z" fill="#F4F4F4"/>
<path d="M100.013 16.174H94.5662V91.7986H100.013V16.174Z" fill="#F4F4F4"/>
<path d="M196.014 18.8856H194.493V89.4718H196.014V18.8856Z" fill="#E0E0E0"/>
<path d="M235.781 116.131C235.781 116.131 224.754 97.1254 240.05 81.998C240.05 81.998 244.042 84.5954 243.982 88.0947C243.922 91.5939 239.707 92.4778 240.609 95.3998C241.511 98.3219 245.497 101.184 242.887 103.595C240.278 106.006 243.302 108.158 243.128 111.11C242.954 114.062 235.781 116.131 235.781 116.131Z" fill="#E0E0E0"/>
<path d="M237.512 119.239C237.512 119.239 241.979 97.7265 222.692 88.1908C222.692 88.1908 219.727 91.9185 220.888 95.2193C222.048 98.5202 226.329 98.0332 226.389 101.087C226.449 104.142 223.575 108.116 226.816 109.583C230.057 111.05 227.856 114.044 228.956 116.798C230.057 119.552 237.512 119.239 237.512 119.239Z" fill="#EBEBEB"/>
<path d="M227.694 113.774C227.694 113.774 227.886 122.745 235.306 122.745C242.725 122.745 242.924 113.774 242.924 113.774H227.694Z" fill="#F4F4F4"/>
<path d="M176.209 115.758C176.209 115.758 176.462 122.744 186.22 122.744C195.978 122.744 196.237 115.758 196.237 115.758H176.209Z" fill="#EBEBEB"/>
<path d="M198.858 117.49C198.858 117.49 199.051 122.745 206.386 122.745C213.721 122.745 213.907 117.49 213.907 117.49H198.858Z" fill="#EBEBEB"/>
<path d="M183.082 127.104H166.656V192.982H183.082V127.104Z" fill="#EBEBEB"/>
<path d="M250.806 192.976H169.806V197.492H250.806V192.976Z" fill="#EBEBEB"/>
<path d="M253.962 127.098H183.082V192.976H253.962V127.098Z" fill="#F4F4F4"/>
<path d="M247.505 133.471H189.539V156.835H247.505V133.471Z" fill="#EBEBEB"/>
<path d="M247.505 161.092H189.539V184.457H247.505V161.092Z" fill="#EBEBEB"/>
<path d="M225.055 136.032H212.014C211.589 136.032 211.181 135.864 210.88 135.564C210.58 135.264 210.41 134.857 210.408 134.433C210.411 134.008 210.581 133.601 210.882 133.301C211.182 133.001 211.589 132.831 212.014 132.827H225.055C225.479 132.831 225.886 133.001 226.186 133.301C226.487 133.601 226.657 134.008 226.66 134.433C226.658 134.857 226.488 135.264 226.188 135.564C225.887 135.864 225.479 136.032 225.055 136.032Z" fill="#F4F4F4"/>
<path d="M225.055 163.653H212.014C211.589 163.653 211.181 163.485 210.88 163.185C210.58 162.886 210.41 162.479 210.408 162.054C210.411 161.629 210.581 161.223 210.882 160.922C211.182 160.622 211.589 160.452 212.014 160.449H225.055C225.479 160.452 225.886 160.622 226.186 160.922C226.487 161.223 226.657 161.629 226.66 162.054C226.658 162.479 226.488 162.886 226.188 163.185C225.887 163.485 225.479 163.653 225.055 163.653Z" fill="#F4F4F4"/>
<path d="M256.145 122.745H183.075V127.104H256.145V122.745Z" fill="#EBEBEB"/>
<path d="M183.076 122.738H164.353V127.097H183.076V122.738Z" fill="#E0E0E0"/>
<path d="M252.483 26.2026H216.902V67.1955H252.483V26.2026Z" fill="#EBEBEB"/>
<path d="M256.524 26.2026H217.966V67.1955H256.524V26.2026Z" fill="#F4F4F4"/>
<path d="M253.295 29.4313H221.195V63.9608H253.295V29.4313Z" fill="white"/>
<path d="M242.683 37.8008H231.806C230.242 37.8008 228.975 39.0687 228.975 40.6327V52.7598C228.975 54.3238 230.242 55.5917 231.806 55.5917H242.683C244.247 55.5917 245.515 54.3238 245.515 52.7598V40.6327C245.515 39.0687 244.247 37.8008 242.683 37.8008Z" fill="#F4F4F4"/>
<path d="M161.978 159.324H157.847V197.491H161.978V159.324Z" fill="#E0E0E0"/>
<path opacity="0.5" d="M161.978 159.324H159.91V197.491H161.978V159.324Z" fill="#F4F4F4"/>
<path d="M143.886 170.015H141.048C141.36 169.751 141.609 169.424 141.781 169.054C141.952 168.684 142.041 168.282 142.041 167.874H108.413C108.413 168.282 108.503 168.685 108.675 169.055C108.848 169.424 109.099 169.752 109.411 170.015H106.609C105.605 170.015 104.641 170.414 103.931 171.124C103.22 171.834 102.821 172.798 102.821 173.802V184.847C102.821 185.852 103.22 186.815 103.931 187.526C104.641 188.236 105.605 188.635 106.609 188.635H143.886C144.891 188.635 145.854 188.236 146.565 187.526C147.275 186.815 147.674 185.852 147.674 184.847V173.802C147.674 172.798 147.275 171.834 146.565 171.124C145.854 170.414 144.891 170.015 143.886 170.015Z" fill="#F4F4F4"/>
<path d="M112.784 178.173H90.1711C88.7632 178.173 87.6218 179.315 87.6218 180.723V186.086C87.6218 187.494 88.7632 188.635 90.1711 188.635H112.784C114.192 188.635 115.333 187.494 115.333 186.086V180.723C115.333 179.315 114.192 178.173 112.784 178.173Z" fill="#EBEBEB"/>
<path d="M114.479 175.865H88.4756C88.0041 175.865 87.6218 176.247 87.6218 176.719V177.693C87.6218 178.164 88.0041 178.546 88.4756 178.546H114.479C114.951 178.546 115.333 178.164 115.333 177.693V176.719C115.333 176.247 114.951 175.865 114.479 175.865Z" fill="#E0E0E0"/>
<path d="M117.888 142.279C117.888 142.279 118.279 154.905 133.07 154.905C147.861 154.905 148.251 142.279 148.251 142.279H117.888Z" fill="#EBEBEB"/>
<path d="M64.997 154.911H46.5508V159.325H64.997V154.911Z" fill="#E0E0E0"/>
<path d="M176.294 154.911H65.0031V159.325H176.294V154.911Z" fill="#F4F4F4"/>
<path d="M64.997 188.635H46.5508V193.048H64.997V188.635Z" fill="#E0E0E0"/>
<path d="M50.6873 159.324H46.5568V197.491H50.6873V159.324Z" fill="#E0E0E0"/>
<path opacity="0.5" d="M50.6873 159.324H48.619V197.491H50.6873V159.324Z" fill="#F4F4F4"/>
<path d="M67.0653 159.324H62.9347V197.491H67.0653V159.324Z" fill="#F4F4F4"/>
<path d="M65.003 159.324H62.9347V197.491H65.003V159.324Z" fill="#E0E0E0"/>
<path d="M176.288 159.324H172.157V197.491H176.288V159.324Z" fill="#F4F4F4"/>
<path d="M174.225 159.324H172.157V197.491H174.225V159.324Z" fill="#E0E0E0"/>
<path d="M176.294 188.635H65.0031V193.048H176.294V188.635Z" fill="#F4F4F4"/>
<path d="M94.6804 152.308H72.2419V154.911H94.6804V152.308Z" fill="#E0E0E0"/>
<path d="M102.719 152.302H94.6804V154.905H102.719V152.302Z" fill="#EBEBEB"/>
<path d="M150.5 224.644C214.883 224.644 267.076 221.596 267.076 217.837C267.076 214.079 214.883 211.031 150.5 211.031C86.1172 211.031 33.9246 214.079 33.9246 217.837C33.9246 221.596 86.1172 224.644 150.5 224.644Z" fill="#F5F5F5"/>
<path d="M131.182 58.1828C131.224 65.3076 126.119 65.2354 126.222 62.9928C126.324 60.7502 125.061 55.4832 126.222 55.9943C127.382 56.5054 131.164 55.0323 131.182 58.1828Z" fill="#1A2E35"/>
<path d="M127.971 71.0856C128.675 71.0315 130.088 71.6869 130.214 73.5447C130.247 74.0845 130.405 74.6093 130.675 75.0778C130.945 75.5463 131.32 75.9456 131.771 76.2443C131.771 76.2443 129.432 76.5269 127.899 75.3124C126.649 74.3323 126.096 72.1859 126.751 71.7049C127.111 71.4168 127.526 71.206 127.971 71.0856Z" fill="#1A2E35"/>
<path d="M127.052 66.0229C128.254 67.0871 129.354 69.9009 126.643 71.2357C123.931 72.5705 119.668 69.432 119.668 69.432L124.352 67.2615L127.052 66.0229Z" fill="#1A2E35"/>
<path d="M128.386 71.3439C128.32 70.9543 128.212 70.5732 128.062 70.2076C128.05 70.1771 128.033 70.1492 128.011 70.1254C127.989 70.1017 127.962 70.0825 127.932 70.0691C127.903 70.0557 127.871 70.0483 127.838 70.0473C127.806 70.0463 127.773 70.0517 127.743 70.0633H127.695L126.029 71.1756C126.003 71.1937 125.979 71.217 125.962 71.244C125.944 71.2711 125.931 71.3014 125.925 71.3332C125.919 71.3651 125.919 71.3978 125.926 71.4296C125.932 71.4613 125.945 71.4915 125.963 71.5183C125.982 71.5433 126.004 71.5655 126.029 71.5844C126.27 71.7591 126.528 71.9083 126.799 72.0294C127.19 72.1857 128.001 71.7408 128.278 71.5484C128.313 71.527 128.341 71.4968 128.36 71.4609C128.379 71.4249 128.388 71.3846 128.386 71.3439Z" fill="#572B92"/>
<path opacity="0.3" d="M128.386 71.3439C128.32 70.9543 128.212 70.5732 128.062 70.2076C128.05 70.1771 128.033 70.1492 128.011 70.1254C127.989 70.1017 127.962 70.0825 127.932 70.0691C127.903 70.0557 127.871 70.0483 127.838 70.0473C127.806 70.0463 127.773 70.0517 127.743 70.0633H127.695L126.029 71.1756C126.003 71.1937 125.979 71.217 125.962 71.244C125.944 71.2711 125.931 71.3014 125.925 71.3332C125.919 71.3651 125.919 71.3978 125.926 71.4296C125.932 71.4613 125.945 71.4915 125.963 71.5183C125.982 71.5433 126.004 71.5655 126.029 71.5844C126.27 71.7591 126.528 71.9083 126.799 72.0294C127.19 72.1857 128.001 71.7408 128.278 71.5484C128.313 71.527 128.341 71.4968 128.36 71.4609C128.379 71.4249 128.388 71.3846 128.386 71.3439Z" fill="black"/>
<path d="M110.463 68.3921C109.796 68.1696 108.269 68.4702 107.703 70.2499C107.543 70.7661 107.265 71.2381 106.891 71.6292C106.518 72.0203 106.059 72.3199 105.551 72.5046C105.551 72.5046 107.758 73.3343 109.537 72.5046C110.98 71.8492 112.002 69.8892 111.503 69.2639C111.221 68.9045 110.866 68.6076 110.463 68.3921Z" fill="#1A2E35"/>
<path d="M117.089 56.1566C114.654 56.8179 111.377 59.7039 112.832 63.2452C111.395 64.2253 109.555 67.0451 111.708 68.8488C114.023 70.7909 119.716 68.0672 119.716 68.0672L119.758 67.1413L120.438 60.251L117.089 56.1566Z" fill="#1A2E35"/>
<path d="M110 68.548C110.16 68.1833 110.362 67.8383 110.601 67.5199C110.644 67.4682 110.705 67.4353 110.771 67.4285C110.838 67.4218 110.904 67.4417 110.956 67.4838L110.992 67.5199L112.339 68.9929C112.362 69.0158 112.38 69.043 112.392 69.0729C112.405 69.1028 112.411 69.1349 112.411 69.1673C112.411 69.1997 112.405 69.2317 112.392 69.2617C112.38 69.2916 112.362 69.3188 112.339 69.3417C112.32 69.3644 112.295 69.3812 112.267 69.3898C111.994 69.5018 111.71 69.5845 111.419 69.6363C110.998 69.6964 110.349 69.0771 110.096 68.8246C110.054 68.7936 110.022 68.7506 110.005 68.7012C109.988 68.6519 109.986 68.5984 110 68.548Z" fill="#572B92"/>
<path opacity="0.3" d="M110 68.548C110.16 68.1833 110.362 67.8383 110.601 67.5199C110.644 67.4682 110.705 67.4353 110.771 67.4285C110.838 67.4218 110.904 67.4417 110.956 67.4838L110.992 67.5199L112.339 68.9929C112.362 69.0158 112.38 69.043 112.392 69.0729C112.405 69.1028 112.411 69.1349 112.411 69.1673C112.411 69.1997 112.405 69.2317 112.392 69.2617C112.38 69.2916 112.362 69.3188 112.339 69.3417C112.32 69.3644 112.295 69.3812 112.267 69.3898C111.994 69.5018 111.71 69.5845 111.419 69.6363C110.998 69.6964 110.349 69.0771 110.096 68.8246C110.054 68.7936 110.022 68.7506 110.005 68.7012C109.988 68.6519 109.986 68.5984 110 68.548Z" fill="black"/>
<path d="M131.91 81.2525C133.058 82.1423 134.315 83.0923 135.577 83.9581C136.84 84.8239 138.108 85.6957 139.413 86.4953C140.718 87.295 142.041 88.0405 143.375 88.75L144.379 89.2611L145.402 89.736C145.738 89.8984 146.081 90.0427 146.43 90.175L146.941 90.3854C147.115 90.4515 147.301 90.5357 147.41 90.5658C148.038 90.7574 148.682 90.8961 149.334 90.9806C150.043 91.0828 150.789 91.155 151.546 91.2091C153.055 91.3053 154.607 91.3474 156.164 91.3534C157.721 91.3594 159.296 91.3534 160.866 91.3053L165.585 91.173L165.88 93.5359C162.722 94.1719 159.533 94.6435 156.326 94.9488C154.709 95.0931 153.085 95.2014 151.426 95.2134C150.596 95.2134 149.755 95.2134 148.889 95.1352C147.958 95.0814 147.035 94.9303 146.135 94.6843C145.858 94.6121 145.684 94.54 145.48 94.4739L144.878 94.2634C144.476 94.1311 144.079 93.9868 143.676 93.8245L142.51 93.3555L141.367 92.8505C139.857 92.1707 138.386 91.4079 136.96 90.5658C135.541 89.73 134.146 88.8642 132.799 87.9383C131.425 87.0069 130.1 86.0034 128.831 84.9321L131.91 81.2525Z" fill="#FD897B"/>
<path d="M125.669 78.5528C127.166 77.3864 133.328 81.2043 135.204 82.7976L133.84 91.0527C133.84 91.0527 124.971 87.337 124.436 84.7998C123.883 82.1483 124.538 79.4427 125.669 78.5528Z" fill="#F4CD49"/>
<path d="M164.93 91.3777L168.646 88.4977L168.94 92.9529C168.94 92.9529 166.379 94.5402 164.689 93.5542L164.93 91.3777Z" fill="#FD897B"/>
<path d="M171.959 88.0587L173.859 90.175L168.916 92.9528L168.622 88.4976L171.959 88.0587Z" fill="#FD897B"/>
<path d="M101.366 211.963L106.05 212.312L107.758 201.531L103.08 201.183L101.366 211.963Z" fill="#FD897B"/>
<path d="M68.2317 196.896L72.2059 199.397L79.2826 191.004L75.3084 188.496L68.2317 196.896Z" fill="#FD897B"/>
<path d="M73.4626 198.501L69.7409 194.756C69.6766 194.692 69.5915 194.653 69.5011 194.646C69.4106 194.64 69.3207 194.666 69.2479 194.72L65.8628 197.251C65.7067 197.377 65.607 197.56 65.5856 197.759C65.5642 197.959 65.6228 198.159 65.7486 198.315L65.8027 198.375C67.1194 199.656 67.8229 200.209 69.4583 201.856C70.4624 202.873 71.8272 204.454 73.2161 205.855C74.605 207.256 76.06 205.951 75.6211 205.253C73.5888 202.085 73.9556 200.9 73.8173 199.289C73.8007 198.992 73.6743 198.711 73.4626 198.501Z" fill="#F4CD49"/>
<path d="M106.363 211.639H101.084C100.991 211.639 100.901 211.671 100.829 211.73C100.758 211.79 100.71 211.872 100.693 211.963L99.8571 216.136C99.8235 216.319 99.8633 216.508 99.9679 216.662C100.073 216.817 100.234 216.923 100.416 216.96C100.472 216.966 100.529 216.966 100.585 216.96C102.424 216.96 103.32 216.821 105.641 216.821C107.066 216.821 111.052 216.966 113.042 216.966C115.033 216.966 115.231 215.018 114.419 214.843C110.812 214.05 108.329 212.961 107.144 211.915C106.926 211.73 106.648 211.632 106.363 211.639Z" fill="#F4CD49"/>
<path d="M107.758 201.532L106.808 207.52L102.19 206.745L103.074 201.189L107.758 201.532Z" fill="#E77064"/>
<path d="M75.3084 188.503L79.2826 191.004L76.3546 194.479L72.2902 192.08L75.3084 188.503Z" fill="#E77064"/>
<path d="M104.926 103.535L123.648 107.184C133.322 80.988 131.218 80.1282 131.218 80.1282C129.858 79.3799 128.452 78.7173 127.009 78.1441L126.757 78.0479C125.554 77.609 125.314 77.5429 123.714 77.0739C120.961 76.4185 118.393 75.8714 115.213 75.4205L114.612 75.3363C114.01 75.2641 113.463 75.204 112.91 75.1499C112.537 75.1078 112.165 75.0838 111.81 75.0597L110.607 74.9936C108.551 74.8914 107.078 74.9214 107.078 74.9214C107.649 91.2813 106.723 95.977 104.926 103.535Z" fill="#F4CD49"/>
<path d="M117.919 66.0229C117.919 68.8608 117.48 73.9774 115.207 75.4324C115.207 75.4324 115.417 78.3544 120.498 79.3405C126.09 80.4287 123.709 77.0858 123.709 77.0858C120.805 75.7631 121.304 73.5144 122.266 71.4942L117.919 66.0229Z" fill="#FD897B"/>
<path d="M119.692 68.2536L122.266 71.4943C122.042 71.9637 121.857 72.4502 121.712 72.9493C120.576 72.5525 119.223 70.9652 119.307 69.7206C119.344 69.2121 119.475 68.7148 119.692 68.2536Z" fill="#E77064"/>
<path d="M117.648 59.5056C117.047 64.1291 116.68 66.0712 118.532 68.8669C121.316 73.0757 127.124 72.8051 129.102 68.4581C130.906 64.544 131.579 57.6357 127.46 54.9601C126.764 54.4999 125.983 54.1815 125.163 54.023C124.344 53.8646 123.501 53.8693 122.682 54.0368C121.864 54.2043 121.088 54.5313 120.396 54.9993C119.704 55.4672 119.112 56.0668 118.652 56.7639C118.111 57.5884 117.768 58.5266 117.648 59.5056Z" fill="#FD897B"/>
<path d="M132.697 52.1823C132.782 52.9156 132.727 53.6582 132.535 54.3709C132.492 54.129 132.433 53.89 132.36 53.6554C130.713 48.2081 123.294 49.5068 121.057 51.8516C117.45 50.8175 114.016 51.6412 114.473 56.0604C114.53 57.1989 114.94 58.2915 115.646 59.1868C115.087 60.7381 115.646 63.2092 117.492 63.2813C120.089 63.3835 122.554 59.9444 123.546 58.0565C125.35 58.3631 127.947 58.6577 129.919 58.1768C130.25 58.3752 130.521 58.5134 130.521 58.5134C132.619 57.3891 134.218 56.3009 132.697 52.1823Z" fill="#1A2E35"/>
<path d="M116.049 62.6619C115.976 63.5589 116.259 64.4485 116.836 65.139C117.618 66.0469 118.64 65.5118 119.007 64.4356C119.313 63.4616 119.271 61.8202 118.225 61.3091C118.044 61.2238 117.847 61.175 117.647 61.1657C117.446 61.1564 117.246 61.1866 117.057 61.2548C116.868 61.3229 116.695 61.4275 116.547 61.5627C116.398 61.6979 116.278 61.861 116.193 62.0426C116.103 62.2369 116.054 62.4478 116.049 62.6619Z" fill="#FD897B"/>
<path d="M123.366 107.184C123.366 107.184 123.438 144.353 120.396 158.35C117.233 172.912 107.932 206.041 107.932 206.041L101.198 205.169C101.198 205.169 106.471 171.704 108.714 157.232C111.161 141.461 109.664 104.515 109.664 104.515L123.366 107.184Z" fill="#572B92"/>
<path opacity="0.3" d="M123.366 107.184C123.366 107.184 123.438 144.353 120.396 158.35C117.233 172.912 107.932 206.041 107.932 206.041L101.198 205.169C101.198 205.169 106.471 171.704 108.714 157.232C111.161 141.461 109.664 104.515 109.664 104.515L123.366 107.184Z" fill="black"/>
<path d="M109.08 206.624L100.044 205.458L100.428 202.259L110.686 203.462L109.08 206.624Z" fill="#1A2E35"/>
<path d="M118.706 106.222C118.706 106.222 108.623 136.94 103.615 154.634C98.336 173.303 78.098 193.95 78.098 193.95L72.296 190.595C72.296 190.595 86.1247 170.994 91.2052 153.576C101.553 118.217 97.3018 110.726 104.926 103.535L118.706 106.222Z" fill="#572B92"/>
<path opacity="0.3" d="M118.706 106.222C118.706 106.222 108.623 136.94 103.615 154.634C98.336 173.303 78.098 193.95 78.098 193.95L72.296 190.595C72.296 190.595 86.1247 170.994 91.2052 153.576C101.553 118.217 97.3018 110.726 104.926 103.535L118.706 106.222Z" fill="black"/>
<path d="M79.0421 194.882L70.9794 190.228L72.9875 187.354L81.9401 192.291L79.0421 194.882Z" fill="#1A2E35"/>
<path d="M124.322 62.1328C124.25 62.5056 124.388 62.8423 124.634 62.8904C124.881 62.9385 125.134 62.6739 125.236 62.2891C125.338 61.9043 125.17 61.5736 124.923 61.5255C124.677 61.4774 124.394 61.76 124.322 62.1328Z" fill="#1A2E35"/>
<path d="M128.525 62.9505C128.452 63.3233 128.591 63.666 128.837 63.7141C129.084 63.7622 129.336 63.4977 129.408 63.1129C129.481 62.7281 129.342 62.3974 129.096 62.3553C128.849 62.3132 128.597 62.5718 128.525 62.9505Z" fill="#1A2E35"/>
<path d="M128.988 62.3613L129.931 62.2831C129.931 62.2831 129.336 62.8904 128.988 62.3613Z" fill="#1A2E35"/>
<path d="M127.292 63.3777C127.458 64.2892 127.75 65.1733 128.158 66.0051C127.942 66.106 127.707 66.1583 127.469 66.1583C127.231 66.1583 126.996 66.106 126.781 66.0051L127.292 63.3777Z" fill="#FD5652"/>
<path d="M125.206 67.2077C124.703 67.1254 124.228 66.9228 123.821 66.6171C123.413 66.3113 123.086 65.9116 122.867 65.452C122.861 65.439 122.857 65.425 122.857 65.4106C122.856 65.3963 122.859 65.382 122.864 65.3686C122.869 65.3552 122.876 65.3429 122.886 65.3324C122.896 65.322 122.908 65.3136 122.921 65.3077C122.948 65.2976 122.978 65.2981 123.005 65.3093C123.032 65.3204 123.053 65.3414 123.065 65.3679C123.275 65.7902 123.582 66.1573 123.96 66.4393C124.338 66.7213 124.777 66.9104 125.242 66.9912C125.256 66.9934 125.27 66.9984 125.282 67.006C125.294 67.0136 125.305 67.0235 125.314 67.0353C125.322 67.0471 125.328 67.0604 125.331 67.0745C125.334 67.0887 125.335 67.1033 125.332 67.1175C125.326 67.1457 125.31 67.1706 125.286 67.1873C125.263 67.204 125.234 67.2113 125.206 67.2077Z" fill="#1A2E35"/>
<path d="M123.366 60.5337C123.308 60.5308 123.253 60.5064 123.212 60.4653C123.171 60.4242 123.146 60.3693 123.143 60.3112C123.146 60.2499 123.172 60.1918 123.216 60.1489C123.473 59.9067 123.785 59.7297 124.125 59.6324C124.465 59.5351 124.823 59.5205 125.17 59.5897C125.226 59.6066 125.275 59.6448 125.304 59.6964C125.333 59.748 125.341 59.8089 125.326 59.8663C125.319 59.894 125.307 59.92 125.289 59.9429C125.272 59.9658 125.251 59.985 125.226 59.9996C125.202 60.0141 125.174 60.0236 125.146 60.0276C125.118 60.0315 125.089 60.0299 125.061 60.0226C124.786 59.9738 124.503 59.9897 124.235 60.069C123.967 60.1483 123.721 60.2888 123.516 60.4796C123.475 60.5161 123.421 60.5355 123.366 60.5337Z" fill="#1A2E35"/>
<path d="M130.857 61.3691C130.813 61.3696 130.77 61.3567 130.734 61.332C130.697 61.3072 130.669 61.272 130.653 61.2308C130.549 60.9733 130.387 60.7433 130.179 60.5587C129.972 60.3741 129.724 60.2399 129.456 60.1666C129.428 60.1615 129.4 60.1508 129.375 60.1351C129.351 60.1193 129.329 60.0988 129.313 60.0748C129.296 60.0508 129.284 60.0237 129.278 59.9951C129.271 59.9665 129.271 59.9369 129.276 59.9081C129.288 59.8506 129.321 59.7997 129.369 59.7662C129.417 59.7326 129.477 59.7188 129.535 59.7277C129.878 59.8134 130.195 59.9797 130.461 60.213C130.726 60.4462 130.932 60.7395 131.062 61.0685C131.074 61.0953 131.08 61.1242 131.081 61.1536C131.082 61.183 131.077 61.2122 131.066 61.2396C131.055 61.267 131.04 61.292 131.019 61.3132C130.999 61.3344 130.974 61.3514 130.948 61.3631L130.857 61.3691Z" fill="#1A2E35"/>
<path d="M124.827 65.4277C124.641 65.4284 124.457 65.3858 124.29 65.3034C124.123 65.221 123.978 65.1009 123.865 64.9527C123.582 64.5117 123.394 64.017 123.311 63.4998C123.228 62.9825 123.253 62.4537 123.384 61.9464C123.727 60.0465 124.917 58.5013 126.041 58.5013C126.228 58.504 126.413 58.5486 126.58 58.6318C126.748 58.7151 126.894 58.8348 127.009 58.9823C127.292 59.4233 127.481 59.9179 127.564 60.4352C127.646 60.9525 127.621 61.4813 127.49 61.9885C127.148 63.8885 125.951 65.4277 124.827 65.4277ZM126.029 58.6697C124.977 58.6697 123.847 60.1607 123.516 61.9885C123.306 63.191 123.474 64.2733 123.967 64.8565C124.067 64.9866 124.195 65.0922 124.342 65.1651C124.489 65.238 124.651 65.2764 124.815 65.2773C125.873 65.2773 126.997 63.7923 127.328 61.9645C127.456 61.4813 127.481 60.9768 127.404 60.4831C127.326 59.9895 127.147 59.5173 126.877 59.0965C126.78 58.9662 126.654 58.86 126.509 58.786C126.364 58.712 126.204 58.6722 126.041 58.6697H126.029Z" fill="#F9F9F9"/>
<path d="M129.499 66.0288C129.304 66.0261 129.112 65.9792 128.939 65.8917C128.765 65.8042 128.613 65.6784 128.495 65.5237C128.225 65.1189 128.042 64.6624 127.958 64.1831C127.874 63.7038 127.891 63.2124 128.008 62.74C128.314 60.9723 129.469 59.5414 130.581 59.5414C130.776 59.5465 130.967 59.5951 131.141 59.6835C131.314 59.7719 131.466 59.8979 131.585 60.0524C131.852 60.4572 132.034 60.9127 132.117 61.3906C132.201 61.8685 132.186 62.3585 132.072 62.8302C131.771 64.6038 130.617 66.0288 129.499 66.0288ZM130.563 59.6917C129.517 59.6917 128.434 61.0685 128.158 62.77C128.05 63.2209 128.035 63.6889 128.113 64.1457C128.192 64.6025 128.363 65.0386 128.615 65.4275C128.722 65.562 128.857 65.6718 129.011 65.7496C129.164 65.8274 129.333 65.8714 129.505 65.8785C130.551 65.8785 131.639 64.5076 131.91 62.8061C132.017 62.3556 132.032 61.8881 131.954 61.4315C131.877 60.975 131.708 60.5387 131.459 60.1486C131.352 60.013 131.217 59.9021 131.064 59.8232C130.91 59.7444 130.741 59.6995 130.569 59.6917H130.563Z" fill="#F9F9F9"/>
<path d="M74.8454 200.684C74.2441 200.684 73.6429 199.758 73.2881 199.223C73.2762 199.205 73.2699 199.184 73.2699 199.163C73.2699 199.141 73.2762 199.12 73.2881 199.103C73.301 199.085 73.3185 199.071 73.3386 199.063C73.3587 199.054 73.3808 199.051 73.4024 199.054C73.5948 199.097 75.2482 199.457 75.4586 200.022C75.4826 200.085 75.489 200.152 75.4774 200.218C75.4657 200.284 75.4364 200.345 75.3925 200.395C75.336 200.488 75.2553 200.564 75.1589 200.615C75.0625 200.666 74.9541 200.69 74.8454 200.684ZM73.5888 199.331C74.0517 200.028 74.5027 200.443 74.8273 200.461C74.8994 200.462 74.9704 200.444 75.0336 200.409C75.0968 200.375 75.15 200.324 75.1881 200.263C75.2084 200.242 75.222 200.215 75.2274 200.186C75.2327 200.157 75.2295 200.128 75.2181 200.101C75.1099 199.8 74.2501 199.499 73.5888 199.331Z" fill="#572B92"/>
<path d="M73.8593 199.331C73.6772 199.332 73.4956 199.312 73.3182 199.271C73.3001 199.265 73.2836 199.254 73.2701 199.241C73.2565 199.227 73.2463 199.211 73.24 199.193C73.2281 199.158 73.2281 199.12 73.24 199.084C73.2821 199.048 74.202 198.14 74.8814 198.14H74.9295C75.0137 198.146 75.0957 198.169 75.1703 198.209C75.2448 198.248 75.3103 198.303 75.3624 198.369C75.4237 198.433 75.4618 198.516 75.4705 198.604C75.4792 198.692 75.4581 198.781 75.4105 198.856C75.2181 199.181 74.4485 199.331 73.8593 199.331ZM73.5887 199.096C74.1539 199.163 75.0678 199 75.2542 198.73C75.2842 198.688 75.3083 198.621 75.2181 198.507C75.1867 198.463 75.1453 198.427 75.0972 198.402C75.0491 198.377 74.9958 198.363 74.9415 198.363C74.4249 198.46 73.9516 198.716 73.5887 199.096Z" fill="#572B92"/>
<path d="M108.088 212.462C107.591 212.45 107.095 212.39 106.609 212.282C106.586 212.277 106.565 212.265 106.549 212.248C106.533 212.231 106.522 212.209 106.519 212.186C106.516 212.163 106.521 212.14 106.531 212.119C106.542 212.099 106.559 212.082 106.579 212.071C106.802 211.963 108.732 211.001 109.291 211.326C109.341 211.358 109.383 211.403 109.412 211.455C109.442 211.508 109.458 211.566 109.459 211.626C109.466 211.728 109.448 211.829 109.407 211.922C109.366 212.016 109.304 212.098 109.225 212.162C108.89 212.386 108.49 212.492 108.088 212.462ZM106.988 212.138C108.016 212.306 108.792 212.264 109.092 212.005C109.144 211.961 109.184 211.905 109.211 211.843C109.237 211.78 109.248 211.712 109.243 211.645C109.244 211.622 109.239 211.599 109.228 211.579C109.218 211.559 109.202 211.542 109.183 211.53C108.882 211.356 107.812 211.765 106.988 212.132V212.138Z" fill="#572B92"/>
<path d="M106.639 212.282H106.573C106.555 212.271 106.541 212.254 106.533 212.235C106.524 212.216 106.522 212.194 106.525 212.174C106.525 212.09 106.814 210.178 107.86 210.178H107.95C108.251 210.208 108.335 210.358 108.353 210.484C108.437 211.013 107.27 212.035 106.681 212.288L106.639 212.282ZM107.842 210.382C107.162 210.382 106.862 211.488 106.759 211.969C107.361 211.615 108.16 210.815 108.112 210.496C108.112 210.496 108.112 210.4 107.902 210.382H107.842Z" fill="#572B92"/>
<path d="M124.785 61.5437L125.729 61.4595C125.729 61.4595 125.134 62.0728 124.785 61.5437Z" fill="#1A2E35"/>
<path d="M120.654 83.3389C112.838 80.3748 110.397 75.9376 110.583 75.0056L111.786 75.0778H112.02C112.32 75.0857 112.619 75.1118 112.916 75.156C113.469 75.2041 114.041 75.2642 114.618 75.3423L115.219 75.4265C118.088 75.7756 120.929 76.3281 123.721 77.0799C124.995 77.4527 125.416 77.573 126.126 77.8255L126.727 78.054L126.979 78.1502C127.605 79.497 127.466 82.2506 120.654 83.3389Z" fill="#FD897B"/>
<path d="M120.654 83.3389C112.838 80.3748 110.397 75.9376 110.583 75.0056L111.786 75.0778H112.02C113.608 77.3325 117.083 80.4469 120.624 80.8738C123.474 80.2726 126.162 79.5871 126.138 77.8255L126.739 78.054L126.991 78.1502C127.605 79.497 127.466 82.2506 120.654 83.3389Z" fill="#F4CD49"/>
<path d="M104.86 102.38L103.657 103.895C103.567 104.009 103.699 104.172 103.916 104.214L123.552 108.038C123.721 108.074 123.877 108.038 123.907 107.911L124.4 106.27C124.436 106.156 124.31 106.03 124.124 105.993L105.16 102.302C105.108 102.29 105.053 102.291 105.001 102.305C104.948 102.318 104.9 102.344 104.86 102.38Z" fill="#1A2E35"/>
<path d="M106.994 104.996L106.489 104.899C106.387 104.899 106.32 104.815 106.339 104.749L107 102.621C107 102.555 107.12 102.525 107.216 102.543L107.727 102.639C107.83 102.639 107.896 102.729 107.878 102.789L107.216 104.924C107.193 104.959 107.158 104.986 107.118 104.999C107.077 105.012 107.034 105.011 106.994 104.996Z" fill="#572B92"/>
<path opacity="0.3" d="M106.994 104.996L106.489 104.899C106.387 104.899 106.32 104.815 106.339 104.749L107 102.621C107 102.555 107.12 102.525 107.216 102.543L107.727 102.639C107.83 102.639 107.896 102.729 107.878 102.789L107.216 104.924C107.193 104.959 107.158 104.986 107.118 104.999C107.077 105.012 107.034 105.011 106.994 104.996Z" fill="black"/>
<path d="M108.329 82.1785C108.1 83.6035 107.884 85.1847 107.728 86.6638C107.571 88.1429 107.433 89.67 107.361 91.2092C107.321 91.9668 107.297 92.7244 107.289 93.4819V95.7366C107.319 97.209 107.433 98.6784 107.631 100.138C107.746 100.637 107.95 101.112 108.233 101.539C108.594 102.123 108.996 102.681 109.435 103.21C110.396 104.351 111.424 105.433 112.513 106.451C113.614 107.509 114.768 108.531 115.953 109.529C117.137 110.527 118.358 111.519 119.56 112.475L118.267 114.471C115.437 112.921 112.732 111.154 110.175 109.186C108.853 108.176 107.607 107.071 106.447 105.88C105.826 105.242 105.257 104.557 104.745 103.829C104.109 102.971 103.657 101.99 103.417 100.949L103.194 99.6748C103.116 99.2599 103.062 98.845 103.014 98.4362C102.893 97.6065 102.827 96.7828 102.761 95.9591C102.636 94.3208 102.598 92.6771 102.647 91.0348C102.695 89.4055 102.785 87.7821 102.948 86.1648C103.11 84.5474 103.314 82.9601 103.639 81.2887L108.329 82.1785Z" fill="#FD897B"/>
<path d="M104.336 76.178C101.763 78.2583 102.376 84.4391 102.376 84.4391L111.034 87.289C111.034 87.289 110.638 80.1643 110.217 77.6029C109.7 74.5546 106.862 74.1277 104.336 76.178Z" fill="#F4CD49"/>
<path d="M118.502 112.09L122.416 110.635L121.815 114.357C121.815 114.357 118.977 115.379 117.522 114.069L118.502 112.09Z" fill="#FD897B"/>
<path d="M127.076 111.189V114.063L121.815 114.357L122.416 110.635L127.076 111.189Z" fill="#FD897B"/>
<path d="M122.115 107.942L121.61 107.846C121.508 107.846 121.442 107.761 121.46 107.695L122.121 105.567C122.121 105.501 122.242 105.471 122.344 105.489L122.849 105.585C122.951 105.585 123.017 105.675 122.999 105.735L122.338 107.87C122.32 107.93 122.242 107.966 122.115 107.942Z" fill="#572B92"/>
<path opacity="0.3" d="M122.115 107.942L121.61 107.846C121.508 107.846 121.442 107.761 121.46 107.695L122.121 105.567C122.121 105.501 122.242 105.471 122.344 105.489L122.849 105.585C122.951 105.585 123.017 105.675 122.999 105.735L122.338 107.87C122.32 107.93 122.242 107.966 122.115 107.942Z" fill="black"/>
<path d="M114.558 106.463L114.047 106.366C113.944 106.366 113.878 106.282 113.902 106.216L114.564 104.088C114.564 104.022 114.678 103.992 114.78 104.01L115.291 104.106C115.387 104.106 115.46 104.196 115.435 104.256L114.774 106.391C114.756 106.463 114.66 106.493 114.558 106.463Z" fill="#572B92"/>
<path opacity="0.3" d="M114.558 106.463L114.047 106.366C113.944 106.366 113.878 106.282 113.902 106.216L114.564 104.088C114.564 104.022 114.678 103.992 114.78 104.01L115.291 104.106C115.387 104.106 115.46 104.196 115.435 104.256L114.774 106.391C114.756 106.463 114.66 106.493 114.558 106.463Z" fill="black"/>
<path d="M76.2643 141.521L107.433 209.594C108.147 211.141 109.445 212.343 111.042 212.937C112.64 213.53 114.407 213.468 115.959 212.763L120.907 210.502L235.486 158.044C237.034 157.331 238.237 156.035 238.832 154.439C239.426 152.842 239.365 151.075 238.661 149.524L211.118 89.3994L207.51 81.4569C206.793 79.912 205.495 78.7125 203.899 78.1192C202.303 77.5259 200.536 77.5867 198.985 78.2883L79.4509 133.002C77.9032 133.714 76.6998 135.009 76.1029 136.605C75.5061 138.201 75.5641 139.968 76.2643 141.521Z" fill="#572B92"/>
<path opacity="0.1" d="M76.2643 141.521L107.433 209.594C108.147 211.141 109.445 212.343 111.042 212.937C112.64 213.53 114.407 213.468 115.959 212.763L120.907 210.502L235.486 158.044C237.034 157.331 238.237 156.035 238.832 154.439C239.426 152.842 239.365 151.075 238.661 149.524L211.118 89.3994L207.51 81.4569C206.793 79.912 205.495 78.7125 203.899 78.1192C202.303 77.5259 200.536 77.5867 198.985 78.2883L79.4509 133.002C77.9032 133.714 76.6998 135.009 76.1029 136.605C75.5061 138.201 75.5641 139.968 76.2643 141.521Z" fill="white"/>
<path d="M220.14 109.068L88.9165 169.147L104.274 202.691L235.498 142.612L220.14 109.068Z" fill="#572B92"/>
<path opacity="0.3" d="M220.14 109.068L88.9165 169.147L104.274 202.691L235.498 142.612L220.14 109.068Z" fill="white"/>
<path d="M214.706 124.586L131.781 162.552L137.278 174.557L220.203 136.591L214.706 124.586Z" fill="#572B92"/>
<path opacity="0.8" d="M214.706 124.586L131.781 162.552L137.278 174.557L220.203 136.591L214.706 124.586Z" fill="white"/>
<path d="M215.648 96.8432L84.3195 157.47L92.5877 175.381L223.917 114.754L215.648 96.8432Z" fill="#572B92"/>
<path opacity="0.3" d="M215.648 96.8432L84.3195 157.47L92.5877 175.381L223.917 114.754L215.648 96.8432Z" fill="black"/>
<path d="M94.0851 142.375L120.907 210.478L235.486 158.02C237.034 157.307 238.237 156.011 238.831 154.415C239.426 152.818 239.365 151.051 238.661 149.5L211.118 89.3754L97.7167 134.036C96.1337 134.666 94.8637 135.896 94.1835 137.458C93.5033 139.02 93.4679 140.787 94.0851 142.375Z" fill="#572B92"/>
<path d="M245.742 120.848L245.175 121.047L246.113 123.719L246.681 123.52L245.742 120.848Z" fill="#572B92"/>
<path opacity="0.1" d="M245.742 120.848L245.175 121.047L246.113 123.719L246.681 123.52L245.742 120.848Z" fill="white"/>
<path d="M241.007 107.419L240.44 107.618L244.137 118.147L244.705 117.948L241.007 107.419Z" fill="#572B92"/>
<path opacity="0.1" d="M241.007 107.419L240.44 107.618L244.137 118.147L244.705 117.948L241.007 107.419Z" fill="white"/>
<path d="M102.064 134.27L226.101 90.7101C227.71 90.1501 229.475 90.25 231.011 90.988C232.547 91.726 233.728 93.042 234.296 94.6483L259.103 165.289C259.664 166.898 259.565 168.663 258.828 170.2C258.091 171.736 256.777 172.919 255.171 173.49L131.134 217.05C129.524 217.607 127.759 217.505 126.223 216.768C124.688 216.03 123.505 214.716 122.933 213.112L98.1257 142.471C97.5655 140.861 97.6652 139.095 98.4031 137.559C99.141 136.022 100.457 134.84 102.064 134.27Z" fill="#572B92"/>
<path opacity="0.1" d="M102.064 134.27L226.101 90.7101C227.71 90.1501 229.475 90.25 231.011 90.988C232.547 91.726 233.728 93.042 234.296 94.6483L259.103 165.289C259.664 166.898 259.565 168.663 258.828 170.2C258.091 171.736 256.777 172.919 255.171 173.49L131.134 217.05C129.524 217.607 127.759 217.505 126.223 216.768C124.688 216.03 123.505 214.716 122.933 213.112L98.1257 142.471C97.5655 140.861 97.6652 139.095 98.4031 137.559C99.141 136.022 100.457 134.84 102.064 134.27Z" fill="white"/>
<path d="M243.792 121.681L107.622 169.501L118.413 200.231L254.584 152.411L243.792 121.681Z" fill="#572B92"/>
<path opacity="0.3" d="M243.792 121.681L107.622 169.501L118.413 200.231L254.584 152.411L243.792 121.681Z" fill="white"/>
<path d="M227.492 106.726L199.344 116.611L200.884 120.996L229.032 111.111L227.492 106.726Z" fill="#572B92"/>
<path opacity="0.8" d="M227.492 106.726L199.344 116.611L200.884 120.996L229.032 111.111L227.492 106.726Z" fill="white"/>
<path d="M246.352 160.426L223.768 168.357L224.573 170.649L247.157 162.718L246.352 160.426Z" fill="#572B92"/>
<path opacity="0.8" d="M246.352 160.426L223.768 168.357L224.573 170.649L247.157 162.718L246.352 160.426Z" fill="white"/>
<path d="M247.888 164.811L218.786 175.031L219.591 177.323L248.693 167.103L247.888 164.811Z" fill="#572B92"/>
<path opacity="0.8" d="M247.888 164.811L218.786 175.031L219.591 177.323L248.693 167.103L247.888 164.811Z" fill="white"/>
<path d="M144.121 198.289L129.571 203.399L131.302 208.328L145.853 203.218L144.121 198.289Z" fill="#572B92"/>
<path opacity="0.8" d="M144.121 198.289L129.571 203.399L131.302 208.328L145.853 203.218L144.121 198.289Z" fill="white"/>
<path d="M221.922 156.066L238.913 150.101C239.809 149.783 240.543 149.123 240.955 148.266C241.367 147.409 241.424 146.425 241.114 145.526C240.795 144.63 240.136 143.897 239.279 143.484C238.422 143.072 237.437 143.015 236.538 143.325L219.541 149.296C218.645 149.614 217.912 150.274 217.5 151.131C217.088 151.988 217.03 152.972 217.341 153.871C217.66 154.767 218.321 155.501 219.18 155.912C220.038 156.323 221.023 156.378 221.922 156.066Z" fill="#572B92"/>
<path d="M192.816 166.286L209.813 160.316C210.702 159.996 211.43 159.34 211.84 158.489C212.251 157.638 212.311 156.659 212.008 155.765C211.688 154.87 211.028 154.138 210.171 153.727C209.314 153.316 208.33 153.26 207.432 153.57L190.441 159.54C189.545 159.859 188.812 160.519 188.399 161.375C187.987 162.232 187.93 163.217 188.24 164.116C188.565 165.006 189.227 165.733 190.083 166.139C190.939 166.545 191.921 166.598 192.816 166.286Z" fill="#572B92"/>
<path d="M163.727 176.508L180.725 170.537C181.611 170.215 182.337 169.558 182.745 168.707C183.153 167.856 183.211 166.879 182.907 165.986C182.587 165.091 181.927 164.359 181.071 163.948C180.214 163.537 179.23 163.481 178.332 163.791L161.322 169.737C160.428 170.057 159.696 170.717 159.285 171.574C158.874 172.431 158.817 173.415 159.128 174.313C159.448 175.213 160.112 175.95 160.974 176.361C161.836 176.773 162.826 176.825 163.727 176.508Z" fill="#572B92"/>
<path d="M134.609 186.729L151.606 180.758C152.496 180.44 153.226 179.784 153.637 178.933C154.049 178.081 154.11 177.103 153.807 176.207C153.487 175.312 152.827 174.58 151.97 174.169C151.114 173.758 150.129 173.702 149.231 174.012L132.234 179.983C131.338 180.302 130.605 180.961 130.193 181.818C129.781 182.675 129.724 183.66 130.034 184.558C130.358 185.449 131.02 186.175 131.877 186.581C132.733 186.988 133.714 187.04 134.609 186.729Z" fill="#572B92"/>
<g opacity="0.8">
<path d="M221.922 156.066L238.913 150.101C239.809 149.783 240.543 149.123 240.955 148.266C241.367 147.41 241.424 146.425 241.114 145.526C240.795 144.63 240.136 143.897 239.279 143.485C238.422 143.072 237.437 143.015 236.538 143.325L219.541 149.296C218.645 149.615 217.912 150.274 217.5 151.131C217.088 151.988 217.03 152.973 217.341 153.871C217.66 154.767 218.321 155.501 219.18 155.912C220.038 156.323 221.023 156.378 221.922 156.066Z" fill="white"/>
<path d="M192.816 166.287L209.813 160.317C210.702 159.997 211.43 159.34 211.84 158.489C212.251 157.638 212.311 156.66 212.008 155.765C211.688 154.871 211.028 154.138 210.171 153.728C209.314 153.317 208.33 153.26 207.432 153.571L190.441 159.541C189.545 159.86 188.812 160.519 188.399 161.376C187.987 162.233 187.93 163.218 188.24 164.117C188.565 165.007 189.227 165.734 190.083 166.14C190.939 166.546 191.921 166.599 192.816 166.287Z" fill="white"/>
<path d="M163.727 176.508L180.725 170.538C181.611 170.215 182.337 169.558 182.745 168.707C183.153 167.856 183.211 166.88 182.907 165.986C182.587 165.092 181.927 164.359 181.071 163.948C180.214 163.538 179.23 163.481 178.332 163.792L161.322 169.738C160.428 170.058 159.696 170.718 159.285 171.575C158.874 172.431 158.817 173.416 159.128 174.313C159.448 175.214 160.112 175.95 160.974 176.362C161.836 176.773 162.826 176.826 163.727 176.508Z" fill="white"/>
<path d="M134.609 186.729L151.606 180.759C152.496 180.44 153.226 179.784 153.637 178.933C154.049 178.082 154.11 177.103 153.807 176.208C153.487 175.313 152.827 174.581 151.97 174.17C151.114 173.759 150.129 173.703 149.231 174.013L132.234 179.983C131.338 180.302 130.605 180.962 130.193 181.818C129.781 182.675 129.724 183.66 130.034 184.559C130.358 185.449 131.02 186.176 131.877 186.582C132.733 186.988 133.714 187.041 134.609 186.729Z" fill="white"/>
</g>
<path d="M230.754 123.455L215.63 128.766C214.346 129.217 213.67 130.624 214.121 131.909L217.273 140.883C217.724 142.168 219.131 142.843 220.415 142.392L235.539 137.081C236.823 136.63 237.499 135.223 237.048 133.939L233.896 124.964C233.445 123.68 232.038 123.004 230.754 123.455Z" fill="#572B92"/>
<path opacity="0.3" d="M230.754 123.455L215.63 128.766C214.346 129.217 213.67 130.624 214.121 131.909L217.273 140.883C217.724 142.168 219.131 142.843 220.415 142.392L235.539 137.081C236.823 136.63 237.499 135.223 237.048 133.939L233.896 124.964C233.445 123.68 232.038 123.004 230.754 123.455Z" fill="black"/>
<path d="M139.485 140.133C139.108 139.055 138.522 138.062 137.761 137.211C137 136.36 136.078 135.667 135.049 135.172C134.02 134.677 132.903 134.39 131.763 134.328C130.623 134.265 129.482 134.427 128.404 134.806L116.187 139.393L116.031 139.435L115.67 139.586L115.447 139.67C113.475 140.561 111.921 142.177 111.109 144.184C110.297 146.19 110.289 148.432 111.087 150.444C111.885 152.456 113.427 154.084 115.393 154.988C117.36 155.893 119.599 156.005 121.646 155.302L133.214 151.454C133.548 151.38 133.877 151.287 134.2 151.178C134.44 151.094 134.674 150.998 134.904 150.889C136.87 149.989 138.429 148.387 139.276 146.398C140.124 144.408 140.198 142.174 139.485 140.133Z" fill="#572B92"/>
<path opacity="0.8" d="M139.485 140.133C139.108 139.055 138.522 138.062 137.761 137.211C137 136.36 136.078 135.667 135.049 135.172C134.02 134.677 132.903 134.39 131.763 134.328C130.623 134.265 129.482 134.427 128.404 134.806L116.187 139.393L116.031 139.435L115.67 139.586L115.447 139.67C113.475 140.561 111.921 142.177 111.109 144.184C110.297 146.19 110.289 148.432 111.087 150.444C111.885 152.456 113.427 154.084 115.393 154.988C117.36 155.893 119.599 156.005 121.646 155.302L133.214 151.454C133.548 151.38 133.877 151.287 134.2 151.178C134.44 151.094 134.674 150.998 134.904 150.889C136.87 149.989 138.429 148.387 139.276 146.398C140.124 144.408 140.198 142.174 139.485 140.133Z" fill="white"/>
</g>
<defs>
<clipPath id="clip0_1174_54058">
<rect width="300.623" height="224" fill="white" transform="translate(0.188721 0.643677)"/>
</clipPath>
</defs>
</svg>
