<svg width="373" height="367" viewBox="0 0 373 367" fill="none" xmlns="http://www.w3.org/2000/svg">
<path d="M93.3226 287.066C144.675 311.539 227.93 311.546 279.282 287.066C330.635 262.586 330.628 222.911 279.282 198.438C227.937 173.965 144.675 173.965 93.3226 198.438C41.9701 222.911 41.9776 262.593 93.3226 287.066Z" fill="#F5F5F5"/>
<path d="M279.103 268.98C288.561 268.98 296.228 265.326 296.228 260.82C296.228 256.313 288.561 252.66 279.103 252.66C269.646 252.66 261.979 256.313 261.979 260.82C261.979 265.326 269.646 268.98 279.103 268.98Z" fill="#EBEBEB"/>
<path d="M89.4253 261.989L95.4839 258.494C98.8665 255.734 101.441 252.111 102.936 248.009C104.806 242.852 104.546 238.933 103.204 236.965C101.557 234.543 97.2873 234.968 97.1159 240.065C96.7582 250.111 93.8295 257.079 89.4253 261.989Z" fill="#F4CD49"/>
<path d="M89.4249 262.362C89.346 262.361 89.2695 262.335 89.2063 262.288C89.1431 262.241 89.0966 262.174 89.0734 262.099C89.0502 262.024 89.0515 261.943 89.0772 261.868C89.1029 261.794 89.1516 261.729 89.2163 261.684C103.226 251.996 100.514 238.485 100.484 238.351C100.474 238.302 100.473 238.252 100.482 238.203C100.491 238.154 100.51 238.107 100.538 238.065C100.565 238.023 100.6 237.987 100.642 237.959C100.683 237.931 100.729 237.911 100.778 237.9C100.827 237.89 100.878 237.89 100.927 237.899C100.976 237.908 101.023 237.927 101.065 237.954C101.106 237.982 101.143 238.017 101.171 238.058C101.199 238.099 101.219 238.146 101.229 238.195C101.229 238.336 104.091 252.309 89.6634 262.295C89.5934 262.343 89.5096 262.366 89.4249 262.362Z" fill="white"/>
<path d="M77.2855 269.002C77.2855 269.002 75.1765 267.288 75.6833 264.963C76.19 262.638 77.5538 260.968 75.2212 257.973C72.8887 254.977 72.2404 250.983 75.0275 248.821C77.1513 247.145 80.4675 249.515 81.6599 245.095C82.5392 241.861 82.2411 234.7 86.3621 232.315C90.4832 229.93 93.069 233.522 92.4207 238.381C91.8543 242.726 91.0495 246.906 91.6755 248.069C92.8827 250.304 94.947 249.999 94.8501 254.083C94.7681 257.883 91.1687 261.028 91.1687 261.028L77.2855 269.002Z" fill="#F4CD49"/>
<path d="M84.2087 265.358C84.1176 265.357 84.0299 265.323 83.9615 265.263C83.8931 265.203 83.8486 265.12 83.8361 265.03C82.7704 256.199 85.3265 240.952 87.4131 236.421C87.4307 236.371 87.4588 236.325 87.4956 236.286C87.5324 236.248 87.577 236.218 87.6265 236.198C87.6759 236.178 87.729 236.169 87.7822 236.172C87.8353 236.174 87.8874 236.188 87.9348 236.212C87.9792 236.232 88.0193 236.261 88.0524 236.297C88.0856 236.333 88.1113 236.375 88.128 236.421C88.1447 236.466 88.152 236.515 88.1495 236.564C88.147 236.613 88.1348 236.66 88.1136 236.704C86.0494 241.175 83.5827 256.467 84.6037 264.91C84.6141 265.008 84.5855 265.106 84.5241 265.183C84.4627 265.26 84.3734 265.309 84.2758 265.32L84.2087 265.358Z" fill="white"/>
<path d="M84.0074 258.48C83.9504 258.482 83.8937 258.469 83.8435 258.442C81.2576 257.183 79.6182 252.689 79.5511 252.481C79.5328 252.434 79.524 252.385 79.5253 252.335C79.5265 252.285 79.5377 252.236 79.5582 252.191C79.5787 252.145 79.6081 252.104 79.6446 252.071C79.6812 252.037 79.7242 252.011 79.771 251.994C79.8179 251.977 79.8676 251.969 79.9174 251.972C79.9671 251.975 80.0159 251.987 80.0607 252.009C80.1055 252.031 80.1454 252.061 80.1782 252.099C80.211 252.136 80.236 252.18 80.2516 252.227C80.2516 252.272 81.8538 256.624 84.1714 257.749C84.2474 257.786 84.3087 257.848 84.3451 257.924C84.3816 258 84.391 258.086 84.372 258.169C84.3529 258.251 84.3065 258.324 84.2402 258.377C84.174 258.429 84.0919 258.458 84.0074 258.457V258.48Z" fill="white"/>
<path d="M83.9629 261.46C83.8882 261.46 83.8153 261.437 83.754 261.395C83.6927 261.352 83.646 261.292 83.6201 261.222C83.583 261.131 83.5834 261.029 83.621 260.938C83.6587 260.847 83.7307 260.775 83.8213 260.737C88.1733 258.994 90.8859 253.814 90.9157 253.755C90.9612 253.667 91.0397 253.601 91.134 253.57C91.2284 253.54 91.3308 253.549 91.4187 253.595C91.5067 253.64 91.573 253.719 91.603 253.813C91.6331 253.907 91.6244 254.01 91.5789 254.098C91.4597 254.321 88.7099 259.582 84.1268 261.43C84.0758 261.455 84.0192 261.465 83.9629 261.46Z" fill="white"/>
<path d="M236.083 221.368C236.083 221.368 232.826 216.092 232.506 210.361C232.185 204.631 233.445 202.246 235.174 201.56C236.903 200.875 237.037 202.984 237.923 204.228C238.81 205.473 240.621 204.765 241.292 200.882C241.963 197 244.407 190.449 249.489 189.175C255.078 187.789 252.082 194.347 250.674 196.903C249.266 199.459 248.178 202.946 249.102 203.893C250.026 204.839 251.464 203.088 252.828 204.713C254.489 206.672 249.325 213.73 246.359 215.436L236.083 221.368Z" fill="#310057"/>
<path d="M240.546 219.155C240.498 219.153 240.449 219.141 240.405 219.121C240.361 219.1 240.321 219.071 240.287 219.035C240.254 218.999 240.228 218.957 240.211 218.911C240.194 218.865 240.187 218.816 240.189 218.767C240.693 209.549 243.568 200.616 248.535 192.834C248.563 192.793 248.599 192.759 248.641 192.733C248.683 192.707 248.73 192.689 248.778 192.681C248.827 192.674 248.877 192.676 248.925 192.688C248.973 192.7 249.018 192.722 249.057 192.752C249.135 192.81 249.187 192.896 249.202 192.992C249.218 193.089 249.195 193.187 249.139 193.266C244.261 200.935 241.438 209.73 240.941 218.805C240.939 218.854 240.926 218.901 240.905 218.946C240.883 218.99 240.853 219.029 240.817 219.062C240.78 219.094 240.737 219.119 240.691 219.135C240.645 219.151 240.595 219.158 240.546 219.155Z" fill="white"/>
<path d="M240.971 214.751C240.909 214.75 240.848 214.735 240.792 214.706C238.706 213.551 237.551 210.123 237.506 209.981C237.49 209.935 237.482 209.885 237.485 209.836C237.488 209.787 237.5 209.739 237.522 209.694C237.543 209.65 237.573 209.61 237.61 209.578C237.647 209.545 237.69 209.52 237.737 209.504C237.831 209.474 237.933 209.482 238.021 209.526C238.109 209.571 238.176 209.649 238.206 209.743C238.206 209.743 239.324 213.044 241.187 214.05C241.272 214.1 241.334 214.181 241.36 214.275C241.386 214.369 241.375 214.47 241.329 214.557C241.295 214.621 241.243 214.674 241.18 214.708C241.116 214.743 241.043 214.757 240.971 214.751Z" fill="white"/>
<path d="M241.336 212.493C241.254 212.492 241.174 212.463 241.109 212.412C241.044 212.361 240.998 212.289 240.979 212.209C240.966 212.162 240.964 212.113 240.971 212.065C240.977 212.017 240.994 211.971 241.019 211.929C241.044 211.888 241.077 211.852 241.116 211.823C241.155 211.794 241.2 211.774 241.247 211.762C246.627 210.398 248.49 207.582 248.505 207.552C248.532 207.51 248.566 207.474 248.606 207.446C248.647 207.418 248.692 207.397 248.74 207.387C248.788 207.376 248.838 207.375 248.887 207.383C248.935 207.392 248.982 207.41 249.023 207.436C249.065 207.463 249.101 207.497 249.129 207.537C249.157 207.578 249.177 207.623 249.188 207.671C249.199 207.719 249.2 207.769 249.192 207.818C249.183 207.866 249.165 207.913 249.139 207.954C249.057 208.081 247.119 211.039 241.433 212.485L241.336 212.493Z" fill="white"/>
<path d="M155.003 209.787C155.003 209.787 147.857 208.044 147.484 194.66C147.089 180.217 149.236 163.361 140.777 161.997C132.319 160.633 127.624 170.94 127.729 182.975C127.826 193.512 132.073 216.39 154.974 220.876L155.003 209.787Z" fill="#310057"/>
<path opacity="0.2" d="M155.003 209.787C155.003 209.787 147.857 208.044 147.484 194.66C147.089 180.217 149.236 163.361 140.777 161.997C132.319 160.633 127.624 170.94 127.729 182.975C127.826 193.512 132.073 216.39 154.974 220.876L155.003 209.787Z" fill="black"/>
<path d="M155.004 219.505H154.937C149.787 218.566 145.592 215.727 142.469 211.077C133.214 197.268 136.128 171.484 137.089 166.983C137.11 166.887 137.168 166.803 137.25 166.749C137.332 166.695 137.432 166.674 137.529 166.692C137.625 166.715 137.709 166.775 137.763 166.858C137.817 166.941 137.837 167.042 137.819 167.139C136.873 171.611 133.974 197.067 143.088 210.66C144.415 212.768 146.165 214.577 148.228 215.972C150.29 217.368 152.621 218.32 155.071 218.768C155.119 218.776 155.166 218.795 155.207 218.822C155.249 218.849 155.284 218.884 155.312 218.925C155.34 218.966 155.359 219.012 155.369 219.06C155.379 219.109 155.379 219.159 155.369 219.207C155.353 219.292 155.308 219.368 155.241 219.423C155.174 219.478 155.09 219.507 155.004 219.505Z" fill="white"/>
<path d="M155.004 253.852C147.619 254.85 135.628 254.836 128.705 249.381C121.782 243.926 123.228 239.231 125.888 237.271C128.549 235.311 130.859 233.075 126.283 228.723C121.708 224.371 114.36 217.381 111.975 206.896C109.591 196.411 110.768 189.853 115.448 187.67C119.986 185.553 121.186 188.922 123.966 195.867C126.745 202.812 132.998 196.858 138.348 199.027C143.699 201.195 143.483 205.488 143.818 209.176C144.153 212.865 145.92 213.886 148.953 213.886C151.986 213.886 155.004 215.63 155.004 219.103V253.852Z" fill="#310057"/>
<path d="M155.004 241.675C154.972 241.682 154.939 241.682 154.907 241.675C154.586 241.586 146.948 239.365 135.822 229.148C123.973 218.268 118.384 201.948 118.324 201.784C118.296 201.69 118.305 201.589 118.349 201.501C118.394 201.414 118.47 201.347 118.563 201.315C118.656 201.284 118.757 201.291 118.845 201.334C118.933 201.377 119 201.453 119.032 201.546C119.084 201.71 124.621 217.851 136.329 228.597C147.298 238.679 155.026 240.937 155.108 240.96C155.155 240.973 155.199 240.996 155.237 241.027C155.275 241.058 155.307 241.095 155.33 241.138C155.354 241.181 155.369 241.228 155.374 241.277C155.379 241.326 155.375 241.375 155.361 241.422C155.337 241.497 155.289 241.562 155.225 241.608C155.16 241.654 155.083 241.677 155.004 241.675Z" fill="white"/>
<path d="M138.93 231.742C138.855 231.743 138.781 231.72 138.72 231.678C138.658 231.635 138.612 231.574 138.587 231.503C136.195 225.363 135.651 212.224 135.606 211.666C135.604 211.567 135.64 211.472 135.707 211.4C135.773 211.327 135.866 211.284 135.964 211.278C136.061 211.279 136.154 211.317 136.226 211.383C136.297 211.449 136.342 211.539 136.351 211.636C136.351 211.77 136.91 225.206 139.258 231.235C139.276 231.281 139.284 231.33 139.283 231.379C139.282 231.429 139.271 231.477 139.251 231.522C139.231 231.567 139.202 231.608 139.166 231.642C139.13 231.676 139.088 231.702 139.041 231.719C139.006 231.732 138.968 231.74 138.93 231.742Z" fill="white"/>
<path d="M138.87 240.572C138.183 240.578 137.496 240.543 136.813 240.468C136.764 240.462 136.717 240.446 136.674 240.422C136.631 240.398 136.593 240.366 136.563 240.327C136.532 240.288 136.51 240.244 136.496 240.196C136.483 240.149 136.479 240.099 136.485 240.05C136.491 240.002 136.506 239.954 136.531 239.911C136.555 239.868 136.587 239.831 136.626 239.8C136.665 239.77 136.709 239.747 136.756 239.734C136.804 239.721 136.853 239.717 136.902 239.723C136.969 239.723 143.907 240.513 147.089 237.271C147.123 237.232 147.163 237.2 147.21 237.177C147.256 237.154 147.306 237.141 147.357 237.139C147.408 237.137 147.46 237.145 147.508 237.163C147.556 237.182 147.599 237.21 147.636 237.246C147.672 237.282 147.701 237.325 147.72 237.373C147.739 237.421 147.748 237.472 147.747 237.523C147.745 237.574 147.733 237.625 147.711 237.671C147.689 237.717 147.657 237.759 147.619 237.792C145.316 240.17 141.299 240.572 138.87 240.572Z" fill="white"/>
<path d="M133.504 99.4592L132.699 94.8166L128.556 97.544C128.177 96.7989 127.641 96.1453 126.984 95.6289L128.966 90.2633L125.24 89.4362L122.512 94.6526C121.526 94.8191 120.569 95.1305 119.673 95.5767L118.488 91.642L114.062 95.1221L114.352 99.7424C113.451 100.752 112.633 101.834 111.908 102.977L108.256 102.79L105.693 108.536L108.83 109.877C108.503 111.066 108.296 112.284 108.212 113.514L104.225 117.18L105.022 121.83L109.173 119.103C109.549 119.847 110.087 120.499 110.745 121.011L108.8 126.384L112.527 127.203L116.431 123.403C117.333 123.261 117.11 121.562 118.093 121.078L119.278 124.998L123.697 121.525L123.585 119.707C124.48 118.708 127.863 116.51 128.593 115.362L129.51 113.872L132.073 108.126L130.881 105.965L129.555 103.148L133.504 99.4592ZM119.979 114.744C116.58 117.411 115.507 118 114.934 114.431C114.36 110.861 116.305 105.436 119.703 102.761C123.101 100.085 124.398 99.8989 125.009 103.461C125.62 107.023 123.384 112.105 119.979 114.744Z" fill="#E0E0E0"/>
<path d="M125.27 89.4362L130.106 92.2232L127.379 97.4248L122.542 94.6377L125.27 89.4362Z" fill="#F5F5F5"/>
<path d="M137.536 97.6035L133.393 100.331L128.556 97.5439L132.7 94.8164L137.536 97.6035Z" fill="#F5F5F5"/>
<path d="M136.873 110.891L133.735 109.557L128.899 106.77L132.036 108.104L136.873 110.891Z" fill="#E0E0E0"/>
<path d="M108.793 126.384L113.63 129.163L115.612 123.798L110.775 121.011L108.793 126.384Z" fill="#E0E0E0"/>
<path d="M124.07 127.785L119.241 124.998L118.056 121.078L122.893 123.865L124.07 127.785Z" fill="#E0E0E0"/>
<path d="M138.333 102.246L137.536 97.6034L133.392 100.331C133.011 99.5853 132.472 98.9318 131.813 98.4157L133.795 93.0501L130.106 92.223L127.371 97.4394C126.384 97.6059 125.428 97.9173 124.532 98.3635L123.354 94.4437L118.928 97.9238L119.218 102.544C118.316 103.561 117.499 104.65 116.774 105.801L113.115 105.614L110.552 111.36L113.689 112.701C113.364 113.893 113.157 115.113 113.07 116.345L109.091 119.96L109.888 124.61L114.032 121.882C114.413 122.626 114.952 123.277 115.612 123.79L113.629 129.156L117.355 129.983L120.083 124.766C121.074 124.602 122.033 124.288 122.93 123.835L124.107 127.755L128.534 124.282L128.243 119.662C129.144 118.652 129.962 117.57 130.687 116.427L134.346 116.606L136.91 110.861L133.728 109.527C134.058 108.336 134.267 107.115 134.354 105.883L138.333 102.246ZM124.822 117.56C121.432 120.228 118.183 119.505 117.564 115.943C116.946 112.381 119.204 107.321 122.602 104.653C126 101.985 129.242 102.716 129.86 106.278C130.479 109.84 128.221 114.892 124.822 117.56Z" fill="#EBEBEB"/>
<path d="M123.355 94.4292L118.518 91.6421L114.092 95.1222L118.928 97.9093L123.355 94.4292Z" fill="#F5F5F5"/>
<path d="M114.092 95.1218L114.382 99.7421L119.219 102.529L118.928 97.9089L114.092 95.1218Z" fill="#E0E0E0"/>
<path d="M116.775 105.764L111.938 102.977L108.287 102.798L113.116 105.585L116.775 105.764Z" fill="#F5F5F5"/>
<path d="M108.286 102.798L105.723 108.536L110.552 111.323L113.115 105.585L108.286 102.798Z" fill="#E0E0E0"/>
<path d="M113.071 116.301L108.242 113.514L104.255 117.18L109.084 119.967L113.071 116.301Z" fill="#F5F5F5"/>
<path d="M109.889 124.617L105.052 121.83L104.255 117.18L109.084 119.967L109.889 124.617Z" fill="#E0E0E0"/>
<path d="M130.106 92.2232L125.27 89.4362L128.966 90.2633L133.795 93.0504L130.106 92.2232Z" fill="#F5F5F5"/>
<path d="M111.849 78.3845V71.4466L106.327 73.9356C106.034 72.7585 105.529 71.6448 104.836 70.6492L108.316 63.6368L104.069 61.1851L99.7314 67.7057C98.5227 67.6001 97.305 67.7188 96.1395 68.0559L95.5284 62.0272L89.522 65.4998L88.9184 72.2067C87.6112 73.365 86.4092 74.6369 85.3265 76.0073L80.9894 74.5169L76.7417 81.8796L80.2143 84.8604C79.5727 86.4831 79.074 88.1587 78.7239 89.8682L73.2019 93.7508V100.696L78.7239 98.2071C79.0164 99.3842 79.5215 100.498 80.2143 101.494L76.7566 108.513L81.0043 110.965L85.3414 104.445C86.55 104.55 87.7677 104.431 88.9333 104.094L89.5369 110.123L95.5433 106.65L96.1544 99.9435C98.0291 99.2595 99.6898 98.0923 100.968 96.5602L104.083 97.6557L108.331 90.3004L105.723 88.0648C106.289 86.2006 106.499 84.2463 106.341 82.3043L111.849 78.3845ZM92.5252 95.7181C87.9198 98.3785 85.0731 96.4633 85.0731 91.1649C85.0731 85.8664 88.8811 79.316 93.494 76.6556C98.1068 73.9952 100.894 75.9104 100.894 81.2536C100.894 86.5967 97.1381 93.0503 92.5252 95.7181Z" fill="#E0E0E0"/>
<path d="M108.898 63.9647L104.069 61.1851L99.7314 67.7057L104.56 70.4927L108.898 63.9647Z" fill="#F5F5F5"/>
<path d="M116.685 74.2337L111.848 71.4467L106.326 73.9357L111.163 76.7227L116.685 74.2337Z" fill="#F5F5F5"/>
<path d="M94.351 112.91L89.5221 110.123L88.9185 104.094L93.7474 106.881L94.351 112.91Z" fill="#E0E0E0"/>
<path d="M76.7341 108.513L81.5705 111.301L85.0507 104.288L80.2143 101.501L76.7341 108.513Z" fill="#E0E0E0"/>
<path d="M116.685 81.2088V74.2709L111.163 76.7375C110.873 75.5593 110.368 74.445 109.672 73.4511L113.152 66.4387L108.905 63.9795L104.568 70.5075C103.359 70.3983 102.14 70.5171 100.976 70.8578L100.365 64.8141L94.3582 68.2868L93.7471 74.9937C92.4418 76.1539 91.24 77.4256 90.1552 78.7943L85.8181 77.3039L81.5704 84.6665L85.0505 87.6474C84.4055 89.2689 83.9067 90.9449 83.5601 92.6552L78.0381 96.5378V103.483L83.5601 100.994C83.8493 102.172 84.3547 103.287 85.0505 104.28L81.5704 111.293L85.8181 113.745L90.1552 107.224C91.3639 107.33 92.5816 107.211 93.7471 106.874L94.3582 112.903L100.365 109.43L100.968 102.723C102.275 101.565 103.477 100.293 104.56 98.9224L108.897 100.413L113.145 93.0576L109.665 90.0768C110.31 88.4552 110.808 86.7793 111.155 85.069L116.685 81.2088ZM97.3614 98.5424C92.7485 101.203 89.0076 99.0417 89.0076 93.7208C89.0076 88.4 92.7336 81.9242 97.3614 79.2563C101.989 76.5885 105.708 78.757 105.708 84.0778C105.708 89.3986 101.967 95.8373 97.3614 98.5051V98.5424Z" fill="#EBEBEB"/>
<path d="M85.3264 76.0224L90.1554 78.8095L85.8182 77.2967L80.9893 74.5021L85.3264 76.0224Z" fill="#F0F0F0"/>
<path d="M80.9888 74.5098L76.74 81.8749L81.5748 84.6641L85.8236 77.2989L80.9888 74.5098Z" fill="#F5F5F5"/>
<path d="M76.7341 81.8648L81.5705 84.6519L85.0507 87.6476L80.2143 84.868L76.7341 81.8648Z" fill="#E0E0E0"/>
<path d="M78.7239 89.8757L83.5603 92.6628L78.0383 96.5453L73.2019 93.7582L78.7239 89.8757Z" fill="#F5F5F5"/>
<path d="M73.2019 93.758L78.0383 96.5451V103.49L73.2019 100.703V93.758Z" fill="#E0E0E0"/>
<path d="M100.365 64.8141L95.5284 62.027L89.522 65.4997L94.3509 68.2867L100.365 64.8141Z" fill="#F5F5F5"/>
<path d="M162.366 263.823L232.416 223.373C232.571 223.318 232.704 223.218 232.799 223.084C232.893 222.951 232.944 222.791 232.944 222.627C232.944 222.464 232.893 222.304 232.799 222.171C232.704 222.037 232.571 221.937 232.416 221.882L225.94 218.156C225.539 217.954 225.096 217.849 224.647 217.849C224.198 217.849 223.756 217.954 223.354 218.156L153.282 258.569C153.128 258.623 152.994 258.724 152.9 258.858C152.805 258.991 152.754 259.151 152.754 259.314C152.754 259.478 152.805 259.637 152.9 259.771C152.994 259.904 153.128 260.005 153.282 260.059L159.781 263.785C160.179 263.993 160.62 264.105 161.069 264.111C161.518 264.118 161.962 264.019 162.366 263.823Z" fill="#E0E0E0"/>
<path d="M230.493 67.199L167.329 103.67C166.39 104.282 165.609 105.108 165.048 106.079C164.488 107.05 164.164 108.139 164.103 109.259V259.098C164.103 261.155 165.548 261.99 167.329 260.961L230.493 224.491C231.434 223.879 232.216 223.054 232.777 222.083C233.337 221.112 233.661 220.022 233.72 218.902V69.062C233.72 67.0053 232.282 66.1706 230.493 67.199Z" fill="#455A64"/>
<path d="M167.33 103.67L230.494 67.199C232.088 66.275 233.407 66.8488 233.676 68.451C233.527 67.4436 233.166 66.4793 232.618 65.6213C232.069 64.7633 231.345 64.0311 230.494 63.473L227.87 61.9826C226.871 61.4752 225.765 61.2108 224.644 61.2108C223.522 61.2108 222.417 61.4752 221.417 61.9826L158.245 98.4234C157.294 99.02 156.509 99.8481 155.965 100.83L165.049 106.047C165.593 105.072 166.379 104.254 167.33 103.67Z" fill="#37474F"/>
<path d="M155.004 253.852C155.065 254.971 155.389 256.061 155.95 257.032C156.51 258.003 157.292 258.828 158.231 259.441L160.861 260.931C161.772 261.387 162.768 261.645 163.785 261.689C164.802 261.732 165.817 261.561 166.763 261.185C165.273 261.766 164.088 260.909 164.088 259.068V109.259C164.125 108.134 164.451 107.039 165.034 106.077L155.95 100.86C155.375 101.815 155.05 102.899 155.004 104.012V253.852Z" fill="#263238"/>
<path d="M169.066 123.634L228.78 89.1677C229.853 88.5566 230.717 89.0559 230.717 90.2855V201.188C230.681 201.86 230.487 202.514 230.15 203.097C229.814 203.68 229.344 204.174 228.78 204.541L169.088 239.007C168.015 239.626 167.151 239.126 167.151 237.889V126.987C167.185 126.317 167.376 125.665 167.708 125.082C168.041 124.499 168.506 124.003 169.066 123.634Z" fill="white"/>
<path d="M198.911 91.1127C198.582 91.3291 198.307 91.6198 198.111 91.9615C197.914 92.3032 197.8 92.6863 197.779 93.08C197.779 93.8252 198.285 94.101 198.911 93.7358C199.242 93.5207 199.517 93.2303 199.714 92.8883C199.911 92.5464 200.024 92.1626 200.044 91.7685C200.044 91.0456 199.537 90.755 198.911 91.1127Z" fill="#37474F"/>
<path d="M198.911 227.076C197.608 227.929 196.525 229.076 195.748 230.425C194.971 231.774 194.523 233.287 194.44 234.841C194.44 237.696 196.445 238.858 198.911 237.427C200.214 236.575 201.297 235.427 202.074 234.078C202.85 232.729 203.299 231.217 203.382 229.662C203.397 226.808 201.385 225.646 198.911 227.076Z" fill="#37474F"/>
<path d="M188.188 102.649C187.533 103.083 186.989 103.666 186.601 104.35C186.213 105.033 185.99 105.798 185.952 106.583C185.952 108.029 186.966 108.618 188.188 107.895C188.85 107.464 189.4 106.883 189.795 106.2C190.19 105.516 190.418 104.749 190.461 103.96C190.461 102.515 189.447 101.926 188.188 102.649Z" fill="#37474F"/>
<path d="M193.755 102.157C193.755 103.126 194.5 103.491 195.372 102.977L210.276 94.3545C210.738 94.0661 211.125 93.6729 211.406 93.2067C211.687 92.7405 211.854 92.2146 211.893 91.6717C211.893 90.7104 211.148 90.3452 210.276 90.8594L195.372 99.4815C194.911 99.7691 194.525 100.161 194.244 100.626C193.963 101.091 193.795 101.615 193.755 102.157Z" fill="#37474F"/>
<path d="M160.041 128.433C160.57 128.777 161.01 129.242 161.326 129.788C161.642 130.334 161.825 130.948 161.859 131.578C161.859 132.74 161.047 133.21 160.041 132.629C159.514 132.283 159.076 131.818 158.761 131.272C158.447 130.726 158.265 130.113 158.23 129.484C158.23 128.329 159.042 127.859 160.041 128.433Z" fill="#37474F"/>
<path d="M160.041 142.428C160.57 142.773 161.01 143.237 161.326 143.783C161.642 144.33 161.825 144.943 161.859 145.573C161.859 146.728 161.047 147.198 160.041 146.624C159.514 146.278 159.076 145.813 158.761 145.267C158.447 144.721 158.265 144.108 158.23 143.479C158.23 142.316 159.042 141.847 160.041 142.428Z" fill="#37474F"/>
<path d="M159.475 128.716C160.004 129.061 160.444 129.525 160.76 130.071C161.076 130.618 161.259 131.231 161.293 131.861C161.293 133.016 160.481 133.485 159.475 132.912C158.946 132.567 158.506 132.103 158.19 131.557C157.874 131.01 157.691 130.397 157.657 129.767C157.664 128.604 158.476 128.157 159.475 128.716Z" fill="#455A64"/>
<path d="M159.475 142.704C160.005 143.049 160.446 143.514 160.762 144.062C161.078 144.61 161.26 145.224 161.293 145.856C161.293 147.011 160.481 147.48 159.475 146.899C158.945 146.556 158.504 146.092 158.188 145.545C157.872 144.999 157.69 144.385 157.657 143.754C157.664 142.599 158.476 142.13 159.475 142.704Z" fill="#455A64"/>
<path d="M242.804 93.7955C242.804 92.5584 241.94 92.0591 240.867 92.6777L233.72 96.7987L181.175 127.144C180.611 127.51 180.141 128.005 179.805 128.588C179.468 129.171 179.274 129.825 179.238 130.497V241.37C179.238 242.607 180.102 243.106 181.175 242.487L233.743 212.135L240.867 208.021C241.431 207.655 241.901 207.16 242.238 206.577C242.574 205.994 242.768 205.34 242.804 204.668V93.7955Z" fill="white"/>
<path d="M243.55 93.7958C243.597 93.4221 243.532 93.0429 243.365 92.7055C243.197 92.3682 242.934 92.0877 242.608 91.8992C242.282 91.7107 241.907 91.6226 241.531 91.6458C241.155 91.669 240.795 91.8025 240.494 92.0297L233.676 95.9718L180.803 126.525C180.122 126.955 179.556 127.544 179.154 128.241C178.751 128.938 178.524 129.723 178.493 130.527V241.37C178.463 241.742 178.534 242.115 178.7 242.45C178.865 242.784 179.118 243.068 179.432 243.27C179.699 243.425 180.002 243.505 180.311 243.501C180.748 243.488 181.174 243.362 181.548 243.136L234.458 212.582L241.262 208.655C241.939 208.221 242.502 207.631 242.904 206.935C243.306 206.239 243.535 205.456 243.572 204.653L243.55 93.7958ZM233.69 211.308L233.079 211.666L180.833 241.832C180.745 241.899 180.643 241.946 180.535 241.97C180.427 241.993 180.314 241.992 180.207 241.966C180.11 241.906 180.013 241.698 180.013 241.355V130.497C180.052 129.956 180.212 129.431 180.484 128.961C180.755 128.491 181.129 128.089 181.578 127.785L233.772 97.6039L241.225 93.2891C241.312 93.2216 241.414 93.1746 241.522 93.1514C241.631 93.1282 241.743 93.1294 241.851 93.1549C241.947 93.2146 242.044 93.4232 242.044 93.766V204.668C242.006 205.209 241.845 205.735 241.574 206.205C241.303 206.674 240.928 207.077 240.479 207.381L233.676 211.308H233.69Z" fill="#310057"/>
<path d="M211.021 119.557C217.728 115.697 223.131 118.812 223.131 126.555C223.131 134.298 217.706 143.695 211.021 147.525C204.337 151.355 198.911 148.27 198.911 140.535C198.911 132.8 204.337 123.425 211.021 119.557Z" fill="#310057"/>
<path d="M211.021 125.638C213.19 124.386 214.948 125.4 214.948 127.874C214.875 129.237 214.481 130.563 213.798 131.745C213.116 132.927 212.164 133.932 211.021 134.678C208.852 135.93 207.094 134.916 207.094 132.442C207.167 131.079 207.561 129.753 208.244 128.57C208.926 127.388 209.878 126.384 211.021 125.638Z" fill="#310057"/>
<path d="M218.674 138.993C218.674 134.879 215.79 133.21 212.221 135.267L209.985 136.556C206.423 138.613 203.531 143.62 203.531 147.734V148.844C205.596 149.522 208.189 149.157 210.984 147.525C214.079 145.616 216.697 143.023 218.637 139.946L218.674 138.993Z" fill="#310057"/>
<path opacity="0.7" d="M211.021 125.638C213.19 124.386 214.948 125.4 214.948 127.874C214.875 129.237 214.481 130.563 213.798 131.745C213.116 132.927 212.164 133.932 211.021 134.678C208.852 135.93 207.094 134.916 207.094 132.442C207.167 131.079 207.561 129.753 208.244 128.57C208.926 127.388 209.878 126.384 211.021 125.638Z" fill="white"/>
<path opacity="0.7" d="M218.674 138.993C218.674 134.879 215.79 133.21 212.221 135.267L209.985 136.556C206.423 138.613 203.531 143.62 203.531 147.734V148.844C205.596 149.522 208.189 149.157 210.984 147.525C214.079 145.616 216.697 143.023 218.637 139.946L218.674 138.993Z" fill="white"/>
<path d="M187.592 164.553L203.174 155.559C203.919 155.149 204.463 155.477 204.463 156.304V156.818C204.44 157.266 204.311 157.702 204.087 158.09C203.863 158.479 203.55 158.809 203.174 159.054L187.592 168.048C186.884 168.458 186.302 168.123 186.302 167.303V166.789C186.327 166.341 186.456 165.905 186.68 165.517C186.904 165.129 187.216 164.798 187.592 164.553Z" fill="#310057"/>
<path opacity="0.1" d="M187.592 164.553L203.174 155.559C203.919 155.149 204.463 155.477 204.463 156.304V156.818C204.44 157.266 204.311 157.702 204.087 158.09C203.863 158.479 203.55 158.809 203.174 159.054L187.592 168.048C186.884 168.458 186.302 168.123 186.302 167.303V166.789C186.327 166.341 186.456 165.905 186.68 165.517C186.904 165.129 187.216 164.798 187.592 164.553Z" fill="black"/>
<path d="M186.951 175.411L234.093 148.196C234.443 147.987 234.734 148.151 234.734 148.568V154.068C234.721 154.291 234.656 154.508 234.545 154.702C234.434 154.896 234.279 155.062 234.093 155.186L186.951 182.401C186.593 182.61 186.302 182.438 186.302 182.028V176.529C186.315 176.305 186.381 176.087 186.493 175.892C186.606 175.698 186.763 175.533 186.951 175.411Z" fill="#310057"/>
<path opacity="0.2" d="M186.951 175.411L234.093 148.196C234.443 147.987 234.734 148.151 234.734 148.568V154.068C234.721 154.291 234.656 154.508 234.545 154.702C234.434 154.896 234.279 155.062 234.093 155.186L186.951 182.401C186.593 182.61 186.302 182.438 186.302 182.028V176.529C186.315 176.305 186.381 176.087 186.493 175.892C186.606 175.698 186.763 175.533 186.951 175.411Z" fill="white"/>
<path d="M187.592 189.018L203.174 180.024C203.919 179.614 204.463 179.949 204.463 180.769V181.283C204.44 181.731 204.311 182.167 204.087 182.556C203.863 182.944 203.55 183.274 203.174 183.519L187.592 192.513C186.884 192.931 186.302 192.595 186.302 191.768V191.254C186.328 190.807 186.458 190.371 186.682 189.983C186.905 189.595 187.217 189.264 187.592 189.018Z" fill="#310057"/>
<path opacity="0.1" d="M187.592 189.018L203.174 180.024C203.919 179.614 204.463 179.949 204.463 180.769V181.283C204.44 181.731 204.311 182.167 204.087 182.556C203.863 182.944 203.55 183.274 203.174 183.519L187.592 192.513C186.884 192.931 186.302 192.595 186.302 191.768V191.254C186.328 190.807 186.458 190.371 186.682 189.983C186.905 189.595 187.217 189.264 187.592 189.018Z" fill="black"/>
<path d="M186.951 199.876L234.093 172.661C234.443 172.452 234.734 172.624 234.734 173.034V178.533C234.721 178.757 234.656 178.974 234.545 179.168C234.434 179.362 234.279 179.527 234.093 179.651L186.951 206.866C186.593 207.075 186.302 206.911 186.302 206.494V200.994C186.315 200.77 186.381 200.552 186.493 200.358C186.606 200.164 186.763 199.999 186.951 199.876Z" fill="#310057"/>
<path opacity="0.2" d="M186.951 199.876L234.093 172.661C234.443 172.452 234.734 172.624 234.734 173.034V178.533C234.721 178.757 234.656 178.974 234.545 179.168C234.434 179.362 234.279 179.527 234.093 179.651L186.951 206.866C186.593 207.075 186.302 206.911 186.302 206.494V200.994C186.315 200.77 186.381 200.552 186.493 200.358C186.606 200.164 186.763 199.999 186.951 199.876Z" fill="white"/>
<path d="M205.753 202.999L224.383 192.26C225.128 191.843 225.68 192.178 225.68 193.005V198.758C225.655 199.207 225.525 199.643 225.3 200.032C225.074 200.42 224.76 200.75 224.383 200.994L205.753 211.74C205.007 212.15 204.463 211.815 204.463 210.995V205.234C204.489 204.787 204.619 204.352 204.843 203.964C205.067 203.576 205.378 203.245 205.753 202.999Z" fill="#310057"/>
<path opacity="0.1" d="M205.753 202.999L224.383 192.26C225.128 191.843 225.68 192.178 225.68 193.005V198.758C225.655 199.207 225.525 199.643 225.3 200.032C225.074 200.42 224.76 200.75 224.383 200.994L205.753 211.74C205.007 212.15 204.463 211.815 204.463 210.995V205.234C204.489 204.787 204.619 204.352 204.843 203.964C205.067 203.576 205.378 203.245 205.753 202.999Z" fill="black"/>
<path d="M249.869 178.72C249.869 178.72 240.718 166.096 240.181 164.561C239.756 163.428 240.181 161.744 240.315 160.961C240.449 160.179 240.568 158.435 240.703 157.98C240.926 157.131 239.831 157.302 239.212 158.077C238.594 158.852 238.385 160.402 238.065 160.656C237.744 160.909 235.307 157.354 234.033 155.715C232.759 154.075 231.961 153.077 231.179 153.688C230.62 154.128 231.037 155.082 231.961 156.483C232.501 157.237 232.999 158.021 233.452 158.83C233.593 159.135 232.833 159.158 232.423 159.791C232.103 160.283 232.423 161.08 231.976 161.461C231.701 161.67 231.513 161.973 231.447 162.313C231.381 162.652 231.442 163.004 231.619 163.301C232.448 164.604 233.518 165.737 234.771 166.64C236.142 167.586 236.693 167.921 237.506 169.211C238.318 170.5 245.606 183.668 246.098 184.458C246.59 185.248 247.536 186.857 248.974 186.902C250.413 186.947 262.187 176.812 262.791 176.305C264.728 174.688 265.347 174.457 265.675 175.91C265.788 176.427 265.872 176.949 265.928 177.475C266.159 179.323 267.418 185.926 267.418 185.926C267.418 185.926 273.38 188.81 278.276 187.416C283.172 186.023 284.827 183.944 284.827 183.944L282.375 179.949C283.038 178.302 286.101 171.625 287.092 166.953L271.741 164.471C271.428 164.404 270.921 164.277 270.25 164.106C269.408 163.882 267.269 163.145 265.652 164.561C260.376 169.159 249.884 178.72 249.884 178.72" fill="#FFA8A7"/>
<path d="M280.303 256.177L277.553 260C278.803 260.583 280.169 260.876 281.548 260.857C284.014 260.946 284.693 260.112 284.782 259.948C285.199 259.053 284.551 257.444 284.372 256.058L280.303 256.177Z" fill="#37474F"/>
<path d="M277.71 258.166C277.71 258.166 274.372 257.95 272.069 257.667C269.766 257.384 267.94 258.502 268.477 259.448C269.013 260.395 270.288 261.185 272.27 261.848C273.962 262.422 275.996 262.832 277.755 263.338C279.514 263.845 280.736 264.508 281.757 264.151C282.897 263.756 283.389 263.301 283.292 262.466C283.043 261.279 282.734 260.105 282.368 258.949L277.71 258.166Z" fill="#37474F"/>
<path d="M284.782 252.339C284.782 252.339 284.365 255.812 284.335 256.557C284.305 257.302 280.944 257.54 280.303 256.177L280.199 251.929L284.782 252.339Z" fill="#F28F8F"/>
<path d="M281.399 254.47L282.598 259.746C282.598 259.746 282.71 260.387 279.968 260.797C277.225 261.207 272.918 259.359 272.18 258.986C271.443 258.614 271.361 257.861 274.058 258.01C276.756 258.159 277.71 258.167 277.71 258.167L276.83 255.834L281.399 254.47Z" fill="#FFA8A7"/>
<path d="M287.048 166.908L288.948 166.379C288.948 166.379 292.92 178.951 293.36 180.165C293.799 181.38 294.298 182.662 293.441 184.16C292.421 185.941 287.048 193.102 287.048 193.102L283.635 189.764L287.51 182.669L284.082 175.739L287.048 166.908Z" fill="#F28F8F"/>
<path d="M267.53 150.581C267.085 149.744 266.859 148.809 266.873 147.861C266.888 146.914 267.142 145.985 267.612 145.163C269.505 141.653 273.723 139.947 278.746 140.595C281.071 140.9 283.813 142.831 285.311 145.714C286.966 148.911 287.122 155.35 287.547 157.787L267.53 150.581Z" fill="#37474F"/>
<path d="M267.396 151.959C267.396 151.959 266.204 154.232 266.413 154.441C266.722 154.621 267.06 154.747 267.411 154.813L267.396 151.959Z" fill="#FFA8A7"/>
<path d="M271.018 144.775C269.721 145.617 267.486 147.167 267.389 152.272C267.285 157.489 268.03 159.21 268.805 159.814C269.327 160.224 272.389 160.015 273.701 159.709C275.012 159.404 278.791 157.533 280.154 154.694C281.757 151.356 281.429 146.497 279.052 145.006C277.842 144.291 276.47 143.894 275.065 143.854C273.66 143.814 272.267 144.131 271.018 144.775Z" fill="#FFA8A7"/>
<path d="M284.782 183.914C287.077 187.491 289.253 190.621 289.73 194.66C290.714 203.148 287.495 212.85 286.801 219.132C288.105 220.919 288.856 223.049 288.963 225.258C288.963 227.859 284.782 252.339 284.782 252.339C284.782 252.339 281.741 253.263 280.199 251.929L277.33 206.896L278.82 201.411L284.782 183.914Z" fill="#F4CD49"/>
<path d="M277.33 206.896L278.82 201.411C281.674 200.66 284.426 199.567 287.018 198.155C287.018 198.155 285.468 200.979 281.011 202.529L278.708 209.571L278.515 225.705L277.33 206.896Z" fill="#F4CD49"/>
<path d="M284.782 183.914C286.012 185.926 288.948 189.354 288.322 192.655C287.577 196.649 285.415 199.459 278.843 201.411L272.672 223.768C272.672 223.768 275.884 226.748 276.868 229.632C277.852 232.516 281.399 254.485 281.399 254.485C281.399 254.485 280.296 256.281 276.831 255.849C276.831 255.849 264.751 228.276 263.901 226.48C262.87 224.661 262.509 222.539 262.88 220.481C263.26 217.59 267.352 185.941 267.352 185.941L284.782 183.914Z" fill="#F4CD49"/>
<path d="M287.047 166.908L271.696 164.427C271.383 164.36 270.876 164.233 270.206 164.062C270.206 164.062 269.55 173.69 265.608 175.895C265.705 176.358 265.787 176.872 265.861 177.46C266.092 179.309 267.351 185.911 267.351 185.911C267.351 185.911 273.313 188.795 278.209 187.402C283.105 186.008 284.76 183.929 284.76 183.929L282.308 179.935C282.993 178.273 286.079 171.596 287.047 166.908Z" fill="#310057"/>
<path opacity="0.7" d="M287.047 166.908L271.696 164.427C271.383 164.36 270.876 164.233 270.206 164.062C270.206 164.062 269.55 173.69 265.608 175.895C265.705 176.358 265.787 176.872 265.861 177.46C266.092 179.309 267.351 185.911 267.351 185.911C267.351 185.911 273.313 188.795 278.209 187.402C283.105 186.008 284.76 183.929 284.76 183.929L282.308 179.935C282.993 178.273 286.079 171.596 287.047 166.908Z" fill="white"/>
<path d="M283.001 178.347C280.962 179.571 278.826 180.625 276.615 181.499C278.622 181.459 280.587 180.916 282.33 179.919L283.001 178.347Z" fill="#310057"/>
<path d="M270.638 145.029C270.638 145.029 269.893 149.873 271.651 152.719C271.651 152.719 272.307 150.789 273.939 151.154C275.571 151.519 275.661 153.673 274.513 154.88C274.221 155.219 273.84 155.468 273.413 155.6C272.986 155.732 272.53 155.741 272.099 155.626C272.099 155.626 271.838 159.128 271.696 162.064C271.555 165 270.78 171.402 274.081 173.988C277.382 176.573 285.669 177.483 289.551 172.057C291.713 169.039 288.843 163.704 287.51 157.72C286.28 152.22 285.587 144.067 279.752 142.756C273.917 141.444 270.638 145.029 270.638 145.029Z" fill="#37474F"/>
<path d="M292.048 78.8468L290.819 79.5921C290.922 79.1546 290.979 78.7075 290.99 78.2581C290.99 75.7617 289.239 74.7556 287.078 76.0225C286.42 76.4192 285.833 76.9229 285.341 77.5129C285.341 74.1595 282.986 72.7957 280.08 74.4725C278.549 75.4712 277.274 76.817 276.36 78.4005C275.446 79.984 274.918 81.7607 274.819 83.5864C274.819 83.7578 274.819 83.9217 274.819 84.0857C274.07 83.9915 273.313 84.1657 272.68 84.5775C271.541 85.3195 270.594 86.3197 269.914 87.4966C269.234 88.6736 268.842 89.9943 268.768 91.3515C268.767 91.667 268.8 91.9817 268.865 92.2904L268.209 92.6705C266.428 93.6989 264.982 95.7035 264.982 97.1418C264.982 98.58 266.428 98.9228 268.209 97.887L292.056 84.1378C293.837 83.1095 295.282 81.1048 295.282 79.6666C295.282 78.2283 293.829 77.811 292.048 78.8468Z" fill="#EBEBEB"/>
</svg>
