<svg width="522" height="492" viewBox="0 0 522 492" fill="none" xmlns="http://www.w3.org/2000/svg">
<g clip-path="url(#clip0_700_7927)">
<rect width="522" height="492" fill="white"/>
<path d="M261 474.58C384.126 474.58 483.94 416.95 483.94 345.86C483.94 274.77 384.126 217.14 261 217.14C137.874 217.14 38.0601 274.77 38.0601 345.86C38.0601 416.95 137.874 474.58 261 474.58Z" fill="#F5F5F5"/>
<path d="M99.78 377.91C117.746 377.91 132.31 369.502 132.31 359.13C132.31 348.758 117.746 340.35 99.78 340.35C81.8142 340.35 67.25 348.758 67.25 359.13C67.25 369.502 81.8142 377.91 99.78 377.91Z" fill="#E0E0E0"/>
<path d="M234.08 318.01L144.47 369.75L79.3198 331.85L168.93 280.12L234.08 318.01Z" fill="#E0E0E0"/>
<path d="M380.11 424.26L159.82 297.07C159.361 296.808 158.979 296.428 158.714 295.971C158.448 295.514 158.308 294.994 158.308 294.465C158.308 293.936 158.448 293.416 158.714 292.959C158.979 292.501 159.361 292.122 159.82 291.86L195.38 271.33C196.829 270.49 198.475 270.047 200.15 270.047C201.825 270.047 203.471 270.49 204.92 271.33L425.21 398.51C425.672 398.772 426.056 399.151 426.323 399.61C426.59 400.068 426.731 400.589 426.731 401.12C426.731 401.651 426.59 402.172 426.323 402.63C426.056 403.089 425.672 403.468 425.21 403.73L389.66 424.26C388.207 425.095 386.561 425.535 384.885 425.535C383.209 425.535 381.563 425.095 380.11 424.26Z" fill="#E0E0E0"/>
<path d="M414.48 358.54L426.86 365.73C426.86 365.73 420.61 345.79 424.08 325.73C425.39 318.15 428.14 314.39 429.08 312.37C430.02 310.35 437.52 297.83 430.95 292.07C424.38 286.31 408.95 297.77 409.65 328.67C409.991 338.791 411.614 348.828 414.48 358.54Z" fill="#572B92"/>
<path opacity="0.3" d="M414.48 358.54L426.86 365.73C426.86 365.73 420.61 345.79 424.08 325.73C425.39 318.15 428.14 314.39 429.08 312.37C430.02 310.35 437.52 297.83 430.95 292.07C424.38 286.31 408.95 297.77 409.65 328.67C409.991 338.791 411.614 348.828 414.48 358.54Z" fill="black"/>
<path d="M420.23 362.33C420.139 362.33 420.05 362.302 419.975 362.25C419.9 362.199 419.843 362.125 419.81 362.04C419.76 361.91 415.09 348.93 415.33 328.1C415.57 307.27 426.57 296.01 426.68 295.9C426.765 295.815 426.88 295.767 427 295.767C427.12 295.767 427.235 295.815 427.32 295.9C427.405 295.985 427.453 296.1 427.453 296.22C427.453 296.34 427.405 296.455 427.32 296.54C427.21 296.65 416.47 307.54 416.23 328.11C415.99 348.68 420.61 361.6 420.65 361.73C420.671 361.784 420.681 361.842 420.679 361.901C420.677 361.959 420.664 362.016 420.639 362.069C420.615 362.122 420.581 362.17 420.538 362.21C420.495 362.249 420.445 362.28 420.39 362.3C420.339 362.32 420.285 362.33 420.23 362.33Z" fill="white"/>
<path d="M418 360.4L438.46 372.4C438.46 372.4 447.82 371.02 447.11 362.21C446.4 353.4 442.6 351.31 447.34 347.44C452.08 343.57 453.34 343.31 453.07 339.51C452.8 335.71 450.29 334.06 449.07 332.51C447.85 330.96 444.52 327.85 446.87 323.27C449.22 318.69 452.43 314.27 447.68 312.17C444.85 310.92 440.09 312.49 436.93 315.84C433.77 319.19 431.18 321.6 428.19 322.38C425.2 323.16 418.96 323.22 419.19 328.38C419.42 333.54 420.74 335.31 419.49 337.6C417.09 342 407 344.28 418 360.4Z" fill="#572B92"/>
<path d="M426.29 365.75C426.178 365.748 426.07 365.706 425.987 365.63C425.905 365.555 425.852 365.451 425.84 365.34C425.84 365.03 423.6 334.59 444.75 314.6C444.791 314.558 444.84 314.525 444.894 314.502C444.948 314.479 445.006 314.467 445.065 314.467C445.124 314.467 445.182 314.479 445.236 314.502C445.29 314.525 445.339 314.558 445.38 314.6C445.463 314.686 445.509 314.801 445.509 314.92C445.509 315.039 445.463 315.154 445.38 315.24C424.55 334.93 426.73 364.95 426.76 365.24C426.768 365.359 426.73 365.476 426.654 365.568C426.577 365.659 426.468 365.717 426.35 365.73L426.29 365.75Z" fill="white"/>
<path d="M430 339.61C429.887 339.61 429.778 339.569 429.695 339.493C429.612 339.417 429.56 339.312 429.55 339.2C429.377 336.847 428.729 334.553 427.646 332.456C426.564 330.36 425.068 328.504 423.25 327C423.202 326.965 423.161 326.921 423.13 326.871C423.099 326.82 423.078 326.764 423.069 326.706C423.06 326.647 423.062 326.587 423.076 326.53C423.09 326.472 423.115 326.418 423.15 326.37C423.184 326.322 423.227 326.282 423.276 326.251C423.326 326.22 423.381 326.199 423.439 326.19C423.497 326.181 423.556 326.183 423.613 326.197C423.669 326.21 423.723 326.235 423.77 326.27C425.711 327.842 427.304 329.801 428.447 332.021C429.59 334.242 430.259 336.677 430.41 339.17C430.416 339.289 430.375 339.405 430.297 339.495C430.218 339.584 430.108 339.64 429.99 339.65L430 339.61Z" fill="white"/>
<path d="M428.45 344.82C428.394 344.821 428.339 344.811 428.288 344.79C428.236 344.769 428.189 344.739 428.15 344.7C428.108 344.659 428.074 344.61 428.052 344.556C428.029 344.502 428.017 344.444 428.017 344.385C428.017 344.326 428.029 344.268 428.052 344.214C428.074 344.16 428.108 344.111 428.15 344.07C428.37 343.83 433.68 338.07 445.94 339.79C446.058 339.805 446.165 339.866 446.238 339.96C446.311 340.053 446.344 340.172 446.33 340.29C446.312 340.409 446.249 340.516 446.154 340.589C446.059 340.662 445.939 340.694 445.82 340.68C434.06 339.06 428.87 344.61 428.82 344.68C428.773 344.731 428.716 344.77 428.651 344.794C428.587 344.818 428.518 344.827 428.45 344.82Z" fill="white"/>
<path d="M395.06 268.54L366.51 251.82L383.51 275.2L395.06 268.54Z" fill="#572B92"/>
<path opacity="0.6" d="M395.06 268.54L366.51 251.82L383.51 275.2L395.06 268.54Z" fill="black"/>
<path d="M378.09 330.42L211 233.94C210.283 233.527 209.687 232.933 209.273 232.216C208.859 231.5 208.64 230.687 208.64 229.86V115.77C208.641 114.943 208.859 114.13 209.272 113.414C209.686 112.697 210.281 112.102 210.997 111.688C211.713 111.274 212.525 111.055 213.352 111.053C214.18 111.052 214.993 111.268 215.71 111.68L382.82 208.16C383.537 208.575 384.133 209.172 384.547 209.889C384.961 210.607 385.18 211.421 385.18 212.25V326.34C385.18 327.169 384.961 327.984 384.546 328.702C384.13 329.42 383.533 330.015 382.814 330.429C382.095 330.843 381.28 331.06 380.451 331.058C379.622 331.057 378.807 330.836 378.09 330.42Z" fill="#E0E0E0"/>
<path d="M383.51 275.2L395.06 268.54V403.54C395.061 404.757 394.741 405.953 394.132 407.007C393.523 408.06 392.646 408.934 391.59 409.54L380.18 416.15L383.51 275.2Z" fill="#572B92"/>
<path opacity="0.3" d="M383.51 275.2L395.06 268.54V403.54C395.061 404.757 394.741 405.953 394.132 407.007C393.523 408.06 392.646 408.934 391.59 409.54L380.18 416.15L383.51 275.2Z" fill="black"/>
<path d="M370.51 334.69L203.4 238.21C202.686 237.793 202.093 237.196 201.68 236.478C201.268 235.761 201.051 234.948 201.05 234.12V120C201.05 119.172 201.267 118.359 201.681 117.642C202.094 116.926 202.689 116.33 203.406 115.917C204.123 115.503 204.936 115.286 205.764 115.286C206.591 115.287 207.404 115.505 208.12 115.92L375.23 212.4C375.947 212.813 376.543 213.407 376.957 214.124C377.372 214.84 377.59 215.653 377.59 216.48V330.6C377.591 331.429 377.373 332.243 376.959 332.961C376.545 333.679 375.949 334.275 375.231 334.689C374.514 335.104 373.7 335.322 372.871 335.322C372.042 335.322 371.228 335.104 370.51 334.69Z" fill="#EBEBEB"/>
<path d="M362.92 339.15L195.82 242.68C195.103 242.265 194.507 241.668 194.093 240.951C193.679 240.233 193.461 239.419 193.46 238.59V124.5C193.459 123.672 193.677 122.859 194.09 122.142C194.504 121.426 195.099 120.83 195.816 120.417C196.533 120.003 197.346 119.786 198.173 119.786C199.001 119.787 199.814 120.005 200.53 120.42L367.64 216.9C368.36 217.315 368.958 217.912 369.372 218.632C369.787 219.352 370.003 220.169 370 221V335.07C369.999 335.898 369.78 336.711 369.365 337.427C368.95 338.144 368.354 338.739 367.637 339.152C366.919 339.565 366.106 339.783 365.278 339.782C364.45 339.782 363.637 339.564 362.92 339.15Z" fill="#FAFAFA"/>
<path d="M169.94 123V290.7C169.94 293.08 170.566 295.418 171.756 297.479C172.947 299.54 174.659 301.251 176.72 302.44L373.72 416.16C374.716 416.734 375.844 417.035 376.993 417.035C378.142 417.034 379.27 416.731 380.265 416.157C381.26 415.583 382.087 414.757 382.661 413.762C383.236 412.767 383.539 411.639 383.54 410.49V275.2L279.64 215.2L261.69 173.8C258.34 166.068 252.59 159.62 245.29 155.41L179.54 117.41C178.564 116.846 177.456 116.55 176.328 116.553C175.201 116.555 174.094 116.854 173.119 117.422C172.145 117.989 171.338 118.804 170.78 119.783C170.221 120.763 169.932 121.873 169.94 123Z" fill="#572B92"/>
<path opacity="0.2" d="M169.94 123V290.7C169.94 293.08 170.566 295.418 171.756 297.479C172.947 299.54 174.659 301.251 176.72 302.44L373.72 416.16C374.716 416.734 375.844 417.035 376.993 417.035C378.142 417.034 379.27 416.731 380.265 416.157C381.26 415.583 382.087 414.757 382.661 413.762C383.236 412.767 383.539 411.639 383.54 410.49V275.2L279.64 215.2L261.69 173.8C258.34 166.068 252.59 159.62 245.29 155.41L179.54 117.41C178.564 116.846 177.456 116.55 176.328 116.553C175.201 116.555 174.094 116.854 173.119 117.422C172.145 117.989 171.338 118.804 170.78 119.783C170.221 120.763 169.932 121.873 169.94 123Z" fill="black"/>
<path d="M326.06 306C325.51 305.68 324.96 305.4 324.42 305.15C324 292.25 315 277 304 270.64C300.29 268.49 296.81 267.64 293.81 267.9C289.61 254.28 279.96 240.9 268.72 234.38C254.38 226.1 242.62 232.07 241.48 247.63C240.79 247.15 240.09 246.7 239.39 246.29C228.5 240.01 219.68 245.1 219.68 257.67C219.68 270.24 228.5 285.53 239.39 291.81L326.09 341.87C334.68 346.87 341.64 342.81 341.64 332.87C341.64 322.93 334.65 310.91 326.06 306Z" fill="#572B92"/>
<path opacity="0.4" d="M326.06 306C325.51 305.68 324.96 305.4 324.42 305.15C324 292.25 315 277 304 270.64C300.29 268.49 296.81 267.64 293.81 267.9C289.61 254.28 279.96 240.9 268.72 234.38C254.38 226.1 242.62 232.07 241.48 247.63C240.79 247.15 240.09 246.7 239.39 246.29C228.5 240.01 219.68 245.1 219.68 257.67C219.68 270.24 228.5 285.53 239.39 291.81L326.09 341.87C334.68 346.87 341.64 342.81 341.64 332.87C341.64 322.93 334.65 310.91 326.06 306Z" fill="white"/>
<path d="M252.19 304.83L272.62 342.08L294.45 328.85L285.82 323.98V287.11L262.56 273.71V310.88L252.19 304.83Z" fill="white"/>
<path d="M193.42 69.42C171.646 69.4196 150.438 76.3507 132.867 89.2093C115.296 102.068 102.275 120.186 95.6898 140.94L87.4198 136.18C87.1775 136.038 86.9029 135.96 86.6221 135.954C86.3413 135.948 86.0636 136.014 85.8153 136.145C85.5669 136.276 85.3562 136.468 85.203 136.704C85.0498 136.939 84.9592 137.21 84.9398 137.49C83.4373 153.519 85.7504 169.676 91.6898 184.64C94.6106 192.067 98.5628 199.045 103.43 205.37C103.586 205.567 103.79 205.719 104.024 205.811C104.257 205.904 104.51 205.933 104.759 205.897C105.007 205.86 105.241 205.759 105.438 205.604C105.635 205.448 105.787 205.243 105.88 205.01C109.484 195.971 114.455 187.539 120.62 180.01C124.607 175.062 129.091 170.535 134 166.5C134.276 166.275 134.492 165.987 134.631 165.659C134.77 165.332 134.828 164.975 134.798 164.621C134.769 164.266 134.653 163.925 134.462 163.625C134.27 163.325 134.009 163.076 133.7 162.9L123.78 157.17C129.068 138.063 140.624 121.288 156.594 109.54C172.563 97.7923 192.018 91.7534 211.833 92.3938C231.648 93.0341 250.672 100.316 265.85 113.071C281.027 125.825 291.477 143.311 295.52 162.72C293.216 137.231 281.463 113.526 262.571 96.262C243.678 78.9979 219.012 69.4234 193.42 69.42Z" fill="#572B92"/>
<path opacity="0.4" d="M193.42 69.42C171.646 69.4196 150.438 76.3507 132.867 89.2093C115.296 102.068 102.275 120.186 95.6898 140.94L87.4198 136.18C87.1775 136.038 86.9029 135.96 86.6221 135.954C86.3413 135.948 86.0636 136.014 85.8153 136.145C85.5669 136.276 85.3562 136.468 85.203 136.704C85.0498 136.939 84.9592 137.21 84.9398 137.49C83.4373 153.519 85.7504 169.676 91.6898 184.64C94.6106 192.067 98.5628 199.045 103.43 205.37C103.586 205.567 103.79 205.719 104.024 205.811C104.257 205.904 104.51 205.933 104.759 205.897C105.007 205.86 105.241 205.759 105.438 205.604C105.635 205.448 105.787 205.243 105.88 205.01C109.484 195.971 114.455 187.539 120.62 180.01C124.607 175.062 129.091 170.535 134 166.5C134.276 166.275 134.492 165.987 134.631 165.659C134.77 165.332 134.828 164.975 134.798 164.621C134.769 164.266 134.653 163.925 134.462 163.625C134.27 163.325 134.009 163.076 133.7 162.9L123.78 157.17C129.068 138.063 140.624 121.288 156.594 109.54C172.563 97.7923 192.018 91.7534 211.833 92.3938C231.648 93.0341 250.672 100.316 265.85 113.071C281.027 125.825 291.477 143.311 295.52 162.72C293.216 137.231 281.463 113.526 262.571 96.262C243.678 78.9979 219.012 69.4234 193.42 69.42Z" fill="white"/>
<path d="M390.568 90.6561C401.846 84.1447 401.847 63.0311 390.569 43.4976C379.291 23.9642 361.006 13.4077 349.728 19.9192C338.45 26.4306 338.449 47.5442 349.727 67.0776C361.005 86.6111 379.29 97.1676 390.568 90.6561Z" fill="#572B92"/>
<path opacity="0.2" d="M390.568 90.6561C401.846 84.1447 401.847 63.0311 390.569 43.4976C379.291 23.9642 361.006 13.4077 349.728 19.9192C338.45 26.4306 338.449 47.5442 349.727 67.0776C361.005 86.6111 379.29 97.1676 390.568 90.6561Z" fill="black"/>
<path d="M388.871 91.6362C400.149 85.1247 400.149 64.0112 388.872 44.4777C377.594 24.9442 359.309 14.3878 348.031 20.8992C336.753 27.4107 336.752 48.5242 348.03 68.0577C359.308 87.5912 377.593 98.1476 388.871 91.6362Z" fill="#572B92"/>
<path d="M357 66L379.23 78.9C379.501 79.0587 379.809 79.1429 380.122 79.1443C380.436 79.1456 380.745 79.064 381.017 78.9076C381.289 78.7513 381.515 78.5258 381.672 78.254C381.829 77.9822 381.911 77.6738 381.91 77.36V49.86C381.905 49.1715 381.717 48.4968 381.365 47.9048C381.014 47.3127 380.512 46.8245 379.91 46.49L357.68 33.63C357.409 33.4713 357.101 33.3871 356.788 33.3857C356.474 33.3844 356.165 33.466 355.893 33.6224C355.621 33.7787 355.395 34.0042 355.238 34.276C355.081 34.5478 354.999 34.8562 355 35.17V62.67C355.012 63.3516 355.204 64.0181 355.555 64.6025C355.906 65.187 356.404 65.6689 357 66Z" fill="#572B92"/>
<path opacity="0.6" d="M357 66L379.23 78.9C379.501 79.0587 379.809 79.1429 380.122 79.1443C380.436 79.1456 380.745 79.064 381.017 78.9076C381.289 78.7513 381.515 78.5258 381.672 78.254C381.829 77.9822 381.911 77.6738 381.91 77.36V49.86C381.905 49.1715 381.717 48.4968 381.365 47.9048C381.014 47.3127 380.512 46.8245 379.91 46.49L357.68 33.63C357.409 33.4713 357.101 33.3871 356.788 33.3857C356.474 33.3844 356.165 33.466 355.893 33.6224C355.621 33.7787 355.395 34.0042 355.238 34.276C355.081 34.5478 354.999 34.8562 355 35.17V62.67C355.012 63.3516 355.204 64.0181 355.555 64.6025C355.906 65.187 356.404 65.6689 357 66Z" fill="white"/>
<path d="M359.23 62L377.1 72.27C377.319 72.3991 377.569 72.4669 377.823 72.4665C378.077 72.4661 378.327 72.3974 378.546 72.2677C378.764 72.1379 378.944 71.9518 379.066 71.7288C379.188 71.5058 379.248 71.2541 379.24 71V50.4C379.24 49.8527 379.095 49.3151 378.822 48.8411C378.548 48.3672 378.154 47.9737 377.68 47.7L359.81 37.39C359.593 37.2657 359.347 37.2006 359.096 37.2013C358.846 37.202 358.6 37.2685 358.383 37.394C358.167 37.5195 357.987 37.6998 357.861 37.9167C357.736 38.1336 357.67 38.3796 357.67 38.63V59.26C357.663 59.8141 357.804 60.36 358.079 60.8416C358.353 61.3231 358.75 61.723 359.23 62Z" fill="#572B92"/>
<path opacity="0.4" d="M379.24 50.4V71C379.243 71.2516 379.179 71.4995 379.054 71.7182C378.93 71.9369 378.75 72.1186 378.532 72.2448C378.314 72.3709 378.067 72.437 377.815 72.4361C377.564 72.4353 377.317 72.3676 377.1 72.24L359.23 62C358.755 61.7295 358.361 61.3381 358.087 60.8655C357.813 60.393 357.669 59.8563 357.67 59.31V38.63C357.667 38.3784 357.731 38.1306 357.856 37.9118C357.98 37.6931 358.16 37.5114 358.378 37.3852C358.596 37.2591 358.843 37.193 359.095 37.1939C359.346 37.1947 359.593 37.2624 359.81 37.39L377.68 47.71C378.155 47.9805 378.549 48.3719 378.823 48.8445C379.097 49.317 379.241 49.8538 379.24 50.4Z" fill="white"/>
<path d="M379.24 70.27V71C379.243 71.2516 379.179 71.4994 379.054 71.7182C378.93 71.9369 378.75 72.1186 378.532 72.2448C378.314 72.3709 378.067 72.437 377.815 72.4361C377.564 72.4353 377.317 72.3676 377.1 72.24L359.23 62C358.755 61.7295 358.361 61.3381 358.087 60.8655C357.813 60.393 357.669 59.8562 357.67 59.31V57.31L362.35 53.31L367.87 61.17L373.26 54.76L379.24 70.27Z" fill="#FAFAFA"/>
<path d="M363.83 47.12C363.876 47.9544 364.117 48.7663 364.534 49.4906C364.951 50.2148 365.532 50.8312 366.23 51.29C367.56 52.06 368.64 51.44 368.64 49.9C368.593 49.0647 368.351 48.2522 367.932 47.5278C367.513 46.8035 366.93 46.1877 366.23 45.73C364.91 45 363.83 45.59 363.83 47.12Z" fill="#FAFAFA"/>
<path d="M440.618 193.326C451.896 186.815 451.896 165.701 440.619 146.168C429.341 126.634 411.056 116.078 399.778 122.589C388.5 129.1 388.499 150.214 399.777 169.748C411.055 189.281 429.34 199.837 440.618 193.326Z" fill="#572B92"/>
<path opacity="0.2" d="M440.618 193.326C451.896 186.815 451.896 165.701 440.619 146.168C429.341 126.634 411.056 116.078 399.778 122.589C388.5 129.1 388.499 150.214 399.777 169.748C411.055 189.281 429.34 199.837 440.618 193.326Z" fill="black"/>
<path d="M438.925 194.315C450.204 187.803 450.204 166.69 438.926 147.156C427.649 127.623 409.364 117.066 398.085 123.578C386.807 130.089 386.807 151.203 398.085 170.736C409.362 190.27 427.647 200.826 438.925 194.315Z" fill="#572B92"/>
<path d="M407.73 136.3C407.458 136.144 407.15 136.062 406.837 136.063C406.523 136.064 406.215 136.147 405.944 136.304C405.673 136.46 405.447 136.686 405.291 136.957C405.134 137.229 405.051 137.537 405.05 137.85V165.35C405.05 166.032 405.231 166.702 405.573 167.292C405.916 167.882 406.408 168.372 407 168.71L429.28 181.58C429.555 181.751 429.871 181.844 430.194 181.849C430.517 181.854 430.836 181.771 431.116 181.608C431.395 181.446 431.625 181.21 431.781 180.927C431.937 180.644 432.013 180.323 432 180V159.59L426 146.8L407.73 136.3Z" fill="#572B92"/>
<path opacity="0.6" d="M407.73 136.3C407.458 136.144 407.15 136.062 406.837 136.063C406.523 136.064 406.215 136.147 405.944 136.304C405.673 136.46 405.447 136.686 405.291 136.957C405.134 137.229 405.051 137.537 405.05 137.85V165.35C405.05 166.032 405.231 166.702 405.573 167.292C405.916 167.882 406.408 168.372 407 168.71L429.28 181.58C429.555 181.751 429.871 181.844 430.194 181.849C430.517 181.854 430.836 181.771 431.116 181.608C431.395 181.446 431.625 181.21 431.781 180.927C431.937 180.644 432.013 180.323 432 180V159.59L426 146.8L407.73 136.3Z" fill="white"/>
<path d="M425.13 151.48L425.91 146.8L431.91 159.6L426.46 155.11C425.94 154.675 425.543 154.11 425.309 153.473C425.076 152.836 425.014 152.149 425.13 151.48Z" fill="#572B92"/>
<path opacity="0.4" d="M425.13 151.48L425.91 146.8L431.91 159.6L426.46 155.11C425.94 154.675 425.543 154.11 425.309 153.473C425.076 152.836 425.014 152.149 425.13 151.48Z" fill="white"/>
<path d="M427.3 162.22C427.19 162.218 427.083 162.187 426.99 162.13L409.4 152C409.261 151.917 409.16 151.782 409.118 151.625C409.077 151.468 409.099 151.301 409.18 151.16C409.261 151.021 409.394 150.92 409.55 150.879C409.705 150.838 409.871 150.86 410.01 150.94L427.61 161.09C427.749 161.173 427.85 161.308 427.892 161.465C427.933 161.622 427.911 161.789 427.83 161.93C427.775 162.021 427.697 162.096 427.604 162.147C427.511 162.198 427.406 162.223 427.3 162.22Z" fill="#FAFAFA"/>
<path d="M427.3 168.18C427.192 168.177 427.086 168.15 426.99 168.1L409.4 157.94C409.261 157.857 409.16 157.722 409.118 157.565C409.077 157.408 409.099 157.241 409.18 157.1C409.261 156.961 409.394 156.86 409.55 156.819C409.705 156.778 409.871 156.8 410.01 156.88L427.61 167C427.749 167.083 427.85 167.218 427.892 167.375C427.933 167.532 427.911 167.699 427.83 167.84C427.782 167.94 427.707 168.025 427.613 168.085C427.52 168.145 427.411 168.178 427.3 168.18Z" fill="#FAFAFA"/>
<path d="M427.3 174.14C427.192 174.137 427.086 174.11 426.99 174.06L409.4 163.9C409.261 163.817 409.16 163.682 409.118 163.525C409.077 163.368 409.099 163.201 409.18 163.06C409.261 162.921 409.394 162.82 409.55 162.779C409.705 162.738 409.871 162.76 410.01 162.84L427.61 173C427.728 173.067 427.819 173.171 427.871 173.296C427.923 173.421 427.932 173.56 427.897 173.69C427.861 173.821 427.783 173.936 427.675 174.017C427.567 174.099 427.435 174.142 427.3 174.14Z" fill="#FAFAFA"/>
<path d="M336.134 133.936C347.464 127.424 347.506 106.238 336.228 86.615C324.951 66.9919 306.624 56.3627 295.294 62.8742C283.964 69.3856 283.922 90.5719 295.199 110.195C306.477 129.818 324.804 140.447 336.134 133.936Z" fill="#572B92"/>
<path opacity="0.2" d="M336.134 133.936C347.464 127.424 347.506 106.238 336.228 86.615C324.951 66.9919 306.624 56.3627 295.294 62.8742C283.964 69.3856 283.922 90.5719 295.199 110.195C306.477 129.818 324.804 140.447 336.134 133.936Z" fill="black"/>
<path d="M333.239 134.339C344.517 127.828 344.517 106.714 333.24 87.1807C321.962 67.6472 303.677 57.0907 292.399 63.6022C281.121 70.1136 281.12 91.2272 292.398 110.761C303.676 130.294 321.961 140.851 333.239 134.339Z" fill="#572B92"/>
<path d="M301.31 108.75L323.59 121.61C323.861 121.769 324.169 121.853 324.482 121.854C324.796 121.856 325.105 121.774 325.377 121.618C325.649 121.461 325.875 121.236 326.032 120.964C326.189 120.692 326.271 120.384 326.27 120.07V92.57C326.27 91.8865 326.089 91.2151 325.747 90.6235C325.405 90.0318 324.913 89.5409 324.32 89.2L302 76.34C301.73 76.1838 301.423 76.1016 301.11 76.1015C300.798 76.1014 300.491 76.1835 300.221 76.3396C299.95 76.4956 299.725 76.7201 299.569 76.9905C299.413 77.2609 299.33 77.5676 299.33 77.88V105.38C299.334 106.066 299.52 106.739 299.867 107.331C300.215 107.923 300.713 108.412 301.31 108.75Z" fill="#572B92"/>
<path opacity="0.6" d="M301.31 108.75L323.59 121.61C323.861 121.769 324.169 121.853 324.482 121.854C324.796 121.856 325.105 121.774 325.377 121.618C325.649 121.461 325.875 121.236 326.032 120.964C326.189 120.692 326.271 120.384 326.27 120.07V92.57C326.27 91.8865 326.089 91.2151 325.747 90.6235C325.405 90.0318 324.913 89.5409 324.32 89.2L302 76.34C301.73 76.1838 301.423 76.1016 301.11 76.1015C300.798 76.1014 300.491 76.1835 300.221 76.3396C299.95 76.4956 299.725 76.7201 299.569 76.9905C299.413 77.2609 299.33 77.5676 299.33 77.88V105.38C299.334 106.066 299.52 106.739 299.867 107.331C300.215 107.923 300.713 108.412 301.31 108.75Z" fill="white"/>
<path d="M307.38 94.31V103.64C307.38 104.009 307.526 104.362 307.787 104.623C308.048 104.884 308.401 105.03 308.77 105.03H316.86C317.126 105.03 317.387 104.953 317.611 104.809C317.835 104.665 318.013 104.46 318.124 104.217C318.234 103.975 318.273 103.706 318.235 103.442C318.197 103.179 318.084 102.931 317.91 102.73L309.82 93.4C309.634 93.186 309.388 93.0339 309.113 92.9639C308.839 92.8939 308.55 92.9095 308.284 93.0084C308.019 93.1074 307.79 93.2851 307.628 93.5177C307.467 93.7503 307.38 94.0267 307.38 94.31Z" fill="#FAFAFA"/>
<path d="M370.15 95.52C369.962 95.52 369.781 95.4452 369.648 95.312C369.515 95.1789 369.44 94.9983 369.44 94.81V92.92C369.44 92.7317 369.515 92.5511 369.648 92.4179C369.781 92.2848 369.962 92.21 370.15 92.21C370.243 92.21 370.335 92.2284 370.42 92.2642C370.506 92.3 370.583 92.3525 370.648 92.4185C370.714 92.4846 370.765 92.563 370.8 92.649C370.834 92.7351 370.851 92.8272 370.85 92.92V94.81C370.851 94.9028 370.834 94.9949 370.8 95.0809C370.765 95.167 370.714 95.2454 370.648 95.3114C370.583 95.3775 370.506 95.43 370.42 95.4658C370.335 95.5016 370.243 95.52 370.15 95.52Z" fill="#572B92"/>
<path d="M370.15 201.3C369.962 201.3 369.781 201.225 369.648 201.092C369.515 200.959 369.44 200.778 369.44 200.59V196.81C369.44 196.622 369.515 196.441 369.648 196.308C369.781 196.175 369.962 196.1 370.15 196.1C370.243 196.1 370.335 196.118 370.42 196.154C370.506 196.19 370.583 196.242 370.648 196.309C370.714 196.375 370.765 196.453 370.8 196.539C370.834 196.625 370.851 196.717 370.85 196.81V200.59C370.851 200.683 370.834 200.775 370.8 200.861C370.765 200.947 370.714 201.025 370.648 201.091C370.583 201.158 370.506 201.21 370.42 201.246C370.335 201.282 370.243 201.3 370.15 201.3ZM370.15 193.74C369.962 193.74 369.781 193.665 369.648 193.532C369.515 193.399 369.44 193.218 369.44 193.03V189.26C369.44 189.072 369.515 188.891 369.648 188.758C369.781 188.625 369.962 188.55 370.15 188.55C370.243 188.55 370.335 188.568 370.42 188.604C370.506 188.64 370.583 188.692 370.648 188.759C370.714 188.825 370.765 188.903 370.8 188.989C370.834 189.075 370.851 189.167 370.85 189.26V193C370.855 193.095 370.841 193.191 370.809 193.28C370.776 193.37 370.725 193.452 370.66 193.521C370.594 193.59 370.515 193.646 370.427 193.683C370.34 193.721 370.245 193.74 370.15 193.74ZM370.15 186.19C369.962 186.19 369.781 186.115 369.648 185.982C369.515 185.849 369.44 185.668 369.44 185.48V181.7C369.44 181.512 369.515 181.331 369.648 181.198C369.781 181.065 369.962 180.99 370.15 180.99C370.243 180.99 370.335 181.008 370.42 181.044C370.506 181.08 370.583 181.132 370.648 181.199C370.714 181.265 370.765 181.343 370.8 181.429C370.834 181.515 370.851 181.607 370.85 181.7V185.48C370.851 185.573 370.834 185.665 370.8 185.751C370.765 185.837 370.714 185.915 370.648 185.981C370.583 186.048 370.506 186.1 370.42 186.136C370.335 186.172 370.243 186.19 370.15 186.19ZM370.15 178.63C369.962 178.63 369.781 178.555 369.648 178.422C369.515 178.289 369.44 178.108 369.44 177.92V174.14C369.44 174.047 369.458 173.955 369.494 173.87C369.53 173.784 369.582 173.707 369.648 173.641C369.715 173.576 369.793 173.525 369.879 173.49C369.965 173.456 370.057 173.439 370.15 173.44C370.336 173.44 370.514 173.514 370.645 173.645C370.776 173.776 370.85 173.954 370.85 174.14V177.92C370.851 178.013 370.834 178.105 370.8 178.191C370.765 178.277 370.714 178.355 370.648 178.421C370.583 178.488 370.506 178.54 370.42 178.576C370.335 178.612 370.243 178.63 370.15 178.63ZM370.15 171.08C369.962 171.08 369.781 171.005 369.648 170.872C369.515 170.739 369.44 170.558 369.44 170.37V166.59C369.44 166.402 369.515 166.221 369.648 166.088C369.781 165.955 369.962 165.88 370.15 165.88C370.243 165.88 370.335 165.898 370.42 165.934C370.506 165.97 370.583 166.022 370.648 166.089C370.714 166.155 370.765 166.233 370.8 166.319C370.834 166.405 370.851 166.497 370.85 166.59V170.37C370.851 170.463 370.834 170.555 370.8 170.641C370.765 170.727 370.714 170.805 370.648 170.871C370.583 170.938 370.506 170.99 370.42 171.026C370.335 171.062 370.243 171.08 370.15 171.08ZM370.15 163.52C369.962 163.52 369.781 163.445 369.648 163.312C369.515 163.179 369.44 162.998 369.44 162.81V159C369.44 158.812 369.515 158.631 369.648 158.498C369.781 158.365 369.962 158.29 370.15 158.29C370.243 158.29 370.335 158.308 370.42 158.344C370.506 158.38 370.583 158.432 370.648 158.499C370.714 158.565 370.765 158.643 370.8 158.729C370.834 158.815 370.851 158.907 370.85 159V162.78C370.855 162.875 370.841 162.971 370.809 163.06C370.776 163.15 370.725 163.232 370.66 163.301C370.594 163.37 370.515 163.426 370.427 163.463C370.34 163.501 370.245 163.52 370.15 163.52ZM370.15 155.96C370.057 155.961 369.965 155.944 369.879 155.91C369.793 155.875 369.715 155.824 369.648 155.759C369.582 155.693 369.53 155.616 369.494 155.53C369.458 155.445 369.44 155.353 369.44 155.26V151.48C369.44 151.292 369.515 151.111 369.648 150.978C369.781 150.845 369.962 150.77 370.15 150.77C370.243 150.77 370.335 150.788 370.42 150.824C370.506 150.86 370.583 150.912 370.648 150.979C370.714 151.045 370.765 151.123 370.8 151.209C370.834 151.295 370.851 151.387 370.85 151.48V155.26C370.855 155.355 370.841 155.451 370.809 155.54C370.776 155.63 370.725 155.712 370.66 155.781C370.594 155.85 370.515 155.906 370.427 155.943C370.34 155.981 370.245 156 370.15 156V155.96ZM370.15 148.41C369.962 148.41 369.781 148.335 369.648 148.202C369.515 148.069 369.44 147.888 369.44 147.7V143.92C369.44 143.732 369.515 143.551 369.648 143.418C369.781 143.285 369.962 143.21 370.15 143.21C370.243 143.21 370.335 143.228 370.42 143.264C370.506 143.3 370.583 143.352 370.648 143.419C370.714 143.485 370.765 143.563 370.8 143.649C370.834 143.735 370.851 143.827 370.85 143.92V147.7C370.851 147.793 370.834 147.885 370.8 147.971C370.765 148.057 370.714 148.135 370.648 148.201C370.583 148.268 370.506 148.32 370.42 148.356C370.335 148.392 370.243 148.41 370.15 148.41ZM370.15 140.85C370.057 140.85 369.964 140.832 369.878 140.796C369.792 140.76 369.714 140.708 369.648 140.642C369.582 140.576 369.53 140.498 369.494 140.412C369.458 140.326 369.44 140.233 369.44 140.14V136.37C369.44 136.182 369.515 136.001 369.648 135.868C369.781 135.735 369.962 135.66 370.15 135.66C370.243 135.66 370.335 135.678 370.42 135.714C370.506 135.75 370.583 135.802 370.648 135.869C370.714 135.935 370.765 136.013 370.8 136.099C370.834 136.185 370.851 136.277 370.85 136.37V140.14C370.851 140.233 370.834 140.325 370.8 140.411C370.765 140.497 370.714 140.575 370.648 140.641C370.583 140.708 370.506 140.76 370.42 140.796C370.335 140.832 370.243 140.85 370.15 140.85ZM370.15 133.3C369.962 133.3 369.781 133.225 369.648 133.092C369.515 132.959 369.44 132.778 369.44 132.59V128.81C369.44 128.622 369.515 128.441 369.648 128.308C369.781 128.175 369.962 128.1 370.15 128.1C370.243 128.1 370.335 128.118 370.42 128.154C370.506 128.19 370.583 128.242 370.648 128.309C370.714 128.375 370.765 128.453 370.8 128.539C370.834 128.625 370.851 128.717 370.85 128.81V132.59C370.851 132.683 370.834 132.775 370.8 132.861C370.765 132.947 370.714 133.025 370.648 133.091C370.583 133.158 370.506 133.21 370.42 133.246C370.335 133.282 370.243 133.3 370.15 133.3ZM370.15 125.74C369.962 125.74 369.781 125.665 369.648 125.532C369.515 125.399 369.44 125.218 369.44 125.03V121.25C369.44 121.157 369.458 121.065 369.494 120.98C369.53 120.894 369.582 120.817 369.648 120.751C369.715 120.686 369.793 120.635 369.879 120.6C369.965 120.566 370.057 120.549 370.15 120.55C370.336 120.55 370.514 120.624 370.645 120.755C370.776 120.886 370.85 121.064 370.85 121.25V125C370.855 125.095 370.841 125.191 370.809 125.28C370.776 125.37 370.725 125.452 370.66 125.521C370.594 125.59 370.515 125.646 370.427 125.683C370.34 125.721 370.245 125.74 370.15 125.74ZM370.15 118.19C369.962 118.19 369.781 118.115 369.648 117.982C369.515 117.849 369.44 117.668 369.44 117.48V113.7C369.44 113.512 369.515 113.331 369.648 113.198C369.781 113.065 369.962 112.99 370.15 112.99C370.243 112.99 370.335 113.008 370.42 113.044C370.506 113.08 370.583 113.132 370.648 113.199C370.714 113.265 370.765 113.343 370.8 113.429C370.834 113.515 370.851 113.607 370.85 113.7V117.48C370.851 117.573 370.834 117.665 370.8 117.751C370.765 117.837 370.714 117.915 370.648 117.981C370.583 118.048 370.506 118.1 370.42 118.136C370.335 118.172 370.243 118.19 370.15 118.19ZM370.15 110.63C369.962 110.63 369.781 110.555 369.648 110.422C369.515 110.289 369.44 110.108 369.44 109.92V106.14C369.44 105.952 369.515 105.771 369.648 105.638C369.781 105.505 369.962 105.43 370.15 105.43C370.243 105.43 370.335 105.448 370.42 105.484C370.506 105.52 370.583 105.572 370.648 105.639C370.714 105.705 370.765 105.783 370.8 105.869C370.834 105.955 370.851 106.047 370.85 106.14V109.92C370.851 110.013 370.834 110.105 370.8 110.191C370.765 110.277 370.714 110.355 370.648 110.421C370.583 110.488 370.506 110.54 370.42 110.576C370.335 110.612 370.243 110.63 370.15 110.63ZM370.15 103.07C370.057 103.071 369.965 103.054 369.879 103.02C369.793 102.985 369.715 102.934 369.648 102.869C369.582 102.803 369.53 102.726 369.494 102.64C369.458 102.555 369.44 102.463 369.44 102.37V98.59C369.44 98.4017 369.515 98.2211 369.648 98.088C369.781 97.9548 369.962 97.88 370.15 97.88C370.243 97.88 370.335 97.8984 370.42 97.9342C370.506 97.97 370.583 98.0225 370.648 98.0886C370.714 98.1546 370.765 98.233 370.8 98.3191C370.834 98.4051 370.851 98.4972 370.85 98.59V102.37C370.85 102.462 370.832 102.553 370.797 102.638C370.761 102.723 370.71 102.8 370.645 102.865C370.58 102.93 370.503 102.982 370.418 103.017C370.333 103.052 370.242 103.07 370.15 103.07Z" fill="#572B92"/>
<path d="M370.15 207C370.057 207.001 369.965 206.984 369.879 206.95C369.793 206.915 369.715 206.864 369.648 206.799C369.582 206.733 369.53 206.656 369.494 206.57C369.458 206.485 369.44 206.393 369.44 206.3V204.41C369.44 204.222 369.515 204.041 369.648 203.908C369.781 203.775 369.962 203.7 370.15 203.7C370.243 203.7 370.335 203.718 370.42 203.754C370.506 203.79 370.583 203.842 370.648 203.909C370.714 203.975 370.765 204.053 370.8 204.139C370.834 204.225 370.851 204.317 370.85 204.41V206.3C370.85 206.486 370.776 206.664 370.645 206.795C370.514 206.926 370.336 207 370.15 207Z" fill="#572B92"/>
<path d="M388 160.49C387.869 160.492 387.74 160.456 387.628 160.387C387.516 160.318 387.427 160.218 387.37 160.1C387.327 160.017 387.302 159.926 387.295 159.833C387.288 159.74 387.3 159.646 387.33 159.558C387.359 159.469 387.407 159.387 387.469 159.317C387.53 159.247 387.606 159.19 387.69 159.15L389.38 158.31C389.463 158.269 389.553 158.244 389.645 158.237C389.737 158.231 389.83 158.243 389.918 158.272C390.005 158.301 390.086 158.347 390.156 158.408C390.226 158.468 390.284 158.542 390.325 158.625C390.366 158.708 390.391 158.798 390.397 158.89C390.404 158.982 390.392 159.075 390.363 159.163C390.334 159.25 390.288 159.332 390.227 159.401C390.166 159.471 390.093 159.529 390.01 159.57L388.32 160.42C388.22 160.468 388.111 160.492 388 160.49Z" fill="#572B92"/>
<path d="M379.68 164.63C379.549 164.632 379.42 164.596 379.308 164.527C379.197 164.458 379.107 164.358 379.05 164.24C378.999 164.155 378.967 164.06 378.956 163.961C378.944 163.862 378.954 163.762 378.984 163.668C379.015 163.573 379.065 163.486 379.131 163.412C379.198 163.339 379.279 163.28 379.37 163.24L383.53 161.17C383.616 161.121 383.711 161.09 383.809 161.079C383.907 161.069 384.007 161.079 384.101 161.109C384.195 161.139 384.282 161.189 384.356 161.254C384.43 161.32 384.489 161.4 384.53 161.49C384.579 161.576 384.61 161.671 384.621 161.769C384.631 161.867 384.621 161.967 384.591 162.061C384.561 162.155 384.512 162.242 384.446 162.316C384.38 162.389 384.3 162.449 384.21 162.49L380 164.56C379.9 164.608 379.791 164.632 379.68 164.63Z" fill="#572B92"/>
<path d="M373.83 167.54C373.699 167.542 373.57 167.506 373.458 167.437C373.347 167.368 373.257 167.268 373.2 167.15C373.149 167.065 373.117 166.97 373.106 166.871C373.094 166.772 373.104 166.672 373.134 166.578C373.165 166.483 373.215 166.396 373.281 166.322C373.348 166.249 373.429 166.19 373.52 166.15L375.21 165.31C375.296 165.261 375.391 165.23 375.489 165.219C375.587 165.209 375.687 165.219 375.781 165.249C375.875 165.279 375.962 165.329 376.036 165.394C376.11 165.46 376.169 165.54 376.21 165.63C376.293 165.798 376.306 165.993 376.246 166.171C376.186 166.349 376.058 166.496 375.89 166.58L374.2 167.42C374.09 167.494 373.962 167.535 373.83 167.54Z" fill="#572B92"/>
<path d="M347.65 116.3C347.529 116.301 347.41 116.27 347.305 116.21C347.199 116.151 347.111 116.064 347.05 115.96L346.05 114.34C345.996 114.26 345.959 114.17 345.941 114.076C345.923 113.981 345.925 113.884 345.947 113.79C345.969 113.696 346.009 113.608 346.067 113.53C346.124 113.453 346.197 113.388 346.28 113.34C346.361 113.289 346.452 113.255 346.546 113.24C346.641 113.224 346.737 113.228 346.831 113.25C346.924 113.272 347.011 113.313 347.089 113.37C347.166 113.426 347.231 113.498 347.28 113.58L348.28 115.2C348.347 115.307 348.383 115.43 348.386 115.557C348.388 115.683 348.357 115.807 348.294 115.917C348.232 116.027 348.141 116.117 348.031 116.179C347.921 116.242 347.796 116.273 347.67 116.27L347.65 116.3Z" fill="#572B92"/>
<path d="M363.17 141.91C363.048 141.911 362.927 141.88 362.821 141.82C362.714 141.761 362.624 141.674 362.56 141.57L360.62 138.37C360.566 138.291 360.529 138.201 360.51 138.107C360.492 138.012 360.493 137.915 360.513 137.821C360.534 137.727 360.573 137.638 360.628 137.56C360.684 137.481 360.755 137.415 360.837 137.365C360.919 137.315 361.01 137.282 361.105 137.268C361.201 137.254 361.297 137.26 361.39 137.285C361.483 137.31 361.57 137.353 361.646 137.412C361.721 137.472 361.784 137.546 361.83 137.63L363.77 140.83C363.821 140.911 363.855 141.002 363.871 141.096C363.886 141.191 363.883 141.287 363.86 141.38C363.838 141.474 363.797 141.561 363.741 141.638C363.684 141.716 363.612 141.781 363.53 141.83C363.42 141.889 363.295 141.917 363.17 141.91ZM359.29 135.51C359.168 135.511 359.047 135.48 358.941 135.42C358.834 135.361 358.744 135.274 358.68 135.17L356.74 131.97C356.689 131.889 356.655 131.798 356.64 131.704C356.624 131.609 356.628 131.513 356.65 131.42C356.673 131.326 356.713 131.239 356.77 131.162C356.827 131.084 356.898 131.019 356.98 130.97C357.061 130.918 357.152 130.882 357.246 130.866C357.341 130.85 357.438 130.853 357.532 130.876C357.625 130.898 357.713 130.939 357.79 130.997C357.867 131.054 357.932 131.127 357.98 131.21L359.92 134.41C359.983 134.518 360.016 134.64 360.017 134.764C360.018 134.889 359.987 135.011 359.926 135.12C359.866 135.229 359.778 135.32 359.672 135.385C359.566 135.45 359.445 135.486 359.32 135.49L359.29 135.51ZM355.41 129.11C355.287 129.108 355.167 129.074 355.06 129.013C354.954 128.952 354.864 128.865 354.8 128.76L352.86 125.56C352.784 125.401 352.771 125.219 352.821 125.05C352.872 124.882 352.984 124.738 353.134 124.647C353.285 124.556 353.465 124.524 353.638 124.558C353.811 124.592 353.965 124.689 354.07 124.83L356 128C356.054 128.08 356.091 128.17 356.109 128.264C356.127 128.359 356.125 128.456 356.103 128.55C356.082 128.644 356.041 128.732 355.984 128.81C355.926 128.887 355.854 128.952 355.77 129C355.662 129.067 355.538 129.105 355.41 129.11ZM351.53 122.7C351.408 122.7 351.288 122.668 351.181 122.609C351.075 122.549 350.985 122.464 350.92 122.36L348.98 119.16C348.932 119.08 348.901 118.991 348.887 118.899C348.873 118.806 348.878 118.712 348.901 118.622C348.924 118.531 348.964 118.446 349.02 118.371C349.075 118.296 349.145 118.233 349.225 118.185C349.305 118.137 349.394 118.105 349.486 118.092C349.579 118.078 349.673 118.083 349.764 118.106C349.854 118.128 349.939 118.169 350.014 118.224C350.089 118.28 350.152 118.35 350.2 118.43L352.14 121.63C352.207 121.737 352.244 121.86 352.246 121.987C352.248 122.113 352.217 122.237 352.154 122.347C352.092 122.457 352.001 122.547 351.891 122.609C351.781 122.672 351.656 122.703 351.53 122.7Z" fill="#572B92"/>
<path d="M366.08 146.73C365.958 146.729 365.839 146.696 365.734 146.635C365.628 146.573 365.541 146.486 365.48 146.38L364.48 144.77C364.393 144.61 364.37 144.422 364.417 144.246C364.464 144.07 364.577 143.919 364.733 143.824C364.888 143.728 365.074 143.697 365.253 143.735C365.431 143.774 365.588 143.879 365.69 144.03L366.69 145.65C366.744 145.73 366.78 145.821 366.797 145.916C366.814 146.011 366.812 146.109 366.789 146.203C366.766 146.296 366.725 146.385 366.666 146.462C366.608 146.539 366.534 146.603 366.45 146.65C366.337 146.71 366.209 146.738 366.08 146.73Z" fill="#572B92"/>
<path d="M160.62 253.49L115.76 280.02V304.81L92.3398 317.93V331.26L135.8 356.47L204.07 318.16V278.7L160.62 253.49Z" fill="#263238"/>
<path d="M92.3398 317.93L135.8 343.14V356.47L92.3398 331.26V317.93Z" fill="#455A64"/>
<path d="M159.21 305.24V330.03L135.8 343.14V356.47L204.07 318.16V278.7L159.21 305.24Z" fill="#263238"/>
<path d="M135.8 343.14L159.21 330.03L115.76 304.81L92.3398 317.93L135.8 343.14Z" fill="#37474F"/>
<path d="M159.21 330.03V305.24L115.76 280.02V304.81L159.21 330.03Z" fill="#455A64"/>
<path d="M159.21 305.24L115.76 280.02L160.62 253.49L204.07 278.7L159.21 305.24Z" fill="#37474F"/>
<path d="M171.52 188.37C171.52 188.37 160.82 203.37 167.18 208.56C173.54 213.75 187.49 209.56 188.05 207.09C188.61 204.62 171.52 188.37 171.52 188.37Z" fill="#263238"/>
<path d="M123.72 319.65L108 340.57L112.37 344.02C112.37 344.02 118.67 342.7 120.9 334.38C122.207 329.547 123.15 324.624 123.72 319.65Z" fill="#FFA8A7"/>
<path d="M125.14 318.23C125.14 318.23 129.51 322.23 127.58 325.74C125.65 329.25 122.3 332.14 122.2 336.81C122.1 341.48 119.76 349.81 114.58 351.13C109.4 352.45 104.33 350.65 104.43 348.81C104.53 346.97 108 340.57 108 340.57C108 340.57 112.76 343.52 116.27 340.67C119.78 337.82 120.59 325.85 120.59 325.85L125.14 318.23Z" fill="#572B92"/>
<path opacity="0.2" d="M125.14 318.23C125.14 318.23 129.51 322.23 127.58 325.74C125.65 329.25 122.3 332.14 122.2 336.81C122.1 341.48 119.76 349.81 114.58 351.13C109.4 352.45 104.33 350.65 104.43 348.81C104.53 346.97 108 340.57 108 340.57C108 340.57 112.76 343.52 116.27 340.67C119.78 337.82 120.59 325.85 120.59 325.85L125.14 318.23Z" fill="black"/>
<path d="M152 253.47C152 253.47 116.94 268.3 114.1 269.76C111.26 271.22 106.28 273.76 106.78 285.19C107.28 296.62 110.15 324.93 110.15 324.93L129.37 287.93L179 264.34L152 253.47Z" fill="#572B92"/>
<path opacity="0.5" d="M152 253.47C152 253.47 116.94 268.3 114.1 269.76C111.26 271.22 106.28 273.76 106.78 285.19C107.28 296.62 110.15 324.93 110.15 324.93L129.37 287.93L179 264.34L152 253.47Z" fill="black"/>
<path d="M108.72 310.28C109.46 318.36 110.13 324.93 110.13 324.93L129.35 287.93L164.74 271.08L156.74 264.79C145.43 270.47 129 278.71 124.09 281.23C117.85 284.43 115.92 293.48 110.54 306.05C109.93 307.43 109.33 308.83 108.72 310.28Z" fill="#572B92"/>
<path opacity="0.7" d="M108.72 310.28C109.46 318.36 110.13 324.93 110.13 324.93L129.35 287.93L164.74 271.08L156.74 264.79C145.43 270.47 129 278.71 124.09 281.23C117.85 284.43 115.92 293.48 110.54 306.05C109.93 307.43 109.33 308.83 108.72 310.28Z" fill="black"/>
<path d="M154.89 261.03L158.51 266.5L155.68 266.93L154.89 261.03Z" fill="#572B92"/>
<path opacity="0.7" d="M154.89 261.03L158.51 266.5L155.68 266.93L154.89 261.03Z" fill="black"/>
<path d="M108.19 348.81C108.19 348.81 108.69 349.65 108.69 353.88C108.69 358.11 107 359 104.91 359.71C102.82 360.42 96.61 364.97 94.91 366.95C93.21 368.93 86.35 370.95 79.57 369.77C72.79 368.59 71.36 364.11 74.62 361.24C77.88 358.37 87.17 353.14 87.17 353.14L108.19 348.81Z" fill="#572B92"/>
<path d="M189.37 262.23L174.29 258.74C174.29 258.74 132.4 279.74 126.16 282.94C119.92 286.14 118 295.2 112.6 307.77C108.6 317.23 103.27 330.21 99.7803 338.01C99.7803 338.01 102.26 344.59 110.12 342.94C112.78 337.13 117.48 331.94 124.32 322.7C128.709 316.993 131.826 310.412 133.46 303.4C133.72 302.152 134.328 301.003 135.212 300.084C136.097 299.166 137.223 298.516 138.46 298.21C145.37 296.53 159.46 292.88 174.34 287.76C195.31 280.54 189.37 262.23 189.37 262.23Z" fill="#572B92"/>
<path opacity="0.5" d="M189.37 262.23L174.29 258.74C174.29 258.74 132.4 279.74 126.16 282.94C119.92 286.14 118 295.2 112.6 307.77C108.6 317.23 103.27 330.21 99.7803 338.01C99.7803 338.01 102.26 344.59 110.12 342.94C112.78 337.13 117.48 331.94 124.32 322.7C128.709 316.993 131.826 310.412 133.46 303.4C133.72 302.152 134.328 301.003 135.212 300.084C136.097 299.166 137.223 298.516 138.46 298.21C145.37 296.53 159.46 292.88 174.34 287.76C195.31 280.54 189.37 262.23 189.37 262.23Z" fill="black"/>
<path d="M99.7802 338C98.6302 340.57 97.6802 342.58 97.0302 343.71C94.4002 348.28 86.7302 353.23 84.0302 355.57C81.3302 357.91 80.7602 358.79 83.3402 360.77C89.8702 365.77 95.5302 360.31 99.1902 356.77C101.634 354.527 104.317 352.558 107.19 350.9C107.397 350.786 107.576 350.629 107.716 350.439C107.856 350.249 107.953 350.031 108 349.8C108.406 347.43 109.122 345.123 110.13 342.94C102.26 344.59 99.7802 338 99.7802 338Z" fill="#FFA8A7"/>
<path d="M173.38 276.55L147.01 291.77L103.16 266.42L129.53 250.88L173.38 276.55Z" fill="#37474F"/>
<path d="M149.84 272.21L139.95 266.5L146.15 262.92L156.05 268.63L149.84 272.21Z" fill="#263238"/>
<path d="M145.88 287.97L159.21 280.12L133.17 264.36L145.88 287.97Z" fill="#263238"/>
<path d="M146.66 240.92L136.11 245.92C132.959 246.717 129.851 247.679 126.8 248.8C126.8 248.8 119.46 251.8 119.12 253.8C118.78 255.8 124.63 260.51 129.76 258.2C131.113 257.49 132.556 256.968 134.05 256.65C137.169 256.353 140.117 255.087 142.48 253.03L151.01 250.69C151.01 250.69 155.41 242.15 146.66 240.92Z" fill="#FFA8A7"/>
<path d="M139.83 255.64C138.61 256.95 135.13 260.25 134.37 261.2C133.61 262.15 131.81 259.7 134.96 256.05C137.682 255.049 140.243 253.655 142.56 251.91C141.748 253.222 140.835 254.469 139.83 255.64Z" fill="#FFA8A7"/>
<path d="M168.25 204.24C165.826 203.853 163.344 204.339 161.245 205.612C159.146 206.885 157.567 208.862 156.79 211.19C155.672 214.551 154.95 218.031 154.64 221.56C153.73 232.42 153.48 237.85 153.48 237.85L142.56 242.85C142.56 242.85 148.46 243.13 148.06 251.45L161.65 248L168.25 204.24Z" fill="#572B92"/>
<path opacity="0.3" d="M168.25 204.24C165.826 203.853 163.344 204.339 161.245 205.612C159.146 206.885 157.567 208.862 156.79 211.19C155.672 214.551 154.95 218.031 154.64 221.56C153.73 232.42 153.48 237.85 153.48 237.85L142.56 242.85C142.56 242.85 148.41 243.13 148.06 251.45L161.65 248L168.25 204.24Z" fill="white"/>
<path d="M153.48 237.85C154.706 238.232 155.814 238.92 156.7 239.85C156.7 239.85 155.38 237.35 153.54 236.58L153.48 237.85Z" fill="#572B92"/>
<path opacity="0.1" d="M153.48 237.85C154.706 238.232 155.814 238.92 156.7 239.85C156.7 239.85 155.38 237.35 153.54 236.58L153.48 237.85Z" fill="white"/>
<path d="M163.47 179.58C163.47 179.58 156.73 177.58 159.16 169.97C161.59 162.36 178.78 159.1 191.72 169.97C191.72 169.97 200.8 168.57 200.8 181.25C200.8 193.93 195.72 199.72 203.54 203.02C203.54 203.02 198.77 207.54 194.91 203.02C194.91 203.02 194.1 212.92 179.47 209.47L163.47 179.58Z" fill="#263238"/>
<path d="M185.47 208.56L193.13 211.82V234.28C190.732 240.028 189.433 246.174 189.3 252.4V263.52C189.3 263.52 173.64 269.1 161.5 263.06C155.62 260.14 151.98 253.47 151.98 253.47C151.98 253.47 158.45 249.66 158.45 245.01C158.324 241.377 157.893 237.761 157.16 234.2C155.744 232.793 154.671 231.079 154.024 229.19C153.377 227.302 153.174 225.29 153.43 223.31C154.29 215.89 168.25 204.24 168.25 204.24L173.45 204.95L185.47 208.56Z" fill="#572B92"/>
<path d="M185.47 208.56L173.45 204.95V190.4H185.47V208.56Z" fill="#FFA8A7"/>
<path d="M173.45 205C175.899 204.085 178.136 202.683 180.027 200.878C181.917 199.073 183.422 196.903 184.45 194.5V190.5H173.45V205Z" fill="#F28F8F"/>
<path d="M170.65 170.69C170.65 170.69 159.65 171.33 161.01 190.14C161.64 198.83 163.67 203.33 170.37 203C177.95 202.63 188.72 197.42 188.02 182.54C187.32 167.66 170.65 170.69 170.65 170.69Z" fill="#FFA8A7"/>
<path d="M185.47 190.4C185.47 190.4 182.47 191.2 182.47 186.88C182.47 186.88 169.07 185.97 166.11 172.67C166.11 172.67 167.43 168.67 175.8 168.67C184.17 168.67 191.19 176.06 189.01 186.23L185.47 190.4Z" fill="#263238"/>
<path d="M169.07 186.36V192.83L165.28 191.67L169.07 186.36Z" fill="#F28F8F"/>
<path d="M174.76 187.05C174.76 187.311 174.682 187.567 174.537 187.784C174.391 188.002 174.185 188.171 173.943 188.27C173.701 188.37 173.435 188.396 173.179 188.344C172.923 188.292 172.687 188.165 172.503 187.98C172.319 187.794 172.194 187.558 172.144 187.301C172.094 187.045 172.122 186.779 172.223 186.538C172.325 186.297 172.496 186.091 172.714 185.948C172.932 185.804 173.189 185.728 173.45 185.73C173.623 185.73 173.794 185.764 173.954 185.831C174.113 185.897 174.258 185.995 174.38 186.117C174.502 186.24 174.598 186.386 174.663 186.546C174.729 186.706 174.761 186.877 174.76 187.05Z" fill="#263238"/>
<path d="M166.1 186.13C166.102 186.392 166.026 186.648 165.882 186.867C165.737 187.086 165.531 187.256 165.29 187.358C165.048 187.459 164.782 187.486 164.525 187.435C164.268 187.384 164.032 187.259 163.847 187.073C163.661 186.888 163.535 186.652 163.485 186.395C163.434 186.138 163.461 185.872 163.562 185.63C163.664 185.389 163.834 185.183 164.053 185.038C164.271 184.894 164.528 184.818 164.79 184.82C165.137 184.823 165.468 184.961 165.713 185.207C165.958 185.452 166.097 185.783 166.1 186.13Z" fill="#263238"/>
<path d="M163.18 183.39L165.76 181.86C165.76 181.86 164.76 180.86 163.76 181.45C163.48 181.678 163.275 181.985 163.172 182.331C163.068 182.677 163.071 183.046 163.18 183.39Z" fill="#263238"/>
<path d="M169.4 195C170.901 195.108 172.395 194.706 173.64 193.86C173.64 193.86 173.93 196.1 172.06 196.52C171.509 196.614 170.943 196.514 170.457 196.237C169.972 195.96 169.598 195.522 169.4 195Z" fill="#F28F8F"/>
<path d="M184.41 190.89C184.364 189.796 184.566 188.705 185 187.7C185.21 187.073 185.6 186.521 186.121 186.114C186.642 185.707 187.271 185.462 187.93 185.41C191.3 185.32 191.76 188.57 191.71 189.73C191.59 192.73 189.13 196.05 184.55 196.18L184.41 190.89Z" fill="#FFA8A7"/>
<path d="M173.45 205L169.9 209.61C169.501 210.129 169.221 210.729 169.078 211.367C168.936 212.006 168.934 212.668 169.074 213.307C169.214 213.946 169.492 214.547 169.889 215.067C170.285 215.588 170.791 216.015 171.37 216.32C172.944 217.143 174.755 217.394 176.494 217.029C178.232 216.664 179.79 215.707 180.9 214.32L185.47 208.61L173.45 205Z" fill="#FFA8A7"/>
<path d="M173.38 260.4L163.38 265.87C161.842 265.756 160.298 265.756 158.76 265.87C156.98 266.09 152.26 266.95 151.04 267C149.82 267.05 150.99 269.33 154.19 269.13C154.19 269.13 146.98 272.43 146.72 274.41C146.46 276.39 152.5 280.89 157.54 278.41C158.856 277.643 160.273 277.064 161.75 276.69C164.859 276.249 167.753 274.851 170.03 272.69L178.46 269.99C178.46 269.99 182.16 261.26 173.38 260.4Z" fill="#FFA8A7"/>
<path d="M193.13 211.82C193.13 211.82 187 216 188.05 229C188.661 236.865 188.661 244.765 188.05 252.63L173.37 260.4C174.945 261.447 176.229 262.875 177.103 264.552C177.977 266.229 178.413 268.1 178.37 269.99C178.37 269.99 199.45 265.65 200.71 260.74C201.97 255.83 202.43 232.34 202.43 228.26C202.43 224.18 200.79 215.08 193.13 211.82Z" fill="#572B92"/>
<path opacity="0.3" d="M193.13 211.82C193.13 211.82 187 216 188.05 229C188.661 236.865 188.661 244.765 188.05 252.63L173.37 260.4C174.945 261.447 176.229 262.875 177.103 264.552C177.977 266.229 178.413 268.1 178.37 269.99C178.37 269.99 199.45 265.65 200.71 260.74C201.97 255.83 202.43 232.34 202.43 228.26C202.43 224.18 200.79 215.08 193.13 211.82Z" fill="white"/>
<path d="M188.06 252.63C189.675 252.596 191.281 252.889 192.78 253.49C191.431 252.442 189.838 251.754 188.15 251.49L188.06 252.63Z" fill="#572B92"/>
<path opacity="0.1" d="M188.06 252.63C189.675 252.596 191.281 252.889 192.78 253.49C191.431 252.442 189.838 251.754 188.15 251.49L188.06 252.63Z" fill="white"/>
<path d="M97.0499 237.36L101.63 267.36C101.625 267.376 101.625 267.394 101.63 267.41L147.18 293.83C147.191 293.835 147.204 293.838 147.216 293.837C147.228 293.836 147.24 293.831 147.25 293.824C147.261 293.817 147.269 293.807 147.274 293.796C147.279 293.785 147.281 293.772 147.28 293.76L142.83 264.65C142.735 264.035 142.507 263.447 142.161 262.929C141.816 262.411 141.361 261.974 140.83 261.65L99.0699 236C98.8517 235.862 98.5981 235.79 98.3399 235.794C98.0817 235.798 97.8302 235.876 97.616 236.021C97.4018 236.165 97.2343 236.368 97.1337 236.606C97.0332 236.844 97.0041 237.106 97.0499 237.36Z" fill="#455A64"/>
<path d="M147.21 293.84L171.53 279.75C172.091 279.425 172.557 278.958 172.882 278.397C173.207 277.835 173.378 277.199 173.38 276.55L147 291.77L147.21 293.84Z" fill="#263238"/>
<path d="M123.4 266.28C123.4 268.43 121.9 269.28 120.04 268.22C119.062 267.582 118.248 266.723 117.665 265.712C117.081 264.7 116.744 263.566 116.68 262.4C116.68 260.26 118.19 259.4 120.04 260.46C121.019 261.097 121.833 261.956 122.417 262.968C123.001 263.979 123.338 265.114 123.4 266.28Z" fill="#37474F"/>
<path opacity="0.2" d="M168.25 235.81C168.25 235.81 177.44 238.31 182.32 231.41C182.32 231.41 179.16 240.32 168.25 235.81Z" fill="black"/>
</g>
<defs>
<clipPath id="clip0_700_7927">
<rect width="522" height="492" fill="white"/>
</clipPath>
</defs>
</svg>
