<svg width="522" height="492" viewBox="0 0 522 492" fill="none" xmlns="http://www.w3.org/2000/svg">
<g clip-path="url(#clip0_700_7542)">
<rect width="522" height="492" fill="white"/>
<path d="M136.23 385.24C205.14 418.08 316.86 418.09 385.77 385.24C454.68 352.39 454.67 299.15 385.77 266.31C316.87 233.47 205.14 233.47 136.23 266.31C67.32 299.15 67.33 352.4 136.23 385.24Z" fill="#F5F5F5"/>
<path d="M385.53 360.97C398.221 360.97 408.51 356.068 408.51 350.02C408.51 343.972 398.221 339.07 385.53 339.07C372.838 339.07 362.55 343.972 362.55 350.02C362.55 356.068 372.838 360.97 385.53 360.97Z" fill="#EBEBEB"/>
<path d="M131 351.59L139.13 346.9C143.669 343.196 147.124 338.335 149.13 332.83C151.64 325.91 151.29 320.65 149.49 318.01C147.28 314.76 141.55 315.33 141.32 322.17C140.84 335.65 136.91 345 131 351.59Z" fill="#572B92"/>
<path opacity="0.2" d="M131 351.59L139.13 346.9C143.669 343.196 147.124 338.335 149.13 332.83C151.64 325.91 151.29 320.65 149.49 318.01C147.28 314.76 141.55 315.33 141.32 322.17C140.84 335.65 136.91 345 131 351.59Z" fill="black"/>
<path d="M131 352.09C130.894 352.089 130.791 352.054 130.706 351.99C130.622 351.927 130.559 351.838 130.528 351.737C130.497 351.636 130.499 351.527 130.533 351.427C130.568 351.327 130.633 351.241 130.72 351.18C149.52 338.18 145.88 320.05 145.84 319.87C145.826 319.804 145.825 319.737 145.838 319.671C145.85 319.605 145.875 319.542 145.912 319.486C145.949 319.429 145.996 319.381 146.051 319.343C146.107 319.305 146.169 319.279 146.235 319.265C146.3 319.251 146.368 319.25 146.434 319.263C146.5 319.275 146.563 319.3 146.619 319.337C146.675 319.374 146.724 319.421 146.761 319.477C146.799 319.532 146.826 319.594 146.84 319.66C146.84 319.85 150.68 338.6 131.32 352C131.226 352.064 131.113 352.096 131 352.09Z" fill="white"/>
<path d="M114.71 361C114.71 361 111.88 358.7 112.56 355.58C113.24 352.46 115.07 350.22 111.94 346.2C108.81 342.18 107.94 336.82 111.68 333.92C114.53 331.67 118.98 334.85 120.58 328.92C121.76 324.58 121.36 314.97 126.89 311.77C132.42 308.57 135.89 313.39 135.02 319.91C134.26 325.74 133.18 331.35 134.02 332.91C135.64 335.91 138.41 335.5 138.28 340.98C138.17 346.08 133.34 350.3 133.34 350.3L114.71 361Z" fill="#572B92"/>
<path d="M124 356.11C123.878 356.109 123.76 356.064 123.668 355.983C123.576 355.902 123.517 355.791 123.5 355.67C122.07 343.82 125.5 323.36 128.3 317.28C128.323 317.213 128.361 317.151 128.41 317.099C128.46 317.048 128.52 317.007 128.586 316.981C128.652 316.954 128.724 316.942 128.795 316.945C128.866 316.949 128.936 316.967 129 317C129.059 317.027 129.113 317.065 129.158 317.113C129.202 317.161 129.237 317.218 129.259 317.279C129.281 317.341 129.291 317.406 129.288 317.472C129.285 317.537 129.268 317.601 129.24 317.66C126.47 323.66 123.16 344.18 124.53 355.51C124.544 355.641 124.505 355.773 124.423 355.876C124.341 355.979 124.221 356.045 124.09 356.06L124 356.11Z" fill="white"/>
<path d="M123.73 346.88C123.653 346.884 123.577 346.866 123.51 346.83C120.04 345.14 117.84 339.11 117.75 338.83C117.725 338.768 117.713 338.701 117.715 338.634C117.717 338.568 117.732 338.502 117.759 338.441C117.787 338.38 117.826 338.325 117.875 338.28C117.924 338.234 117.982 338.199 118.045 338.176C118.108 338.154 118.174 338.144 118.241 338.147C118.308 338.151 118.373 338.168 118.433 338.197C118.494 338.226 118.547 338.267 118.591 338.318C118.635 338.368 118.669 338.426 118.69 338.49C118.69 338.55 120.84 344.39 123.95 345.9C124.052 345.949 124.134 346.032 124.183 346.134C124.232 346.236 124.244 346.352 124.219 346.463C124.193 346.573 124.131 346.672 124.042 346.742C123.953 346.812 123.843 346.85 123.73 346.85V346.88Z" fill="white"/>
<path d="M123.67 350.88C123.57 350.88 123.472 350.849 123.39 350.792C123.307 350.735 123.245 350.654 123.21 350.56C123.16 350.438 123.161 350.301 123.211 350.179C123.262 350.058 123.358 349.961 123.48 349.91C129.32 347.57 132.96 340.62 133 340.54C133.061 340.422 133.166 340.333 133.293 340.293C133.419 340.252 133.557 340.264 133.675 340.325C133.793 340.386 133.882 340.491 133.922 340.618C133.962 340.745 133.951 340.882 133.89 341C133.73 341.3 130.04 348.36 123.89 350.84C123.821 350.872 123.745 350.886 123.67 350.88Z" fill="white"/>
<path d="M327.8 297.08C327.8 297.08 323.43 290 323 282.31C322.57 274.62 324.26 271.42 326.58 270.5C328.9 269.58 329.08 272.41 330.27 274.08C331.46 275.75 333.89 274.8 334.79 269.59C335.69 264.38 338.97 255.59 345.79 253.88C353.29 252.02 349.27 260.82 347.38 264.25C345.49 267.68 344.03 272.36 345.27 273.63C346.51 274.9 348.44 272.55 350.27 274.73C352.5 277.36 345.57 286.83 341.59 289.12L327.8 297.08Z" fill="#572B92"/>
<path d="M333.79 294.11C333.724 294.107 333.66 294.092 333.6 294.064C333.54 294.037 333.487 293.998 333.442 293.949C333.398 293.901 333.363 293.845 333.34 293.783C333.318 293.721 333.307 293.656 333.31 293.59C333.987 281.22 337.845 269.233 344.51 258.79C344.548 258.736 344.596 258.689 344.652 258.654C344.708 258.619 344.771 258.596 344.836 258.585C344.902 258.575 344.969 258.578 345.033 258.594C345.097 258.611 345.157 258.64 345.21 258.68C345.315 258.758 345.385 258.874 345.406 259.003C345.426 259.131 345.395 259.263 345.32 259.37C338.774 269.66 334.986 281.462 334.32 293.64C334.316 293.706 334.299 293.77 334.271 293.829C334.242 293.888 334.202 293.941 334.153 293.985C334.103 294.029 334.046 294.062 333.984 294.084C333.922 294.105 333.856 294.114 333.79 294.11Z" fill="white"/>
<path d="M334.36 288.2C334.276 288.199 334.194 288.179 334.12 288.14C331.32 286.59 329.77 281.99 329.71 281.8C329.688 281.738 329.678 281.671 329.682 281.605C329.686 281.539 329.702 281.475 329.731 281.415C329.76 281.356 329.8 281.302 329.85 281.259C329.899 281.215 329.957 281.181 330.02 281.16C330.146 281.119 330.283 281.13 330.401 281.19C330.519 281.25 330.609 281.354 330.65 281.48C330.65 281.48 332.15 285.91 334.65 287.26C334.763 287.327 334.846 287.435 334.881 287.562C334.917 287.688 334.902 287.824 334.84 287.94C334.795 288.026 334.725 288.097 334.639 288.143C334.554 288.189 334.457 288.209 334.36 288.2Z" fill="white"/>
<path d="M334.85 285.17C334.739 285.169 334.632 285.131 334.545 285.062C334.458 284.993 334.396 284.898 334.37 284.79C334.353 284.727 334.35 284.661 334.359 284.597C334.368 284.532 334.39 284.47 334.424 284.414C334.457 284.358 334.502 284.31 334.554 284.271C334.607 284.233 334.666 284.205 334.73 284.19C341.95 282.36 344.45 278.58 344.47 278.54C344.505 278.484 344.551 278.436 344.606 278.398C344.66 278.36 344.721 278.333 344.785 278.319C344.85 278.304 344.917 278.303 344.982 278.314C345.047 278.325 345.109 278.35 345.165 278.385C345.221 278.42 345.269 278.467 345.307 278.521C345.345 278.575 345.372 278.636 345.386 278.7C345.401 278.765 345.402 278.832 345.391 278.897C345.379 278.962 345.355 279.024 345.32 279.08C345.21 279.25 342.61 283.22 334.98 285.16L334.85 285.17Z" fill="white"/>
<path d="M219 281.54C219 281.54 209.41 279.2 208.91 261.24C208.38 241.86 211.26 219.24 199.91 217.41C188.56 215.58 182.26 229.41 182.4 245.56C182.53 259.7 188.23 290.4 218.96 296.42L219 281.54Z" fill="#572B92"/>
<path opacity="0.2" d="M219 281.54C219 281.54 209.41 279.2 208.91 261.24C208.38 241.86 211.26 219.24 199.91 217.41C188.56 215.58 182.26 229.41 182.4 245.56C182.53 259.7 188.23 290.4 218.96 296.42L219 281.54Z" fill="black"/>
<path d="M219 294.58H218.91C212 293.32 206.37 289.51 202.18 283.27C189.76 264.74 193.67 230.14 194.96 224.1C194.988 223.971 195.066 223.859 195.176 223.786C195.286 223.713 195.42 223.686 195.55 223.71C195.679 223.741 195.792 223.821 195.864 223.932C195.937 224.044 195.964 224.179 195.94 224.31C194.67 230.31 190.78 264.47 203.01 282.71C204.79 285.539 207.138 287.966 209.907 289.839C212.675 291.712 215.802 292.989 219.09 293.59C219.155 293.602 219.217 293.627 219.273 293.663C219.328 293.699 219.376 293.746 219.413 293.801C219.45 293.856 219.476 293.918 219.489 293.983C219.503 294.048 219.503 294.115 219.49 294.18C219.468 294.294 219.407 294.396 219.318 294.47C219.228 294.543 219.115 294.582 219 294.58Z" fill="white"/>
<path d="M219 340.67C209.09 342.01 193 341.99 183.71 334.67C174.42 327.35 176.36 321.05 179.93 318.42C183.5 315.79 186.6 312.79 180.46 306.95C174.32 301.11 164.46 291.73 161.26 277.66C158.06 263.59 159.64 254.79 165.92 251.86C172.01 249.02 173.62 253.54 177.35 262.86C181.08 272.18 189.47 264.19 196.65 267.1C203.83 270.01 203.54 275.77 203.99 280.72C204.44 285.67 206.81 287.04 210.88 287.04C214.95 287.04 219 289.38 219 294.04V340.67Z" fill="#572B92"/>
<path d="M219 324.33C218.957 324.339 218.913 324.339 218.87 324.33C218.44 324.21 208.19 321.23 193.26 307.52C177.36 292.92 169.86 271.02 169.78 270.8C169.742 270.674 169.753 270.538 169.813 270.421C169.873 270.303 169.976 270.213 170.1 270.17C170.225 270.129 170.361 270.138 170.478 270.196C170.596 270.254 170.687 270.356 170.73 270.48C170.8 270.7 178.23 292.36 193.94 306.78C208.66 320.31 219.03 323.34 219.14 323.37C219.203 323.388 219.262 323.419 219.313 323.46C219.364 323.501 219.407 323.552 219.438 323.61C219.47 323.667 219.49 323.73 219.497 323.796C219.504 323.861 219.498 323.927 219.48 323.99C219.447 324.091 219.383 324.179 219.297 324.24C219.21 324.301 219.106 324.333 219 324.33Z" fill="white"/>
<path d="M197.43 311C197.329 311.002 197.231 310.971 197.148 310.914C197.066 310.857 197.003 310.775 196.97 310.68C193.76 302.44 193.03 284.81 192.97 284.06C192.967 283.928 193.015 283.8 193.105 283.703C193.194 283.606 193.318 283.548 193.45 283.54C193.58 283.542 193.706 283.592 193.802 283.68C193.898 283.769 193.958 283.89 193.97 284.02C193.97 284.2 194.72 302.23 197.87 310.32C197.894 310.382 197.906 310.448 197.904 310.514C197.902 310.58 197.888 310.645 197.861 310.706C197.834 310.766 197.795 310.821 197.747 310.866C197.699 310.911 197.642 310.947 197.58 310.97C197.532 310.987 197.481 310.997 197.43 311Z" fill="white"/>
<path d="M197.35 322.85C196.428 322.857 195.506 322.81 194.59 322.71C194.524 322.702 194.46 322.681 194.403 322.649C194.345 322.617 194.294 322.573 194.254 322.521C194.213 322.469 194.183 322.41 194.165 322.346C194.147 322.282 194.142 322.216 194.15 322.15C194.157 322.084 194.178 322.021 194.211 321.963C194.243 321.906 194.286 321.855 194.338 321.814C194.39 321.773 194.45 321.743 194.514 321.725C194.577 321.707 194.644 321.702 194.71 321.71C194.8 321.71 204.11 322.77 208.38 318.42C208.424 318.367 208.479 318.324 208.541 318.294C208.603 318.264 208.67 318.246 208.739 318.243C208.808 318.24 208.876 318.251 208.941 318.276C209.005 318.3 209.064 318.338 209.113 318.387C209.162 318.435 209.2 318.493 209.226 318.557C209.251 318.621 209.263 318.689 209.261 318.758C209.259 318.827 209.243 318.895 209.213 318.957C209.184 319.019 209.142 319.075 209.09 319.12C206 322.31 200.61 322.85 197.35 322.85Z" fill="white"/>
<path d="M190.15 133.49L189.07 127.26L183.51 130.92C183.002 129.92 182.282 129.043 181.4 128.35L184.06 121.15L179.06 120.04L175.4 127.04C174.076 127.263 172.792 127.681 171.59 128.28L170 123L164.06 127.67L164.45 133.87C163.24 135.225 162.143 136.677 161.17 138.21L156.27 137.96L152.83 145.67L157.04 147.47C156.6 149.065 156.322 150.7 156.21 152.35L150.86 157.27L151.93 163.51L157.5 159.85C158.005 160.849 158.726 161.723 159.61 162.41L157 169.62L162 170.72L167.24 165.62C168.45 165.43 168.15 163.15 169.47 162.5L171.06 167.76L176.99 163.1L176.84 160.66C178.04 159.32 182.58 156.37 183.56 154.83L184.79 152.83L188.23 145.12L186.63 142.22L184.85 138.44L190.15 133.49ZM172 154C167.44 157.58 166 158.37 165.23 153.58C164.46 148.79 167.07 141.51 171.63 137.92C176.19 134.33 177.93 134.08 178.75 138.86C179.57 143.64 176.57 150.46 172 154Z" fill="#E0E0E0"/>
<path d="M179.1 120.04L185.59 123.78L181.93 130.76L175.44 127.02L179.1 120.04Z" fill="#F5F5F5"/>
<path d="M195.56 131L190 134.66L183.51 130.92L189.07 127.26L195.56 131Z" fill="#F5F5F5"/>
<path d="M194.67 148.83L190.46 147.04L183.97 143.3L188.18 145.09L194.67 148.83Z" fill="#E0E0E0"/>
<path d="M156.99 169.62L163.48 173.35L166.14 166.15L159.65 162.41L156.99 169.62Z" fill="#E0E0E0"/>
<path d="M177.49 171.5L171.01 167.76L169.42 162.5L175.91 166.24L177.49 171.5Z" fill="#E0E0E0"/>
<path d="M196.63 137.23L195.56 131L190 134.66C189.488 133.66 188.765 132.783 187.88 132.09L190.54 124.89L185.59 123.78L181.92 130.78C180.596 131.003 179.312 131.421 178.11 132.02L176.53 126.76L170.59 131.43L170.98 137.63C169.769 138.995 168.672 140.456 167.7 142L162.79 141.75L159.35 149.46L163.56 151.26C163.125 152.859 162.847 154.497 162.73 156.15L157.39 161L158.46 167.24L164.02 163.58C164.532 164.578 165.256 165.451 166.14 166.14L163.48 173.34L168.48 174.45L172.14 167.45C173.469 167.229 174.757 166.808 175.96 166.2L177.54 171.46L183.48 166.8L183.09 160.6C184.3 159.245 185.397 157.794 186.37 156.26L191.28 156.5L194.72 148.79L190.45 147C190.893 145.402 191.174 143.764 191.29 142.11L196.63 137.23ZM178.5 157.78C173.95 161.36 169.59 160.39 168.76 155.61C167.93 150.83 170.96 144.04 175.52 140.46C180.08 136.88 184.43 137.86 185.26 142.64C186.09 147.42 183.06 154.2 178.5 157.78Z" fill="#EBEBEB"/>
<path d="M176.53 126.74L170.04 123L164.1 127.67L170.59 131.41L176.53 126.74Z" fill="#F5F5F5"/>
<path d="M164.1 127.67L164.49 133.87L170.98 137.61L170.59 131.41L164.1 127.67Z" fill="#E0E0E0"/>
<path d="M167.7 141.95L161.21 138.21L156.31 137.97L162.79 141.71L167.7 141.95Z" fill="#F5F5F5"/>
<path d="M156.31 137.97L152.87 145.67L159.35 149.41L162.79 141.71L156.31 137.97Z" fill="#E0E0E0"/>
<path d="M162.73 156.09L156.25 152.35L150.9 157.27L157.38 161.01L162.73 156.09Z" fill="#F5F5F5"/>
<path d="M158.46 167.25L151.97 163.51L150.9 157.27L157.38 161.01L158.46 167.25Z" fill="#E0E0E0"/>
<path d="M185.59 123.78L179.1 120.04L184.06 121.15L190.54 124.89L185.59 123.78Z" fill="#F5F5F5"/>
<path d="M161.09 105.21V95.9L153.68 99.24C153.287 97.6605 152.61 96.1659 151.68 94.83L156.35 85.42L150.65 82.13L144.83 90.88C143.208 90.7383 141.574 90.8977 140.01 91.35L139.19 83.26L131.13 87.92L130.32 96.92C128.566 98.4743 126.953 100.181 125.5 102.02L119.68 100.02L113.98 109.9L118.64 113.9C117.779 116.078 117.11 118.326 116.64 120.62L109.23 125.83V135.15L116.64 131.81C117.032 133.39 117.71 134.884 118.64 136.22L114 145.64L119.7 148.93L125.52 140.18C127.142 140.321 128.776 140.162 130.34 139.71L131.15 147.8L139.21 143.14L140.03 134.14C142.546 133.222 144.774 131.656 146.49 129.6L150.67 131.07L156.37 121.2L152.87 118.2C153.63 115.698 153.911 113.076 153.7 110.47L161.09 105.21ZM135.16 128.47C128.98 132.04 125.16 129.47 125.16 122.36C125.16 115.25 130.27 106.46 136.46 102.89C142.65 99.32 146.39 101.89 146.39 109.06C146.39 116.23 141.35 124.89 135.16 128.47Z" fill="#E0E0E0"/>
<path d="M157.13 85.86L150.65 82.13L144.83 90.88L151.31 94.62L157.13 85.86Z" fill="#F5F5F5"/>
<path d="M167.58 99.64L161.09 95.9L153.68 99.24L160.17 102.98L167.58 99.64Z" fill="#F5F5F5"/>
<path d="M137.61 151.54L131.13 147.8L130.32 139.71L136.8 143.45L137.61 151.54Z" fill="#E0E0E0"/>
<path d="M113.97 145.64L120.46 149.38L125.13 139.97L118.64 136.23L113.97 145.64Z" fill="#E0E0E0"/>
<path d="M167.58 109V99.69L160.17 103C159.782 101.419 159.104 99.9238 158.17 98.59L162.84 89.18L157.14 85.88L151.32 94.64C149.698 94.4934 148.063 94.6528 146.5 95.11L145.68 87L137.62 91.66L136.8 100.66C135.049 102.217 133.436 103.923 131.98 105.76L126.16 103.76L120.46 113.64L125.13 117.64C124.265 119.816 123.595 122.065 123.13 124.36L115.72 129.57V138.89L123.13 135.55C123.518 137.131 124.197 138.626 125.13 139.96L120.46 149.37L126.16 152.66L131.98 143.91C133.602 144.052 135.236 143.892 136.8 143.44L137.62 151.53L145.68 146.87L146.49 137.87C148.244 136.316 149.857 134.609 151.31 132.77L157.13 134.77L162.83 124.9L158.16 120.9C159.026 118.724 159.695 116.475 160.16 114.18L167.58 109ZM141.65 132.26C135.46 135.83 130.44 132.93 130.44 125.79C130.44 118.65 135.44 109.96 141.65 106.38C147.86 102.8 152.85 105.71 152.85 112.85C152.85 119.99 147.83 128.63 141.65 132.21V132.26Z" fill="#EBEBEB"/>
<path d="M125.5 102.04L131.98 105.78L126.16 103.75L119.68 100L125.5 102.04Z" fill="#F0F0F0"/>
<path d="M119.679 100.01L113.978 109.894L120.465 113.636L126.167 103.753L119.679 100.01Z" fill="#F5F5F5"/>
<path d="M113.97 109.88L120.46 113.62L125.13 117.64L118.64 113.91L113.97 109.88Z" fill="#E0E0E0"/>
<path d="M116.64 120.63L123.13 124.37L115.72 129.58L109.23 125.84L116.64 120.63Z" fill="#F5F5F5"/>
<path d="M109.23 125.84L115.72 129.58V138.9L109.23 135.16V125.84Z" fill="#E0E0E0"/>
<path d="M145.68 87L139.19 83.26L131.13 87.92L137.61 91.66L145.68 87Z" fill="#F5F5F5"/>
<path d="M228.88 354.05L322.88 299.77C323.087 299.697 323.266 299.562 323.393 299.383C323.52 299.204 323.588 298.99 323.588 298.77C323.588 298.551 323.52 298.336 323.393 298.157C323.266 297.978 323.087 297.843 322.88 297.77L314.19 292.77C313.652 292.499 313.057 292.358 312.455 292.358C311.852 292.358 311.258 292.499 310.72 292.77L216.69 347C216.483 347.073 216.303 347.208 216.176 347.387C216.05 347.566 215.981 347.781 215.981 348C215.981 348.22 216.05 348.434 216.176 348.613C216.303 348.792 216.483 348.927 216.69 349L225.41 354C225.944 354.279 226.536 354.428 227.139 354.437C227.742 354.446 228.338 354.313 228.88 354.05Z" fill="#E0E0E0"/>
<path d="M320.3 90.2L235.54 139.14C234.28 139.962 233.231 141.07 232.479 142.373C231.727 143.676 231.292 145.138 231.21 146.64V347.71C231.21 350.47 233.15 351.59 235.54 350.21L320.3 301.27C321.562 300.449 322.611 299.342 323.364 298.039C324.116 296.736 324.55 295.273 324.63 293.77V92.7C324.63 89.94 322.7 88.82 320.3 90.2Z" fill="#455A64"/>
<path d="M235.54 139.14L320.3 90.2C322.44 88.96 324.21 89.73 324.57 91.88C324.37 90.5283 323.886 89.2342 323.15 88.0828C322.414 86.9315 321.443 85.949 320.3 85.2L316.78 83.2C315.438 82.5192 313.955 82.1644 312.45 82.1644C310.945 82.1644 309.462 82.5192 308.12 83.2L223.35 132.1C222.073 132.901 221.02 134.012 220.29 135.33L232.48 142.33C233.21 141.022 234.264 139.924 235.54 139.14Z" fill="#37474F"/>
<path d="M219 340.67C219.082 342.172 219.517 343.634 220.269 344.937C221.021 346.24 222.07 347.348 223.33 348.17L226.86 350.17C228.082 350.781 229.419 351.127 230.784 351.186C232.149 351.245 233.51 351.014 234.78 350.51C232.78 351.29 231.19 350.14 231.19 347.67V146.64C231.24 145.131 231.677 143.661 232.46 142.37L220.27 135.37C219.498 136.651 219.062 138.106 219 139.6V340.67Z" fill="#263238"/>
<path d="M237.87 165.93L318 119.68C319.44 118.86 320.6 119.53 320.6 121.18V270C320.552 270.902 320.291 271.78 319.839 272.562C319.387 273.344 318.757 274.008 318 274.5L237.9 320.75C236.46 321.58 235.3 320.91 235.3 319.25V170.43C235.345 169.531 235.602 168.655 236.048 167.874C236.495 167.092 237.119 166.426 237.87 165.93Z" fill="white"/>
<path d="M277.92 122.29C277.478 122.58 277.11 122.971 276.846 123.429C276.582 123.888 276.429 124.402 276.4 124.93C276.4 125.93 277.08 126.3 277.92 125.81C278.364 125.521 278.733 125.132 278.997 124.673C279.262 124.214 279.413 123.699 279.44 123.17C279.44 122.2 278.76 121.81 277.92 122.29Z" fill="#37474F"/>
<path d="M277.92 304.74C276.172 305.884 274.718 307.423 273.675 309.233C272.633 311.044 272.031 313.074 271.92 315.16C271.92 318.99 274.61 320.55 277.92 318.63C279.668 317.486 281.121 315.946 282.164 314.136C283.206 312.326 283.808 310.296 283.92 308.21C283.94 304.38 281.24 302.82 277.92 304.74Z" fill="#37474F"/>
<path d="M263.53 137.77C262.651 138.353 261.922 139.135 261.4 140.052C260.879 140.97 260.581 141.996 260.53 143.05C260.53 144.99 261.89 145.78 263.53 144.81C264.418 144.232 265.157 143.453 265.687 142.535C266.217 141.618 266.523 140.588 266.58 139.53C266.58 137.59 265.22 136.8 263.53 137.77Z" fill="#37474F"/>
<path d="M271 137.11C271 138.41 272 138.9 273.17 138.21L293.17 126.64C293.79 126.253 294.309 125.725 294.686 125.1C295.063 124.474 295.287 123.769 295.34 123.04C295.34 121.75 294.34 121.26 293.17 121.95L273.17 133.52C272.552 133.906 272.033 134.432 271.656 135.056C271.279 135.68 271.054 136.383 271 137.11Z" fill="#37474F"/>
<path d="M225.76 172.37C226.47 172.832 227.06 173.455 227.484 174.188C227.908 174.922 228.154 175.744 228.2 176.59C228.2 178.15 227.11 178.78 225.76 178C225.053 177.536 224.464 176.912 224.042 176.179C223.62 175.446 223.376 174.625 223.33 173.78C223.33 172.23 224.42 171.6 225.76 172.37Z" fill="#37474F"/>
<path d="M225.76 191.15C226.47 191.612 227.06 192.235 227.484 192.968C227.908 193.702 228.154 194.524 228.2 195.37C228.2 196.92 227.11 197.55 225.76 196.78C225.053 196.316 224.464 195.692 224.042 194.959C223.62 194.226 223.376 193.405 223.33 192.56C223.33 191 224.42 190.37 225.76 191.15Z" fill="#37474F"/>
<path d="M225 172.75C225.71 173.212 226.3 173.835 226.724 174.568C227.148 175.302 227.393 176.124 227.44 176.97C227.44 178.52 226.35 179.15 225 178.38C224.29 177.918 223.7 177.295 223.276 176.562C222.852 175.828 222.607 175.006 222.56 174.16C222.57 172.6 223.66 172 225 172.75Z" fill="#455A64"/>
<path d="M225 191.52C225.711 191.983 226.303 192.608 226.727 193.343C227.151 194.078 227.395 194.903 227.44 195.75C227.44 197.3 226.35 197.93 225 197.15C224.289 196.69 223.697 196.067 223.273 195.333C222.848 194.6 222.604 193.776 222.56 192.93C222.57 191.38 223.66 190.75 225 191.52Z" fill="#455A64"/>
<path d="M336.82 125.89C336.82 124.23 335.66 123.56 334.22 124.39L324.63 129.92L254.12 170.64C253.363 171.132 252.732 171.796 252.28 172.578C251.829 173.36 251.568 174.238 251.52 175.14V323.92C251.52 325.58 252.68 326.25 254.12 325.42L324.66 284.69L334.22 279.17C334.977 278.678 335.608 278.014 336.06 277.232C336.511 276.45 336.772 275.572 336.82 274.67V125.89Z" fill="white"/>
<path d="M337.82 125.89C337.883 125.389 337.796 124.88 337.571 124.427C337.347 123.974 336.993 123.598 336.556 123.345C336.118 123.092 335.616 122.974 335.111 123.005C334.607 123.036 334.123 123.215 333.72 123.52L324.57 128.81L253.62 169.81C252.706 170.387 251.947 171.177 251.407 172.112C250.867 173.048 250.562 174.101 250.52 175.18V323.92C250.48 324.419 250.575 324.92 250.797 325.369C251.019 325.818 251.359 326.199 251.78 326.47C252.138 326.678 252.546 326.785 252.96 326.78C253.546 326.762 254.117 326.593 254.62 326.29L325.62 285.29L334.75 280.02C335.658 279.438 336.413 278.646 336.953 277.712C337.492 276.778 337.8 275.728 337.85 274.65L337.82 125.89ZM324.59 283.58L323.77 284.06L253.66 324.54C253.542 324.631 253.405 324.694 253.26 324.725C253.115 324.756 252.964 324.754 252.82 324.72C252.69 324.64 252.56 324.36 252.56 323.9V175.14C252.611 174.414 252.827 173.709 253.191 173.079C253.555 172.448 254.057 171.908 254.66 171.5L324.7 131L334.7 125.21C334.818 125.12 334.954 125.056 335.099 125.025C335.245 124.994 335.395 124.996 335.54 125.03C335.67 125.11 335.8 125.39 335.8 125.85V274.67C335.748 275.396 335.532 276.101 335.168 276.732C334.804 277.362 334.302 277.902 333.7 278.31L324.57 283.58H324.59Z" fill="#572B92"/>
<path d="M294.17 160.46C303.17 155.28 310.42 159.46 310.42 169.85C310.42 180.24 303.14 192.85 294.17 197.99C285.2 203.13 277.92 198.99 277.92 188.61C277.92 178.23 285.2 165.65 294.17 160.46Z" fill="#572B92"/>
<path d="M294.17 168.62C297.08 166.94 299.44 168.3 299.44 171.62C299.341 173.449 298.812 175.229 297.897 176.815C296.981 178.402 295.704 179.75 294.17 180.75C291.26 182.43 288.9 181.07 288.9 177.75C288.999 175.921 289.527 174.141 290.443 172.555C291.359 170.969 292.636 169.62 294.17 168.62Z" fill="#572B92"/>
<path d="M304.44 186.54C304.44 181.02 300.57 178.78 295.78 181.54L292.78 183.27C288 186.03 284.12 192.75 284.12 198.27V199.76C286.89 200.67 290.37 200.18 294.12 197.99C298.274 195.428 301.787 191.949 304.39 187.82L304.44 186.54Z" fill="#572B92"/>
<path opacity="0.7" d="M294.17 168.62C297.08 166.94 299.44 168.3 299.44 171.62C299.341 173.449 298.812 175.229 297.897 176.815C296.981 178.402 295.704 179.75 294.17 180.75C291.26 182.43 288.9 181.07 288.9 177.75C288.999 175.921 289.527 174.141 290.443 172.555C291.359 170.969 292.636 169.62 294.17 168.62Z" fill="white"/>
<path opacity="0.7" d="M304.44 186.54C304.44 181.02 300.57 178.78 295.78 181.54L292.78 183.27C288 186.03 284.12 192.75 284.12 198.27V199.76C286.89 200.67 290.37 200.18 294.12 197.99C298.274 195.428 301.787 191.949 304.39 187.82L304.44 186.54Z" fill="white"/>
<path d="M262.73 220.84L283.64 208.77C284.64 208.22 285.37 208.66 285.37 209.77V210.46C285.338 211.061 285.165 211.646 284.865 212.167C284.564 212.689 284.144 213.132 283.64 213.46L262.73 225.53C261.78 226.08 261 225.63 261 224.53V223.84C261.032 223.239 261.206 222.655 261.507 222.133C261.807 221.612 262.226 221.169 262.73 220.84Z" fill="#572B92"/>
<path opacity="0.1" d="M262.73 220.84L283.64 208.77C284.64 208.22 285.37 208.66 285.37 209.77V210.46C285.338 211.061 285.165 211.646 284.865 212.167C284.564 212.689 284.144 213.132 283.64 213.46L262.73 225.53C261.78 226.08 261 225.63 261 224.53V223.84C261.032 223.239 261.206 222.655 261.507 222.133C261.807 221.612 262.226 221.169 262.73 220.84Z" fill="black"/>
<path d="M261.87 235.41L325.13 198.89C325.6 198.61 325.99 198.83 325.99 199.39V206.77C325.972 207.07 325.886 207.361 325.736 207.621C325.587 207.881 325.38 208.104 325.13 208.27L261.87 244.79C261.39 245.07 261 244.84 261 244.29V236.91C261.017 236.609 261.105 236.317 261.256 236.056C261.407 235.796 261.617 235.574 261.87 235.41Z" fill="#572B92"/>
<path opacity="0.2" d="M261.87 235.41L325.13 198.89C325.6 198.61 325.99 198.83 325.99 199.39V206.77C325.972 207.07 325.886 207.361 325.736 207.621C325.587 207.881 325.38 208.104 325.13 208.27L261.87 244.79C261.39 245.07 261 244.84 261 244.29V236.91C261.017 236.609 261.105 236.317 261.256 236.056C261.407 235.796 261.617 235.574 261.87 235.41Z" fill="white"/>
<path d="M262.73 253.67L283.64 241.6C284.64 241.05 285.37 241.5 285.37 242.6V243.29C285.339 243.891 285.166 244.476 284.866 244.998C284.565 245.519 284.145 245.962 283.64 246.29L262.73 258.36C261.78 258.92 261 258.47 261 257.36V256.67C261.034 256.07 261.208 255.486 261.509 254.965C261.809 254.444 262.227 254 262.73 253.67Z" fill="#572B92"/>
<path opacity="0.1" d="M262.73 253.67L283.64 241.6C284.64 241.05 285.37 241.5 285.37 242.6V243.29C285.339 243.891 285.166 244.476 284.866 244.998C284.565 245.519 284.145 245.962 283.64 246.29L262.73 258.36C261.78 258.92 261 258.47 261 257.36V256.67C261.034 256.07 261.208 255.486 261.509 254.965C261.809 254.444 262.227 254 262.73 253.67Z" fill="black"/>
<path d="M261.87 268.24L325.13 231.72C325.6 231.44 325.99 231.67 325.99 232.22V239.6C325.972 239.9 325.886 240.191 325.736 240.451C325.587 240.711 325.38 240.934 325.13 241.1L261.87 277.62C261.39 277.9 261 277.68 261 277.12V269.74C261.017 269.439 261.105 269.147 261.256 268.886C261.407 268.626 261.617 268.404 261.87 268.24Z" fill="#572B92"/>
<path opacity="0.2" d="M261.87 268.24L325.13 231.72C325.6 231.44 325.99 231.67 325.99 232.22V239.6C325.972 239.9 325.886 240.191 325.736 240.451C325.587 240.711 325.38 240.934 325.13 241.1L261.87 277.62C261.39 277.9 261 277.68 261 277.12V269.74C261.017 269.439 261.105 269.147 261.256 268.886C261.407 268.626 261.617 268.404 261.87 268.24Z" fill="white"/>
<path d="M287.1 272.43L312.1 258.02C313.1 257.46 313.84 257.91 313.84 259.02V266.74C313.807 267.342 313.633 267.927 313.33 268.449C313.028 268.97 312.606 269.413 312.1 269.74L287.1 284.16C286.1 284.71 285.37 284.26 285.37 283.16V275.43C285.405 274.83 285.579 274.246 285.88 273.725C286.18 273.204 286.598 272.761 287.1 272.43Z" fill="#572B92"/>
<path opacity="0.1" d="M287.1 272.43L312.1 258.02C313.1 257.46 313.84 257.91 313.84 259.02V266.74C313.807 267.342 313.633 267.927 313.33 268.449C313.028 268.97 312.606 269.413 312.1 269.74L287.1 284.16C286.1 284.71 285.37 284.26 285.37 283.16V275.43C285.405 274.83 285.579 274.246 285.88 273.725C286.18 273.204 286.598 272.761 287.1 272.43Z" fill="black"/>
<path d="M346.3 239.85C346.3 239.85 334.02 222.91 333.3 220.85C332.73 219.33 333.3 217.07 333.48 216.02C333.66 214.97 333.82 212.63 334 212.02C334.3 210.88 332.83 211.11 332 212.15C331.17 213.19 330.89 215.27 330.46 215.61C330.03 215.95 326.76 211.18 325.05 208.98C323.34 206.78 322.27 205.44 321.22 206.26C320.47 206.85 321.03 208.13 322.27 210.01C322.994 211.022 323.662 212.074 324.27 213.16C324.46 213.57 323.44 213.6 322.89 214.45C322.46 215.11 322.89 216.18 322.29 216.69C321.921 216.971 321.668 217.378 321.579 217.833C321.491 218.289 321.573 218.761 321.81 219.16C322.923 220.908 324.359 222.428 326.04 223.64C327.88 224.91 328.62 225.36 329.71 227.09C330.8 228.82 340.58 246.49 341.24 247.55C341.9 248.61 343.17 250.77 345.1 250.83C347.03 250.89 362.83 237.29 363.64 236.61C366.24 234.44 367.07 234.13 367.51 236.08C367.662 236.773 367.775 237.474 367.85 238.18C368.16 240.66 369.85 249.52 369.85 249.52C369.85 249.52 377.85 253.39 384.42 251.52C390.99 249.65 393.21 246.86 393.21 246.86L389.92 241.5C390.81 239.29 394.92 230.33 396.25 224.06L375.65 220.73C375.23 220.64 374.55 220.47 373.65 220.24C372.52 219.94 369.65 218.95 367.48 220.85C360.4 227.02 346.32 239.85 346.32 239.85" fill="#FFA8A7"/>
<path d="M387.14 343.79L383.45 348.92C385.127 349.703 386.96 350.096 388.81 350.07C392.12 350.19 393.03 349.07 393.15 348.85C393.71 347.65 392.84 345.49 392.6 343.63L387.14 343.79Z" fill="#37474F"/>
<path d="M383.66 346.46C383.66 346.46 379.18 346.17 376.09 345.79C373 345.41 370.55 346.91 371.27 348.18C371.99 349.45 373.7 350.51 376.36 351.4C378.63 352.17 381.36 352.72 383.72 353.4C386.08 354.08 387.72 354.97 389.09 354.49C390.62 353.96 391.28 353.35 391.15 352.23C390.816 350.637 390.402 349.062 389.91 347.51L383.66 346.46Z" fill="#37474F"/>
<path d="M393.15 338.64C393.15 338.64 392.59 343.3 392.55 344.3C392.51 345.3 388 345.62 387.14 343.79L387 338.09L393.15 338.64Z" fill="#F28F8F"/>
<path d="M388.61 341.5L390.22 348.58C390.22 348.58 390.37 349.44 386.69 349.99C383.01 350.54 377.23 348.06 376.24 347.56C375.25 347.06 375.14 346.05 378.76 346.25C382.38 346.45 383.66 346.46 383.66 346.46L382.48 343.33L388.61 341.5Z" fill="#FFA8A7"/>
<path d="M396.19 224L398.74 223.29C398.74 223.29 404.07 240.16 404.66 241.79C405.25 243.42 405.92 245.14 404.77 247.15C403.4 249.54 396.19 259.15 396.19 259.15L391.61 254.67L396.81 245.15L392.21 235.85L396.19 224Z" fill="#F28F8F"/>
<path d="M370 202.09C369.402 200.968 369.099 199.712 369.118 198.441C369.137 197.169 369.479 195.924 370.11 194.82C372.65 190.11 378.31 187.82 385.05 188.69C388.17 189.1 391.85 191.69 393.86 195.56C396.08 199.85 396.29 208.49 396.86 211.76L370 202.09Z" fill="#37474F"/>
<path d="M369.82 203.94C369.82 203.94 368.22 206.99 368.5 207.27C368.914 207.512 369.368 207.681 369.84 207.77L369.82 203.94Z" fill="#FFA8A7"/>
<path d="M374.68 194.3C372.94 195.43 369.94 197.51 369.81 204.36C369.67 211.36 370.67 213.67 371.71 214.48C372.41 215.03 376.52 214.75 378.28 214.34C380.04 213.93 385.11 211.42 386.94 207.61C389.09 203.13 388.65 196.61 385.46 194.61C383.836 193.65 381.996 193.118 380.11 193.064C378.225 193.009 376.356 193.435 374.68 194.3Z" fill="#FFA8A7"/>
<path d="M393.15 246.82C396.23 251.62 399.15 255.82 399.79 261.24C401.11 272.63 396.79 285.65 395.86 294.08C397.609 296.478 398.617 299.336 398.76 302.3C398.76 305.79 393.15 338.64 393.15 338.64C393.15 338.64 389.07 339.88 387 338.09L383.15 277.66L385.15 270.3L393.15 246.82Z" fill="#572B92"/>
<path opacity="0.2" d="M393.15 246.82C396.23 251.62 399.15 255.82 399.79 261.24C401.11 272.63 396.79 285.65 395.86 294.08C397.609 296.478 398.617 299.336 398.76 302.3C398.76 305.79 393.15 338.64 393.15 338.64C393.15 338.64 389.07 339.88 387 338.09L383.15 277.66L385.15 270.3L393.15 246.82Z" fill="black"/>
<path d="M383.15 277.66L385.15 270.3C388.979 269.292 392.673 267.825 396.15 265.93C396.15 265.93 394.07 269.72 388.09 271.8L385 281.25L384.74 302.9L383.15 277.66Z" fill="#572B92"/>
<path opacity="0.3" d="M383.15 277.66L385.15 270.3C388.979 269.292 392.673 267.825 396.15 265.93C396.15 265.93 394.07 269.72 388.09 271.8L385 281.25L384.74 302.9L383.15 277.66Z" fill="black"/>
<path d="M393.15 246.82C394.8 249.52 398.74 254.12 397.9 258.55C396.9 263.91 394 267.68 385.18 270.3L376.9 300.3C376.9 300.3 381.21 304.3 382.53 308.17C383.85 312.04 388.61 341.52 388.61 341.52C388.61 341.52 387.13 343.93 382.48 343.35C382.48 343.35 366.27 306.35 365.13 303.94C363.746 301.499 363.261 298.651 363.76 295.89C364.27 292.01 369.76 249.54 369.76 249.54L393.15 246.82Z" fill="#572B92"/>
<path opacity="0.2" d="M393.15 246.82C394.8 249.52 398.74 254.12 397.9 258.55C396.9 263.91 394 267.68 385.18 270.3L376.9 300.3C376.9 300.3 381.21 304.3 382.53 308.17C383.85 312.04 388.61 341.52 388.61 341.52C388.61 341.52 387.13 343.93 382.48 343.35C382.48 343.35 366.27 306.35 365.13 303.94C363.746 301.499 363.261 298.651 363.76 295.89C364.27 292.01 369.76 249.54 369.76 249.54L393.15 246.82Z" fill="black"/>
<path d="M396.19 224L375.59 220.67C375.17 220.58 374.49 220.41 373.59 220.18C373.59 220.18 372.71 233.1 367.42 236.06C367.55 236.68 367.66 237.37 367.76 238.16C368.07 240.64 369.76 249.5 369.76 249.5C369.76 249.5 377.76 253.37 384.33 251.5C390.9 249.63 393.12 246.84 393.12 246.84L389.83 241.48C390.75 239.25 394.89 230.29 396.19 224Z" fill="#572B92"/>
<path opacity="0.7" d="M396.19 224L375.59 220.67C375.17 220.58 374.49 220.41 373.59 220.18C373.59 220.18 372.71 233.1 367.42 236.06C367.55 236.68 367.66 237.37 367.76 238.16C368.07 240.64 369.76 249.5 369.76 249.5C369.76 249.5 377.76 253.37 384.33 251.5C390.9 249.63 393.12 246.84 393.12 246.84L389.83 241.48C390.75 239.25 394.89 230.29 396.19 224Z" fill="white"/>
<path d="M390.76 239.35C388.024 240.993 385.158 242.408 382.19 243.58C384.884 243.526 387.521 242.797 389.86 241.46L390.76 239.35Z" fill="#572B92"/>
<path d="M374.17 194.64C374.17 194.64 373.17 201.14 375.53 204.96C375.53 204.96 376.41 202.37 378.6 202.86C380.79 203.35 380.91 206.24 379.37 207.86C378.978 208.314 378.467 208.649 377.894 208.826C377.321 209.003 376.709 209.015 376.13 208.86C376.13 208.86 375.78 213.56 375.59 217.5C375.4 221.44 374.36 230.03 378.79 233.5C383.22 236.97 394.34 238.19 399.55 230.91C402.45 226.86 398.6 219.7 396.81 211.67C395.16 204.29 394.23 193.35 386.4 191.59C378.57 189.83 374.17 194.64 374.17 194.64Z" fill="#37474F"/>
<path d="M402.9 105.83L401.25 106.83C401.389 106.243 401.466 105.643 401.48 105.04C401.48 101.69 399.13 100.34 396.23 102.04C395.348 102.572 394.56 103.248 393.9 104.04C393.9 99.54 390.74 97.71 386.84 99.96C384.785 101.3 383.075 103.106 381.848 105.231C380.621 107.356 379.913 109.74 379.78 112.19C379.78 112.42 379.78 112.64 379.78 112.86C378.775 112.734 377.759 112.967 376.91 113.52C375.382 114.516 374.11 115.858 373.198 117.437C372.286 119.017 371.759 120.789 371.66 122.61C371.66 123.033 371.703 123.456 371.79 123.87L370.91 124.38C368.52 125.76 366.58 128.45 366.58 130.38C366.58 132.31 368.52 132.77 370.91 131.38L402.91 112.93C405.3 111.55 407.24 108.86 407.24 106.93C407.24 105 405.29 104.44 402.9 105.83Z" fill="#EBEBEB"/>
</g>
<defs>
<clipPath id="clip0_700_7542">
<rect width="522" height="492" fill="white"/>
</clipPath>
</defs>
</svg>
