<svg width="522" height="492" viewBox="0 0 522 492" fill="none" xmlns="http://www.w3.org/2000/svg">
<rect width="522" height="492" fill="white"/>
<g clip-path="url(#clip0_700_7647)">
<path d="M511 387.4H11V387.65H511V387.4Z" fill="#E0E0E0"/>
<path d="M440.72 400.46H412.33V400.71H440.72V400.46Z" fill="#E0E0E0"/>
<path d="M405 400.58H379.63V400.83H405V400.58Z" fill="#E0E0E0"/>
<path d="M287.62 394.79H253.47V395.04H287.62V394.79Z" fill="#E0E0E0"/>
<path d="M352.02 402.54H304.56V402.79H352.02V402.54Z" fill="#E0E0E0"/>
<path d="M153.84 394.5H107.89V394.75H153.84V394.5Z" fill="#E0E0E0"/>
<path d="M175 394.5H159.39V394.75H175V394.5Z" fill="#E0E0E0"/>
<path d="M113.67 399H73.46V399.25H113.67V399Z" fill="#E0E0E0"/>
<path d="M248 342.8H54.91C53.3973 342.797 51.9475 342.195 50.8788 341.124C49.8102 340.053 49.21 338.603 49.21 337.09V65.66C49.2231 64.156 49.8292 62.718 50.8964 61.6582C51.9637 60.5985 53.4059 60.0026 54.91 60H248C249.514 60 250.967 60.6016 252.038 61.6724C253.108 62.7433 253.71 64.1956 253.71 65.71V337.09C253.71 338.604 253.108 340.057 252.038 341.128C250.967 342.198 249.514 342.8 248 342.8ZM54.91 60.2C53.4636 60.2026 52.0774 60.7791 51.0556 61.8027C50.0338 62.8264 49.46 64.2136 49.46 65.66V337.09C49.46 338.536 50.0338 339.924 51.0556 340.947C52.0774 341.971 53.4636 342.547 54.91 342.55H248C249.446 342.545 250.832 341.968 251.855 340.945C252.878 339.922 253.455 338.536 253.46 337.09V65.66C253.455 64.2135 252.878 62.8278 251.855 61.805C250.832 60.7822 249.446 60.2053 248 60.2H54.91Z" fill="#E0E0E0"/>
<path d="M464.31 342.8H271.21C269.697 342.795 268.248 342.191 267.178 341.122C266.109 340.052 265.505 338.603 265.5 337.09V65.66C265.516 64.1551 266.124 62.7171 267.193 61.6576C268.262 60.5981 269.705 60.0025 271.21 60H464.31C465.812 60.0052 467.252 60.6022 468.317 61.6617C469.382 62.7212 469.987 64.1578 470 65.66V337.09C470.001 337.839 469.855 338.58 469.57 339.272C469.285 339.964 468.866 340.593 468.338 341.123C467.809 341.654 467.182 342.075 466.491 342.362C465.799 342.65 465.059 342.799 464.31 342.8ZM271.21 60.2C269.764 60.2053 268.378 60.7822 267.355 61.805C266.332 62.8278 265.755 64.2135 265.75 65.66V337.09C265.755 338.536 266.332 339.922 267.355 340.945C268.378 341.968 269.764 342.545 271.21 342.55H464.31C465.756 342.545 467.142 341.968 468.165 340.945C469.188 339.922 469.765 338.536 469.77 337.09V65.66C469.765 64.2135 469.188 62.8278 468.165 61.805C467.142 60.7822 465.756 60.2053 464.31 60.2H271.21Z" fill="#E0E0E0"/>
<path d="M339.36 84.27H82.3601V213.83H339.36V84.27Z" fill="#E0E0E0"/>
<path d="M342.71 84.27H85.71V213.83H342.71V84.27Z" fill="#EFEFEF"/>
<path d="M336.7 90.34H91.73V207.74H336.7V90.34Z" fill="#F4F4F4"/>
<path d="M109.87 207.75L176.31 90.35H207.44L141.01 207.75H109.87Z" fill="white"/>
<path d="M151.46 207.75L217.9 90.35H249.03L182.6 207.75H151.46Z" fill="white"/>
<path d="M238 207.75L304.43 90.35H317.25L250.82 207.75H238Z" fill="white"/>
<path d="M256.95 90.34H247.89V207.74H256.95V90.34Z" fill="#E0E0E0"/>
<path d="M173.85 90.34H164.79V207.74H173.85V90.34Z" fill="#E0E0E0"/>
<path d="M260.13 85.83H251.07V211.61H260.13V85.83Z" fill="#F4F4F4"/>
<path d="M177.03 85.83H167.97V211.61H177.03V85.83Z" fill="#F4F4F4"/>
<path d="M336.7 90.34H334.17V207.74H336.7V90.34Z" fill="#E0E0E0"/>
<path d="M402.84 252.08C402.84 252.08 384.5 220.47 409.94 195.31C409.94 195.31 416.58 199.63 416.48 205.45C416.38 211.27 409.37 212.74 410.87 217.6C412.37 222.46 419 227.22 414.66 231.23C410.32 235.24 415.35 238.82 415.06 243.73C414.77 248.64 402.84 252.08 402.84 252.08Z" fill="#E0E0E0"/>
<path d="M405.72 257.25C405.72 257.25 413.15 221.47 381.07 205.61C381.07 205.61 376.14 211.81 378.07 217.3C380 222.79 387.12 221.98 387.22 227.06C387.32 232.14 382.54 238.75 387.93 241.19C393.32 243.63 389.66 248.61 391.49 253.19C393.32 257.77 405.72 257.25 405.72 257.25Z" fill="#EBEBEB"/>
<path d="M389.39 248.16C389.39 248.16 389.71 263.08 402.05 263.08C414.39 263.08 414.72 248.16 414.72 248.16H389.39Z" fill="#F4F4F4"/>
<path d="M303.76 251.46C303.76 251.46 304.18 263.08 320.41 263.08C336.64 263.08 337.07 251.46 337.07 251.46H303.76Z" fill="#EBEBEB"/>
<path d="M341.43 254.34C341.43 254.34 341.75 263.08 353.95 263.08C366.15 263.08 366.46 254.34 366.46 254.34H341.43Z" fill="#EBEBEB"/>
<path d="M315.19 270.33H287.87V379.9H315.19V270.33Z" fill="#EBEBEB"/>
<path d="M427.83 379.89H293.11V387.4H427.83V379.89Z" fill="#EBEBEB"/>
<path d="M433.08 270.32H315.19V379.89H433.08V270.32Z" fill="#F4F4F4"/>
<path d="M422.34 280.92H325.93V319.78H422.34V280.92Z" fill="#EBEBEB"/>
<path d="M422.34 326.86H325.93V365.72H422.34V326.86Z" fill="#EBEBEB"/>
<path d="M385 285.18H363.31C362.604 285.18 361.926 284.9 361.426 284.402C360.925 283.903 360.643 283.226 360.64 282.52C360.645 281.813 360.928 281.137 361.428 280.638C361.928 280.138 362.604 279.855 363.31 279.85H385C385.707 279.855 386.383 280.138 386.882 280.638C387.382 281.137 387.665 281.813 387.67 282.52C387.667 283.226 387.385 283.903 386.885 284.402C386.384 284.9 385.707 285.18 385 285.18Z" fill="#F4F4F4"/>
<path d="M385 331.12H363.31C362.604 331.12 361.926 330.84 361.426 330.342C360.925 329.843 360.643 329.166 360.64 328.46C360.645 327.753 360.928 327.077 361.428 326.578C361.928 326.078 362.604 325.795 363.31 325.79H385C385.707 325.795 386.383 326.078 386.882 326.578C387.382 327.077 387.665 327.753 387.67 328.46C387.667 329.166 387.385 329.843 386.885 330.342C386.384 330.84 385.707 331.12 385 331.12Z" fill="#F4F4F4"/>
<path d="M436.71 263.08H315.18V270.33H436.71V263.08Z" fill="#EBEBEB"/>
<path d="M315.18 263.07H284.04V270.32H315.18V263.07Z" fill="#E0E0E0"/>
<path d="M430.62 102.51H371.44V170.69H430.62V102.51Z" fill="#EBEBEB"/>
<path d="M437.34 102.51H373.21V170.69H437.34V102.51Z" fill="#F4F4F4"/>
<path d="M431.97 107.88H378.58V165.31H431.97V107.88Z" fill="white"/>
<path d="M414.32 121.8H396.23C393.629 121.8 391.52 123.909 391.52 126.51V146.68C391.52 149.281 393.629 151.39 396.23 151.39H414.32C416.921 151.39 419.03 149.281 419.03 146.68V126.51C419.03 123.909 416.921 121.8 414.32 121.8Z" fill="#F4F4F4"/>
<path d="M280.09 323.92H273.22V387.4H280.09V323.92Z" fill="#E0E0E0"/>
<path opacity="0.5" d="M280.09 323.92H276.65V387.4H280.09V323.92Z" fill="#F4F4F4"/>
<path d="M250 341.7H245.28C245.797 341.262 246.213 340.717 246.498 340.102C246.783 339.487 246.93 338.818 246.93 338.14H191C191.001 338.818 191.15 339.489 191.437 340.103C191.723 340.718 192.141 341.263 192.66 341.7H188C186.329 341.7 184.727 342.364 183.545 343.545C182.364 344.727 181.7 346.329 181.7 348V366.37C181.7 368.041 182.364 369.643 183.545 370.825C184.727 372.006 186.329 372.67 188 372.67H250C251.671 372.67 253.273 372.006 254.455 370.825C255.636 369.643 256.3 368.041 256.3 366.37V348C256.3 346.329 255.636 344.727 254.455 343.545C253.273 342.364 251.671 341.7 250 341.7Z" fill="#F4F4F4"/>
<path d="M198.27 355.27H160.66C158.318 355.27 156.42 357.168 156.42 359.51V368.43C156.42 370.772 158.318 372.67 160.66 372.67H198.27C200.612 372.67 202.51 370.772 202.51 368.43V359.51C202.51 357.168 200.612 355.27 198.27 355.27Z" fill="#EBEBEB"/>
<path d="M201.09 351.43H157.84C157.056 351.43 156.42 352.066 156.42 352.85V354.47C156.42 355.254 157.056 355.89 157.84 355.89H201.09C201.874 355.89 202.51 355.254 202.51 354.47V352.85C202.51 352.066 201.874 351.43 201.09 351.43Z" fill="#E0E0E0"/>
<path d="M206.76 295.57C206.76 295.57 207.41 316.57 232.01 316.57C256.61 316.57 257.26 295.57 257.26 295.57H206.76Z" fill="#EBEBEB"/>
<path d="M118.79 316.58H88.1101V323.92H118.79V316.58Z" fill="#E0E0E0"/>
<path d="M303.9 316.58H118.8V323.92H303.9V316.58Z" fill="#F4F4F4"/>
<path d="M118.79 372.67H88.1101V380.01H118.79V372.67Z" fill="#E0E0E0"/>
<path d="M94.9901 323.92H88.1201V387.4H94.9901V323.92Z" fill="#E0E0E0"/>
<path opacity="0.5" d="M94.99 323.92H91.55V387.4H94.99V323.92Z" fill="#F4F4F4"/>
<path d="M122.23 323.92H115.36V387.4H122.23V323.92Z" fill="#F4F4F4"/>
<path d="M118.8 323.92H115.36V387.4H118.8V323.92Z" fill="#E0E0E0"/>
<path d="M303.89 323.92H297.02V387.4H303.89V323.92Z" fill="#F4F4F4"/>
<path d="M300.46 323.92H297.02V387.4H300.46V323.92Z" fill="#E0E0E0"/>
<path d="M303.9 372.67H118.8V380.01H303.9V372.67Z" fill="#F4F4F4"/>
<path d="M168.16 312.25H130.84V316.58H168.16V312.25Z" fill="#E0E0E0"/>
<path d="M181.53 312.24H168.16V316.57H181.53V312.24Z" fill="#EBEBEB"/>
<path d="M261 432.56C368.083 432.56 454.89 427.492 454.89 421.24C454.89 414.988 368.083 409.92 261 409.92C153.918 409.92 67.1101 414.988 67.1101 421.24C67.1101 427.492 153.918 432.56 261 432.56Z" fill="#F5F5F5"/>
<path d="M228.87 155.7C228.94 167.55 220.45 167.43 220.62 163.7C220.79 159.97 218.69 151.21 220.62 152.06C222.55 152.91 228.84 150.46 228.87 155.7Z" fill="#1A2E35"/>
<path d="M223.53 177.16C224.7 177.07 227.05 178.16 227.26 181.25C227.315 182.148 227.577 183.021 228.027 183.8C228.476 184.579 229.1 185.243 229.85 185.74C229.85 185.74 225.96 186.21 223.41 184.19C221.33 182.56 220.41 178.99 221.5 178.19C222.099 177.711 222.79 177.36 223.53 177.16Z" fill="#1A2E35"/>
<path d="M222 168.74C224 170.51 225.83 175.19 221.32 177.41C216.81 179.63 209.72 174.41 209.72 174.41L217.51 170.8L222 168.74Z" fill="#1A2E35"/>
<path d="M224.22 177.59C224.111 176.942 223.93 176.308 223.68 175.7C223.661 175.649 223.632 175.603 223.596 175.563C223.559 175.524 223.514 175.492 223.465 175.47C223.416 175.447 223.363 175.435 223.308 175.433C223.254 175.432 223.201 175.441 223.15 175.46H223.07L220.3 177.31C220.255 177.34 220.217 177.379 220.187 177.424C220.158 177.469 220.137 177.519 220.127 177.572C220.117 177.625 220.117 177.68 220.128 177.732C220.139 177.785 220.16 177.835 220.19 177.88C220.222 177.922 220.259 177.959 220.3 177.99C220.7 178.281 221.129 178.529 221.58 178.73C222.23 178.99 223.58 178.25 224.04 177.93C224.098 177.894 224.145 177.844 224.176 177.784C224.208 177.725 224.223 177.658 224.22 177.59Z" fill="#572B92"/>
<path opacity="0.3" d="M224.22 177.59C224.111 176.942 223.93 176.308 223.68 175.7C223.661 175.649 223.632 175.603 223.596 175.563C223.559 175.524 223.514 175.492 223.465 175.47C223.416 175.447 223.363 175.435 223.308 175.433C223.254 175.432 223.201 175.441 223.15 175.46H223.07L220.3 177.31C220.255 177.34 220.217 177.379 220.187 177.424C220.158 177.469 220.137 177.519 220.127 177.572C220.117 177.625 220.117 177.68 220.128 177.732C220.139 177.785 220.16 177.835 220.19 177.88C220.222 177.922 220.259 177.959 220.3 177.99C220.7 178.281 221.129 178.529 221.58 178.73C222.23 178.99 223.58 178.25 224.04 177.93C224.098 177.894 224.145 177.844 224.176 177.784C224.208 177.725 224.223 177.658 224.22 177.59Z" fill="black"/>
<path d="M194.41 172.68C193.3 172.31 190.76 172.81 189.82 175.77C189.552 176.629 189.09 177.414 188.469 178.064C187.848 178.715 187.085 179.213 186.24 179.52C186.24 179.52 189.91 180.9 192.87 179.52C195.27 178.43 196.97 175.17 196.14 174.13C195.67 173.532 195.081 173.039 194.41 172.68Z" fill="#1A2E35"/>
<path d="M205.43 152.33C201.38 153.43 195.93 158.23 198.35 164.12C195.96 165.75 192.9 170.44 196.48 173.44C200.33 176.67 209.8 172.14 209.8 172.14L209.87 170.6L211 159.14L205.43 152.33Z" fill="#1A2E35"/>
<path d="M193.64 172.94C193.906 172.333 194.242 171.76 194.64 171.23C194.71 171.144 194.812 171.089 194.923 171.078C195.033 171.067 195.144 171.1 195.23 171.17L195.29 171.23L197.53 173.68C197.568 173.718 197.598 173.763 197.619 173.813C197.64 173.863 197.65 173.916 197.65 173.97C197.65 174.024 197.64 174.077 197.619 174.127C197.598 174.177 197.568 174.222 197.53 174.26C197.499 174.298 197.457 174.326 197.41 174.34C196.956 174.526 196.483 174.664 196 174.75C195.3 174.85 194.22 173.82 193.8 173.4C193.73 173.348 193.677 173.277 193.649 173.195C193.62 173.113 193.617 173.024 193.64 172.94Z" fill="#572B92"/>
<path opacity="0.3" d="M193.64 172.94C193.906 172.333 194.242 171.76 194.64 171.23C194.71 171.144 194.812 171.089 194.923 171.078C195.033 171.067 195.144 171.1 195.23 171.17L195.29 171.23L197.53 173.68C197.568 173.718 197.598 173.763 197.619 173.813C197.64 173.863 197.65 173.916 197.65 173.97C197.65 174.024 197.64 174.077 197.619 174.127C197.598 174.177 197.568 174.222 197.53 174.26C197.499 174.298 197.457 174.326 197.41 174.34C196.956 174.526 196.483 174.664 196 174.75C195.3 174.85 194.22 173.82 193.8 173.4C193.73 173.348 193.677 173.277 193.649 173.195C193.62 173.113 193.617 173.024 193.64 172.94Z" fill="black"/>
<path d="M230.08 194.07C231.99 195.55 234.08 197.13 236.18 198.57C238.28 200.01 240.39 201.46 242.56 202.79C244.73 204.12 246.93 205.36 249.15 206.54L250.82 207.39L252.52 208.18C253.08 208.45 253.65 208.69 254.23 208.91L255.08 209.26C255.37 209.37 255.68 209.51 255.86 209.56C256.906 209.879 257.976 210.109 259.06 210.25C260.24 210.42 261.48 210.54 262.74 210.63C265.25 210.79 267.83 210.86 270.42 210.87C273.01 210.88 275.63 210.87 278.24 210.79L286.09 210.57L286.58 214.5C281.327 215.558 276.024 216.342 270.69 216.85C268 217.09 265.3 217.27 262.54 217.29C261.16 217.29 259.76 217.29 258.32 217.16C256.771 217.07 255.236 216.819 253.74 216.41C253.28 216.29 252.99 216.17 252.65 216.06L251.65 215.71C250.98 215.49 250.32 215.25 249.65 214.98L247.71 214.2L245.81 213.36C243.298 212.229 240.851 210.961 238.48 209.56C236.12 208.17 233.8 206.73 231.56 205.19C229.273 203.641 227.07 201.972 224.96 200.19L230.08 194.07Z" fill="#FD897B"/>
<path d="M219.7 189.58C222.19 187.64 232.44 193.99 235.56 196.64L233.29 210.37C233.29 210.37 218.54 204.19 217.65 199.97C216.73 195.56 217.82 191.06 219.7 189.58Z" fill="#1A2E35"/>
<path d="M285 210.91L291.18 206.12L291.67 213.53C291.67 213.53 287.41 216.17 284.6 214.53L285 210.91Z" fill="#FD897B"/>
<path d="M296.69 205.39L299.85 208.91L291.63 213.53L291.14 206.12L296.69 205.39Z" fill="#FD897B"/>
<path d="M179.28 411.47L187.07 412.05L189.91 394.12L182.13 393.54L179.28 411.47Z" fill="#FD897B"/>
<path d="M124.17 386.41L130.78 390.57L142.55 376.61L135.94 372.44L124.17 386.41Z" fill="#FD897B"/>
<path d="M132.87 389.08L126.68 382.85C126.573 382.743 126.432 382.679 126.281 382.668C126.131 382.657 125.981 382.7 125.86 382.79L120.23 387C119.97 387.21 119.805 387.514 119.769 387.846C119.733 388.178 119.831 388.51 120.04 388.77L120.13 388.87C122.32 391 123.49 391.92 126.21 394.66C127.88 396.35 130.15 398.98 132.46 401.31C134.77 403.64 137.19 401.47 136.46 400.31C133.08 395.04 133.69 393.07 133.46 390.39C133.432 389.895 133.222 389.429 132.87 389.08Z" fill="#1A2E35"/>
<path d="M187.59 410.93H178.81C178.656 410.93 178.506 410.984 178.387 411.082C178.269 411.181 178.188 411.318 178.16 411.47L176.77 418.41C176.714 418.715 176.78 419.029 176.954 419.286C177.128 419.542 177.396 419.719 177.7 419.78C177.793 419.79 177.887 419.79 177.98 419.78C181.04 419.78 182.53 419.55 186.39 419.55C188.76 419.55 195.39 419.79 198.7 419.79C202.01 419.79 202.34 416.55 200.99 416.26C194.99 414.94 190.86 413.13 188.89 411.39C188.528 411.083 188.065 410.919 187.59 410.93Z" fill="#1A2E35"/>
<path d="M189.91 394.12L188.33 404.08L180.65 402.79L182.12 393.55L189.91 394.12Z" fill="#E77064"/>
<path d="M135.94 372.45L142.55 376.61L137.68 382.39L130.92 378.4L135.94 372.45Z" fill="#E77064"/>
<path d="M185.2 231.13L216.34 237.2C232.43 193.63 228.93 192.2 228.93 192.2C226.668 190.955 224.33 189.853 221.93 188.9L221.51 188.74C219.51 188.01 219.11 187.9 216.45 187.12C211.87 186.03 207.6 185.12 202.31 184.37L201.31 184.23C200.31 184.11 199.4 184.01 198.48 183.92C197.86 183.85 197.24 183.81 196.65 183.77L194.65 183.66C191.23 183.49 188.78 183.54 188.78 183.54C189.73 210.75 188.19 218.56 185.2 231.13Z" fill="#1A2E35"/>
<path d="M206.81 168.74C206.81 173.46 206.08 181.97 202.3 184.39C202.3 184.39 202.65 189.25 211.1 190.89C220.4 192.7 216.44 187.14 216.44 187.14C211.61 184.94 212.44 181.2 214.04 177.84L206.81 168.74Z" fill="#FD897B"/>
<path d="M209.76 172.45L214.04 177.84C213.669 178.621 213.361 179.43 213.12 180.26C211.23 179.6 208.98 176.96 209.12 174.89C209.181 174.044 209.398 173.217 209.76 172.45Z" fill="#E77064"/>
<path d="M206.36 157.9C205.36 165.59 204.75 168.82 207.83 173.47C212.46 180.47 222.12 180.02 225.41 172.79C228.41 166.28 229.53 154.79 222.68 150.34C221.521 149.575 220.223 149.045 218.859 148.781C217.496 148.518 216.094 148.526 214.733 148.804C213.373 149.083 212.08 149.627 210.93 150.405C209.78 151.183 208.794 152.181 208.03 153.34C207.13 154.711 206.559 156.272 206.36 157.9Z" fill="#FD897B"/>
<path d="M231.39 145.72C231.531 146.94 231.439 148.175 231.12 149.36C231.048 148.958 230.951 148.56 230.83 148.17C228.09 139.11 215.75 141.27 212.03 145.17C206.03 143.45 200.32 144.82 201.08 152.17C201.175 154.064 201.856 155.881 203.03 157.37C202.1 159.95 203.03 164.06 206.1 164.18C210.42 164.35 214.52 158.63 216.17 155.49C219.17 156 223.49 156.49 226.77 155.69C227.32 156.02 227.77 156.25 227.77 156.25C231.26 154.38 233.92 152.57 231.39 145.72Z" fill="#1A2E35"/>
<path d="M203.7 163.15C203.58 164.642 204.05 166.121 205.01 167.27C206.31 168.78 208.01 167.89 208.62 166.1C209.13 164.48 209.06 161.75 207.32 160.9C207.018 160.758 206.691 160.677 206.358 160.661C206.024 160.646 205.691 160.696 205.377 160.81C205.063 160.923 204.775 161.097 204.528 161.322C204.282 161.547 204.082 161.818 203.94 162.12C203.79 162.443 203.708 162.794 203.7 163.15Z" fill="#FD897B"/>
<path d="M215.87 237.2C215.87 237.2 215.99 299.02 210.93 322.3C205.67 346.52 190.2 401.62 190.2 401.62L179 400.17C179 400.17 187.77 344.51 191.5 320.44C195.57 294.21 193.08 232.76 193.08 232.76L215.87 237.2Z" fill="#572B92"/>
<path opacity="0.3" d="M215.87 237.2C215.87 237.2 215.99 299.02 210.93 322.3C205.67 346.52 190.2 401.62 190.2 401.62L179 400.17C179 400.17 187.77 344.51 191.5 320.44C195.57 294.21 193.08 232.76 193.08 232.76L215.87 237.2Z" fill="black"/>
<path d="M192.11 402.59L177.08 400.65L177.72 395.33L194.78 397.33L192.11 402.59Z" fill="#1A2E35"/>
<path d="M208.12 235.6C208.12 235.6 191.35 286.69 183.02 316.12C174.24 347.17 140.58 381.51 140.58 381.51L130.93 375.93C130.93 375.93 153.93 343.33 162.38 314.36C179.59 255.55 172.52 243.09 185.2 231.13L208.12 235.6Z" fill="#572B92"/>
<path opacity="0.3" d="M208.12 235.6C208.12 235.6 191.35 286.69 183.02 316.12C174.24 347.17 140.58 381.51 140.58 381.51L130.93 375.93C130.93 375.93 153.93 343.33 162.38 314.36C179.59 255.55 172.52 243.09 185.2 231.13L208.12 235.6Z" fill="black"/>
<path d="M142.15 383.06L128.74 375.32L132.08 370.54L146.97 378.75L142.15 383.06Z" fill="#1A2E35"/>
<path d="M217.46 162.27C217.34 162.89 217.57 163.45 217.98 163.53C218.39 163.61 218.81 163.17 218.98 162.53C219.15 161.89 218.87 161.34 218.46 161.26C218.05 161.18 217.58 161.65 217.46 162.27Z" fill="#1A2E35"/>
<path d="M224.45 163.63C224.33 164.25 224.56 164.82 224.97 164.9C225.38 164.98 225.8 164.54 225.92 163.9C226.04 163.26 225.81 162.71 225.4 162.64C224.99 162.57 224.57 163 224.45 163.63Z" fill="#1A2E35"/>
<path d="M225.22 162.65L226.79 162.52C226.79 162.52 225.8 163.53 225.22 162.65Z" fill="#1A2E35"/>
<path d="M222.4 164.34C222.676 165.856 223.161 167.327 223.84 168.71C223.482 168.878 223.091 168.965 222.695 168.965C222.299 168.965 221.908 168.878 221.55 168.71L222.4 164.34Z" fill="#FD5652"/>
<path d="M218.93 170.71C218.094 170.573 217.304 170.236 216.627 169.728C215.949 169.219 215.405 168.554 215.04 167.79C215.03 167.768 215.024 167.745 215.024 167.721C215.023 167.697 215.027 167.674 215.035 167.651C215.043 167.629 215.056 167.608 215.072 167.591C215.089 167.574 215.108 167.56 215.13 167.55C215.175 167.533 215.225 167.534 215.27 167.553C215.314 167.571 215.35 167.606 215.37 167.65C215.719 168.352 216.229 168.963 216.858 169.432C217.487 169.901 218.217 170.216 218.99 170.35C219.014 170.354 219.037 170.362 219.057 170.375C219.078 170.387 219.095 170.404 219.109 170.423C219.123 170.443 219.133 170.465 219.139 170.489C219.144 170.512 219.144 170.536 219.14 170.56C219.13 170.607 219.103 170.648 219.064 170.676C219.026 170.704 218.978 170.716 218.93 170.71Z" fill="#1A2E35"/>
<path d="M215.87 159.61C215.773 159.605 215.682 159.565 215.614 159.496C215.545 159.428 215.505 159.337 215.5 159.24C215.504 159.138 215.547 159.041 215.62 158.97C216.048 158.567 216.567 158.273 217.132 158.111C217.698 157.949 218.293 157.925 218.87 158.04C218.965 158.068 219.045 158.132 219.093 158.217C219.142 158.303 219.155 158.405 219.13 158.5C219.118 158.546 219.098 158.589 219.069 158.627C219.041 158.665 219.005 158.697 218.964 158.722C218.923 158.746 218.878 158.762 218.831 158.768C218.784 158.775 218.736 158.772 218.69 158.76C218.232 158.679 217.761 158.705 217.315 158.837C216.869 158.969 216.46 159.203 216.12 159.52C216.051 159.581 215.962 159.613 215.87 159.61Z" fill="#1A2E35"/>
<path d="M228.33 161C228.257 161.001 228.185 160.979 228.124 160.938C228.063 160.897 228.016 160.838 227.99 160.77C227.817 160.342 227.547 159.959 227.202 159.652C226.857 159.345 226.446 159.122 226 159C225.952 158.992 225.906 158.974 225.865 158.948C225.824 158.921 225.789 158.887 225.761 158.847C225.733 158.807 225.713 158.762 225.703 158.715C225.692 158.667 225.691 158.618 225.7 158.57C225.719 158.474 225.775 158.39 225.855 158.334C225.935 158.278 226.033 158.255 226.13 158.27C226.7 158.412 227.228 158.689 227.67 159.077C228.112 159.465 228.455 159.953 228.67 160.5C228.69 160.545 228.701 160.593 228.702 160.642C228.703 160.69 228.695 160.739 228.677 160.785C228.659 160.83 228.633 160.872 228.599 160.907C228.565 160.942 228.525 160.97 228.48 160.99L228.33 161Z" fill="#1A2E35"/>
<path d="M218.3 167.75C217.99 167.751 217.685 167.68 217.407 167.543C217.129 167.406 216.887 167.207 216.7 166.96C216.23 166.227 215.916 165.404 215.778 164.543C215.641 163.683 215.682 162.804 215.9 161.96C216.47 158.8 218.45 156.23 220.32 156.23C220.631 156.234 220.937 156.309 221.216 156.447C221.495 156.586 221.739 156.785 221.93 157.03C222.4 157.763 222.714 158.586 222.852 159.447C222.989 160.307 222.948 161.186 222.73 162.03C222.16 165.19 220.17 167.75 218.3 167.75ZM220.3 156.51C218.55 156.51 216.67 158.99 216.12 162.03C215.77 164.03 216.05 165.83 216.87 166.8C217.036 167.016 217.25 167.192 217.494 167.313C217.738 167.435 218.007 167.499 218.28 167.5C220.04 167.5 221.91 165.03 222.46 161.99C222.672 161.186 222.715 160.347 222.586 159.526C222.457 158.705 222.159 157.92 221.71 157.22C221.548 157.003 221.338 156.827 221.097 156.704C220.856 156.58 220.591 156.514 220.32 156.51H220.3Z" fill="#F9F9F9"/>
<path d="M226.07 168.75C225.746 168.745 225.428 168.667 225.138 168.522C224.849 168.376 224.597 168.167 224.4 167.91C223.951 167.237 223.647 166.477 223.508 165.68C223.368 164.883 223.396 164.066 223.59 163.28C224.1 160.34 226.02 157.96 227.87 157.96C228.194 157.969 228.512 158.049 228.801 158.196C229.09 158.343 229.342 158.553 229.54 158.81C229.985 159.483 230.286 160.241 230.426 161.036C230.565 161.831 230.539 162.646 230.35 163.43C229.85 166.38 227.93 168.75 226.07 168.75ZM227.84 158.21C226.1 158.21 224.3 160.5 223.84 163.33C223.661 164.08 223.635 164.858 223.766 165.618C223.897 166.378 224.18 167.103 224.6 167.75C224.779 167.974 225.003 168.156 225.258 168.286C225.514 168.415 225.794 168.488 226.08 168.5C227.82 168.5 229.63 166.22 230.08 163.39C230.258 162.641 230.283 161.863 230.154 161.104C230.025 160.344 229.745 159.619 229.33 158.97C229.152 158.745 228.928 158.56 228.673 158.429C228.417 158.298 228.137 158.223 227.85 158.21H227.84Z" fill="#F9F9F9"/>
<path d="M135.17 392.71C134.17 392.71 133.17 391.17 132.58 390.28C132.56 390.25 132.55 390.216 132.55 390.18C132.55 390.144 132.56 390.11 132.58 390.08C132.601 390.051 132.63 390.028 132.664 390.014C132.697 390 132.734 389.995 132.77 390C133.09 390.07 135.84 390.67 136.19 391.61C136.23 391.714 136.24 391.826 136.221 391.935C136.202 392.045 136.153 392.146 136.08 392.23C135.986 392.385 135.852 392.511 135.691 392.596C135.531 392.681 135.351 392.72 135.17 392.71ZM133.08 390.46C133.85 391.62 134.6 392.31 135.14 392.34C135.26 392.341 135.378 392.311 135.483 392.253C135.588 392.196 135.677 392.112 135.74 392.01C135.774 391.975 135.796 391.93 135.805 391.882C135.814 391.834 135.809 391.785 135.79 391.74C135.61 391.24 134.18 390.74 133.08 390.46Z" fill="#572B92"/>
<path d="M133.53 390.46C133.227 390.461 132.925 390.428 132.63 390.36C132.6 390.35 132.573 390.332 132.55 390.31C132.527 390.287 132.51 390.26 132.5 390.23C132.48 390.172 132.48 390.108 132.5 390.05C132.57 389.99 134.1 388.48 135.23 388.48H135.31C135.45 388.489 135.586 388.528 135.71 388.593C135.834 388.659 135.943 388.75 136.03 388.86C136.132 388.967 136.195 389.104 136.21 389.251C136.224 389.398 136.189 389.545 136.11 389.67C135.79 390.21 134.51 390.46 133.53 390.46ZM133.08 390.07C134.02 390.18 135.54 389.91 135.85 389.46C135.9 389.39 135.94 389.28 135.79 389.09C135.738 389.016 135.669 388.956 135.589 388.915C135.509 388.873 135.42 388.851 135.33 388.85C134.471 389.011 133.684 389.438 133.08 390.07Z" fill="#572B92"/>
<path d="M190.46 412.3C189.632 412.28 188.808 412.18 188 412C187.961 411.992 187.926 411.972 187.899 411.944C187.873 411.915 187.855 411.879 187.85 411.84C187.845 411.802 187.853 411.763 187.87 411.73C187.888 411.696 187.916 411.668 187.95 411.65C188.32 411.47 191.53 409.87 192.46 410.41C192.544 410.464 192.613 410.538 192.662 410.625C192.711 410.712 192.738 410.81 192.74 410.91C192.751 411.079 192.721 411.248 192.653 411.402C192.585 411.557 192.481 411.694 192.35 411.8C191.793 412.173 191.128 412.349 190.46 412.3ZM188.63 411.76C190.34 412.04 191.63 411.97 192.13 411.54C192.216 411.467 192.283 411.374 192.326 411.27C192.37 411.166 192.388 411.053 192.38 410.94C192.382 410.902 192.374 410.865 192.356 410.831C192.338 410.798 192.312 410.77 192.28 410.75C191.78 410.46 190 411.14 188.63 411.75V411.76Z" fill="#572B92"/>
<path d="M188.05 412H187.94C187.911 411.981 187.887 411.954 187.873 411.922C187.859 411.89 187.854 411.855 187.86 411.82C187.86 411.68 188.34 408.5 190.08 408.5H190.23C190.73 408.55 190.87 408.8 190.9 409.01C191.04 409.89 189.1 411.59 188.12 412.01L188.05 412ZM190.05 408.84C188.92 408.84 188.42 410.68 188.25 411.48C189.25 410.89 190.58 409.56 190.5 409.03C190.5 409.03 190.5 408.87 190.15 408.84H190.05Z" fill="#572B92"/>
<path d="M218.23 161.29L219.8 161.15C219.8 161.15 218.81 162.17 218.23 161.29Z" fill="#1A2E35"/>
<path d="M211.36 197.54C198.36 192.61 194.3 185.23 194.61 183.68L196.61 183.8H197C197.499 183.813 197.996 183.856 198.49 183.93C199.41 184.01 200.36 184.11 201.32 184.24L202.32 184.38C207.093 184.961 211.818 185.879 216.46 187.13C218.58 187.75 219.28 187.95 220.46 188.37L221.46 188.75L221.88 188.91C222.92 191.15 222.69 195.73 211.36 197.54Z" fill="#FD897B"/>
<path d="M211.36 197.54C198.36 192.61 194.3 185.23 194.61 183.68L196.61 183.8H197C199.64 187.55 205.42 192.73 211.31 193.44C216.05 192.44 220.52 191.3 220.48 188.37L221.48 188.75L221.9 188.91C222.92 191.15 222.69 195.73 211.36 197.54Z" fill="#572B92"/>
<path opacity="0.3" d="M211.36 197.54C198.36 192.61 194.3 185.23 194.61 183.68L196.61 183.8H197C199.64 187.55 205.42 192.73 211.31 193.44C216.05 192.44 220.52 191.3 220.48 188.37L221.48 188.75L221.9 188.91C222.92 191.15 222.69 195.73 211.36 197.54Z" fill="black"/>
<path d="M185.09 229.21L183.09 231.73C182.94 231.92 183.16 232.19 183.52 232.26L216.18 238.62C216.46 238.68 216.72 238.62 216.77 238.41L217.59 235.68C217.65 235.49 217.44 235.28 217.13 235.22L185.59 229.08C185.502 229.061 185.411 229.063 185.324 229.085C185.238 229.108 185.157 229.15 185.09 229.21Z" fill="#1A2E35"/>
<path d="M188.64 233.56L187.8 233.4C187.63 233.4 187.52 233.26 187.55 233.15L188.65 229.61C188.65 229.5 188.85 229.45 189.01 229.48L189.86 229.64C190.03 229.64 190.14 229.79 190.11 229.89L189.01 233.44C188.971 233.499 188.914 233.543 188.846 233.565C188.779 233.587 188.706 233.585 188.64 233.56Z" fill="#572B92"/>
<path opacity="0.3" d="M188.64 233.56L187.8 233.4C187.63 233.4 187.52 233.26 187.55 233.15L188.65 229.61C188.65 229.5 188.85 229.45 189.01 229.48L189.86 229.64C190.03 229.64 190.14 229.79 190.11 229.89L189.01 233.44C188.971 233.499 188.914 233.543 188.846 233.565C188.779 233.587 188.706 233.585 188.64 233.56Z" fill="black"/>
<path d="M190.86 195.61C190.48 197.98 190.12 200.61 189.86 203.07C189.6 205.53 189.37 208.07 189.25 210.63C189.183 211.89 189.143 213.15 189.13 214.41V218.16C189.18 220.609 189.37 223.053 189.7 225.48C189.891 226.31 190.229 227.1 190.7 227.81C191.302 228.782 191.97 229.711 192.7 230.59C194.298 232.487 196.007 234.287 197.82 235.98C199.65 237.74 201.57 239.44 203.54 241.1C205.51 242.76 207.54 244.41 209.54 246L207.39 249.32C202.683 246.742 198.183 243.803 193.93 240.53C191.732 238.85 189.66 237.012 187.73 235.03C186.698 233.97 185.752 232.83 184.9 231.62C183.842 230.192 183.09 228.562 182.69 226.83L182.32 224.71C182.19 224.02 182.1 223.33 182.02 222.65C181.82 221.27 181.71 219.9 181.6 218.53C181.392 215.805 181.328 213.071 181.41 210.34C181.49 207.63 181.64 204.93 181.91 202.24C182.18 199.55 182.52 196.91 183.06 194.13L190.86 195.61Z" fill="#FD897B"/>
<path d="M184.22 185.63C179.94 189.09 180.96 199.37 180.96 199.37L195.36 204.11C195.36 204.11 194.7 192.26 194 188C193.14 182.93 188.42 182.22 184.22 185.63Z" fill="#1A2E35"/>
<path d="M207.78 245.36L214.29 242.94L213.29 249.13C213.29 249.13 208.57 250.83 206.15 248.65L207.78 245.36Z" fill="#FD897B"/>
<path d="M222.04 243.86V248.64L213.29 249.13L214.29 242.94L222.04 243.86Z" fill="#FD897B"/>
<path d="M213.79 238.46L212.95 238.3C212.78 238.3 212.67 238.16 212.7 238.05L213.8 234.51C213.8 234.4 214 234.35 214.17 234.38L215.01 234.54C215.18 234.54 215.29 234.69 215.26 234.79L214.16 238.34C214.13 238.44 214 238.5 213.79 238.46Z" fill="#572B92"/>
<path opacity="0.3" d="M213.79 238.46L212.95 238.3C212.78 238.3 212.67 238.16 212.7 238.05L213.8 234.51C213.8 234.4 214 234.35 214.17 234.38L215.01 234.54C215.18 234.54 215.29 234.69 215.26 234.79L214.16 238.34C214.13 238.44 214 238.5 213.79 238.46Z" fill="black"/>
<path d="M201.22 236L200.37 235.84C200.2 235.84 200.09 235.7 200.13 235.59L201.23 232.05C201.23 231.94 201.42 231.89 201.59 231.92L202.44 232.08C202.6 232.08 202.72 232.23 202.68 232.33L201.58 235.88C201.55 236 201.39 236.05 201.22 236Z" fill="#572B92"/>
<path opacity="0.3" d="M201.22 236L200.37 235.84C200.2 235.84 200.09 235.7 200.13 235.59L201.23 232.05C201.23 231.94 201.42 231.89 201.59 231.92L202.44 232.08C202.6 232.08 202.72 232.23 202.68 232.33L201.58 235.88C201.55 236 201.39 236.05 201.22 236Z" fill="black"/>
<path d="M137.53 294.31L189.37 407.53C190.558 410.103 192.717 412.102 195.373 413.089C198.03 414.076 200.97 413.972 203.55 412.8L211.78 409.04L402.35 321.79C404.924 320.605 406.925 318.45 407.914 315.795C408.904 313.139 408.801 310.2 407.63 307.62L361.82 207.62L355.82 194.41C354.628 191.841 352.469 189.846 349.814 188.859C347.159 187.872 344.221 187.973 341.64 189.14L142.83 280.14C140.256 281.325 138.254 283.479 137.262 286.133C136.269 288.788 136.365 291.727 137.53 294.31Z" fill="#572B92"/>
<path opacity="0.1" d="M137.53 294.31L189.37 407.53C190.558 410.103 192.717 412.102 195.373 413.089C198.03 414.076 200.97 413.972 203.55 412.8L211.78 409.04L402.35 321.79C404.924 320.605 406.925 318.45 407.914 315.795C408.904 313.139 408.801 310.2 407.63 307.62L361.82 207.62L355.82 194.41C354.628 191.841 352.469 189.846 349.814 188.859C347.159 187.872 344.221 187.973 341.64 189.14L142.83 280.14C140.256 281.325 138.254 283.479 137.262 286.133C136.269 288.788 136.365 291.727 137.53 294.31Z" fill="white"/>
<path d="M376.827 240.333L158.573 340.257L184.116 396.048L402.37 296.124L376.827 240.333Z" fill="#572B92"/>
<path opacity="0.3" d="M376.827 240.333L158.573 340.257L184.116 396.048L402.37 296.124L376.827 240.333Z" fill="white"/>
<path d="M367.789 266.143L229.867 329.289L239.008 349.256L376.93 286.11L367.789 266.143Z" fill="#572B92"/>
<path opacity="0.8" d="M367.789 266.143L229.867 329.289L239.008 349.256L376.93 286.11L367.789 266.143Z" fill="white"/>
<path d="M369.356 220.001L150.927 320.837L164.679 350.626L383.108 249.79L369.356 220.001Z" fill="#572B92"/>
<path opacity="0.3" d="M369.356 220.001L150.927 320.837L164.679 350.626L383.108 249.79L369.356 220.001Z" fill="black"/>
<path d="M167.17 295.73L211.78 409L402.35 321.75C404.924 320.565 406.925 318.41 407.914 315.755C408.904 313.099 408.801 310.16 407.63 307.58L361.82 207.58L173.21 281.86C170.577 282.908 168.465 284.953 167.334 287.551C166.202 290.149 166.143 293.089 167.17 295.73Z" fill="#572B92"/>
<path d="M419.408 259.926L418.464 260.257L420.025 264.701L420.969 264.369L419.408 259.926Z" fill="#572B92"/>
<path opacity="0.1" d="M419.408 259.926L418.464 260.257L420.025 264.701L420.969 264.369L419.408 259.926Z" fill="white"/>
<path d="M411.533 237.591L410.589 237.922L416.739 255.434L417.682 255.102L411.533 237.591Z" fill="#572B92"/>
<path opacity="0.1" d="M411.533 237.591L410.589 237.922L416.739 255.434L417.682 255.102L411.533 237.591Z" fill="white"/>
<path d="M180.44 282.25L386.74 209.8C389.416 208.869 392.352 209.035 394.907 210.262C397.461 211.49 399.425 213.678 400.37 216.35L441.63 333.84C442.562 336.516 442.398 339.453 441.172 342.008C439.947 344.564 437.76 346.531 435.09 347.48L228.79 419.93C226.112 420.856 223.177 420.688 220.622 419.461C218.068 418.235 216.101 416.049 215.15 413.38L173.89 295.89C172.958 293.212 173.124 290.275 174.351 287.719C175.579 285.163 177.768 283.197 180.44 282.25Z" fill="#572B92"/>
<path opacity="0.1" d="M180.44 282.25L386.74 209.8C389.416 208.869 392.352 209.035 394.907 210.262C397.461 211.49 399.425 213.678 400.37 216.35L441.63 333.84C442.562 336.516 442.398 339.453 441.172 342.008C439.947 344.564 437.76 346.531 435.09 347.48L228.79 419.93C226.112 420.856 223.177 420.688 220.622 419.461C218.068 418.235 216.101 416.049 215.15 413.38L173.89 295.89C172.958 293.212 173.124 290.275 174.351 287.719C175.579 285.163 177.768 283.197 180.44 282.25Z" fill="white"/>
<path d="M416.165 261.312L189.685 340.846L207.633 391.956L434.114 312.422L416.165 261.312Z" fill="#572B92"/>
<path opacity="0.3" d="M416.165 261.312L189.685 340.846L207.633 391.956L434.114 312.422L416.165 261.312Z" fill="white"/>
<path d="M389.055 236.438L342.238 252.879L344.799 260.172L391.616 243.731L389.055 236.438Z" fill="#572B92"/>
<path opacity="0.8" d="M389.055 236.438L342.238 252.879L344.799 260.172L391.616 243.731L389.055 236.438Z" fill="white"/>
<path d="M420.422 325.753L382.861 338.943L384.199 342.755L421.76 329.565L420.422 325.753Z" fill="#572B92"/>
<path opacity="0.8" d="M420.422 325.753L382.861 338.943L384.199 342.755L421.76 329.565L420.422 325.753Z" fill="white"/>
<path d="M422.977 333.046L374.575 350.043L375.913 353.855L424.316 336.857L422.977 333.046Z" fill="#572B92"/>
<path opacity="0.8" d="M422.977 333.046L374.575 350.043L375.913 353.855L424.316 336.857L422.977 333.046Z" fill="white"/>
<path d="M250.391 388.727L226.19 397.226L229.069 405.425L253.27 396.926L250.391 388.727Z" fill="#572B92"/>
<path opacity="0.8" d="M250.391 388.727L226.19 397.226L229.069 405.425L253.27 396.926L250.391 388.727Z" fill="white"/>
<path d="M379.79 318.5L408.05 308.58C409.54 308.05 410.76 306.953 411.445 305.528C412.131 304.103 412.226 302.465 411.71 300.97C411.18 299.48 410.083 298.26 408.658 297.575C407.233 296.889 405.595 296.794 404.1 297.31L375.83 307.24C374.34 307.77 373.12 308.867 372.435 310.292C371.749 311.717 371.654 313.355 372.17 314.85C372.702 316.34 373.801 317.56 375.229 318.244C376.656 318.927 378.295 319.019 379.79 318.5Z" fill="#572B92"/>
<path d="M331.38 335.5L359.65 325.57C361.129 325.038 362.339 323.946 363.022 322.531C363.704 321.115 363.804 319.488 363.3 318C362.768 316.512 361.67 315.294 360.245 314.611C358.821 313.927 357.184 313.834 355.69 314.35L327.43 324.28C325.94 324.81 324.72 325.907 324.035 327.332C323.349 328.757 323.254 330.395 323.77 331.89C324.31 333.371 325.411 334.579 326.835 335.255C328.259 335.93 329.892 336.018 331.38 335.5Z" fill="#572B92"/>
<path d="M283 352.5L311.27 342.57C312.745 342.034 313.951 340.941 314.63 339.526C315.308 338.11 315.405 336.486 314.9 335C314.368 333.512 313.27 332.294 311.845 331.611C310.421 330.927 308.784 330.834 307.29 331.35L279 341.24C277.512 341.772 276.294 342.87 275.611 344.295C274.927 345.72 274.834 347.356 275.35 348.85C275.882 350.347 276.986 351.573 278.42 352.257C279.854 352.941 281.502 353.029 283 352.5Z" fill="#572B92"/>
<path d="M234.57 369.5L262.84 359.57C264.32 359.04 265.533 357.949 266.218 356.533C266.902 355.118 267.004 353.49 266.5 352C265.968 350.512 264.87 349.294 263.445 348.611C262.021 347.927 260.384 347.834 258.89 348.35L230.62 358.28C229.13 358.81 227.91 359.907 227.225 361.332C226.539 362.757 226.444 364.395 226.96 365.89C227.5 367.371 228.601 368.579 230.025 369.255C231.449 369.93 233.082 370.018 234.57 369.5Z" fill="#572B92"/>
<g opacity="0.8">
<path d="M379.79 318.5L408.05 308.58C409.54 308.05 410.76 306.953 411.445 305.528C412.131 304.103 412.226 302.465 411.71 300.97C411.18 299.48 410.083 298.26 408.658 297.575C407.233 296.889 405.595 296.794 404.1 297.31L375.83 307.24C374.34 307.77 373.12 308.867 372.435 310.292C371.749 311.717 371.654 313.355 372.17 314.85C372.702 316.34 373.801 317.56 375.229 318.244C376.656 318.927 378.295 319.019 379.79 318.5Z" fill="white"/>
<path d="M331.38 335.5L359.65 325.57C361.129 325.038 362.339 323.946 363.022 322.531C363.704 321.115 363.804 319.488 363.3 318C362.768 316.512 361.67 315.294 360.245 314.611C358.821 313.927 357.184 313.834 355.69 314.35L327.43 324.28C325.94 324.81 324.72 325.907 324.035 327.332C323.349 328.757 323.254 330.395 323.77 331.89C324.31 333.371 325.411 334.579 326.835 335.255C328.259 335.93 329.892 336.018 331.38 335.5Z" fill="white"/>
<path d="M283 352.5L311.27 342.57C312.745 342.034 313.951 340.941 314.63 339.526C315.308 338.11 315.405 336.486 314.9 335C314.368 333.512 313.27 332.294 311.845 331.611C310.421 330.927 308.784 330.834 307.29 331.35L279 341.24C277.512 341.772 276.294 342.87 275.611 344.295C274.927 345.72 274.834 347.356 275.35 348.85C275.882 350.347 276.986 351.573 278.42 352.257C279.854 352.941 281.502 353.029 283 352.5Z" fill="white"/>
<path d="M234.57 369.5L262.84 359.57C264.32 359.04 265.533 357.949 266.218 356.533C266.902 355.118 267.004 353.49 266.5 352C265.968 350.512 264.87 349.294 263.445 348.611C262.021 347.927 260.384 347.834 258.89 348.35L230.62 358.28C229.13 358.81 227.91 359.907 227.225 361.332C226.539 362.757 226.444 364.395 226.96 365.89C227.5 367.371 228.601 368.579 230.025 369.255C231.449 369.93 233.082 370.018 234.57 369.5Z" fill="white"/>
</g>
<path d="M394.479 264.262L369.325 273.095C367.189 273.846 366.065 276.186 366.815 278.322L372.057 293.249C372.807 295.385 375.147 296.509 377.284 295.758L402.438 286.925C404.574 286.175 405.698 283.835 404.948 281.698L399.706 266.772C398.956 264.635 396.616 263.512 394.479 264.262Z" fill="#572B92"/>
<path opacity="0.3" d="M394.479 264.262L369.325 273.095C367.189 273.846 366.065 276.186 366.815 278.322L372.057 293.249C372.807 295.385 375.147 296.509 377.284 295.758L402.438 286.925C404.574 286.175 405.698 283.835 404.948 281.698L399.706 266.772C398.956 264.635 396.616 263.512 394.479 264.262Z" fill="black"/>
<path d="M242.68 292C242.053 290.207 241.078 288.556 239.812 287.14C238.546 285.725 237.013 284.572 235.302 283.749C233.59 282.927 231.733 282.449 229.836 282.345C227.94 282.24 226.042 282.51 224.25 283.14L203.93 290.77L203.67 290.84L203.07 291.09L202.7 291.23C199.419 292.712 196.835 295.4 195.484 298.737C194.134 302.074 194.12 305.804 195.448 309.15C196.775 312.497 199.34 315.203 202.61 316.708C205.881 318.213 209.605 318.4 213.01 317.23L232.25 310.83C232.804 310.706 233.352 310.552 233.89 310.37C234.288 310.231 234.679 310.07 235.06 309.89C238.33 308.393 240.923 305.729 242.333 302.42C243.742 299.111 243.866 295.395 242.68 292Z" fill="#572B92"/>
<path opacity="0.8" d="M242.68 292C242.053 290.207 241.078 288.556 239.812 287.14C238.546 285.725 237.013 284.572 235.302 283.749C233.59 282.927 231.733 282.449 229.836 282.345C227.94 282.24 226.042 282.51 224.25 283.14L203.93 290.77L203.67 290.84L203.07 291.09L202.7 291.23C199.419 292.712 196.835 295.4 195.484 298.737C194.134 302.074 194.12 305.804 195.448 309.15C196.775 312.497 199.34 315.203 202.61 316.708C205.881 318.213 209.605 318.4 213.01 317.23L232.25 310.83C232.804 310.706 233.352 310.552 233.89 310.37C234.288 310.231 234.679 310.07 235.06 309.89C238.33 308.393 240.923 305.729 242.333 302.42C243.742 299.111 243.866 295.395 242.68 292Z" fill="white"/>
</g>
<defs>
<clipPath id="clip0_700_7647">
<rect width="500" height="372.56" fill="white" transform="translate(11 60)"/>
</clipPath>
</defs>
</svg>
