<svg width="500" height="492" viewBox="0 0 500 492" fill="none" xmlns="http://www.w3.org/2000/svg">
<path d="M125.23 385.24C194.14 418.08 305.86 418.09 374.77 385.24C443.68 352.39 443.67 299.15 374.77 266.31C305.87 233.47 194.14 233.47 125.23 266.31C56.32 299.15 56.33 352.4 125.23 385.24Z" fill="#F5F5F5"/>
<path d="M374.53 360.97C387.222 360.97 397.51 356.068 397.51 350.02C397.51 343.972 387.222 339.07 374.53 339.07C361.839 339.07 351.55 343.972 351.55 350.02C351.55 356.068 361.839 360.97 374.53 360.97Z" fill="#EBEBEB"/>
<path d="M120 351.59L128.13 346.9C132.669 343.196 136.124 338.335 138.13 332.83C140.64 325.91 140.29 320.65 138.49 318.01C136.28 314.76 130.55 315.33 130.32 322.17C129.84 335.65 125.91 345 120 351.59Z" fill="#572B92"/>
<path opacity="0.2" d="M120 351.59L128.13 346.9C132.669 343.196 136.124 338.335 138.13 332.83C140.64 325.91 140.29 320.65 138.49 318.01C136.28 314.76 130.55 315.33 130.32 322.17C129.84 335.65 125.91 345 120 351.59Z" fill="black"/>
<path d="M120 352.09C119.894 352.089 119.791 352.054 119.707 351.99C119.622 351.927 119.559 351.838 119.528 351.737C119.497 351.636 119.499 351.527 119.533 351.427C119.568 351.327 119.633 351.241 119.72 351.18C138.52 338.18 134.88 320.05 134.84 319.87C134.826 319.804 134.825 319.737 134.838 319.671C134.85 319.605 134.875 319.542 134.912 319.486C134.949 319.429 134.996 319.381 135.052 319.343C135.107 319.305 135.169 319.279 135.235 319.265C135.301 319.251 135.368 319.25 135.434 319.263C135.5 319.275 135.563 319.3 135.619 319.337C135.675 319.374 135.724 319.421 135.762 319.477C135.8 319.532 135.826 319.594 135.84 319.66C135.84 319.85 139.68 338.6 120.32 352C120.226 352.064 120.114 352.096 120 352.09Z" fill="white"/>
<path d="M103.71 361C103.71 361 100.88 358.7 101.56 355.58C102.24 352.46 104.07 350.22 100.94 346.2C97.8101 342.18 96.9401 336.82 100.68 333.92C103.53 331.67 107.98 334.85 109.58 328.92C110.76 324.58 110.36 314.97 115.89 311.77C121.42 308.57 124.89 313.39 124.02 319.91C123.26 325.74 122.18 331.35 123.02 332.91C124.64 335.91 127.41 335.5 127.28 340.98C127.17 346.08 122.34 350.3 122.34 350.3L103.71 361Z" fill="#572B92"/>
<path d="M113 356.11C112.878 356.109 112.76 356.064 112.668 355.983C112.576 355.902 112.517 355.791 112.5 355.67C111.07 343.82 114.5 323.36 117.3 317.28C117.324 317.213 117.361 317.151 117.411 317.099C117.46 317.048 117.52 317.007 117.586 316.981C117.653 316.954 117.724 316.942 117.795 316.945C117.867 316.949 117.936 316.967 118 317C118.06 317.027 118.113 317.065 118.158 317.113C118.202 317.161 118.237 317.218 118.259 317.279C118.282 317.341 118.291 317.406 118.288 317.472C118.285 317.537 118.268 317.601 118.24 317.66C115.47 323.66 112.16 344.18 113.53 355.51C113.544 355.641 113.506 355.773 113.423 355.876C113.341 355.979 113.221 356.045 113.09 356.06L113 356.11Z" fill="white"/>
<path d="M112.73 346.88C112.654 346.884 112.578 346.866 112.51 346.83C109.04 345.14 106.84 339.11 106.75 338.83C106.726 338.768 106.714 338.701 106.715 338.634C106.717 338.568 106.732 338.502 106.76 338.441C106.787 338.38 106.827 338.325 106.876 338.28C106.925 338.234 106.982 338.199 107.045 338.176C107.108 338.154 107.175 338.144 107.242 338.147C107.308 338.151 107.374 338.168 107.434 338.197C107.494 338.226 107.548 338.267 107.592 338.318C107.636 338.368 107.669 338.426 107.69 338.49C107.69 338.55 109.84 344.39 112.95 345.9C113.052 345.949 113.134 346.032 113.183 346.134C113.232 346.236 113.245 346.352 113.219 346.463C113.194 346.573 113.131 346.672 113.043 346.742C112.954 346.812 112.843 346.85 112.73 346.85V346.88Z" fill="white"/>
<path d="M112.67 350.88C112.57 350.88 112.472 350.849 112.39 350.792C112.308 350.735 112.245 350.654 112.21 350.56C112.16 350.438 112.161 350.301 112.211 350.179C112.262 350.058 112.358 349.961 112.48 349.91C118.32 347.57 121.96 340.62 122 340.54C122.061 340.422 122.166 340.333 122.293 340.293C122.42 340.252 122.557 340.264 122.675 340.325C122.793 340.386 122.882 340.491 122.922 340.618C122.963 340.745 122.951 340.882 122.89 341C122.73 341.3 119.04 348.36 112.89 350.84C112.822 350.872 112.746 350.886 112.67 350.88Z" fill="white"/>
<path d="M316.8 297.08C316.8 297.08 312.43 290 312 282.31C311.57 274.62 313.26 271.42 315.58 270.5C317.9 269.58 318.08 272.41 319.27 274.08C320.46 275.75 322.89 274.8 323.79 269.59C324.69 264.38 327.97 255.59 334.79 253.88C342.29 252.02 338.27 260.82 336.38 264.25C334.49 267.68 333.03 272.36 334.27 273.63C335.51 274.9 337.44 272.55 339.27 274.73C341.5 277.36 334.57 286.83 330.59 289.12L316.8 297.08Z" fill="#572B92"/>
<path d="M322.79 294.11C322.724 294.107 322.66 294.092 322.6 294.064C322.54 294.037 322.487 293.998 322.442 293.949C322.398 293.901 322.363 293.845 322.34 293.783C322.318 293.721 322.307 293.656 322.31 293.59C322.987 281.22 326.845 269.233 333.51 258.79C333.548 258.736 333.596 258.689 333.652 258.654C333.708 258.619 333.771 258.596 333.836 258.585C333.902 258.575 333.969 258.578 334.033 258.594C334.097 258.611 334.157 258.64 334.21 258.68C334.315 258.758 334.385 258.874 334.406 259.003C334.426 259.131 334.395 259.263 334.32 259.37C327.774 269.66 323.986 281.462 323.32 293.64C323.316 293.706 323.299 293.77 323.271 293.829C323.242 293.888 323.202 293.941 323.153 293.985C323.103 294.029 323.046 294.062 322.984 294.084C322.922 294.105 322.856 294.114 322.79 294.11Z" fill="white"/>
<path d="M323.36 288.2C323.276 288.199 323.194 288.179 323.12 288.14C320.32 286.59 318.77 281.99 318.71 281.8C318.688 281.738 318.678 281.671 318.682 281.605C318.686 281.539 318.703 281.475 318.731 281.415C318.76 281.356 318.801 281.302 318.85 281.259C318.9 281.215 318.957 281.181 319.02 281.16C319.146 281.119 319.283 281.13 319.401 281.19C319.519 281.25 319.609 281.354 319.65 281.48C319.65 281.48 321.15 285.91 323.65 287.26C323.763 287.327 323.846 287.435 323.882 287.562C323.917 287.688 323.902 287.824 323.84 287.94C323.795 288.026 323.725 288.097 323.64 288.143C323.554 288.189 323.457 288.209 323.36 288.2Z" fill="white"/>
<path d="M323.85 285.17C323.739 285.169 323.632 285.131 323.545 285.062C323.458 284.993 323.397 284.898 323.37 284.79C323.354 284.727 323.35 284.661 323.359 284.597C323.369 284.532 323.391 284.47 323.424 284.414C323.458 284.358 323.502 284.31 323.554 284.271C323.607 284.233 323.667 284.205 323.73 284.19C330.95 282.36 333.45 278.58 333.47 278.54C333.506 278.484 333.552 278.436 333.606 278.398C333.66 278.36 333.721 278.333 333.785 278.319C333.85 278.304 333.917 278.303 333.982 278.314C334.047 278.325 334.109 278.35 334.165 278.385C334.221 278.42 334.269 278.467 334.307 278.521C334.345 278.575 334.372 278.636 334.387 278.7C334.401 278.765 334.402 278.832 334.391 278.897C334.38 278.962 334.356 279.024 334.32 279.08C334.21 279.25 331.61 283.22 323.98 285.16L323.85 285.17Z" fill="white"/>
<path d="M208 281.54C208 281.54 198.41 279.2 197.91 261.24C197.38 241.86 200.26 219.24 188.91 217.41C177.56 215.58 171.26 229.41 171.4 245.56C171.53 259.7 177.23 290.4 207.96 296.42L208 281.54Z" fill="#572B92"/>
<path opacity="0.2" d="M208 281.54C208 281.54 198.41 279.2 197.91 261.24C197.38 241.86 200.26 219.24 188.91 217.41C177.56 215.58 171.26 229.41 171.4 245.56C171.53 259.7 177.23 290.4 207.96 296.42L208 281.54Z" fill="black"/>
<path d="M208 294.58H207.91C201 293.32 195.37 289.51 191.18 283.27C178.76 264.74 182.67 230.14 183.96 224.1C183.989 223.971 184.067 223.859 184.177 223.786C184.287 223.713 184.42 223.686 184.55 223.71C184.68 223.741 184.792 223.821 184.865 223.932C184.937 224.044 184.964 224.179 184.94 224.31C183.67 230.31 179.78 264.47 192.01 282.71C193.79 285.539 196.139 287.966 198.907 289.839C201.675 291.712 204.802 292.989 208.09 293.59C208.155 293.602 208.218 293.627 208.273 293.663C208.329 293.699 208.376 293.746 208.414 293.801C208.451 293.856 208.477 293.918 208.49 293.983C208.503 294.048 208.503 294.115 208.49 294.18C208.469 294.294 208.408 294.396 208.318 294.47C208.229 294.543 208.116 294.582 208 294.58Z" fill="white"/>
<path d="M208 340.67C198.09 342.01 182 341.99 172.71 334.67C163.42 327.35 165.36 321.05 168.93 318.42C172.5 315.79 175.6 312.79 169.46 306.95C163.32 301.11 153.46 291.73 150.26 277.66C147.06 263.59 148.64 254.79 154.92 251.86C161.01 249.02 162.62 253.54 166.35 262.86C170.08 272.18 178.47 264.19 185.65 267.1C192.83 270.01 192.54 275.77 192.99 280.72C193.44 285.67 195.81 287.04 199.88 287.04C203.95 287.04 208 289.38 208 294.04V340.67Z" fill="#572B92"/>
<path d="M208 324.33C207.957 324.339 207.913 324.339 207.87 324.33C207.44 324.21 197.19 321.23 182.26 307.52C166.36 292.92 158.86 271.02 158.78 270.8C158.742 270.674 158.754 270.538 158.813 270.421C158.873 270.303 158.976 270.213 159.1 270.17C159.225 270.129 159.361 270.138 159.479 270.196C159.597 270.254 159.687 270.356 159.73 270.48C159.8 270.7 167.23 292.36 182.94 306.78C197.66 320.31 208.03 323.34 208.14 323.37C208.203 323.388 208.262 323.419 208.313 323.46C208.364 323.501 208.407 323.552 208.439 323.61C208.47 323.667 208.49 323.73 208.497 323.796C208.504 323.861 208.499 323.927 208.48 323.99C208.448 324.091 208.383 324.179 208.297 324.24C208.21 324.301 208.106 324.333 208 324.33Z" fill="white"/>
<path d="M186.43 311C186.33 311.002 186.231 310.971 186.149 310.914C186.066 310.857 186.004 310.775 185.97 310.68C182.76 302.44 182.03 284.81 181.97 284.06C181.967 283.928 182.016 283.8 182.105 283.703C182.195 283.606 182.318 283.548 182.45 283.54C182.581 283.542 182.706 283.592 182.802 283.68C182.898 283.769 182.958 283.89 182.97 284.02C182.97 284.2 183.72 302.23 186.87 310.32C186.894 310.382 186.906 310.448 186.904 310.514C186.903 310.58 186.888 310.645 186.861 310.706C186.834 310.766 186.795 310.821 186.747 310.866C186.699 310.911 186.642 310.947 186.58 310.97C186.532 310.987 186.481 310.997 186.43 311Z" fill="white"/>
<path d="M186.35 322.85C185.428 322.857 184.507 322.81 183.59 322.71C183.524 322.702 183.461 322.681 183.403 322.649C183.346 322.617 183.295 322.573 183.254 322.521C183.213 322.469 183.183 322.41 183.165 322.346C183.147 322.282 183.142 322.216 183.15 322.15C183.158 322.084 183.179 322.021 183.211 321.963C183.243 321.906 183.287 321.855 183.339 321.814C183.391 321.773 183.45 321.743 183.514 321.725C183.578 321.707 183.644 321.702 183.71 321.71C183.8 321.71 193.11 322.77 197.38 318.42C197.425 318.367 197.479 318.324 197.541 318.294C197.603 318.264 197.67 318.246 197.739 318.243C197.808 318.24 197.877 318.251 197.941 318.276C198.005 318.3 198.064 318.338 198.113 318.387C198.162 318.435 198.201 318.493 198.226 318.557C198.252 318.621 198.264 318.689 198.262 318.758C198.26 318.827 198.243 318.895 198.214 318.957C198.184 319.019 198.142 319.075 198.09 319.12C195 322.31 189.61 322.85 186.35 322.85Z" fill="white"/>
<path d="M179.15 133.49L178.07 127.26L172.51 130.92C172.002 129.92 171.282 129.043 170.4 128.35L173.06 121.15L168.06 120.04L164.4 127.04C163.076 127.263 161.792 127.681 160.59 128.28L159 123L153.06 127.67L153.45 133.87C152.24 135.225 151.143 136.677 150.17 138.21L145.27 137.96L141.83 145.67L146.04 147.47C145.6 149.065 145.322 150.7 145.21 152.35L139.86 157.27L140.93 163.51L146.5 159.85C147.005 160.849 147.726 161.723 148.61 162.41L146 169.62L151 170.72L156.24 165.62C157.45 165.43 157.15 163.15 158.47 162.5L160.06 167.76L165.99 163.1L165.84 160.66C167.04 159.32 171.58 156.37 172.56 154.83L173.79 152.83L177.23 145.12L175.63 142.22L173.85 138.44L179.15 133.49ZM161 154C156.44 157.58 155 158.37 154.23 153.58C153.46 148.79 156.07 141.51 160.63 137.92C165.19 134.33 166.93 134.08 167.75 138.86C168.57 143.64 165.57 150.46 161 154Z" fill="#E0E0E0"/>
<path d="M168.1 120.04L174.59 123.78L170.93 130.76L164.44 127.02L168.1 120.04Z" fill="#F5F5F5"/>
<path d="M184.56 131L179 134.66L172.51 130.92L178.07 127.26L184.56 131Z" fill="#F5F5F5"/>
<path d="M183.67 148.83L179.46 147.04L172.97 143.3L177.18 145.09L183.67 148.83Z" fill="#E0E0E0"/>
<path d="M145.99 169.62L152.48 173.35L155.14 166.15L148.65 162.41L145.99 169.62Z" fill="#E0E0E0"/>
<path d="M166.49 171.5L160.01 167.76L158.42 162.5L164.91 166.24L166.49 171.5Z" fill="#E0E0E0"/>
<path d="M185.63 137.23L184.56 131L179 134.66C178.488 133.66 177.765 132.783 176.88 132.09L179.54 124.89L174.59 123.78L170.92 130.78C169.596 131.003 168.312 131.421 167.11 132.02L165.53 126.76L159.59 131.43L159.98 137.63C158.769 138.995 157.672 140.456 156.7 142L151.79 141.75L148.35 149.46L152.56 151.26C152.124 152.859 151.846 154.497 151.73 156.15L146.39 161L147.46 167.24L153.02 163.58C153.532 164.578 154.255 165.451 155.14 166.14L152.48 173.34L157.48 174.45L161.14 167.45C162.469 167.229 163.757 166.808 164.96 166.2L166.54 171.46L172.48 166.8L172.09 160.6C173.3 159.245 174.396 157.794 175.37 156.26L180.28 156.5L183.72 148.79L179.45 147C179.893 145.402 180.174 143.764 180.29 142.11L185.63 137.23ZM167.5 157.78C162.95 161.36 158.59 160.39 157.76 155.61C156.93 150.83 159.96 144.04 164.52 140.46C169.08 136.88 173.43 137.86 174.26 142.64C175.09 147.42 172.06 154.2 167.5 157.78Z" fill="#EBEBEB"/>
<path d="M165.53 126.74L159.04 123L153.1 127.67L159.59 131.41L165.53 126.74Z" fill="#F5F5F5"/>
<path d="M153.1 127.67L153.49 133.87L159.98 137.61L159.59 131.41L153.1 127.67Z" fill="#E0E0E0"/>
<path d="M156.7 141.95L150.21 138.21L145.31 137.97L151.79 141.71L156.7 141.95Z" fill="#F5F5F5"/>
<path d="M145.31 137.97L141.87 145.67L148.35 149.41L151.79 141.71L145.31 137.97Z" fill="#E0E0E0"/>
<path d="M151.73 156.09L145.25 152.35L139.9 157.27L146.38 161.01L151.73 156.09Z" fill="#F5F5F5"/>
<path d="M147.46 167.25L140.97 163.51L139.9 157.27L146.38 161.01L147.46 167.25Z" fill="#E0E0E0"/>
<path d="M174.59 123.78L168.1 120.04L173.06 121.15L179.54 124.89L174.59 123.78Z" fill="#F5F5F5"/>
<path d="M150.09 105.21V95.9L142.68 99.24C142.287 97.6605 141.61 96.1659 140.68 94.83L145.35 85.42L139.65 82.13L133.83 90.88C132.208 90.7383 130.574 90.8977 129.01 91.35L128.19 83.26L120.13 87.92L119.32 96.92C117.566 98.4743 115.953 100.181 114.5 102.02L108.68 100.02L102.98 109.9L107.64 113.9C106.779 116.078 106.11 118.326 105.64 120.62L98.23 125.83V135.15L105.64 131.81C106.032 133.39 106.71 134.884 107.64 136.22L103 145.64L108.7 148.93L114.52 140.18C116.142 140.321 117.776 140.162 119.34 139.71L120.15 147.8L128.21 143.14L129.03 134.14C131.546 133.222 133.774 131.656 135.49 129.6L139.67 131.07L145.37 121.2L141.87 118.2C142.63 115.698 142.911 113.076 142.7 110.47L150.09 105.21ZM124.16 128.47C117.98 132.04 114.16 129.47 114.16 122.36C114.16 115.25 119.27 106.46 125.46 102.89C131.65 99.32 135.39 101.89 135.39 109.06C135.39 116.23 130.35 124.89 124.16 128.47Z" fill="#E0E0E0"/>
<path d="M146.13 85.86L139.65 82.13L133.83 90.88L140.31 94.62L146.13 85.86Z" fill="#F5F5F5"/>
<path d="M156.58 99.64L150.09 95.9L142.68 99.24L149.17 102.98L156.58 99.64Z" fill="#F5F5F5"/>
<path d="M126.61 151.54L120.13 147.8L119.32 139.71L125.8 143.45L126.61 151.54Z" fill="#E0E0E0"/>
<path d="M102.97 145.64L109.46 149.38L114.13 139.97L107.64 136.23L102.97 145.64Z" fill="#E0E0E0"/>
<path d="M156.58 109V99.69L149.17 103C148.782 101.419 148.103 99.9238 147.17 98.59L151.84 89.18L146.14 85.88L140.32 94.64C138.698 94.4934 137.063 94.6528 135.5 95.11L134.68 87L126.62 91.66L125.8 100.66C124.048 102.217 122.436 103.923 120.98 105.76L115.16 103.76L109.46 113.64L114.13 117.64C113.264 119.816 112.595 122.065 112.13 124.36L104.72 129.57V138.89L112.13 135.55C112.518 137.131 113.196 138.626 114.13 139.96L109.46 149.37L115.16 152.66L120.98 143.91C122.602 144.052 124.236 143.892 125.8 143.44L126.62 151.53L134.68 146.87L135.49 137.87C137.244 136.316 138.857 134.609 140.31 132.77L146.13 134.77L151.83 124.9L147.16 120.9C148.025 118.724 148.695 116.475 149.16 114.18L156.58 109ZM130.65 132.26C124.46 135.83 119.44 132.93 119.44 125.79C119.44 118.65 124.44 109.96 130.65 106.38C136.86 102.8 141.85 105.71 141.85 112.85C141.85 119.99 136.83 128.63 130.65 132.21V132.26Z" fill="#EBEBEB"/>
<path d="M114.5 102.04L120.98 105.78L115.16 103.75L108.68 100L114.5 102.04Z" fill="#F0F0F0"/>
<path d="M108.679 100.01L102.978 109.894L109.466 113.636L115.167 103.753L108.679 100.01Z" fill="#F5F5F5"/>
<path d="M102.97 109.88L109.46 113.62L114.13 117.64L107.64 113.91L102.97 109.88Z" fill="#E0E0E0"/>
<path d="M105.64 120.63L112.13 124.37L104.72 129.58L98.23 125.84L105.64 120.63Z" fill="#F5F5F5"/>
<path d="M98.23 125.84L104.72 129.58V138.9L98.23 135.16V125.84Z" fill="#E0E0E0"/>
<path d="M134.68 87L128.19 83.26L120.13 87.92L126.61 91.66L134.68 87Z" fill="#F5F5F5"/>
<path d="M217.88 354.05L311.88 299.77C312.087 299.697 312.266 299.562 312.393 299.383C312.52 299.204 312.588 298.99 312.588 298.77C312.588 298.551 312.52 298.336 312.393 298.157C312.266 297.978 312.087 297.843 311.88 297.77L303.19 292.77C302.652 292.499 302.057 292.358 301.455 292.358C300.852 292.358 300.258 292.499 299.72 292.77L205.69 347C205.483 347.073 205.303 347.208 205.176 347.387C205.05 347.566 204.981 347.781 204.981 348C204.981 348.22 205.05 348.434 205.176 348.613C205.303 348.792 205.483 348.927 205.69 349L214.41 354C214.944 354.279 215.536 354.428 216.139 354.437C216.742 354.446 217.338 354.313 217.88 354.05Z" fill="#E0E0E0"/>
<path d="M309.3 90.2L224.54 139.14C223.28 139.962 222.231 141.07 221.479 142.373C220.727 143.676 220.292 145.138 220.21 146.64V347.71C220.21 350.47 222.15 351.59 224.54 350.21L309.3 301.27C310.562 300.449 311.611 299.342 312.364 298.039C313.116 296.736 313.55 295.273 313.63 293.77V92.7C313.63 89.94 311.7 88.82 309.3 90.2Z" fill="#455A64"/>
<path d="M224.54 139.14L309.3 90.2C311.44 88.96 313.21 89.73 313.57 91.88C313.37 90.5283 312.886 89.2342 312.15 88.0828C311.414 86.9315 310.443 85.949 309.3 85.2L305.78 83.2C304.438 82.5192 302.954 82.1644 301.45 82.1644C299.945 82.1644 298.462 82.5192 297.12 83.2L212.35 132.1C211.073 132.901 210.02 134.012 209.29 135.33L221.48 142.33C222.21 141.022 223.264 139.924 224.54 139.14Z" fill="#37474F"/>
<path d="M208 340.67C208.082 342.172 208.517 343.634 209.269 344.937C210.021 346.24 211.07 347.348 212.33 348.17L215.86 350.17C217.082 350.781 218.419 351.127 219.784 351.186C221.149 351.245 222.51 351.014 223.78 350.51C221.78 351.29 220.19 350.14 220.19 347.67V146.64C220.24 145.131 220.677 143.661 221.46 142.37L209.27 135.37C208.498 136.651 208.062 138.106 208 139.6V340.67Z" fill="#263238"/>
<path d="M226.87 165.93L307 119.68C308.44 118.86 309.6 119.53 309.6 121.18V270C309.552 270.902 309.291 271.78 308.839 272.562C308.387 273.344 307.757 274.008 307 274.5L226.9 320.75C225.46 321.58 224.3 320.91 224.3 319.25V170.43C224.345 169.531 224.602 168.655 225.048 167.874C225.495 167.092 226.119 166.426 226.87 165.93Z" fill="white"/>
<path d="M266.92 122.29C266.478 122.58 266.11 122.971 265.846 123.429C265.582 123.888 265.429 124.402 265.4 124.93C265.4 125.93 266.08 126.3 266.92 125.81C267.364 125.521 267.733 125.132 267.997 124.673C268.262 124.214 268.413 123.699 268.44 123.17C268.44 122.2 267.76 121.81 266.92 122.29Z" fill="#37474F"/>
<path d="M266.92 304.74C265.172 305.884 263.718 307.423 262.675 309.233C261.633 311.044 261.031 313.074 260.92 315.16C260.92 318.99 263.61 320.55 266.92 318.63C268.668 317.486 270.121 315.946 271.164 314.136C272.206 312.326 272.808 310.296 272.92 308.21C272.94 304.38 270.24 302.82 266.92 304.74Z" fill="#37474F"/>
<path d="M252.53 137.77C251.651 138.353 250.922 139.135 250.4 140.052C249.879 140.97 249.581 141.996 249.53 143.05C249.53 144.99 250.89 145.78 252.53 144.81C253.418 144.232 254.157 143.453 254.687 142.535C255.217 141.618 255.523 140.588 255.58 139.53C255.58 137.59 254.22 136.8 252.53 137.77Z" fill="#37474F"/>
<path d="M260 137.11C260 138.41 261 138.9 262.17 138.21L282.17 126.64C282.79 126.253 283.309 125.725 283.686 125.1C284.063 124.474 284.287 123.769 284.34 123.04C284.34 121.75 283.34 121.26 282.17 121.95L262.17 133.52C261.552 133.906 261.033 134.432 260.656 135.056C260.279 135.68 260.054 136.383 260 137.11Z" fill="#37474F"/>
<path d="M214.76 172.37C215.469 172.832 216.06 173.455 216.484 174.188C216.908 174.922 217.153 175.744 217.2 176.59C217.2 178.15 216.11 178.78 214.76 178C214.053 177.536 213.464 176.912 213.042 176.179C212.62 175.446 212.376 174.625 212.33 173.78C212.33 172.23 213.42 171.6 214.76 172.37Z" fill="#37474F"/>
<path d="M214.76 191.15C215.469 191.612 216.06 192.235 216.484 192.968C216.908 193.702 217.153 194.524 217.2 195.37C217.2 196.92 216.11 197.55 214.76 196.78C214.053 196.316 213.464 195.692 213.042 194.959C212.62 194.226 212.376 193.405 212.33 192.56C212.33 191 213.42 190.37 214.76 191.15Z" fill="#37474F"/>
<path d="M214 172.75C214.709 173.212 215.3 173.835 215.724 174.568C216.148 175.302 216.393 176.124 216.44 176.97C216.44 178.52 215.35 179.15 214 178.38C213.29 177.918 212.699 177.295 212.275 176.562C211.852 175.828 211.606 175.006 211.56 174.16C211.57 172.6 212.66 172 214 172.75Z" fill="#455A64"/>
<path d="M214 191.52C214.711 191.983 215.302 192.608 215.726 193.343C216.15 194.078 216.395 194.903 216.44 195.75C216.44 197.3 215.35 197.93 214 197.15C213.288 196.69 212.696 196.067 212.272 195.333C211.848 194.6 211.604 193.776 211.56 192.93C211.57 191.38 212.66 190.75 214 191.52Z" fill="#455A64"/>
<path d="M325.82 125.89C325.82 124.23 324.66 123.56 323.22 124.39L313.63 129.92L243.12 170.64C242.362 171.132 241.732 171.796 241.28 172.578C240.828 173.36 240.568 174.238 240.52 175.14V323.92C240.52 325.58 241.68 326.25 243.12 325.42L313.66 284.69L323.22 279.17C323.977 278.678 324.607 278.014 325.059 277.232C325.511 276.45 325.772 275.572 325.82 274.67V125.89Z" fill="white"/>
<path d="M326.82 125.89C326.883 125.389 326.796 124.88 326.572 124.427C326.347 123.974 325.994 123.598 325.556 123.345C325.118 123.092 324.616 122.974 324.112 123.005C323.607 123.036 323.123 123.215 322.72 123.52L313.57 128.81L242.62 169.81C241.706 170.387 240.947 171.177 240.407 172.112C239.867 173.048 239.562 174.101 239.52 175.18V323.92C239.48 324.419 239.576 324.92 239.798 325.369C240.019 325.818 240.359 326.199 240.78 326.47C241.138 326.678 241.546 326.785 241.96 326.78C242.546 326.762 243.118 326.593 243.62 326.29L314.62 285.29L323.75 280.02C324.658 279.438 325.414 278.646 325.953 277.712C326.492 276.778 326.8 275.728 326.85 274.65L326.82 125.89ZM313.59 283.58L312.77 284.06L242.66 324.54C242.542 324.631 242.406 324.694 242.26 324.725C242.115 324.756 241.964 324.754 241.82 324.72C241.69 324.64 241.56 324.36 241.56 323.9V175.14C241.612 174.414 241.828 173.709 242.191 173.079C242.555 172.448 243.057 171.908 243.66 171.5L313.7 131L323.7 125.21C323.818 125.12 323.954 125.056 324.1 125.025C324.245 124.994 324.395 124.996 324.54 125.03C324.67 125.11 324.8 125.39 324.8 125.85V274.67C324.748 275.396 324.532 276.101 324.168 276.732C323.805 277.362 323.303 277.902 322.7 278.31L313.57 283.58H313.59Z" fill="#572B92"/>
<path d="M283.17 160.46C292.17 155.28 299.42 159.46 299.42 169.85C299.42 180.24 292.14 192.85 283.17 197.99C274.2 203.13 266.92 198.99 266.92 188.61C266.92 178.23 274.2 165.65 283.17 160.46Z" fill="#572B92"/>
<path d="M283.17 168.62C286.08 166.94 288.44 168.3 288.44 171.62C288.341 173.449 287.812 175.229 286.897 176.815C285.981 178.402 284.704 179.75 283.17 180.75C280.26 182.43 277.9 181.07 277.9 177.75C277.999 175.921 278.527 174.141 279.443 172.555C280.359 170.969 281.636 169.62 283.17 168.62Z" fill="#572B92"/>
<path d="M293.44 186.54C293.44 181.02 289.57 178.78 284.78 181.54L281.78 183.27C277 186.03 273.12 192.75 273.12 198.27V199.76C275.89 200.67 279.37 200.18 283.12 197.99C287.274 195.428 290.787 191.949 293.39 187.82L293.44 186.54Z" fill="#572B92"/>
<path opacity="0.7" d="M283.17 168.62C286.08 166.94 288.44 168.3 288.44 171.62C288.341 173.449 287.812 175.229 286.897 176.815C285.981 178.402 284.704 179.75 283.17 180.75C280.26 182.43 277.9 181.07 277.9 177.75C277.999 175.921 278.527 174.141 279.443 172.555C280.359 170.969 281.636 169.62 283.17 168.62Z" fill="white"/>
<path opacity="0.7" d="M293.44 186.54C293.44 181.02 289.57 178.78 284.78 181.54L281.78 183.27C277 186.03 273.12 192.75 273.12 198.27V199.76C275.89 200.67 279.37 200.18 283.12 197.99C287.274 195.428 290.787 191.949 293.39 187.82L293.44 186.54Z" fill="white"/>
<path d="M251.73 220.84L272.64 208.77C273.64 208.22 274.37 208.66 274.37 209.77V210.46C274.338 211.061 274.165 211.646 273.865 212.167C273.564 212.689 273.144 213.132 272.64 213.46L251.73 225.53C250.78 226.08 250 225.63 250 224.53V223.84C250.032 223.239 250.206 222.655 250.507 222.133C250.807 221.612 251.226 221.169 251.73 220.84Z" fill="#572B92"/>
<path opacity="0.1" d="M251.73 220.84L272.64 208.77C273.64 208.22 274.37 208.66 274.37 209.77V210.46C274.338 211.061 274.165 211.646 273.865 212.167C273.564 212.689 273.144 213.132 272.64 213.46L251.73 225.53C250.78 226.08 250 225.63 250 224.53V223.84C250.032 223.239 250.206 222.655 250.507 222.133C250.807 221.612 251.226 221.169 251.73 220.84Z" fill="black"/>
<path d="M250.87 235.41L314.13 198.89C314.6 198.61 314.99 198.83 314.99 199.39V206.77C314.972 207.07 314.886 207.361 314.736 207.621C314.587 207.881 314.38 208.104 314.13 208.27L250.87 244.79C250.39 245.07 250 244.84 250 244.29V236.91C250.017 236.609 250.105 236.317 250.256 236.056C250.407 235.796 250.617 235.574 250.87 235.41Z" fill="#572B92"/>
<path opacity="0.2" d="M250.87 235.41L314.13 198.89C314.6 198.61 314.99 198.83 314.99 199.39V206.77C314.972 207.07 314.886 207.361 314.736 207.621C314.587 207.881 314.38 208.104 314.13 208.27L250.87 244.79C250.39 245.07 250 244.84 250 244.29V236.91C250.017 236.609 250.105 236.317 250.256 236.056C250.407 235.796 250.617 235.574 250.87 235.41Z" fill="white"/>
<path d="M251.73 253.67L272.64 241.6C273.64 241.05 274.37 241.5 274.37 242.6V243.29C274.339 243.891 274.166 244.476 273.866 244.998C273.565 245.519 273.145 245.962 272.64 246.29L251.73 258.36C250.78 258.92 250 258.47 250 257.36V256.67C250.034 256.07 250.208 255.486 250.509 254.965C250.809 254.444 251.227 254 251.73 253.67Z" fill="#572B92"/>
<path opacity="0.1" d="M251.73 253.67L272.64 241.6C273.64 241.05 274.37 241.5 274.37 242.6V243.29C274.339 243.891 274.166 244.476 273.866 244.998C273.565 245.519 273.145 245.962 272.64 246.29L251.73 258.36C250.78 258.92 250 258.47 250 257.36V256.67C250.034 256.07 250.208 255.486 250.509 254.965C250.809 254.444 251.227 254 251.73 253.67Z" fill="black"/>
<path d="M250.87 268.24L314.13 231.72C314.6 231.44 314.99 231.67 314.99 232.22V239.6C314.972 239.9 314.886 240.191 314.736 240.451C314.587 240.711 314.38 240.934 314.13 241.1L250.87 277.62C250.39 277.9 250 277.68 250 277.12V269.74C250.017 269.439 250.105 269.147 250.256 268.886C250.407 268.626 250.617 268.404 250.87 268.24Z" fill="#572B92"/>
<path opacity="0.2" d="M250.87 268.24L314.13 231.72C314.6 231.44 314.99 231.67 314.99 232.22V239.6C314.972 239.9 314.886 240.191 314.736 240.451C314.587 240.711 314.38 240.934 314.13 241.1L250.87 277.62C250.39 277.9 250 277.68 250 277.12V269.74C250.017 269.439 250.105 269.147 250.256 268.886C250.407 268.626 250.617 268.404 250.87 268.24Z" fill="white"/>
<path d="M276.1 272.43L301.1 258.02C302.1 257.46 302.84 257.91 302.84 259.02V266.74C302.807 267.342 302.632 267.927 302.33 268.449C302.028 268.97 301.606 269.413 301.1 269.74L276.1 284.16C275.1 284.71 274.37 284.26 274.37 283.16V275.43C274.405 274.83 274.579 274.246 274.88 273.725C275.18 273.204 275.598 272.761 276.1 272.43Z" fill="#572B92"/>
<path opacity="0.1" d="M276.1 272.43L301.1 258.02C302.1 257.46 302.84 257.91 302.84 259.02V266.74C302.807 267.342 302.632 267.927 302.33 268.449C302.028 268.97 301.606 269.413 301.1 269.74L276.1 284.16C275.1 284.71 274.37 284.26 274.37 283.16V275.43C274.405 274.83 274.579 274.246 274.88 273.725C275.18 273.204 275.598 272.761 276.1 272.43Z" fill="black"/>
<path d="M335.3 239.85C335.3 239.85 323.02 222.91 322.3 220.85C321.73 219.33 322.3 217.07 322.48 216.02C322.66 214.97 322.82 212.63 323 212.02C323.3 210.88 321.83 211.11 321 212.15C320.17 213.19 319.89 215.27 319.46 215.61C319.03 215.95 315.76 211.18 314.05 208.98C312.34 206.78 311.27 205.44 310.22 206.26C309.47 206.85 310.03 208.13 311.27 210.01C311.994 211.022 312.662 212.074 313.27 213.16C313.46 213.57 312.44 213.6 311.89 214.45C311.46 215.11 311.89 216.18 311.29 216.69C310.921 216.971 310.668 217.378 310.579 217.833C310.491 218.289 310.573 218.761 310.81 219.16C311.923 220.908 313.359 222.428 315.04 223.64C316.88 224.91 317.62 225.36 318.71 227.09C319.8 228.82 329.58 246.49 330.24 247.55C330.9 248.61 332.17 250.77 334.1 250.83C336.03 250.89 351.83 237.29 352.64 236.61C355.24 234.44 356.07 234.13 356.51 236.08C356.662 236.773 356.775 237.474 356.85 238.18C357.16 240.66 358.85 249.52 358.85 249.52C358.85 249.52 366.85 253.39 373.42 251.52C379.99 249.65 382.21 246.86 382.21 246.86L378.92 241.5C379.81 239.29 383.92 230.33 385.25 224.06L364.65 220.73C364.23 220.64 363.55 220.47 362.65 220.24C361.52 219.94 358.65 218.95 356.48 220.85C349.4 227.02 335.32 239.85 335.32 239.85" fill="#FFA8A7"/>
<path d="M376.14 343.79L372.45 348.92C374.127 349.703 375.959 350.096 377.81 350.07C381.12 350.19 382.03 349.07 382.15 348.85C382.71 347.65 381.84 345.49 381.6 343.63L376.14 343.79Z" fill="#37474F"/>
<path d="M372.66 346.46C372.66 346.46 368.18 346.17 365.09 345.79C362 345.41 359.55 346.91 360.27 348.18C360.99 349.45 362.7 350.51 365.36 351.4C367.63 352.17 370.36 352.72 372.72 353.4C375.08 354.08 376.72 354.97 378.09 354.49C379.62 353.96 380.28 353.35 380.15 352.23C379.816 350.637 379.402 349.062 378.91 347.51L372.66 346.46Z" fill="#37474F"/>
<path d="M382.15 338.64C382.15 338.64 381.59 343.3 381.55 344.3C381.51 345.3 377 345.62 376.14 343.79L376 338.09L382.15 338.64Z" fill="#F28F8F"/>
<path d="M377.61 341.5L379.22 348.58C379.22 348.58 379.37 349.44 375.69 349.99C372.01 350.54 366.23 348.06 365.24 347.56C364.25 347.06 364.14 346.05 367.76 346.25C371.38 346.45 372.66 346.46 372.66 346.46L371.48 343.33L377.61 341.5Z" fill="#FFA8A7"/>
<path d="M385.19 224L387.74 223.29C387.74 223.29 393.07 240.16 393.66 241.79C394.25 243.42 394.92 245.14 393.77 247.15C392.4 249.54 385.19 259.15 385.19 259.15L380.61 254.67L385.81 245.15L381.21 235.85L385.19 224Z" fill="#F28F8F"/>
<path d="M359 202.09C358.402 200.968 358.099 199.712 358.118 198.441C358.137 197.169 358.479 195.924 359.11 194.82C361.65 190.11 367.31 187.82 374.05 188.69C377.17 189.1 380.85 191.69 382.86 195.56C385.08 199.85 385.29 208.49 385.86 211.76L359 202.09Z" fill="#37474F"/>
<path d="M358.82 203.94C358.82 203.94 357.22 206.99 357.5 207.27C357.915 207.512 358.368 207.681 358.84 207.77L358.82 203.94Z" fill="#FFA8A7"/>
<path d="M363.68 194.3C361.94 195.43 358.94 197.51 358.81 204.36C358.67 211.36 359.67 213.67 360.71 214.48C361.41 215.03 365.52 214.75 367.28 214.34C369.04 213.93 374.11 211.42 375.94 207.61C378.09 203.13 377.65 196.61 374.46 194.61C372.836 193.65 370.996 193.118 369.11 193.064C367.225 193.009 365.356 193.435 363.68 194.3Z" fill="#FFA8A7"/>
<path d="M382.15 246.82C385.23 251.62 388.15 255.82 388.79 261.24C390.11 272.63 385.79 285.65 384.86 294.08C386.609 296.478 387.617 299.336 387.76 302.3C387.76 305.79 382.15 338.64 382.15 338.64C382.15 338.64 378.07 339.88 376 338.09L372.15 277.66L374.15 270.3L382.15 246.82Z" fill="#572B92"/>
<path opacity="0.2" d="M382.15 246.82C385.23 251.62 388.15 255.82 388.79 261.24C390.11 272.63 385.79 285.65 384.86 294.08C386.609 296.478 387.617 299.336 387.76 302.3C387.76 305.79 382.15 338.64 382.15 338.64C382.15 338.64 378.07 339.88 376 338.09L372.15 277.66L374.15 270.3L382.15 246.82Z" fill="black"/>
<path d="M372.15 277.66L374.15 270.3C377.979 269.292 381.673 267.825 385.15 265.93C385.15 265.93 383.07 269.72 377.09 271.8L374 281.25L373.74 302.9L372.15 277.66Z" fill="#572B92"/>
<path opacity="0.3" d="M372.15 277.66L374.15 270.3C377.979 269.292 381.673 267.825 385.15 265.93C385.15 265.93 383.07 269.72 377.09 271.8L374 281.25L373.74 302.9L372.15 277.66Z" fill="black"/>
<path d="M382.15 246.82C383.8 249.52 387.74 254.12 386.9 258.55C385.9 263.91 383 267.68 374.18 270.3L365.9 300.3C365.9 300.3 370.21 304.3 371.53 308.17C372.85 312.04 377.61 341.52 377.61 341.52C377.61 341.52 376.13 343.93 371.48 343.35C371.48 343.35 355.27 306.35 354.13 303.94C352.746 301.499 352.262 298.651 352.76 295.89C353.27 292.01 358.76 249.54 358.76 249.54L382.15 246.82Z" fill="#572B92"/>
<path opacity="0.2" d="M382.15 246.82C383.8 249.52 387.74 254.12 386.9 258.55C385.9 263.91 383 267.68 374.18 270.3L365.9 300.3C365.9 300.3 370.21 304.3 371.53 308.17C372.85 312.04 377.61 341.52 377.61 341.52C377.61 341.52 376.13 343.93 371.48 343.35C371.48 343.35 355.27 306.35 354.13 303.94C352.746 301.499 352.262 298.651 352.76 295.89C353.27 292.01 358.76 249.54 358.76 249.54L382.15 246.82Z" fill="black"/>
<path d="M385.19 224L364.59 220.67C364.17 220.58 363.49 220.41 362.59 220.18C362.59 220.18 361.71 233.1 356.42 236.06C356.55 236.68 356.66 237.37 356.76 238.16C357.07 240.64 358.76 249.5 358.76 249.5C358.76 249.5 366.76 253.37 373.33 251.5C379.9 249.63 382.12 246.84 382.12 246.84L378.83 241.48C379.75 239.25 383.89 230.29 385.19 224Z" fill="#572B92"/>
<path opacity="0.7" d="M385.19 224L364.59 220.67C364.17 220.58 363.49 220.41 362.59 220.18C362.59 220.18 361.71 233.1 356.42 236.06C356.55 236.68 356.66 237.37 356.76 238.16C357.07 240.64 358.76 249.5 358.76 249.5C358.76 249.5 366.76 253.37 373.33 251.5C379.9 249.63 382.12 246.84 382.12 246.84L378.83 241.48C379.75 239.25 383.89 230.29 385.19 224Z" fill="white"/>
<path d="M379.76 239.35C377.024 240.993 374.158 242.408 371.19 243.58C373.884 243.526 376.521 242.797 378.86 241.46L379.76 239.35Z" fill="#572B92"/>
<path d="M363.17 194.64C363.17 194.64 362.17 201.14 364.53 204.96C364.53 204.96 365.41 202.37 367.6 202.86C369.79 203.35 369.91 206.24 368.37 207.86C367.978 208.314 367.467 208.649 366.894 208.826C366.321 209.003 365.709 209.015 365.13 208.86C365.13 208.86 364.78 213.56 364.59 217.5C364.4 221.44 363.36 230.03 367.79 233.5C372.22 236.97 383.34 238.19 388.55 230.91C391.45 226.86 387.6 219.7 385.81 211.67C384.16 204.29 383.23 193.35 375.4 191.59C367.57 189.83 363.17 194.64 363.17 194.64Z" fill="#37474F"/>
<path d="M391.9 105.83L390.25 106.83C390.389 106.243 390.466 105.643 390.48 105.04C390.48 101.69 388.13 100.34 385.23 102.04C384.348 102.572 383.56 103.248 382.9 104.04C382.9 99.54 379.74 97.71 375.84 99.96C373.785 101.3 372.075 103.106 370.848 105.231C369.621 107.356 368.913 109.74 368.78 112.19C368.78 112.42 368.78 112.64 368.78 112.86C367.775 112.734 366.759 112.967 365.91 113.52C364.382 114.516 363.11 115.858 362.198 117.437C361.286 119.017 360.759 120.789 360.66 122.61C360.66 123.033 360.703 123.456 360.79 123.87L359.91 124.38C357.52 125.76 355.58 128.45 355.58 130.38C355.58 132.31 357.52 132.77 359.91 131.38L391.91 112.93C394.3 111.55 396.24 108.86 396.24 106.93C396.24 105 394.29 104.44 391.9 105.83Z" fill="#EBEBEB"/>
</svg>
