<svg width="471" height="333" viewBox="0 0 471 333" fill="none" xmlns="http://www.w3.org/2000/svg">
<rect width="470.573" height="332.124" fill="white"/>
<rect x="0.378274" y="0.378274" width="469.816" height="331.368" stroke="black" stroke-opacity="0.5" stroke-width="0.756548"/>
<path d="M92.4785 77.2279C91.1985 77.2279 90.0425 77.0039 89.0105 76.5559C87.9865 76.0999 87.1425 75.4519 86.4785 74.6119C85.8225 73.7639 85.4065 72.7559 85.2305 71.5879L88.6385 71.0839C88.8785 72.0759 89.3745 72.8399 90.1265 73.3759C90.8785 73.9119 91.7345 74.1799 92.6945 74.1799C93.2305 74.1799 93.7505 74.0959 94.2545 73.9279C94.7585 73.7599 95.1705 73.5119 95.4905 73.1839C95.8185 72.8559 95.9825 72.4519 95.9825 71.9719C95.9825 71.7959 95.9545 71.6279 95.8985 71.4679C95.8505 71.2999 95.7665 71.1439 95.6465 70.9999C95.5265 70.8559 95.3545 70.7199 95.1305 70.5919C94.9145 70.4639 94.6385 70.3479 94.3025 70.2439L89.8145 68.9239C89.4785 68.8279 89.0865 68.6919 88.6385 68.5159C88.1985 68.3399 87.7705 68.0879 87.3545 67.7599C86.9385 67.4319 86.5905 66.9999 86.3105 66.4639C86.0385 65.9199 85.9025 65.2359 85.9025 64.4119C85.9025 63.2519 86.1945 62.2879 86.7785 61.5199C87.3625 60.7519 88.1425 60.1799 89.1185 59.8039C90.0945 59.4279 91.1745 59.2439 92.3585 59.2519C93.5505 59.2679 94.6145 59.4719 95.5505 59.8639C96.4865 60.2559 97.2705 60.8279 97.9025 61.5799C98.5345 62.3239 98.9905 63.2359 99.2705 64.3159L95.7425 64.9159C95.6145 64.3559 95.3785 63.8839 95.0345 63.4999C94.6905 63.1159 94.2785 62.8239 93.7985 62.6239C93.3265 62.4239 92.8305 62.3159 92.3105 62.2999C91.7985 62.2839 91.3145 62.3559 90.8585 62.5159C90.4105 62.6679 90.0425 62.8919 89.7545 63.1879C89.4745 63.4839 89.3345 63.8359 89.3345 64.2439C89.3345 64.6199 89.4505 64.9279 89.6825 65.1679C89.9145 65.3999 90.2065 65.5879 90.5585 65.7319C90.9105 65.8759 91.2705 65.9959 91.6385 66.0919L94.6385 66.9079C95.0865 67.0279 95.5825 67.1879 96.1265 67.3879C96.6705 67.5799 97.1905 67.8519 97.6865 68.2039C98.1905 68.5479 98.6025 69.0039 98.9225 69.5719C99.2505 70.1399 99.4145 70.8599 99.4145 71.7319C99.4145 72.6599 99.2185 73.4719 98.8265 74.1679C98.4425 74.8559 97.9225 75.4279 97.2665 75.8839C96.6105 76.3319 95.8665 76.6679 95.0345 76.8919C94.2105 77.1159 93.3585 77.2279 92.4785 77.2279ZM102.292 62.1079V59.2279H105.556V62.1079H102.292ZM102.292 76.8679V63.9079H105.556V76.8679H102.292ZM114.698 82.9879C113.962 82.9879 113.262 82.8679 112.598 82.6279C111.934 82.3959 111.338 82.0679 110.81 81.6439C110.29 81.2279 109.866 80.7399 109.538 80.1799L112.562 78.7159C112.77 79.0999 113.066 79.3919 113.45 79.5919C113.842 79.7919 114.266 79.8919 114.722 79.8919C115.21 79.8919 115.67 79.8079 116.102 79.6399C116.534 79.4799 116.878 79.2359 117.134 78.9079C117.398 78.5879 117.522 78.1879 117.506 77.7079V73.9399H117.914V63.9079H120.77V77.7559C120.77 78.0759 120.754 78.3759 120.722 78.6559C120.698 78.9439 120.65 79.2279 120.578 79.5079C120.37 80.2999 119.982 80.9519 119.414 81.4639C118.854 81.9759 118.166 82.3559 117.35 82.6039C116.534 82.8599 115.65 82.9879 114.698 82.9879ZM114.41 77.2279C113.218 77.2279 112.174 76.9279 111.278 76.3279C110.382 75.7279 109.682 74.9119 109.178 73.8799C108.682 72.8479 108.434 71.6839 108.434 70.3879C108.434 69.0679 108.686 67.8959 109.19 66.8719C109.702 65.8399 110.418 65.0279 111.338 64.4359C112.258 63.8439 113.338 63.5479 114.578 63.5479C115.81 63.5479 116.846 63.8479 117.686 64.4479C118.526 65.0479 119.162 65.8639 119.594 66.8959C120.026 67.9279 120.242 69.0919 120.242 70.3879C120.242 71.6839 120.022 72.8479 119.582 73.8799C119.15 74.9119 118.502 75.7279 117.638 76.3279C116.774 76.9279 115.698 77.2279 114.41 77.2279ZM114.938 74.3239C115.666 74.3239 116.246 74.1599 116.678 73.8319C117.118 73.5039 117.434 73.0439 117.626 72.4519C117.818 71.8599 117.914 71.1719 117.914 70.3879C117.914 69.6039 117.818 68.9159 117.626 68.3239C117.434 67.7319 117.126 67.2719 116.702 66.9439C116.286 66.6159 115.738 66.4519 115.058 66.4519C114.33 66.4519 113.73 66.6319 113.258 66.9919C112.794 67.3439 112.45 67.8199 112.226 68.4199C112.002 69.0119 111.89 69.6679 111.89 70.3879C111.89 71.1159 111.998 71.7799 112.214 72.3799C112.43 72.9719 112.762 73.4439 113.21 73.7959C113.658 74.1479 114.234 74.3239 114.938 74.3239ZM132.962 76.8679V70.7479C132.962 70.4519 132.946 70.0759 132.914 69.6199C132.882 69.1559 132.782 68.6919 132.614 68.2279C132.446 67.7639 132.17 67.3759 131.786 67.0639C131.41 66.7519 130.874 66.5959 130.178 66.5959C129.898 66.5959 129.598 66.6399 129.278 66.7279C128.958 66.8159 128.658 66.9879 128.378 67.2439C128.098 67.4919 127.866 67.8599 127.682 68.3479C127.506 68.8359 127.418 69.4839 127.418 70.2919L125.546 69.4039C125.546 68.3799 125.754 67.4199 126.17 66.5239C126.586 65.6279 127.21 64.9039 128.042 64.3519C128.882 63.7999 129.938 63.5239 131.21 63.5239C132.226 63.5239 133.054 63.6959 133.694 64.0399C134.334 64.3839 134.83 64.8199 135.182 65.3479C135.542 65.8759 135.798 66.4279 135.95 67.0039C136.102 67.5719 136.194 68.0919 136.226 68.5639C136.258 69.0359 136.274 69.3799 136.274 69.5959V76.8679H132.962ZM124.106 76.8679V63.9079H127.01V68.2039H127.418V76.8679H124.106ZM149.017 77.2519C148.001 77.2519 147.173 77.0799 146.533 76.7359C145.893 76.3919 145.393 75.9559 145.033 75.4279C144.681 74.8999 144.429 74.3519 144.277 73.7839C144.125 73.2079 144.033 72.6839 144.001 72.2119C143.969 71.7399 143.953 71.3959 143.953 71.1799V63.9079H147.265V70.0279C147.265 70.3239 147.281 70.7039 147.313 71.1679C147.345 71.6239 147.445 72.0839 147.613 72.5479C147.781 73.0119 148.053 73.3999 148.429 73.7119C148.813 74.0239 149.353 74.1799 150.049 74.1799C150.329 74.1799 150.629 74.1359 150.949 74.0479C151.269 73.9599 151.569 73.7919 151.849 73.5439C152.129 73.2879 152.357 72.9159 152.533 72.4279C152.717 71.9319 152.809 71.2839 152.809 70.4839L154.681 71.3719C154.681 72.3959 154.473 73.3559 154.057 74.2519C153.641 75.1479 153.013 75.8719 152.173 76.4239C151.341 76.9759 150.289 77.2519 149.017 77.2519ZM153.217 76.8679V72.5719H152.809V63.9079H156.097V76.8679H153.217ZM165.811 77.2279C164.523 77.2279 163.447 76.9279 162.583 76.3279C161.719 75.7279 161.067 74.9119 160.627 73.8799C160.195 72.8479 159.979 71.6839 159.979 70.3879C159.979 69.0919 160.195 67.9279 160.627 66.8959C161.059 65.8639 161.695 65.0479 162.535 64.4479C163.375 63.8479 164.411 63.5479 165.643 63.5479C166.883 63.5479 167.963 63.8439 168.883 64.4359C169.803 65.0279 170.515 65.8399 171.019 66.8719C171.531 67.8959 171.787 69.0679 171.787 70.3879C171.787 71.6839 171.535 72.8479 171.031 73.8799C170.535 74.9119 169.839 75.7279 168.943 76.3279C168.047 76.9279 167.003 77.2279 165.811 77.2279ZM159.427 82.6279V63.9079H162.307V72.7879H162.715V82.6279H159.427ZM165.283 74.3239C165.987 74.3239 166.563 74.1479 167.011 73.7959C167.459 73.4439 167.791 72.9719 168.007 72.3799C168.223 71.7799 168.331 71.1159 168.331 70.3879C168.331 69.6679 168.219 69.0119 167.995 68.4199C167.771 67.8199 167.423 67.3439 166.951 66.9919C166.487 66.6319 165.891 66.4519 165.163 66.4519C164.483 66.4519 163.931 66.6159 163.507 66.9439C163.091 67.2719 162.787 67.7319 162.595 68.3239C162.403 68.9159 162.307 69.6039 162.307 70.3879C162.307 71.1719 162.403 71.8599 162.595 72.4519C162.787 73.0439 163.099 73.5039 163.531 73.8319C163.971 74.1599 164.555 74.3239 165.283 74.3239ZM180.312 76.8679V63.9559C180.312 63.6279 180.32 63.2559 180.336 62.8399C180.352 62.4239 180.416 62.0039 180.528 61.5799C180.648 61.1559 180.864 60.7719 181.176 60.4279C181.576 59.9799 182.008 59.6759 182.472 59.5159C182.944 59.3479 183.4 59.2599 183.84 59.2519C184.28 59.2359 184.656 59.2279 184.968 59.2279H186.576V61.8679H185.088C184.576 61.8679 184.196 61.9999 183.948 62.2639C183.7 62.5199 183.576 62.8279 183.576 63.1879V76.8679H180.312ZM178.272 66.4279V63.9079H186.576V66.4279H178.272ZM193.853 77.2279C192.549 77.2279 191.405 76.9359 190.421 76.3519C189.437 75.7679 188.669 74.9639 188.117 73.9399C187.573 72.9079 187.301 71.7239 187.301 70.3879C187.301 69.0359 187.581 67.8479 188.141 66.8239C188.701 65.7919 189.473 64.9879 190.457 64.4119C191.441 63.8359 192.573 63.5479 193.853 63.5479C195.157 63.5479 196.301 63.8399 197.285 64.4239C198.277 65.0079 199.049 65.8159 199.601 66.8479C200.153 67.8719 200.429 69.0519 200.429 70.3879C200.429 71.7319 200.149 72.9199 199.589 73.9519C199.037 74.9759 198.265 75.7799 197.273 76.3639C196.289 76.9399 195.149 77.2279 193.853 77.2279ZM193.853 74.1799C194.901 74.1799 195.681 73.8279 196.193 73.1239C196.713 72.4119 196.973 71.4999 196.973 70.3879C196.973 69.2359 196.709 68.3159 196.181 67.6279C195.661 66.9399 194.885 66.5959 193.853 66.5959C193.141 66.5959 192.557 66.7559 192.101 67.0759C191.645 67.3959 191.305 67.8399 191.081 68.4079C190.865 68.9759 190.757 69.6359 190.757 70.3879C190.757 71.5479 191.017 72.4719 191.537 73.1599C192.065 73.8399 192.837 74.1799 193.853 74.1799ZM203.068 76.8679V63.9079H205.948V67.0759L205.636 66.6679C205.804 66.2199 206.028 65.8119 206.308 65.4439C206.588 65.0759 206.932 64.7719 207.34 64.5319C207.652 64.3399 207.992 64.1919 208.36 64.0879C208.728 63.9759 209.108 63.9079 209.5 63.8839C209.892 63.8519 210.284 63.8599 210.676 63.9079V66.9559C210.316 66.8439 209.896 66.8079 209.416 66.8479C208.944 66.8799 208.516 66.9879 208.132 67.1719C207.748 67.3479 207.424 67.5839 207.16 67.8799C206.896 68.1679 206.696 68.5119 206.56 68.9119C206.424 69.3039 206.356 69.7479 206.356 70.2439V76.8679H203.068ZM221.363 77.2279C220.435 77.2279 219.647 77.0519 218.999 76.6999C218.359 76.3399 217.871 75.8639 217.535 75.2719C217.207 74.6719 217.043 74.0119 217.043 73.2919C217.043 72.6919 217.135 72.1439 217.319 71.6479C217.503 71.1519 217.799 70.7159 218.207 70.3399C218.623 69.9559 219.179 69.6359 219.875 69.3799C220.355 69.2039 220.927 69.0479 221.591 68.9119C222.255 68.7759 223.007 68.6479 223.847 68.5279C224.687 68.3999 225.611 68.2599 226.619 68.1079L225.443 68.7559C225.443 67.9879 225.259 67.4239 224.891 67.0639C224.523 66.7039 223.907 66.5239 223.043 66.5239C222.563 66.5239 222.063 66.6399 221.543 66.8719C221.023 67.1039 220.659 67.5159 220.451 68.1079L217.499 67.1719C217.827 66.0999 218.443 65.2279 219.347 64.5559C220.251 63.8839 221.483 63.5479 223.043 63.5479C224.187 63.5479 225.203 63.7239 226.091 64.0759C226.979 64.4279 227.651 65.0359 228.107 65.8999C228.363 66.3799 228.515 66.8599 228.563 67.3399C228.611 67.8199 228.635 68.3559 228.635 68.9479V76.8679H225.779V74.2039L226.187 74.7559C225.555 75.6279 224.871 76.2599 224.135 76.6519C223.407 77.0359 222.483 77.2279 221.363 77.2279ZM222.059 74.6599C222.659 74.6599 223.163 74.5559 223.571 74.3479C223.987 74.1319 224.315 73.8879 224.555 73.6159C224.803 73.3439 224.971 73.1159 225.059 72.9319C225.227 72.5799 225.323 72.1719 225.347 71.7079C225.379 71.2359 225.395 70.8439 225.395 70.5319L226.355 70.7719C225.387 70.9319 224.603 71.0679 224.003 71.1799C223.403 71.2839 222.919 71.3799 222.551 71.4679C222.183 71.5559 221.859 71.6519 221.579 71.7559C221.259 71.8839 220.999 72.0239 220.799 72.1759C220.607 72.3199 220.463 72.4799 220.367 72.6559C220.279 72.8319 220.235 73.0279 220.235 73.2439C220.235 73.5399 220.307 73.7959 220.451 74.0119C220.603 74.2199 220.815 74.3799 221.087 74.4919C221.359 74.6039 221.683 74.6599 222.059 74.6599ZM237.64 76.8679V63.9559C237.64 63.6279 237.648 63.2559 237.664 62.8399C237.68 62.4239 237.744 62.0039 237.856 61.5799C237.976 61.1559 238.192 60.7719 238.504 60.4279C238.904 59.9799 239.336 59.6759 239.8 59.5159C240.272 59.3479 240.728 59.2599 241.168 59.2519C241.608 59.2359 241.984 59.2279 242.296 59.2279H243.904V61.8679H242.416C241.904 61.8679 241.524 61.9999 241.276 62.2639C241.028 62.5199 240.904 62.8279 240.904 63.1879V76.8679H237.64ZM235.6 66.4279V63.9079H243.904V66.4279H235.6ZM245.818 76.8679V63.9079H248.698V67.0759L248.386 66.6679C248.554 66.2199 248.778 65.8119 249.058 65.4439C249.338 65.0759 249.682 64.7719 250.09 64.5319C250.402 64.3399 250.742 64.1919 251.11 64.0879C251.478 63.9759 251.858 63.9079 252.25 63.8839C252.642 63.8519 253.034 63.8599 253.426 63.9079V66.9559C253.066 66.8439 252.646 66.8079 252.166 66.8479C251.694 66.8799 251.266 66.9879 250.882 67.1719C250.498 67.3479 250.174 67.5839 249.91 67.8799C249.646 68.1679 249.446 68.5119 249.31 68.9119C249.174 69.3039 249.106 69.7479 249.106 70.2439V76.8679H245.818ZM261.498 77.2279C260.17 77.2279 258.998 76.9439 257.982 76.3759C256.974 75.7999 256.182 75.0119 255.606 74.0119C255.038 73.0039 254.754 71.8519 254.754 70.5559C254.754 69.1399 255.034 67.9079 255.594 66.8599C256.154 65.8119 256.926 64.9999 257.91 64.4239C258.894 63.8399 260.026 63.5479 261.306 63.5479C262.666 63.5479 263.822 63.8679 264.774 64.5079C265.726 65.1479 266.43 66.0479 266.886 67.2079C267.342 68.3679 267.502 69.7319 267.366 71.2999H264.138V70.0999C264.138 68.7799 263.926 67.8319 263.502 67.2559C263.086 66.6719 262.402 66.3799 261.45 66.3799C260.338 66.3799 259.518 66.7199 258.99 67.3999C258.47 68.0719 258.21 69.0679 258.21 70.3879C258.21 71.5959 258.47 72.5319 258.99 73.1959C259.518 73.8519 260.29 74.1799 261.306 74.1799C261.946 74.1799 262.494 74.0399 262.95 73.7599C263.406 73.4799 263.754 73.0759 263.994 72.5479L267.258 73.4839C266.77 74.6679 265.998 75.5879 264.942 76.2439C263.894 76.8999 262.746 77.2279 261.498 77.2279ZM257.202 71.2999V68.8759H265.794V71.2999H257.202ZM276.1 77.2279C274.772 77.2279 273.6 76.9439 272.584 76.3759C271.576 75.7999 270.784 75.0119 270.208 74.0119C269.64 73.0039 269.356 71.8519 269.356 70.5559C269.356 69.1399 269.636 67.9079 270.196 66.8599C270.756 65.8119 271.528 64.9999 272.512 64.4239C273.496 63.8399 274.628 63.5479 275.908 63.5479C277.268 63.5479 278.424 63.8679 279.376 64.5079C280.328 65.1479 281.032 66.0479 281.488 67.2079C281.944 68.3679 282.104 69.7319 281.968 71.2999H278.74V70.0999C278.74 68.7799 278.528 67.8319 278.104 67.2559C277.688 66.6719 277.004 66.3799 276.052 66.3799C274.94 66.3799 274.12 66.7199 273.592 67.3999C273.072 68.0719 272.812 69.0679 272.812 70.3879C272.812 71.5959 273.072 72.5319 273.592 73.1959C274.12 73.8519 274.892 74.1799 275.908 74.1799C276.548 74.1799 277.096 74.0399 277.552 73.7599C278.008 73.4799 278.356 73.0759 278.596 72.5479L281.86 73.4839C281.372 74.6679 280.6 75.5879 279.544 76.2439C278.496 76.8999 277.348 77.2279 276.1 77.2279ZM271.804 71.2999V68.8759H280.396V71.2999H271.804ZM293.082 77.2279C292.154 77.2279 291.366 77.0519 290.718 76.6999C290.078 76.3399 289.59 75.8639 289.254 75.2719C288.926 74.6719 288.762 74.0119 288.762 73.2919C288.762 72.6919 288.854 72.1439 289.038 71.6479C289.222 71.1519 289.518 70.7159 289.926 70.3399C290.342 69.9559 290.898 69.6359 291.594 69.3799C292.074 69.2039 292.646 69.0479 293.31 68.9119C293.974 68.7759 294.726 68.6479 295.566 68.5279C296.406 68.3999 297.33 68.2599 298.338 68.1079L297.162 68.7559C297.162 67.9879 296.978 67.4239 296.61 67.0639C296.242 66.7039 295.626 66.5239 294.762 66.5239C294.282 66.5239 293.782 66.6399 293.262 66.8719C292.742 67.1039 292.378 67.5159 292.17 68.1079L289.218 67.1719C289.546 66.0999 290.162 65.2279 291.066 64.5559C291.97 63.8839 293.202 63.5479 294.762 63.5479C295.906 63.5479 296.922 63.7239 297.81 64.0759C298.698 64.4279 299.37 65.0359 299.826 65.8999C300.082 66.3799 300.234 66.8599 300.282 67.3399C300.33 67.8199 300.354 68.3559 300.354 68.9479V76.8679H297.498V74.2039L297.906 74.7559C297.274 75.6279 296.59 76.2599 295.854 76.6519C295.126 77.0359 294.202 77.2279 293.082 77.2279ZM293.778 74.6599C294.378 74.6599 294.882 74.5559 295.29 74.3479C295.706 74.1319 296.034 73.8879 296.274 73.6159C296.522 73.3439 296.69 73.1159 296.778 72.9319C296.946 72.5799 297.042 72.1719 297.066 71.7079C297.098 71.2359 297.114 70.8439 297.114 70.5319L298.074 70.7719C297.106 70.9319 296.322 71.0679 295.722 71.1799C295.122 71.2839 294.638 71.3799 294.27 71.4679C293.902 71.5559 293.578 71.6519 293.298 71.7559C292.978 71.8839 292.718 72.0239 292.518 72.1759C292.326 72.3199 292.182 72.4799 292.086 72.6559C291.998 72.8319 291.954 73.0279 291.954 73.2439C291.954 73.5399 292.026 73.7959 292.17 74.0119C292.322 74.2199 292.534 74.3799 292.806 74.4919C293.078 74.6039 293.402 74.6599 293.778 74.6599ZM309.186 77.2279C307.842 77.2279 306.69 76.9279 305.73 76.3279C304.77 75.7279 304.034 74.9119 303.522 73.8799C303.01 72.8479 302.754 71.6839 302.754 70.3879C302.754 69.0759 303.018 67.9039 303.546 66.8719C304.082 65.8399 304.834 65.0279 305.802 64.4359C306.77 63.8439 307.914 63.5479 309.234 63.5479C310.762 63.5479 312.042 63.9359 313.074 64.7119C314.114 65.4799 314.778 66.5319 315.066 67.8679L311.802 68.7319C311.61 68.0599 311.274 67.5359 310.794 67.1599C310.322 66.7839 309.786 66.5959 309.186 66.5959C308.498 66.5959 307.934 66.7639 307.494 67.0999C307.054 67.4279 306.73 67.8799 306.522 68.4559C306.314 69.0239 306.21 69.6679 306.21 70.3879C306.21 71.5159 306.458 72.4319 306.954 73.1359C307.458 73.8319 308.202 74.1799 309.186 74.1799C309.922 74.1799 310.482 74.0119 310.866 73.6759C311.25 73.3399 311.538 72.8599 311.73 72.2359L315.066 72.9319C314.698 74.3079 314.002 75.3679 312.978 76.1119C311.954 76.8559 310.69 77.2279 309.186 77.2279ZM322.827 77.2279C321.483 77.2279 320.331 76.9279 319.371 76.3279C318.411 75.7279 317.675 74.9119 317.163 73.8799C316.651 72.8479 316.395 71.6839 316.395 70.3879C316.395 69.0759 316.659 67.9039 317.187 66.8719C317.723 65.8399 318.475 65.0279 319.443 64.4359C320.411 63.8439 321.555 63.5479 322.875 63.5479C324.403 63.5479 325.683 63.9359 326.715 64.7119C327.755 65.4799 328.419 66.5319 328.707 67.8679L325.443 68.7319C325.251 68.0599 324.915 67.5359 324.435 67.1599C323.963 66.7839 323.427 66.5959 322.827 66.5959C322.139 66.5959 321.575 66.7639 321.135 67.0999C320.695 67.4279 320.371 67.8799 320.163 68.4559C319.955 69.0239 319.851 69.6679 319.851 70.3879C319.851 71.5159 320.099 72.4319 320.595 73.1359C321.099 73.8319 321.843 74.1799 322.827 74.1799C323.563 74.1799 324.123 74.0119 324.507 73.6759C324.891 73.3399 325.179 72.8599 325.371 72.2359L328.707 72.9319C328.339 74.3079 327.643 75.3679 326.619 76.1119C325.595 76.8559 324.331 77.2279 322.827 77.2279ZM336.587 77.2279C335.283 77.2279 334.139 76.9359 333.155 76.3519C332.171 75.7679 331.403 74.9639 330.851 73.9399C330.307 72.9079 330.035 71.7239 330.035 70.3879C330.035 69.0359 330.315 67.8479 330.875 66.8239C331.435 65.7919 332.207 64.9879 333.191 64.4119C334.175 63.8359 335.307 63.5479 336.587 63.5479C337.891 63.5479 339.035 63.8399 340.019 64.4239C341.011 65.0079 341.783 65.8159 342.335 66.8479C342.887 67.8719 343.163 69.0519 343.163 70.3879C343.163 71.7319 342.883 72.9199 342.323 73.9519C341.771 74.9759 340.999 75.7799 340.007 76.3639C339.023 76.9399 337.883 77.2279 336.587 77.2279ZM336.587 74.1799C337.635 74.1799 338.415 73.8279 338.927 73.1239C339.447 72.4119 339.707 71.4999 339.707 70.3879C339.707 69.2359 339.443 68.3159 338.915 67.6279C338.395 66.9399 337.619 66.5959 336.587 66.5959C335.875 66.5959 335.291 66.7559 334.835 67.0759C334.379 67.3959 334.039 67.8399 333.815 68.4079C333.599 68.9759 333.491 69.6359 333.491 70.3879C333.491 71.5479 333.751 72.4719 334.271 73.1599C334.799 73.8399 335.571 74.1799 336.587 74.1799ZM350.626 77.2519C349.61 77.2519 348.782 77.0799 348.142 76.7359C347.502 76.3919 347.002 75.9559 346.642 75.4279C346.29 74.8999 346.038 74.3519 345.886 73.7839C345.734 73.2079 345.642 72.6839 345.61 72.2119C345.578 71.7399 345.562 71.3959 345.562 71.1799V63.9079H348.874V70.0279C348.874 70.3239 348.89 70.7039 348.922 71.1679C348.954 71.6239 349.054 72.0839 349.222 72.5479C349.39 73.0119 349.662 73.3999 350.038 73.7119C350.422 74.0239 350.962 74.1799 351.658 74.1799C351.938 74.1799 352.238 74.1359 352.558 74.0479C352.878 73.9599 353.178 73.7919 353.458 73.5439C353.738 73.2879 353.966 72.9159 354.142 72.4279C354.326 71.9319 354.418 71.2839 354.418 70.4839L356.29 71.3719C356.29 72.3959 356.082 73.3559 355.666 74.2519C355.25 75.1479 354.622 75.8719 353.782 76.4239C352.95 76.9759 351.898 77.2519 350.626 77.2519ZM354.826 76.8679V72.5719H354.418V63.9079H357.706V76.8679H354.826ZM369.892 76.8679V70.7479C369.892 70.4519 369.876 70.0759 369.844 69.6199C369.812 69.1559 369.712 68.6919 369.544 68.2279C369.376 67.7639 369.1 67.3759 368.716 67.0639C368.34 66.7519 367.804 66.5959 367.108 66.5959C366.828 66.5959 366.528 66.6399 366.208 66.7279C365.888 66.8159 365.588 66.9879 365.308 67.2439C365.028 67.4919 364.796 67.8599 364.612 68.3479C364.436 68.8359 364.348 69.4839 364.348 70.2919L362.476 69.4039C362.476 68.3799 362.684 67.4199 363.1 66.5239C363.516 65.6279 364.14 64.9039 364.972 64.3519C365.812 63.7999 366.868 63.5239 368.14 63.5239C369.156 63.5239 369.984 63.6959 370.624 64.0399C371.264 64.3839 371.76 64.8199 372.112 65.3479C372.472 65.8759 372.728 66.4279 372.88 67.0039C373.032 67.5719 373.124 68.0919 373.156 68.5639C373.188 69.0359 373.204 69.3799 373.204 69.5959V76.8679H369.892ZM361.036 76.8679V63.9079H363.94V68.2039H364.348V76.8679H361.036ZM384.094 76.8679C383.198 77.0359 382.318 77.1079 381.454 77.0839C380.598 77.0679 379.83 76.9199 379.15 76.6399C378.478 76.3519 377.966 75.8919 377.614 75.2599C377.294 74.6679 377.126 74.0679 377.11 73.4599C377.094 72.8439 377.086 72.1479 377.086 71.3719V60.3079H380.35V71.1799C380.35 71.6839 380.354 72.1399 380.362 72.5479C380.378 72.9479 380.462 73.2679 380.614 73.5079C380.902 73.9639 381.362 74.2119 381.994 74.2519C382.626 74.2919 383.326 74.2599 384.094 74.1559V76.8679ZM374.878 66.4279V63.9079H384.094V66.4279H374.878Z" fill="#343434"/>
<g filter="url(#filter0_d_933_36307)">
<rect x="49" y="254" width="376" height="45" rx="5" fill="#310057" shape-rendering="crispEdges"/>
<path d="M189.125 281.585C188.117 281.585 187.258 281.366 186.549 280.927C185.839 280.484 185.296 279.868 184.918 279.079C184.544 278.29 184.358 277.376 184.358 276.335C184.358 275.294 184.544 274.38 184.918 273.591C185.296 272.802 185.839 272.189 186.549 271.75C187.258 271.307 188.117 271.085 189.125 271.085C190.287 271.085 191.248 271.379 192.008 271.967C192.774 272.555 193.306 273.346 193.605 274.34L192.121 274.739C191.925 274.034 191.575 273.481 191.071 273.08C190.571 272.679 189.923 272.478 189.125 272.478C188.411 272.478 187.816 272.639 187.34 272.961C186.864 273.283 186.504 273.733 186.262 274.312C186.024 274.891 185.905 275.565 185.905 276.335C185.9 277.105 186.017 277.779 186.255 278.358C186.497 278.937 186.857 279.387 187.333 279.709C187.813 280.031 188.411 280.192 189.125 280.192C189.923 280.192 190.571 279.991 191.071 279.59C191.575 279.184 191.925 278.631 192.121 277.931L193.605 278.33C193.306 279.324 192.774 280.115 192.008 280.703C191.248 281.291 190.287 281.585 189.125 281.585ZM195.144 281.375V273.815H196.446V275.649L196.264 275.411C196.357 275.168 196.479 274.947 196.628 274.746C196.777 274.541 196.95 274.373 197.146 274.242C197.337 274.102 197.55 273.995 197.783 273.92C198.021 273.841 198.264 273.794 198.511 273.78C198.758 273.761 198.996 273.773 199.225 273.815V275.187C198.978 275.122 198.702 275.103 198.399 275.131C198.1 275.159 197.825 275.255 197.573 275.418C197.335 275.572 197.146 275.759 197.006 275.978C196.871 276.197 196.773 276.442 196.712 276.713C196.651 276.979 196.621 277.261 196.621 277.56V281.375H195.144ZM203.774 281.585C203.023 281.585 202.363 281.422 201.793 281.095C201.229 280.764 200.788 280.304 200.47 279.716C200.158 279.123 200.001 278.437 200.001 277.658C200.001 276.832 200.155 276.116 200.463 275.509C200.776 274.902 201.21 274.433 201.765 274.102C202.321 273.771 202.967 273.605 203.704 273.605C204.474 273.605 205.13 273.785 205.671 274.144C206.213 274.499 206.616 275.005 206.882 275.663C207.153 276.321 207.26 277.103 207.204 278.008H205.741V277.476C205.732 276.599 205.564 275.95 205.237 275.53C204.915 275.11 204.423 274.9 203.76 274.9C203.028 274.9 202.477 275.131 202.108 275.593C201.74 276.055 201.555 276.722 201.555 277.595C201.555 278.426 201.74 279.07 202.108 279.527C202.477 279.98 203.009 280.206 203.704 280.206C204.162 280.206 204.556 280.103 204.887 279.898C205.223 279.688 205.485 279.389 205.671 279.002L207.106 279.457C206.812 280.134 206.367 280.659 205.769 281.032C205.172 281.401 204.507 281.585 203.774 281.585ZM201.079 278.008V276.867H206.476V278.008H201.079ZM210.773 281.585C210.213 281.585 209.744 281.482 209.366 281.277C208.988 281.067 208.701 280.792 208.505 280.451C208.314 280.106 208.218 279.728 208.218 279.317C208.218 278.934 208.286 278.598 208.421 278.309C208.557 278.02 208.757 277.775 209.023 277.574C209.289 277.369 209.616 277.203 210.003 277.077C210.339 276.979 210.72 276.893 211.144 276.818C211.569 276.743 212.015 276.673 212.481 276.608C212.953 276.543 213.419 276.477 213.881 276.412L213.349 276.706C213.359 276.113 213.233 275.675 212.971 275.39C212.715 275.101 212.271 274.956 211.641 274.956C211.245 274.956 210.881 275.049 210.549 275.236C210.218 275.418 209.987 275.721 209.856 276.146L208.491 275.726C208.678 275.077 209.033 274.562 209.555 274.179C210.083 273.796 210.783 273.605 211.655 273.605C212.332 273.605 212.92 273.722 213.419 273.955C213.923 274.184 214.292 274.548 214.525 275.047C214.647 275.294 214.721 275.556 214.749 275.831C214.777 276.106 214.791 276.403 214.791 276.72V281.375H213.496V279.646L213.748 279.87C213.436 280.449 213.037 280.88 212.551 281.165C212.071 281.445 211.478 281.585 210.773 281.585ZM211.032 280.388C211.448 280.388 211.805 280.316 212.103 280.171C212.402 280.022 212.642 279.833 212.824 279.604C213.006 279.375 213.125 279.137 213.181 278.89C213.261 278.666 213.305 278.414 213.314 278.134C213.328 277.854 213.335 277.63 213.335 277.462L213.811 277.637C213.349 277.707 212.929 277.77 212.551 277.826C212.173 277.882 211.83 277.938 211.522 277.994C211.219 278.045 210.948 278.108 210.71 278.183C210.51 278.253 210.33 278.337 210.171 278.435C210.017 278.533 209.894 278.652 209.8 278.792C209.712 278.932 209.667 279.102 209.667 279.303C209.667 279.499 209.716 279.681 209.814 279.849C209.912 280.012 210.062 280.143 210.262 280.241C210.463 280.339 210.72 280.388 211.032 280.388ZM220.935 281.375C220.459 281.468 219.992 281.508 219.535 281.494C219.078 281.48 218.669 281.391 218.31 281.228C217.951 281.065 217.68 280.808 217.498 280.458C217.335 280.145 217.246 279.828 217.232 279.506C217.223 279.179 217.218 278.811 217.218 278.4V271.715H218.688V278.33C218.688 278.633 218.69 278.897 218.695 279.121C218.704 279.345 218.753 279.534 218.842 279.688C219.01 279.977 219.276 280.143 219.64 280.185C220.009 280.222 220.44 280.206 220.935 280.136V281.375ZM215.769 274.991V273.815H220.935V274.991H215.769ZM225.54 281.585C224.789 281.585 224.128 281.422 223.559 281.095C222.994 280.764 222.553 280.304 222.236 279.716C221.923 279.123 221.767 278.437 221.767 277.658C221.767 276.832 221.921 276.116 222.229 275.509C222.542 274.902 222.976 274.433 223.531 274.102C224.086 273.771 224.733 273.605 225.47 273.605C226.24 273.605 226.896 273.785 227.437 274.144C227.978 274.499 228.382 275.005 228.648 275.663C228.919 276.321 229.026 277.103 228.97 278.008H227.507V277.476C227.498 276.599 227.33 275.95 227.003 275.53C226.681 275.11 226.189 274.9 225.526 274.9C224.793 274.9 224.243 275.131 223.874 275.593C223.505 276.055 223.321 276.722 223.321 277.595C223.321 278.426 223.505 279.07 223.874 279.527C224.243 279.98 224.775 280.206 225.47 280.206C225.927 280.206 226.322 280.103 226.653 279.898C226.989 279.688 227.25 279.389 227.437 279.002L228.872 279.457C228.578 280.134 228.132 280.659 227.535 281.032C226.938 281.401 226.273 281.585 225.54 281.585ZM222.845 278.008V276.867H228.242V278.008H222.845ZM235.478 281.585C234.918 281.585 234.449 281.482 234.071 281.277C233.693 281.067 233.406 280.792 233.21 280.451C233.019 280.106 232.923 279.728 232.923 279.317C232.923 278.934 232.991 278.598 233.126 278.309C233.262 278.02 233.462 277.775 233.728 277.574C233.994 277.369 234.321 277.203 234.708 277.077C235.044 276.979 235.425 276.893 235.849 276.818C236.274 276.743 236.72 276.673 237.186 276.608C237.658 276.543 238.124 276.477 238.586 276.412L238.054 276.706C238.064 276.113 237.938 275.675 237.676 275.39C237.42 275.101 236.976 274.956 236.346 274.956C235.95 274.956 235.586 275.049 235.254 275.236C234.923 275.418 234.692 275.721 234.561 276.146L233.196 275.726C233.383 275.077 233.738 274.562 234.26 274.179C234.788 273.796 235.488 273.605 236.36 273.605C237.037 273.605 237.625 273.722 238.124 273.955C238.628 274.184 238.997 274.548 239.23 275.047C239.352 275.294 239.426 275.556 239.454 275.831C239.482 276.106 239.496 276.403 239.496 276.72V281.375H238.201V279.646L238.453 279.87C238.141 280.449 237.742 280.88 237.256 281.165C236.776 281.445 236.183 281.585 235.478 281.585ZM235.737 280.388C236.153 280.388 236.51 280.316 236.808 280.171C237.107 280.022 237.347 279.833 237.529 279.604C237.711 279.375 237.83 279.137 237.886 278.89C237.966 278.666 238.01 278.414 238.019 278.134C238.033 277.854 238.04 277.63 238.04 277.462L238.516 277.637C238.054 277.707 237.634 277.77 237.256 277.826C236.878 277.882 236.535 277.938 236.227 277.994C235.924 278.045 235.653 278.108 235.415 278.183C235.215 278.253 235.035 278.337 234.876 278.435C234.722 278.533 234.599 278.652 234.505 278.792C234.417 278.932 234.372 279.102 234.372 279.303C234.372 279.499 234.421 279.681 234.519 279.849C234.617 280.012 234.767 280.143 234.967 280.241C235.168 280.339 235.425 280.388 235.737 280.388ZM244.548 281.585C243.773 281.585 243.115 281.412 242.574 281.067C242.033 280.722 241.617 280.248 241.328 279.646C241.043 279.044 240.899 278.36 240.894 277.595C240.899 276.816 241.048 276.127 241.342 275.53C241.636 274.928 242.056 274.457 242.602 274.116C243.148 273.775 243.804 273.605 244.569 273.605C245.395 273.605 246.1 273.81 246.683 274.221C247.271 274.632 247.658 275.194 247.845 275.908L246.389 276.328C246.244 275.903 246.006 275.574 245.675 275.341C245.348 275.103 244.973 274.984 244.548 274.984C244.067 274.984 243.673 275.098 243.365 275.327C243.057 275.551 242.828 275.859 242.679 276.251C242.53 276.643 242.453 277.091 242.448 277.595C242.453 278.374 242.63 279.004 242.98 279.485C243.335 279.966 243.857 280.206 244.548 280.206C245.019 280.206 245.4 280.099 245.689 279.884C245.983 279.665 246.207 279.352 246.361 278.946L247.845 279.296C247.598 280.033 247.189 280.6 246.62 280.997C246.051 281.389 245.36 281.585 244.548 281.585ZM252.3 281.585C251.525 281.585 250.867 281.412 250.326 281.067C249.785 280.722 249.369 280.248 249.08 279.646C248.795 279.044 248.651 278.36 248.646 277.595C248.651 276.816 248.8 276.127 249.094 275.53C249.388 274.928 249.808 274.457 250.354 274.116C250.9 273.775 251.556 273.605 252.321 273.605C253.147 273.605 253.852 273.81 254.435 274.221C255.023 274.632 255.41 275.194 255.597 275.908L254.141 276.328C253.996 275.903 253.758 275.574 253.427 275.341C253.1 275.103 252.725 274.984 252.3 274.984C251.819 274.984 251.425 275.098 251.117 275.327C250.809 275.551 250.58 275.859 250.431 276.251C250.282 276.643 250.205 277.091 250.2 277.595C250.205 278.374 250.382 279.004 250.732 279.485C251.087 279.966 251.609 280.206 252.3 280.206C252.771 280.206 253.152 280.099 253.441 279.884C253.735 279.665 253.959 279.352 254.113 278.946L255.597 279.296C255.35 280.033 254.941 280.6 254.372 280.997C253.803 281.389 253.112 281.585 252.3 281.585ZM260.101 281.585C259.345 281.585 258.689 281.415 258.134 281.074C257.579 280.733 257.149 280.264 256.846 279.667C256.547 279.065 256.398 278.372 256.398 277.588C256.398 276.799 256.552 276.106 256.86 275.509C257.168 274.907 257.6 274.44 258.155 274.109C258.71 273.773 259.359 273.605 260.101 273.605C260.857 273.605 261.513 273.775 262.068 274.116C262.623 274.457 263.053 274.926 263.356 275.523C263.659 276.12 263.811 276.809 263.811 277.588C263.811 278.377 263.657 279.072 263.349 279.674C263.046 280.271 262.616 280.74 262.061 281.081C261.506 281.417 260.852 281.585 260.101 281.585ZM260.101 280.206C260.824 280.206 261.363 279.963 261.718 279.478C262.077 278.988 262.257 278.358 262.257 277.588C262.257 276.799 262.075 276.169 261.711 275.698C261.352 275.222 260.815 274.984 260.101 274.984C259.611 274.984 259.207 275.096 258.89 275.32C258.573 275.539 258.337 275.845 258.183 276.237C258.029 276.624 257.952 277.075 257.952 277.588C257.952 278.381 258.134 279.016 258.498 279.492C258.862 279.968 259.396 280.206 260.101 280.206ZM268.198 281.578C267.675 281.578 267.237 281.494 266.882 281.326C266.527 281.158 266.238 280.939 266.014 280.668C265.795 280.393 265.627 280.094 265.51 279.772C265.393 279.45 265.314 279.135 265.272 278.827C265.23 278.519 265.209 278.248 265.209 278.015V273.815H266.693V277.532C266.693 277.826 266.716 278.129 266.763 278.442C266.814 278.75 266.908 279.037 267.043 279.303C267.183 279.569 267.377 279.784 267.624 279.947C267.876 280.11 268.203 280.192 268.604 280.192C268.865 280.192 269.113 280.15 269.346 280.066C269.579 279.977 269.782 279.837 269.955 279.646C270.132 279.455 270.27 279.203 270.368 278.89C270.471 278.577 270.522 278.197 270.522 277.749L271.432 278.092C271.432 278.778 271.304 279.385 271.047 279.912C270.79 280.435 270.422 280.843 269.941 281.137C269.46 281.431 268.879 281.578 268.198 281.578ZM270.697 281.375V279.191H270.522V273.815H271.999V281.375H270.697ZM279.268 281.375V277.658C279.268 277.364 279.243 277.063 279.191 276.755C279.145 276.442 279.051 276.153 278.911 275.887C278.776 275.621 278.582 275.406 278.33 275.243C278.083 275.08 277.759 274.998 277.357 274.998C277.096 274.998 276.849 275.042 276.615 275.131C276.382 275.215 276.177 275.353 275.999 275.544C275.827 275.735 275.689 275.987 275.586 276.3C275.488 276.613 275.439 276.993 275.439 277.441L274.529 277.098C274.529 276.412 274.658 275.808 274.914 275.285C275.171 274.758 275.54 274.347 276.02 274.053C276.501 273.759 277.082 273.612 277.763 273.612C278.286 273.612 278.725 273.696 279.079 273.864C279.434 274.032 279.721 274.254 279.94 274.529C280.164 274.8 280.335 275.096 280.451 275.418C280.568 275.74 280.647 276.055 280.689 276.363C280.731 276.671 280.752 276.942 280.752 277.175V281.375H279.268ZM273.955 281.375V273.815H275.264V275.999H275.439V281.375H273.955ZM286.902 281.375C286.426 281.468 285.959 281.508 285.502 281.494C285.044 281.48 284.636 281.391 284.277 281.228C283.917 281.065 283.647 280.808 283.465 280.458C283.301 280.145 283.213 279.828 283.199 279.506C283.189 279.179 283.185 278.811 283.185 278.4V271.715H284.655V278.33C284.655 278.633 284.657 278.897 284.662 279.121C284.671 279.345 284.72 279.534 284.809 279.688C284.977 279.977 285.243 280.143 285.607 280.185C285.975 280.222 286.407 280.206 286.902 280.136V281.375ZM281.736 274.991V273.815H286.902V274.991H281.736Z" fill="#F4CD49"/>
</g>
<rect x="48.4189" y="108.187" width="179.302" height="30.2619" fill="white"/>
<rect x="48.7972" y="108.565" width="178.545" height="29.5054" stroke="black" stroke-opacity="0.5" stroke-width="0.756548"/>
<path d="M59.8507 127.239V118.599H64.8127V119.481H60.7327V122.481H64.0927V123.357H60.7327V127.239H59.8507ZM66.0176 119.529V118.539H66.8996V119.529H66.0176ZM66.0176 127.239V120.759H66.8996V127.239H66.0176ZM68.6984 127.239V120.759H69.4904V122.319L69.3344 122.115C69.4064 121.923 69.5004 121.747 69.6164 121.587C69.7324 121.423 69.8584 121.289 69.9944 121.185C70.1624 121.037 70.3584 120.925 70.5824 120.849C70.8064 120.769 71.0324 120.723 71.2604 120.711C71.4884 120.695 71.6964 120.711 71.8844 120.759V121.587C71.6484 121.527 71.3904 121.513 71.1104 121.545C70.8304 121.577 70.5724 121.689 70.3364 121.881C70.1204 122.049 69.9584 122.251 69.8504 122.487C69.7424 122.719 69.6704 122.967 69.6344 123.231C69.5984 123.491 69.5804 123.749 69.5804 124.005V127.239H68.6984ZM75.2062 127.413C74.4462 127.413 73.8202 127.249 73.3282 126.921C72.8402 126.593 72.5402 126.137 72.4282 125.553L73.3282 125.403C73.4242 125.771 73.6422 126.065 73.9822 126.285C74.3262 126.501 74.7502 126.609 75.2542 126.609C75.7462 126.609 76.1342 126.507 76.4182 126.303C76.7022 126.095 76.8442 125.813 76.8442 125.457C76.8442 125.257 76.7982 125.095 76.7062 124.971C76.6182 124.843 76.4362 124.725 76.1602 124.617C75.8842 124.509 75.4722 124.381 74.9242 124.233C74.3362 124.073 73.8762 123.913 73.5442 123.753C73.2122 123.593 72.9762 123.409 72.8362 123.201C72.6962 122.989 72.6262 122.731 72.6262 122.427C72.6262 122.059 72.7302 121.737 72.9382 121.461C73.1462 121.181 73.4342 120.965 73.8022 120.813C74.1702 120.657 74.5982 120.579 75.0862 120.579C75.5742 120.579 76.0102 120.659 76.3942 120.819C76.7822 120.975 77.0942 121.195 77.3302 121.479C77.5662 121.763 77.7062 122.093 77.7502 122.469L76.8502 122.631C76.7902 122.251 76.6002 121.951 76.2802 121.731C75.9642 121.507 75.5622 121.391 75.0742 121.383C74.6142 121.371 74.2402 121.459 73.9522 121.647C73.6642 121.831 73.5202 122.077 73.5202 122.385C73.5202 122.557 73.5722 122.705 73.6762 122.829C73.7802 122.949 73.9682 123.063 74.2402 123.171C74.5162 123.279 74.9082 123.397 75.4162 123.525C76.0122 123.677 76.4802 123.837 76.8202 124.005C77.1602 124.173 77.4022 124.371 77.5462 124.599C77.6902 124.827 77.7622 125.109 77.7622 125.445C77.7622 126.057 77.5342 126.539 77.0782 126.891C76.6262 127.239 76.0022 127.413 75.2062 127.413ZM82.6209 127.239C82.2569 127.315 81.8969 127.345 81.5409 127.329C81.1889 127.313 80.8729 127.237 80.5929 127.101C80.3169 126.965 80.1069 126.753 79.9629 126.465C79.8469 126.225 79.7829 125.983 79.7709 125.739C79.7629 125.491 79.7589 125.209 79.7589 124.893V118.959H80.6349V124.857C80.6349 125.129 80.6369 125.357 80.6409 125.541C80.6489 125.721 80.6909 125.881 80.7669 126.021C80.9109 126.289 81.1389 126.449 81.4509 126.501C81.7669 126.553 82.1569 126.541 82.6209 126.465V127.239ZM78.3729 121.515V120.759H82.6209V121.515H78.3729ZM90.98 127.239V123.933C90.98 123.573 90.946 123.243 90.878 122.943C90.81 122.639 90.7 122.375 90.548 122.151C90.4 121.923 90.206 121.747 89.966 121.623C89.73 121.499 89.442 121.437 89.102 121.437C88.79 121.437 88.514 121.491 88.274 121.599C88.038 121.707 87.838 121.863 87.674 122.067C87.514 122.267 87.392 122.511 87.308 122.799C87.224 123.087 87.182 123.415 87.182 123.783L86.558 123.645C86.558 122.981 86.674 122.423 86.906 121.971C87.138 121.519 87.458 121.177 87.866 120.945C88.274 120.713 88.742 120.597 89.27 120.597C89.658 120.597 89.996 120.657 90.284 120.777C90.576 120.897 90.822 121.059 91.022 121.263C91.226 121.467 91.39 121.701 91.514 121.965C91.638 122.225 91.728 122.503 91.784 122.799C91.84 123.091 91.868 123.383 91.868 123.675V127.239H90.98ZM86.294 127.239V120.759H87.092V122.355H87.182V127.239H86.294ZM95.279 127.419C94.791 127.419 94.381 127.331 94.049 127.155C93.721 126.979 93.475 126.745 93.311 126.453C93.147 126.161 93.065 125.843 93.065 125.499C93.065 125.147 93.135 124.847 93.275 124.599C93.419 124.347 93.613 124.141 93.857 123.981C94.105 123.821 94.391 123.699 94.715 123.615C95.043 123.535 95.405 123.465 95.801 123.405C96.201 123.341 96.591 123.287 96.971 123.243C97.355 123.195 97.691 123.149 97.979 123.105L97.667 123.297C97.679 122.657 97.555 122.183 97.295 121.875C97.035 121.567 96.583 121.413 95.939 121.413C95.495 121.413 95.119 121.513 94.811 121.713C94.507 121.913 94.293 122.229 94.169 122.661L93.311 122.409C93.459 121.829 93.757 121.379 94.205 121.059C94.653 120.739 95.235 120.579 95.951 120.579C96.543 120.579 97.045 120.691 97.457 120.915C97.873 121.135 98.167 121.455 98.339 121.875C98.419 122.063 98.471 122.273 98.495 122.505C98.519 122.737 98.531 122.973 98.531 123.213V127.239H97.745V125.613L97.973 125.709C97.753 126.265 97.411 126.689 96.947 126.981C96.483 127.273 95.927 127.419 95.279 127.419ZM95.381 126.657C95.793 126.657 96.153 126.583 96.461 126.435C96.769 126.287 97.017 126.085 97.205 125.829C97.393 125.569 97.515 125.277 97.571 124.953C97.619 124.745 97.645 124.517 97.649 124.269C97.653 124.017 97.655 123.829 97.655 123.705L97.991 123.879C97.691 123.919 97.365 123.959 97.013 123.999C96.665 124.039 96.321 124.085 95.981 124.137C95.645 124.189 95.341 124.251 95.069 124.323C94.885 124.375 94.707 124.449 94.535 124.545C94.363 124.637 94.221 124.761 94.109 124.917C94.001 125.073 93.947 125.267 93.947 125.499C93.947 125.687 93.993 125.869 94.085 126.045C94.181 126.221 94.333 126.367 94.541 126.483C94.753 126.599 95.033 126.657 95.381 126.657ZM107.821 127.239L107.827 122.985C107.827 122.485 107.687 122.093 107.407 121.809C107.131 121.521 106.779 121.377 106.351 121.377C106.107 121.377 105.869 121.433 105.637 121.545C105.405 121.657 105.213 121.837 105.061 122.085C104.913 122.333 104.839 122.657 104.839 123.057L104.317 122.907C104.305 122.443 104.395 122.037 104.587 121.689C104.783 121.341 105.051 121.071 105.391 120.879C105.735 120.683 106.123 120.585 106.555 120.585C107.207 120.585 107.729 120.787 108.121 121.191C108.513 121.591 108.709 122.133 108.709 122.817L108.703 127.239H107.821ZM100.087 127.239V120.759H100.879V122.355H100.975V127.239H100.087ZM103.963 127.239L103.969 123.045C103.969 122.529 103.831 122.123 103.555 121.827C103.283 121.527 102.923 121.377 102.475 121.377C102.027 121.377 101.665 121.531 101.389 121.839C101.113 122.143 100.975 122.549 100.975 123.057L100.447 122.769C100.447 122.353 100.545 121.981 100.741 121.653C100.937 121.321 101.205 121.061 101.545 120.873C101.885 120.681 102.271 120.585 102.703 120.585C103.115 120.585 103.481 120.673 103.801 120.849C104.125 121.025 104.379 121.281 104.563 121.617C104.747 121.953 104.839 122.361 104.839 122.841L104.833 127.239H103.963ZM112.96 127.419C112.328 127.419 111.78 127.279 111.316 126.999C110.856 126.719 110.498 126.325 110.242 125.817C109.986 125.309 109.858 124.713 109.858 124.029C109.858 123.321 109.984 122.709 110.236 122.193C110.488 121.677 110.842 121.279 111.298 120.999C111.758 120.719 112.3 120.579 112.924 120.579C113.564 120.579 114.11 120.727 114.562 121.023C115.014 121.315 115.356 121.735 115.588 122.283C115.82 122.831 115.926 123.485 115.906 124.245H115.006V123.933C114.99 123.093 114.808 122.459 114.46 122.031C114.116 121.603 113.612 121.389 112.948 121.389C112.252 121.389 111.718 121.615 111.346 122.067C110.978 122.519 110.794 123.163 110.794 123.999C110.794 124.815 110.978 125.449 111.346 125.901C111.718 126.349 112.244 126.573 112.924 126.573C113.388 126.573 113.792 126.467 114.136 126.255C114.484 126.039 114.758 125.729 114.958 125.325L115.78 125.643C115.524 126.207 115.146 126.645 114.646 126.957C114.15 127.265 113.588 127.419 112.96 127.419ZM110.482 124.245V123.507H115.432V124.245H110.482Z" fill="#343434" fill-opacity="0.8"/>
<rect x="242.852" y="108.187" width="179.302" height="30.2619" fill="white"/>
<rect x="243.23" y="108.565" width="178.545" height="29.5054" stroke="black" stroke-opacity="0.5" stroke-width="0.756548"/>
<path d="M254.403 127.239V118.599H255.285V126.393H259.389V127.239H254.403ZM262.266 127.419C261.778 127.419 261.368 127.331 261.036 127.155C260.708 126.979 260.462 126.745 260.298 126.453C260.134 126.161 260.052 125.843 260.052 125.499C260.052 125.147 260.122 124.847 260.262 124.599C260.406 124.347 260.6 124.141 260.844 123.981C261.092 123.821 261.378 123.699 261.702 123.615C262.03 123.535 262.392 123.465 262.788 123.405C263.188 123.341 263.578 123.287 263.958 123.243C264.342 123.195 264.678 123.149 264.966 123.105L264.654 123.297C264.666 122.657 264.542 122.183 264.282 121.875C264.022 121.567 263.57 121.413 262.926 121.413C262.482 121.413 262.106 121.513 261.798 121.713C261.494 121.913 261.28 122.229 261.156 122.661L260.298 122.409C260.446 121.829 260.744 121.379 261.192 121.059C261.64 120.739 262.222 120.579 262.938 120.579C263.53 120.579 264.032 120.691 264.444 120.915C264.86 121.135 265.154 121.455 265.326 121.875C265.406 122.063 265.458 122.273 265.482 122.505C265.506 122.737 265.518 122.973 265.518 123.213V127.239H264.732V125.613L264.96 125.709C264.74 126.265 264.398 126.689 263.934 126.981C263.47 127.273 262.914 127.419 262.266 127.419ZM262.368 126.657C262.78 126.657 263.14 126.583 263.448 126.435C263.756 126.287 264.004 126.085 264.192 125.829C264.38 125.569 264.502 125.277 264.558 124.953C264.606 124.745 264.632 124.517 264.636 124.269C264.64 124.017 264.642 123.829 264.642 123.705L264.978 123.879C264.678 123.919 264.352 123.959 264 123.999C263.652 124.039 263.308 124.085 262.968 124.137C262.632 124.189 262.328 124.251 262.056 124.323C261.872 124.375 261.694 124.449 261.522 124.545C261.35 124.637 261.208 124.761 261.096 124.917C260.988 125.073 260.934 125.267 260.934 125.499C260.934 125.687 260.98 125.869 261.072 126.045C261.168 126.221 261.32 126.367 261.528 126.483C261.74 126.599 262.02 126.657 262.368 126.657ZM269.498 127.413C268.738 127.413 268.112 127.249 267.62 126.921C267.132 126.593 266.832 126.137 266.72 125.553L267.62 125.403C267.716 125.771 267.934 126.065 268.274 126.285C268.618 126.501 269.042 126.609 269.546 126.609C270.038 126.609 270.426 126.507 270.71 126.303C270.994 126.095 271.136 125.813 271.136 125.457C271.136 125.257 271.09 125.095 270.998 124.971C270.91 124.843 270.728 124.725 270.452 124.617C270.176 124.509 269.764 124.381 269.216 124.233C268.628 124.073 268.168 123.913 267.836 123.753C267.504 123.593 267.268 123.409 267.128 123.201C266.988 122.989 266.918 122.731 266.918 122.427C266.918 122.059 267.022 121.737 267.23 121.461C267.438 121.181 267.726 120.965 268.094 120.813C268.462 120.657 268.89 120.579 269.378 120.579C269.866 120.579 270.302 120.659 270.686 120.819C271.074 120.975 271.386 121.195 271.622 121.479C271.858 121.763 271.998 122.093 272.042 122.469L271.142 122.631C271.082 122.251 270.892 121.951 270.572 121.731C270.256 121.507 269.854 121.391 269.366 121.383C268.906 121.371 268.532 121.459 268.244 121.647C267.956 121.831 267.812 122.077 267.812 122.385C267.812 122.557 267.864 122.705 267.968 122.829C268.072 122.949 268.26 123.063 268.532 123.171C268.808 123.279 269.2 123.397 269.708 123.525C270.304 123.677 270.772 123.837 271.112 124.005C271.452 124.173 271.694 124.371 271.838 124.599C271.982 124.827 272.054 125.109 272.054 125.445C272.054 126.057 271.826 126.539 271.37 126.891C270.918 127.239 270.294 127.413 269.498 127.413ZM276.913 127.239C276.549 127.315 276.189 127.345 275.833 127.329C275.481 127.313 275.165 127.237 274.885 127.101C274.609 126.965 274.399 126.753 274.255 126.465C274.139 126.225 274.075 125.983 274.063 125.739C274.055 125.491 274.051 125.209 274.051 124.893V118.959H274.927V124.857C274.927 125.129 274.929 125.357 274.933 125.541C274.941 125.721 274.983 125.881 275.059 126.021C275.203 126.289 275.431 126.449 275.743 126.501C276.059 126.553 276.449 126.541 276.913 126.465V127.239ZM272.665 121.515V120.759H276.913V121.515H272.665ZM285.272 127.239V123.933C285.272 123.573 285.238 123.243 285.17 122.943C285.102 122.639 284.992 122.375 284.84 122.151C284.692 121.923 284.498 121.747 284.258 121.623C284.022 121.499 283.734 121.437 283.394 121.437C283.082 121.437 282.806 121.491 282.566 121.599C282.33 121.707 282.13 121.863 281.966 122.067C281.806 122.267 281.684 122.511 281.6 122.799C281.516 123.087 281.474 123.415 281.474 123.783L280.85 123.645C280.85 122.981 280.966 122.423 281.198 121.971C281.43 121.519 281.75 121.177 282.158 120.945C282.566 120.713 283.034 120.597 283.562 120.597C283.95 120.597 284.288 120.657 284.576 120.777C284.868 120.897 285.114 121.059 285.314 121.263C285.518 121.467 285.682 121.701 285.806 121.965C285.93 122.225 286.02 122.503 286.076 122.799C286.132 123.091 286.16 123.383 286.16 123.675V127.239H285.272ZM280.586 127.239V120.759H281.384V122.355H281.474V127.239H280.586ZM289.571 127.419C289.083 127.419 288.673 127.331 288.341 127.155C288.013 126.979 287.767 126.745 287.603 126.453C287.439 126.161 287.357 125.843 287.357 125.499C287.357 125.147 287.427 124.847 287.567 124.599C287.711 124.347 287.905 124.141 288.149 123.981C288.397 123.821 288.683 123.699 289.007 123.615C289.335 123.535 289.697 123.465 290.093 123.405C290.493 123.341 290.883 123.287 291.263 123.243C291.647 123.195 291.983 123.149 292.271 123.105L291.959 123.297C291.971 122.657 291.847 122.183 291.587 121.875C291.327 121.567 290.875 121.413 290.231 121.413C289.787 121.413 289.411 121.513 289.103 121.713C288.799 121.913 288.585 122.229 288.461 122.661L287.603 122.409C287.751 121.829 288.049 121.379 288.497 121.059C288.945 120.739 289.527 120.579 290.243 120.579C290.835 120.579 291.337 120.691 291.749 120.915C292.165 121.135 292.459 121.455 292.631 121.875C292.711 122.063 292.763 122.273 292.787 122.505C292.811 122.737 292.823 122.973 292.823 123.213V127.239H292.037V125.613L292.265 125.709C292.045 126.265 291.703 126.689 291.239 126.981C290.775 127.273 290.219 127.419 289.571 127.419ZM289.673 126.657C290.085 126.657 290.445 126.583 290.753 126.435C291.061 126.287 291.309 126.085 291.497 125.829C291.685 125.569 291.807 125.277 291.863 124.953C291.911 124.745 291.937 124.517 291.941 124.269C291.945 124.017 291.947 123.829 291.947 123.705L292.283 123.879C291.983 123.919 291.657 123.959 291.305 123.999C290.957 124.039 290.613 124.085 290.273 124.137C289.937 124.189 289.633 124.251 289.361 124.323C289.177 124.375 288.999 124.449 288.827 124.545C288.655 124.637 288.513 124.761 288.401 124.917C288.293 125.073 288.239 125.267 288.239 125.499C288.239 125.687 288.285 125.869 288.377 126.045C288.473 126.221 288.625 126.367 288.833 126.483C289.045 126.599 289.325 126.657 289.673 126.657ZM302.113 127.239L302.119 122.985C302.119 122.485 301.979 122.093 301.699 121.809C301.423 121.521 301.071 121.377 300.643 121.377C300.399 121.377 300.161 121.433 299.929 121.545C299.697 121.657 299.505 121.837 299.353 122.085C299.205 122.333 299.131 122.657 299.131 123.057L298.609 122.907C298.597 122.443 298.687 122.037 298.879 121.689C299.075 121.341 299.343 121.071 299.683 120.879C300.027 120.683 300.415 120.585 300.847 120.585C301.499 120.585 302.021 120.787 302.413 121.191C302.805 121.591 303.001 122.133 303.001 122.817L302.995 127.239H302.113ZM294.379 127.239V120.759H295.171V122.355H295.267V127.239H294.379ZM298.255 127.239L298.261 123.045C298.261 122.529 298.123 122.123 297.847 121.827C297.575 121.527 297.215 121.377 296.767 121.377C296.319 121.377 295.957 121.531 295.681 121.839C295.405 122.143 295.267 122.549 295.267 123.057L294.739 122.769C294.739 122.353 294.837 121.981 295.033 121.653C295.229 121.321 295.497 121.061 295.837 120.873C296.177 120.681 296.563 120.585 296.995 120.585C297.407 120.585 297.773 120.673 298.093 120.849C298.417 121.025 298.671 121.281 298.855 121.617C299.039 121.953 299.131 122.361 299.131 122.841L299.125 127.239H298.255ZM307.252 127.419C306.62 127.419 306.072 127.279 305.608 126.999C305.148 126.719 304.79 126.325 304.534 125.817C304.278 125.309 304.15 124.713 304.15 124.029C304.15 123.321 304.276 122.709 304.528 122.193C304.78 121.677 305.134 121.279 305.59 120.999C306.05 120.719 306.592 120.579 307.216 120.579C307.856 120.579 308.402 120.727 308.854 121.023C309.306 121.315 309.648 121.735 309.88 122.283C310.112 122.831 310.218 123.485 310.198 124.245H309.298V123.933C309.282 123.093 309.1 122.459 308.752 122.031C308.408 121.603 307.904 121.389 307.24 121.389C306.544 121.389 306.01 121.615 305.638 122.067C305.27 122.519 305.086 123.163 305.086 123.999C305.086 124.815 305.27 125.449 305.638 125.901C306.01 126.349 306.536 126.573 307.216 126.573C307.68 126.573 308.084 126.467 308.428 126.255C308.776 126.039 309.05 125.729 309.25 125.325L310.072 125.643C309.816 126.207 309.438 126.645 308.938 126.957C308.442 127.265 307.88 127.419 307.252 127.419ZM304.774 124.245V123.507H309.724V124.245H304.774Z" fill="#343434" fill-opacity="0.8"/>
<rect x="48.4189" y="156.605" width="373.734" height="30.2619" fill="white"/>
<rect x="48.7972" y="156.984" width="372.978" height="29.5054" stroke="black" stroke-opacity="0.5" stroke-width="0.756548"/>
<path d="M59.8507 175.658V167.018H65.2507V167.864H60.7327V170.852H64.5307V171.698H60.7327V174.812H65.2507V175.658H59.8507ZM74.4225 175.658L74.4285 171.404C74.4285 170.904 74.2885 170.512 74.0085 170.228C73.7325 169.94 73.3805 169.796 72.9525 169.796C72.7085 169.796 72.4705 169.852 72.2385 169.964C72.0065 170.076 71.8145 170.256 71.6625 170.504C71.5145 170.752 71.4405 171.076 71.4405 171.476L70.9185 171.326C70.9065 170.862 70.9965 170.456 71.1885 170.108C71.3845 169.76 71.6525 169.49 71.9925 169.298C72.3365 169.102 72.7245 169.004 73.1565 169.004C73.8085 169.004 74.3305 169.206 74.7225 169.61C75.1145 170.01 75.3105 170.552 75.3105 171.236L75.3045 175.658H74.4225ZM66.6885 175.658V169.178H67.4805V170.774H67.5765V175.658H66.6885ZM70.5645 175.658L70.5705 171.464C70.5705 170.948 70.4325 170.542 70.1565 170.246C69.8845 169.946 69.5245 169.796 69.0765 169.796C68.6285 169.796 68.2665 169.95 67.9905 170.258C67.7145 170.562 67.5765 170.968 67.5765 171.476L67.0485 171.188C67.0485 170.772 67.1465 170.4 67.3425 170.072C67.5385 169.74 67.8065 169.48 68.1465 169.292C68.4865 169.1 68.8725 169.004 69.3045 169.004C69.7165 169.004 70.0825 169.092 70.4025 169.268C70.7265 169.444 70.9805 169.7 71.1645 170.036C71.3485 170.372 71.4405 170.78 71.4405 171.26L71.4345 175.658H70.5645ZM78.7204 175.838C78.2324 175.838 77.8224 175.75 77.4904 175.574C77.1624 175.398 76.9164 175.164 76.7524 174.872C76.5884 174.58 76.5064 174.262 76.5064 173.918C76.5064 173.566 76.5764 173.266 76.7164 173.018C76.8604 172.766 77.0544 172.56 77.2984 172.4C77.5464 172.24 77.8324 172.118 78.1564 172.034C78.4844 171.954 78.8464 171.884 79.2424 171.824C79.6424 171.76 80.0324 171.706 80.4124 171.662C80.7964 171.614 81.1324 171.568 81.4204 171.524L81.1084 171.716C81.1204 171.076 80.9964 170.602 80.7364 170.294C80.4764 169.986 80.0244 169.832 79.3804 169.832C78.9364 169.832 78.5604 169.932 78.2524 170.132C77.9484 170.332 77.7344 170.648 77.6104 171.08L76.7524 170.828C76.9004 170.248 77.1984 169.798 77.6464 169.478C78.0944 169.158 78.6764 168.998 79.3924 168.998C79.9844 168.998 80.4864 169.11 80.8984 169.334C81.3144 169.554 81.6084 169.874 81.7804 170.294C81.8604 170.482 81.9124 170.692 81.9364 170.924C81.9604 171.156 81.9724 171.392 81.9724 171.632V175.658H81.1864V174.032L81.4144 174.128C81.1944 174.684 80.8524 175.108 80.3884 175.4C79.9244 175.692 79.3684 175.838 78.7204 175.838ZM78.8224 175.076C79.2344 175.076 79.5944 175.002 79.9024 174.854C80.2104 174.706 80.4584 174.504 80.6464 174.248C80.8344 173.988 80.9564 173.696 81.0124 173.372C81.0604 173.164 81.0864 172.936 81.0904 172.688C81.0944 172.436 81.0964 172.248 81.0964 172.124L81.4324 172.298C81.1324 172.338 80.8064 172.378 80.4544 172.418C80.1064 172.458 79.7624 172.504 79.4224 172.556C79.0864 172.608 78.7824 172.67 78.5104 172.742C78.3264 172.794 78.1484 172.868 77.9764 172.964C77.8044 173.056 77.6624 173.18 77.5504 173.336C77.4424 173.492 77.3884 173.686 77.3884 173.918C77.3884 174.106 77.4344 174.288 77.5264 174.464C77.6224 174.64 77.7744 174.786 77.9824 174.902C78.1944 175.018 78.4744 175.076 78.8224 175.076ZM83.6543 167.948V166.958H84.5363V167.948H83.6543ZM83.6543 175.658V169.178H84.5363V175.658H83.6543ZM86.4551 175.658V166.838H87.3371V175.658H86.4551ZM93.3922 175.838C92.9042 175.838 92.4942 175.75 92.1622 175.574C91.8342 175.398 91.5882 175.164 91.4242 174.872C91.2602 174.58 91.1782 174.262 91.1782 173.918C91.1782 173.566 91.2482 173.266 91.3882 173.018C91.5322 172.766 91.7262 172.56 91.9702 172.4C92.2182 172.24 92.5042 172.118 92.8282 172.034C93.1562 171.954 93.5182 171.884 93.9142 171.824C94.3142 171.76 94.7042 171.706 95.0842 171.662C95.4682 171.614 95.8042 171.568 96.0922 171.524L95.7802 171.716C95.7922 171.076 95.6682 170.602 95.4082 170.294C95.1482 169.986 94.6962 169.832 94.0522 169.832C93.6082 169.832 93.2322 169.932 92.9242 170.132C92.6202 170.332 92.4062 170.648 92.2822 171.08L91.4242 170.828C91.5722 170.248 91.8702 169.798 92.3182 169.478C92.7662 169.158 93.3482 168.998 94.0642 168.998C94.6562 168.998 95.1582 169.11 95.5702 169.334C95.9862 169.554 96.2802 169.874 96.4522 170.294C96.5322 170.482 96.5842 170.692 96.6082 170.924C96.6322 171.156 96.6442 171.392 96.6442 171.632V175.658H95.8582V174.032L96.0862 174.128C95.8662 174.684 95.5242 175.108 95.0602 175.4C94.5962 175.692 94.0402 175.838 93.3922 175.838ZM93.4942 175.076C93.9062 175.076 94.2662 175.002 94.5742 174.854C94.8822 174.706 95.1302 174.504 95.3182 174.248C95.5062 173.988 95.6282 173.696 95.6842 173.372C95.7322 173.164 95.7582 172.936 95.7622 172.688C95.7662 172.436 95.7682 172.248 95.7682 172.124L96.1042 172.298C95.8042 172.338 95.4782 172.378 95.1262 172.418C94.7782 172.458 94.4342 172.504 94.0942 172.556C93.7582 172.608 93.4542 172.67 93.1822 172.742C92.9982 172.794 92.8202 172.868 92.6482 172.964C92.4762 173.056 92.3342 173.18 92.2222 173.336C92.1142 173.492 92.0602 173.686 92.0602 173.918C92.0602 174.106 92.1062 174.288 92.1982 174.464C92.2942 174.64 92.4462 174.786 92.6542 174.902C92.8662 175.018 93.1462 175.076 93.4942 175.076ZM100.72 175.838C100.116 175.838 99.6002 175.688 99.1722 175.388C98.7442 175.084 98.4162 174.674 98.1882 174.158C97.9602 173.642 97.8462 173.06 97.8462 172.412C97.8462 171.768 97.9582 171.188 98.1822 170.672C98.4102 170.156 98.7362 169.748 99.1602 169.448C99.5842 169.148 100.092 168.998 100.684 168.998C101.292 168.998 101.804 169.146 102.22 169.442C102.636 169.738 102.95 170.144 103.162 170.66C103.378 171.172 103.486 171.756 103.486 172.412C103.486 173.056 103.38 173.638 103.168 174.158C102.956 174.674 102.644 175.084 102.232 175.388C101.82 175.688 101.316 175.838 100.72 175.838ZM100.81 175.016C101.27 175.016 101.65 174.904 101.95 174.68C102.25 174.456 102.474 174.148 102.622 173.756C102.77 173.36 102.844 172.912 102.844 172.412C102.844 171.904 102.77 171.456 102.622 171.068C102.474 170.676 102.25 170.37 101.95 170.15C101.654 169.93 101.28 169.82 100.828 169.82C100.364 169.82 99.9802 169.934 99.6762 170.162C99.3722 170.39 99.1462 170.7 98.9982 171.092C98.8542 171.484 98.7822 171.924 98.7822 172.412C98.7822 172.904 98.8562 173.348 99.0042 173.744C99.1562 174.136 99.3822 174.446 99.6822 174.674C99.9822 174.902 100.358 175.016 100.81 175.016ZM102.844 175.658V170.78H102.748V167.018H103.636V175.658H102.844ZM107.833 175.838C107.229 175.838 106.713 175.688 106.285 175.388C105.857 175.084 105.529 174.674 105.301 174.158C105.073 173.642 104.959 173.06 104.959 172.412C104.959 171.768 105.071 171.188 105.295 170.672C105.523 170.156 105.849 169.748 106.273 169.448C106.697 169.148 107.205 168.998 107.797 168.998C108.405 168.998 108.917 169.146 109.333 169.442C109.749 169.738 110.063 170.144 110.275 170.66C110.491 171.172 110.599 171.756 110.599 172.412C110.599 173.056 110.493 173.638 110.281 174.158C110.069 174.674 109.757 175.084 109.345 175.388C108.933 175.688 108.429 175.838 107.833 175.838ZM107.923 175.016C108.383 175.016 108.763 174.904 109.063 174.68C109.363 174.456 109.587 174.148 109.735 173.756C109.883 173.36 109.957 172.912 109.957 172.412C109.957 171.904 109.883 171.456 109.735 171.068C109.587 170.676 109.363 170.37 109.063 170.15C108.767 169.93 108.393 169.82 107.941 169.82C107.477 169.82 107.093 169.934 106.789 170.162C106.485 170.39 106.259 170.7 106.111 171.092C105.967 171.484 105.895 171.924 105.895 172.412C105.895 172.904 105.969 173.348 106.117 173.744C106.269 174.136 106.495 174.446 106.795 174.674C107.095 174.902 107.471 175.016 107.923 175.016ZM109.957 175.658V170.78H109.861V167.018H110.749V175.658H109.957ZM112.433 175.658V169.178H113.225V170.738L113.069 170.534C113.141 170.342 113.235 170.166 113.351 170.006C113.467 169.842 113.593 169.708 113.729 169.604C113.897 169.456 114.093 169.344 114.317 169.268C114.541 169.188 114.767 169.142 114.995 169.13C115.223 169.114 115.431 169.13 115.619 169.178V170.006C115.383 169.946 115.125 169.932 114.845 169.964C114.565 169.996 114.307 170.108 114.071 170.3C113.855 170.468 113.693 170.67 113.585 170.906C113.477 171.138 113.405 171.386 113.369 171.65C113.333 171.91 113.315 172.168 113.315 172.424V175.658H112.433ZM119.382 175.838C118.75 175.838 118.202 175.698 117.738 175.418C117.278 175.138 116.92 174.744 116.664 174.236C116.408 173.728 116.28 173.132 116.28 172.448C116.28 171.74 116.406 171.128 116.658 170.612C116.91 170.096 117.264 169.698 117.72 169.418C118.18 169.138 118.722 168.998 119.346 168.998C119.986 168.998 120.532 169.146 120.984 169.442C121.436 169.734 121.778 170.154 122.01 170.702C122.242 171.25 122.348 171.904 122.328 172.664H121.428V172.352C121.412 171.512 121.23 170.878 120.882 170.45C120.538 170.022 120.034 169.808 119.37 169.808C118.674 169.808 118.14 170.034 117.768 170.486C117.4 170.938 117.216 171.582 117.216 172.418C117.216 173.234 117.4 173.868 117.768 174.32C118.14 174.768 118.666 174.992 119.346 174.992C119.81 174.992 120.214 174.886 120.558 174.674C120.906 174.458 121.18 174.148 121.38 173.744L122.202 174.062C121.946 174.626 121.568 175.064 121.068 175.376C120.572 175.684 120.01 175.838 119.382 175.838ZM116.904 172.664V171.926H121.854V172.664H116.904ZM126.077 175.832C125.317 175.832 124.691 175.668 124.199 175.34C123.711 175.012 123.411 174.556 123.299 173.972L124.199 173.822C124.295 174.19 124.513 174.484 124.853 174.704C125.197 174.92 125.621 175.028 126.125 175.028C126.617 175.028 127.005 174.926 127.289 174.722C127.573 174.514 127.715 174.232 127.715 173.876C127.715 173.676 127.669 173.514 127.577 173.39C127.489 173.262 127.307 173.144 127.031 173.036C126.755 172.928 126.343 172.8 125.795 172.652C125.207 172.492 124.747 172.332 124.415 172.172C124.083 172.012 123.847 171.828 123.707 171.62C123.567 171.408 123.497 171.15 123.497 170.846C123.497 170.478 123.601 170.156 123.809 169.88C124.017 169.6 124.305 169.384 124.673 169.232C125.041 169.076 125.469 168.998 125.957 168.998C126.445 168.998 126.881 169.078 127.265 169.238C127.653 169.394 127.965 169.614 128.201 169.898C128.437 170.182 128.577 170.512 128.621 170.888L127.721 171.05C127.661 170.67 127.471 170.37 127.151 170.15C126.835 169.926 126.433 169.81 125.945 169.802C125.485 169.79 125.111 169.878 124.823 170.066C124.535 170.25 124.391 170.496 124.391 170.804C124.391 170.976 124.443 171.124 124.547 171.248C124.651 171.368 124.839 171.482 125.111 171.59C125.387 171.698 125.779 171.816 126.287 171.944C126.883 172.096 127.351 172.256 127.691 172.424C128.031 172.592 128.273 172.79 128.417 173.018C128.561 173.246 128.633 173.528 128.633 173.864C128.633 174.476 128.405 174.958 127.949 175.31C127.497 175.658 126.873 175.832 126.077 175.832ZM132.382 175.832C131.622 175.832 130.996 175.668 130.504 175.34C130.016 175.012 129.716 174.556 129.604 173.972L130.504 173.822C130.6 174.19 130.818 174.484 131.158 174.704C131.502 174.92 131.926 175.028 132.43 175.028C132.922 175.028 133.31 174.926 133.594 174.722C133.878 174.514 134.02 174.232 134.02 173.876C134.02 173.676 133.974 173.514 133.882 173.39C133.794 173.262 133.612 173.144 133.336 173.036C133.06 172.928 132.648 172.8 132.1 172.652C131.512 172.492 131.052 172.332 130.72 172.172C130.388 172.012 130.152 171.828 130.012 171.62C129.872 171.408 129.802 171.15 129.802 170.846C129.802 170.478 129.906 170.156 130.114 169.88C130.322 169.6 130.61 169.384 130.978 169.232C131.346 169.076 131.774 168.998 132.262 168.998C132.75 168.998 133.186 169.078 133.57 169.238C133.958 169.394 134.27 169.614 134.506 169.898C134.742 170.182 134.882 170.512 134.926 170.888L134.026 171.05C133.966 170.67 133.776 170.37 133.456 170.15C133.14 169.926 132.738 169.81 132.25 169.802C131.79 169.79 131.416 169.878 131.128 170.066C130.84 170.25 130.696 170.496 130.696 170.804C130.696 170.976 130.748 171.124 130.852 171.248C130.956 171.368 131.144 171.482 131.416 171.59C131.692 171.698 132.084 171.816 132.592 171.944C133.188 172.096 133.656 172.256 133.996 172.424C134.336 172.592 134.578 172.79 134.722 173.018C134.866 173.246 134.938 173.528 134.938 173.864C134.938 174.476 134.71 174.958 134.254 175.31C133.802 175.658 133.178 175.832 132.382 175.832Z" fill="#343434" fill-opacity="0.8"/>
<rect x="48.4189" y="205.025" width="373.734" height="30.2619" fill="white"/>
<rect x="48.7972" y="205.403" width="372.978" height="29.5054" stroke="black" stroke-opacity="0.5" stroke-width="0.756548"/>
<path d="M63.3487 224.257C62.4887 224.257 61.7627 224.067 61.1707 223.687C60.5787 223.303 60.1307 222.773 59.8267 222.097C59.5227 221.421 59.3707 220.641 59.3707 219.757C59.3707 218.873 59.5227 218.093 59.8267 217.417C60.1307 216.741 60.5787 216.213 61.1707 215.833C61.7627 215.449 62.4887 215.257 63.3487 215.257C64.3527 215.257 65.1727 215.515 65.8087 216.031C66.4447 216.543 66.8807 217.231 67.1167 218.095L66.2167 218.329C66.0327 217.645 65.7027 217.103 65.2267 216.703C64.7507 216.303 64.1247 216.103 63.3487 216.103C62.6727 216.103 62.1107 216.257 61.6627 216.565C61.2147 216.873 60.8767 217.303 60.6487 217.855C60.4247 218.403 60.3087 219.037 60.3007 219.757C60.2967 220.477 60.4067 221.111 60.6307 221.659C60.8587 222.207 61.1987 222.637 61.6507 222.949C62.1067 223.257 62.6727 223.411 63.3487 223.411C64.1247 223.411 64.7507 223.211 65.2267 222.811C65.7027 222.407 66.0327 221.865 66.2167 221.185L67.1167 221.419C66.8807 222.283 66.4447 222.973 65.8087 223.489C65.1727 224.001 64.3527 224.257 63.3487 224.257ZM68.4406 224.077V217.597H69.2326V219.157L69.0766 218.953C69.1486 218.761 69.2426 218.585 69.3586 218.425C69.4746 218.261 69.6006 218.127 69.7366 218.023C69.9046 217.875 70.1006 217.763 70.3246 217.687C70.5486 217.607 70.7746 217.561 71.0026 217.549C71.2306 217.533 71.4386 217.549 71.6266 217.597V218.425C71.3906 218.365 71.1326 218.351 70.8526 218.383C70.5726 218.415 70.3146 218.527 70.0786 218.719C69.8626 218.887 69.7006 219.089 69.5926 219.325C69.4846 219.557 69.4126 219.805 69.3766 220.069C69.3406 220.329 69.3226 220.587 69.3226 220.843V224.077H68.4406ZM75.3896 224.257C74.7576 224.257 74.2096 224.117 73.7456 223.837C73.2856 223.557 72.9276 223.163 72.6716 222.655C72.4156 222.147 72.2876 221.551 72.2876 220.867C72.2876 220.159 72.4136 219.547 72.6656 219.031C72.9176 218.515 73.2716 218.117 73.7276 217.837C74.1876 217.557 74.7296 217.417 75.3536 217.417C75.9936 217.417 76.5396 217.565 76.9916 217.861C77.4436 218.153 77.7856 218.573 78.0176 219.121C78.2496 219.669 78.3556 220.323 78.3356 221.083H77.4356V220.771C77.4196 219.931 77.2376 219.297 76.8896 218.869C76.5456 218.441 76.0416 218.227 75.3776 218.227C74.6816 218.227 74.1476 218.453 73.7756 218.905C73.4076 219.357 73.2236 220.001 73.2236 220.837C73.2236 221.653 73.4076 222.287 73.7756 222.739C74.1476 223.187 74.6736 223.411 75.3536 223.411C75.8176 223.411 76.2216 223.305 76.5656 223.093C76.9136 222.877 77.1876 222.567 77.3876 222.163L78.2096 222.481C77.9536 223.045 77.5756 223.483 77.0756 223.795C76.5796 224.103 76.0176 224.257 75.3896 224.257ZM72.9116 221.083V220.345H77.8616V221.083H72.9116ZM81.404 224.257C80.916 224.257 80.506 224.169 80.174 223.993C79.846 223.817 79.6 223.583 79.436 223.291C79.272 222.999 79.19 222.681 79.19 222.337C79.19 221.985 79.26 221.685 79.4 221.437C79.544 221.185 79.738 220.979 79.982 220.819C80.23 220.659 80.516 220.537 80.84 220.453C81.168 220.373 81.53 220.303 81.926 220.243C82.326 220.179 82.716 220.125 83.096 220.081C83.48 220.033 83.816 219.987 84.104 219.943L83.792 220.135C83.804 219.495 83.68 219.021 83.42 218.713C83.16 218.405 82.708 218.251 82.064 218.251C81.62 218.251 81.244 218.351 80.936 218.551C80.632 218.751 80.418 219.067 80.294 219.499L79.436 219.247C79.584 218.667 79.882 218.217 80.33 217.897C80.778 217.577 81.36 217.417 82.076 217.417C82.668 217.417 83.17 217.529 83.582 217.753C83.998 217.973 84.292 218.293 84.464 218.713C84.544 218.901 84.596 219.111 84.62 219.343C84.644 219.575 84.656 219.811 84.656 220.051V224.077H83.87V222.451L84.098 222.547C83.878 223.103 83.536 223.527 83.072 223.819C82.608 224.111 82.052 224.257 81.404 224.257ZM81.506 223.495C81.918 223.495 82.278 223.421 82.586 223.273C82.894 223.125 83.142 222.923 83.33 222.667C83.518 222.407 83.64 222.115 83.696 221.791C83.744 221.583 83.77 221.355 83.774 221.107C83.778 220.855 83.78 220.667 83.78 220.543L84.116 220.717C83.816 220.757 83.49 220.797 83.138 220.837C82.79 220.877 82.446 220.923 82.106 220.975C81.77 221.027 81.466 221.089 81.194 221.161C81.01 221.213 80.832 221.287 80.66 221.383C80.488 221.475 80.346 221.599 80.234 221.755C80.126 221.911 80.072 222.105 80.072 222.337C80.072 222.525 80.118 222.707 80.21 222.883C80.306 223.059 80.458 223.205 80.666 223.321C80.878 223.437 81.158 223.495 81.506 223.495ZM89.7459 224.077C89.3819 224.153 89.0219 224.183 88.6659 224.167C88.3139 224.151 87.9979 224.075 87.7179 223.939C87.4419 223.803 87.2319 223.591 87.0879 223.303C86.9719 223.063 86.9079 222.821 86.8959 222.577C86.8879 222.329 86.8839 222.047 86.8839 221.731V215.797H87.7599V221.695C87.7599 221.967 87.7619 222.195 87.7659 222.379C87.7739 222.559 87.8159 222.719 87.8919 222.859C88.0359 223.127 88.2639 223.287 88.5759 223.339C88.8919 223.391 89.2819 223.379 89.7459 223.303V224.077ZM85.4979 218.353V217.597H89.7459V218.353H85.4979ZM93.5302 224.257C92.8982 224.257 92.3502 224.117 91.8862 223.837C91.4262 223.557 91.0682 223.163 90.8122 222.655C90.5562 222.147 90.4282 221.551 90.4282 220.867C90.4282 220.159 90.5542 219.547 90.8062 219.031C91.0582 218.515 91.4122 218.117 91.8682 217.837C92.3282 217.557 92.8702 217.417 93.4942 217.417C94.1342 217.417 94.6802 217.565 95.1322 217.861C95.5842 218.153 95.9262 218.573 96.1582 219.121C96.3902 219.669 96.4962 220.323 96.4762 221.083H95.5762V220.771C95.5602 219.931 95.3782 219.297 95.0302 218.869C94.6862 218.441 94.1822 218.227 93.5182 218.227C92.8222 218.227 92.2882 218.453 91.9162 218.905C91.5482 219.357 91.3642 220.001 91.3642 220.837C91.3642 221.653 91.5482 222.287 91.9162 222.739C92.2882 223.187 92.8142 223.411 93.4942 223.411C93.9582 223.411 94.3622 223.305 94.7062 223.093C95.0542 222.877 95.3282 222.567 95.5282 222.163L96.3502 222.481C96.0942 223.045 95.7162 223.483 95.2162 223.795C94.7202 224.103 94.1582 224.257 93.5302 224.257ZM91.0522 221.083V220.345H96.0022V221.083H91.0522ZM103.12 224.257C102.524 224.257 102.02 224.107 101.608 223.807C101.196 223.503 100.884 223.093 100.672 222.577C100.46 222.057 100.354 221.475 100.354 220.831C100.354 220.175 100.46 219.591 100.672 219.079C100.888 218.563 101.204 218.157 101.62 217.861C102.036 217.565 102.548 217.417 103.156 217.417C103.748 217.417 104.256 217.567 104.68 217.867C105.104 218.167 105.428 218.575 105.652 219.091C105.88 219.607 105.994 220.187 105.994 220.831C105.994 221.479 105.88 222.061 105.652 222.577C105.424 223.093 105.096 223.503 104.668 223.807C104.24 224.107 103.724 224.257 103.12 224.257ZM100.204 226.957V217.597H100.996V222.475H101.092V226.957H100.204ZM103.03 223.435C103.482 223.435 103.858 223.321 104.158 223.093C104.458 222.865 104.682 222.555 104.83 222.163C104.982 221.767 105.058 221.323 105.058 220.831C105.058 220.343 104.984 219.903 104.836 219.511C104.688 219.119 104.462 218.809 104.158 218.581C103.858 218.353 103.476 218.239 103.012 218.239C102.56 218.239 102.184 218.349 101.884 218.569C101.588 218.789 101.366 219.095 101.218 219.487C101.07 219.875 100.996 220.323 100.996 220.831C100.996 221.331 101.07 221.779 101.218 222.175C101.366 222.567 101.59 222.875 101.89 223.099C102.19 223.323 102.57 223.435 103.03 223.435ZM109.166 224.257C108.678 224.257 108.268 224.169 107.936 223.993C107.608 223.817 107.362 223.583 107.198 223.291C107.034 222.999 106.952 222.681 106.952 222.337C106.952 221.985 107.022 221.685 107.162 221.437C107.306 221.185 107.5 220.979 107.744 220.819C107.992 220.659 108.278 220.537 108.602 220.453C108.93 220.373 109.292 220.303 109.688 220.243C110.088 220.179 110.478 220.125 110.858 220.081C111.242 220.033 111.578 219.987 111.866 219.943L111.554 220.135C111.566 219.495 111.442 219.021 111.182 218.713C110.922 218.405 110.47 218.251 109.826 218.251C109.382 218.251 109.006 218.351 108.698 218.551C108.394 218.751 108.18 219.067 108.056 219.499L107.198 219.247C107.346 218.667 107.644 218.217 108.092 217.897C108.54 217.577 109.122 217.417 109.838 217.417C110.43 217.417 110.932 217.529 111.344 217.753C111.76 217.973 112.054 218.293 112.226 218.713C112.306 218.901 112.358 219.111 112.382 219.343C112.406 219.575 112.418 219.811 112.418 220.051V224.077H111.632V222.451L111.86 222.547C111.64 223.103 111.298 223.527 110.834 223.819C110.37 224.111 109.814 224.257 109.166 224.257ZM109.268 223.495C109.68 223.495 110.04 223.421 110.348 223.273C110.656 223.125 110.904 222.923 111.092 222.667C111.28 222.407 111.402 222.115 111.458 221.791C111.506 221.583 111.532 221.355 111.536 221.107C111.54 220.855 111.542 220.667 111.542 220.543L111.878 220.717C111.578 220.757 111.252 220.797 110.9 220.837C110.552 220.877 110.208 220.923 109.868 220.975C109.532 221.027 109.228 221.089 108.956 221.161C108.772 221.213 108.594 221.287 108.422 221.383C108.25 221.475 108.108 221.599 107.996 221.755C107.888 221.911 107.834 222.105 107.834 222.337C107.834 222.525 107.88 222.707 107.972 222.883C108.068 223.059 108.22 223.205 108.428 223.321C108.64 223.437 108.92 223.495 109.268 223.495ZM116.398 224.251C115.638 224.251 115.012 224.087 114.52 223.759C114.032 223.431 113.732 222.975 113.62 222.391L114.52 222.241C114.616 222.609 114.834 222.903 115.174 223.123C115.518 223.339 115.942 223.447 116.446 223.447C116.938 223.447 117.326 223.345 117.61 223.141C117.894 222.933 118.036 222.651 118.036 222.295C118.036 222.095 117.99 221.933 117.898 221.809C117.81 221.681 117.628 221.563 117.352 221.455C117.076 221.347 116.664 221.219 116.116 221.071C115.528 220.911 115.068 220.751 114.736 220.591C114.404 220.431 114.168 220.247 114.028 220.039C113.888 219.827 113.818 219.569 113.818 219.265C113.818 218.897 113.922 218.575 114.13 218.299C114.338 218.019 114.626 217.803 114.994 217.651C115.362 217.495 115.79 217.417 116.278 217.417C116.766 217.417 117.202 217.497 117.586 217.657C117.974 217.813 118.286 218.033 118.522 218.317C118.758 218.601 118.898 218.931 118.942 219.307L118.042 219.469C117.982 219.089 117.792 218.789 117.472 218.569C117.156 218.345 116.754 218.229 116.266 218.221C115.806 218.209 115.432 218.297 115.144 218.485C114.856 218.669 114.712 218.915 114.712 219.223C114.712 219.395 114.764 219.543 114.868 219.667C114.972 219.787 115.16 219.901 115.432 220.009C115.708 220.117 116.1 220.235 116.608 220.363C117.204 220.515 117.672 220.675 118.012 220.843C118.352 221.011 118.594 221.209 118.738 221.437C118.882 221.665 118.954 221.947 118.954 222.283C118.954 222.895 118.726 223.377 118.27 223.729C117.818 224.077 117.194 224.251 116.398 224.251ZM122.702 224.251C121.942 224.251 121.316 224.087 120.824 223.759C120.336 223.431 120.036 222.975 119.924 222.391L120.824 222.241C120.92 222.609 121.138 222.903 121.478 223.123C121.822 223.339 122.246 223.447 122.75 223.447C123.242 223.447 123.63 223.345 123.914 223.141C124.198 222.933 124.34 222.651 124.34 222.295C124.34 222.095 124.294 221.933 124.202 221.809C124.114 221.681 123.932 221.563 123.656 221.455C123.38 221.347 122.968 221.219 122.42 221.071C121.832 220.911 121.372 220.751 121.04 220.591C120.708 220.431 120.472 220.247 120.332 220.039C120.192 219.827 120.122 219.569 120.122 219.265C120.122 218.897 120.226 218.575 120.434 218.299C120.642 218.019 120.93 217.803 121.298 217.651C121.666 217.495 122.094 217.417 122.582 217.417C123.07 217.417 123.506 217.497 123.89 217.657C124.278 217.813 124.59 218.033 124.826 218.317C125.062 218.601 125.202 218.931 125.246 219.307L124.346 219.469C124.286 219.089 124.096 218.789 123.776 218.569C123.46 218.345 123.058 218.229 122.57 218.221C122.11 218.209 121.736 218.297 121.448 218.485C121.16 218.669 121.016 218.915 121.016 219.223C121.016 219.395 121.068 219.543 121.172 219.667C121.276 219.787 121.464 219.901 121.736 220.009C122.012 220.117 122.404 220.235 122.912 220.363C123.508 220.515 123.976 220.675 124.316 220.843C124.656 221.011 124.898 221.209 125.042 221.437C125.186 221.665 125.258 221.947 125.258 222.283C125.258 222.895 125.03 223.377 124.574 223.729C124.122 224.077 123.498 224.251 122.702 224.251ZM127.735 224.077L125.755 217.591L126.637 217.597L128.173 222.631L129.715 217.597H130.519L132.061 222.631L133.609 217.597H134.485L132.505 224.077H131.737L130.117 218.917L128.503 224.077H127.735ZM138.037 224.257C137.393 224.257 136.843 224.111 136.387 223.819C135.931 223.527 135.581 223.123 135.337 222.607C135.093 222.091 134.971 221.499 134.971 220.831C134.971 220.151 135.095 219.555 135.343 219.043C135.591 218.531 135.943 218.133 136.399 217.849C136.859 217.561 137.405 217.417 138.037 217.417C138.685 217.417 139.237 217.563 139.693 217.855C140.153 218.143 140.503 218.545 140.743 219.061C140.987 219.573 141.109 220.163 141.109 220.831C141.109 221.511 140.987 222.109 140.743 222.625C140.499 223.137 140.147 223.537 139.687 223.825C139.227 224.113 138.677 224.257 138.037 224.257ZM138.037 223.411C138.757 223.411 139.293 223.173 139.645 222.697C139.997 222.217 140.173 221.595 140.173 220.831C140.173 220.047 139.995 219.423 139.639 218.959C139.287 218.495 138.753 218.263 138.037 218.263C137.553 218.263 137.153 218.373 136.837 218.593C136.525 218.809 136.291 219.111 136.135 219.499C135.983 219.883 135.907 220.327 135.907 220.831C135.907 221.611 136.087 222.237 136.447 222.709C136.807 223.177 137.337 223.411 138.037 223.411ZM142.433 224.077V217.597H143.225V219.157L143.069 218.953C143.141 218.761 143.235 218.585 143.351 218.425C143.467 218.261 143.593 218.127 143.729 218.023C143.897 217.875 144.093 217.763 144.317 217.687C144.541 217.607 144.767 217.561 144.995 217.549C145.223 217.533 145.431 217.549 145.619 217.597V218.425C145.383 218.365 145.125 218.351 144.845 218.383C144.565 218.415 144.307 218.527 144.071 218.719C143.855 218.887 143.693 219.089 143.585 219.325C143.477 219.557 143.405 219.805 143.369 220.069C143.333 220.329 143.315 220.587 143.315 220.843V224.077H142.433ZM149.154 224.257C148.55 224.257 148.034 224.107 147.606 223.807C147.178 223.503 146.85 223.093 146.622 222.577C146.394 222.061 146.28 221.479 146.28 220.831C146.28 220.187 146.392 219.607 146.616 219.091C146.844 218.575 147.17 218.167 147.594 217.867C148.018 217.567 148.526 217.417 149.118 217.417C149.726 217.417 150.238 217.565 150.654 217.861C151.07 218.157 151.384 218.563 151.596 219.079C151.812 219.591 151.92 220.175 151.92 220.831C151.92 221.475 151.814 222.057 151.602 222.577C151.39 223.093 151.078 223.503 150.666 223.807C150.254 224.107 149.75 224.257 149.154 224.257ZM149.244 223.435C149.704 223.435 150.084 223.323 150.384 223.099C150.684 222.875 150.908 222.567 151.056 222.175C151.204 221.779 151.278 221.331 151.278 220.831C151.278 220.323 151.204 219.875 151.056 219.487C150.908 219.095 150.684 218.789 150.384 218.569C150.088 218.349 149.714 218.239 149.262 218.239C148.798 218.239 148.414 218.353 148.11 218.581C147.806 218.809 147.58 219.119 147.432 219.511C147.288 219.903 147.216 220.343 147.216 220.831C147.216 221.323 147.29 221.767 147.438 222.163C147.59 222.555 147.816 222.865 148.116 223.093C148.416 223.321 148.792 223.435 149.244 223.435ZM151.278 224.077V219.199H151.182V215.437H152.07V224.077H151.278Z" fill="#343434" fill-opacity="0.8"/>
<defs>
<filter id="filter0_d_933_36307" x="47" y="252" width="382" height="51" filterUnits="userSpaceOnUse" color-interpolation-filters="sRGB">
<feFlood flood-opacity="0" result="BackgroundImageFix"/>
<feColorMatrix in="SourceAlpha" type="matrix" values="0 0 0 0 0 0 0 0 0 0 0 0 0 0 0 0 0 0 127 0" result="hardAlpha"/>
<feOffset dx="1" dy="1"/>
<feGaussianBlur stdDeviation="1.5"/>
<feComposite in2="hardAlpha" operator="out"/>
<feColorMatrix type="matrix" values="0 0 0 0 0 0 0 0 0 0 0 0 0 0 0 0 0 0 0.25 0"/>
<feBlend mode="normal" in2="BackgroundImageFix" result="effect1_dropShadow_933_36307"/>
<feBlend mode="normal" in="SourceGraphic" in2="effect1_dropShadow_933_36307" result="shape"/>
</filter>
</defs>
</svg>
