<svg width="32" height="32" viewBox="0 0 32 32" fill="none" xmlns="http://www.w3.org/2000/svg">
<path d="M3.2721 10.5861C3.64715 10.2111 4.15577 10.0005 4.6861 10.0005C5.21642 10.0005 5.72504 10.2111 6.1001 10.5861L16.0001 20.4861L25.9001 10.5861C26.2773 10.2217 26.7825 10.0202 27.3069 10.0247C27.8313 10.0293 28.3329 10.2396 28.7037 10.6104C29.0746 10.9812 29.2849 11.4829 29.2894 12.0073C29.294 12.5317 29.0924 13.0369 28.7281 13.4141L17.4141 24.7281C17.039 25.103 16.5304 25.3136 16.0001 25.3136C15.4698 25.3136 14.9612 25.103 14.5861 24.7281L3.2721 13.4141C2.89715 13.039 2.68652 12.5304 2.68652 12.0001C2.68652 11.4697 2.89715 10.9611 3.2721 10.5861Z" fill="#310057"/>
</svg>
