<svg width="12" height="12" viewBox="0 0 12 12" fill="none" xmlns="http://www.w3.org/2000/svg">
<path d="M5.54112 1.94743C4.26943 0.675734 2.21207 0.669554 0.945879 1.93575C-0.320314 3.20194 -0.314134 5.2593 0.957559 6.53099L5.66505 11.2385C5.86031 11.4337 6.1769 11.4337 6.37216 11.2385L11.0552 6.55821C12.3184 5.2879 12.3144 3.23631 11.0425 1.96439C9.76856 0.690423 7.71024 0.684242 6.44178 1.9527L5.99452 2.40082L5.54112 1.94743ZM10.3461 5.85308L6.01861 10.1778L1.66467 5.82388C0.782549 4.94177 0.778271 3.51757 1.65299 2.64285C2.5277 1.76814 3.9519 1.77242 4.83402 2.65453L5.64337 3.46389C5.84197 3.66249 6.16514 3.65859 6.35889 3.45527L7.14889 2.65981C8.02587 1.78283 9.45103 1.78711 10.3354 2.6715C11.2178 3.55384 11.2205 4.97379 10.3461 5.85308Z" fill="#310057"/>
</svg>
