<svg width="23" height="23" viewBox="0 0 23 23" fill="none" xmlns="http://www.w3.org/2000/svg">
<path d="M19.5203 19.306H16.185V14.0483C16.185 12.7946 16.1628 11.1806 14.4503 11.1806C12.7132 11.1806 12.4474 12.5466 12.4474 13.957V19.3056H9.11218V8.49374H12.314V9.97129H12.3589C12.6793 9.4198 13.1423 8.96612 13.6986 8.65857C14.2549 8.35101 14.8837 8.20111 15.518 8.2248C18.8984 8.2248 19.5217 10.463 19.5217 13.3747L19.5203 19.306ZM5.34891 7.01583C4.9661 7.0159 4.59187 6.9017 4.27354 6.68768C3.95521 6.47366 3.7071 6.16942 3.56054 5.81345C3.41399 5.45747 3.37558 5.06575 3.45019 4.68781C3.52481 4.30986 3.70909 3.96268 3.97972 3.69016C4.25036 3.41764 4.5952 3.23202 4.97063 3.15678C5.34607 3.08154 5.73523 3.12005 6.08892 3.26745C6.44261 3.41484 6.74494 3.6645 6.95767 3.98486C7.1704 4.30521 7.28398 4.68187 7.28405 5.0672C7.2841 5.32306 7.23407 5.57641 7.13685 5.8128C7.03962 6.0492 6.89711 6.264 6.71741 6.44495C6.53772 6.62589 6.32436 6.76944 6.08956 6.86739C5.85475 6.96534 5.60308 7.01578 5.34891 7.01583ZM7.01653 19.306H3.67781V8.49374H7.01653V19.306ZM21.183 0.00154371H2.00185C1.56649 -0.00340177 1.14697 0.165839 0.835511 0.472077C0.524052 0.778315 0.346134 1.19649 0.34082 1.63472V21.0227C0.345952 21.4612 0.523766 21.8796 0.835215 22.1862C1.14666 22.4927 1.56627 22.6623 2.00185 22.6577H21.183C21.6195 22.6632 22.0403 22.4941 22.3529 22.1875C22.6656 21.881 22.8446 21.462 22.8507 21.0227V1.63333C22.8444 1.19423 22.6653 0.775571 22.3526 0.469341C22.0399 0.163111 21.6193 -0.00564692 21.183 0.000144275" fill="white"/>
</svg>
