<svg width="13" height="9" viewBox="0 0 13 9" fill="none" xmlns="http://www.w3.org/2000/svg">
<path d="M1.85093 4.76704L1.84995 4.77049C1.77899 5.03714 1.50527 5.19637 1.2385 5.12564C0.807464 5.0114 0.883351 4.51419 0.883351 4.51419L0.901015 4.4528C0.901015 4.4528 0.927119 4.36869 0.948148 4.30764C0.990172 4.18563 1.05444 4.01507 1.14579 3.81211C1.32802 3.40727 1.62092 2.86711 2.06525 2.32528C2.96278 1.23084 4.47158 0.142334 6.86665 0.142334C9.26172 0.142334 10.7705 1.23084 11.668 2.32528C12.1124 2.86711 12.4053 3.40727 12.5875 3.81211C12.6789 4.01507 12.7431 4.18563 12.7852 4.30764C12.8062 4.36869 12.8217 4.41775 12.8323 4.4528C12.8376 4.47033 12.8417 4.48438 12.8446 4.49469L12.8481 4.50733L12.8492 4.51149L12.8496 4.51303L12.8499 4.51419C12.9207 4.78111 12.7617 5.05486 12.4948 5.12564C12.2283 5.1963 11.955 5.03789 11.8837 4.77171L11.8834 4.77049L11.8824 4.76704L11.875 4.74203C11.8679 4.71849 11.8563 4.68161 11.8397 4.63329C11.8063 4.53655 11.7531 4.39461 11.6756 4.22257C11.5203 3.87741 11.2705 3.41757 10.8948 2.95939C10.1522 2.05383 8.91098 1.14233 6.86665 1.14233C4.82232 1.14233 3.58112 2.05383 2.83849 2.95939C2.46276 3.41757 2.21304 3.87741 2.05767 4.22257C1.98023 4.39461 1.92696 4.53655 1.89364 4.63329C1.877 4.68161 1.86539 4.71849 1.85827 4.74203L1.85093 4.76704ZM6.86673 3.14233C5.48602 3.14233 4.36673 4.26162 4.36673 5.64233C4.36673 7.02305 5.48602 8.14233 6.86673 8.14233C8.24744 8.14233 9.36673 7.02305 9.36673 5.64233C9.36673 4.26162 8.24744 3.14233 6.86673 3.14233ZM5.36673 5.64233C5.36673 4.81391 6.0383 4.14233 6.86673 4.14233C7.69516 4.14233 8.36673 4.81391 8.36673 5.64233C8.36673 6.47076 7.69516 7.14233 6.86673 7.14233C6.0383 7.14233 5.36673 6.47076 5.36673 5.64233Z" fill="#572B92"/>
</svg>
