<svg width="15" height="15" viewBox="0 0 15 15" fill="none" xmlns="http://www.w3.org/2000/svg">
<path d="M12.8948 12.5872H10.7863V9.28505C10.7863 8.49761 10.7722 7.48393 9.68961 7.48393C8.5914 7.48393 8.42337 8.34188 8.42337 9.22772V12.587H6.31481V5.79637H8.33902V6.72438H8.36736C8.56994 6.37801 8.86267 6.09306 9.21437 5.89989C9.56607 5.70673 9.96358 5.61257 10.3646 5.62746C12.5017 5.62746 12.8957 7.03321 12.8957 8.862L12.8948 12.5872ZM3.93566 4.86813C3.69365 4.86818 3.45705 4.79645 3.25581 4.66203C3.05456 4.52761 2.8977 4.33653 2.80505 4.11295C2.71239 3.88937 2.68811 3.64334 2.73528 3.40596C2.78245 3.16859 2.89896 2.95053 3.07005 2.77937C3.24115 2.6082 3.45916 2.49162 3.69651 2.44436C3.93386 2.3971 4.17989 2.42129 4.40349 2.51387C4.6271 2.60645 4.81823 2.76325 4.95272 2.96446C5.08721 3.16566 5.15902 3.40223 5.15906 3.64425C5.15909 3.80494 5.12746 3.96407 5.066 4.11254C5.00453 4.26101 4.91443 4.39593 4.80083 4.50957C4.68723 4.62322 4.55234 4.71338 4.4039 4.7749C4.25545 4.83642 4.09634 4.8681 3.93566 4.86813ZM4.98993 12.5872H2.87918V5.79637H4.98993V12.5872ZM13.946 0.462639H1.81964C1.5444 0.459533 1.27918 0.565829 1.08228 0.758169C0.885371 0.95051 0.77289 1.21316 0.769531 1.4884V13.6655C0.772775 13.9409 0.88519 14.2037 1.08209 14.3962C1.27899 14.5888 1.54427 14.6953 1.81964 14.6924H13.946C14.2219 14.6958 14.488 14.5896 14.6856 14.3971C14.8833 14.2046 14.9965 13.9414 15.0003 13.6655V1.48752C14.9964 1.21173 14.8831 0.948786 14.6854 0.756451C14.4878 0.564116 14.2218 0.458123 13.946 0.461761" fill="#98455B"/>
</svg>
