<svg width="15" height="14" viewBox="0 0 15 14" fill="none" xmlns="http://www.w3.org/2000/svg">
<path d="M10.3298 9.83772L14.8269 5.41512L14.8841 5.34968C15.0558 5.12058 15.0367 4.78916 14.8268 4.58283L10.3297 0.161651L10.268 0.108643C9.9078 -0.160361 9.37757 0.0980532 9.37757 0.577825V2.70757L9.15299 2.72268C5.59039 3.00547 3.50344 5.25989 3.00472 9.3501C2.94067 9.87538 3.54318 10.2042 3.93261 9.85643C5.36448 8.57792 6.84382 7.78398 8.37757 7.46573C8.6236 7.41468 8.87103 7.37587 9.11989 7.34926L9.37757 7.32611V9.42161L9.38294 9.50392C9.4429 9.95663 9.99197 10.1699 10.3298 9.83772ZM9.2263 3.72L10.3776 3.64256V1.61104L13.8238 4.99905L10.3776 8.38816V6.23223L9.02198 6.35403L9.01358 6.35493C7.31135 6.53692 5.70337 7.21889 4.18674 8.35551C4.48493 7.01744 4.99417 6.01008 5.6632 5.28852C6.49235 4.39426 7.65261 3.84605 9.2263 3.72ZM2.5 1C1.11929 1 0 2.11929 0 3.5V11.5C0 12.8807 1.11929 14 2.5 14H10.5C11.8807 14 13 12.8807 13 11.5V10.5C13 10.2239 12.7761 10 12.5 10C12.2239 10 12 10.2239 12 10.5V11.5C12 12.3284 11.3284 13 10.5 13H2.5C1.67157 13 1 12.3284 1 11.5V3.5C1 2.67157 1.67157 2 2.5 2H5.5C5.77614 2 6 1.77614 6 1.5C6 1.22386 5.77614 1 5.5 1H2.5Z" fill="#310057"/>
</svg>
