<svg width="12" height="12" viewBox="0 0 12 12" fill="none" xmlns="http://www.w3.org/2000/svg">
<path d="M4 5C4 4.72386 4.22386 4.5 4.5 4.5H7.5C7.77614 4.5 8 4.72386 8 5C8 5.27614 7.77614 5.5 7.5 5.5H4.5C4.22386 5.5 4 5.27614 4 5ZM4.5 6.5C4.22386 6.5 4 6.72386 4 7C4 7.27614 4.22386 7.5 4.5 7.5H6.5C6.77614 7.5 7 7.27614 7 7C7 6.72386 6.77614 6.5 6.5 6.5H4.5ZM1.38797e-05 6C1.38797e-05 2.68629 2.68631 0 6.00001 0C9.31372 0 12 2.68629 12 6C12 9.31371 9.31372 12 6.00001 12C4.90639 12 3.87989 11.707 2.99618 11.195L0.658128 11.9743C0.482167 12.033 0.288196 11.9894 0.154224 11.8612C0.0202529 11.7329 -0.0317031 11.541 0.0192519 11.3626L0.730859 8.87202C0.264804 8.01862 1.38797e-05 7.03957 1.38797e-05 6ZM6.00001 1C3.23859 1 1.00001 3.23858 1.00001 6C1.00001 6.93308 1.25513 7.80506 1.69913 8.55165C1.76952 8.67002 1.78797 8.81217 1.75014 8.94458L1.24119 10.7259L2.89938 10.1732C3.04199 10.1256 3.19843 10.1448 3.32536 10.2253C4.09854 10.7159 5.01533 11 6.00001 11C8.76144 11 11 8.76142 11 6C11 3.23858 8.76144 1 6.00001 1Z" fill="#310057"/>
</svg>
