<svg width="10" height="10" viewBox="0 0 10 10" fill="none" xmlns="http://www.w3.org/2000/svg">
<path d="M1.27483e-05 5C1.27483e-05 2.23858 2.23859 0 5.00001 0C7.76144 0 10 2.23858 10 5C10 7.76142 7.76144 10 5.00001 10C4.12733 10 3.30568 9.77602 2.59074 9.38221L0.645594 9.97421C0.468938 10.028 0.277031 9.98 0.146459 9.84943C0.0158879 9.71886 -0.0320889 9.52695 0.0216758 9.35029L0.614339 7.40297C0.22268 6.68951 1.27483e-05 5.87012 1.27483e-05 5ZM3 4.5C3 4.77614 3.22386 5 3.5 5H6.5C6.77614 5 7 4.77614 7 4.5C7 4.22386 6.77614 4 6.5 4H3.5C3.22386 4 3 4.22386 3 4.5ZM3.5 6C3.22386 6 3 6.22386 3 6.5C3 6.77614 3.22386 7 3.5 7H5.5C5.77614 7 6 6.77614 6 6.5C6 6.22386 5.77614 6 5.5 6H3.5Z" fill="#CBAB3D"/>
</svg>
