<svg width="11" height="7" viewBox="0 0 11 7" fill="none" xmlns="http://www.w3.org/2000/svg">
<path d="M0.975604 4.19088L0.974795 4.19373C0.916021 4.4146 0.689309 4.54649 0.468349 4.4879C0.111329 4.39328 0.174184 3.98145 0.174184 3.98145L0.188816 3.93061C0.188816 3.93061 0.210437 3.86094 0.227855 3.81037C0.262662 3.70931 0.315891 3.56804 0.39156 3.39994C0.542496 3.06461 0.785092 2.61721 1.15313 2.16843C1.89652 1.26193 3.14622 0.360352 5.13 0.360352C7.11378 0.360352 8.36349 1.26193 9.10688 2.16843C9.47491 2.61721 9.71751 3.06461 9.86845 3.39994C9.94412 3.56804 9.99734 3.70931 10.0322 3.81037C10.0496 3.86094 10.0624 3.90157 10.0712 3.93061C10.0756 3.94513 10.0789 3.95676 10.0814 3.9653L10.0843 3.97577L10.0852 3.97922L10.0856 3.98049L10.0858 3.98145C10.1444 4.20254 10.0127 4.42928 9.79166 4.4879C9.57091 4.54643 9.34452 4.41522 9.28548 4.19475L9.28521 4.19373L9.2844 4.19088L9.27832 4.17017C9.27242 4.15067 9.26281 4.12012 9.24903 4.0801C9.22143 3.99997 9.1773 3.8824 9.11316 3.73991C8.98448 3.45402 8.77764 3.07315 8.46642 2.69365C7.85132 1.9436 6.82327 1.18863 5.13 1.18863C3.43674 1.18863 2.40868 1.9436 1.79358 2.69365C1.48237 3.07315 1.27553 3.45402 1.14685 3.73991C1.08271 3.8824 1.03858 3.99997 1.01098 4.0801C0.997197 4.12012 0.987581 4.15067 0.98169 4.17017L0.975604 4.19088ZM5.13007 2.84518C3.98646 2.84518 3.05938 3.77226 3.05938 4.91587C3.05938 6.05947 3.98646 6.98655 5.13007 6.98655C6.27368 6.98655 7.20076 6.05947 7.20076 4.91587C7.20076 3.77226 6.27368 2.84518 5.13007 2.84518ZM3.88766 4.91587C3.88766 4.2297 4.4439 3.67345 5.13007 3.67345C5.81624 3.67345 6.37248 4.2297 6.37248 4.91587C6.37248 5.60203 5.81624 6.15828 5.13007 6.15828C4.4439 6.15828 3.88766 5.60203 3.88766 4.91587Z" fill="#310057"/>
</svg>
