<svg width="20" height="20" viewBox="0 0 20 20" fill="none" xmlns="http://www.w3.org/2000/svg">
<path d="M13.4429 3.09528C12.0143 3.09528 10.7524 3.81432 10 4.90956C9.24766 3.81432 7.98574 3.09528 6.55717 3.09528C4.25241 3.09528 2.38098 4.9667 2.38098 7.27146C2.38098 12.362 10 16.9381 10 16.9381C10 16.9381 17.6191 12.362 17.6191 7.27146C17.6191 4.9667 15.7477 3.09528 13.4429 3.09528Z" fill="url(#paint0_radial_724_7282)"/>
<path opacity="0.5" d="M15.1713 3.4668C17.4571 7.10965 15.3523 11.8906 12.8237 13.2477C10.0332 14.7477 8.1237 14.043 4.17133 11.8002C6.4237 14.7858 9.99989 16.9335 9.99989 16.9335C9.99989 16.9335 17.619 12.3572 17.619 7.2668C17.619 5.58108 16.6141 4.12394 15.1713 3.4668Z" fill="url(#paint1_radial_724_7282)"/>
<path opacity="0.5" d="M13.4429 3.09528C12.0143 3.09528 10.7524 3.81432 10 4.90956C9.24766 3.81432 7.98574 3.09528 6.55717 3.09528C4.25241 3.09528 2.38098 4.9667 2.38098 7.27146C2.38098 12.362 10 16.9381 10 16.9381C10 16.9381 17.6191 12.362 17.6191 7.27146C17.6191 4.9667 15.7477 3.09528 13.4429 3.09528Z" fill="url(#paint2_radial_724_7282)"/>
<path opacity="0.5" d="M13.4429 3.09528C12.0143 3.09528 10.7524 3.81432 10 4.90956C9.24766 3.81432 7.98574 3.09528 6.55717 3.09528C4.25241 3.09528 2.38098 4.9667 2.38098 7.27146C2.38098 12.362 10 16.9381 10 16.9381C10 16.9381 17.6191 12.362 17.6191 7.27146C17.6191 4.9667 15.7477 3.09528 13.4429 3.09528Z" fill="url(#paint3_radial_724_7282)"/>
<path opacity="0.24" d="M8.95715 4.79067C9.37615 5.77639 8.44756 7.11448 6.88093 7.77639C5.31426 8.43831 3.7095 8.18115 3.29045 7.2002C2.8714 6.21925 3.79998 4.87639 5.36665 4.21448C6.93331 3.55258 8.53806 3.80495 8.95715 4.79067Z" fill="url(#paint4_radial_724_7282)"/>
<path opacity="0.24" d="M14.0618 3.99073C14.6571 4.64787 14.2904 5.94787 13.2476 6.89073C12.2047 7.83358 10.8761 8.06692 10.2809 7.40977C9.68567 6.75263 10.0523 5.45263 11.0952 4.50978C12.138 3.56692 13.4666 3.33358 14.0618 3.99073Z" fill="url(#paint5_radial_724_7282)"/>
<path opacity="0.32" d="M13.5191 4.20479C15.6143 4.91908 17.6143 8.01432 14.2334 11.8715C12.2096 14.181 10.0001 15.3476 7.19055 14.8905C8.70959 16.1571 10.0048 16.9381 10.0048 16.9381C10.0048 16.9381 17.6239 12.362 17.6239 7.27146C17.6191 4.9667 15.7477 3.09528 13.4429 3.09528C12.0143 3.09528 10.7524 3.81432 10.0001 4.90956C10.0001 4.90956 11.9858 3.68098 13.5191 4.20479Z" fill="url(#paint6_linear_724_7282)"/>
<defs>
<radialGradient id="paint0_radial_724_7282" cx="0" cy="0" r="1" gradientUnits="userSpaceOnUse" gradientTransform="translate(7.82066 6.95638) rotate(-29.408) scale(11.922 9.45717)">
<stop offset="0.2479" stop-color="#FF0000"/>
<stop offset="0.8639" stop-color="#C20000"/>
</radialGradient>
<radialGradient id="paint1_radial_724_7282" cx="0" cy="0" r="1" gradientUnits="userSpaceOnUse" gradientTransform="translate(8.11539 6.22515) rotate(-29.408) scale(10.2644 8.14232)">
<stop offset="0.2479" stop-color="#FF0000"/>
<stop offset="1" stop-color="#C20000"/>
</radialGradient>
<radialGradient id="paint2_radial_724_7282" cx="0" cy="0" r="1" gradientUnits="userSpaceOnUse" gradientTransform="translate(7.82066 6.95638) rotate(-29.408) scale(11.922 9.45717)">
<stop stop-color="white" stop-opacity="0.25"/>
<stop offset="1" stop-color="white" stop-opacity="0"/>
</radialGradient>
<radialGradient id="paint3_radial_724_7282" cx="0" cy="0" r="1" gradientUnits="userSpaceOnUse" gradientTransform="translate(12.1064 11.0036) rotate(-26.296) scale(8.70258 4.30032)">
<stop stop-color="#BD2719" stop-opacity="0.25"/>
<stop offset="1" stop-color="#BD2719" stop-opacity="0"/>
</radialGradient>
<radialGradient id="paint4_radial_724_7282" cx="0" cy="0" r="1" gradientUnits="userSpaceOnUse" gradientTransform="translate(6.12286 5.99542) rotate(-21.6908) scale(3.09377 1.9218)">
<stop stop-color="white"/>
<stop offset="1" stop-color="white" stop-opacity="0"/>
</radialGradient>
<radialGradient id="paint5_radial_724_7282" cx="0" cy="0" r="1" gradientUnits="userSpaceOnUse" gradientTransform="translate(12.167 5.70518) rotate(-40.7634) scale(2.56147 1.59125)">
<stop stop-color="white"/>
<stop offset="1" stop-color="white" stop-opacity="0"/>
</radialGradient>
<linearGradient id="paint6_linear_724_7282" x1="11.5723" y1="22.3748" x2="13.0486" y2="2.47004" gradientUnits="userSpaceOnUse">
<stop stop-color="#860805"/>
<stop offset="1" stop-color="#BD2719" stop-opacity="0"/>
</linearGradient>
</defs>
</svg>
