<svg width="505" height="587" viewBox="0 0 505 587" fill="none" xmlns="http://www.w3.org/2000/svg">
<path d="M252.5 586.826C391.952 586.826 505 522.606 505 443.386C505 364.166 391.952 299.946 252.5 299.946C113.048 299.946 0 364.166 0 443.386C0 522.606 113.048 586.826 252.5 586.826Z" fill="#F5F5F5"/>
<path d="M357.575 533.827L169.094 424.998C167.435 424.042 166.058 422.667 165.101 421.01C164.143 419.354 163.639 417.474 163.639 415.56C163.639 413.647 164.143 411.767 165.101 410.11C166.058 408.453 167.435 407.078 169.094 406.123L187.687 394.398C190.896 392.549 194.535 391.576 198.239 391.576C201.943 391.576 205.582 392.549 208.791 394.398L397.298 503.24C398.956 504.195 400.333 505.571 401.291 507.227C402.248 508.884 402.753 510.764 402.753 512.677C402.753 514.591 402.248 516.471 401.291 518.128C400.333 519.784 398.956 521.16 397.298 522.115L378.705 533.827C375.494 535.685 371.85 536.664 368.14 536.664C364.43 536.664 360.786 535.685 357.575 533.827V533.827Z" fill="#E0E0E0"/>
<path d="M70.9897 434.608C93.5794 434.608 111.892 424.092 111.892 411.12C111.892 398.148 93.5794 387.632 70.9897 387.632C48.4 387.632 30.0874 398.148 30.0874 411.12C30.0874 424.092 48.4 434.608 70.9897 434.608Z" fill="#E6E6E6"/>
<path d="M424.413 439.99L442.353 450.305C442.353 450.305 433.191 421.512 438.073 392.489C439.918 381.52 443.878 376.074 445.261 373.139C446.645 370.205 457.371 352.073 447.824 343.77C438.278 335.466 416.071 352.163 417.276 396.845C417.823 411.471 420.221 425.968 424.413 439.99V439.99Z" fill="#572B92"/>
<path opacity="0.5" d="M424.413 439.99L442.353 450.305C442.353 450.305 433.191 421.512 438.073 392.489C439.918 381.52 443.878 376.074 445.261 373.139C446.645 370.205 457.371 352.073 447.824 343.77C438.278 335.466 416.071 352.163 417.276 396.845C417.823 411.471 420.221 425.968 424.413 439.99V439.99Z" fill="black"/>
<path d="M432.755 445.423C432.625 445.426 432.497 445.388 432.389 445.314C432.281 445.241 432.198 445.136 432.153 445.013C432.089 444.821 425.234 426.087 425.451 395.974C425.669 365.861 441.494 349.51 441.648 349.357C441.708 349.297 441.779 349.249 441.857 349.216C441.935 349.184 442.019 349.167 442.103 349.167C442.188 349.167 442.271 349.184 442.35 349.216C442.428 349.249 442.499 349.297 442.558 349.357C442.618 349.416 442.666 349.487 442.698 349.565C442.731 349.643 442.748 349.727 442.748 349.811C442.748 349.896 442.731 349.98 442.698 350.058C442.666 350.136 442.618 350.207 442.558 350.266C442.404 350.42 426.951 366.284 426.733 395.987C426.515 425.69 433.281 444.398 433.358 444.577C433.415 444.737 433.407 444.913 433.335 445.067C433.263 445.221 433.133 445.34 432.973 445.398C432.903 445.419 432.829 445.428 432.755 445.423V445.423Z" fill="white"/>
<path d="M431.897 444.398L456.423 458.493C458.978 460.004 462.009 460.496 464.911 459.872C467.813 459.247 470.374 457.552 472.081 455.123C473.705 452.597 474.39 449.581 474.016 446.602C472.837 433.865 467.302 430.931 474.08 425.254C480.859 419.577 482.627 419.18 482.243 413.721C481.859 408.263 478.13 405.879 476.361 403.726C474.593 401.574 469.698 397.063 473.03 390.4C476.361 383.737 480.91 377.291 474.016 374.344C469.903 372.576 463.048 374.933 458.537 379.828C454.027 384.723 450.31 388.247 445.992 389.426C441.674 390.605 432.678 390.797 433.063 398.242C433.447 405.687 435.421 408.237 433.652 411.556C430.321 417.758 415.828 421.282 431.897 444.398Z" fill="#572B92"/>
<path d="M444.018 451.984C443.858 451.979 443.706 451.917 443.588 451.808C443.471 451.7 443.396 451.553 443.377 451.395C443.377 450.959 439.61 406.981 469.851 377.714C469.976 377.611 470.135 377.559 470.296 377.569C470.458 377.578 470.61 377.648 470.722 377.765C470.833 377.882 470.897 378.036 470.9 378.198C470.902 378.36 470.843 378.516 470.735 378.637C440.93 407.481 444.62 450.844 444.659 451.279C444.673 451.447 444.621 451.614 444.513 451.744C444.405 451.873 444.25 451.955 444.082 451.971L444.018 451.984Z" fill="white"/>
<path d="M448.875 414.131C448.713 414.132 448.558 414.071 448.439 413.962C448.32 413.853 448.247 413.703 448.234 413.542C447.966 410.134 447.006 406.816 445.413 403.791C443.82 400.766 441.628 398.098 438.969 395.948C438.9 395.9 438.841 395.838 438.796 395.766C438.75 395.695 438.72 395.615 438.705 395.532C438.691 395.448 438.694 395.363 438.712 395.281C438.731 395.198 438.766 395.12 438.816 395.051C438.863 394.982 438.924 394.924 438.994 394.879C439.064 394.833 439.143 394.803 439.225 394.789C439.308 394.774 439.392 394.776 439.473 394.795C439.555 394.814 439.632 394.849 439.7 394.898C442.532 397.144 444.868 399.954 446.557 403.151C448.247 406.347 449.254 409.859 449.515 413.465C449.53 413.636 449.476 413.807 449.365 413.938C449.255 414.07 449.097 414.154 448.926 414.17L448.875 414.131Z" fill="white"/>
<path d="M446.787 421.679C446.632 421.68 446.482 421.626 446.364 421.525C446.237 421.412 446.159 421.253 446.147 421.083C446.135 420.913 446.19 420.745 446.3 420.615C446.608 420.256 454.181 411.902 471.928 414.119C472.096 414.141 472.249 414.229 472.352 414.363C472.455 414.498 472.501 414.668 472.479 414.836C472.457 415.005 472.369 415.159 472.235 415.264C472.101 415.369 471.931 415.418 471.761 415.4C454.719 413.26 447.325 421.384 447.248 421.461C447.19 421.526 447.119 421.579 447.04 421.617C446.96 421.654 446.875 421.675 446.787 421.679V421.679Z" fill="white"/>
<path d="M351.834 520.821L186.072 425.113C174.373 418.36 164.891 400.241 164.891 384.646V29.6983C164.891 14.1036 174.373 6.94058 186.072 13.6936L351.834 109.401C363.533 116.154 373.016 134.273 373.016 149.868V504.816C373.016 520.398 363.533 527.574 351.834 520.821Z" fill="#455A64"/>
<path d="M370.927 98.2405L205.153 2.53264C200.155 -0.350513 195.568 -0.683678 191.941 1.08465C191.497 1.30699 191.069 1.55959 190.66 1.84068L172.08 12.6429C175.821 10.4004 180.716 10.567 186.085 13.668L351.847 109.376C363.546 116.129 373.029 134.248 373.029 149.842V504.79C373.029 513.043 370.376 518.886 366.148 521.654L384.485 510.98C389.162 508.494 392.173 502.407 392.173 493.681V138.733C392.173 123.112 382.627 104.993 370.927 98.2405Z" fill="#37474F"/>
<path d="M373.016 149.842V504.79C373.016 513.043 370.363 518.886 366.135 521.654L384.484 510.98C389.162 508.494 392.173 502.407 392.173 493.681V138.733L373.08 149.817L373.016 149.842Z" fill="#263238"/>
<path d="M392.109 166.27L373.016 177.29V185.901L392.109 174.868V166.27Z" fill="#37474F"/>
<path d="M383.742 223.536C382.037 224.523 380.653 223.472 380.653 221.204V202.687C380.671 201.53 380.959 200.393 381.495 199.367C382.032 198.341 382.801 197.455 383.742 196.78V196.78C385.446 195.793 386.83 196.78 386.83 199.112V217.629C386.812 218.786 386.524 219.923 385.988 220.949C385.451 221.975 384.682 222.861 383.742 223.536V223.536Z" fill="#37474F"/>
<path d="M380.64 221.255V202.687C380.657 201.53 380.946 200.393 381.482 199.367C382.018 198.341 382.788 197.455 383.728 196.78C384.009 196.584 384.337 196.464 384.678 196.432C385.02 196.401 385.364 196.459 385.676 196.601L383.357 195.409C383.04 195.256 382.688 195.19 382.337 195.217C381.986 195.244 381.648 195.363 381.358 195.563C380.416 196.238 379.646 197.123 379.107 198.149C378.569 199.175 378.278 200.312 378.257 201.47V219.974C378.209 220.441 378.28 220.913 378.464 221.345C378.647 221.778 378.938 222.157 379.308 222.447V222.447L381.729 223.728C381.344 223.45 381.04 223.075 380.848 222.64C380.657 222.205 380.585 221.727 380.64 221.255V221.255Z" fill="#455A64"/>
<path d="M383.742 268.346C382.037 269.333 380.653 268.346 380.653 266.014V247.498C380.672 246.341 380.96 245.204 381.497 244.178C382.033 243.152 382.802 242.266 383.742 241.591V241.591C385.446 240.604 386.83 241.591 386.83 243.936V262.439C386.814 263.597 386.527 264.735 385.99 265.761C385.454 266.788 384.684 267.673 383.742 268.346V268.346Z" fill="#37474F"/>
<path d="M380.64 266.014V247.498C380.658 246.341 380.947 245.204 381.483 244.178C382.019 243.152 382.788 242.266 383.728 241.591C384.011 241.398 384.338 241.28 384.679 241.248C385.019 241.217 385.363 241.273 385.676 241.411V241.411L383.356 240.207C383.041 240.047 382.688 239.978 382.335 240.005C381.983 240.032 381.645 240.155 381.357 240.361C380.414 241.033 379.641 241.919 379.103 242.945C378.564 243.971 378.274 245.109 378.256 246.268V264.823C378.207 265.29 378.278 265.763 378.462 266.195C378.645 266.628 378.936 267.007 379.307 267.296V267.296L381.729 268.577C381.328 268.293 381.013 267.903 380.821 267.45C380.629 266.998 380.566 266.5 380.64 266.014Z" fill="#455A64"/>
<path d="M346.042 119.358L183.15 25.2775C182.47 24.8864 181.7 24.6799 180.916 24.6784C180.132 24.677 179.361 24.8806 178.679 25.2692C177.998 25.6578 177.43 26.2177 177.032 26.8935C176.634 27.5693 176.42 28.3374 176.41 29.1217V384.646C176.41 396.512 184.829 411.082 195.106 417.015L353.999 508.801C354.753 509.235 355.607 509.463 356.477 509.462C357.346 509.461 358.2 509.232 358.953 508.797C359.706 508.362 360.331 507.737 360.766 506.985C361.201 506.232 361.431 505.378 361.432 504.509V146.05C361.496 136.26 354.55 124.253 346.042 119.358Z" fill="#572B92"/>
<path opacity="0.9" d="M346.042 119.358L183.15 25.2775C182.47 24.8864 181.7 24.6799 180.916 24.6784C180.132 24.677 179.361 24.8806 178.679 25.2692C177.998 25.6578 177.43 26.2177 177.032 26.8935C176.634 27.5693 176.42 28.3374 176.41 29.1217V384.646C176.41 396.512 184.829 411.082 195.106 417.015L353.999 508.801C354.753 509.235 355.607 509.463 356.477 509.462C357.346 509.461 358.2 509.232 358.953 508.797C359.706 508.362 360.331 507.737 360.766 506.985C361.201 506.232 361.431 505.378 361.432 504.509V146.05C361.496 136.26 354.55 124.253 346.042 119.358Z" fill="white"/>
<path d="M231.87 49.8419L234.394 60.4647L288.392 91.6028L297.721 86.6309L231.87 49.8419Z" fill="#455A64"/>
<path d="M247.746 60.106C247.746 61.8743 246.464 62.5791 244.978 61.7077C244.18 61.178 243.517 60.4684 243.043 59.6361C242.569 58.8038 242.297 57.8719 242.249 56.9153C242.249 55.1598 243.53 54.4422 245.016 55.3264C245.814 55.8534 246.477 56.5606 246.951 57.3908C247.425 58.2211 247.697 59.1511 247.746 60.106V60.106Z" fill="#263238"/>
<path d="M284.125 82.5945C283.829 82.5922 283.539 82.5174 283.279 82.3767L255.703 66.9999C255.314 66.7712 255.03 66.3994 254.911 65.9638C254.792 65.5282 254.848 65.0634 255.067 64.6686C255.286 64.2739 255.651 63.9804 256.083 63.851C256.516 63.7215 256.982 63.7663 257.382 63.9758L284.971 79.3526C285.306 79.539 285.57 79.8316 285.721 80.1843C285.872 80.5371 285.901 80.93 285.804 81.3013C285.707 81.6726 285.49 82.0011 285.186 82.2352C284.882 82.4693 284.509 82.5957 284.125 82.5945V82.5945Z" fill="#263238"/>
<path d="M210.572 99.2656C208.894 98.2917 207.676 99.1374 207.676 101.277C207.676 102.348 207.941 103.401 208.446 104.344C208.951 105.288 209.682 106.092 210.572 106.685C211.049 106.974 211.597 107.128 212.155 107.128C212.713 107.128 213.26 106.974 213.737 106.685L216.416 111.529C215.473 112.048 214.405 112.296 213.33 112.244C212.256 112.192 211.216 111.842 210.329 111.234C208.153 109.903 206.339 108.056 205.047 105.856C203.755 103.657 203.026 101.173 202.922 98.6249C202.922 93.8709 206.113 92.2179 210.508 94.7807C212.99 96.379 215.024 98.5842 216.416 101.188L213.737 103.315C213.077 101.698 211.981 100.297 210.572 99.2656Z" fill="#572B92"/>
<path d="M231.831 115.322C231.831 120.114 228.589 121.729 224.143 119.166C221.905 117.828 220.032 115.959 218.691 113.723C217.349 111.488 216.581 108.956 216.454 106.352C216.454 101.559 219.696 99.9448 224.143 102.508C226.386 103.839 228.263 105.707 229.605 107.944C230.947 110.18 231.712 112.716 231.831 115.322V115.322ZM221.208 109.209C221.231 110.309 221.514 111.389 222.035 112.358C222.557 113.327 223.301 114.158 224.207 114.783C225.796 115.706 227.077 114.783 227.077 112.605C227.073 111.53 226.81 110.471 226.31 109.519C225.81 108.566 225.089 107.748 224.207 107.133C222.592 106.198 221.208 106.992 221.208 109.209Z" fill="#572B92"/>
<path d="M236.995 110.234L242.531 121.767V113.464L246.721 115.885V132.044L242.877 129.814L237.367 118.384V126.636L233.151 124.202V108.005L236.995 110.234Z" fill="#572B92"/>
<path d="M260.419 123.753V127.982L256.421 125.675V137.618L251.795 134.94V122.997L247.823 120.703V116.488L260.419 123.753Z" fill="#572B92"/>
<path d="M269.44 142.846L264.186 139.809L263.469 141.68L258.728 138.938L264.635 126.188L269.389 128.93L275.078 148.382L270.145 145.537L269.44 142.846ZM268.3 138.361L266.864 132.838L265.391 136.682L268.3 138.361Z" fill="#572B92"/>
<path d="M282.421 140.745C280.742 139.783 279.525 140.616 279.525 142.769C279.527 143.839 279.793 144.892 280.298 145.835C280.803 146.778 281.532 147.582 282.421 148.177C282.901 148.463 283.45 148.615 284.01 148.615C284.569 148.615 285.118 148.463 285.599 148.177L288.277 153.02C287.331 153.534 286.262 153.779 285.186 153.727C284.11 153.675 283.07 153.328 282.177 152.726C280 151.393 278.185 149.544 276.893 147.343C275.601 145.141 274.872 142.655 274.771 140.104C274.771 135.35 277.974 133.697 282.357 136.26C284.836 137.866 286.871 140.069 288.277 142.667L285.599 144.781C284.924 143.173 283.826 141.778 282.421 140.745Z" fill="#572B92"/>
<path d="M300.911 147.139V151.355L296.913 149.048V161.029L292.287 158.351V146.408L288.315 144.115V139.899L300.911 147.139Z" fill="#572B92"/>
<path d="M314.584 166.975C315.724 167.628 316.596 167.116 316.596 165.514V156.198L321.234 158.864V168.179C321.234 172.472 318.672 173.753 314.571 171.408C312.596 170.311 310.935 168.725 309.748 166.803C308.561 164.88 307.888 162.684 307.792 160.427V151.111L312.431 153.789V163.105C312.449 163.876 312.654 164.632 313.029 165.306C313.405 165.98 313.938 166.553 314.584 166.975V166.975Z" fill="#572B92"/>
<path d="M328.705 167.026C328.179 166.731 327.846 166.719 327.846 167.205C327.846 169.23 335.086 172.152 335.086 178.008C335.086 181.596 332.357 181.608 329.205 179.789C326.434 178.091 324.047 175.835 322.195 173.164L323.912 170.14C325.321 172.321 327.13 174.217 329.243 175.727C329.922 176.124 330.358 176.124 330.358 175.547C330.358 173.446 323.105 170.652 323.105 164.976C323.105 161.747 325.463 161.132 329.102 163.182C331.446 164.6 333.51 166.437 335.189 168.602L333.51 171.703C332.124 169.937 330.508 168.364 328.705 167.026V167.026Z" fill="#572B92"/>
<path d="M187.264 178.892C192.463 172.506 195.08 164.404 194.599 156.183C194.118 147.963 190.573 140.221 184.664 134.486C178.755 128.75 170.912 125.438 162.68 125.201C154.449 124.965 146.428 127.823 140.2 133.21C133.972 138.597 129.989 146.122 129.038 154.302C128.086 162.481 130.234 170.72 135.059 177.394C139.883 184.067 147.033 188.69 155.099 190.35C163.164 192.01 171.559 190.588 178.627 186.362L194.67 193.333L187.264 178.892Z" fill="#572B92"/>
<path opacity="0.4" d="M187.264 178.892C192.463 172.506 195.08 164.404 194.599 156.183C194.118 147.963 190.573 140.221 184.664 134.486C178.755 128.75 170.912 125.438 162.68 125.201C154.449 124.965 146.428 127.823 140.2 133.21C133.972 138.597 129.989 146.122 129.038 154.302C128.086 162.481 130.234 170.72 135.059 177.394C139.883 184.067 147.033 188.69 155.099 190.35C163.164 192.01 171.559 190.588 178.627 186.362L194.67 193.333L187.264 178.892Z" fill="black"/>
<path d="M149.539 156.339C149.539 155.839 149.181 155.557 148.527 155.557C147.011 155.756 145.595 156.424 144.478 157.467L142.658 153.93C144.574 152.489 146.887 151.674 149.283 151.598C152.358 151.598 154.691 153.213 154.691 155.622C154.691 157.339 153.409 158.992 151.769 160.645L149.475 162.913H154.896V166.68H143.248V163.592L148.437 158.223C148.996 157.728 149.382 157.068 149.539 156.339V156.339Z" fill="white"/>
<path d="M164.378 151.816L160.842 160.299H162.29V157.441H166.749V160.299H168.44V163.797H166.749V166.68H162.29V163.797H155.947V160.619L159.791 151.816H164.378Z" fill="white"/>
<path d="M182.203 159.286V166.68H177.436V160.657C177.463 160.461 177.448 160.262 177.392 160.072C177.336 159.882 177.239 159.706 177.109 159.557C176.979 159.408 176.819 159.288 176.639 159.206C176.458 159.124 176.263 159.081 176.065 159.081C175.129 159.081 174.54 159.812 174.54 160.939V166.68H169.773V150.97H174.54V156.749C174.913 156.16 175.432 155.677 176.048 155.349C176.663 155.022 177.354 154.859 178.051 154.878C178.622 154.864 179.19 154.97 179.718 155.189C180.245 155.409 180.72 155.738 181.112 156.154C181.504 156.57 181.804 157.064 181.992 157.604C182.18 158.144 182.251 158.717 182.203 159.286V159.286Z" fill="white"/>
<path d="M337.636 278.354V437.568C337.639 439.369 337.167 441.139 336.268 442.699C335.37 444.26 334.076 445.556 332.517 446.457C330.958 447.359 329.19 447.834 327.389 447.835C325.588 447.835 323.819 447.362 322.259 446.461L236.508 396.948L221.311 388.183C216.077 385.157 211.73 380.811 208.704 375.578C205.677 370.345 204.077 364.41 204.063 358.365V199.138C204.06 197.337 204.532 195.568 205.431 194.007C206.329 192.447 207.623 191.15 209.182 190.249C210.741 189.347 212.51 188.872 214.31 188.872C216.111 188.871 217.88 189.345 219.44 190.245L320.414 248.536C325.65 251.557 329.997 255.903 333.021 261.138C336.044 266.372 337.636 272.31 337.636 278.354V278.354Z" fill="#572B92"/>
<path opacity="0.5" d="M337.636 278.354V437.568C337.639 439.369 337.167 441.139 336.268 442.699C335.37 444.26 334.076 445.556 332.517 446.457C330.958 447.359 329.19 447.834 327.389 447.835C325.588 447.835 323.819 447.362 322.259 446.461L236.508 396.948L221.311 388.183C216.077 385.157 211.73 380.811 208.704 375.578C205.677 370.345 204.077 364.41 204.063 358.365V199.138C204.06 197.337 204.532 195.568 205.431 194.007C206.329 192.447 207.623 191.15 209.182 190.249C210.741 189.347 212.51 188.872 214.31 188.872C216.111 188.871 217.88 189.345 219.44 190.245L320.414 248.536C325.65 251.557 329.997 255.903 333.021 261.138C336.044 266.372 337.636 272.31 337.636 278.354V278.354Z" fill="white"/>
<path d="M288.238 372.563C288.238 372.563 304.294 399.19 292.698 429.214L236.47 396.948L288.238 372.563Z" fill="#263238"/>
<path d="M313.844 252.928C315.059 243.059 308.044 234.074 298.176 232.859C288.307 231.643 279.322 238.658 278.107 248.527C276.891 258.396 283.906 267.381 293.775 268.596C303.644 269.811 312.629 262.796 313.844 252.928Z" fill="#263238"/>
<path d="M296.067 200.227C296.067 200.227 301.59 191.257 303.282 191.911C304.973 192.564 302.18 201.111 302.18 201.111C302.18 201.111 310.534 202.854 308.984 204.955C307.433 207.057 297.221 206.557 297.221 206.557L296.067 200.227Z" fill="#263238"/>
<path d="M299.912 223.344C296.068 252.226 271.721 252.226 271.721 252.226L220.722 229.776C220.722 229.776 216.877 226.406 215.699 218.667C215.246 215.496 215.246 212.278 215.699 209.107C215.699 209.107 215.699 209.043 215.699 209.018C217.326 196.87 226.411 183.812 246.196 179.802C250.532 178.926 254.946 178.497 259.369 178.52C261.509 178.513 263.647 178.62 265.776 178.841C281.153 180.353 291.929 187.529 297.068 198.69C298.223 201.209 299.083 203.853 299.63 206.57C300.673 212.105 300.769 217.777 299.912 223.344Z" fill="#263238"/>
<path d="M177.474 279.213C177.474 279.213 159.368 278.585 152.397 296.23C152.397 296.23 160.085 301.419 170.17 296.23C180.255 291.04 177.474 279.213 177.474 279.213Z" fill="#572B92"/>
<path opacity="0.5" d="M177.474 279.213C177.474 279.213 159.368 278.585 152.397 296.23C152.397 296.23 160.085 301.419 170.17 296.23C180.255 291.04 177.474 279.213 177.474 279.213Z" fill="black"/>
<path d="M176.961 287.708C176.961 287.708 171.836 265.438 169.132 265.169C166.428 264.899 165.903 271.96 166.121 275.945L159.714 262.157C159.51 261.729 159.222 261.347 158.865 261.034C158.508 260.721 158.091 260.485 157.64 260.34C157.189 260.195 156.712 260.143 156.24 260.189C155.768 260.235 155.311 260.377 154.896 260.607C148.489 264.131 137.251 274.843 160.944 301.33L176.961 287.708Z" fill="#945959"/>
<path d="M242.569 272.306L238.725 271.806C234.851 271.292 230.91 271.819 227.307 273.333C223.703 274.846 220.568 277.291 218.223 280.417L195.35 310.863L177.41 279.213C177.41 279.213 175.257 300.74 152.333 296.23L176.949 337.657C178.507 340.28 180.675 342.488 183.269 344.092C185.863 345.697 188.807 346.651 191.849 346.874C194.892 347.097 197.943 346.581 200.743 345.371C203.543 344.162 206.01 342.293 207.933 339.925L228.999 314.028L242.569 272.306Z" fill="#572B92"/>
<path d="M291.391 343.36C286.265 356.353 285.701 358.89 288.828 365.387C291.005 370.185 292.722 375.179 293.954 380.302C293.954 380.302 270.196 406.93 236.38 396.961L221.183 388.196C218.022 386.373 215.175 384.054 212.751 381.328L217.377 346.832C217.61 345.016 217.426 343.172 216.839 341.438L211.982 327.201C209.612 320.248 209.26 312.766 210.965 305.62C212.67 298.475 216.364 291.958 221.618 286.824L237.943 270.871L280.819 276.355L287.226 278.188C291.421 279.401 295.036 282.087 297.409 285.752C299.782 289.417 300.753 293.816 300.143 298.139C298.041 313.26 294.607 335.197 291.391 343.36Z" fill="#572B92"/>
<path opacity="0.5" d="M291.391 343.36C286.265 356.353 285.701 358.89 288.828 365.387C291.005 370.185 292.722 375.179 293.954 380.302C293.954 380.302 270.196 406.93 236.38 396.961L221.183 388.196C218.022 386.373 215.175 384.054 212.751 381.328L217.377 346.832C217.61 345.016 217.426 343.172 216.839 341.438L211.982 327.201C209.612 320.248 209.26 312.766 210.965 305.62C212.67 298.475 216.364 291.958 221.618 286.824L237.943 270.871L280.819 276.355L287.226 278.188C291.421 279.401 295.036 282.087 297.409 285.752C299.782 289.417 300.753 293.816 300.143 298.139C298.041 313.26 294.607 335.197 291.391 343.36Z" fill="black"/>
<path d="M265.532 304.546L256.947 297.229C256.038 296.451 254.941 295.924 253.766 295.699C252.591 295.475 251.377 295.56 250.245 295.948L239.866 299.523L238.469 293.705C238.251 292.8 237.852 291.949 237.296 291.202C236.74 290.455 236.038 289.829 235.234 289.361C234.429 288.893 233.538 288.592 232.614 288.478C231.69 288.363 230.753 288.437 229.858 288.695L225.36 289.976L232.972 275.394C235.457 270.645 239.285 266.732 243.979 264.143L246.965 262.503L271.632 263.785C271.632 263.785 280.819 267.629 280.819 276.278L265.532 304.469" fill="#572B92"/>
<path d="M271.734 274.715L247.003 293.987V232.621H271.734V274.715Z" fill="#945959"/>
<path d="M247.387 269.653L239.865 299.574L271.631 274.715L247.387 269.653Z" fill="#945959"/>
<path d="M247.003 265.207C252.502 263.165 257.529 260.027 261.778 255.982C266.028 251.938 269.41 247.072 271.721 241.68V232.621H246.99L247.003 265.207Z" fill="#703838"/>
<path d="M252.334 187.144C242.954 187.144 223.015 192.372 220.709 216.924C218.402 241.475 220.632 260.491 233.292 262.337C245.952 264.182 275.373 254.994 279.32 223.216C283.267 191.437 261.47 187.144 252.334 187.144Z" fill="#945959"/>
<path d="M237.572 227.316V241.783L229.089 239.182L237.572 227.316Z" fill="#703838"/>
<path d="M247.003 232.762C248.631 232.762 249.95 231.442 249.95 229.815C249.95 228.187 248.631 226.867 247.003 226.867C245.375 226.867 244.056 228.187 244.056 229.815C244.056 231.442 245.375 232.762 247.003 232.762Z" fill="#263238"/>
<path d="M230.55 227.764C230.547 228.347 230.372 228.915 230.047 229.398C229.721 229.881 229.26 230.257 228.721 230.478C228.183 230.699 227.591 230.756 227.02 230.641C226.449 230.526 225.925 230.244 225.514 229.831C225.103 229.418 224.824 228.893 224.711 228.322C224.598 227.751 224.657 227.159 224.881 226.621C225.104 226.083 225.482 225.624 225.966 225.3C226.451 224.977 227.02 224.804 227.602 224.804C227.991 224.804 228.375 224.881 228.733 225.03C229.092 225.179 229.417 225.397 229.691 225.672C229.965 225.947 230.182 226.274 230.329 226.633C230.476 226.992 230.551 227.376 230.55 227.764V227.764Z" fill="#263238"/>
<path d="M224.002 221.614L229.768 218.192C229.768 218.192 227.564 215.899 225.36 217.27C223.156 218.641 224.002 221.614 224.002 221.614Z" fill="#263238"/>
<path d="M233.586 247.652C236.395 247.857 239.19 247.107 241.518 245.525C241.518 245.525 242.069 249.715 238.558 250.509C235.047 251.304 233.586 247.652 233.586 247.652Z" fill="#703838"/>
<path d="M228.551 195.499C228.551 195.499 232.075 229.392 278.167 230.455C278.167 230.455 292.095 196.767 264.571 185.824C237.046 174.881 228.551 195.499 228.551 195.499Z" fill="#263238"/>
<path d="M291.737 225.381L286.073 222.101C283.92 220.819 280.947 220.999 277.654 222.895C271.119 226.662 265.814 235.85 265.814 243.398C265.814 247.178 267.095 249.805 269.299 251.086L274.861 254.289L275.181 254.469L275.373 254.584C277.475 255.609 280.281 255.366 283.369 253.585C289.904 249.74 295.209 240.63 295.209 233.082C295.171 229.264 293.851 226.624 291.737 225.381Z" fill="#572B92"/>
<path d="M291.692 244.682C296.313 236.677 296.313 228.026 291.692 225.358C287.071 222.69 279.579 227.016 274.957 235.02C270.336 243.024 270.336 251.676 274.957 254.344C279.578 257.012 287.071 252.686 291.692 244.682Z" fill="#572B92"/>
<path opacity="0.5" d="M291.692 244.682C296.313 236.677 296.313 228.026 291.692 225.358C287.071 222.69 279.579 227.016 274.957 235.02C270.336 243.024 270.336 251.676 274.957 254.344C279.578 257.012 287.071 252.686 291.692 244.682Z" fill="black"/>
<path d="M294.005 232.493L290.161 230.25C288.7 229.379 286.662 229.494 284.407 230.789C282.051 232.328 280.091 234.401 278.684 236.838C277.277 239.276 276.463 242.01 276.309 244.82C276.309 247.383 277.218 249.215 278.692 250.061L282.536 252.252C282.604 252.302 282.677 252.345 282.754 252.38L282.882 252.457C283.783 252.799 284.754 252.915 285.711 252.794C286.667 252.673 287.579 252.32 288.367 251.765C290.721 250.227 292.68 248.156 294.087 245.721C295.494 243.286 296.308 240.554 296.465 237.747C296.363 235.145 295.466 233.339 294.005 232.493Z" fill="#572B92"/>
<path d="M296.363 237.721C296.206 240.529 295.391 243.261 293.985 245.696C292.578 248.131 290.618 250.201 288.264 251.739C283.779 254.302 280.153 252.226 280.153 247.062C280.305 244.252 281.119 241.517 282.528 239.081C283.938 236.645 285.903 234.576 288.264 233.044C292.736 230.455 296.363 232.544 296.363 237.721Z" fill="#572B92"/>
<path opacity="0.3" d="M296.363 237.721C296.206 240.529 295.391 243.261 293.985 245.696C292.578 248.131 290.618 250.201 288.264 251.739C283.779 254.302 280.153 252.226 280.153 247.062C280.305 244.252 281.119 241.517 282.528 239.081C283.938 236.645 285.903 234.576 288.264 233.044C292.736 230.455 296.363 232.544 296.363 237.721Z" fill="black"/>
<path d="M274.143 180.532C270.469 177.695 265.97 176.133 261.329 176.086H260.188C255.488 176.035 250.795 176.464 246.183 177.367C247.028 177.367 247.874 177.367 248.745 177.367H246.183V179.75H248.566C256.78 180.03 264.564 183.492 270.272 189.406C275.98 195.319 279.164 203.221 279.153 211.439V221.524C279.153 221.923 279.236 222.317 279.398 222.681C279.56 223.046 279.796 223.372 280.092 223.639C280.388 223.906 280.737 224.108 281.116 224.231C281.495 224.355 281.896 224.397 282.292 224.356H282.587L285.15 223.561C284.979 223.615 284.803 223.65 284.625 223.664C285.389 223.56 286.088 223.179 286.589 222.593C287.09 222.007 287.358 221.257 287.341 220.486V211.132C287.316 194.205 279.999 185.107 274.143 180.532Z" fill="#572B92"/>
<path d="M258.01 261.632C256.953 261.632 255.909 261.405 254.948 260.966L246.939 257.262C246.814 257.218 246.699 257.147 246.602 257.056C246.506 256.965 246.429 256.854 246.377 256.732C246.325 256.609 246.3 256.477 246.301 256.344C246.303 256.211 246.333 256.08 246.388 255.959C246.443 255.838 246.523 255.729 246.622 255.641C246.721 255.552 246.838 255.485 246.964 255.444C247.091 255.402 247.224 255.388 247.357 255.401C247.489 255.414 247.617 255.454 247.733 255.52L255.742 259.223C256.763 259.698 257.908 259.842 259.015 259.635C260.122 259.429 261.137 258.881 261.918 258.07L269.607 250.125C269.787 249.945 270.031 249.844 270.286 249.844C270.541 249.844 270.785 249.945 270.965 250.125C271.142 250.307 271.241 250.55 271.241 250.804C271.241 251.058 271.142 251.301 270.965 251.483L263.277 259.428C262.592 260.131 261.773 260.688 260.868 261.067C259.963 261.446 258.991 261.638 258.01 261.632V261.632Z" fill="#572B92"/>
<path opacity="0.5" d="M258.01 261.632C256.953 261.632 255.909 261.405 254.948 260.966L246.939 257.262C246.814 257.218 246.699 257.147 246.602 257.056C246.506 256.965 246.429 256.854 246.377 256.732C246.325 256.609 246.3 256.477 246.301 256.344C246.303 256.211 246.333 256.08 246.388 255.959C246.443 255.838 246.523 255.729 246.622 255.641C246.721 255.552 246.838 255.485 246.964 255.444C247.091 255.402 247.224 255.388 247.357 255.401C247.489 255.414 247.617 255.454 247.733 255.52L255.742 259.223C256.763 259.698 257.908 259.842 259.015 259.635C260.122 259.429 261.137 258.881 261.918 258.07L269.607 250.125C269.787 249.945 270.031 249.844 270.286 249.844C270.541 249.844 270.785 249.945 270.965 250.125C271.142 250.307 271.241 250.55 271.241 250.804C271.241 251.058 271.142 251.301 270.965 251.483L263.277 259.428C262.592 260.131 261.773 260.688 260.868 261.067C259.963 261.446 258.991 261.638 258.01 261.632V261.632Z" fill="black"/>
<path d="M249.041 254.571C249.041 255.311 248.821 256.035 248.41 256.65C247.999 257.265 247.414 257.745 246.731 258.028C246.047 258.311 245.295 258.386 244.569 258.241C243.843 258.097 243.176 257.74 242.653 257.217C242.13 256.694 241.773 256.027 241.629 255.301C241.485 254.575 241.559 253.823 241.842 253.139C242.125 252.456 242.605 251.871 243.22 251.46C243.835 251.049 244.559 250.83 245.299 250.83C246.291 250.83 247.243 251.224 247.945 251.926C248.646 252.627 249.041 253.579 249.041 254.571V254.571Z" fill="#572B92"/>
<path opacity="0.5" d="M249.041 254.571C249.041 255.311 248.821 256.035 248.41 256.65C247.999 257.265 247.414 257.745 246.731 258.028C246.047 258.311 245.295 258.386 244.569 258.241C243.843 258.097 243.176 257.74 242.653 257.217C242.13 256.694 241.773 256.027 241.629 255.301C241.485 254.575 241.559 253.823 241.842 253.139C242.125 252.456 242.605 251.871 243.22 251.46C243.835 251.049 244.559 250.83 245.299 250.83C246.291 250.83 247.243 251.224 247.945 251.926C248.646 252.627 249.041 253.579 249.041 254.571V254.571Z" fill="black"/>
<path d="M287.316 211.132V220.486C287.332 221.257 287.065 222.007 286.564 222.593C286.063 223.179 285.363 223.56 284.599 223.664C284.177 223.709 283.75 223.665 283.347 223.534C282.943 223.403 282.571 223.188 282.256 222.904C281.94 222.62 281.688 222.273 281.516 221.885C281.343 221.497 281.254 221.077 281.255 220.653V211.132C281.262 206.588 280.35 202.09 278.574 197.907C276.797 193.725 274.193 189.945 270.917 186.796C267.642 183.646 263.764 181.192 259.515 179.58C255.267 177.969 250.736 177.233 246.196 177.418C250.809 176.516 255.502 176.086 260.202 176.137H261.316C265.958 176.185 270.457 177.746 274.13 180.583C279.999 185.107 287.316 194.205 287.316 211.132Z" fill="#572B92"/>
<path opacity="0.5" d="M287.316 211.132V220.486C287.332 221.257 287.065 222.007 286.564 222.593C286.063 223.179 285.363 223.56 284.599 223.664C284.177 223.709 283.75 223.665 283.347 223.534C282.943 223.403 282.571 223.188 282.256 222.904C281.94 222.62 281.688 222.273 281.516 221.885C281.343 221.497 281.254 221.077 281.255 220.653V211.132C281.262 206.588 280.35 202.09 278.574 197.907C276.797 193.725 274.193 189.945 270.917 186.796C267.642 183.646 263.764 181.192 259.515 179.58C255.267 177.969 250.736 177.233 246.196 177.418C250.809 176.516 255.502 176.086 260.202 176.137H261.316C265.958 176.185 270.457 177.746 274.13 180.583C279.999 185.107 287.316 194.205 287.316 211.132Z" fill="black"/>
<path d="M272.913 387.414C272.913 387.414 266.711 404.495 288.879 412.184C288.879 412.184 296.119 401.548 288.879 392.847C281.639 384.147 272.913 387.414 272.913 387.414Z" fill="#572B92"/>
<path opacity="0.7" d="M272.913 387.414C272.913 387.414 266.711 404.495 288.879 412.184C288.879 412.184 296.119 401.548 288.879 392.847C281.639 384.147 272.913 387.414 272.913 387.414Z" fill="black"/>
<path d="M280.691 388.196C280.691 388.196 259.035 396.128 259.151 399.203C259.266 402.278 268.351 400.177 268.351 400.177L265.032 402.355C261.538 404.636 258.831 407.938 257.28 411.812V411.812C256.942 412.666 256.93 413.615 257.247 414.478C257.563 415.34 258.186 416.056 258.997 416.489L267.224 420.846C267.688 421.092 268.197 421.243 268.721 421.289C269.245 421.336 269.773 421.276 270.274 421.115C270.774 420.954 271.237 420.694 271.636 420.35C272.034 420.007 272.359 419.587 272.593 419.116V419.116C273.051 418.21 273.685 417.404 274.457 416.744C275.229 416.084 276.124 415.584 277.09 415.272C281.562 413.785 289.904 409.505 293.249 397.793L280.691 388.196Z" fill="#945959"/>
<path d="M287.187 278.162C287.187 278.162 275.655 284.569 281.78 304.021C287.905 323.472 299.399 353.649 299.399 353.649L272.913 387.414C275.742 387.755 278.468 388.69 280.912 390.156C283.357 391.622 285.464 393.587 287.098 395.923C288.662 398.298 289.64 401.011 289.95 403.838C290.259 406.666 289.892 409.526 288.879 412.184L321.76 369.897C324.8 365.99 326.819 361.386 327.634 356.501C328.448 351.617 328.032 346.607 326.424 341.924L312.328 300.766C310.605 295.738 307.742 291.177 303.963 287.441C300.184 283.704 295.591 280.892 290.545 279.225L287.187 278.162Z" fill="#572B92"/>
<path d="M92.5173 163.259L41.556 133.786C40.9695 133.38 40.291 133.126 39.5818 133.048C38.8725 132.969 38.155 133.069 37.494 133.338V133.338C37.3546 133.402 37.2217 133.479 37.0967 133.569L26.0126 140.065H26.0895C24.6928 140.86 23.8086 142.705 23.8086 145.345V202.034C23.8086 206.826 26.7174 212.4 30.3181 214.476L81.2794 243.948C81.926 244.416 82.6957 244.684 83.493 244.718C84.2903 244.752 85.0801 244.551 85.7643 244.141C85.7297 244.154 85.6989 244.176 85.6746 244.205L96.6818 237.798C98.117 237.029 99.0268 235.158 99.0268 232.48V175.701C99.0268 170.909 96.1693 165.335 92.5173 163.259Z" fill="#572B92"/>
<path d="M97.2073 168.628C96.1763 166.435 94.5516 164.575 92.5174 163.259L41.5561 133.786C40.9696 133.38 40.2911 133.126 39.5819 133.048C38.8726 132.969 38.1551 133.069 37.494 133.338V133.338C37.3547 133.402 37.2217 133.479 37.0968 133.569L26.0127 140.065C26.6907 139.719 27.451 139.565 28.2104 139.622C28.9697 139.678 29.6989 139.943 30.3182 140.386L81.2795 169.858C83.3829 171.233 85.05 173.18 86.0848 175.47L97.2073 168.628Z" fill="#572B92"/>
<path d="M87.7886 238.964C87.7886 241.527 86.9685 243.308 85.6743 244.089L96.6815 237.682C98.1167 236.914 99.0265 235.043 99.0265 232.365V175.701C98.9723 173.235 98.3496 170.814 97.2069 168.628L86.0844 175.47C87.1523 177.592 87.7344 179.925 87.7886 182.3V238.964Z" fill="#572B92"/>
<path opacity="0.3" d="M97.2073 168.628C96.1763 166.435 94.5516 164.575 92.5174 163.259L41.5561 133.786C40.9696 133.38 40.2911 133.126 39.5819 133.048C38.8726 132.969 38.1551 133.069 37.494 133.338V133.338C37.3547 133.402 37.2217 133.479 37.0968 133.569L26.0127 140.065C26.6907 139.719 27.451 139.565 28.2104 139.622C28.9697 139.678 29.6989 139.943 30.3182 140.386L81.2795 169.858C83.3829 171.233 85.05 173.18 86.0848 175.47L97.2073 168.628Z" fill="black"/>
<path opacity="0.6" d="M87.7886 238.964C87.7886 241.527 86.9685 243.308 85.6743 244.089L96.6815 237.682C98.1167 236.914 99.0265 235.043 99.0265 232.365V175.701C98.9723 173.235 98.3496 170.814 97.2069 168.628L86.0844 175.47C87.1523 177.592 87.7344 179.925 87.7886 182.3V238.964Z" fill="black"/>
<path d="M72.8477 198.536C72.8477 205.878 69.939 208.377 65.5822 205.852C64.3803 205.168 63.3294 204.248 62.4926 203.147C61.6557 202.046 61.0504 200.787 60.7129 199.445C59.4315 201.022 57.4453 201.124 54.6518 199.509C50.0644 196.857 46.4509 190.54 46.4509 184.402C46.4509 178.264 50.026 176.15 54.6518 178.815C56.9992 180.198 58.8953 182.232 60.1106 184.671V182.249L64.9415 185.042V198.318C64.8696 199.016 64.9904 199.721 65.2908 200.356C65.5913 200.991 66.0599 201.531 66.6458 201.919C68.2731 202.867 69.2726 201.265 69.2726 196.511C69.2726 188.195 63.942 179.379 56.0614 174.83C48.1808 170.281 42.863 173.446 42.863 182.006C42.9662 186.548 44.2178 190.99 46.501 194.917C48.7842 198.845 52.0247 202.131 55.9204 204.468C58.0357 205.771 60.4377 206.537 62.9169 206.698L64.0573 211.119C61.1707 210.886 58.3812 209.968 55.9204 208.441C45.6692 202.508 38.8906 190.565 38.8906 179.75C38.8906 168.935 45.7333 165.014 56.0614 170.985C66.0435 176.739 72.8477 188.259 72.8477 198.536ZM60.1875 192.372C60.2124 190.747 59.8159 189.144 59.0367 187.718C58.2574 186.292 57.122 185.092 55.741 184.235C53.1782 182.736 51.3458 183.787 51.3458 187.272C51.3129 188.9 51.7 190.508 52.4699 191.942C53.2398 193.377 54.3664 194.588 55.741 195.46C58.3038 196.908 60.1875 195.973 60.1875 192.372Z" fill="#572B92"/>
<g opacity="0.9">
<path d="M72.8477 198.536C72.8477 205.878 69.939 208.377 65.5822 205.852C64.3803 205.168 63.3294 204.248 62.4926 203.147C61.6557 202.046 61.0504 200.787 60.7129 199.445C59.4315 201.022 57.4453 201.124 54.6518 199.509C50.0644 196.857 46.4509 190.54 46.4509 184.402C46.4509 178.264 50.026 176.15 54.6518 178.815C56.9992 180.198 58.8953 182.232 60.1106 184.671V182.249L64.9415 185.042V198.318C64.8696 199.016 64.9904 199.721 65.2908 200.356C65.5913 200.991 66.0599 201.531 66.6458 201.919C68.2731 202.867 69.2726 201.265 69.2726 196.511C69.2726 188.195 63.942 179.379 56.0614 174.83C48.1808 170.281 42.863 173.446 42.863 182.006C42.9662 186.548 44.2178 190.99 46.501 194.917C48.7842 198.845 52.0247 202.131 55.9204 204.468C58.0357 205.771 60.4377 206.537 62.9169 206.698L64.0573 211.119C61.1707 210.886 58.3812 209.968 55.9204 208.441C45.6692 202.508 38.8906 190.565 38.8906 179.75C38.8906 168.935 45.7333 165.014 56.0614 170.985C66.0435 176.739 72.8477 188.259 72.8477 198.536ZM60.1875 192.372C60.2124 190.747 59.8159 189.144 59.0367 187.718C58.2574 186.292 57.122 185.092 55.741 184.235C53.1782 182.736 51.3458 183.787 51.3458 187.272C51.3129 188.9 51.7 190.508 52.4699 191.942C53.2398 193.377 54.3664 194.588 55.741 195.46C58.3038 196.908 60.1875 195.973 60.1875 192.372Z" fill="white"/>
</g>
<path d="M92.5173 264.207L41.556 234.735C40.9703 234.326 40.291 234.072 39.5809 233.996C38.8708 233.92 38.153 234.024 37.494 234.299V234.299C37.3546 234.364 37.2217 234.441 37.0967 234.53L26.0126 241.027H26.0895C24.6928 241.821 23.8086 243.667 23.8086 246.293V302.957C23.8086 307.762 26.7174 313.323 30.3181 315.399L81.2794 344.872C81.9247 345.342 82.6948 345.612 83.4928 345.646C84.2908 345.68 85.0811 345.478 85.7643 345.064L85.6746 345.141L96.6818 338.67C98.117 337.914 99.0268 336.107 99.0268 333.352V276.637C99.0268 271.845 96.1693 266.283 92.5173 264.207Z" fill="#572B92"/>
<path d="M97.2073 269.576C96.1798 267.381 94.5543 265.521 92.5174 264.207L41.5561 234.735C40.9704 234.326 40.2911 234.072 39.581 233.996C38.8709 233.92 38.153 234.024 37.494 234.299V234.299C37.3547 234.364 37.2217 234.441 37.0968 234.53L26.0127 241.027C26.6892 240.677 27.4491 240.521 28.2087 240.575C28.9684 240.629 29.6983 240.892 30.3182 241.334L81.2795 270.807C83.3862 272.184 85.0539 274.136 86.0848 276.432V276.432L97.2073 269.576Z" fill="#572B92"/>
<path d="M87.7886 339.9C87.7886 342.463 86.9685 344.244 85.6743 345.089L96.6815 338.618C98.1167 337.862 99.0265 336.056 99.0265 333.301V276.637C98.9722 274.175 98.3495 271.758 97.2069 269.576L86.0844 276.419C87.1521 278.537 87.7343 280.865 87.7886 283.236V339.9Z" fill="#572B92"/>
<path opacity="0.3" d="M97.2073 269.576C96.1798 267.381 94.5543 265.521 92.5174 264.207L41.5561 234.735C40.9704 234.326 40.2911 234.072 39.581 233.996C38.8709 233.92 38.153 234.024 37.494 234.299V234.299C37.3547 234.364 37.2217 234.441 37.0968 234.53L26.0127 241.027C26.6892 240.677 27.4491 240.521 28.2087 240.575C28.9684 240.629 29.6983 240.892 30.3182 241.334L81.2795 270.807C83.3862 272.184 85.0539 274.136 86.0848 276.432V276.432L97.2073 269.576Z" fill="black"/>
<path opacity="0.6" d="M87.7886 339.9C87.7886 342.463 86.9685 344.244 85.6743 345.089L96.6815 338.618C98.1167 337.862 99.0265 336.056 99.0265 333.301V276.637C98.9722 274.175 98.3495 271.758 97.2069 269.576L86.0844 276.419C87.1521 278.537 87.7343 280.865 87.7886 283.236V339.9Z" fill="black"/>
<path d="M50.1026 289.541L37.814 269.576V296.627L50.1026 289.541Z" fill="#572B92"/>
<path d="M61.52 295.294L73.783 316.527V289.515L61.52 295.294Z" fill="#572B92"/>
<path d="M39.6724 268.667L52.2942 289.169C52.3476 289.214 52.395 289.266 52.4351 289.323C52.4462 289.374 52.4462 289.426 52.4351 289.477L56.1896 295.576L59.3675 294.077C59.417 294.023 59.4729 293.976 59.5341 293.936C59.6593 293.863 59.7995 293.819 59.9441 293.808L72.7581 287.798L39.6724 268.667Z" fill="#572B92"/>
<path d="M59.6621 296.166L56.228 297.78C56.0957 297.842 55.951 297.872 55.8051 297.87C55.6282 297.872 55.4539 297.828 55.2989 297.743C55.144 297.657 55.0138 297.533 54.9209 297.383L51.1664 291.283L38.8394 298.408L72.0148 317.552L59.6621 296.166Z" fill="#572B92"/>
<g opacity="0.9">
<path d="M50.1026 289.541L37.814 269.576V296.627L50.1026 289.541Z" fill="white"/>
<path d="M61.52 295.294L73.783 316.527V289.515L61.52 295.294Z" fill="white"/>
<path d="M39.6724 268.667L52.2942 289.169C52.3476 289.214 52.395 289.266 52.4351 289.323C52.4462 289.374 52.4462 289.426 52.4351 289.477L56.1896 295.576L59.3675 294.077C59.417 294.023 59.4729 293.976 59.5341 293.936C59.6593 293.863 59.7995 293.819 59.9441 293.808L72.7581 287.798L39.6724 268.667Z" fill="white"/>
<path d="M59.6621 296.166L56.228 297.78C56.0957 297.842 55.951 297.872 55.8051 297.87C55.6282 297.872 55.4539 297.828 55.2989 297.743C55.144 297.657 55.0138 297.533 54.9209 297.383L51.1664 291.283L38.8394 298.408L72.0148 317.552L59.6621 296.166Z" fill="white"/>
</g>
<path d="M92.5173 62.3612L41.556 32.889C40.9703 32.4803 40.291 32.226 39.5809 32.1499C38.8708 32.0737 38.153 32.1781 37.494 32.4533V32.4533C37.3546 32.5176 37.2217 32.5949 37.0967 32.684L26.0126 39.1807H26.0895C24.6928 39.9623 23.8086 41.8203 23.8086 44.4472V101.111C23.8086 105.903 26.7174 111.477 30.3181 113.553L81.2794 143.025C81.9247 143.496 82.6948 143.766 83.4928 143.8C84.2908 143.834 85.0811 143.631 85.7643 143.218L85.6746 143.282L96.6818 136.875C98.117 136.119 99.0268 134.312 99.0268 131.557V74.7523C99.0268 69.9599 96.1693 64.3858 92.5173 62.3612Z" fill="#572B92"/>
<path d="M97.2073 67.6918C96.18 65.4932 94.5548 63.6282 92.5174 62.3099L41.5561 32.8889C40.9704 32.4802 40.2911 32.226 39.581 32.1498C38.8709 32.0736 38.153 32.178 37.494 32.4532V32.4532C37.3547 32.5176 37.2217 32.5948 37.0968 32.6839L26.0127 39.1806C26.6892 38.8308 27.4491 38.6744 28.2087 38.7287C28.9684 38.7829 29.6983 39.0457 30.3182 39.4881L81.2795 68.9604C83.3862 70.3374 85.0539 72.2897 86.0848 74.5857V74.5857L97.2073 67.6918Z" fill="#572B92"/>
<path d="M87.7886 137.964C87.7886 140.527 86.9685 142.308 85.6743 143.089L96.6815 136.682C98.1167 135.926 99.0265 134.12 99.0265 131.365V74.7523C98.9722 72.29 98.3495 69.8736 97.2069 67.6918L86.0844 74.5344C87.1521 76.6519 87.7343 78.9807 87.7886 81.3515V137.964Z" fill="#572B92"/>
<path opacity="0.3" d="M97.2073 67.6918C96.18 65.4932 94.5548 63.6282 92.5174 62.3099L41.5561 32.8889C40.9704 32.4802 40.2911 32.226 39.581 32.1498C38.8709 32.0736 38.153 32.178 37.494 32.4532V32.4532C37.3547 32.5176 37.2217 32.5948 37.0968 32.6839L26.0127 39.1806C26.6892 38.8308 27.4491 38.6744 28.2087 38.7287C28.9684 38.7829 29.6983 39.0457 30.3182 39.4881L81.2795 68.9604C83.3862 70.3374 85.0539 72.2897 86.0848 74.5857V74.5857L97.2073 67.6918Z" fill="black"/>
<path opacity="0.6" d="M87.7886 137.964C87.7886 140.527 86.9685 142.308 85.6743 143.089L96.6815 136.682C98.1167 135.926 99.0265 134.12 99.0265 131.365V74.7523C98.9722 72.29 98.3495 69.8736 97.2069 67.6918L86.0844 74.5344C87.1521 76.6519 87.7343 78.9807 87.7886 81.3515V137.964Z" fill="black"/>
<path d="M71.1179 113.617C69.1573 110.388 67.184 107.21 65.2234 103.955C64.9124 103.339 64.4777 102.793 63.9464 102.352C63.415 101.911 62.7985 101.585 62.1352 101.393C61.187 101.2 60.2388 100.983 59.2649 100.701C58.9181 100.556 58.6263 100.305 58.432 99.9831C55.2239 94.4925 52.6734 88.6432 50.8333 82.5561C50.7941 82.4259 50.783 82.289 50.8007 82.1542C50.8184 82.0195 50.8644 81.89 50.9358 81.7744C51.5381 81.1722 52.2172 80.6212 52.8323 80.083C53.4473 79.5448 53.7677 78.3018 53.3192 76.6872C52.371 73.2659 51.4612 69.8446 50.5129 66.436C50.3295 65.4676 49.8941 64.5645 49.2508 63.8177C48.6075 63.0708 47.7788 62.5066 46.8481 62.1818C44.7817 61.6073 42.588 61.6879 40.5693 62.4124C39.7876 62.7072 39.3776 63.4119 39.3647 64.6293C39.6979 66.9742 39.9157 69.2936 40.3642 71.677C43.525 88.8648 51.128 104.669 63.1732 119.089C63.4876 119.567 63.9101 119.965 64.4065 120.249C64.9028 120.534 65.4592 120.699 66.0307 120.729C68.0249 120.682 69.9407 119.943 71.451 118.64C72.5915 117.615 72.4761 115.796 71.1179 113.617Z" fill="#572B92"/>
<path d="M70.9644 96.1517C70.6963 92.4659 69.6805 88.8733 67.9787 85.5929C66.7082 83.0303 65.0913 80.6546 63.1735 78.5324C62.6737 77.9686 62.2509 77.7892 61.9946 78.2121C61.7383 78.6349 61.9946 79.2372 62.4815 79.7882L62.9813 80.3648C66.5231 84.4532 68.7552 89.5111 69.3883 94.8831C69.382 95.2749 69.4207 95.6662 69.5036 96.0492C69.6645 96.4899 69.923 96.8885 70.2596 97.2152C70.5287 97.4075 70.8363 97.2152 71.0541 97.2152C70.9772 96.6899 70.99 96.4208 70.9644 96.1517Z" fill="#572B92"/>
<path d="M59.3547 85.6314C60.9639 87.4013 61.9416 89.6542 62.1354 92.0384C62.2198 92.4009 62.3534 92.7501 62.5326 93.0763C63.3143 93.717 63.6987 93.4992 63.6987 92.6919C63.4247 89.635 62.1604 86.751 60.0979 84.4781C59.611 83.9784 59.2138 83.8246 58.9831 84.2475C58.9002 84.4889 58.8912 84.7497 58.9574 84.9962C59.0236 85.2428 59.162 85.464 59.3547 85.6314Z" fill="#572B92"/>
<g opacity="0.9">
<path d="M71.1179 113.617C69.1573 110.388 67.184 107.21 65.2234 103.955C64.9124 103.339 64.4777 102.793 63.9464 102.352C63.415 101.911 62.7985 101.585 62.1352 101.393C61.187 101.2 60.2388 100.983 59.2649 100.701C58.9181 100.556 58.6263 100.305 58.432 99.9831C55.2239 94.4925 52.6734 88.6432 50.8333 82.5561C50.7941 82.4259 50.783 82.289 50.8007 82.1542C50.8184 82.0195 50.8644 81.89 50.9358 81.7744C51.5381 81.1722 52.2172 80.6212 52.8323 80.083C53.4473 79.5448 53.7677 78.3018 53.3192 76.6872C52.371 73.2659 51.4612 69.8446 50.5129 66.436C50.3295 65.4676 49.8941 64.5645 49.2508 63.8177C48.6075 63.0708 47.7788 62.5066 46.8481 62.1818C44.7817 61.6073 42.588 61.6879 40.5693 62.4124C39.7876 62.7072 39.3776 63.4119 39.3647 64.6293C39.6979 66.9742 39.9157 69.2936 40.3642 71.677C43.525 88.8648 51.128 104.669 63.1732 119.089C63.4876 119.567 63.9101 119.965 64.4065 120.249C64.9028 120.534 65.4592 120.699 66.0307 120.729C68.0249 120.682 69.9407 119.943 71.451 118.64C72.5915 117.615 72.4761 115.796 71.1179 113.617Z" fill="white"/>
<path d="M70.9639 96.1517C70.6958 92.4659 69.68 88.8733 67.9782 85.5929C66.7077 83.0303 65.0908 80.6546 63.173 78.5324C62.6732 77.9686 62.2504 77.7892 61.9941 78.2121C61.7378 78.6349 61.9941 79.2372 62.481 79.7882L62.9808 80.3648C66.5226 84.4532 68.7547 89.5111 69.3878 94.8831C69.3815 95.2749 69.4202 95.6662 69.5031 96.0492C69.6641 96.4899 69.9225 96.8885 70.2591 97.2152C70.5282 97.4075 70.8358 97.2152 71.0536 97.2152C70.9767 96.6899 70.9895 96.4208 70.9639 96.1517Z" fill="white"/>
<path d="M59.3547 85.6314C60.9639 87.4013 61.9416 89.6542 62.1354 92.0384C62.2198 92.4009 62.3534 92.7501 62.5326 93.0763C63.3143 93.717 63.6987 93.4992 63.6987 92.6919C63.4247 89.635 62.1604 86.751 60.0979 84.4781C59.611 83.9784 59.2138 83.8246 58.9831 84.2475C58.9002 84.4889 58.8912 84.7497 58.9574 84.9962C59.0236 85.2428 59.162 85.464 59.3547 85.6314Z" fill="white"/>
</g>
<path d="M353.987 28.3785L365.994 35.2084V30.9541C365.994 30.6594 365.994 30.3519 365.994 30.0571C365.994 29.7624 365.994 29.4805 365.994 29.1986V29.0448C366.429 23.4195 370.697 21.2539 375.899 24.2652C378.254 25.7139 380.273 27.6493 381.819 29.9418C382.985 22.2534 389.226 19.5368 396.773 23.8808C405.153 28.7245 411.945 40.539 411.945 50.1751V59.2731C411.933 60.0008 412.112 60.719 412.466 61.3554C412.819 61.9919 413.333 62.5244 413.957 62.8994L421.03 67.0384C422.556 67.9435 423.822 69.2293 424.702 70.7702C425.583 72.3111 426.048 74.0541 426.053 75.8288C426.053 76.5651 425.86 77.2884 425.491 77.9259C425.123 78.5635 424.593 79.0927 423.955 79.4604C423.317 79.828 422.594 80.0212 421.858 80.0202C421.121 80.0193 420.398 79.8244 419.761 79.4551L354.166 41.5385C352.426 40.5279 350.981 39.0796 349.974 37.3374C348.967 35.5953 348.433 33.6199 348.426 31.6076C348.425 30.9563 348.596 30.3162 348.92 29.7516C349.245 29.1869 349.713 28.7175 350.276 28.3905C350.839 28.0634 351.479 27.8901 352.13 27.888C352.781 27.8859 353.422 28.0551 353.987 28.3785V28.3785Z" fill="#E6E6E6"/>
<path d="M445.518 26.5975L454.244 31.6077V28.4811C454.244 28.2633 454.244 28.0454 454.244 27.8276C454.244 27.6098 454.244 27.4047 454.244 27.1997V27.1228C454.565 23.0352 457.666 21.459 461.446 23.6502C463.157 24.6991 464.625 26.1015 465.751 27.7635C466.61 22.2022 471.146 20.1905 476.63 23.3555C482.73 26.8794 487.663 35.4391 487.663 42.474V49.0989C487.668 49.6182 487.807 50.1274 488.068 50.5767C488.328 51.0259 488.701 51.3998 489.15 51.6617L494.275 54.6729C495.39 55.3288 496.315 56.2655 496.955 57.3896C497.596 58.5137 497.931 59.7861 497.927 61.0799C497.926 61.6099 497.787 62.1305 497.524 62.5904C497.261 63.0503 496.882 63.4337 496.426 63.7027C495.969 63.9717 495.45 64.1172 494.92 64.1246C494.39 64.1321 493.868 64.0013 493.404 63.7453L445.646 36.1695C444.381 35.4374 443.33 34.3856 442.599 33.1194C441.868 31.8532 441.483 30.4172 441.481 28.9552C441.481 28.4821 441.604 28.0169 441.839 27.6063C442.074 27.1957 442.413 26.854 442.821 26.6153C443.23 26.3767 443.694 26.2494 444.167 26.2463C444.64 26.2431 445.106 26.3642 445.518 26.5975V26.5975Z" fill="#E6E6E6"/>
</svg>
