<svg width="24" height="23" viewBox="0 0 24 23" fill="none" xmlns="http://www.w3.org/2000/svg">
<path d="M7.5345 0.0797924C6.32058 0.137066 5.49159 0.330792 4.76689 0.615563C4.01685 0.907864 3.38114 1.30011 2.74862 1.93491C2.1161 2.56971 1.72659 3.20588 1.43635 3.95706C1.15546 4.68336 0.965152 5.51303 0.911529 6.72764C0.857906 7.94225 0.846041 8.33267 0.851974 11.4309C0.857906 14.5292 0.871597 14.9175 0.930468 16.1347C0.988426 17.3484 1.18147 18.1771 1.46624 18.902C1.759 19.6521 2.15078 20.2876 2.78581 20.9203C3.42084 21.5531 4.05656 21.9417 4.80956 22.2324C5.53517 22.5128 6.36507 22.704 7.57946 22.7572C8.79384 22.8103 9.18471 22.8227 12.2821 22.8167C15.3794 22.8108 15.7694 22.7971 16.9862 22.7394C18.2031 22.6816 19.0276 22.4872 19.7527 22.2038C20.5028 21.9104 21.1387 21.5193 21.771 20.884C22.4033 20.2488 22.7926 19.6121 23.0826 18.8605C23.3637 18.1349 23.5547 17.305 23.6074 16.0915C23.6606 14.8737 23.6731 14.4849 23.6672 11.3871C23.6612 8.28931 23.6473 7.90095 23.5896 6.68428C23.5319 5.46762 23.3386 4.64137 23.0541 3.91598C22.7608 3.16595 22.3695 2.53092 21.7347 1.89772C21.0999 1.26451 20.4628 0.875462 19.7114 0.586128C18.9853 0.305236 18.1559 0.113791 16.9415 0.0613097C15.7271 0.00882791 15.3363 -0.00463481 12.2378 0.00129791C9.13931 0.00723063 8.7514 0.0204652 7.5345 0.0797924ZM7.66776 20.7047C6.55538 20.6563 5.95138 20.4715 5.54887 20.3168C5.01583 20.1114 4.63614 19.8631 4.235 19.4659C3.83385 19.0686 3.58742 18.6876 3.37931 18.1557C3.22301 17.7531 3.03476 17.1498 2.98273 16.0375C2.92615 14.8352 2.91428 14.4742 2.90766 11.4282C2.90105 8.38218 2.91268 8.02166 2.96539 6.81891C3.01285 5.70744 3.19882 5.10276 3.3533 4.70047C3.55866 4.16676 3.80601 3.78774 4.20419 3.38683C4.60237 2.98591 4.98229 2.73902 5.51464 2.53092C5.91669 2.37393 6.52001 2.18728 7.63194 2.13434C8.83514 2.0773 9.19567 2.06589 12.2412 2.05927C15.2867 2.05265 15.6482 2.06406 16.8518 2.117C17.9633 2.16537 18.5682 2.34952 18.9701 2.50491C19.5033 2.71027 19.8828 2.95694 20.2837 3.3558C20.6846 3.75466 20.9317 4.13321 21.1398 4.6667C21.2971 5.06762 21.4837 5.6707 21.5362 6.78331C21.5935 7.98652 21.6065 8.34727 21.6119 11.3926C21.6174 14.4379 21.6067 14.7996 21.554 16.0019C21.5054 17.1142 21.321 17.7185 21.1661 18.1214C20.9607 18.6542 20.7131 19.0342 20.3147 19.4348C19.9163 19.8355 19.5369 20.0824 19.0043 20.2905C18.6027 20.4473 17.9987 20.6344 16.8877 20.6873C15.6845 20.7439 15.3239 20.7558 12.2773 20.7624C9.23058 20.769 8.87119 20.7567 7.66799 20.7047H7.66776ZM16.9687 5.31131C16.9691 5.58211 17.0499 5.8467 17.2007 6.0716C17.3515 6.29651 17.5657 6.47163 17.8161 6.57482C18.0664 6.67801 18.3418 6.70464 18.6073 6.65133C18.8728 6.59803 19.1165 6.46718 19.3076 6.27535C19.4988 6.08351 19.6287 5.8393 19.681 5.57361C19.7334 5.30791 19.7057 5.03267 19.6016 4.78268C19.4975 4.53269 19.3216 4.31919 19.0962 4.16919C18.8707 4.01918 18.6058 3.9394 18.335 3.93994C17.972 3.94067 17.6241 4.08554 17.3679 4.34271C17.1117 4.59988 16.9681 4.94829 16.9687 5.31131ZM6.40158 11.4204C6.40797 14.656 9.03571 17.2731 12.2706 17.2669C15.5056 17.2607 18.1244 14.6332 18.1183 11.3976C18.1121 8.16199 15.4837 5.54429 12.2483 5.55068C9.01289 5.55707 6.39542 8.18526 6.40158 11.4204ZM8.45659 11.4163C8.4551 10.6641 8.67669 9.9284 9.09334 9.30216C9.50999 8.67592 10.103 8.18729 10.7973 7.89807C11.4917 7.60885 12.2562 7.53202 12.9942 7.6773C13.7323 7.82259 14.4106 8.18345 14.9436 8.71427C15.4765 9.24509 15.84 9.92202 15.9882 10.6595C16.1364 11.3969 16.0626 12.1617 15.7762 12.8572C15.4897 13.5527 15.0034 14.1476 14.3788 14.5668C13.7542 14.9859 13.0194 15.2104 12.2672 15.2119C11.7678 15.2129 11.273 15.1156 10.8112 14.9254C10.3494 14.7352 9.92954 14.4559 9.57568 14.1034C9.22182 13.751 8.94085 13.3323 8.74884 12.8712C8.55682 12.4101 8.45751 11.9158 8.45659 11.4163Z" fill="white"/>
</svg>
