<svg width="15" height="15" viewBox="0 0 15 15" fill="none" xmlns="http://www.w3.org/2000/svg">
<path d="M4.63142 0.511433C3.87434 0.547153 3.35733 0.667972 2.90535 0.845573C2.43758 1.02787 2.04111 1.2725 1.64663 1.6684C1.25215 2.0643 1.00923 2.46106 0.82821 2.92953C0.653027 3.3825 0.534341 3.89993 0.500899 4.65744C0.467456 5.41495 0.460056 5.65844 0.463756 7.5907C0.467456 9.52296 0.475995 9.76517 0.51271 10.5242C0.548857 11.2812 0.66925 11.798 0.846852 12.2502C1.02943 12.7179 1.27378 13.1142 1.66983 13.5089C2.06587 13.9035 2.46235 14.1458 2.93197 14.3271C3.38451 14.502 3.90209 14.6213 4.65946 14.6545C5.41683 14.6876 5.6606 14.6953 7.59231 14.6916C9.52401 14.6879 9.76722 14.6794 10.5262 14.6434C11.2851 14.6073 11.7992 14.4861 12.2515 14.3094C12.7193 14.1263 13.1159 13.8824 13.5102 13.4862C13.9046 13.0901 14.1474 12.693 14.3282 12.2243C14.5036 11.7717 14.6227 11.2541 14.6555 10.4973C14.6887 9.73784 14.6965 9.49535 14.6928 7.56337C14.6891 5.6314 14.6804 5.38919 14.6444 4.6304C14.6084 3.87162 14.4879 3.35632 14.3104 2.90392C14.1276 2.43615 13.8835 2.04011 13.4876 1.6452C13.0917 1.2503 12.6944 1.00766 12.2258 0.827215C11.7729 0.652034 11.2556 0.532637 10.4983 0.499906C9.74089 0.467176 9.49712 0.458779 7.5647 0.462479C5.63228 0.466179 5.39036 0.474433 4.63142 0.511433ZM4.71453 13.3744C4.02077 13.3442 3.64408 13.2289 3.39305 13.1325C3.06061 13.0044 2.82381 12.8496 2.57363 12.6018C2.32345 12.354 2.16976 12.1164 2.03997 11.7847C1.94249 11.5336 1.82509 11.1574 1.79264 10.4636C1.75735 9.71379 1.74995 9.48866 1.74582 7.58899C1.74169 5.68932 1.74895 5.46447 1.78182 4.71436C1.81142 4.02118 1.92741 3.64406 2.02375 3.39317C2.15183 3.06032 2.30609 2.82394 2.55442 2.57391C2.80275 2.32387 3.03969 2.16989 3.3717 2.04011C3.62245 1.9422 3.99872 1.82579 4.69219 1.79278C5.44258 1.7572 5.66743 1.75008 7.56683 1.74596C9.46623 1.74183 9.69165 1.74895 10.4423 1.78196C11.1355 1.81213 11.5128 1.92697 11.7634 2.02389C12.096 2.15196 12.3326 2.3058 12.5827 2.55455C12.8327 2.80331 12.9868 3.0394 13.1166 3.37211C13.2147 3.62215 13.3311 3.99827 13.3638 4.69216C13.3995 5.44256 13.4076 5.66754 13.411 7.56679C13.4145 9.46604 13.4078 9.69159 13.3749 10.4414C13.3446 11.1352 13.2296 11.512 13.133 11.7633C13.0049 12.0956 12.8505 12.3325 12.602 12.5824C12.3535 12.8323 12.1169 12.9863 11.7847 13.1161C11.5343 13.2139 11.1576 13.3306 10.4647 13.3636C9.71428 13.3989 9.48943 13.4063 7.58932 13.4104C5.68921 13.4145 5.46507 13.4068 4.71467 13.3744H4.71453ZM10.5152 3.77413C10.5155 3.94302 10.5658 4.10803 10.6599 4.2483C10.754 4.38856 10.8875 4.49778 11.0437 4.56213C11.1998 4.62649 11.3715 4.6431 11.5371 4.60985C11.7027 4.57661 11.8547 4.495 11.9739 4.37536C12.0931 4.25572 12.1742 4.10342 12.2068 3.93772C12.2394 3.77201 12.2222 3.60035 12.1573 3.44444C12.0924 3.28854 11.9826 3.15539 11.842 3.06183C11.7014 2.96828 11.5362 2.91852 11.3673 2.91886C11.1409 2.91931 10.924 3.00967 10.7642 3.17005C10.6044 3.33044 10.5148 3.54773 10.5152 3.77413ZM3.92486 7.58415C3.92884 9.60208 5.56767 11.2342 7.58519 11.2304C9.60271 11.2265 11.236 9.58785 11.2321 7.56992C11.2283 5.55199 9.58905 3.91943 7.57125 3.92342C5.55344 3.9274 3.92101 5.56651 3.92486 7.58415ZM5.20649 7.58159C5.20557 7.11248 5.34377 6.65364 5.60362 6.26307C5.86347 5.87251 6.2333 5.56777 6.66635 5.38739C7.09939 5.20702 7.5762 5.1591 8.03648 5.24971C8.49675 5.34032 8.91983 5.56538 9.25219 5.89643C9.58456 6.22748 9.8113 6.64966 9.90373 7.10957C9.99616 7.56948 9.95013 8.04647 9.77147 8.48022C9.59281 8.91398 9.28953 9.28501 8.9 9.54641C8.51046 9.8078 8.05217 9.94781 7.58306 9.94874C7.27157 9.9494 6.963 9.88869 6.67498 9.77007C6.38696 9.65146 6.12513 9.47727 5.90443 9.25745C5.68374 9.03763 5.50851 8.77649 5.38876 8.48895C5.26901 8.2014 5.20707 7.89308 5.20649 7.58159Z" fill="#572B92"/>
</svg>
