<svg width="13" height="13" viewBox="0 0 13 13" fill="none" xmlns="http://www.w3.org/2000/svg">
<path d="M8.11282 8.86008C7.34298 9.47591 6.36647 9.84415 5.30396 9.84415C2.81867 9.84415 0.803955 7.82943 0.803955 5.34413C0.803955 2.85884 2.81867 0.844116 5.30396 0.844116C7.78924 0.844116 9.80396 2.85884 9.80396 5.34413C9.80396 6.40663 9.43573 7.38313 8.81993 8.15296L12.6575 11.9906C12.8528 12.1858 12.8528 12.5024 12.6575 12.6977C12.4622 12.8929 12.1457 12.8929 11.9504 12.6977L8.11282 8.86008ZM8.80396 5.34413C8.80396 3.41113 7.23695 1.84412 5.30396 1.84412C3.37096 1.84412 1.80396 3.41113 1.80396 5.34413C1.80396 7.27714 3.37096 8.84415 5.30396 8.84415C7.23695 8.84415 8.80396 7.27714 8.80396 5.34413Z" fill="#1A0D2C"/>
</svg>
