<svg width="16" height="15" viewBox="0 0 16 15" fill="none" xmlns="http://www.w3.org/2000/svg">
<path d="M12.9189 12.2973H10.7944V8.94835C10.7944 8.14976 10.7803 7.12172 9.68949 7.12172C8.58301 7.12172 8.41371 7.99182 8.41371 8.89021V12.2971H6.28924V5.41026H8.32872V6.35142H8.35728C8.56138 6.00013 8.85632 5.71115 9.21067 5.51525C9.56503 5.31935 9.96554 5.22386 10.3695 5.23896C12.5228 5.23896 12.9198 6.66462 12.9198 8.51932L12.9189 12.2973ZM3.89215 4.46888C3.64832 4.46892 3.40994 4.39618 3.20717 4.25985C3.00441 4.12353 2.84637 3.92974 2.75302 3.70299C2.65966 3.47625 2.6352 3.22673 2.68273 2.98599C2.73025 2.74526 2.84764 2.52411 3.02002 2.35052C3.19241 2.17694 3.41206 2.0587 3.6512 2.01078C3.89034 1.96285 4.13823 1.98738 4.36352 2.08127C4.58881 2.17515 4.78138 2.33418 4.91688 2.53824C5.05239 2.74229 5.12474 2.98221 5.12478 3.22766C5.12481 3.39063 5.09295 3.55201 5.03102 3.70258C4.96909 3.85316 4.87831 3.98998 4.76385 4.10524C4.64939 4.2205 4.51349 4.31193 4.36392 4.37432C4.21436 4.43672 4.05405 4.46885 3.89215 4.46888ZM4.95438 12.2973H2.82771V5.41026H4.95438V12.2973ZM13.978 0.000983298H1.76017C1.48286 -0.00216683 1.21564 0.105635 1.01725 0.300699C0.818862 0.495763 0.705533 0.762131 0.702148 1.04127V13.3909C0.705417 13.6701 0.818679 13.9367 1.01706 14.1319C1.21545 14.3272 1.48273 14.4352 1.76017 14.4323H13.978C14.256 14.4358 14.524 14.3281 14.7232 14.1328C14.9224 13.9375 15.0364 13.6707 15.0402 13.3909V1.04038C15.0363 0.760687 14.9222 0.494016 14.723 0.298956C14.5238 0.103897 14.2559 -0.00359692 13.978 9.18989e-05" fill="#3B0F76"/>
</svg>
