<svg width="24" height="23" viewBox="0 0 24 23" fill="none" xmlns="http://www.w3.org/2000/svg">
<path d="M23.3406 11.4788C23.3406 5.13924 18.2326 2.47955e-05 11.9315 2.47955e-05C5.63046 2.47955e-05 0.522461 5.13924 0.522461 11.4788C0.522461 17.2082 4.69458 21.957 10.1488 22.8181V14.7969H7.25202V11.4788H10.1488V8.94988C10.1488 6.07301 11.8521 4.48392 14.4582 4.48392C15.7065 4.48392 17.0121 4.70811 17.0121 4.70811V7.53297H15.5734C14.1562 7.53297 13.7142 8.4178 13.7142 9.32556V11.4788H16.8784L16.3726 14.7969H13.7142V22.8181C19.1684 21.957 23.3406 17.2082 23.3406 11.4788Z" fill="#3B0F76"/>
</svg>
