<svg width="15" height="15" viewBox="0 0 15 15" fill="none" xmlns="http://www.w3.org/2000/svg">
<path d="M4.42543 0.0508254C3.65219 0.087307 3.12415 0.210705 2.66254 0.392095C2.18479 0.578282 1.77986 0.82813 1.37696 1.23248C0.974064 1.63683 0.72596 2.04205 0.541081 2.52053C0.362161 2.98316 0.240944 3.51163 0.206788 4.28531C0.172632 5.05898 0.165074 5.30766 0.168853 7.28116C0.172632 9.25465 0.181352 9.50203 0.218851 10.2773C0.255769 11.0504 0.378731 11.5783 0.560121 12.04C0.746599 12.5178 0.996156 12.9226 1.40065 13.3256C1.80515 13.7287 2.21008 13.9762 2.68972 14.1614C3.15191 14.34 3.68053 14.4618 4.45406 14.4956C5.22758 14.5295 5.47656 14.5374 7.44947 14.5336C9.42239 14.5298 9.67078 14.5211 10.4459 14.4843C11.221 14.4475 11.7462 14.3237 12.2081 14.1432C12.6858 13.9563 13.0909 13.7071 13.4936 13.3025C13.8964 12.8979 14.1444 12.4924 14.3291 12.0136C14.5082 11.5514 14.6298 11.0228 14.6634 10.2498C14.6972 9.47412 14.7052 9.22645 14.7015 7.25325C14.6977 5.28005 14.6888 5.03267 14.652 4.25769C14.6153 3.48271 14.4922 2.95642 14.3109 2.49436C14.1241 2.01662 13.8749 1.61212 13.4705 1.20879C13.0662 0.805456 12.6604 0.557643 12.1818 0.373346C11.7193 0.194426 11.1909 0.0724818 10.4174 0.0390525C9.64389 0.00562312 9.39492 -0.00295224 7.42128 0.000826731C5.44764 0.0046057 5.20055 0.0130357 4.42543 0.0508254ZM4.51031 13.1883C3.80175 13.1575 3.41702 13.0397 3.16063 12.9412C2.82111 12.8104 2.57925 12.6522 2.32374 12.3992C2.06822 12.1461 1.91125 11.9034 1.77869 11.5646C1.67913 11.3082 1.55922 10.9239 1.52608 10.2154C1.49004 9.44956 1.48248 9.21962 1.47827 7.27941C1.47405 5.3392 1.48146 5.10956 1.51504 4.34344C1.54527 3.63547 1.66373 3.2503 1.76212 2.99406C1.89293 2.6541 2.05049 2.41268 2.30412 2.15731C2.55774 1.90194 2.79974 1.74468 3.13883 1.61212C3.39493 1.51212 3.77922 1.39323 4.48749 1.35951C5.25389 1.32318 5.48354 1.31591 7.42346 1.31169C9.36338 1.30748 9.5936 1.31475 10.3603 1.34847C11.0683 1.37928 11.4536 1.49657 11.7095 1.59555C12.0492 1.72636 12.2909 1.88348 12.5463 2.13754C12.8017 2.39161 12.9591 2.63273 13.0916 2.97255C13.1918 3.22792 13.3107 3.61207 13.3441 4.32077C13.3806 5.08717 13.3888 5.31696 13.3923 7.25674C13.3958 9.19651 13.389 9.42688 13.3554 10.1927C13.3245 10.9013 13.207 11.2861 13.1083 11.5428C12.9775 11.8822 12.8198 12.1242 12.5661 12.3794C12.3123 12.6346 12.0706 12.7919 11.7313 12.9245C11.4755 13.0243 11.0908 13.1435 10.3831 13.1772C9.61671 13.2133 9.38707 13.2208 7.44642 13.225C5.50577 13.2293 5.27686 13.2214 4.51045 13.1883H4.51031ZM10.4347 3.38315C10.435 3.55564 10.4864 3.72417 10.5825 3.86743C10.6786 4.01069 10.815 4.12223 10.9745 4.18796C11.1339 4.2537 11.3093 4.27066 11.4784 4.2367C11.6476 4.20275 11.8028 4.1194 11.9246 3.99721C12.0463 3.87502 12.1291 3.71946 12.1624 3.55022C12.1957 3.38098 12.1781 3.20566 12.1118 3.04642C12.0455 2.88719 11.9335 2.7512 11.7899 2.65565C11.6462 2.5601 11.4775 2.50928 11.305 2.50963C11.0738 2.51009 10.8522 2.60237 10.689 2.76618C10.5258 2.92999 10.4343 3.15191 10.4347 3.38315ZM3.70379 7.27447C3.70786 9.33546 5.38165 11.0024 7.44221 10.9985C9.50276 10.9946 11.1709 9.32093 11.167 7.25994C11.163 5.19894 9.48881 3.53155 7.42796 3.53562C5.36712 3.53969 3.69986 5.21377 3.70379 7.27447ZM5.01276 7.27185C5.01182 6.79274 5.15297 6.3241 5.41836 5.9252C5.68375 5.5263 6.06148 5.21506 6.50376 5.03084C6.94604 4.84661 7.43302 4.79767 7.90312 4.89021C8.37321 4.98276 8.80531 5.21262 9.14477 5.55073C9.48423 5.88885 9.7158 6.32003 9.8102 6.78976C9.9046 7.25948 9.85759 7.74665 9.67512 8.18966C9.49265 8.63267 9.18291 9.01163 8.78506 9.2786C8.38722 9.54557 7.91914 9.68857 7.44003 9.68952C7.12189 9.69019 6.80674 9.62818 6.51258 9.50704C6.21841 9.38589 5.95099 9.20799 5.72559 8.98348C5.50019 8.75897 5.32123 8.49226 5.19892 8.19857C5.07661 7.90489 5.01336 7.58999 5.01276 7.27185Z" fill="#3B0F76"/>
</svg>
