<svg width="29" height="23" viewBox="0 0 29 23" fill="none" xmlns="http://www.w3.org/2000/svg">
<path d="M25.6026 5.52271C25.6199 5.7634 25.6199 6.00408 25.6199 6.24698C25.6199 13.6483 19.7335 22.1843 8.96988 22.1843V22.1798C5.79027 22.1843 2.67671 21.3125 0 19.6687C0.462341 19.722 0.926999 19.7486 1.39282 19.7497C4.02781 19.7519 6.58749 18.9056 8.66049 17.3473C6.15644 17.3018 3.9606 15.739 3.19351 13.4575C4.07069 13.6195 4.97451 13.5862 5.83546 13.361C3.10545 12.8331 1.14137 10.5371 1.14137 7.87077C1.14137 7.84637 1.14137 7.82308 1.14137 7.79978C1.95481 8.23346 2.86559 8.47414 3.79722 8.50076C1.22596 6.8559 0.433372 3.58171 1.9861 1.02181C4.95713 4.52116 9.34068 6.64849 14.0464 6.87365C13.5747 4.92821 14.219 2.88961 15.7393 1.52204C18.0962 -0.598646 21.803 -0.48995 24.0186 1.76494C25.3291 1.5176 26.5852 1.0573 27.7347 0.405128C27.2978 1.70172 26.3836 2.8031 25.1622 3.50296C26.3221 3.37209 27.4554 3.07483 28.5226 2.6212C27.737 3.74808 26.7474 4.72968 25.6026 5.52271Z" fill="#3B0F76"/>
</svg>
