<svg width="24" height="23" viewBox="0 0 24 23" fill="none" xmlns="http://www.w3.org/2000/svg">
<path d="M23.3406 11.4788C23.3406 5.13922 18.2326 1.90735e-06 11.9315 1.90735e-06C5.63046 1.90735e-06 0.522461 5.13922 0.522461 11.4788C0.522461 17.2082 4.69458 21.957 10.1488 22.8181V14.7969H7.25202V11.4788H10.1488V8.94985C10.1488 6.07299 11.8521 4.4839 14.4582 4.4839C15.7065 4.4839 17.0121 4.70809 17.0121 4.70809V7.53294H15.5734C14.1562 7.53294 13.7142 8.41777 13.7142 9.32554V11.4788H16.8784L16.3726 14.7969H13.7142V22.8181C19.1684 21.957 23.3406 17.2082 23.3406 11.4788Z" fill="white"/>
</svg>
